G04 #@! TF.FileFunction,Legend,Bot*
%FSLAX46Y46*%
G04 Gerber Fmt 4.6, Leading zero omitted, Abs format (unit mm)*
G04 Created by KiCad (PCBNEW 4.0.5) date Saturday, February 10, 2018 'AMt' 02:18:48 AM*
%MOMM*%
%LPD*%
G01*
G04 APERTURE LIST*
%ADD10C,0.100000*%
%ADD11C,0.750000*%
%ADD12C,0.200000*%
%ADD13C,0.300000*%
%ADD14C,0.635000*%
%ADD15C,0.010000*%
G04 APERTURE END LIST*
D10*
D11*
X83566000Y-142240000D02*
X86614000Y-145288000D01*
X86868000Y-145288000D02*
X89916000Y-142240000D01*
X114554000Y-145288000D02*
X117602000Y-142240000D01*
X111506000Y-142240000D02*
X114554000Y-145288000D01*
X86741000Y-64008000D02*
X86741000Y-150368000D01*
D12*
X114554000Y-150368000D02*
X114554000Y-150495000D01*
D11*
X114554000Y-64008000D02*
X114554000Y-150368000D01*
D13*
X125717903Y-165716857D02*
X126395236Y-165716857D01*
X126395236Y-166781238D02*
X126395236Y-164749238D01*
X125427617Y-164749238D01*
X124653522Y-166781238D02*
X124653522Y-165426571D01*
X124653522Y-165813619D02*
X124556761Y-165620095D01*
X124459999Y-165523333D01*
X124266475Y-165426571D01*
X124072951Y-165426571D01*
X123105332Y-166781238D02*
X123298856Y-166684476D01*
X123395617Y-166587714D01*
X123492379Y-166394190D01*
X123492379Y-165813619D01*
X123395617Y-165620095D01*
X123298856Y-165523333D01*
X123105332Y-165426571D01*
X122815046Y-165426571D01*
X122621522Y-165523333D01*
X122524760Y-165620095D01*
X122427998Y-165813619D01*
X122427998Y-166394190D01*
X122524760Y-166587714D01*
X122621522Y-166684476D01*
X122815046Y-166781238D01*
X123105332Y-166781238D01*
X120686284Y-165426571D02*
X120686284Y-167071524D01*
X120783046Y-167265048D01*
X120879808Y-167361810D01*
X121073332Y-167458571D01*
X121363618Y-167458571D01*
X121557141Y-167361810D01*
X120686284Y-166684476D02*
X120879808Y-166781238D01*
X121266856Y-166781238D01*
X121460380Y-166684476D01*
X121557141Y-166587714D01*
X121653903Y-166394190D01*
X121653903Y-165813619D01*
X121557141Y-165620095D01*
X121460380Y-165523333D01*
X121266856Y-165426571D01*
X120879808Y-165426571D01*
X120686284Y-165523333D01*
X119428380Y-166781238D02*
X119621904Y-166684476D01*
X119718665Y-166490952D01*
X119718665Y-164749238D01*
X117880189Y-166684476D02*
X118073713Y-166781238D01*
X118460761Y-166781238D01*
X118654284Y-166684476D01*
X118751046Y-166490952D01*
X118751046Y-165716857D01*
X118654284Y-165523333D01*
X118460761Y-165426571D01*
X118073713Y-165426571D01*
X117880189Y-165523333D01*
X117783427Y-165716857D01*
X117783427Y-165910381D01*
X118751046Y-166103905D01*
X116041713Y-165426571D02*
X116041713Y-167071524D01*
X116138475Y-167265048D01*
X116235237Y-167361810D01*
X116428761Y-167458571D01*
X116719047Y-167458571D01*
X116912570Y-167361810D01*
X116041713Y-166684476D02*
X116235237Y-166781238D01*
X116622285Y-166781238D01*
X116815809Y-166684476D01*
X116912570Y-166587714D01*
X117009332Y-166394190D01*
X117009332Y-165813619D01*
X116912570Y-165620095D01*
X116815809Y-165523333D01*
X116622285Y-165426571D01*
X116235237Y-165426571D01*
X116041713Y-165523333D01*
X113622666Y-166684476D02*
X113332381Y-166781238D01*
X112848571Y-166781238D01*
X112655047Y-166684476D01*
X112558285Y-166587714D01*
X112461524Y-166394190D01*
X112461524Y-166200667D01*
X112558285Y-166007143D01*
X112655047Y-165910381D01*
X112848571Y-165813619D01*
X113235619Y-165716857D01*
X113429143Y-165620095D01*
X113525904Y-165523333D01*
X113622666Y-165329810D01*
X113622666Y-165136286D01*
X113525904Y-164942762D01*
X113429143Y-164846000D01*
X113235619Y-164749238D01*
X112751809Y-164749238D01*
X112461524Y-164846000D01*
X111784190Y-165426571D02*
X111300381Y-166781238D01*
X110816571Y-165426571D02*
X111300381Y-166781238D01*
X111493905Y-167265048D01*
X111590666Y-167361810D01*
X111784190Y-167458571D01*
X110042476Y-165426571D02*
X110042476Y-166781238D01*
X110042476Y-165620095D02*
X109945715Y-165523333D01*
X109752191Y-165426571D01*
X109461905Y-165426571D01*
X109268381Y-165523333D01*
X109171619Y-165716857D01*
X109171619Y-166781238D01*
X108494286Y-165426571D02*
X107720191Y-165426571D01*
X108204000Y-164749238D02*
X108204000Y-166490952D01*
X108107239Y-166684476D01*
X107913715Y-166781238D01*
X107720191Y-166781238D01*
X107042857Y-166781238D02*
X107042857Y-164749238D01*
X106172000Y-166781238D02*
X106172000Y-165716857D01*
X106268762Y-165523333D01*
X106462286Y-165426571D01*
X106752572Y-165426571D01*
X106946096Y-165523333D01*
X107042857Y-165620095D01*
X104430286Y-166684476D02*
X104623810Y-166781238D01*
X105010858Y-166781238D01*
X105204381Y-166684476D01*
X105301143Y-166490952D01*
X105301143Y-165716857D01*
X105204381Y-165523333D01*
X105010858Y-165426571D01*
X104623810Y-165426571D01*
X104430286Y-165523333D01*
X104333524Y-165716857D01*
X104333524Y-165910381D01*
X105301143Y-166103905D01*
X103559429Y-166684476D02*
X103365906Y-166781238D01*
X102978858Y-166781238D01*
X102785334Y-166684476D01*
X102688572Y-166490952D01*
X102688572Y-166394190D01*
X102785334Y-166200667D01*
X102978858Y-166103905D01*
X103269144Y-166103905D01*
X103462667Y-166007143D01*
X103559429Y-165813619D01*
X103559429Y-165716857D01*
X103462667Y-165523333D01*
X103269144Y-165426571D01*
X102978858Y-165426571D01*
X102785334Y-165523333D01*
X101817715Y-166781238D02*
X101817715Y-165426571D01*
X101817715Y-164749238D02*
X101914477Y-164846000D01*
X101817715Y-164942762D01*
X101720954Y-164846000D01*
X101817715Y-164749238D01*
X101817715Y-164942762D01*
X100946858Y-166684476D02*
X100753335Y-166781238D01*
X100366287Y-166781238D01*
X100172763Y-166684476D01*
X100076001Y-166490952D01*
X100076001Y-166394190D01*
X100172763Y-166200667D01*
X100366287Y-166103905D01*
X100656573Y-166103905D01*
X100850096Y-166007143D01*
X100946858Y-165813619D01*
X100946858Y-165716857D01*
X100850096Y-165523333D01*
X100656573Y-165426571D01*
X100366287Y-165426571D01*
X100172763Y-165523333D01*
X89367999Y-158412571D02*
X89510857Y-158341143D01*
X89582285Y-158269714D01*
X89653714Y-158126857D01*
X89653714Y-157698286D01*
X89582285Y-157555429D01*
X89510857Y-157484000D01*
X89367999Y-157412571D01*
X89153714Y-157412571D01*
X89010857Y-157484000D01*
X88939428Y-157555429D01*
X88867999Y-157698286D01*
X88867999Y-158126857D01*
X88939428Y-158269714D01*
X89010857Y-158341143D01*
X89153714Y-158412571D01*
X89367999Y-158412571D01*
X87582285Y-157412571D02*
X87582285Y-158412571D01*
X88225142Y-157412571D02*
X88225142Y-158198286D01*
X88153714Y-158341143D01*
X88010856Y-158412571D01*
X87796571Y-158412571D01*
X87653714Y-158341143D01*
X87582285Y-158269714D01*
X87082285Y-157412571D02*
X86510856Y-157412571D01*
X86867999Y-156912571D02*
X86867999Y-158198286D01*
X86796571Y-158341143D01*
X86653713Y-158412571D01*
X86510856Y-158412571D01*
X84939428Y-157055429D02*
X84867999Y-156984000D01*
X84725142Y-156912571D01*
X84367999Y-156912571D01*
X84225142Y-156984000D01*
X84153713Y-157055429D01*
X84082285Y-157198286D01*
X84082285Y-157341143D01*
X84153713Y-157555429D01*
X85010856Y-158412571D01*
X84082285Y-158412571D01*
X117307999Y-158412571D02*
X117450857Y-158341143D01*
X117522285Y-158269714D01*
X117593714Y-158126857D01*
X117593714Y-157698286D01*
X117522285Y-157555429D01*
X117450857Y-157484000D01*
X117307999Y-157412571D01*
X117093714Y-157412571D01*
X116950857Y-157484000D01*
X116879428Y-157555429D01*
X116807999Y-157698286D01*
X116807999Y-158126857D01*
X116879428Y-158269714D01*
X116950857Y-158341143D01*
X117093714Y-158412571D01*
X117307999Y-158412571D01*
X115522285Y-157412571D02*
X115522285Y-158412571D01*
X116165142Y-157412571D02*
X116165142Y-158198286D01*
X116093714Y-158341143D01*
X115950856Y-158412571D01*
X115736571Y-158412571D01*
X115593714Y-158341143D01*
X115522285Y-158269714D01*
X115022285Y-157412571D02*
X114450856Y-157412571D01*
X114807999Y-156912571D02*
X114807999Y-158198286D01*
X114736571Y-158341143D01*
X114593713Y-158412571D01*
X114450856Y-158412571D01*
X112022285Y-158412571D02*
X112879428Y-158412571D01*
X112450856Y-158412571D02*
X112450856Y-156912571D01*
X112593713Y-157126857D01*
X112736571Y-157269714D01*
X112879428Y-157341143D01*
X143005428Y-158341143D02*
X143148285Y-158412571D01*
X143433999Y-158412571D01*
X143576857Y-158341143D01*
X143648285Y-158269714D01*
X143719714Y-158126857D01*
X143719714Y-157698286D01*
X143648285Y-157555429D01*
X143576857Y-157484000D01*
X143433999Y-157412571D01*
X143148285Y-157412571D01*
X143005428Y-157484000D01*
X142148285Y-158412571D02*
X142291143Y-158341143D01*
X142362571Y-158198286D01*
X142362571Y-156912571D01*
X141362571Y-158412571D02*
X141505429Y-158341143D01*
X141576857Y-158269714D01*
X141648286Y-158126857D01*
X141648286Y-157698286D01*
X141576857Y-157555429D01*
X141505429Y-157484000D01*
X141362571Y-157412571D01*
X141148286Y-157412571D01*
X141005429Y-157484000D01*
X140934000Y-157555429D01*
X140862571Y-157698286D01*
X140862571Y-158126857D01*
X140934000Y-158269714D01*
X141005429Y-158341143D01*
X141148286Y-158412571D01*
X141362571Y-158412571D01*
X139576857Y-158341143D02*
X139719714Y-158412571D01*
X140005428Y-158412571D01*
X140148286Y-158341143D01*
X140219714Y-158269714D01*
X140291143Y-158126857D01*
X140291143Y-157698286D01*
X140219714Y-157555429D01*
X140148286Y-157484000D01*
X140005428Y-157412571D01*
X139719714Y-157412571D01*
X139576857Y-157484000D01*
X138934000Y-158412571D02*
X138934000Y-156912571D01*
X138791143Y-157841143D02*
X138362572Y-158412571D01*
X138362572Y-157412571D02*
X138934000Y-157984000D01*
X136362571Y-158412571D02*
X136505429Y-158341143D01*
X136576857Y-158269714D01*
X136648286Y-158126857D01*
X136648286Y-157698286D01*
X136576857Y-157555429D01*
X136505429Y-157484000D01*
X136362571Y-157412571D01*
X136148286Y-157412571D01*
X136005429Y-157484000D01*
X135934000Y-157555429D01*
X135862571Y-157698286D01*
X135862571Y-158126857D01*
X135934000Y-158269714D01*
X136005429Y-158341143D01*
X136148286Y-158412571D01*
X136362571Y-158412571D01*
X134576857Y-157412571D02*
X134576857Y-158412571D01*
X135219714Y-157412571D02*
X135219714Y-158198286D01*
X135148286Y-158341143D01*
X135005428Y-158412571D01*
X134791143Y-158412571D01*
X134648286Y-158341143D01*
X134576857Y-158269714D01*
X134076857Y-157412571D02*
X133505428Y-157412571D01*
X133862571Y-156912571D02*
X133862571Y-158198286D01*
X133791143Y-158341143D01*
X133648285Y-158412571D01*
X133505428Y-158412571D01*
X132123429Y-129202571D02*
X132123429Y-127702571D01*
X132123429Y-129131143D02*
X132266286Y-129202571D01*
X132552000Y-129202571D01*
X132694858Y-129131143D01*
X132766286Y-129059714D01*
X132837715Y-128916857D01*
X132837715Y-128488286D01*
X132766286Y-128345429D01*
X132694858Y-128274000D01*
X132552000Y-128202571D01*
X132266286Y-128202571D01*
X132123429Y-128274000D01*
X131194857Y-129202571D02*
X131337715Y-129131143D01*
X131409143Y-129059714D01*
X131480572Y-128916857D01*
X131480572Y-128488286D01*
X131409143Y-128345429D01*
X131337715Y-128274000D01*
X131194857Y-128202571D01*
X130980572Y-128202571D01*
X130837715Y-128274000D01*
X130766286Y-128345429D01*
X130694857Y-128488286D01*
X130694857Y-128916857D01*
X130766286Y-129059714D01*
X130837715Y-129131143D01*
X130980572Y-129202571D01*
X131194857Y-129202571D01*
X130194857Y-128202571D02*
X129909143Y-129202571D01*
X129623429Y-128488286D01*
X129337714Y-129202571D01*
X129052000Y-128202571D01*
X128480571Y-128202571D02*
X128480571Y-129202571D01*
X128480571Y-128345429D02*
X128409143Y-128274000D01*
X128266285Y-128202571D01*
X128052000Y-128202571D01*
X127909143Y-128274000D01*
X127837714Y-128416857D01*
X127837714Y-129202571D01*
X130659143Y-116518571D02*
X130659143Y-117518571D01*
X131302000Y-116518571D02*
X131302000Y-117304286D01*
X131230572Y-117447143D01*
X131087714Y-117518571D01*
X130873429Y-117518571D01*
X130730572Y-117447143D01*
X130659143Y-117375714D01*
X129944857Y-116518571D02*
X129944857Y-118018571D01*
X129944857Y-116590000D02*
X129802000Y-116518571D01*
X129516286Y-116518571D01*
X129373429Y-116590000D01*
X129302000Y-116661429D01*
X129230571Y-116804286D01*
X129230571Y-117232857D01*
X129302000Y-117375714D01*
X129373429Y-117447143D01*
X129516286Y-117518571D01*
X129802000Y-117518571D01*
X129944857Y-117447143D01*
X132409143Y-115415143D02*
X132266286Y-115486571D01*
X131980571Y-115486571D01*
X131837714Y-115415143D01*
X131766286Y-115272286D01*
X131766286Y-115200857D01*
X131837714Y-115058000D01*
X131980571Y-114986571D01*
X132194857Y-114986571D01*
X132337714Y-114915143D01*
X132409143Y-114772286D01*
X132409143Y-114700857D01*
X132337714Y-114558000D01*
X132194857Y-114486571D01*
X131980571Y-114486571D01*
X131837714Y-114558000D01*
X131337714Y-114486571D02*
X130766285Y-114486571D01*
X131123428Y-113986571D02*
X131123428Y-115272286D01*
X131052000Y-115415143D01*
X130909142Y-115486571D01*
X130766285Y-115486571D01*
X130051999Y-115486571D02*
X130194857Y-115415143D01*
X130266285Y-115343714D01*
X130337714Y-115200857D01*
X130337714Y-114772286D01*
X130266285Y-114629429D01*
X130194857Y-114558000D01*
X130051999Y-114486571D01*
X129837714Y-114486571D01*
X129694857Y-114558000D01*
X129623428Y-114629429D01*
X129551999Y-114772286D01*
X129551999Y-115200857D01*
X129623428Y-115343714D01*
X129694857Y-115415143D01*
X129837714Y-115486571D01*
X130051999Y-115486571D01*
X128909142Y-114486571D02*
X128909142Y-115986571D01*
X128909142Y-114558000D02*
X128766285Y-114486571D01*
X128480571Y-114486571D01*
X128337714Y-114558000D01*
X128266285Y-114629429D01*
X128194856Y-114772286D01*
X128194856Y-115200857D01*
X128266285Y-115343714D01*
X128337714Y-115415143D01*
X128480571Y-115486571D01*
X128766285Y-115486571D01*
X128909142Y-115415143D01*
X131766285Y-103548571D02*
X131766285Y-102548571D01*
X131766285Y-102834286D02*
X131694857Y-102691429D01*
X131623428Y-102620000D01*
X131480571Y-102548571D01*
X131337714Y-102548571D01*
X130194857Y-102548571D02*
X130194857Y-103548571D01*
X130837714Y-102548571D02*
X130837714Y-103334286D01*
X130766286Y-103477143D01*
X130623428Y-103548571D01*
X130409143Y-103548571D01*
X130266286Y-103477143D01*
X130194857Y-103405714D01*
X129480571Y-102548571D02*
X129480571Y-103548571D01*
X129480571Y-102691429D02*
X129409143Y-102620000D01*
X129266285Y-102548571D01*
X129052000Y-102548571D01*
X128909143Y-102620000D01*
X128837714Y-102762857D01*
X128837714Y-103548571D01*
X150129428Y-88237143D02*
X150272285Y-88308571D01*
X150557999Y-88308571D01*
X150700857Y-88237143D01*
X150772285Y-88165714D01*
X150843714Y-88022857D01*
X150843714Y-87594286D01*
X150772285Y-87451429D01*
X150700857Y-87380000D01*
X150557999Y-87308571D01*
X150272285Y-87308571D01*
X150129428Y-87380000D01*
X149272285Y-88308571D02*
X149415143Y-88237143D01*
X149486571Y-88094286D01*
X149486571Y-86808571D01*
X148486571Y-88308571D02*
X148629429Y-88237143D01*
X148700857Y-88165714D01*
X148772286Y-88022857D01*
X148772286Y-87594286D01*
X148700857Y-87451429D01*
X148629429Y-87380000D01*
X148486571Y-87308571D01*
X148272286Y-87308571D01*
X148129429Y-87380000D01*
X148058000Y-87451429D01*
X147986571Y-87594286D01*
X147986571Y-88022857D01*
X148058000Y-88165714D01*
X148129429Y-88237143D01*
X148272286Y-88308571D01*
X148486571Y-88308571D01*
X146700857Y-88237143D02*
X146843714Y-88308571D01*
X147129428Y-88308571D01*
X147272286Y-88237143D01*
X147343714Y-88165714D01*
X147415143Y-88022857D01*
X147415143Y-87594286D01*
X147343714Y-87451429D01*
X147272286Y-87380000D01*
X147129428Y-87308571D01*
X146843714Y-87308571D01*
X146700857Y-87380000D01*
X146058000Y-88308571D02*
X146058000Y-86808571D01*
X145915143Y-87737143D02*
X145486572Y-88308571D01*
X145486572Y-87308571D02*
X146058000Y-87880000D01*
X143700857Y-88308571D02*
X143700857Y-87308571D01*
X143700857Y-86808571D02*
X143772286Y-86880000D01*
X143700857Y-86951429D01*
X143629429Y-86880000D01*
X143700857Y-86808571D01*
X143700857Y-86951429D01*
X142986571Y-87308571D02*
X142986571Y-88308571D01*
X142986571Y-87451429D02*
X142915143Y-87380000D01*
X142772285Y-87308571D01*
X142558000Y-87308571D01*
X142415143Y-87380000D01*
X142343714Y-87522857D01*
X142343714Y-88308571D01*
D14*
X143280189Y-50425048D02*
X143280189Y-47885048D01*
X143280189Y-49094571D02*
X141828761Y-49094571D01*
X141828761Y-50425048D02*
X141828761Y-47885048D01*
X140256380Y-50425048D02*
X140498285Y-50304095D01*
X140619237Y-50183143D01*
X140740189Y-49941238D01*
X140740189Y-49215524D01*
X140619237Y-48973619D01*
X140498285Y-48852667D01*
X140256380Y-48731714D01*
X139893523Y-48731714D01*
X139651618Y-48852667D01*
X139530666Y-48973619D01*
X139409713Y-49215524D01*
X139409713Y-49941238D01*
X139530666Y-50183143D01*
X139651618Y-50304095D01*
X139893523Y-50425048D01*
X140256380Y-50425048D01*
X137958285Y-50425048D02*
X138200190Y-50304095D01*
X138321142Y-50183143D01*
X138442094Y-49941238D01*
X138442094Y-49215524D01*
X138321142Y-48973619D01*
X138200190Y-48852667D01*
X137958285Y-48731714D01*
X137595428Y-48731714D01*
X137353523Y-48852667D01*
X137232571Y-48973619D01*
X137111618Y-49215524D01*
X137111618Y-49941238D01*
X137232571Y-50183143D01*
X137353523Y-50304095D01*
X137595428Y-50425048D01*
X137958285Y-50425048D01*
X136023047Y-50425048D02*
X136023047Y-47885048D01*
X135781142Y-49457429D02*
X135055428Y-50425048D01*
X135055428Y-48731714D02*
X136023047Y-49699333D01*
X133845905Y-47885048D02*
X134087809Y-48368857D01*
X132878285Y-50304095D02*
X132636381Y-50425048D01*
X132152571Y-50425048D01*
X131910666Y-50304095D01*
X131789714Y-50062190D01*
X131789714Y-49941238D01*
X131910666Y-49699333D01*
X132152571Y-49578381D01*
X132515428Y-49578381D01*
X132757333Y-49457429D01*
X132878285Y-49215524D01*
X132878285Y-49094571D01*
X132757333Y-48852667D01*
X132515428Y-48731714D01*
X132152571Y-48731714D01*
X131910666Y-48852667D01*
X127435429Y-48006000D02*
X127677334Y-47885048D01*
X128040191Y-47885048D01*
X128403048Y-48006000D01*
X128644953Y-48247905D01*
X128765905Y-48489810D01*
X128886857Y-48973619D01*
X128886857Y-49336476D01*
X128765905Y-49820286D01*
X128644953Y-50062190D01*
X128403048Y-50304095D01*
X128040191Y-50425048D01*
X127798286Y-50425048D01*
X127435429Y-50304095D01*
X127314477Y-50183143D01*
X127314477Y-49336476D01*
X127798286Y-49336476D01*
X125137334Y-50425048D02*
X125137334Y-49094571D01*
X125258286Y-48852667D01*
X125500191Y-48731714D01*
X125984000Y-48731714D01*
X126225905Y-48852667D01*
X125137334Y-50304095D02*
X125379238Y-50425048D01*
X125984000Y-50425048D01*
X126225905Y-50304095D01*
X126346857Y-50062190D01*
X126346857Y-49820286D01*
X126225905Y-49578381D01*
X125984000Y-49457429D01*
X125379238Y-49457429D01*
X125137334Y-49336476D01*
X124290667Y-48731714D02*
X123323048Y-48731714D01*
X123927810Y-47885048D02*
X123927810Y-50062190D01*
X123806858Y-50304095D01*
X123564953Y-50425048D01*
X123323048Y-50425048D01*
X122113524Y-50425048D02*
X122355429Y-50304095D01*
X122476381Y-50183143D01*
X122597333Y-49941238D01*
X122597333Y-49215524D01*
X122476381Y-48973619D01*
X122355429Y-48852667D01*
X122113524Y-48731714D01*
X121750667Y-48731714D01*
X121508762Y-48852667D01*
X121387810Y-48973619D01*
X121266857Y-49215524D01*
X121266857Y-49941238D01*
X121387810Y-50183143D01*
X121508762Y-50304095D01*
X121750667Y-50425048D01*
X122113524Y-50425048D01*
X120178286Y-50425048D02*
X120178286Y-48731714D01*
X120178286Y-49215524D02*
X120057334Y-48973619D01*
X119936381Y-48852667D01*
X119694477Y-48731714D01*
X119452572Y-48731714D01*
X117033524Y-47885048D02*
X115582096Y-47885048D01*
X116307810Y-50425048D02*
X116307810Y-47885048D01*
X114735429Y-50425048D02*
X114735429Y-48731714D01*
X114735429Y-49215524D02*
X114614477Y-48973619D01*
X114493524Y-48852667D01*
X114251620Y-48731714D01*
X114009715Y-48731714D01*
X113163048Y-50425048D02*
X113163048Y-48731714D01*
X113163048Y-47885048D02*
X113284000Y-48006000D01*
X113163048Y-48126952D01*
X113042096Y-48006000D01*
X113163048Y-47885048D01*
X113163048Y-48126952D01*
X110864953Y-48731714D02*
X110864953Y-50787905D01*
X110985905Y-51029810D01*
X111106857Y-51150762D01*
X111348762Y-51271714D01*
X111711619Y-51271714D01*
X111953524Y-51150762D01*
X110864953Y-50304095D02*
X111106857Y-50425048D01*
X111590667Y-50425048D01*
X111832572Y-50304095D01*
X111953524Y-50183143D01*
X112074476Y-49941238D01*
X112074476Y-49215524D01*
X111953524Y-48973619D01*
X111832572Y-48852667D01*
X111590667Y-48731714D01*
X111106857Y-48731714D01*
X110864953Y-48852667D01*
X108566858Y-48731714D02*
X108566858Y-50787905D01*
X108687810Y-51029810D01*
X108808762Y-51150762D01*
X109050667Y-51271714D01*
X109413524Y-51271714D01*
X109655429Y-51150762D01*
X108566858Y-50304095D02*
X108808762Y-50425048D01*
X109292572Y-50425048D01*
X109534477Y-50304095D01*
X109655429Y-50183143D01*
X109776381Y-49941238D01*
X109776381Y-49215524D01*
X109655429Y-48973619D01*
X109534477Y-48852667D01*
X109292572Y-48731714D01*
X108808762Y-48731714D01*
X108566858Y-48852667D01*
X106389715Y-50304095D02*
X106631620Y-50425048D01*
X107115429Y-50425048D01*
X107357334Y-50304095D01*
X107478286Y-50062190D01*
X107478286Y-49094571D01*
X107357334Y-48852667D01*
X107115429Y-48731714D01*
X106631620Y-48731714D01*
X106389715Y-48852667D01*
X106268763Y-49094571D01*
X106268763Y-49336476D01*
X107478286Y-49578381D01*
X105180191Y-50425048D02*
X105180191Y-48731714D01*
X105180191Y-49215524D02*
X105059239Y-48973619D01*
X104938286Y-48852667D01*
X104696382Y-48731714D01*
X104454477Y-48731714D01*
X101793524Y-50304095D02*
X101430667Y-50425048D01*
X100825905Y-50425048D01*
X100584001Y-50304095D01*
X100463048Y-50183143D01*
X100342096Y-49941238D01*
X100342096Y-49699333D01*
X100463048Y-49457429D01*
X100584001Y-49336476D01*
X100825905Y-49215524D01*
X101309715Y-49094571D01*
X101551620Y-48973619D01*
X101672572Y-48852667D01*
X101793524Y-48610762D01*
X101793524Y-48368857D01*
X101672572Y-48126952D01*
X101551620Y-48006000D01*
X101309715Y-47885048D01*
X100704953Y-47885048D01*
X100342096Y-48006000D01*
X98285905Y-50304095D02*
X98527810Y-50425048D01*
X99011619Y-50425048D01*
X99253524Y-50304095D01*
X99374476Y-50062190D01*
X99374476Y-49094571D01*
X99253524Y-48852667D01*
X99011619Y-48731714D01*
X98527810Y-48731714D01*
X98285905Y-48852667D01*
X98164953Y-49094571D01*
X98164953Y-49336476D01*
X99374476Y-49578381D01*
X95987810Y-48731714D02*
X95987810Y-51271714D01*
X95987810Y-50304095D02*
X96229714Y-50425048D01*
X96713524Y-50425048D01*
X96955429Y-50304095D01*
X97076381Y-50183143D01*
X97197333Y-49941238D01*
X97197333Y-49215524D01*
X97076381Y-48973619D01*
X96955429Y-48852667D01*
X96713524Y-48731714D01*
X96229714Y-48731714D01*
X95987810Y-48852667D01*
X93689715Y-48731714D02*
X93689715Y-50425048D01*
X94778286Y-48731714D02*
X94778286Y-50062190D01*
X94657334Y-50304095D01*
X94415429Y-50425048D01*
X94052572Y-50425048D01*
X93810667Y-50304095D01*
X93689715Y-50183143D01*
X91512572Y-50304095D02*
X91754477Y-50425048D01*
X92238286Y-50425048D01*
X92480191Y-50304095D01*
X92601143Y-50062190D01*
X92601143Y-49094571D01*
X92480191Y-48852667D01*
X92238286Y-48731714D01*
X91754477Y-48731714D01*
X91512572Y-48852667D01*
X91391620Y-49094571D01*
X91391620Y-49336476D01*
X92601143Y-49578381D01*
X90303048Y-48731714D02*
X90303048Y-50425048D01*
X90303048Y-48973619D02*
X90182096Y-48852667D01*
X89940191Y-48731714D01*
X89577334Y-48731714D01*
X89335429Y-48852667D01*
X89214477Y-49094571D01*
X89214477Y-50425048D01*
X86916382Y-50304095D02*
X87158286Y-50425048D01*
X87642096Y-50425048D01*
X87884001Y-50304095D01*
X88004953Y-50183143D01*
X88125905Y-49941238D01*
X88125905Y-49215524D01*
X88004953Y-48973619D01*
X87884001Y-48852667D01*
X87642096Y-48731714D01*
X87158286Y-48731714D01*
X86916382Y-48852667D01*
X84860191Y-50304095D02*
X85102096Y-50425048D01*
X85585905Y-50425048D01*
X85827810Y-50304095D01*
X85948762Y-50062190D01*
X85948762Y-49094571D01*
X85827810Y-48852667D01*
X85585905Y-48731714D01*
X85102096Y-48731714D01*
X84860191Y-48852667D01*
X84739239Y-49094571D01*
X84739239Y-49336476D01*
X85948762Y-49578381D01*
X83650667Y-50425048D02*
X83650667Y-48731714D01*
X83650667Y-49215524D02*
X83529715Y-48973619D01*
X83408762Y-48852667D01*
X83166858Y-48731714D01*
X82924953Y-48731714D01*
D13*
X140350571Y-142664571D02*
X140350571Y-141664571D01*
X140350571Y-141950286D02*
X140279143Y-141807429D01*
X140207714Y-141736000D01*
X140064857Y-141664571D01*
X139922000Y-141664571D01*
X138850572Y-142593143D02*
X138993429Y-142664571D01*
X139279143Y-142664571D01*
X139422000Y-142593143D01*
X139493429Y-142450286D01*
X139493429Y-141878857D01*
X139422000Y-141736000D01*
X139279143Y-141664571D01*
X138993429Y-141664571D01*
X138850572Y-141736000D01*
X138779143Y-141878857D01*
X138779143Y-142021714D01*
X139493429Y-142164571D01*
X138207715Y-142593143D02*
X138064858Y-142664571D01*
X137779143Y-142664571D01*
X137636286Y-142593143D01*
X137564858Y-142450286D01*
X137564858Y-142378857D01*
X137636286Y-142236000D01*
X137779143Y-142164571D01*
X137993429Y-142164571D01*
X138136286Y-142093143D01*
X138207715Y-141950286D01*
X138207715Y-141878857D01*
X138136286Y-141736000D01*
X137993429Y-141664571D01*
X137779143Y-141664571D01*
X137636286Y-141736000D01*
X136350572Y-142593143D02*
X136493429Y-142664571D01*
X136779143Y-142664571D01*
X136922000Y-142593143D01*
X136993429Y-142450286D01*
X136993429Y-141878857D01*
X136922000Y-141736000D01*
X136779143Y-141664571D01*
X136493429Y-141664571D01*
X136350572Y-141736000D01*
X136279143Y-141878857D01*
X136279143Y-142021714D01*
X136993429Y-142164571D01*
X135850572Y-141664571D02*
X135279143Y-141664571D01*
X135636286Y-141164571D02*
X135636286Y-142450286D01*
X135564858Y-142593143D01*
X135422000Y-142664571D01*
X135279143Y-142664571D01*
X131909142Y-85768571D02*
X132766285Y-85768571D01*
X132337713Y-85768571D02*
X132337713Y-84268571D01*
X132480570Y-84482857D01*
X132623428Y-84625714D01*
X132766285Y-84697143D01*
X131409142Y-85768571D02*
X130623428Y-84768571D01*
X131409142Y-84768571D02*
X130623428Y-85768571D01*
X129266285Y-85768571D02*
X130123428Y-85768571D01*
X129694856Y-85768571D02*
X129694856Y-84268571D01*
X129837713Y-84482857D01*
X129980571Y-84625714D01*
X130123428Y-84697143D01*
X127980571Y-84268571D02*
X128266285Y-84268571D01*
X128409142Y-84340000D01*
X128480571Y-84411429D01*
X128623428Y-84625714D01*
X128694857Y-84911429D01*
X128694857Y-85482857D01*
X128623428Y-85625714D01*
X128552000Y-85697143D01*
X128409142Y-85768571D01*
X128123428Y-85768571D01*
X127980571Y-85697143D01*
X127909142Y-85625714D01*
X127837714Y-85482857D01*
X127837714Y-85125714D01*
X127909142Y-84982857D01*
X127980571Y-84911429D01*
X128123428Y-84840000D01*
X128409142Y-84840000D01*
X128552000Y-84911429D01*
X128623428Y-84982857D01*
X128694857Y-85125714D01*
X132052000Y-72981429D02*
X131980571Y-72910000D01*
X131837714Y-72838571D01*
X131480571Y-72838571D01*
X131337714Y-72910000D01*
X131266285Y-72981429D01*
X131194857Y-73124286D01*
X131194857Y-73267143D01*
X131266285Y-73481429D01*
X132123428Y-74338571D01*
X131194857Y-74338571D01*
X130694857Y-74338571D02*
X129909143Y-73338571D01*
X130694857Y-73338571D02*
X129909143Y-74338571D01*
X129123428Y-73481429D02*
X129266286Y-73410000D01*
X129337714Y-73338571D01*
X129409143Y-73195714D01*
X129409143Y-73124286D01*
X129337714Y-72981429D01*
X129266286Y-72910000D01*
X129123428Y-72838571D01*
X128837714Y-72838571D01*
X128694857Y-72910000D01*
X128623428Y-72981429D01*
X128552000Y-73124286D01*
X128552000Y-73195714D01*
X128623428Y-73338571D01*
X128694857Y-73410000D01*
X128837714Y-73481429D01*
X129123428Y-73481429D01*
X129266286Y-73552857D01*
X129337714Y-73624286D01*
X129409143Y-73767143D01*
X129409143Y-74052857D01*
X129337714Y-74195714D01*
X129266286Y-74267143D01*
X129123428Y-74338571D01*
X128837714Y-74338571D01*
X128694857Y-74267143D01*
X128623428Y-74195714D01*
X128552000Y-74052857D01*
X128552000Y-73767143D01*
X128623428Y-73624286D01*
X128694857Y-73552857D01*
X128837714Y-73481429D01*
X149272286Y-71306571D02*
X148986572Y-72306571D01*
X148700858Y-71592286D01*
X148415143Y-72306571D01*
X148129429Y-71306571D01*
X147558000Y-72306571D02*
X147558000Y-71306571D01*
X147558000Y-70806571D02*
X147629429Y-70878000D01*
X147558000Y-70949429D01*
X147486572Y-70878000D01*
X147558000Y-70806571D01*
X147558000Y-70949429D01*
X146200857Y-72306571D02*
X146200857Y-70806571D01*
X146200857Y-72235143D02*
X146343714Y-72306571D01*
X146629428Y-72306571D01*
X146772286Y-72235143D01*
X146843714Y-72163714D01*
X146915143Y-72020857D01*
X146915143Y-71592286D01*
X146843714Y-71449429D01*
X146772286Y-71378000D01*
X146629428Y-71306571D01*
X146343714Y-71306571D01*
X146200857Y-71378000D01*
X145700857Y-71306571D02*
X145129428Y-71306571D01*
X145486571Y-70806571D02*
X145486571Y-72092286D01*
X145415143Y-72235143D01*
X145272285Y-72306571D01*
X145129428Y-72306571D01*
X144629428Y-72306571D02*
X144629428Y-70806571D01*
X143986571Y-72306571D02*
X143986571Y-71520857D01*
X144058000Y-71378000D01*
X144200857Y-71306571D01*
X144415142Y-71306571D01*
X144558000Y-71378000D01*
X144629428Y-71449429D01*
X132159142Y-56558571D02*
X132159142Y-55558571D01*
X132159142Y-55844286D02*
X132087714Y-55701429D01*
X132016285Y-55630000D01*
X131873428Y-55558571D01*
X131730571Y-55558571D01*
X130587714Y-56558571D02*
X130587714Y-55772857D01*
X130659143Y-55630000D01*
X130802000Y-55558571D01*
X131087714Y-55558571D01*
X131230571Y-55630000D01*
X130587714Y-56487143D02*
X130730571Y-56558571D01*
X131087714Y-56558571D01*
X131230571Y-56487143D01*
X131302000Y-56344286D01*
X131302000Y-56201429D01*
X131230571Y-56058571D01*
X131087714Y-55987143D01*
X130730571Y-55987143D01*
X130587714Y-55915714D01*
X130087714Y-55558571D02*
X129516285Y-55558571D01*
X129873428Y-55058571D02*
X129873428Y-56344286D01*
X129802000Y-56487143D01*
X129659142Y-56558571D01*
X129516285Y-56558571D01*
X128444857Y-56487143D02*
X128587714Y-56558571D01*
X128873428Y-56558571D01*
X129016285Y-56487143D01*
X129087714Y-56344286D01*
X129087714Y-55772857D01*
X129016285Y-55630000D01*
X128873428Y-55558571D01*
X128587714Y-55558571D01*
X128444857Y-55630000D01*
X128373428Y-55772857D01*
X128373428Y-55915714D01*
X129087714Y-56058571D01*
D15*
G36*
X141056612Y-55304129D02*
X140843230Y-55462501D01*
X140552789Y-55701416D01*
X140196869Y-56010464D01*
X139787051Y-56379239D01*
X139334916Y-56797332D01*
X138852045Y-57254335D01*
X138391098Y-57699722D01*
X138031965Y-58061600D01*
X137761122Y-58367387D01*
X137566826Y-58639237D01*
X137437337Y-58899308D01*
X137360912Y-59169755D01*
X137325811Y-59472734D01*
X137319534Y-59721750D01*
X137330503Y-60071499D01*
X137374150Y-60337464D01*
X137465947Y-60561689D01*
X137621367Y-60786217D01*
X137778215Y-60968202D01*
X137979838Y-61149314D01*
X138298646Y-61376347D01*
X138733650Y-61648701D01*
X139283859Y-61965778D01*
X139948285Y-62326979D01*
X140513977Y-62622874D01*
X140868540Y-62808457D01*
X141191952Y-62982782D01*
X141464145Y-63134630D01*
X141665050Y-63252783D01*
X141774596Y-63326023D01*
X141779625Y-63330330D01*
X141875810Y-63453835D01*
X141917244Y-63625073D01*
X141922500Y-63761772D01*
X141913225Y-63932105D01*
X141873098Y-64071568D01*
X141783664Y-64220365D01*
X141626471Y-64418699D01*
X141614252Y-64433328D01*
X141314912Y-64772420D01*
X140948635Y-65158565D01*
X140547810Y-65559670D01*
X140144821Y-65943643D01*
X139772058Y-66278393D01*
X139636152Y-66393406D01*
X139424773Y-66576421D01*
X139256482Y-66737615D01*
X139152204Y-66856004D01*
X139128500Y-66902458D01*
X139172700Y-66998721D01*
X139282504Y-67127087D01*
X139319000Y-67161256D01*
X139463833Y-67328754D01*
X139501273Y-67498765D01*
X139436947Y-67708249D01*
X139410440Y-67761869D01*
X139345927Y-67948747D01*
X139331065Y-68123841D01*
X139387532Y-68263492D01*
X139517632Y-68311265D01*
X139726775Y-68267537D01*
X139953972Y-68167264D01*
X140236195Y-68049000D01*
X140442622Y-68023785D01*
X140585491Y-68093128D01*
X140676340Y-68256410D01*
X140770556Y-68465879D01*
X140882337Y-68553016D01*
X141024525Y-68520612D01*
X141209146Y-68372255D01*
X141382836Y-68216512D01*
X141515982Y-68150809D01*
X141650340Y-68168462D01*
X141827666Y-68262788D01*
X141841151Y-68271090D01*
X141984284Y-68354051D01*
X142067283Y-68370996D01*
X142137108Y-68324171D01*
X142172924Y-68286965D01*
X142238146Y-68179988D01*
X142328754Y-67981825D01*
X142431930Y-67722407D01*
X142519186Y-67478313D01*
X142618800Y-67196293D01*
X142724941Y-66922704D01*
X142845932Y-66640274D01*
X142990095Y-66331731D01*
X143165755Y-65979804D01*
X143381233Y-65567220D01*
X143644854Y-65076707D01*
X143914241Y-64583338D01*
X144127520Y-64184652D01*
X144307401Y-63828567D01*
X144445451Y-63532917D01*
X144533234Y-63315538D01*
X144560769Y-63216255D01*
X144554016Y-62890410D01*
X144431256Y-62572294D01*
X144188365Y-62253260D01*
X144026318Y-62095838D01*
X143840004Y-61942256D01*
X143571680Y-61739176D01*
X143247033Y-61504409D01*
X142891750Y-61255765D01*
X142531516Y-61011057D01*
X142192018Y-60788094D01*
X141898943Y-60604689D01*
X141751604Y-60518536D01*
X141507413Y-60335143D01*
X141387721Y-60128054D01*
X141392051Y-59896161D01*
X141434947Y-59782135D01*
X141502145Y-59673650D01*
X141606719Y-59572262D01*
X141771127Y-59461798D01*
X142017829Y-59326080D01*
X142190662Y-59237860D01*
X142565132Y-59057583D01*
X142985886Y-58868182D01*
X143426028Y-58680546D01*
X143858659Y-58505566D01*
X144256883Y-58354131D01*
X144593804Y-58237131D01*
X144835058Y-58167209D01*
X145087054Y-58122640D01*
X145339449Y-58114910D01*
X145614589Y-58148271D01*
X145934820Y-58226972D01*
X146322488Y-58355267D01*
X146799936Y-58537405D01*
X146817411Y-58544355D01*
X147403308Y-58783436D01*
X147878179Y-58991037D01*
X148252418Y-59172899D01*
X148536424Y-59334765D01*
X148740590Y-59482377D01*
X148875315Y-59621477D01*
X148931568Y-59712077D01*
X149005310Y-59894873D01*
X149013734Y-60048009D01*
X148976756Y-60203830D01*
X148935990Y-60311308D01*
X148872080Y-60408682D01*
X148766469Y-60512617D01*
X148600604Y-60639776D01*
X148355927Y-60806824D01*
X148167667Y-60930463D01*
X147682704Y-61254478D01*
X147243235Y-61563436D01*
X146863819Y-61846323D01*
X146559020Y-62092129D01*
X146343397Y-62289840D01*
X146282944Y-62355872D01*
X146096614Y-62662987D01*
X146015499Y-63000341D01*
X146047606Y-63334302D01*
X146048882Y-63338741D01*
X146101940Y-63472887D01*
X146206140Y-63696307D01*
X146350712Y-63987387D01*
X146524886Y-64324513D01*
X146717892Y-64686072D01*
X146746261Y-64738250D01*
X147034575Y-65269451D01*
X147269139Y-65707791D01*
X147458476Y-66071090D01*
X147611112Y-66377170D01*
X147735571Y-66643851D01*
X147840377Y-66888956D01*
X147934056Y-67130304D01*
X148025131Y-67385718D01*
X148056482Y-67477349D01*
X148160810Y-67765929D01*
X148263964Y-68019008D01*
X148352952Y-68206450D01*
X148407350Y-68291238D01*
X148489592Y-68368587D01*
X148559329Y-68375679D01*
X148666133Y-68309943D01*
X148713182Y-68275363D01*
X148905933Y-68163636D01*
X149069954Y-68154042D01*
X149238645Y-68250888D01*
X149352000Y-68357750D01*
X149511694Y-68508045D01*
X149626924Y-68569729D01*
X149729961Y-68555390D01*
X149783319Y-68525990D01*
X149858074Y-68430537D01*
X149914521Y-68288837D01*
X149970226Y-68159726D01*
X150075082Y-68101020D01*
X150193115Y-68084307D01*
X150451628Y-68110997D01*
X150685913Y-68199210D01*
X150943330Y-68300782D01*
X151122444Y-68302684D01*
X151223754Y-68204841D01*
X151245739Y-68115520D01*
X151225994Y-67925398D01*
X151166364Y-67784379D01*
X151075386Y-67559443D01*
X151109339Y-67347003D01*
X151257000Y-67151250D01*
X151376792Y-67018522D01*
X151442937Y-66910337D01*
X151447500Y-66888530D01*
X151401379Y-66817122D01*
X151276604Y-66686387D01*
X151093556Y-66516502D01*
X150923625Y-66369949D01*
X150704029Y-66177517D01*
X150441726Y-65933949D01*
X150152507Y-65655384D01*
X149852161Y-65357961D01*
X149556476Y-65057820D01*
X149281242Y-64771100D01*
X149042248Y-64513940D01*
X148855283Y-64302479D01*
X148736135Y-64152857D01*
X148704865Y-64101974D01*
X148666861Y-63889949D01*
X148705126Y-63639405D01*
X148809384Y-63404772D01*
X148846323Y-63352719D01*
X148941108Y-63273897D01*
X149129466Y-63150416D01*
X149391297Y-62994251D01*
X149706503Y-62817374D01*
X150054982Y-62631761D01*
X150067029Y-62625515D01*
X150763105Y-62257992D01*
X151370101Y-61922992D01*
X151882392Y-61623910D01*
X152294353Y-61364142D01*
X152600359Y-61147086D01*
X152789879Y-60981357D01*
X153003247Y-60734600D01*
X153141565Y-60506873D01*
X153219751Y-60257951D01*
X153252723Y-59947610D01*
X153257009Y-59721750D01*
X153255634Y-59684267D01*
X152970106Y-59684267D01*
X152961691Y-59918619D01*
X152932379Y-60128962D01*
X152873582Y-60322614D01*
X152776711Y-60506890D01*
X152633177Y-60689108D01*
X152434392Y-60876583D01*
X152171768Y-61076632D01*
X151836716Y-61296572D01*
X151420648Y-61543719D01*
X150914975Y-61825391D01*
X150311109Y-62148902D01*
X149701250Y-62469008D01*
X149190078Y-62736102D01*
X148780601Y-62951112D01*
X148461710Y-63120297D01*
X148222294Y-63249915D01*
X148051244Y-63346225D01*
X147937449Y-63415485D01*
X147869799Y-63463954D01*
X147837185Y-63497890D01*
X147828495Y-63523552D01*
X147828490Y-63523967D01*
X147870935Y-63608721D01*
X147990385Y-63769240D01*
X148173900Y-63991626D01*
X148408541Y-64261983D01*
X148681367Y-64566415D01*
X148979438Y-64891026D01*
X149289814Y-65221920D01*
X149599556Y-65545201D01*
X149895723Y-65846972D01*
X150165375Y-66113337D01*
X150395573Y-66330401D01*
X150573377Y-66484266D01*
X150614871Y-66516250D01*
X150762973Y-66633260D01*
X150857066Y-66722398D01*
X150874500Y-66750348D01*
X150819753Y-66750624D01*
X150671649Y-66715199D01*
X150456497Y-66650901D01*
X150325332Y-66607809D01*
X150081969Y-66528425D01*
X149888683Y-66470807D01*
X149773324Y-66442989D01*
X149753503Y-66442830D01*
X149781584Y-66496981D01*
X149875267Y-66620192D01*
X150015157Y-66787163D01*
X150034297Y-66809132D01*
X150234110Y-67045141D01*
X150425271Y-67284274D01*
X150592322Y-67505535D01*
X150719808Y-67687930D01*
X150792271Y-67810463D01*
X150801047Y-67850619D01*
X150739925Y-67830911D01*
X150607669Y-67752887D01*
X150460073Y-67652497D01*
X150241425Y-67504114D01*
X150000539Y-67353211D01*
X149762555Y-67213916D01*
X149552609Y-67100360D01*
X149395840Y-67026671D01*
X149317386Y-67006979D01*
X149314640Y-67008693D01*
X149318252Y-67080030D01*
X149360769Y-67229753D01*
X149403922Y-67349369D01*
X149484181Y-67578675D01*
X149548305Y-67800227D01*
X149565946Y-67878297D01*
X149607894Y-68097344D01*
X149241822Y-67714182D01*
X149053116Y-67525304D01*
X148879877Y-67366891D01*
X148753330Y-67267128D01*
X148732875Y-67254776D01*
X148652377Y-67218050D01*
X148609760Y-67234349D01*
X148592983Y-67327762D01*
X148590003Y-67522378D01*
X148590000Y-67540599D01*
X148584295Y-67728278D01*
X148569501Y-67844852D01*
X148553339Y-67866005D01*
X148517978Y-67793832D01*
X148452449Y-67629211D01*
X148367511Y-67399919D01*
X148309414Y-67236297D01*
X148180015Y-66881681D01*
X148043124Y-66542490D01*
X147888125Y-66196752D01*
X147704402Y-65822495D01*
X147481340Y-65397746D01*
X147208323Y-64900534D01*
X147012455Y-64551802D01*
X146756923Y-64094391D01*
X146563298Y-63729777D01*
X146427894Y-63442009D01*
X146347024Y-63215136D01*
X146317003Y-63033205D01*
X146334144Y-62880264D01*
X146394760Y-62740363D01*
X146495166Y-62597548D01*
X146546405Y-62535128D01*
X146731530Y-62350710D01*
X147011365Y-62118828D01*
X147368295Y-61851281D01*
X147784704Y-61559867D01*
X148242977Y-61256386D01*
X148725500Y-60952637D01*
X149214658Y-60660418D01*
X149692834Y-60391530D01*
X149951100Y-60254584D01*
X150151896Y-60146666D01*
X150299053Y-60059779D01*
X150364646Y-60010562D01*
X150365727Y-60007500D01*
X150310582Y-59958859D01*
X150158171Y-59861534D01*
X149924400Y-59724470D01*
X149625173Y-59556616D01*
X149276396Y-59366918D01*
X148893972Y-59164325D01*
X148557502Y-58990281D01*
X148082363Y-58758334D01*
X147563643Y-58524011D01*
X147032102Y-58299824D01*
X146518504Y-58098285D01*
X146053610Y-57931904D01*
X145668182Y-57813193D01*
X145653920Y-57809365D01*
X145238930Y-57698786D01*
X144535665Y-57932087D01*
X143789392Y-58203457D01*
X142991412Y-58535834D01*
X142181979Y-58910244D01*
X141401344Y-59307712D01*
X140689760Y-59709263D01*
X140439267Y-59863119D01*
X140194283Y-60017752D01*
X141010767Y-60465446D01*
X141592725Y-60795658D01*
X142147863Y-61131962D01*
X142663038Y-61465018D01*
X143125107Y-61785482D01*
X143520928Y-62084012D01*
X143837358Y-62351266D01*
X144061255Y-62577900D01*
X144149503Y-62696634D01*
X144214314Y-62807998D01*
X144258581Y-62910195D01*
X144277498Y-63016911D01*
X144266260Y-63141831D01*
X144220064Y-63298642D01*
X144134104Y-63501028D01*
X144003576Y-63762676D01*
X143823674Y-64097271D01*
X143589595Y-64518500D01*
X143377001Y-64897000D01*
X143173254Y-65272102D01*
X142965557Y-65677397D01*
X142762512Y-66093703D01*
X142572718Y-66501842D01*
X142404775Y-66882633D01*
X142267284Y-67216899D01*
X142168843Y-67485458D01*
X142118054Y-67669131D01*
X142113000Y-67715917D01*
X142075495Y-67825346D01*
X142049500Y-67849750D01*
X142011503Y-67816967D01*
X141989894Y-67672357D01*
X141986000Y-67533763D01*
X141982970Y-67334046D01*
X141966409Y-67236878D01*
X141925110Y-67217831D01*
X141855164Y-67248553D01*
X141751468Y-67325290D01*
X141590514Y-67467936D01*
X141401959Y-67649796D01*
X141342179Y-67710331D01*
X141166124Y-67886906D01*
X141053547Y-67982775D01*
X141000443Y-67990307D01*
X141002808Y-67901875D01*
X141056636Y-67709849D01*
X141157923Y-67406600D01*
X141167723Y-67377987D01*
X141227089Y-67187248D01*
X141258415Y-67050482D01*
X141257837Y-67005169D01*
X141189614Y-67018568D01*
X141040471Y-67088465D01*
X140835085Y-67200803D01*
X140598133Y-67341525D01*
X140354292Y-67496571D01*
X140149895Y-67636346D01*
X139972447Y-67756392D01*
X139838791Y-67834539D01*
X139778192Y-67853858D01*
X139800884Y-67793805D01*
X139887718Y-67659229D01*
X140021326Y-67472999D01*
X140184341Y-67257984D01*
X140359395Y-67037052D01*
X140529121Y-66833073D01*
X140676152Y-66668915D01*
X140685513Y-66659125D01*
X140803165Y-66526995D01*
X140862117Y-66440529D01*
X140858911Y-66421000D01*
X140777595Y-66440206D01*
X140606429Y-66491645D01*
X140375594Y-66566052D01*
X140251662Y-66607473D01*
X140011567Y-66684302D01*
X139824661Y-66735870D01*
X139717230Y-66755349D01*
X139701501Y-66750348D01*
X139749148Y-66690693D01*
X139869134Y-66586536D01*
X139959350Y-66517048D01*
X140124001Y-66380910D01*
X140344087Y-66178040D01*
X140606659Y-65922337D01*
X140898768Y-65627701D01*
X141207465Y-65308033D01*
X141519802Y-64977232D01*
X141822830Y-64649199D01*
X142103599Y-64337834D01*
X142349162Y-64057036D01*
X142546568Y-63820705D01*
X142682870Y-63642742D01*
X142745117Y-63537047D01*
X142747599Y-63523994D01*
X142741807Y-63500479D01*
X142717230Y-63471243D01*
X142662579Y-63429918D01*
X142566561Y-63370137D01*
X142417885Y-63285533D01*
X142205260Y-63169738D01*
X141917394Y-63016385D01*
X141542998Y-62819105D01*
X141070778Y-62571533D01*
X140901233Y-62482777D01*
X140203394Y-62115219D01*
X139611009Y-61796362D01*
X139115527Y-61518945D01*
X138708397Y-61275705D01*
X138381069Y-61059381D01*
X138124990Y-60862712D01*
X137931610Y-60678435D01*
X137792378Y-60499288D01*
X137698744Y-60318010D01*
X137642155Y-60127339D01*
X137614061Y-59920014D01*
X137605912Y-59688772D01*
X137605895Y-59684267D01*
X137613720Y-59451962D01*
X137645023Y-59241909D01*
X137709065Y-59040500D01*
X137815108Y-58834129D01*
X137972414Y-58609188D01*
X138190244Y-58352073D01*
X138477862Y-58049175D01*
X138844528Y-57686889D01*
X139192766Y-57352989D01*
X139552468Y-57015267D01*
X139916047Y-56681953D01*
X140263180Y-56371092D01*
X140573546Y-56100727D01*
X140826823Y-55888903D01*
X140953996Y-55789068D01*
X141509708Y-55372000D01*
X149066293Y-55372000D01*
X149627604Y-55793270D01*
X149834011Y-55957809D01*
X150110869Y-56192622D01*
X150437567Y-56479455D01*
X150793496Y-56800055D01*
X151158045Y-57136168D01*
X151385172Y-57349863D01*
X151820880Y-57768045D01*
X152169994Y-58116625D01*
X152441801Y-58409283D01*
X152645589Y-58659698D01*
X152790646Y-58881549D01*
X152886258Y-59088514D01*
X152941714Y-59294275D01*
X152966301Y-59512509D01*
X152970106Y-59684267D01*
X153255634Y-59684267D01*
X153244568Y-59382774D01*
X153199122Y-59091874D01*
X153108959Y-58826959D01*
X152962365Y-58565943D01*
X152747628Y-58286738D01*
X152453034Y-57967256D01*
X152184732Y-57699722D01*
X151684727Y-57216909D01*
X151204483Y-56763137D01*
X150755628Y-56348858D01*
X150349789Y-55984521D01*
X149998593Y-55680578D01*
X149713667Y-55447478D01*
X149519389Y-55304129D01*
X149147028Y-55054500D01*
X141428973Y-55054500D01*
X141056612Y-55304129D01*
X141056612Y-55304129D01*
G37*
X141056612Y-55304129D02*
X140843230Y-55462501D01*
X140552789Y-55701416D01*
X140196869Y-56010464D01*
X139787051Y-56379239D01*
X139334916Y-56797332D01*
X138852045Y-57254335D01*
X138391098Y-57699722D01*
X138031965Y-58061600D01*
X137761122Y-58367387D01*
X137566826Y-58639237D01*
X137437337Y-58899308D01*
X137360912Y-59169755D01*
X137325811Y-59472734D01*
X137319534Y-59721750D01*
X137330503Y-60071499D01*
X137374150Y-60337464D01*
X137465947Y-60561689D01*
X137621367Y-60786217D01*
X137778215Y-60968202D01*
X137979838Y-61149314D01*
X138298646Y-61376347D01*
X138733650Y-61648701D01*
X139283859Y-61965778D01*
X139948285Y-62326979D01*
X140513977Y-62622874D01*
X140868540Y-62808457D01*
X141191952Y-62982782D01*
X141464145Y-63134630D01*
X141665050Y-63252783D01*
X141774596Y-63326023D01*
X141779625Y-63330330D01*
X141875810Y-63453835D01*
X141917244Y-63625073D01*
X141922500Y-63761772D01*
X141913225Y-63932105D01*
X141873098Y-64071568D01*
X141783664Y-64220365D01*
X141626471Y-64418699D01*
X141614252Y-64433328D01*
X141314912Y-64772420D01*
X140948635Y-65158565D01*
X140547810Y-65559670D01*
X140144821Y-65943643D01*
X139772058Y-66278393D01*
X139636152Y-66393406D01*
X139424773Y-66576421D01*
X139256482Y-66737615D01*
X139152204Y-66856004D01*
X139128500Y-66902458D01*
X139172700Y-66998721D01*
X139282504Y-67127087D01*
X139319000Y-67161256D01*
X139463833Y-67328754D01*
X139501273Y-67498765D01*
X139436947Y-67708249D01*
X139410440Y-67761869D01*
X139345927Y-67948747D01*
X139331065Y-68123841D01*
X139387532Y-68263492D01*
X139517632Y-68311265D01*
X139726775Y-68267537D01*
X139953972Y-68167264D01*
X140236195Y-68049000D01*
X140442622Y-68023785D01*
X140585491Y-68093128D01*
X140676340Y-68256410D01*
X140770556Y-68465879D01*
X140882337Y-68553016D01*
X141024525Y-68520612D01*
X141209146Y-68372255D01*
X141382836Y-68216512D01*
X141515982Y-68150809D01*
X141650340Y-68168462D01*
X141827666Y-68262788D01*
X141841151Y-68271090D01*
X141984284Y-68354051D01*
X142067283Y-68370996D01*
X142137108Y-68324171D01*
X142172924Y-68286965D01*
X142238146Y-68179988D01*
X142328754Y-67981825D01*
X142431930Y-67722407D01*
X142519186Y-67478313D01*
X142618800Y-67196293D01*
X142724941Y-66922704D01*
X142845932Y-66640274D01*
X142990095Y-66331731D01*
X143165755Y-65979804D01*
X143381233Y-65567220D01*
X143644854Y-65076707D01*
X143914241Y-64583338D01*
X144127520Y-64184652D01*
X144307401Y-63828567D01*
X144445451Y-63532917D01*
X144533234Y-63315538D01*
X144560769Y-63216255D01*
X144554016Y-62890410D01*
X144431256Y-62572294D01*
X144188365Y-62253260D01*
X144026318Y-62095838D01*
X143840004Y-61942256D01*
X143571680Y-61739176D01*
X143247033Y-61504409D01*
X142891750Y-61255765D01*
X142531516Y-61011057D01*
X142192018Y-60788094D01*
X141898943Y-60604689D01*
X141751604Y-60518536D01*
X141507413Y-60335143D01*
X141387721Y-60128054D01*
X141392051Y-59896161D01*
X141434947Y-59782135D01*
X141502145Y-59673650D01*
X141606719Y-59572262D01*
X141771127Y-59461798D01*
X142017829Y-59326080D01*
X142190662Y-59237860D01*
X142565132Y-59057583D01*
X142985886Y-58868182D01*
X143426028Y-58680546D01*
X143858659Y-58505566D01*
X144256883Y-58354131D01*
X144593804Y-58237131D01*
X144835058Y-58167209D01*
X145087054Y-58122640D01*
X145339449Y-58114910D01*
X145614589Y-58148271D01*
X145934820Y-58226972D01*
X146322488Y-58355267D01*
X146799936Y-58537405D01*
X146817411Y-58544355D01*
X147403308Y-58783436D01*
X147878179Y-58991037D01*
X148252418Y-59172899D01*
X148536424Y-59334765D01*
X148740590Y-59482377D01*
X148875315Y-59621477D01*
X148931568Y-59712077D01*
X149005310Y-59894873D01*
X149013734Y-60048009D01*
X148976756Y-60203830D01*
X148935990Y-60311308D01*
X148872080Y-60408682D01*
X148766469Y-60512617D01*
X148600604Y-60639776D01*
X148355927Y-60806824D01*
X148167667Y-60930463D01*
X147682704Y-61254478D01*
X147243235Y-61563436D01*
X146863819Y-61846323D01*
X146559020Y-62092129D01*
X146343397Y-62289840D01*
X146282944Y-62355872D01*
X146096614Y-62662987D01*
X146015499Y-63000341D01*
X146047606Y-63334302D01*
X146048882Y-63338741D01*
X146101940Y-63472887D01*
X146206140Y-63696307D01*
X146350712Y-63987387D01*
X146524886Y-64324513D01*
X146717892Y-64686072D01*
X146746261Y-64738250D01*
X147034575Y-65269451D01*
X147269139Y-65707791D01*
X147458476Y-66071090D01*
X147611112Y-66377170D01*
X147735571Y-66643851D01*
X147840377Y-66888956D01*
X147934056Y-67130304D01*
X148025131Y-67385718D01*
X148056482Y-67477349D01*
X148160810Y-67765929D01*
X148263964Y-68019008D01*
X148352952Y-68206450D01*
X148407350Y-68291238D01*
X148489592Y-68368587D01*
X148559329Y-68375679D01*
X148666133Y-68309943D01*
X148713182Y-68275363D01*
X148905933Y-68163636D01*
X149069954Y-68154042D01*
X149238645Y-68250888D01*
X149352000Y-68357750D01*
X149511694Y-68508045D01*
X149626924Y-68569729D01*
X149729961Y-68555390D01*
X149783319Y-68525990D01*
X149858074Y-68430537D01*
X149914521Y-68288837D01*
X149970226Y-68159726D01*
X150075082Y-68101020D01*
X150193115Y-68084307D01*
X150451628Y-68110997D01*
X150685913Y-68199210D01*
X150943330Y-68300782D01*
X151122444Y-68302684D01*
X151223754Y-68204841D01*
X151245739Y-68115520D01*
X151225994Y-67925398D01*
X151166364Y-67784379D01*
X151075386Y-67559443D01*
X151109339Y-67347003D01*
X151257000Y-67151250D01*
X151376792Y-67018522D01*
X151442937Y-66910337D01*
X151447500Y-66888530D01*
X151401379Y-66817122D01*
X151276604Y-66686387D01*
X151093556Y-66516502D01*
X150923625Y-66369949D01*
X150704029Y-66177517D01*
X150441726Y-65933949D01*
X150152507Y-65655384D01*
X149852161Y-65357961D01*
X149556476Y-65057820D01*
X149281242Y-64771100D01*
X149042248Y-64513940D01*
X148855283Y-64302479D01*
X148736135Y-64152857D01*
X148704865Y-64101974D01*
X148666861Y-63889949D01*
X148705126Y-63639405D01*
X148809384Y-63404772D01*
X148846323Y-63352719D01*
X148941108Y-63273897D01*
X149129466Y-63150416D01*
X149391297Y-62994251D01*
X149706503Y-62817374D01*
X150054982Y-62631761D01*
X150067029Y-62625515D01*
X150763105Y-62257992D01*
X151370101Y-61922992D01*
X151882392Y-61623910D01*
X152294353Y-61364142D01*
X152600359Y-61147086D01*
X152789879Y-60981357D01*
X153003247Y-60734600D01*
X153141565Y-60506873D01*
X153219751Y-60257951D01*
X153252723Y-59947610D01*
X153257009Y-59721750D01*
X153255634Y-59684267D01*
X152970106Y-59684267D01*
X152961691Y-59918619D01*
X152932379Y-60128962D01*
X152873582Y-60322614D01*
X152776711Y-60506890D01*
X152633177Y-60689108D01*
X152434392Y-60876583D01*
X152171768Y-61076632D01*
X151836716Y-61296572D01*
X151420648Y-61543719D01*
X150914975Y-61825391D01*
X150311109Y-62148902D01*
X149701250Y-62469008D01*
X149190078Y-62736102D01*
X148780601Y-62951112D01*
X148461710Y-63120297D01*
X148222294Y-63249915D01*
X148051244Y-63346225D01*
X147937449Y-63415485D01*
X147869799Y-63463954D01*
X147837185Y-63497890D01*
X147828495Y-63523552D01*
X147828490Y-63523967D01*
X147870935Y-63608721D01*
X147990385Y-63769240D01*
X148173900Y-63991626D01*
X148408541Y-64261983D01*
X148681367Y-64566415D01*
X148979438Y-64891026D01*
X149289814Y-65221920D01*
X149599556Y-65545201D01*
X149895723Y-65846972D01*
X150165375Y-66113337D01*
X150395573Y-66330401D01*
X150573377Y-66484266D01*
X150614871Y-66516250D01*
X150762973Y-66633260D01*
X150857066Y-66722398D01*
X150874500Y-66750348D01*
X150819753Y-66750624D01*
X150671649Y-66715199D01*
X150456497Y-66650901D01*
X150325332Y-66607809D01*
X150081969Y-66528425D01*
X149888683Y-66470807D01*
X149773324Y-66442989D01*
X149753503Y-66442830D01*
X149781584Y-66496981D01*
X149875267Y-66620192D01*
X150015157Y-66787163D01*
X150034297Y-66809132D01*
X150234110Y-67045141D01*
X150425271Y-67284274D01*
X150592322Y-67505535D01*
X150719808Y-67687930D01*
X150792271Y-67810463D01*
X150801047Y-67850619D01*
X150739925Y-67830911D01*
X150607669Y-67752887D01*
X150460073Y-67652497D01*
X150241425Y-67504114D01*
X150000539Y-67353211D01*
X149762555Y-67213916D01*
X149552609Y-67100360D01*
X149395840Y-67026671D01*
X149317386Y-67006979D01*
X149314640Y-67008693D01*
X149318252Y-67080030D01*
X149360769Y-67229753D01*
X149403922Y-67349369D01*
X149484181Y-67578675D01*
X149548305Y-67800227D01*
X149565946Y-67878297D01*
X149607894Y-68097344D01*
X149241822Y-67714182D01*
X149053116Y-67525304D01*
X148879877Y-67366891D01*
X148753330Y-67267128D01*
X148732875Y-67254776D01*
X148652377Y-67218050D01*
X148609760Y-67234349D01*
X148592983Y-67327762D01*
X148590003Y-67522378D01*
X148590000Y-67540599D01*
X148584295Y-67728278D01*
X148569501Y-67844852D01*
X148553339Y-67866005D01*
X148517978Y-67793832D01*
X148452449Y-67629211D01*
X148367511Y-67399919D01*
X148309414Y-67236297D01*
X148180015Y-66881681D01*
X148043124Y-66542490D01*
X147888125Y-66196752D01*
X147704402Y-65822495D01*
X147481340Y-65397746D01*
X147208323Y-64900534D01*
X147012455Y-64551802D01*
X146756923Y-64094391D01*
X146563298Y-63729777D01*
X146427894Y-63442009D01*
X146347024Y-63215136D01*
X146317003Y-63033205D01*
X146334144Y-62880264D01*
X146394760Y-62740363D01*
X146495166Y-62597548D01*
X146546405Y-62535128D01*
X146731530Y-62350710D01*
X147011365Y-62118828D01*
X147368295Y-61851281D01*
X147784704Y-61559867D01*
X148242977Y-61256386D01*
X148725500Y-60952637D01*
X149214658Y-60660418D01*
X149692834Y-60391530D01*
X149951100Y-60254584D01*
X150151896Y-60146666D01*
X150299053Y-60059779D01*
X150364646Y-60010562D01*
X150365727Y-60007500D01*
X150310582Y-59958859D01*
X150158171Y-59861534D01*
X149924400Y-59724470D01*
X149625173Y-59556616D01*
X149276396Y-59366918D01*
X148893972Y-59164325D01*
X148557502Y-58990281D01*
X148082363Y-58758334D01*
X147563643Y-58524011D01*
X147032102Y-58299824D01*
X146518504Y-58098285D01*
X146053610Y-57931904D01*
X145668182Y-57813193D01*
X145653920Y-57809365D01*
X145238930Y-57698786D01*
X144535665Y-57932087D01*
X143789392Y-58203457D01*
X142991412Y-58535834D01*
X142181979Y-58910244D01*
X141401344Y-59307712D01*
X140689760Y-59709263D01*
X140439267Y-59863119D01*
X140194283Y-60017752D01*
X141010767Y-60465446D01*
X141592725Y-60795658D01*
X142147863Y-61131962D01*
X142663038Y-61465018D01*
X143125107Y-61785482D01*
X143520928Y-62084012D01*
X143837358Y-62351266D01*
X144061255Y-62577900D01*
X144149503Y-62696634D01*
X144214314Y-62807998D01*
X144258581Y-62910195D01*
X144277498Y-63016911D01*
X144266260Y-63141831D01*
X144220064Y-63298642D01*
X144134104Y-63501028D01*
X144003576Y-63762676D01*
X143823674Y-64097271D01*
X143589595Y-64518500D01*
X143377001Y-64897000D01*
X143173254Y-65272102D01*
X142965557Y-65677397D01*
X142762512Y-66093703D01*
X142572718Y-66501842D01*
X142404775Y-66882633D01*
X142267284Y-67216899D01*
X142168843Y-67485458D01*
X142118054Y-67669131D01*
X142113000Y-67715917D01*
X142075495Y-67825346D01*
X142049500Y-67849750D01*
X142011503Y-67816967D01*
X141989894Y-67672357D01*
X141986000Y-67533763D01*
X141982970Y-67334046D01*
X141966409Y-67236878D01*
X141925110Y-67217831D01*
X141855164Y-67248553D01*
X141751468Y-67325290D01*
X141590514Y-67467936D01*
X141401959Y-67649796D01*
X141342179Y-67710331D01*
X141166124Y-67886906D01*
X141053547Y-67982775D01*
X141000443Y-67990307D01*
X141002808Y-67901875D01*
X141056636Y-67709849D01*
X141157923Y-67406600D01*
X141167723Y-67377987D01*
X141227089Y-67187248D01*
X141258415Y-67050482D01*
X141257837Y-67005169D01*
X141189614Y-67018568D01*
X141040471Y-67088465D01*
X140835085Y-67200803D01*
X140598133Y-67341525D01*
X140354292Y-67496571D01*
X140149895Y-67636346D01*
X139972447Y-67756392D01*
X139838791Y-67834539D01*
X139778192Y-67853858D01*
X139800884Y-67793805D01*
X139887718Y-67659229D01*
X140021326Y-67472999D01*
X140184341Y-67257984D01*
X140359395Y-67037052D01*
X140529121Y-66833073D01*
X140676152Y-66668915D01*
X140685513Y-66659125D01*
X140803165Y-66526995D01*
X140862117Y-66440529D01*
X140858911Y-66421000D01*
X140777595Y-66440206D01*
X140606429Y-66491645D01*
X140375594Y-66566052D01*
X140251662Y-66607473D01*
X140011567Y-66684302D01*
X139824661Y-66735870D01*
X139717230Y-66755349D01*
X139701501Y-66750348D01*
X139749148Y-66690693D01*
X139869134Y-66586536D01*
X139959350Y-66517048D01*
X140124001Y-66380910D01*
X140344087Y-66178040D01*
X140606659Y-65922337D01*
X140898768Y-65627701D01*
X141207465Y-65308033D01*
X141519802Y-64977232D01*
X141822830Y-64649199D01*
X142103599Y-64337834D01*
X142349162Y-64057036D01*
X142546568Y-63820705D01*
X142682870Y-63642742D01*
X142745117Y-63537047D01*
X142747599Y-63523994D01*
X142741807Y-63500479D01*
X142717230Y-63471243D01*
X142662579Y-63429918D01*
X142566561Y-63370137D01*
X142417885Y-63285533D01*
X142205260Y-63169738D01*
X141917394Y-63016385D01*
X141542998Y-62819105D01*
X141070778Y-62571533D01*
X140901233Y-62482777D01*
X140203394Y-62115219D01*
X139611009Y-61796362D01*
X139115527Y-61518945D01*
X138708397Y-61275705D01*
X138381069Y-61059381D01*
X138124990Y-60862712D01*
X137931610Y-60678435D01*
X137792378Y-60499288D01*
X137698744Y-60318010D01*
X137642155Y-60127339D01*
X137614061Y-59920014D01*
X137605912Y-59688772D01*
X137605895Y-59684267D01*
X137613720Y-59451962D01*
X137645023Y-59241909D01*
X137709065Y-59040500D01*
X137815108Y-58834129D01*
X137972414Y-58609188D01*
X138190244Y-58352073D01*
X138477862Y-58049175D01*
X138844528Y-57686889D01*
X139192766Y-57352989D01*
X139552468Y-57015267D01*
X139916047Y-56681953D01*
X140263180Y-56371092D01*
X140573546Y-56100727D01*
X140826823Y-55888903D01*
X140953996Y-55789068D01*
X141509708Y-55372000D01*
X149066293Y-55372000D01*
X149627604Y-55793270D01*
X149834011Y-55957809D01*
X150110869Y-56192622D01*
X150437567Y-56479455D01*
X150793496Y-56800055D01*
X151158045Y-57136168D01*
X151385172Y-57349863D01*
X151820880Y-57768045D01*
X152169994Y-58116625D01*
X152441801Y-58409283D01*
X152645589Y-58659698D01*
X152790646Y-58881549D01*
X152886258Y-59088514D01*
X152941714Y-59294275D01*
X152966301Y-59512509D01*
X152970106Y-59684267D01*
X153255634Y-59684267D01*
X153244568Y-59382774D01*
X153199122Y-59091874D01*
X153108959Y-58826959D01*
X152962365Y-58565943D01*
X152747628Y-58286738D01*
X152453034Y-57967256D01*
X152184732Y-57699722D01*
X151684727Y-57216909D01*
X151204483Y-56763137D01*
X150755628Y-56348858D01*
X150349789Y-55984521D01*
X149998593Y-55680578D01*
X149713667Y-55447478D01*
X149519389Y-55304129D01*
X149147028Y-55054500D01*
X141428973Y-55054500D01*
X141056612Y-55304129D01*
G36*
X139211198Y-58520111D02*
X139204158Y-58524404D01*
X139102779Y-58636542D01*
X139074813Y-58769700D01*
X139123291Y-58876721D01*
X139179600Y-58906358D01*
X139272813Y-58973676D01*
X139272379Y-59060815D01*
X139280660Y-59213762D01*
X139368404Y-59321335D01*
X139496687Y-59366253D01*
X139626588Y-59331237D01*
X139697766Y-59249674D01*
X139759104Y-59085195D01*
X139723678Y-59002238D01*
X139668250Y-58991500D01*
X139584064Y-59042329D01*
X139573000Y-59086750D01*
X139538712Y-59171253D01*
X139509500Y-59182000D01*
X139452546Y-59130839D01*
X139446000Y-59090497D01*
X139484701Y-58982385D01*
X139509500Y-58959750D01*
X139569836Y-58858692D01*
X139560280Y-58804747D01*
X139382500Y-58804747D01*
X139362094Y-58862443D01*
X139315268Y-58812110D01*
X139294772Y-58765951D01*
X139290334Y-58700402D01*
X139319728Y-58706199D01*
X139380244Y-58787500D01*
X139382500Y-58804747D01*
X139560280Y-58804747D01*
X139544478Y-58715557D01*
X139442283Y-58575386D01*
X139319730Y-58497427D01*
X139211198Y-58520111D01*
X139211198Y-58520111D01*
G37*
X139211198Y-58520111D02*
X139204158Y-58524404D01*
X139102779Y-58636542D01*
X139074813Y-58769700D01*
X139123291Y-58876721D01*
X139179600Y-58906358D01*
X139272813Y-58973676D01*
X139272379Y-59060815D01*
X139280660Y-59213762D01*
X139368404Y-59321335D01*
X139496687Y-59366253D01*
X139626588Y-59331237D01*
X139697766Y-59249674D01*
X139759104Y-59085195D01*
X139723678Y-59002238D01*
X139668250Y-58991500D01*
X139584064Y-59042329D01*
X139573000Y-59086750D01*
X139538712Y-59171253D01*
X139509500Y-59182000D01*
X139452546Y-59130839D01*
X139446000Y-59090497D01*
X139484701Y-58982385D01*
X139509500Y-58959750D01*
X139569836Y-58858692D01*
X139560280Y-58804747D01*
X139382500Y-58804747D01*
X139362094Y-58862443D01*
X139315268Y-58812110D01*
X139294772Y-58765951D01*
X139290334Y-58700402D01*
X139319728Y-58706199D01*
X139380244Y-58787500D01*
X139382500Y-58804747D01*
X139560280Y-58804747D01*
X139544478Y-58715557D01*
X139442283Y-58575386D01*
X139319730Y-58497427D01*
X139211198Y-58520111D01*
G36*
X139563129Y-58332638D02*
X139524137Y-58413983D01*
X139556537Y-58474724D01*
X139617748Y-58550079D01*
X139710408Y-58702926D01*
X139787992Y-58848625D01*
X139891406Y-59047747D01*
X139957237Y-59149054D01*
X140002637Y-59169328D01*
X140044761Y-59125353D01*
X140054742Y-59109615D01*
X140051941Y-59017727D01*
X139999316Y-58858311D01*
X139915163Y-58668801D01*
X139817780Y-58486631D01*
X139725462Y-58349237D01*
X139656506Y-58294053D01*
X139656123Y-58294044D01*
X139563129Y-58332638D01*
X139563129Y-58332638D01*
G37*
X139563129Y-58332638D02*
X139524137Y-58413983D01*
X139556537Y-58474724D01*
X139617748Y-58550079D01*
X139710408Y-58702926D01*
X139787992Y-58848625D01*
X139891406Y-59047747D01*
X139957237Y-59149054D01*
X140002637Y-59169328D01*
X140044761Y-59125353D01*
X140054742Y-59109615D01*
X140051941Y-59017727D01*
X139999316Y-58858311D01*
X139915163Y-58668801D01*
X139817780Y-58486631D01*
X139725462Y-58349237D01*
X139656506Y-58294053D01*
X139656123Y-58294044D01*
X139563129Y-58332638D01*
G36*
X140397571Y-57892232D02*
X140335419Y-57999119D01*
X140335000Y-58009484D01*
X140389511Y-58147190D01*
X140522497Y-58272943D01*
X140688142Y-58348709D01*
X140753042Y-58356500D01*
X140868434Y-58388072D01*
X140886146Y-58453890D01*
X140809037Y-58510606D01*
X140742142Y-58521723D01*
X140538244Y-58538525D01*
X140424053Y-58571403D01*
X140362278Y-58635846D01*
X140337326Y-58689875D01*
X140305757Y-58742309D01*
X140290902Y-58689562D01*
X140290589Y-58521797D01*
X140291747Y-58483500D01*
X140294770Y-58283345D01*
X140276569Y-58176923D01*
X140221741Y-58131102D01*
X140119641Y-58113290D01*
X139972487Y-58121613D01*
X139889299Y-58167944D01*
X139862530Y-58294187D01*
X139902153Y-58418332D01*
X139987781Y-58482563D01*
X140000563Y-58483500D01*
X140068416Y-58439731D01*
X140062601Y-58356500D01*
X140061927Y-58255390D01*
X140094348Y-58229500D01*
X140130209Y-58282677D01*
X140116658Y-58404125D01*
X140071372Y-58631191D01*
X140075377Y-58773700D01*
X140132779Y-58865784D01*
X140176250Y-58899283D01*
X140325847Y-58949549D01*
X140414375Y-58921174D01*
X140506737Y-58829490D01*
X140525500Y-58769927D01*
X140585274Y-58700727D01*
X140754377Y-58662764D01*
X140763625Y-58661958D01*
X140921977Y-58637514D01*
X140994170Y-58576273D01*
X141021036Y-58442977D01*
X141021387Y-58439381D01*
X140992801Y-58212093D01*
X140972591Y-58173775D01*
X140779500Y-58173775D01*
X140742154Y-58227260D01*
X140655095Y-58196419D01*
X140587727Y-58132715D01*
X140538770Y-58036803D01*
X140546667Y-57996666D01*
X140617358Y-57999262D01*
X140710941Y-58063179D01*
X140774287Y-58148001D01*
X140779500Y-58173775D01*
X140972591Y-58173775D01*
X140882852Y-58003635D01*
X140719237Y-57863100D01*
X140688716Y-57849736D01*
X140531506Y-57835135D01*
X140397571Y-57892232D01*
X140397571Y-57892232D01*
G37*
X140397571Y-57892232D02*
X140335419Y-57999119D01*
X140335000Y-58009484D01*
X140389511Y-58147190D01*
X140522497Y-58272943D01*
X140688142Y-58348709D01*
X140753042Y-58356500D01*
X140868434Y-58388072D01*
X140886146Y-58453890D01*
X140809037Y-58510606D01*
X140742142Y-58521723D01*
X140538244Y-58538525D01*
X140424053Y-58571403D01*
X140362278Y-58635846D01*
X140337326Y-58689875D01*
X140305757Y-58742309D01*
X140290902Y-58689562D01*
X140290589Y-58521797D01*
X140291747Y-58483500D01*
X140294770Y-58283345D01*
X140276569Y-58176923D01*
X140221741Y-58131102D01*
X140119641Y-58113290D01*
X139972487Y-58121613D01*
X139889299Y-58167944D01*
X139862530Y-58294187D01*
X139902153Y-58418332D01*
X139987781Y-58482563D01*
X140000563Y-58483500D01*
X140068416Y-58439731D01*
X140062601Y-58356500D01*
X140061927Y-58255390D01*
X140094348Y-58229500D01*
X140130209Y-58282677D01*
X140116658Y-58404125D01*
X140071372Y-58631191D01*
X140075377Y-58773700D01*
X140132779Y-58865784D01*
X140176250Y-58899283D01*
X140325847Y-58949549D01*
X140414375Y-58921174D01*
X140506737Y-58829490D01*
X140525500Y-58769927D01*
X140585274Y-58700727D01*
X140754377Y-58662764D01*
X140763625Y-58661958D01*
X140921977Y-58637514D01*
X140994170Y-58576273D01*
X141021036Y-58442977D01*
X141021387Y-58439381D01*
X140992801Y-58212093D01*
X140972591Y-58173775D01*
X140779500Y-58173775D01*
X140742154Y-58227260D01*
X140655095Y-58196419D01*
X140587727Y-58132715D01*
X140538770Y-58036803D01*
X140546667Y-57996666D01*
X140617358Y-57999262D01*
X140710941Y-58063179D01*
X140774287Y-58148001D01*
X140779500Y-58173775D01*
X140972591Y-58173775D01*
X140882852Y-58003635D01*
X140719237Y-57863100D01*
X140688716Y-57849736D01*
X140531506Y-57835135D01*
X140397571Y-57892232D01*
G36*
X150181219Y-57493606D02*
X150177500Y-57510124D01*
X150215602Y-57584937D01*
X150283151Y-57669491D01*
X150352053Y-57775850D01*
X150332833Y-57887182D01*
X150306642Y-57939747D01*
X150231921Y-58043495D01*
X150150877Y-58044224D01*
X150108630Y-58020909D01*
X149987635Y-57979597D01*
X149937397Y-58033942D01*
X149970905Y-58166502D01*
X149982804Y-58189908D01*
X150030446Y-58348478D01*
X149993483Y-58471387D01*
X149928681Y-58640197D01*
X149959144Y-58725951D01*
X150013193Y-58737500D01*
X150081971Y-58685678D01*
X150192597Y-58546564D01*
X150326704Y-58344680D01*
X150403304Y-58216662D01*
X150543468Y-57958455D01*
X150623959Y-57775651D01*
X150639525Y-57680891D01*
X150629978Y-57671242D01*
X150524927Y-57607942D01*
X150466652Y-57557080D01*
X150361346Y-57491052D01*
X150248753Y-57467060D01*
X150181219Y-57493606D01*
X150181219Y-57493606D01*
G37*
X150181219Y-57493606D02*
X150177500Y-57510124D01*
X150215602Y-57584937D01*
X150283151Y-57669491D01*
X150352053Y-57775850D01*
X150332833Y-57887182D01*
X150306642Y-57939747D01*
X150231921Y-58043495D01*
X150150877Y-58044224D01*
X150108630Y-58020909D01*
X149987635Y-57979597D01*
X149937397Y-58033942D01*
X149970905Y-58166502D01*
X149982804Y-58189908D01*
X150030446Y-58348478D01*
X149993483Y-58471387D01*
X149928681Y-58640197D01*
X149959144Y-58725951D01*
X150013193Y-58737500D01*
X150081971Y-58685678D01*
X150192597Y-58546564D01*
X150326704Y-58344680D01*
X150403304Y-58216662D01*
X150543468Y-57958455D01*
X150623959Y-57775651D01*
X150639525Y-57680891D01*
X150629978Y-57671242D01*
X150524927Y-57607942D01*
X150466652Y-57557080D01*
X150361346Y-57491052D01*
X150248753Y-57467060D01*
X150181219Y-57493606D01*
G36*
X149495975Y-57416709D02*
X149484450Y-57474008D01*
X149510284Y-57604655D01*
X149548275Y-57746195D01*
X149584335Y-57923427D01*
X149560842Y-58050691D01*
X149481514Y-58176181D01*
X149395291Y-58335046D01*
X149397345Y-58444625D01*
X149482205Y-58483500D01*
X149542426Y-58432427D01*
X149638734Y-58299817D01*
X149729560Y-58150125D01*
X149851279Y-57923859D01*
X149907188Y-57784585D01*
X149901019Y-57713028D01*
X149836507Y-57689915D01*
X149818815Y-57689411D01*
X149718987Y-57636124D01*
X149662821Y-57546536D01*
X149597985Y-57436360D01*
X149544547Y-57404000D01*
X149495975Y-57416709D01*
X149495975Y-57416709D01*
G37*
X149495975Y-57416709D02*
X149484450Y-57474008D01*
X149510284Y-57604655D01*
X149548275Y-57746195D01*
X149584335Y-57923427D01*
X149560842Y-58050691D01*
X149481514Y-58176181D01*
X149395291Y-58335046D01*
X149397345Y-58444625D01*
X149482205Y-58483500D01*
X149542426Y-58432427D01*
X149638734Y-58299817D01*
X149729560Y-58150125D01*
X149851279Y-57923859D01*
X149907188Y-57784585D01*
X149901019Y-57713028D01*
X149836507Y-57689915D01*
X149818815Y-57689411D01*
X149718987Y-57636124D01*
X149662821Y-57546536D01*
X149597985Y-57436360D01*
X149544547Y-57404000D01*
X149495975Y-57416709D01*
G36*
X141085446Y-57060770D02*
X141100490Y-57176117D01*
X141164846Y-57298875D01*
X141260473Y-57471562D01*
X141278995Y-57555984D01*
X141221635Y-57563845D01*
X141191442Y-57553652D01*
X141066022Y-57559018D01*
X141001556Y-57594661D01*
X140940204Y-57724852D01*
X140972469Y-57927123D01*
X141096332Y-58189989D01*
X141110337Y-58213625D01*
X141226275Y-58373142D01*
X141316052Y-58415574D01*
X141380052Y-58360866D01*
X141369551Y-58277256D01*
X141300463Y-58135218D01*
X141256800Y-58066254D01*
X141133871Y-57864221D01*
X141097903Y-57749258D01*
X141130985Y-57721500D01*
X141242890Y-57767328D01*
X141386121Y-57880302D01*
X141518991Y-58023651D01*
X141581900Y-58119226D01*
X141670395Y-58244029D01*
X141741904Y-58244994D01*
X141742236Y-58244664D01*
X141739041Y-58168734D01*
X141687882Y-58011655D01*
X141602753Y-57803141D01*
X141497650Y-57572904D01*
X141386566Y-57350657D01*
X141283497Y-57166111D01*
X141202436Y-57048981D01*
X141166835Y-57023000D01*
X141085446Y-57060770D01*
X141085446Y-57060770D01*
G37*
X141085446Y-57060770D02*
X141100490Y-57176117D01*
X141164846Y-57298875D01*
X141260473Y-57471562D01*
X141278995Y-57555984D01*
X141221635Y-57563845D01*
X141191442Y-57553652D01*
X141066022Y-57559018D01*
X141001556Y-57594661D01*
X140940204Y-57724852D01*
X140972469Y-57927123D01*
X141096332Y-58189989D01*
X141110337Y-58213625D01*
X141226275Y-58373142D01*
X141316052Y-58415574D01*
X141380052Y-58360866D01*
X141369551Y-58277256D01*
X141300463Y-58135218D01*
X141256800Y-58066254D01*
X141133871Y-57864221D01*
X141097903Y-57749258D01*
X141130985Y-57721500D01*
X141242890Y-57767328D01*
X141386121Y-57880302D01*
X141518991Y-58023651D01*
X141581900Y-58119226D01*
X141670395Y-58244029D01*
X141741904Y-58244994D01*
X141742236Y-58244664D01*
X141739041Y-58168734D01*
X141687882Y-58011655D01*
X141602753Y-57803141D01*
X141497650Y-57572904D01*
X141386566Y-57350657D01*
X141283497Y-57166111D01*
X141202436Y-57048981D01*
X141166835Y-57023000D01*
X141085446Y-57060770D01*
G36*
X139423898Y-58026237D02*
X139407871Y-58145354D01*
X139420838Y-58192019D01*
X139493856Y-58284521D01*
X139578539Y-58264377D01*
X139601209Y-58235230D01*
X139612169Y-58134779D01*
X139571621Y-58025257D01*
X139506454Y-57975500D01*
X139423898Y-58026237D01*
X139423898Y-58026237D01*
G37*
X139423898Y-58026237D02*
X139407871Y-58145354D01*
X139420838Y-58192019D01*
X139493856Y-58284521D01*
X139578539Y-58264377D01*
X139601209Y-58235230D01*
X139612169Y-58134779D01*
X139571621Y-58025257D01*
X139506454Y-57975500D01*
X139423898Y-58026237D01*
G36*
X148986806Y-57252599D02*
X148848809Y-57372392D01*
X148738099Y-57547269D01*
X148673611Y-57741493D01*
X148674283Y-57919327D01*
X148717578Y-58007946D01*
X148843947Y-58093841D01*
X148990444Y-58061704D01*
X149130054Y-57949218D01*
X149272941Y-57754375D01*
X149335876Y-57554822D01*
X149325895Y-57452757D01*
X149154671Y-57452757D01*
X149151109Y-57571327D01*
X149095327Y-57718152D01*
X149062650Y-57770870D01*
X148954148Y-57887347D01*
X148875532Y-57899213D01*
X148844038Y-57804241D01*
X148844000Y-57799129D01*
X148877958Y-57667416D01*
X148958077Y-57525900D01*
X149051727Y-57424630D01*
X149101601Y-57404000D01*
X149154671Y-57452757D01*
X149325895Y-57452757D01*
X149318736Y-57379558D01*
X149221397Y-57257585D01*
X149133154Y-57223627D01*
X148986806Y-57252599D01*
X148986806Y-57252599D01*
G37*
X148986806Y-57252599D02*
X148848809Y-57372392D01*
X148738099Y-57547269D01*
X148673611Y-57741493D01*
X148674283Y-57919327D01*
X148717578Y-58007946D01*
X148843947Y-58093841D01*
X148990444Y-58061704D01*
X149130054Y-57949218D01*
X149272941Y-57754375D01*
X149335876Y-57554822D01*
X149325895Y-57452757D01*
X149154671Y-57452757D01*
X149151109Y-57571327D01*
X149095327Y-57718152D01*
X149062650Y-57770870D01*
X148954148Y-57887347D01*
X148875532Y-57899213D01*
X148844038Y-57804241D01*
X148844000Y-57799129D01*
X148877958Y-57667416D01*
X148958077Y-57525900D01*
X149051727Y-57424630D01*
X149101601Y-57404000D01*
X149154671Y-57452757D01*
X149325895Y-57452757D01*
X149318736Y-57379558D01*
X149221397Y-57257585D01*
X149133154Y-57223627D01*
X148986806Y-57252599D01*
G36*
X142472437Y-56815411D02*
X142461066Y-56922072D01*
X142504409Y-57005920D01*
X142549171Y-57065459D01*
X142541009Y-57084181D01*
X142459312Y-57059718D01*
X142283468Y-56989699D01*
X142252087Y-56976910D01*
X142171965Y-57000632D01*
X142133556Y-57078252D01*
X142054134Y-57186871D01*
X141928885Y-57214895D01*
X141810685Y-57161648D01*
X141762641Y-57083004D01*
X141697242Y-56987538D01*
X141624924Y-56995917D01*
X141586814Y-57094423D01*
X141588377Y-57141124D01*
X141575968Y-57248400D01*
X141540752Y-57277000D01*
X141485761Y-57328732D01*
X141478000Y-57376529D01*
X141516563Y-57446629D01*
X141597165Y-57438236D01*
X141682778Y-57439787D01*
X141762159Y-57520141D01*
X141851165Y-57687265D01*
X141929535Y-57866026D01*
X141978167Y-58000132D01*
X141986000Y-58038307D01*
X142023564Y-58098527D01*
X142099112Y-58081413D01*
X142151175Y-58013406D01*
X142145090Y-57905797D01*
X142089226Y-57741167D01*
X142057368Y-57673420D01*
X141981163Y-57495692D01*
X141976790Y-57388588D01*
X142002136Y-57349764D01*
X142082951Y-57288755D01*
X142148381Y-57308266D01*
X142221322Y-57423690D01*
X142271750Y-57531000D01*
X142359453Y-57685862D01*
X142444977Y-57775815D01*
X142471895Y-57785000D01*
X142546212Y-57740917D01*
X142532187Y-57614313D01*
X142462250Y-57467500D01*
X142383603Y-57310148D01*
X142383857Y-57251988D01*
X142462464Y-57293127D01*
X142618876Y-57433676D01*
X142620906Y-57435657D01*
X142802653Y-57590486D01*
X142917750Y-57639639D01*
X142963270Y-57587296D01*
X142936285Y-57437637D01*
X142833868Y-57194843D01*
X142815454Y-57157832D01*
X142709302Y-56963288D01*
X142618048Y-56823835D01*
X142561085Y-56769030D01*
X142560334Y-56769000D01*
X142472437Y-56815411D01*
X142472437Y-56815411D01*
G37*
X142472437Y-56815411D02*
X142461066Y-56922072D01*
X142504409Y-57005920D01*
X142549171Y-57065459D01*
X142541009Y-57084181D01*
X142459312Y-57059718D01*
X142283468Y-56989699D01*
X142252087Y-56976910D01*
X142171965Y-57000632D01*
X142133556Y-57078252D01*
X142054134Y-57186871D01*
X141928885Y-57214895D01*
X141810685Y-57161648D01*
X141762641Y-57083004D01*
X141697242Y-56987538D01*
X141624924Y-56995917D01*
X141586814Y-57094423D01*
X141588377Y-57141124D01*
X141575968Y-57248400D01*
X141540752Y-57277000D01*
X141485761Y-57328732D01*
X141478000Y-57376529D01*
X141516563Y-57446629D01*
X141597165Y-57438236D01*
X141682778Y-57439787D01*
X141762159Y-57520141D01*
X141851165Y-57687265D01*
X141929535Y-57866026D01*
X141978167Y-58000132D01*
X141986000Y-58038307D01*
X142023564Y-58098527D01*
X142099112Y-58081413D01*
X142151175Y-58013406D01*
X142145090Y-57905797D01*
X142089226Y-57741167D01*
X142057368Y-57673420D01*
X141981163Y-57495692D01*
X141976790Y-57388588D01*
X142002136Y-57349764D01*
X142082951Y-57288755D01*
X142148381Y-57308266D01*
X142221322Y-57423690D01*
X142271750Y-57531000D01*
X142359453Y-57685862D01*
X142444977Y-57775815D01*
X142471895Y-57785000D01*
X142546212Y-57740917D01*
X142532187Y-57614313D01*
X142462250Y-57467500D01*
X142383603Y-57310148D01*
X142383857Y-57251988D01*
X142462464Y-57293127D01*
X142618876Y-57433676D01*
X142620906Y-57435657D01*
X142802653Y-57590486D01*
X142917750Y-57639639D01*
X142963270Y-57587296D01*
X142936285Y-57437637D01*
X142833868Y-57194843D01*
X142815454Y-57157832D01*
X142709302Y-56963288D01*
X142618048Y-56823835D01*
X142561085Y-56769030D01*
X142560334Y-56769000D01*
X142472437Y-56815411D01*
G36*
X148378743Y-56918630D02*
X148277621Y-57069292D01*
X148156639Y-57275563D01*
X148119943Y-57342768D01*
X147999962Y-57570648D01*
X147935324Y-57714156D01*
X147919663Y-57799925D01*
X147946617Y-57854585D01*
X147989205Y-57889896D01*
X148127356Y-57957394D01*
X148256210Y-57971538D01*
X148330875Y-57930238D01*
X148336000Y-57906055D01*
X148282988Y-57835836D01*
X148209000Y-57803399D01*
X148095083Y-57743994D01*
X148103963Y-57659933D01*
X148123347Y-57637820D01*
X148187614Y-57647081D01*
X148241164Y-57701054D01*
X148352354Y-57772296D01*
X148421704Y-57765699D01*
X148535771Y-57674130D01*
X148654153Y-57511084D01*
X148745917Y-57327092D01*
X148774928Y-57202835D01*
X148620178Y-57202835D01*
X148571368Y-57343645D01*
X148469224Y-57490387D01*
X148391928Y-57568149D01*
X148357713Y-57547832D01*
X148346618Y-57503139D01*
X148364101Y-57375940D01*
X148428783Y-57240104D01*
X148518630Y-57139375D01*
X148589880Y-57118176D01*
X148590017Y-57118260D01*
X148620178Y-57202835D01*
X148774928Y-57202835D01*
X148780263Y-57179987D01*
X148737177Y-57050834D01*
X148634973Y-56929094D01*
X148514896Y-56854612D01*
X148441145Y-56852372D01*
X148378743Y-56918630D01*
X148378743Y-56918630D01*
G37*
X148378743Y-56918630D02*
X148277621Y-57069292D01*
X148156639Y-57275563D01*
X148119943Y-57342768D01*
X147999962Y-57570648D01*
X147935324Y-57714156D01*
X147919663Y-57799925D01*
X147946617Y-57854585D01*
X147989205Y-57889896D01*
X148127356Y-57957394D01*
X148256210Y-57971538D01*
X148330875Y-57930238D01*
X148336000Y-57906055D01*
X148282988Y-57835836D01*
X148209000Y-57803399D01*
X148095083Y-57743994D01*
X148103963Y-57659933D01*
X148123347Y-57637820D01*
X148187614Y-57647081D01*
X148241164Y-57701054D01*
X148352354Y-57772296D01*
X148421704Y-57765699D01*
X148535771Y-57674130D01*
X148654153Y-57511084D01*
X148745917Y-57327092D01*
X148774928Y-57202835D01*
X148620178Y-57202835D01*
X148571368Y-57343645D01*
X148469224Y-57490387D01*
X148391928Y-57568149D01*
X148357713Y-57547832D01*
X148346618Y-57503139D01*
X148364101Y-57375940D01*
X148428783Y-57240104D01*
X148518630Y-57139375D01*
X148589880Y-57118176D01*
X148590017Y-57118260D01*
X148620178Y-57202835D01*
X148774928Y-57202835D01*
X148780263Y-57179987D01*
X148737177Y-57050834D01*
X148634973Y-56929094D01*
X148514896Y-56854612D01*
X148441145Y-56852372D01*
X148378743Y-56918630D01*
G36*
X143493747Y-55839596D02*
X143383523Y-55925012D01*
X143339560Y-56083637D01*
X143347816Y-56169775D01*
X143360526Y-56315663D01*
X143312561Y-56385376D01*
X143251726Y-56407516D01*
X143153367Y-56467696D01*
X143155057Y-56574044D01*
X143205416Y-56750617D01*
X143231250Y-56841070D01*
X143246386Y-56916761D01*
X143215741Y-56924588D01*
X143117927Y-56859957D01*
X143037821Y-56799549D01*
X142870099Y-56693487D01*
X142762343Y-56672240D01*
X142746007Y-56682093D01*
X142760898Y-56753296D01*
X142867299Y-56892845D01*
X143056964Y-57090486D01*
X143133519Y-57163970D01*
X143355670Y-57365849D01*
X143503840Y-57480210D01*
X143588631Y-57514269D01*
X143616535Y-57492740D01*
X143607076Y-57375504D01*
X143556258Y-57290509D01*
X143498178Y-57171357D01*
X143445362Y-56972920D01*
X143415322Y-56784875D01*
X143395163Y-56565101D01*
X143399794Y-56443829D01*
X143432780Y-56394345D01*
X143468268Y-56388000D01*
X143587233Y-56343877D01*
X143611657Y-56239396D01*
X143571192Y-56162968D01*
X143530099Y-56089579D01*
X143594542Y-56070521D01*
X143599468Y-56070500D01*
X143711931Y-56118115D01*
X143743738Y-56251832D01*
X143692776Y-56457953D01*
X143668165Y-56516298D01*
X143601531Y-56679951D01*
X143591446Y-56785295D01*
X143637017Y-56887293D01*
X143661525Y-56925633D01*
X143802309Y-57058385D01*
X143957013Y-57079135D01*
X144101117Y-56996921D01*
X144210099Y-56820783D01*
X144241452Y-56711841D01*
X144263131Y-56570515D01*
X144239511Y-56523802D01*
X144178696Y-56537216D01*
X144074123Y-56572449D01*
X144044557Y-56578500D01*
X144024570Y-56633004D01*
X144018000Y-56737250D01*
X143995587Y-56856575D01*
X143952508Y-56896000D01*
X143869197Y-56845452D01*
X143850359Y-56713257D01*
X143898432Y-56528583D01*
X143918093Y-56484095D01*
X143982004Y-56326442D01*
X143983275Y-56211167D01*
X143923929Y-56072779D01*
X143793757Y-55908461D01*
X143640427Y-55832406D01*
X143493747Y-55839596D01*
X143493747Y-55839596D01*
G37*
X143493747Y-55839596D02*
X143383523Y-55925012D01*
X143339560Y-56083637D01*
X143347816Y-56169775D01*
X143360526Y-56315663D01*
X143312561Y-56385376D01*
X143251726Y-56407516D01*
X143153367Y-56467696D01*
X143155057Y-56574044D01*
X143205416Y-56750617D01*
X143231250Y-56841070D01*
X143246386Y-56916761D01*
X143215741Y-56924588D01*
X143117927Y-56859957D01*
X143037821Y-56799549D01*
X142870099Y-56693487D01*
X142762343Y-56672240D01*
X142746007Y-56682093D01*
X142760898Y-56753296D01*
X142867299Y-56892845D01*
X143056964Y-57090486D01*
X143133519Y-57163970D01*
X143355670Y-57365849D01*
X143503840Y-57480210D01*
X143588631Y-57514269D01*
X143616535Y-57492740D01*
X143607076Y-57375504D01*
X143556258Y-57290509D01*
X143498178Y-57171357D01*
X143445362Y-56972920D01*
X143415322Y-56784875D01*
X143395163Y-56565101D01*
X143399794Y-56443829D01*
X143432780Y-56394345D01*
X143468268Y-56388000D01*
X143587233Y-56343877D01*
X143611657Y-56239396D01*
X143571192Y-56162968D01*
X143530099Y-56089579D01*
X143594542Y-56070521D01*
X143599468Y-56070500D01*
X143711931Y-56118115D01*
X143743738Y-56251832D01*
X143692776Y-56457953D01*
X143668165Y-56516298D01*
X143601531Y-56679951D01*
X143591446Y-56785295D01*
X143637017Y-56887293D01*
X143661525Y-56925633D01*
X143802309Y-57058385D01*
X143957013Y-57079135D01*
X144101117Y-56996921D01*
X144210099Y-56820783D01*
X144241452Y-56711841D01*
X144263131Y-56570515D01*
X144239511Y-56523802D01*
X144178696Y-56537216D01*
X144074123Y-56572449D01*
X144044557Y-56578500D01*
X144024570Y-56633004D01*
X144018000Y-56737250D01*
X143995587Y-56856575D01*
X143952508Y-56896000D01*
X143869197Y-56845452D01*
X143850359Y-56713257D01*
X143898432Y-56528583D01*
X143918093Y-56484095D01*
X143982004Y-56326442D01*
X143983275Y-56211167D01*
X143923929Y-56072779D01*
X143793757Y-55908461D01*
X143640427Y-55832406D01*
X143493747Y-55839596D01*
G36*
X148283229Y-56357594D02*
X148272500Y-56385747D01*
X148241416Y-56464644D01*
X148158475Y-56622434D01*
X148039146Y-56830322D01*
X147986750Y-56917664D01*
X147827869Y-57188284D01*
X147736709Y-57369587D01*
X147708272Y-57476379D01*
X147737563Y-57523463D01*
X147780375Y-57529222D01*
X147844075Y-57476504D01*
X147950246Y-57336290D01*
X148081387Y-57133032D01*
X148161375Y-56996975D01*
X148319003Y-56712989D01*
X148414224Y-56520185D01*
X148452079Y-56402138D01*
X148437609Y-56342421D01*
X148375855Y-56324609D01*
X148367750Y-56324500D01*
X148283229Y-56357594D01*
X148283229Y-56357594D01*
G37*
X148283229Y-56357594D02*
X148272500Y-56385747D01*
X148241416Y-56464644D01*
X148158475Y-56622434D01*
X148039146Y-56830322D01*
X147986750Y-56917664D01*
X147827869Y-57188284D01*
X147736709Y-57369587D01*
X147708272Y-57476379D01*
X147737563Y-57523463D01*
X147780375Y-57529222D01*
X147844075Y-57476504D01*
X147950246Y-57336290D01*
X148081387Y-57133032D01*
X148161375Y-56996975D01*
X148319003Y-56712989D01*
X148414224Y-56520185D01*
X148452079Y-56402138D01*
X148437609Y-56342421D01*
X148375855Y-56324609D01*
X148367750Y-56324500D01*
X148283229Y-56357594D01*
G36*
X147581244Y-56431923D02*
X147488632Y-56555853D01*
X147457488Y-56739751D01*
X147495411Y-56928575D01*
X147508820Y-56956359D01*
X147546118Y-57055661D01*
X147499054Y-57085947D01*
X147480985Y-57086500D01*
X147395328Y-57038548D01*
X147383500Y-56994997D01*
X147349251Y-56889574D01*
X147277434Y-56862192D01*
X147216601Y-56926090D01*
X147228494Y-57044667D01*
X147311520Y-57174427D01*
X147426458Y-57263695D01*
X147482947Y-57277000D01*
X147571601Y-57231994D01*
X147693182Y-57120086D01*
X147727106Y-57081627D01*
X147839502Y-56897973D01*
X147888469Y-56711120D01*
X147884801Y-56641956D01*
X147750477Y-56641956D01*
X147730986Y-56774558D01*
X147691602Y-56870919D01*
X147652109Y-56852864D01*
X147623358Y-56804973D01*
X147598272Y-56674571D01*
X147629862Y-56624238D01*
X147712425Y-56582455D01*
X147750477Y-56641956D01*
X147884801Y-56641956D01*
X147879743Y-56546619D01*
X147819060Y-56430022D01*
X147712157Y-56386880D01*
X147581244Y-56431923D01*
X147581244Y-56431923D01*
G37*
X147581244Y-56431923D02*
X147488632Y-56555853D01*
X147457488Y-56739751D01*
X147495411Y-56928575D01*
X147508820Y-56956359D01*
X147546118Y-57055661D01*
X147499054Y-57085947D01*
X147480985Y-57086500D01*
X147395328Y-57038548D01*
X147383500Y-56994997D01*
X147349251Y-56889574D01*
X147277434Y-56862192D01*
X147216601Y-56926090D01*
X147228494Y-57044667D01*
X147311520Y-57174427D01*
X147426458Y-57263695D01*
X147482947Y-57277000D01*
X147571601Y-57231994D01*
X147693182Y-57120086D01*
X147727106Y-57081627D01*
X147839502Y-56897973D01*
X147888469Y-56711120D01*
X147884801Y-56641956D01*
X147750477Y-56641956D01*
X147730986Y-56774558D01*
X147691602Y-56870919D01*
X147652109Y-56852864D01*
X147623358Y-56804973D01*
X147598272Y-56674571D01*
X147629862Y-56624238D01*
X147712425Y-56582455D01*
X147750477Y-56641956D01*
X147884801Y-56641956D01*
X147879743Y-56546619D01*
X147819060Y-56430022D01*
X147712157Y-56386880D01*
X147581244Y-56431923D01*
G36*
X146907943Y-56259902D02*
X146711525Y-56596848D01*
X146598860Y-56851748D01*
X146571744Y-57020296D01*
X146578749Y-57048978D01*
X146651413Y-57114984D01*
X146771509Y-57147594D01*
X146885254Y-57141207D01*
X146938863Y-57090221D01*
X146939000Y-57086500D01*
X146885816Y-57034907D01*
X146812000Y-57023000D01*
X146703759Y-56998346D01*
X146701793Y-56914566D01*
X146740636Y-56843050D01*
X146792795Y-56795370D01*
X146832921Y-56858925D01*
X146914302Y-56949688D01*
X147032726Y-56945551D01*
X147165270Y-56863566D01*
X147289008Y-56720786D01*
X147381016Y-56534259D01*
X147407688Y-56431414D01*
X147405796Y-56372788D01*
X147232433Y-56372788D01*
X147214855Y-56487017D01*
X147159085Y-56621233D01*
X147113954Y-56689625D01*
X147018837Y-56762657D01*
X146951121Y-56740900D01*
X146939000Y-56687879D01*
X146975235Y-56571210D01*
X147059330Y-56439325D01*
X147154373Y-56343443D01*
X147200880Y-56324500D01*
X147232433Y-56372788D01*
X147405796Y-56372788D01*
X147403183Y-56291836D01*
X147312201Y-56176673D01*
X147254515Y-56132585D01*
X147070866Y-56001816D01*
X146907943Y-56259902D01*
X146907943Y-56259902D01*
G37*
X146907943Y-56259902D02*
X146711525Y-56596848D01*
X146598860Y-56851748D01*
X146571744Y-57020296D01*
X146578749Y-57048978D01*
X146651413Y-57114984D01*
X146771509Y-57147594D01*
X146885254Y-57141207D01*
X146938863Y-57090221D01*
X146939000Y-57086500D01*
X146885816Y-57034907D01*
X146812000Y-57023000D01*
X146703759Y-56998346D01*
X146701793Y-56914566D01*
X146740636Y-56843050D01*
X146792795Y-56795370D01*
X146832921Y-56858925D01*
X146914302Y-56949688D01*
X147032726Y-56945551D01*
X147165270Y-56863566D01*
X147289008Y-56720786D01*
X147381016Y-56534259D01*
X147407688Y-56431414D01*
X147405796Y-56372788D01*
X147232433Y-56372788D01*
X147214855Y-56487017D01*
X147159085Y-56621233D01*
X147113954Y-56689625D01*
X147018837Y-56762657D01*
X146951121Y-56740900D01*
X146939000Y-56687879D01*
X146975235Y-56571210D01*
X147059330Y-56439325D01*
X147154373Y-56343443D01*
X147200880Y-56324500D01*
X147232433Y-56372788D01*
X147405796Y-56372788D01*
X147403183Y-56291836D01*
X147312201Y-56176673D01*
X147254515Y-56132585D01*
X147070866Y-56001816D01*
X146907943Y-56259902D01*
M02*
