G04 #@! TF.GenerationSoftware,KiCad,Pcbnew,(5.1.0-0)*
G04 #@! TF.CreationDate,2019-10-11T10:51:37-05:00*
G04 #@! TF.ProjectId,trigger-seq-front-panel,74726967-6765-4722-9d73-65712d66726f,rev?*
G04 #@! TF.SameCoordinates,Original*
G04 #@! TF.FileFunction,Soldermask,Bot*
G04 #@! TF.FilePolarity,Negative*
%FSLAX46Y46*%
G04 Gerber Fmt 4.6, Leading zero omitted, Abs format (unit mm)*
G04 Created by KiCad (PCBNEW (5.1.0-0)) date 2019-10-11 10:51:37*
%MOMM*%
%LPD*%
G04 APERTURE LIST*
%ADD10C,7.700000*%
%ADD11C,5.900000*%
%ADD12C,6.800000*%
%ADD13O,6.900000X3.600000*%
%ADD14C,3.600000*%
%ADD15C,10.400000*%
G04 APERTURE END LIST*
D10*
X146558000Y-82550000D03*
X130302000Y-82550000D03*
D11*
X138430000Y-96520000D03*
D12*
X146558000Y-109220000D03*
X146558000Y-122936000D03*
X146558000Y-136652000D03*
X146558000Y-150241000D03*
D11*
X86791800Y-64008000D03*
X86791800Y-74168000D03*
X86791800Y-84328000D03*
X86791800Y-94488000D03*
X86791800Y-104648000D03*
X86791800Y-114808000D03*
X86791800Y-124968000D03*
X86791800Y-135128000D03*
X114477800Y-64008000D03*
X114477800Y-74168000D03*
X114477800Y-84328000D03*
X114477800Y-94488000D03*
X114477800Y-104648000D03*
X114477800Y-114808000D03*
X114477800Y-124968000D03*
X114477800Y-135128000D03*
X130302000Y-109220000D03*
X130302000Y-122936000D03*
D13*
X79740000Y-44220000D03*
X146100000Y-44210000D03*
X146110000Y-166670000D03*
D10*
X146558000Y-63474600D03*
D12*
X86766400Y-150368000D03*
X114477800Y-150368000D03*
X130302000Y-150241000D03*
D14*
X104317800Y-64008000D03*
X104317800Y-74168000D03*
X104317800Y-84328000D03*
X104317800Y-94488000D03*
X104317800Y-104648000D03*
X104317800Y-114808000D03*
X104317800Y-124968000D03*
X104317800Y-135128000D03*
X76631800Y-135128000D03*
X76631800Y-124968000D03*
X76631800Y-114808000D03*
X76631800Y-104648000D03*
X76631800Y-94488000D03*
X76631800Y-84328000D03*
X76631800Y-74168000D03*
X76631800Y-64008000D03*
D10*
X130302000Y-63500000D03*
D15*
X130302000Y-136652000D03*
D13*
X80220000Y-166680000D03*
M02*
