G04 #@! TF.GenerationSoftware,KiCad,Pcbnew,(5.1.0-0)*
G04 #@! TF.CreationDate,2019-10-11T10:51:37-05:00*
G04 #@! TF.ProjectId,trigger-seq-front-panel,74726967-6765-4722-9d73-65712d66726f,rev?*
G04 #@! TF.SameCoordinates,Original*
G04 #@! TF.FileFunction,Copper,L1,Top*
G04 #@! TF.FilePolarity,Positive*
%FSLAX46Y46*%
G04 Gerber Fmt 4.6, Leading zero omitted, Abs format (unit mm)*
G04 Created by KiCad (PCBNEW (5.1.0-0)) date 2019-10-11 10:51:37*
%MOMM*%
%LPD*%
G04 APERTURE LIST*
%ADD10C,0.254000*%
G04 APERTURE END LIST*
D10*
G36*
X152875000Y-168937000D02*
G01*
X73465000Y-168937000D01*
X73465000Y-166680000D01*
X76324186Y-166680000D01*
X76367339Y-167118137D01*
X76495138Y-167539436D01*
X76702674Y-167927707D01*
X76981970Y-168268030D01*
X77322293Y-168547326D01*
X77710564Y-168754862D01*
X78131863Y-168882661D01*
X78460204Y-168915000D01*
X81979796Y-168915000D01*
X82308137Y-168882661D01*
X82729436Y-168754862D01*
X83117707Y-168547326D01*
X83458030Y-168268030D01*
X83737326Y-167927707D01*
X83944862Y-167539436D01*
X84072661Y-167118137D01*
X84115814Y-166680000D01*
X84114830Y-166670000D01*
X142214186Y-166670000D01*
X142257339Y-167108137D01*
X142385138Y-167529436D01*
X142592674Y-167917707D01*
X142871970Y-168258030D01*
X143212293Y-168537326D01*
X143600564Y-168744862D01*
X144021863Y-168872661D01*
X144350204Y-168905000D01*
X147869796Y-168905000D01*
X148198137Y-168872661D01*
X148619436Y-168744862D01*
X149007707Y-168537326D01*
X149348030Y-168258030D01*
X149627326Y-167917707D01*
X149834862Y-167529436D01*
X149962661Y-167108137D01*
X150005814Y-166670000D01*
X149962661Y-166231863D01*
X149834862Y-165810564D01*
X149627326Y-165422293D01*
X149348030Y-165081970D01*
X149007707Y-164802674D01*
X148619436Y-164595138D01*
X148198137Y-164467339D01*
X147869796Y-164435000D01*
X144350204Y-164435000D01*
X144021863Y-164467339D01*
X143600564Y-164595138D01*
X143212293Y-164802674D01*
X142871970Y-165081970D01*
X142592674Y-165422293D01*
X142385138Y-165810564D01*
X142257339Y-166231863D01*
X142214186Y-166670000D01*
X84114830Y-166670000D01*
X84072661Y-166241863D01*
X83944862Y-165820564D01*
X83737326Y-165432293D01*
X83458030Y-165091970D01*
X83117707Y-164812674D01*
X82729436Y-164605138D01*
X82308137Y-164477339D01*
X81979796Y-164445000D01*
X78460204Y-164445000D01*
X78131863Y-164477339D01*
X77710564Y-164605138D01*
X77322293Y-164812674D01*
X76981970Y-165091970D01*
X76702674Y-165432293D01*
X76495138Y-165820564D01*
X76367339Y-166241863D01*
X76324186Y-166680000D01*
X73465000Y-166680000D01*
X73465000Y-149990285D01*
X82931400Y-149990285D01*
X82931400Y-150745715D01*
X83078777Y-151486628D01*
X83367867Y-152184554D01*
X83787561Y-152812670D01*
X84321730Y-153346839D01*
X84949846Y-153766533D01*
X85647772Y-154055623D01*
X86388685Y-154203000D01*
X87144115Y-154203000D01*
X87885028Y-154055623D01*
X88582954Y-153766533D01*
X89211070Y-153346839D01*
X89745239Y-152812670D01*
X90164933Y-152184554D01*
X90454023Y-151486628D01*
X90601400Y-150745715D01*
X90601400Y-149990285D01*
X110642800Y-149990285D01*
X110642800Y-150745715D01*
X110790177Y-151486628D01*
X111079267Y-152184554D01*
X111498961Y-152812670D01*
X112033130Y-153346839D01*
X112661246Y-153766533D01*
X113359172Y-154055623D01*
X114100085Y-154203000D01*
X114855515Y-154203000D01*
X115596428Y-154055623D01*
X116294354Y-153766533D01*
X116922470Y-153346839D01*
X117456639Y-152812670D01*
X117876333Y-152184554D01*
X118165423Y-151486628D01*
X118312800Y-150745715D01*
X118312800Y-149990285D01*
X118287539Y-149863285D01*
X126467000Y-149863285D01*
X126467000Y-150618715D01*
X126614377Y-151359628D01*
X126903467Y-152057554D01*
X127323161Y-152685670D01*
X127857330Y-153219839D01*
X128485446Y-153639533D01*
X129183372Y-153928623D01*
X129924285Y-154076000D01*
X130679715Y-154076000D01*
X131420628Y-153928623D01*
X132118554Y-153639533D01*
X132746670Y-153219839D01*
X133280839Y-152685670D01*
X133700533Y-152057554D01*
X133989623Y-151359628D01*
X134137000Y-150618715D01*
X134137000Y-149863285D01*
X142723000Y-149863285D01*
X142723000Y-150618715D01*
X142870377Y-151359628D01*
X143159467Y-152057554D01*
X143579161Y-152685670D01*
X144113330Y-153219839D01*
X144741446Y-153639533D01*
X145439372Y-153928623D01*
X146180285Y-154076000D01*
X146935715Y-154076000D01*
X147676628Y-153928623D01*
X148374554Y-153639533D01*
X149002670Y-153219839D01*
X149536839Y-152685670D01*
X149956533Y-152057554D01*
X150245623Y-151359628D01*
X150393000Y-150618715D01*
X150393000Y-149863285D01*
X150245623Y-149122372D01*
X149956533Y-148424446D01*
X149536839Y-147796330D01*
X149002670Y-147262161D01*
X148374554Y-146842467D01*
X147676628Y-146553377D01*
X146935715Y-146406000D01*
X146180285Y-146406000D01*
X145439372Y-146553377D01*
X144741446Y-146842467D01*
X144113330Y-147262161D01*
X143579161Y-147796330D01*
X143159467Y-148424446D01*
X142870377Y-149122372D01*
X142723000Y-149863285D01*
X134137000Y-149863285D01*
X133989623Y-149122372D01*
X133700533Y-148424446D01*
X133280839Y-147796330D01*
X132746670Y-147262161D01*
X132118554Y-146842467D01*
X131420628Y-146553377D01*
X130679715Y-146406000D01*
X129924285Y-146406000D01*
X129183372Y-146553377D01*
X128485446Y-146842467D01*
X127857330Y-147262161D01*
X127323161Y-147796330D01*
X126903467Y-148424446D01*
X126614377Y-149122372D01*
X126467000Y-149863285D01*
X118287539Y-149863285D01*
X118165423Y-149249372D01*
X117876333Y-148551446D01*
X117456639Y-147923330D01*
X116922470Y-147389161D01*
X116294354Y-146969467D01*
X115596428Y-146680377D01*
X114855515Y-146533000D01*
X114100085Y-146533000D01*
X113359172Y-146680377D01*
X112661246Y-146969467D01*
X112033130Y-147389161D01*
X111498961Y-147923330D01*
X111079267Y-148551446D01*
X110790177Y-149249372D01*
X110642800Y-149990285D01*
X90601400Y-149990285D01*
X90454023Y-149249372D01*
X90164933Y-148551446D01*
X89745239Y-147923330D01*
X89211070Y-147389161D01*
X88582954Y-146969467D01*
X87885028Y-146680377D01*
X87144115Y-146533000D01*
X86388685Y-146533000D01*
X85647772Y-146680377D01*
X84949846Y-146969467D01*
X84321730Y-147389161D01*
X83787561Y-147923330D01*
X83367867Y-148551446D01*
X83078777Y-149249372D01*
X82931400Y-149990285D01*
X73465000Y-149990285D01*
X73465000Y-134907872D01*
X74396800Y-134907872D01*
X74396800Y-135348128D01*
X74482690Y-135779925D01*
X74651169Y-136186669D01*
X74895762Y-136552729D01*
X75207071Y-136864038D01*
X75573131Y-137108631D01*
X75979875Y-137277110D01*
X76411672Y-137363000D01*
X76851928Y-137363000D01*
X77283725Y-137277110D01*
X77690469Y-137108631D01*
X78056529Y-136864038D01*
X78367838Y-136552729D01*
X78612431Y-136186669D01*
X78780910Y-135779925D01*
X78866800Y-135348128D01*
X78866800Y-134907872D01*
X78844271Y-134794607D01*
X83406800Y-134794607D01*
X83406800Y-135461393D01*
X83536883Y-136115368D01*
X83792052Y-136731399D01*
X84162498Y-137285812D01*
X84633988Y-137757302D01*
X85188401Y-138127748D01*
X85804432Y-138382917D01*
X86458407Y-138513000D01*
X87125193Y-138513000D01*
X87779168Y-138382917D01*
X88395199Y-138127748D01*
X88949612Y-137757302D01*
X89421102Y-137285812D01*
X89791548Y-136731399D01*
X90046717Y-136115368D01*
X90176800Y-135461393D01*
X90176800Y-134907872D01*
X102082800Y-134907872D01*
X102082800Y-135348128D01*
X102168690Y-135779925D01*
X102337169Y-136186669D01*
X102581762Y-136552729D01*
X102893071Y-136864038D01*
X103259131Y-137108631D01*
X103665875Y-137277110D01*
X104097672Y-137363000D01*
X104537928Y-137363000D01*
X104969725Y-137277110D01*
X105376469Y-137108631D01*
X105742529Y-136864038D01*
X106053838Y-136552729D01*
X106298431Y-136186669D01*
X106466910Y-135779925D01*
X106552800Y-135348128D01*
X106552800Y-134907872D01*
X106530271Y-134794607D01*
X111092800Y-134794607D01*
X111092800Y-135461393D01*
X111222883Y-136115368D01*
X111478052Y-136731399D01*
X111848498Y-137285812D01*
X112319988Y-137757302D01*
X112874401Y-138127748D01*
X113490432Y-138382917D01*
X114144407Y-138513000D01*
X114811193Y-138513000D01*
X115465168Y-138382917D01*
X116081199Y-138127748D01*
X116635612Y-137757302D01*
X117107102Y-137285812D01*
X117477548Y-136731399D01*
X117732717Y-136115368D01*
X117736370Y-136097001D01*
X124667000Y-136097001D01*
X124667000Y-137206999D01*
X124883550Y-138295669D01*
X125308328Y-139321173D01*
X125925010Y-140244103D01*
X126709897Y-141028990D01*
X127632827Y-141645672D01*
X128658331Y-142070450D01*
X129747001Y-142287000D01*
X130856999Y-142287000D01*
X131945669Y-142070450D01*
X132971173Y-141645672D01*
X133894103Y-141028990D01*
X134678990Y-140244103D01*
X135295672Y-139321173D01*
X135720450Y-138295669D01*
X135937000Y-137206999D01*
X135937000Y-136274285D01*
X142723000Y-136274285D01*
X142723000Y-137029715D01*
X142870377Y-137770628D01*
X143159467Y-138468554D01*
X143579161Y-139096670D01*
X144113330Y-139630839D01*
X144741446Y-140050533D01*
X145439372Y-140339623D01*
X146180285Y-140487000D01*
X146935715Y-140487000D01*
X147676628Y-140339623D01*
X148374554Y-140050533D01*
X149002670Y-139630839D01*
X149536839Y-139096670D01*
X149956533Y-138468554D01*
X150245623Y-137770628D01*
X150393000Y-137029715D01*
X150393000Y-136274285D01*
X150245623Y-135533372D01*
X149956533Y-134835446D01*
X149536839Y-134207330D01*
X149002670Y-133673161D01*
X148374554Y-133253467D01*
X147676628Y-132964377D01*
X146935715Y-132817000D01*
X146180285Y-132817000D01*
X145439372Y-132964377D01*
X144741446Y-133253467D01*
X144113330Y-133673161D01*
X143579161Y-134207330D01*
X143159467Y-134835446D01*
X142870377Y-135533372D01*
X142723000Y-136274285D01*
X135937000Y-136274285D01*
X135937000Y-136097001D01*
X135720450Y-135008331D01*
X135295672Y-133982827D01*
X134678990Y-133059897D01*
X133894103Y-132275010D01*
X132971173Y-131658328D01*
X131945669Y-131233550D01*
X130856999Y-131017000D01*
X129747001Y-131017000D01*
X128658331Y-131233550D01*
X127632827Y-131658328D01*
X126709897Y-132275010D01*
X125925010Y-133059897D01*
X125308328Y-133982827D01*
X124883550Y-135008331D01*
X124667000Y-136097001D01*
X117736370Y-136097001D01*
X117862800Y-135461393D01*
X117862800Y-134794607D01*
X117732717Y-134140632D01*
X117477548Y-133524601D01*
X117107102Y-132970188D01*
X116635612Y-132498698D01*
X116081199Y-132128252D01*
X115465168Y-131873083D01*
X114811193Y-131743000D01*
X114144407Y-131743000D01*
X113490432Y-131873083D01*
X112874401Y-132128252D01*
X112319988Y-132498698D01*
X111848498Y-132970188D01*
X111478052Y-133524601D01*
X111222883Y-134140632D01*
X111092800Y-134794607D01*
X106530271Y-134794607D01*
X106466910Y-134476075D01*
X106298431Y-134069331D01*
X106053838Y-133703271D01*
X105742529Y-133391962D01*
X105376469Y-133147369D01*
X104969725Y-132978890D01*
X104537928Y-132893000D01*
X104097672Y-132893000D01*
X103665875Y-132978890D01*
X103259131Y-133147369D01*
X102893071Y-133391962D01*
X102581762Y-133703271D01*
X102337169Y-134069331D01*
X102168690Y-134476075D01*
X102082800Y-134907872D01*
X90176800Y-134907872D01*
X90176800Y-134794607D01*
X90046717Y-134140632D01*
X89791548Y-133524601D01*
X89421102Y-132970188D01*
X88949612Y-132498698D01*
X88395199Y-132128252D01*
X87779168Y-131873083D01*
X87125193Y-131743000D01*
X86458407Y-131743000D01*
X85804432Y-131873083D01*
X85188401Y-132128252D01*
X84633988Y-132498698D01*
X84162498Y-132970188D01*
X83792052Y-133524601D01*
X83536883Y-134140632D01*
X83406800Y-134794607D01*
X78844271Y-134794607D01*
X78780910Y-134476075D01*
X78612431Y-134069331D01*
X78367838Y-133703271D01*
X78056529Y-133391962D01*
X77690469Y-133147369D01*
X77283725Y-132978890D01*
X76851928Y-132893000D01*
X76411672Y-132893000D01*
X75979875Y-132978890D01*
X75573131Y-133147369D01*
X75207071Y-133391962D01*
X74895762Y-133703271D01*
X74651169Y-134069331D01*
X74482690Y-134476075D01*
X74396800Y-134907872D01*
X73465000Y-134907872D01*
X73465000Y-124747872D01*
X74396800Y-124747872D01*
X74396800Y-125188128D01*
X74482690Y-125619925D01*
X74651169Y-126026669D01*
X74895762Y-126392729D01*
X75207071Y-126704038D01*
X75573131Y-126948631D01*
X75979875Y-127117110D01*
X76411672Y-127203000D01*
X76851928Y-127203000D01*
X77283725Y-127117110D01*
X77690469Y-126948631D01*
X78056529Y-126704038D01*
X78367838Y-126392729D01*
X78612431Y-126026669D01*
X78780910Y-125619925D01*
X78866800Y-125188128D01*
X78866800Y-124747872D01*
X78844271Y-124634607D01*
X83406800Y-124634607D01*
X83406800Y-125301393D01*
X83536883Y-125955368D01*
X83792052Y-126571399D01*
X84162498Y-127125812D01*
X84633988Y-127597302D01*
X85188401Y-127967748D01*
X85804432Y-128222917D01*
X86458407Y-128353000D01*
X87125193Y-128353000D01*
X87779168Y-128222917D01*
X88395199Y-127967748D01*
X88949612Y-127597302D01*
X89421102Y-127125812D01*
X89791548Y-126571399D01*
X90046717Y-125955368D01*
X90176800Y-125301393D01*
X90176800Y-124747872D01*
X102082800Y-124747872D01*
X102082800Y-125188128D01*
X102168690Y-125619925D01*
X102337169Y-126026669D01*
X102581762Y-126392729D01*
X102893071Y-126704038D01*
X103259131Y-126948631D01*
X103665875Y-127117110D01*
X104097672Y-127203000D01*
X104537928Y-127203000D01*
X104969725Y-127117110D01*
X105376469Y-126948631D01*
X105742529Y-126704038D01*
X106053838Y-126392729D01*
X106298431Y-126026669D01*
X106466910Y-125619925D01*
X106552800Y-125188128D01*
X106552800Y-124747872D01*
X106530271Y-124634607D01*
X111092800Y-124634607D01*
X111092800Y-125301393D01*
X111222883Y-125955368D01*
X111478052Y-126571399D01*
X111848498Y-127125812D01*
X112319988Y-127597302D01*
X112874401Y-127967748D01*
X113490432Y-128222917D01*
X114144407Y-128353000D01*
X114811193Y-128353000D01*
X115465168Y-128222917D01*
X116081199Y-127967748D01*
X116635612Y-127597302D01*
X117107102Y-127125812D01*
X117477548Y-126571399D01*
X117732717Y-125955368D01*
X117862800Y-125301393D01*
X117862800Y-124634607D01*
X117732717Y-123980632D01*
X117477548Y-123364601D01*
X117107102Y-122810188D01*
X116899521Y-122602607D01*
X126917000Y-122602607D01*
X126917000Y-123269393D01*
X127047083Y-123923368D01*
X127302252Y-124539399D01*
X127672698Y-125093812D01*
X128144188Y-125565302D01*
X128698601Y-125935748D01*
X129314632Y-126190917D01*
X129968607Y-126321000D01*
X130635393Y-126321000D01*
X131289368Y-126190917D01*
X131905399Y-125935748D01*
X132459812Y-125565302D01*
X132931302Y-125093812D01*
X133301748Y-124539399D01*
X133556917Y-123923368D01*
X133687000Y-123269393D01*
X133687000Y-122602607D01*
X133678184Y-122558285D01*
X142723000Y-122558285D01*
X142723000Y-123313715D01*
X142870377Y-124054628D01*
X143159467Y-124752554D01*
X143579161Y-125380670D01*
X144113330Y-125914839D01*
X144741446Y-126334533D01*
X145439372Y-126623623D01*
X146180285Y-126771000D01*
X146935715Y-126771000D01*
X147676628Y-126623623D01*
X148374554Y-126334533D01*
X149002670Y-125914839D01*
X149536839Y-125380670D01*
X149956533Y-124752554D01*
X150245623Y-124054628D01*
X150393000Y-123313715D01*
X150393000Y-122558285D01*
X150245623Y-121817372D01*
X149956533Y-121119446D01*
X149536839Y-120491330D01*
X149002670Y-119957161D01*
X148374554Y-119537467D01*
X147676628Y-119248377D01*
X146935715Y-119101000D01*
X146180285Y-119101000D01*
X145439372Y-119248377D01*
X144741446Y-119537467D01*
X144113330Y-119957161D01*
X143579161Y-120491330D01*
X143159467Y-121119446D01*
X142870377Y-121817372D01*
X142723000Y-122558285D01*
X133678184Y-122558285D01*
X133556917Y-121948632D01*
X133301748Y-121332601D01*
X132931302Y-120778188D01*
X132459812Y-120306698D01*
X131905399Y-119936252D01*
X131289368Y-119681083D01*
X130635393Y-119551000D01*
X129968607Y-119551000D01*
X129314632Y-119681083D01*
X128698601Y-119936252D01*
X128144188Y-120306698D01*
X127672698Y-120778188D01*
X127302252Y-121332601D01*
X127047083Y-121948632D01*
X126917000Y-122602607D01*
X116899521Y-122602607D01*
X116635612Y-122338698D01*
X116081199Y-121968252D01*
X115465168Y-121713083D01*
X114811193Y-121583000D01*
X114144407Y-121583000D01*
X113490432Y-121713083D01*
X112874401Y-121968252D01*
X112319988Y-122338698D01*
X111848498Y-122810188D01*
X111478052Y-123364601D01*
X111222883Y-123980632D01*
X111092800Y-124634607D01*
X106530271Y-124634607D01*
X106466910Y-124316075D01*
X106298431Y-123909331D01*
X106053838Y-123543271D01*
X105742529Y-123231962D01*
X105376469Y-122987369D01*
X104969725Y-122818890D01*
X104537928Y-122733000D01*
X104097672Y-122733000D01*
X103665875Y-122818890D01*
X103259131Y-122987369D01*
X102893071Y-123231962D01*
X102581762Y-123543271D01*
X102337169Y-123909331D01*
X102168690Y-124316075D01*
X102082800Y-124747872D01*
X90176800Y-124747872D01*
X90176800Y-124634607D01*
X90046717Y-123980632D01*
X89791548Y-123364601D01*
X89421102Y-122810188D01*
X88949612Y-122338698D01*
X88395199Y-121968252D01*
X87779168Y-121713083D01*
X87125193Y-121583000D01*
X86458407Y-121583000D01*
X85804432Y-121713083D01*
X85188401Y-121968252D01*
X84633988Y-122338698D01*
X84162498Y-122810188D01*
X83792052Y-123364601D01*
X83536883Y-123980632D01*
X83406800Y-124634607D01*
X78844271Y-124634607D01*
X78780910Y-124316075D01*
X78612431Y-123909331D01*
X78367838Y-123543271D01*
X78056529Y-123231962D01*
X77690469Y-122987369D01*
X77283725Y-122818890D01*
X76851928Y-122733000D01*
X76411672Y-122733000D01*
X75979875Y-122818890D01*
X75573131Y-122987369D01*
X75207071Y-123231962D01*
X74895762Y-123543271D01*
X74651169Y-123909331D01*
X74482690Y-124316075D01*
X74396800Y-124747872D01*
X73465000Y-124747872D01*
X73465000Y-114587872D01*
X74396800Y-114587872D01*
X74396800Y-115028128D01*
X74482690Y-115459925D01*
X74651169Y-115866669D01*
X74895762Y-116232729D01*
X75207071Y-116544038D01*
X75573131Y-116788631D01*
X75979875Y-116957110D01*
X76411672Y-117043000D01*
X76851928Y-117043000D01*
X77283725Y-116957110D01*
X77690469Y-116788631D01*
X78056529Y-116544038D01*
X78367838Y-116232729D01*
X78612431Y-115866669D01*
X78780910Y-115459925D01*
X78866800Y-115028128D01*
X78866800Y-114587872D01*
X78844271Y-114474607D01*
X83406800Y-114474607D01*
X83406800Y-115141393D01*
X83536883Y-115795368D01*
X83792052Y-116411399D01*
X84162498Y-116965812D01*
X84633988Y-117437302D01*
X85188401Y-117807748D01*
X85804432Y-118062917D01*
X86458407Y-118193000D01*
X87125193Y-118193000D01*
X87779168Y-118062917D01*
X88395199Y-117807748D01*
X88949612Y-117437302D01*
X89421102Y-116965812D01*
X89791548Y-116411399D01*
X90046717Y-115795368D01*
X90176800Y-115141393D01*
X90176800Y-114587872D01*
X102082800Y-114587872D01*
X102082800Y-115028128D01*
X102168690Y-115459925D01*
X102337169Y-115866669D01*
X102581762Y-116232729D01*
X102893071Y-116544038D01*
X103259131Y-116788631D01*
X103665875Y-116957110D01*
X104097672Y-117043000D01*
X104537928Y-117043000D01*
X104969725Y-116957110D01*
X105376469Y-116788631D01*
X105742529Y-116544038D01*
X106053838Y-116232729D01*
X106298431Y-115866669D01*
X106466910Y-115459925D01*
X106552800Y-115028128D01*
X106552800Y-114587872D01*
X106530271Y-114474607D01*
X111092800Y-114474607D01*
X111092800Y-115141393D01*
X111222883Y-115795368D01*
X111478052Y-116411399D01*
X111848498Y-116965812D01*
X112319988Y-117437302D01*
X112874401Y-117807748D01*
X113490432Y-118062917D01*
X114144407Y-118193000D01*
X114811193Y-118193000D01*
X115465168Y-118062917D01*
X116081199Y-117807748D01*
X116635612Y-117437302D01*
X117107102Y-116965812D01*
X117477548Y-116411399D01*
X117732717Y-115795368D01*
X117862800Y-115141393D01*
X117862800Y-114474607D01*
X117732717Y-113820632D01*
X117477548Y-113204601D01*
X117107102Y-112650188D01*
X116635612Y-112178698D01*
X116081199Y-111808252D01*
X115465168Y-111553083D01*
X114811193Y-111423000D01*
X114144407Y-111423000D01*
X113490432Y-111553083D01*
X112874401Y-111808252D01*
X112319988Y-112178698D01*
X111848498Y-112650188D01*
X111478052Y-113204601D01*
X111222883Y-113820632D01*
X111092800Y-114474607D01*
X106530271Y-114474607D01*
X106466910Y-114156075D01*
X106298431Y-113749331D01*
X106053838Y-113383271D01*
X105742529Y-113071962D01*
X105376469Y-112827369D01*
X104969725Y-112658890D01*
X104537928Y-112573000D01*
X104097672Y-112573000D01*
X103665875Y-112658890D01*
X103259131Y-112827369D01*
X102893071Y-113071962D01*
X102581762Y-113383271D01*
X102337169Y-113749331D01*
X102168690Y-114156075D01*
X102082800Y-114587872D01*
X90176800Y-114587872D01*
X90176800Y-114474607D01*
X90046717Y-113820632D01*
X89791548Y-113204601D01*
X89421102Y-112650188D01*
X88949612Y-112178698D01*
X88395199Y-111808252D01*
X87779168Y-111553083D01*
X87125193Y-111423000D01*
X86458407Y-111423000D01*
X85804432Y-111553083D01*
X85188401Y-111808252D01*
X84633988Y-112178698D01*
X84162498Y-112650188D01*
X83792052Y-113204601D01*
X83536883Y-113820632D01*
X83406800Y-114474607D01*
X78844271Y-114474607D01*
X78780910Y-114156075D01*
X78612431Y-113749331D01*
X78367838Y-113383271D01*
X78056529Y-113071962D01*
X77690469Y-112827369D01*
X77283725Y-112658890D01*
X76851928Y-112573000D01*
X76411672Y-112573000D01*
X75979875Y-112658890D01*
X75573131Y-112827369D01*
X75207071Y-113071962D01*
X74895762Y-113383271D01*
X74651169Y-113749331D01*
X74482690Y-114156075D01*
X74396800Y-114587872D01*
X73465000Y-114587872D01*
X73465000Y-108886607D01*
X126917000Y-108886607D01*
X126917000Y-109553393D01*
X127047083Y-110207368D01*
X127302252Y-110823399D01*
X127672698Y-111377812D01*
X128144188Y-111849302D01*
X128698601Y-112219748D01*
X129314632Y-112474917D01*
X129968607Y-112605000D01*
X130635393Y-112605000D01*
X131289368Y-112474917D01*
X131905399Y-112219748D01*
X132459812Y-111849302D01*
X132931302Y-111377812D01*
X133301748Y-110823399D01*
X133556917Y-110207368D01*
X133687000Y-109553393D01*
X133687000Y-108886607D01*
X133678184Y-108842285D01*
X142723000Y-108842285D01*
X142723000Y-109597715D01*
X142870377Y-110338628D01*
X143159467Y-111036554D01*
X143579161Y-111664670D01*
X144113330Y-112198839D01*
X144741446Y-112618533D01*
X145439372Y-112907623D01*
X146180285Y-113055000D01*
X146935715Y-113055000D01*
X147676628Y-112907623D01*
X148374554Y-112618533D01*
X149002670Y-112198839D01*
X149536839Y-111664670D01*
X149956533Y-111036554D01*
X150245623Y-110338628D01*
X150393000Y-109597715D01*
X150393000Y-108842285D01*
X150245623Y-108101372D01*
X149956533Y-107403446D01*
X149536839Y-106775330D01*
X149002670Y-106241161D01*
X148374554Y-105821467D01*
X147676628Y-105532377D01*
X146935715Y-105385000D01*
X146180285Y-105385000D01*
X145439372Y-105532377D01*
X144741446Y-105821467D01*
X144113330Y-106241161D01*
X143579161Y-106775330D01*
X143159467Y-107403446D01*
X142870377Y-108101372D01*
X142723000Y-108842285D01*
X133678184Y-108842285D01*
X133556917Y-108232632D01*
X133301748Y-107616601D01*
X132931302Y-107062188D01*
X132459812Y-106590698D01*
X131905399Y-106220252D01*
X131289368Y-105965083D01*
X130635393Y-105835000D01*
X129968607Y-105835000D01*
X129314632Y-105965083D01*
X128698601Y-106220252D01*
X128144188Y-106590698D01*
X127672698Y-107062188D01*
X127302252Y-107616601D01*
X127047083Y-108232632D01*
X126917000Y-108886607D01*
X73465000Y-108886607D01*
X73465000Y-104427872D01*
X74396800Y-104427872D01*
X74396800Y-104868128D01*
X74482690Y-105299925D01*
X74651169Y-105706669D01*
X74895762Y-106072729D01*
X75207071Y-106384038D01*
X75573131Y-106628631D01*
X75979875Y-106797110D01*
X76411672Y-106883000D01*
X76851928Y-106883000D01*
X77283725Y-106797110D01*
X77690469Y-106628631D01*
X78056529Y-106384038D01*
X78367838Y-106072729D01*
X78612431Y-105706669D01*
X78780910Y-105299925D01*
X78866800Y-104868128D01*
X78866800Y-104427872D01*
X78844271Y-104314607D01*
X83406800Y-104314607D01*
X83406800Y-104981393D01*
X83536883Y-105635368D01*
X83792052Y-106251399D01*
X84162498Y-106805812D01*
X84633988Y-107277302D01*
X85188401Y-107647748D01*
X85804432Y-107902917D01*
X86458407Y-108033000D01*
X87125193Y-108033000D01*
X87779168Y-107902917D01*
X88395199Y-107647748D01*
X88949612Y-107277302D01*
X89421102Y-106805812D01*
X89791548Y-106251399D01*
X90046717Y-105635368D01*
X90176800Y-104981393D01*
X90176800Y-104427872D01*
X102082800Y-104427872D01*
X102082800Y-104868128D01*
X102168690Y-105299925D01*
X102337169Y-105706669D01*
X102581762Y-106072729D01*
X102893071Y-106384038D01*
X103259131Y-106628631D01*
X103665875Y-106797110D01*
X104097672Y-106883000D01*
X104537928Y-106883000D01*
X104969725Y-106797110D01*
X105376469Y-106628631D01*
X105742529Y-106384038D01*
X106053838Y-106072729D01*
X106298431Y-105706669D01*
X106466910Y-105299925D01*
X106552800Y-104868128D01*
X106552800Y-104427872D01*
X106530271Y-104314607D01*
X111092800Y-104314607D01*
X111092800Y-104981393D01*
X111222883Y-105635368D01*
X111478052Y-106251399D01*
X111848498Y-106805812D01*
X112319988Y-107277302D01*
X112874401Y-107647748D01*
X113490432Y-107902917D01*
X114144407Y-108033000D01*
X114811193Y-108033000D01*
X115465168Y-107902917D01*
X116081199Y-107647748D01*
X116635612Y-107277302D01*
X117107102Y-106805812D01*
X117477548Y-106251399D01*
X117732717Y-105635368D01*
X117862800Y-104981393D01*
X117862800Y-104314607D01*
X117732717Y-103660632D01*
X117477548Y-103044601D01*
X117107102Y-102490188D01*
X116635612Y-102018698D01*
X116081199Y-101648252D01*
X115465168Y-101393083D01*
X114811193Y-101263000D01*
X114144407Y-101263000D01*
X113490432Y-101393083D01*
X112874401Y-101648252D01*
X112319988Y-102018698D01*
X111848498Y-102490188D01*
X111478052Y-103044601D01*
X111222883Y-103660632D01*
X111092800Y-104314607D01*
X106530271Y-104314607D01*
X106466910Y-103996075D01*
X106298431Y-103589331D01*
X106053838Y-103223271D01*
X105742529Y-102911962D01*
X105376469Y-102667369D01*
X104969725Y-102498890D01*
X104537928Y-102413000D01*
X104097672Y-102413000D01*
X103665875Y-102498890D01*
X103259131Y-102667369D01*
X102893071Y-102911962D01*
X102581762Y-103223271D01*
X102337169Y-103589331D01*
X102168690Y-103996075D01*
X102082800Y-104427872D01*
X90176800Y-104427872D01*
X90176800Y-104314607D01*
X90046717Y-103660632D01*
X89791548Y-103044601D01*
X89421102Y-102490188D01*
X88949612Y-102018698D01*
X88395199Y-101648252D01*
X87779168Y-101393083D01*
X87125193Y-101263000D01*
X86458407Y-101263000D01*
X85804432Y-101393083D01*
X85188401Y-101648252D01*
X84633988Y-102018698D01*
X84162498Y-102490188D01*
X83792052Y-103044601D01*
X83536883Y-103660632D01*
X83406800Y-104314607D01*
X78844271Y-104314607D01*
X78780910Y-103996075D01*
X78612431Y-103589331D01*
X78367838Y-103223271D01*
X78056529Y-102911962D01*
X77690469Y-102667369D01*
X77283725Y-102498890D01*
X76851928Y-102413000D01*
X76411672Y-102413000D01*
X75979875Y-102498890D01*
X75573131Y-102667369D01*
X75207071Y-102911962D01*
X74895762Y-103223271D01*
X74651169Y-103589331D01*
X74482690Y-103996075D01*
X74396800Y-104427872D01*
X73465000Y-104427872D01*
X73465000Y-94267872D01*
X74396800Y-94267872D01*
X74396800Y-94708128D01*
X74482690Y-95139925D01*
X74651169Y-95546669D01*
X74895762Y-95912729D01*
X75207071Y-96224038D01*
X75573131Y-96468631D01*
X75979875Y-96637110D01*
X76411672Y-96723000D01*
X76851928Y-96723000D01*
X77283725Y-96637110D01*
X77690469Y-96468631D01*
X78056529Y-96224038D01*
X78367838Y-95912729D01*
X78612431Y-95546669D01*
X78780910Y-95139925D01*
X78866800Y-94708128D01*
X78866800Y-94267872D01*
X78844271Y-94154607D01*
X83406800Y-94154607D01*
X83406800Y-94821393D01*
X83536883Y-95475368D01*
X83792052Y-96091399D01*
X84162498Y-96645812D01*
X84633988Y-97117302D01*
X85188401Y-97487748D01*
X85804432Y-97742917D01*
X86458407Y-97873000D01*
X87125193Y-97873000D01*
X87779168Y-97742917D01*
X88395199Y-97487748D01*
X88949612Y-97117302D01*
X89421102Y-96645812D01*
X89791548Y-96091399D01*
X90046717Y-95475368D01*
X90176800Y-94821393D01*
X90176800Y-94267872D01*
X102082800Y-94267872D01*
X102082800Y-94708128D01*
X102168690Y-95139925D01*
X102337169Y-95546669D01*
X102581762Y-95912729D01*
X102893071Y-96224038D01*
X103259131Y-96468631D01*
X103665875Y-96637110D01*
X104097672Y-96723000D01*
X104537928Y-96723000D01*
X104969725Y-96637110D01*
X105376469Y-96468631D01*
X105742529Y-96224038D01*
X106053838Y-95912729D01*
X106298431Y-95546669D01*
X106466910Y-95139925D01*
X106552800Y-94708128D01*
X106552800Y-94267872D01*
X106530271Y-94154607D01*
X111092800Y-94154607D01*
X111092800Y-94821393D01*
X111222883Y-95475368D01*
X111478052Y-96091399D01*
X111848498Y-96645812D01*
X112319988Y-97117302D01*
X112874401Y-97487748D01*
X113490432Y-97742917D01*
X114144407Y-97873000D01*
X114811193Y-97873000D01*
X115465168Y-97742917D01*
X116081199Y-97487748D01*
X116635612Y-97117302D01*
X117107102Y-96645812D01*
X117413932Y-96186607D01*
X135045000Y-96186607D01*
X135045000Y-96853393D01*
X135175083Y-97507368D01*
X135430252Y-98123399D01*
X135800698Y-98677812D01*
X136272188Y-99149302D01*
X136826601Y-99519748D01*
X137442632Y-99774917D01*
X138096607Y-99905000D01*
X138763393Y-99905000D01*
X139417368Y-99774917D01*
X140033399Y-99519748D01*
X140587812Y-99149302D01*
X141059302Y-98677812D01*
X141429748Y-98123399D01*
X141684917Y-97507368D01*
X141815000Y-96853393D01*
X141815000Y-96186607D01*
X141684917Y-95532632D01*
X141429748Y-94916601D01*
X141059302Y-94362188D01*
X140587812Y-93890698D01*
X140033399Y-93520252D01*
X139417368Y-93265083D01*
X138763393Y-93135000D01*
X138096607Y-93135000D01*
X137442632Y-93265083D01*
X136826601Y-93520252D01*
X136272188Y-93890698D01*
X135800698Y-94362188D01*
X135430252Y-94916601D01*
X135175083Y-95532632D01*
X135045000Y-96186607D01*
X117413932Y-96186607D01*
X117477548Y-96091399D01*
X117732717Y-95475368D01*
X117862800Y-94821393D01*
X117862800Y-94154607D01*
X117732717Y-93500632D01*
X117477548Y-92884601D01*
X117107102Y-92330188D01*
X116635612Y-91858698D01*
X116081199Y-91488252D01*
X115465168Y-91233083D01*
X114811193Y-91103000D01*
X114144407Y-91103000D01*
X113490432Y-91233083D01*
X112874401Y-91488252D01*
X112319988Y-91858698D01*
X111848498Y-92330188D01*
X111478052Y-92884601D01*
X111222883Y-93500632D01*
X111092800Y-94154607D01*
X106530271Y-94154607D01*
X106466910Y-93836075D01*
X106298431Y-93429331D01*
X106053838Y-93063271D01*
X105742529Y-92751962D01*
X105376469Y-92507369D01*
X104969725Y-92338890D01*
X104537928Y-92253000D01*
X104097672Y-92253000D01*
X103665875Y-92338890D01*
X103259131Y-92507369D01*
X102893071Y-92751962D01*
X102581762Y-93063271D01*
X102337169Y-93429331D01*
X102168690Y-93836075D01*
X102082800Y-94267872D01*
X90176800Y-94267872D01*
X90176800Y-94154607D01*
X90046717Y-93500632D01*
X89791548Y-92884601D01*
X89421102Y-92330188D01*
X88949612Y-91858698D01*
X88395199Y-91488252D01*
X87779168Y-91233083D01*
X87125193Y-91103000D01*
X86458407Y-91103000D01*
X85804432Y-91233083D01*
X85188401Y-91488252D01*
X84633988Y-91858698D01*
X84162498Y-92330188D01*
X83792052Y-92884601D01*
X83536883Y-93500632D01*
X83406800Y-94154607D01*
X78844271Y-94154607D01*
X78780910Y-93836075D01*
X78612431Y-93429331D01*
X78367838Y-93063271D01*
X78056529Y-92751962D01*
X77690469Y-92507369D01*
X77283725Y-92338890D01*
X76851928Y-92253000D01*
X76411672Y-92253000D01*
X75979875Y-92338890D01*
X75573131Y-92507369D01*
X75207071Y-92751962D01*
X74895762Y-93063271D01*
X74651169Y-93429331D01*
X74482690Y-93836075D01*
X74396800Y-94267872D01*
X73465000Y-94267872D01*
X73465000Y-84107872D01*
X74396800Y-84107872D01*
X74396800Y-84548128D01*
X74482690Y-84979925D01*
X74651169Y-85386669D01*
X74895762Y-85752729D01*
X75207071Y-86064038D01*
X75573131Y-86308631D01*
X75979875Y-86477110D01*
X76411672Y-86563000D01*
X76851928Y-86563000D01*
X77283725Y-86477110D01*
X77690469Y-86308631D01*
X78056529Y-86064038D01*
X78367838Y-85752729D01*
X78612431Y-85386669D01*
X78780910Y-84979925D01*
X78866800Y-84548128D01*
X78866800Y-84107872D01*
X78844271Y-83994607D01*
X83406800Y-83994607D01*
X83406800Y-84661393D01*
X83536883Y-85315368D01*
X83792052Y-85931399D01*
X84162498Y-86485812D01*
X84633988Y-86957302D01*
X85188401Y-87327748D01*
X85804432Y-87582917D01*
X86458407Y-87713000D01*
X87125193Y-87713000D01*
X87779168Y-87582917D01*
X88395199Y-87327748D01*
X88949612Y-86957302D01*
X89421102Y-86485812D01*
X89791548Y-85931399D01*
X90046717Y-85315368D01*
X90176800Y-84661393D01*
X90176800Y-84107872D01*
X102082800Y-84107872D01*
X102082800Y-84548128D01*
X102168690Y-84979925D01*
X102337169Y-85386669D01*
X102581762Y-85752729D01*
X102893071Y-86064038D01*
X103259131Y-86308631D01*
X103665875Y-86477110D01*
X104097672Y-86563000D01*
X104537928Y-86563000D01*
X104969725Y-86477110D01*
X105376469Y-86308631D01*
X105742529Y-86064038D01*
X106053838Y-85752729D01*
X106298431Y-85386669D01*
X106466910Y-84979925D01*
X106552800Y-84548128D01*
X106552800Y-84107872D01*
X106530271Y-83994607D01*
X111092800Y-83994607D01*
X111092800Y-84661393D01*
X111222883Y-85315368D01*
X111478052Y-85931399D01*
X111848498Y-86485812D01*
X112319988Y-86957302D01*
X112874401Y-87327748D01*
X113490432Y-87582917D01*
X114144407Y-87713000D01*
X114811193Y-87713000D01*
X115465168Y-87582917D01*
X116081199Y-87327748D01*
X116635612Y-86957302D01*
X117107102Y-86485812D01*
X117477548Y-85931399D01*
X117732717Y-85315368D01*
X117862800Y-84661393D01*
X117862800Y-83994607D01*
X117732717Y-83340632D01*
X117477548Y-82724601D01*
X117107102Y-82170188D01*
X117064878Y-82127964D01*
X126017000Y-82127964D01*
X126017000Y-82972036D01*
X126181670Y-83799888D01*
X126504683Y-84579708D01*
X126973623Y-85281528D01*
X127570472Y-85878377D01*
X128272292Y-86347317D01*
X129052112Y-86670330D01*
X129879964Y-86835000D01*
X130724036Y-86835000D01*
X131551888Y-86670330D01*
X132331708Y-86347317D01*
X133033528Y-85878377D01*
X133630377Y-85281528D01*
X134099317Y-84579708D01*
X134422330Y-83799888D01*
X134587000Y-82972036D01*
X134587000Y-82127964D01*
X142273000Y-82127964D01*
X142273000Y-82972036D01*
X142437670Y-83799888D01*
X142760683Y-84579708D01*
X143229623Y-85281528D01*
X143826472Y-85878377D01*
X144528292Y-86347317D01*
X145308112Y-86670330D01*
X146135964Y-86835000D01*
X146980036Y-86835000D01*
X147807888Y-86670330D01*
X148587708Y-86347317D01*
X149289528Y-85878377D01*
X149886377Y-85281528D01*
X150355317Y-84579708D01*
X150678330Y-83799888D01*
X150843000Y-82972036D01*
X150843000Y-82127964D01*
X150678330Y-81300112D01*
X150355317Y-80520292D01*
X149886377Y-79818472D01*
X149289528Y-79221623D01*
X148587708Y-78752683D01*
X147807888Y-78429670D01*
X146980036Y-78265000D01*
X146135964Y-78265000D01*
X145308112Y-78429670D01*
X144528292Y-78752683D01*
X143826472Y-79221623D01*
X143229623Y-79818472D01*
X142760683Y-80520292D01*
X142437670Y-81300112D01*
X142273000Y-82127964D01*
X134587000Y-82127964D01*
X134422330Y-81300112D01*
X134099317Y-80520292D01*
X133630377Y-79818472D01*
X133033528Y-79221623D01*
X132331708Y-78752683D01*
X131551888Y-78429670D01*
X130724036Y-78265000D01*
X129879964Y-78265000D01*
X129052112Y-78429670D01*
X128272292Y-78752683D01*
X127570472Y-79221623D01*
X126973623Y-79818472D01*
X126504683Y-80520292D01*
X126181670Y-81300112D01*
X126017000Y-82127964D01*
X117064878Y-82127964D01*
X116635612Y-81698698D01*
X116081199Y-81328252D01*
X115465168Y-81073083D01*
X114811193Y-80943000D01*
X114144407Y-80943000D01*
X113490432Y-81073083D01*
X112874401Y-81328252D01*
X112319988Y-81698698D01*
X111848498Y-82170188D01*
X111478052Y-82724601D01*
X111222883Y-83340632D01*
X111092800Y-83994607D01*
X106530271Y-83994607D01*
X106466910Y-83676075D01*
X106298431Y-83269331D01*
X106053838Y-82903271D01*
X105742529Y-82591962D01*
X105376469Y-82347369D01*
X104969725Y-82178890D01*
X104537928Y-82093000D01*
X104097672Y-82093000D01*
X103665875Y-82178890D01*
X103259131Y-82347369D01*
X102893071Y-82591962D01*
X102581762Y-82903271D01*
X102337169Y-83269331D01*
X102168690Y-83676075D01*
X102082800Y-84107872D01*
X90176800Y-84107872D01*
X90176800Y-83994607D01*
X90046717Y-83340632D01*
X89791548Y-82724601D01*
X89421102Y-82170188D01*
X88949612Y-81698698D01*
X88395199Y-81328252D01*
X87779168Y-81073083D01*
X87125193Y-80943000D01*
X86458407Y-80943000D01*
X85804432Y-81073083D01*
X85188401Y-81328252D01*
X84633988Y-81698698D01*
X84162498Y-82170188D01*
X83792052Y-82724601D01*
X83536883Y-83340632D01*
X83406800Y-83994607D01*
X78844271Y-83994607D01*
X78780910Y-83676075D01*
X78612431Y-83269331D01*
X78367838Y-82903271D01*
X78056529Y-82591962D01*
X77690469Y-82347369D01*
X77283725Y-82178890D01*
X76851928Y-82093000D01*
X76411672Y-82093000D01*
X75979875Y-82178890D01*
X75573131Y-82347369D01*
X75207071Y-82591962D01*
X74895762Y-82903271D01*
X74651169Y-83269331D01*
X74482690Y-83676075D01*
X74396800Y-84107872D01*
X73465000Y-84107872D01*
X73465000Y-73947872D01*
X74396800Y-73947872D01*
X74396800Y-74388128D01*
X74482690Y-74819925D01*
X74651169Y-75226669D01*
X74895762Y-75592729D01*
X75207071Y-75904038D01*
X75573131Y-76148631D01*
X75979875Y-76317110D01*
X76411672Y-76403000D01*
X76851928Y-76403000D01*
X77283725Y-76317110D01*
X77690469Y-76148631D01*
X78056529Y-75904038D01*
X78367838Y-75592729D01*
X78612431Y-75226669D01*
X78780910Y-74819925D01*
X78866800Y-74388128D01*
X78866800Y-73947872D01*
X78844271Y-73834607D01*
X83406800Y-73834607D01*
X83406800Y-74501393D01*
X83536883Y-75155368D01*
X83792052Y-75771399D01*
X84162498Y-76325812D01*
X84633988Y-76797302D01*
X85188401Y-77167748D01*
X85804432Y-77422917D01*
X86458407Y-77553000D01*
X87125193Y-77553000D01*
X87779168Y-77422917D01*
X88395199Y-77167748D01*
X88949612Y-76797302D01*
X89421102Y-76325812D01*
X89791548Y-75771399D01*
X90046717Y-75155368D01*
X90176800Y-74501393D01*
X90176800Y-73947872D01*
X102082800Y-73947872D01*
X102082800Y-74388128D01*
X102168690Y-74819925D01*
X102337169Y-75226669D01*
X102581762Y-75592729D01*
X102893071Y-75904038D01*
X103259131Y-76148631D01*
X103665875Y-76317110D01*
X104097672Y-76403000D01*
X104537928Y-76403000D01*
X104969725Y-76317110D01*
X105376469Y-76148631D01*
X105742529Y-75904038D01*
X106053838Y-75592729D01*
X106298431Y-75226669D01*
X106466910Y-74819925D01*
X106552800Y-74388128D01*
X106552800Y-73947872D01*
X106530271Y-73834607D01*
X111092800Y-73834607D01*
X111092800Y-74501393D01*
X111222883Y-75155368D01*
X111478052Y-75771399D01*
X111848498Y-76325812D01*
X112319988Y-76797302D01*
X112874401Y-77167748D01*
X113490432Y-77422917D01*
X114144407Y-77553000D01*
X114811193Y-77553000D01*
X115465168Y-77422917D01*
X116081199Y-77167748D01*
X116635612Y-76797302D01*
X117107102Y-76325812D01*
X117477548Y-75771399D01*
X117732717Y-75155368D01*
X117862800Y-74501393D01*
X117862800Y-73834607D01*
X117732717Y-73180632D01*
X117477548Y-72564601D01*
X117107102Y-72010188D01*
X116635612Y-71538698D01*
X116081199Y-71168252D01*
X115465168Y-70913083D01*
X114811193Y-70783000D01*
X114144407Y-70783000D01*
X113490432Y-70913083D01*
X112874401Y-71168252D01*
X112319988Y-71538698D01*
X111848498Y-72010188D01*
X111478052Y-72564601D01*
X111222883Y-73180632D01*
X111092800Y-73834607D01*
X106530271Y-73834607D01*
X106466910Y-73516075D01*
X106298431Y-73109331D01*
X106053838Y-72743271D01*
X105742529Y-72431962D01*
X105376469Y-72187369D01*
X104969725Y-72018890D01*
X104537928Y-71933000D01*
X104097672Y-71933000D01*
X103665875Y-72018890D01*
X103259131Y-72187369D01*
X102893071Y-72431962D01*
X102581762Y-72743271D01*
X102337169Y-73109331D01*
X102168690Y-73516075D01*
X102082800Y-73947872D01*
X90176800Y-73947872D01*
X90176800Y-73834607D01*
X90046717Y-73180632D01*
X89791548Y-72564601D01*
X89421102Y-72010188D01*
X88949612Y-71538698D01*
X88395199Y-71168252D01*
X87779168Y-70913083D01*
X87125193Y-70783000D01*
X86458407Y-70783000D01*
X85804432Y-70913083D01*
X85188401Y-71168252D01*
X84633988Y-71538698D01*
X84162498Y-72010188D01*
X83792052Y-72564601D01*
X83536883Y-73180632D01*
X83406800Y-73834607D01*
X78844271Y-73834607D01*
X78780910Y-73516075D01*
X78612431Y-73109331D01*
X78367838Y-72743271D01*
X78056529Y-72431962D01*
X77690469Y-72187369D01*
X77283725Y-72018890D01*
X76851928Y-71933000D01*
X76411672Y-71933000D01*
X75979875Y-72018890D01*
X75573131Y-72187369D01*
X75207071Y-72431962D01*
X74895762Y-72743271D01*
X74651169Y-73109331D01*
X74482690Y-73516075D01*
X74396800Y-73947872D01*
X73465000Y-73947872D01*
X73465000Y-63787872D01*
X74396800Y-63787872D01*
X74396800Y-64228128D01*
X74482690Y-64659925D01*
X74651169Y-65066669D01*
X74895762Y-65432729D01*
X75207071Y-65744038D01*
X75573131Y-65988631D01*
X75979875Y-66157110D01*
X76411672Y-66243000D01*
X76851928Y-66243000D01*
X77283725Y-66157110D01*
X77690469Y-65988631D01*
X78056529Y-65744038D01*
X78367838Y-65432729D01*
X78612431Y-65066669D01*
X78780910Y-64659925D01*
X78866800Y-64228128D01*
X78866800Y-63787872D01*
X78844271Y-63674607D01*
X83406800Y-63674607D01*
X83406800Y-64341393D01*
X83536883Y-64995368D01*
X83792052Y-65611399D01*
X84162498Y-66165812D01*
X84633988Y-66637302D01*
X85188401Y-67007748D01*
X85804432Y-67262917D01*
X86458407Y-67393000D01*
X87125193Y-67393000D01*
X87779168Y-67262917D01*
X88395199Y-67007748D01*
X88949612Y-66637302D01*
X89421102Y-66165812D01*
X89791548Y-65611399D01*
X90046717Y-64995368D01*
X90176800Y-64341393D01*
X90176800Y-63787872D01*
X102082800Y-63787872D01*
X102082800Y-64228128D01*
X102168690Y-64659925D01*
X102337169Y-65066669D01*
X102581762Y-65432729D01*
X102893071Y-65744038D01*
X103259131Y-65988631D01*
X103665875Y-66157110D01*
X104097672Y-66243000D01*
X104537928Y-66243000D01*
X104969725Y-66157110D01*
X105376469Y-65988631D01*
X105742529Y-65744038D01*
X106053838Y-65432729D01*
X106298431Y-65066669D01*
X106466910Y-64659925D01*
X106552800Y-64228128D01*
X106552800Y-63787872D01*
X106530271Y-63674607D01*
X111092800Y-63674607D01*
X111092800Y-64341393D01*
X111222883Y-64995368D01*
X111478052Y-65611399D01*
X111848498Y-66165812D01*
X112319988Y-66637302D01*
X112874401Y-67007748D01*
X113490432Y-67262917D01*
X114144407Y-67393000D01*
X114811193Y-67393000D01*
X115465168Y-67262917D01*
X116081199Y-67007748D01*
X116635612Y-66637302D01*
X117107102Y-66165812D01*
X117477548Y-65611399D01*
X117732717Y-64995368D01*
X117862800Y-64341393D01*
X117862800Y-63674607D01*
X117744121Y-63077964D01*
X126017000Y-63077964D01*
X126017000Y-63922036D01*
X126181670Y-64749888D01*
X126504683Y-65529708D01*
X126973623Y-66231528D01*
X127570472Y-66828377D01*
X128272292Y-67297317D01*
X129052112Y-67620330D01*
X129879964Y-67785000D01*
X130724036Y-67785000D01*
X131551888Y-67620330D01*
X132331708Y-67297317D01*
X133033528Y-66828377D01*
X133630377Y-66231528D01*
X134099317Y-65529708D01*
X134422330Y-64749888D01*
X134587000Y-63922036D01*
X134587000Y-63077964D01*
X134581948Y-63052564D01*
X142273000Y-63052564D01*
X142273000Y-63896636D01*
X142437670Y-64724488D01*
X142760683Y-65504308D01*
X143229623Y-66206128D01*
X143826472Y-66802977D01*
X144528292Y-67271917D01*
X145308112Y-67594930D01*
X146135964Y-67759600D01*
X146980036Y-67759600D01*
X147807888Y-67594930D01*
X148587708Y-67271917D01*
X149289528Y-66802977D01*
X149886377Y-66206128D01*
X150355317Y-65504308D01*
X150678330Y-64724488D01*
X150843000Y-63896636D01*
X150843000Y-63052564D01*
X150678330Y-62224712D01*
X150355317Y-61444892D01*
X149886377Y-60743072D01*
X149289528Y-60146223D01*
X148587708Y-59677283D01*
X147807888Y-59354270D01*
X146980036Y-59189600D01*
X146135964Y-59189600D01*
X145308112Y-59354270D01*
X144528292Y-59677283D01*
X143826472Y-60146223D01*
X143229623Y-60743072D01*
X142760683Y-61444892D01*
X142437670Y-62224712D01*
X142273000Y-63052564D01*
X134581948Y-63052564D01*
X134422330Y-62250112D01*
X134099317Y-61470292D01*
X133630377Y-60768472D01*
X133033528Y-60171623D01*
X132331708Y-59702683D01*
X131551888Y-59379670D01*
X130724036Y-59215000D01*
X129879964Y-59215000D01*
X129052112Y-59379670D01*
X128272292Y-59702683D01*
X127570472Y-60171623D01*
X126973623Y-60768472D01*
X126504683Y-61470292D01*
X126181670Y-62250112D01*
X126017000Y-63077964D01*
X117744121Y-63077964D01*
X117732717Y-63020632D01*
X117477548Y-62404601D01*
X117107102Y-61850188D01*
X116635612Y-61378698D01*
X116081199Y-61008252D01*
X115465168Y-60753083D01*
X114811193Y-60623000D01*
X114144407Y-60623000D01*
X113490432Y-60753083D01*
X112874401Y-61008252D01*
X112319988Y-61378698D01*
X111848498Y-61850188D01*
X111478052Y-62404601D01*
X111222883Y-63020632D01*
X111092800Y-63674607D01*
X106530271Y-63674607D01*
X106466910Y-63356075D01*
X106298431Y-62949331D01*
X106053838Y-62583271D01*
X105742529Y-62271962D01*
X105376469Y-62027369D01*
X104969725Y-61858890D01*
X104537928Y-61773000D01*
X104097672Y-61773000D01*
X103665875Y-61858890D01*
X103259131Y-62027369D01*
X102893071Y-62271962D01*
X102581762Y-62583271D01*
X102337169Y-62949331D01*
X102168690Y-63356075D01*
X102082800Y-63787872D01*
X90176800Y-63787872D01*
X90176800Y-63674607D01*
X90046717Y-63020632D01*
X89791548Y-62404601D01*
X89421102Y-61850188D01*
X88949612Y-61378698D01*
X88395199Y-61008252D01*
X87779168Y-60753083D01*
X87125193Y-60623000D01*
X86458407Y-60623000D01*
X85804432Y-60753083D01*
X85188401Y-61008252D01*
X84633988Y-61378698D01*
X84162498Y-61850188D01*
X83792052Y-62404601D01*
X83536883Y-63020632D01*
X83406800Y-63674607D01*
X78844271Y-63674607D01*
X78780910Y-63356075D01*
X78612431Y-62949331D01*
X78367838Y-62583271D01*
X78056529Y-62271962D01*
X77690469Y-62027369D01*
X77283725Y-61858890D01*
X76851928Y-61773000D01*
X76411672Y-61773000D01*
X75979875Y-61858890D01*
X75573131Y-62027369D01*
X75207071Y-62271962D01*
X74895762Y-62583271D01*
X74651169Y-62949331D01*
X74482690Y-63356075D01*
X74396800Y-63787872D01*
X73465000Y-63787872D01*
X73465000Y-44220000D01*
X75844186Y-44220000D01*
X75887339Y-44658137D01*
X76015138Y-45079436D01*
X76222674Y-45467707D01*
X76501970Y-45808030D01*
X76842293Y-46087326D01*
X77230564Y-46294862D01*
X77651863Y-46422661D01*
X77980204Y-46455000D01*
X81499796Y-46455000D01*
X81828137Y-46422661D01*
X82249436Y-46294862D01*
X82637707Y-46087326D01*
X82978030Y-45808030D01*
X83257326Y-45467707D01*
X83464862Y-45079436D01*
X83592661Y-44658137D01*
X83635814Y-44220000D01*
X83634830Y-44210000D01*
X142204186Y-44210000D01*
X142247339Y-44648137D01*
X142375138Y-45069436D01*
X142582674Y-45457707D01*
X142861970Y-45798030D01*
X143202293Y-46077326D01*
X143590564Y-46284862D01*
X144011863Y-46412661D01*
X144340204Y-46445000D01*
X147859796Y-46445000D01*
X148188137Y-46412661D01*
X148609436Y-46284862D01*
X148997707Y-46077326D01*
X149338030Y-45798030D01*
X149617326Y-45457707D01*
X149824862Y-45069436D01*
X149952661Y-44648137D01*
X149995814Y-44210000D01*
X149952661Y-43771863D01*
X149824862Y-43350564D01*
X149617326Y-42962293D01*
X149338030Y-42621970D01*
X148997707Y-42342674D01*
X148609436Y-42135138D01*
X148188137Y-42007339D01*
X147859796Y-41975000D01*
X144340204Y-41975000D01*
X144011863Y-42007339D01*
X143590564Y-42135138D01*
X143202293Y-42342674D01*
X142861970Y-42621970D01*
X142582674Y-42962293D01*
X142375138Y-43350564D01*
X142247339Y-43771863D01*
X142204186Y-44210000D01*
X83634830Y-44210000D01*
X83592661Y-43781863D01*
X83464862Y-43360564D01*
X83257326Y-42972293D01*
X82978030Y-42631970D01*
X82637707Y-42352674D01*
X82249436Y-42145138D01*
X81828137Y-42017339D01*
X81499796Y-41985000D01*
X77980204Y-41985000D01*
X77651863Y-42017339D01*
X77230564Y-42145138D01*
X76842293Y-42352674D01*
X76501970Y-42631970D01*
X76222674Y-42972293D01*
X76015138Y-43360564D01*
X75887339Y-43781863D01*
X75844186Y-44220000D01*
X73465000Y-44220000D01*
X73465000Y-41946500D01*
X152875001Y-41946500D01*
X152875000Y-168937000D01*
X152875000Y-168937000D01*
G37*
X152875000Y-168937000D02*
X73465000Y-168937000D01*
X73465000Y-166680000D01*
X76324186Y-166680000D01*
X76367339Y-167118137D01*
X76495138Y-167539436D01*
X76702674Y-167927707D01*
X76981970Y-168268030D01*
X77322293Y-168547326D01*
X77710564Y-168754862D01*
X78131863Y-168882661D01*
X78460204Y-168915000D01*
X81979796Y-168915000D01*
X82308137Y-168882661D01*
X82729436Y-168754862D01*
X83117707Y-168547326D01*
X83458030Y-168268030D01*
X83737326Y-167927707D01*
X83944862Y-167539436D01*
X84072661Y-167118137D01*
X84115814Y-166680000D01*
X84114830Y-166670000D01*
X142214186Y-166670000D01*
X142257339Y-167108137D01*
X142385138Y-167529436D01*
X142592674Y-167917707D01*
X142871970Y-168258030D01*
X143212293Y-168537326D01*
X143600564Y-168744862D01*
X144021863Y-168872661D01*
X144350204Y-168905000D01*
X147869796Y-168905000D01*
X148198137Y-168872661D01*
X148619436Y-168744862D01*
X149007707Y-168537326D01*
X149348030Y-168258030D01*
X149627326Y-167917707D01*
X149834862Y-167529436D01*
X149962661Y-167108137D01*
X150005814Y-166670000D01*
X149962661Y-166231863D01*
X149834862Y-165810564D01*
X149627326Y-165422293D01*
X149348030Y-165081970D01*
X149007707Y-164802674D01*
X148619436Y-164595138D01*
X148198137Y-164467339D01*
X147869796Y-164435000D01*
X144350204Y-164435000D01*
X144021863Y-164467339D01*
X143600564Y-164595138D01*
X143212293Y-164802674D01*
X142871970Y-165081970D01*
X142592674Y-165422293D01*
X142385138Y-165810564D01*
X142257339Y-166231863D01*
X142214186Y-166670000D01*
X84114830Y-166670000D01*
X84072661Y-166241863D01*
X83944862Y-165820564D01*
X83737326Y-165432293D01*
X83458030Y-165091970D01*
X83117707Y-164812674D01*
X82729436Y-164605138D01*
X82308137Y-164477339D01*
X81979796Y-164445000D01*
X78460204Y-164445000D01*
X78131863Y-164477339D01*
X77710564Y-164605138D01*
X77322293Y-164812674D01*
X76981970Y-165091970D01*
X76702674Y-165432293D01*
X76495138Y-165820564D01*
X76367339Y-166241863D01*
X76324186Y-166680000D01*
X73465000Y-166680000D01*
X73465000Y-149990285D01*
X82931400Y-149990285D01*
X82931400Y-150745715D01*
X83078777Y-151486628D01*
X83367867Y-152184554D01*
X83787561Y-152812670D01*
X84321730Y-153346839D01*
X84949846Y-153766533D01*
X85647772Y-154055623D01*
X86388685Y-154203000D01*
X87144115Y-154203000D01*
X87885028Y-154055623D01*
X88582954Y-153766533D01*
X89211070Y-153346839D01*
X89745239Y-152812670D01*
X90164933Y-152184554D01*
X90454023Y-151486628D01*
X90601400Y-150745715D01*
X90601400Y-149990285D01*
X110642800Y-149990285D01*
X110642800Y-150745715D01*
X110790177Y-151486628D01*
X111079267Y-152184554D01*
X111498961Y-152812670D01*
X112033130Y-153346839D01*
X112661246Y-153766533D01*
X113359172Y-154055623D01*
X114100085Y-154203000D01*
X114855515Y-154203000D01*
X115596428Y-154055623D01*
X116294354Y-153766533D01*
X116922470Y-153346839D01*
X117456639Y-152812670D01*
X117876333Y-152184554D01*
X118165423Y-151486628D01*
X118312800Y-150745715D01*
X118312800Y-149990285D01*
X118287539Y-149863285D01*
X126467000Y-149863285D01*
X126467000Y-150618715D01*
X126614377Y-151359628D01*
X126903467Y-152057554D01*
X127323161Y-152685670D01*
X127857330Y-153219839D01*
X128485446Y-153639533D01*
X129183372Y-153928623D01*
X129924285Y-154076000D01*
X130679715Y-154076000D01*
X131420628Y-153928623D01*
X132118554Y-153639533D01*
X132746670Y-153219839D01*
X133280839Y-152685670D01*
X133700533Y-152057554D01*
X133989623Y-151359628D01*
X134137000Y-150618715D01*
X134137000Y-149863285D01*
X142723000Y-149863285D01*
X142723000Y-150618715D01*
X142870377Y-151359628D01*
X143159467Y-152057554D01*
X143579161Y-152685670D01*
X144113330Y-153219839D01*
X144741446Y-153639533D01*
X145439372Y-153928623D01*
X146180285Y-154076000D01*
X146935715Y-154076000D01*
X147676628Y-153928623D01*
X148374554Y-153639533D01*
X149002670Y-153219839D01*
X149536839Y-152685670D01*
X149956533Y-152057554D01*
X150245623Y-151359628D01*
X150393000Y-150618715D01*
X150393000Y-149863285D01*
X150245623Y-149122372D01*
X149956533Y-148424446D01*
X149536839Y-147796330D01*
X149002670Y-147262161D01*
X148374554Y-146842467D01*
X147676628Y-146553377D01*
X146935715Y-146406000D01*
X146180285Y-146406000D01*
X145439372Y-146553377D01*
X144741446Y-146842467D01*
X144113330Y-147262161D01*
X143579161Y-147796330D01*
X143159467Y-148424446D01*
X142870377Y-149122372D01*
X142723000Y-149863285D01*
X134137000Y-149863285D01*
X133989623Y-149122372D01*
X133700533Y-148424446D01*
X133280839Y-147796330D01*
X132746670Y-147262161D01*
X132118554Y-146842467D01*
X131420628Y-146553377D01*
X130679715Y-146406000D01*
X129924285Y-146406000D01*
X129183372Y-146553377D01*
X128485446Y-146842467D01*
X127857330Y-147262161D01*
X127323161Y-147796330D01*
X126903467Y-148424446D01*
X126614377Y-149122372D01*
X126467000Y-149863285D01*
X118287539Y-149863285D01*
X118165423Y-149249372D01*
X117876333Y-148551446D01*
X117456639Y-147923330D01*
X116922470Y-147389161D01*
X116294354Y-146969467D01*
X115596428Y-146680377D01*
X114855515Y-146533000D01*
X114100085Y-146533000D01*
X113359172Y-146680377D01*
X112661246Y-146969467D01*
X112033130Y-147389161D01*
X111498961Y-147923330D01*
X111079267Y-148551446D01*
X110790177Y-149249372D01*
X110642800Y-149990285D01*
X90601400Y-149990285D01*
X90454023Y-149249372D01*
X90164933Y-148551446D01*
X89745239Y-147923330D01*
X89211070Y-147389161D01*
X88582954Y-146969467D01*
X87885028Y-146680377D01*
X87144115Y-146533000D01*
X86388685Y-146533000D01*
X85647772Y-146680377D01*
X84949846Y-146969467D01*
X84321730Y-147389161D01*
X83787561Y-147923330D01*
X83367867Y-148551446D01*
X83078777Y-149249372D01*
X82931400Y-149990285D01*
X73465000Y-149990285D01*
X73465000Y-134907872D01*
X74396800Y-134907872D01*
X74396800Y-135348128D01*
X74482690Y-135779925D01*
X74651169Y-136186669D01*
X74895762Y-136552729D01*
X75207071Y-136864038D01*
X75573131Y-137108631D01*
X75979875Y-137277110D01*
X76411672Y-137363000D01*
X76851928Y-137363000D01*
X77283725Y-137277110D01*
X77690469Y-137108631D01*
X78056529Y-136864038D01*
X78367838Y-136552729D01*
X78612431Y-136186669D01*
X78780910Y-135779925D01*
X78866800Y-135348128D01*
X78866800Y-134907872D01*
X78844271Y-134794607D01*
X83406800Y-134794607D01*
X83406800Y-135461393D01*
X83536883Y-136115368D01*
X83792052Y-136731399D01*
X84162498Y-137285812D01*
X84633988Y-137757302D01*
X85188401Y-138127748D01*
X85804432Y-138382917D01*
X86458407Y-138513000D01*
X87125193Y-138513000D01*
X87779168Y-138382917D01*
X88395199Y-138127748D01*
X88949612Y-137757302D01*
X89421102Y-137285812D01*
X89791548Y-136731399D01*
X90046717Y-136115368D01*
X90176800Y-135461393D01*
X90176800Y-134907872D01*
X102082800Y-134907872D01*
X102082800Y-135348128D01*
X102168690Y-135779925D01*
X102337169Y-136186669D01*
X102581762Y-136552729D01*
X102893071Y-136864038D01*
X103259131Y-137108631D01*
X103665875Y-137277110D01*
X104097672Y-137363000D01*
X104537928Y-137363000D01*
X104969725Y-137277110D01*
X105376469Y-137108631D01*
X105742529Y-136864038D01*
X106053838Y-136552729D01*
X106298431Y-136186669D01*
X106466910Y-135779925D01*
X106552800Y-135348128D01*
X106552800Y-134907872D01*
X106530271Y-134794607D01*
X111092800Y-134794607D01*
X111092800Y-135461393D01*
X111222883Y-136115368D01*
X111478052Y-136731399D01*
X111848498Y-137285812D01*
X112319988Y-137757302D01*
X112874401Y-138127748D01*
X113490432Y-138382917D01*
X114144407Y-138513000D01*
X114811193Y-138513000D01*
X115465168Y-138382917D01*
X116081199Y-138127748D01*
X116635612Y-137757302D01*
X117107102Y-137285812D01*
X117477548Y-136731399D01*
X117732717Y-136115368D01*
X117736370Y-136097001D01*
X124667000Y-136097001D01*
X124667000Y-137206999D01*
X124883550Y-138295669D01*
X125308328Y-139321173D01*
X125925010Y-140244103D01*
X126709897Y-141028990D01*
X127632827Y-141645672D01*
X128658331Y-142070450D01*
X129747001Y-142287000D01*
X130856999Y-142287000D01*
X131945669Y-142070450D01*
X132971173Y-141645672D01*
X133894103Y-141028990D01*
X134678990Y-140244103D01*
X135295672Y-139321173D01*
X135720450Y-138295669D01*
X135937000Y-137206999D01*
X135937000Y-136274285D01*
X142723000Y-136274285D01*
X142723000Y-137029715D01*
X142870377Y-137770628D01*
X143159467Y-138468554D01*
X143579161Y-139096670D01*
X144113330Y-139630839D01*
X144741446Y-140050533D01*
X145439372Y-140339623D01*
X146180285Y-140487000D01*
X146935715Y-140487000D01*
X147676628Y-140339623D01*
X148374554Y-140050533D01*
X149002670Y-139630839D01*
X149536839Y-139096670D01*
X149956533Y-138468554D01*
X150245623Y-137770628D01*
X150393000Y-137029715D01*
X150393000Y-136274285D01*
X150245623Y-135533372D01*
X149956533Y-134835446D01*
X149536839Y-134207330D01*
X149002670Y-133673161D01*
X148374554Y-133253467D01*
X147676628Y-132964377D01*
X146935715Y-132817000D01*
X146180285Y-132817000D01*
X145439372Y-132964377D01*
X144741446Y-133253467D01*
X144113330Y-133673161D01*
X143579161Y-134207330D01*
X143159467Y-134835446D01*
X142870377Y-135533372D01*
X142723000Y-136274285D01*
X135937000Y-136274285D01*
X135937000Y-136097001D01*
X135720450Y-135008331D01*
X135295672Y-133982827D01*
X134678990Y-133059897D01*
X133894103Y-132275010D01*
X132971173Y-131658328D01*
X131945669Y-131233550D01*
X130856999Y-131017000D01*
X129747001Y-131017000D01*
X128658331Y-131233550D01*
X127632827Y-131658328D01*
X126709897Y-132275010D01*
X125925010Y-133059897D01*
X125308328Y-133982827D01*
X124883550Y-135008331D01*
X124667000Y-136097001D01*
X117736370Y-136097001D01*
X117862800Y-135461393D01*
X117862800Y-134794607D01*
X117732717Y-134140632D01*
X117477548Y-133524601D01*
X117107102Y-132970188D01*
X116635612Y-132498698D01*
X116081199Y-132128252D01*
X115465168Y-131873083D01*
X114811193Y-131743000D01*
X114144407Y-131743000D01*
X113490432Y-131873083D01*
X112874401Y-132128252D01*
X112319988Y-132498698D01*
X111848498Y-132970188D01*
X111478052Y-133524601D01*
X111222883Y-134140632D01*
X111092800Y-134794607D01*
X106530271Y-134794607D01*
X106466910Y-134476075D01*
X106298431Y-134069331D01*
X106053838Y-133703271D01*
X105742529Y-133391962D01*
X105376469Y-133147369D01*
X104969725Y-132978890D01*
X104537928Y-132893000D01*
X104097672Y-132893000D01*
X103665875Y-132978890D01*
X103259131Y-133147369D01*
X102893071Y-133391962D01*
X102581762Y-133703271D01*
X102337169Y-134069331D01*
X102168690Y-134476075D01*
X102082800Y-134907872D01*
X90176800Y-134907872D01*
X90176800Y-134794607D01*
X90046717Y-134140632D01*
X89791548Y-133524601D01*
X89421102Y-132970188D01*
X88949612Y-132498698D01*
X88395199Y-132128252D01*
X87779168Y-131873083D01*
X87125193Y-131743000D01*
X86458407Y-131743000D01*
X85804432Y-131873083D01*
X85188401Y-132128252D01*
X84633988Y-132498698D01*
X84162498Y-132970188D01*
X83792052Y-133524601D01*
X83536883Y-134140632D01*
X83406800Y-134794607D01*
X78844271Y-134794607D01*
X78780910Y-134476075D01*
X78612431Y-134069331D01*
X78367838Y-133703271D01*
X78056529Y-133391962D01*
X77690469Y-133147369D01*
X77283725Y-132978890D01*
X76851928Y-132893000D01*
X76411672Y-132893000D01*
X75979875Y-132978890D01*
X75573131Y-133147369D01*
X75207071Y-133391962D01*
X74895762Y-133703271D01*
X74651169Y-134069331D01*
X74482690Y-134476075D01*
X74396800Y-134907872D01*
X73465000Y-134907872D01*
X73465000Y-124747872D01*
X74396800Y-124747872D01*
X74396800Y-125188128D01*
X74482690Y-125619925D01*
X74651169Y-126026669D01*
X74895762Y-126392729D01*
X75207071Y-126704038D01*
X75573131Y-126948631D01*
X75979875Y-127117110D01*
X76411672Y-127203000D01*
X76851928Y-127203000D01*
X77283725Y-127117110D01*
X77690469Y-126948631D01*
X78056529Y-126704038D01*
X78367838Y-126392729D01*
X78612431Y-126026669D01*
X78780910Y-125619925D01*
X78866800Y-125188128D01*
X78866800Y-124747872D01*
X78844271Y-124634607D01*
X83406800Y-124634607D01*
X83406800Y-125301393D01*
X83536883Y-125955368D01*
X83792052Y-126571399D01*
X84162498Y-127125812D01*
X84633988Y-127597302D01*
X85188401Y-127967748D01*
X85804432Y-128222917D01*
X86458407Y-128353000D01*
X87125193Y-128353000D01*
X87779168Y-128222917D01*
X88395199Y-127967748D01*
X88949612Y-127597302D01*
X89421102Y-127125812D01*
X89791548Y-126571399D01*
X90046717Y-125955368D01*
X90176800Y-125301393D01*
X90176800Y-124747872D01*
X102082800Y-124747872D01*
X102082800Y-125188128D01*
X102168690Y-125619925D01*
X102337169Y-126026669D01*
X102581762Y-126392729D01*
X102893071Y-126704038D01*
X103259131Y-126948631D01*
X103665875Y-127117110D01*
X104097672Y-127203000D01*
X104537928Y-127203000D01*
X104969725Y-127117110D01*
X105376469Y-126948631D01*
X105742529Y-126704038D01*
X106053838Y-126392729D01*
X106298431Y-126026669D01*
X106466910Y-125619925D01*
X106552800Y-125188128D01*
X106552800Y-124747872D01*
X106530271Y-124634607D01*
X111092800Y-124634607D01*
X111092800Y-125301393D01*
X111222883Y-125955368D01*
X111478052Y-126571399D01*
X111848498Y-127125812D01*
X112319988Y-127597302D01*
X112874401Y-127967748D01*
X113490432Y-128222917D01*
X114144407Y-128353000D01*
X114811193Y-128353000D01*
X115465168Y-128222917D01*
X116081199Y-127967748D01*
X116635612Y-127597302D01*
X117107102Y-127125812D01*
X117477548Y-126571399D01*
X117732717Y-125955368D01*
X117862800Y-125301393D01*
X117862800Y-124634607D01*
X117732717Y-123980632D01*
X117477548Y-123364601D01*
X117107102Y-122810188D01*
X116899521Y-122602607D01*
X126917000Y-122602607D01*
X126917000Y-123269393D01*
X127047083Y-123923368D01*
X127302252Y-124539399D01*
X127672698Y-125093812D01*
X128144188Y-125565302D01*
X128698601Y-125935748D01*
X129314632Y-126190917D01*
X129968607Y-126321000D01*
X130635393Y-126321000D01*
X131289368Y-126190917D01*
X131905399Y-125935748D01*
X132459812Y-125565302D01*
X132931302Y-125093812D01*
X133301748Y-124539399D01*
X133556917Y-123923368D01*
X133687000Y-123269393D01*
X133687000Y-122602607D01*
X133678184Y-122558285D01*
X142723000Y-122558285D01*
X142723000Y-123313715D01*
X142870377Y-124054628D01*
X143159467Y-124752554D01*
X143579161Y-125380670D01*
X144113330Y-125914839D01*
X144741446Y-126334533D01*
X145439372Y-126623623D01*
X146180285Y-126771000D01*
X146935715Y-126771000D01*
X147676628Y-126623623D01*
X148374554Y-126334533D01*
X149002670Y-125914839D01*
X149536839Y-125380670D01*
X149956533Y-124752554D01*
X150245623Y-124054628D01*
X150393000Y-123313715D01*
X150393000Y-122558285D01*
X150245623Y-121817372D01*
X149956533Y-121119446D01*
X149536839Y-120491330D01*
X149002670Y-119957161D01*
X148374554Y-119537467D01*
X147676628Y-119248377D01*
X146935715Y-119101000D01*
X146180285Y-119101000D01*
X145439372Y-119248377D01*
X144741446Y-119537467D01*
X144113330Y-119957161D01*
X143579161Y-120491330D01*
X143159467Y-121119446D01*
X142870377Y-121817372D01*
X142723000Y-122558285D01*
X133678184Y-122558285D01*
X133556917Y-121948632D01*
X133301748Y-121332601D01*
X132931302Y-120778188D01*
X132459812Y-120306698D01*
X131905399Y-119936252D01*
X131289368Y-119681083D01*
X130635393Y-119551000D01*
X129968607Y-119551000D01*
X129314632Y-119681083D01*
X128698601Y-119936252D01*
X128144188Y-120306698D01*
X127672698Y-120778188D01*
X127302252Y-121332601D01*
X127047083Y-121948632D01*
X126917000Y-122602607D01*
X116899521Y-122602607D01*
X116635612Y-122338698D01*
X116081199Y-121968252D01*
X115465168Y-121713083D01*
X114811193Y-121583000D01*
X114144407Y-121583000D01*
X113490432Y-121713083D01*
X112874401Y-121968252D01*
X112319988Y-122338698D01*
X111848498Y-122810188D01*
X111478052Y-123364601D01*
X111222883Y-123980632D01*
X111092800Y-124634607D01*
X106530271Y-124634607D01*
X106466910Y-124316075D01*
X106298431Y-123909331D01*
X106053838Y-123543271D01*
X105742529Y-123231962D01*
X105376469Y-122987369D01*
X104969725Y-122818890D01*
X104537928Y-122733000D01*
X104097672Y-122733000D01*
X103665875Y-122818890D01*
X103259131Y-122987369D01*
X102893071Y-123231962D01*
X102581762Y-123543271D01*
X102337169Y-123909331D01*
X102168690Y-124316075D01*
X102082800Y-124747872D01*
X90176800Y-124747872D01*
X90176800Y-124634607D01*
X90046717Y-123980632D01*
X89791548Y-123364601D01*
X89421102Y-122810188D01*
X88949612Y-122338698D01*
X88395199Y-121968252D01*
X87779168Y-121713083D01*
X87125193Y-121583000D01*
X86458407Y-121583000D01*
X85804432Y-121713083D01*
X85188401Y-121968252D01*
X84633988Y-122338698D01*
X84162498Y-122810188D01*
X83792052Y-123364601D01*
X83536883Y-123980632D01*
X83406800Y-124634607D01*
X78844271Y-124634607D01*
X78780910Y-124316075D01*
X78612431Y-123909331D01*
X78367838Y-123543271D01*
X78056529Y-123231962D01*
X77690469Y-122987369D01*
X77283725Y-122818890D01*
X76851928Y-122733000D01*
X76411672Y-122733000D01*
X75979875Y-122818890D01*
X75573131Y-122987369D01*
X75207071Y-123231962D01*
X74895762Y-123543271D01*
X74651169Y-123909331D01*
X74482690Y-124316075D01*
X74396800Y-124747872D01*
X73465000Y-124747872D01*
X73465000Y-114587872D01*
X74396800Y-114587872D01*
X74396800Y-115028128D01*
X74482690Y-115459925D01*
X74651169Y-115866669D01*
X74895762Y-116232729D01*
X75207071Y-116544038D01*
X75573131Y-116788631D01*
X75979875Y-116957110D01*
X76411672Y-117043000D01*
X76851928Y-117043000D01*
X77283725Y-116957110D01*
X77690469Y-116788631D01*
X78056529Y-116544038D01*
X78367838Y-116232729D01*
X78612431Y-115866669D01*
X78780910Y-115459925D01*
X78866800Y-115028128D01*
X78866800Y-114587872D01*
X78844271Y-114474607D01*
X83406800Y-114474607D01*
X83406800Y-115141393D01*
X83536883Y-115795368D01*
X83792052Y-116411399D01*
X84162498Y-116965812D01*
X84633988Y-117437302D01*
X85188401Y-117807748D01*
X85804432Y-118062917D01*
X86458407Y-118193000D01*
X87125193Y-118193000D01*
X87779168Y-118062917D01*
X88395199Y-117807748D01*
X88949612Y-117437302D01*
X89421102Y-116965812D01*
X89791548Y-116411399D01*
X90046717Y-115795368D01*
X90176800Y-115141393D01*
X90176800Y-114587872D01*
X102082800Y-114587872D01*
X102082800Y-115028128D01*
X102168690Y-115459925D01*
X102337169Y-115866669D01*
X102581762Y-116232729D01*
X102893071Y-116544038D01*
X103259131Y-116788631D01*
X103665875Y-116957110D01*
X104097672Y-117043000D01*
X104537928Y-117043000D01*
X104969725Y-116957110D01*
X105376469Y-116788631D01*
X105742529Y-116544038D01*
X106053838Y-116232729D01*
X106298431Y-115866669D01*
X106466910Y-115459925D01*
X106552800Y-115028128D01*
X106552800Y-114587872D01*
X106530271Y-114474607D01*
X111092800Y-114474607D01*
X111092800Y-115141393D01*
X111222883Y-115795368D01*
X111478052Y-116411399D01*
X111848498Y-116965812D01*
X112319988Y-117437302D01*
X112874401Y-117807748D01*
X113490432Y-118062917D01*
X114144407Y-118193000D01*
X114811193Y-118193000D01*
X115465168Y-118062917D01*
X116081199Y-117807748D01*
X116635612Y-117437302D01*
X117107102Y-116965812D01*
X117477548Y-116411399D01*
X117732717Y-115795368D01*
X117862800Y-115141393D01*
X117862800Y-114474607D01*
X117732717Y-113820632D01*
X117477548Y-113204601D01*
X117107102Y-112650188D01*
X116635612Y-112178698D01*
X116081199Y-111808252D01*
X115465168Y-111553083D01*
X114811193Y-111423000D01*
X114144407Y-111423000D01*
X113490432Y-111553083D01*
X112874401Y-111808252D01*
X112319988Y-112178698D01*
X111848498Y-112650188D01*
X111478052Y-113204601D01*
X111222883Y-113820632D01*
X111092800Y-114474607D01*
X106530271Y-114474607D01*
X106466910Y-114156075D01*
X106298431Y-113749331D01*
X106053838Y-113383271D01*
X105742529Y-113071962D01*
X105376469Y-112827369D01*
X104969725Y-112658890D01*
X104537928Y-112573000D01*
X104097672Y-112573000D01*
X103665875Y-112658890D01*
X103259131Y-112827369D01*
X102893071Y-113071962D01*
X102581762Y-113383271D01*
X102337169Y-113749331D01*
X102168690Y-114156075D01*
X102082800Y-114587872D01*
X90176800Y-114587872D01*
X90176800Y-114474607D01*
X90046717Y-113820632D01*
X89791548Y-113204601D01*
X89421102Y-112650188D01*
X88949612Y-112178698D01*
X88395199Y-111808252D01*
X87779168Y-111553083D01*
X87125193Y-111423000D01*
X86458407Y-111423000D01*
X85804432Y-111553083D01*
X85188401Y-111808252D01*
X84633988Y-112178698D01*
X84162498Y-112650188D01*
X83792052Y-113204601D01*
X83536883Y-113820632D01*
X83406800Y-114474607D01*
X78844271Y-114474607D01*
X78780910Y-114156075D01*
X78612431Y-113749331D01*
X78367838Y-113383271D01*
X78056529Y-113071962D01*
X77690469Y-112827369D01*
X77283725Y-112658890D01*
X76851928Y-112573000D01*
X76411672Y-112573000D01*
X75979875Y-112658890D01*
X75573131Y-112827369D01*
X75207071Y-113071962D01*
X74895762Y-113383271D01*
X74651169Y-113749331D01*
X74482690Y-114156075D01*
X74396800Y-114587872D01*
X73465000Y-114587872D01*
X73465000Y-108886607D01*
X126917000Y-108886607D01*
X126917000Y-109553393D01*
X127047083Y-110207368D01*
X127302252Y-110823399D01*
X127672698Y-111377812D01*
X128144188Y-111849302D01*
X128698601Y-112219748D01*
X129314632Y-112474917D01*
X129968607Y-112605000D01*
X130635393Y-112605000D01*
X131289368Y-112474917D01*
X131905399Y-112219748D01*
X132459812Y-111849302D01*
X132931302Y-111377812D01*
X133301748Y-110823399D01*
X133556917Y-110207368D01*
X133687000Y-109553393D01*
X133687000Y-108886607D01*
X133678184Y-108842285D01*
X142723000Y-108842285D01*
X142723000Y-109597715D01*
X142870377Y-110338628D01*
X143159467Y-111036554D01*
X143579161Y-111664670D01*
X144113330Y-112198839D01*
X144741446Y-112618533D01*
X145439372Y-112907623D01*
X146180285Y-113055000D01*
X146935715Y-113055000D01*
X147676628Y-112907623D01*
X148374554Y-112618533D01*
X149002670Y-112198839D01*
X149536839Y-111664670D01*
X149956533Y-111036554D01*
X150245623Y-110338628D01*
X150393000Y-109597715D01*
X150393000Y-108842285D01*
X150245623Y-108101372D01*
X149956533Y-107403446D01*
X149536839Y-106775330D01*
X149002670Y-106241161D01*
X148374554Y-105821467D01*
X147676628Y-105532377D01*
X146935715Y-105385000D01*
X146180285Y-105385000D01*
X145439372Y-105532377D01*
X144741446Y-105821467D01*
X144113330Y-106241161D01*
X143579161Y-106775330D01*
X143159467Y-107403446D01*
X142870377Y-108101372D01*
X142723000Y-108842285D01*
X133678184Y-108842285D01*
X133556917Y-108232632D01*
X133301748Y-107616601D01*
X132931302Y-107062188D01*
X132459812Y-106590698D01*
X131905399Y-106220252D01*
X131289368Y-105965083D01*
X130635393Y-105835000D01*
X129968607Y-105835000D01*
X129314632Y-105965083D01*
X128698601Y-106220252D01*
X128144188Y-106590698D01*
X127672698Y-107062188D01*
X127302252Y-107616601D01*
X127047083Y-108232632D01*
X126917000Y-108886607D01*
X73465000Y-108886607D01*
X73465000Y-104427872D01*
X74396800Y-104427872D01*
X74396800Y-104868128D01*
X74482690Y-105299925D01*
X74651169Y-105706669D01*
X74895762Y-106072729D01*
X75207071Y-106384038D01*
X75573131Y-106628631D01*
X75979875Y-106797110D01*
X76411672Y-106883000D01*
X76851928Y-106883000D01*
X77283725Y-106797110D01*
X77690469Y-106628631D01*
X78056529Y-106384038D01*
X78367838Y-106072729D01*
X78612431Y-105706669D01*
X78780910Y-105299925D01*
X78866800Y-104868128D01*
X78866800Y-104427872D01*
X78844271Y-104314607D01*
X83406800Y-104314607D01*
X83406800Y-104981393D01*
X83536883Y-105635368D01*
X83792052Y-106251399D01*
X84162498Y-106805812D01*
X84633988Y-107277302D01*
X85188401Y-107647748D01*
X85804432Y-107902917D01*
X86458407Y-108033000D01*
X87125193Y-108033000D01*
X87779168Y-107902917D01*
X88395199Y-107647748D01*
X88949612Y-107277302D01*
X89421102Y-106805812D01*
X89791548Y-106251399D01*
X90046717Y-105635368D01*
X90176800Y-104981393D01*
X90176800Y-104427872D01*
X102082800Y-104427872D01*
X102082800Y-104868128D01*
X102168690Y-105299925D01*
X102337169Y-105706669D01*
X102581762Y-106072729D01*
X102893071Y-106384038D01*
X103259131Y-106628631D01*
X103665875Y-106797110D01*
X104097672Y-106883000D01*
X104537928Y-106883000D01*
X104969725Y-106797110D01*
X105376469Y-106628631D01*
X105742529Y-106384038D01*
X106053838Y-106072729D01*
X106298431Y-105706669D01*
X106466910Y-105299925D01*
X106552800Y-104868128D01*
X106552800Y-104427872D01*
X106530271Y-104314607D01*
X111092800Y-104314607D01*
X111092800Y-104981393D01*
X111222883Y-105635368D01*
X111478052Y-106251399D01*
X111848498Y-106805812D01*
X112319988Y-107277302D01*
X112874401Y-107647748D01*
X113490432Y-107902917D01*
X114144407Y-108033000D01*
X114811193Y-108033000D01*
X115465168Y-107902917D01*
X116081199Y-107647748D01*
X116635612Y-107277302D01*
X117107102Y-106805812D01*
X117477548Y-106251399D01*
X117732717Y-105635368D01*
X117862800Y-104981393D01*
X117862800Y-104314607D01*
X117732717Y-103660632D01*
X117477548Y-103044601D01*
X117107102Y-102490188D01*
X116635612Y-102018698D01*
X116081199Y-101648252D01*
X115465168Y-101393083D01*
X114811193Y-101263000D01*
X114144407Y-101263000D01*
X113490432Y-101393083D01*
X112874401Y-101648252D01*
X112319988Y-102018698D01*
X111848498Y-102490188D01*
X111478052Y-103044601D01*
X111222883Y-103660632D01*
X111092800Y-104314607D01*
X106530271Y-104314607D01*
X106466910Y-103996075D01*
X106298431Y-103589331D01*
X106053838Y-103223271D01*
X105742529Y-102911962D01*
X105376469Y-102667369D01*
X104969725Y-102498890D01*
X104537928Y-102413000D01*
X104097672Y-102413000D01*
X103665875Y-102498890D01*
X103259131Y-102667369D01*
X102893071Y-102911962D01*
X102581762Y-103223271D01*
X102337169Y-103589331D01*
X102168690Y-103996075D01*
X102082800Y-104427872D01*
X90176800Y-104427872D01*
X90176800Y-104314607D01*
X90046717Y-103660632D01*
X89791548Y-103044601D01*
X89421102Y-102490188D01*
X88949612Y-102018698D01*
X88395199Y-101648252D01*
X87779168Y-101393083D01*
X87125193Y-101263000D01*
X86458407Y-101263000D01*
X85804432Y-101393083D01*
X85188401Y-101648252D01*
X84633988Y-102018698D01*
X84162498Y-102490188D01*
X83792052Y-103044601D01*
X83536883Y-103660632D01*
X83406800Y-104314607D01*
X78844271Y-104314607D01*
X78780910Y-103996075D01*
X78612431Y-103589331D01*
X78367838Y-103223271D01*
X78056529Y-102911962D01*
X77690469Y-102667369D01*
X77283725Y-102498890D01*
X76851928Y-102413000D01*
X76411672Y-102413000D01*
X75979875Y-102498890D01*
X75573131Y-102667369D01*
X75207071Y-102911962D01*
X74895762Y-103223271D01*
X74651169Y-103589331D01*
X74482690Y-103996075D01*
X74396800Y-104427872D01*
X73465000Y-104427872D01*
X73465000Y-94267872D01*
X74396800Y-94267872D01*
X74396800Y-94708128D01*
X74482690Y-95139925D01*
X74651169Y-95546669D01*
X74895762Y-95912729D01*
X75207071Y-96224038D01*
X75573131Y-96468631D01*
X75979875Y-96637110D01*
X76411672Y-96723000D01*
X76851928Y-96723000D01*
X77283725Y-96637110D01*
X77690469Y-96468631D01*
X78056529Y-96224038D01*
X78367838Y-95912729D01*
X78612431Y-95546669D01*
X78780910Y-95139925D01*
X78866800Y-94708128D01*
X78866800Y-94267872D01*
X78844271Y-94154607D01*
X83406800Y-94154607D01*
X83406800Y-94821393D01*
X83536883Y-95475368D01*
X83792052Y-96091399D01*
X84162498Y-96645812D01*
X84633988Y-97117302D01*
X85188401Y-97487748D01*
X85804432Y-97742917D01*
X86458407Y-97873000D01*
X87125193Y-97873000D01*
X87779168Y-97742917D01*
X88395199Y-97487748D01*
X88949612Y-97117302D01*
X89421102Y-96645812D01*
X89791548Y-96091399D01*
X90046717Y-95475368D01*
X90176800Y-94821393D01*
X90176800Y-94267872D01*
X102082800Y-94267872D01*
X102082800Y-94708128D01*
X102168690Y-95139925D01*
X102337169Y-95546669D01*
X102581762Y-95912729D01*
X102893071Y-96224038D01*
X103259131Y-96468631D01*
X103665875Y-96637110D01*
X104097672Y-96723000D01*
X104537928Y-96723000D01*
X104969725Y-96637110D01*
X105376469Y-96468631D01*
X105742529Y-96224038D01*
X106053838Y-95912729D01*
X106298431Y-95546669D01*
X106466910Y-95139925D01*
X106552800Y-94708128D01*
X106552800Y-94267872D01*
X106530271Y-94154607D01*
X111092800Y-94154607D01*
X111092800Y-94821393D01*
X111222883Y-95475368D01*
X111478052Y-96091399D01*
X111848498Y-96645812D01*
X112319988Y-97117302D01*
X112874401Y-97487748D01*
X113490432Y-97742917D01*
X114144407Y-97873000D01*
X114811193Y-97873000D01*
X115465168Y-97742917D01*
X116081199Y-97487748D01*
X116635612Y-97117302D01*
X117107102Y-96645812D01*
X117413932Y-96186607D01*
X135045000Y-96186607D01*
X135045000Y-96853393D01*
X135175083Y-97507368D01*
X135430252Y-98123399D01*
X135800698Y-98677812D01*
X136272188Y-99149302D01*
X136826601Y-99519748D01*
X137442632Y-99774917D01*
X138096607Y-99905000D01*
X138763393Y-99905000D01*
X139417368Y-99774917D01*
X140033399Y-99519748D01*
X140587812Y-99149302D01*
X141059302Y-98677812D01*
X141429748Y-98123399D01*
X141684917Y-97507368D01*
X141815000Y-96853393D01*
X141815000Y-96186607D01*
X141684917Y-95532632D01*
X141429748Y-94916601D01*
X141059302Y-94362188D01*
X140587812Y-93890698D01*
X140033399Y-93520252D01*
X139417368Y-93265083D01*
X138763393Y-93135000D01*
X138096607Y-93135000D01*
X137442632Y-93265083D01*
X136826601Y-93520252D01*
X136272188Y-93890698D01*
X135800698Y-94362188D01*
X135430252Y-94916601D01*
X135175083Y-95532632D01*
X135045000Y-96186607D01*
X117413932Y-96186607D01*
X117477548Y-96091399D01*
X117732717Y-95475368D01*
X117862800Y-94821393D01*
X117862800Y-94154607D01*
X117732717Y-93500632D01*
X117477548Y-92884601D01*
X117107102Y-92330188D01*
X116635612Y-91858698D01*
X116081199Y-91488252D01*
X115465168Y-91233083D01*
X114811193Y-91103000D01*
X114144407Y-91103000D01*
X113490432Y-91233083D01*
X112874401Y-91488252D01*
X112319988Y-91858698D01*
X111848498Y-92330188D01*
X111478052Y-92884601D01*
X111222883Y-93500632D01*
X111092800Y-94154607D01*
X106530271Y-94154607D01*
X106466910Y-93836075D01*
X106298431Y-93429331D01*
X106053838Y-93063271D01*
X105742529Y-92751962D01*
X105376469Y-92507369D01*
X104969725Y-92338890D01*
X104537928Y-92253000D01*
X104097672Y-92253000D01*
X103665875Y-92338890D01*
X103259131Y-92507369D01*
X102893071Y-92751962D01*
X102581762Y-93063271D01*
X102337169Y-93429331D01*
X102168690Y-93836075D01*
X102082800Y-94267872D01*
X90176800Y-94267872D01*
X90176800Y-94154607D01*
X90046717Y-93500632D01*
X89791548Y-92884601D01*
X89421102Y-92330188D01*
X88949612Y-91858698D01*
X88395199Y-91488252D01*
X87779168Y-91233083D01*
X87125193Y-91103000D01*
X86458407Y-91103000D01*
X85804432Y-91233083D01*
X85188401Y-91488252D01*
X84633988Y-91858698D01*
X84162498Y-92330188D01*
X83792052Y-92884601D01*
X83536883Y-93500632D01*
X83406800Y-94154607D01*
X78844271Y-94154607D01*
X78780910Y-93836075D01*
X78612431Y-93429331D01*
X78367838Y-93063271D01*
X78056529Y-92751962D01*
X77690469Y-92507369D01*
X77283725Y-92338890D01*
X76851928Y-92253000D01*
X76411672Y-92253000D01*
X75979875Y-92338890D01*
X75573131Y-92507369D01*
X75207071Y-92751962D01*
X74895762Y-93063271D01*
X74651169Y-93429331D01*
X74482690Y-93836075D01*
X74396800Y-94267872D01*
X73465000Y-94267872D01*
X73465000Y-84107872D01*
X74396800Y-84107872D01*
X74396800Y-84548128D01*
X74482690Y-84979925D01*
X74651169Y-85386669D01*
X74895762Y-85752729D01*
X75207071Y-86064038D01*
X75573131Y-86308631D01*
X75979875Y-86477110D01*
X76411672Y-86563000D01*
X76851928Y-86563000D01*
X77283725Y-86477110D01*
X77690469Y-86308631D01*
X78056529Y-86064038D01*
X78367838Y-85752729D01*
X78612431Y-85386669D01*
X78780910Y-84979925D01*
X78866800Y-84548128D01*
X78866800Y-84107872D01*
X78844271Y-83994607D01*
X83406800Y-83994607D01*
X83406800Y-84661393D01*
X83536883Y-85315368D01*
X83792052Y-85931399D01*
X84162498Y-86485812D01*
X84633988Y-86957302D01*
X85188401Y-87327748D01*
X85804432Y-87582917D01*
X86458407Y-87713000D01*
X87125193Y-87713000D01*
X87779168Y-87582917D01*
X88395199Y-87327748D01*
X88949612Y-86957302D01*
X89421102Y-86485812D01*
X89791548Y-85931399D01*
X90046717Y-85315368D01*
X90176800Y-84661393D01*
X90176800Y-84107872D01*
X102082800Y-84107872D01*
X102082800Y-84548128D01*
X102168690Y-84979925D01*
X102337169Y-85386669D01*
X102581762Y-85752729D01*
X102893071Y-86064038D01*
X103259131Y-86308631D01*
X103665875Y-86477110D01*
X104097672Y-86563000D01*
X104537928Y-86563000D01*
X104969725Y-86477110D01*
X105376469Y-86308631D01*
X105742529Y-86064038D01*
X106053838Y-85752729D01*
X106298431Y-85386669D01*
X106466910Y-84979925D01*
X106552800Y-84548128D01*
X106552800Y-84107872D01*
X106530271Y-83994607D01*
X111092800Y-83994607D01*
X111092800Y-84661393D01*
X111222883Y-85315368D01*
X111478052Y-85931399D01*
X111848498Y-86485812D01*
X112319988Y-86957302D01*
X112874401Y-87327748D01*
X113490432Y-87582917D01*
X114144407Y-87713000D01*
X114811193Y-87713000D01*
X115465168Y-87582917D01*
X116081199Y-87327748D01*
X116635612Y-86957302D01*
X117107102Y-86485812D01*
X117477548Y-85931399D01*
X117732717Y-85315368D01*
X117862800Y-84661393D01*
X117862800Y-83994607D01*
X117732717Y-83340632D01*
X117477548Y-82724601D01*
X117107102Y-82170188D01*
X117064878Y-82127964D01*
X126017000Y-82127964D01*
X126017000Y-82972036D01*
X126181670Y-83799888D01*
X126504683Y-84579708D01*
X126973623Y-85281528D01*
X127570472Y-85878377D01*
X128272292Y-86347317D01*
X129052112Y-86670330D01*
X129879964Y-86835000D01*
X130724036Y-86835000D01*
X131551888Y-86670330D01*
X132331708Y-86347317D01*
X133033528Y-85878377D01*
X133630377Y-85281528D01*
X134099317Y-84579708D01*
X134422330Y-83799888D01*
X134587000Y-82972036D01*
X134587000Y-82127964D01*
X142273000Y-82127964D01*
X142273000Y-82972036D01*
X142437670Y-83799888D01*
X142760683Y-84579708D01*
X143229623Y-85281528D01*
X143826472Y-85878377D01*
X144528292Y-86347317D01*
X145308112Y-86670330D01*
X146135964Y-86835000D01*
X146980036Y-86835000D01*
X147807888Y-86670330D01*
X148587708Y-86347317D01*
X149289528Y-85878377D01*
X149886377Y-85281528D01*
X150355317Y-84579708D01*
X150678330Y-83799888D01*
X150843000Y-82972036D01*
X150843000Y-82127964D01*
X150678330Y-81300112D01*
X150355317Y-80520292D01*
X149886377Y-79818472D01*
X149289528Y-79221623D01*
X148587708Y-78752683D01*
X147807888Y-78429670D01*
X146980036Y-78265000D01*
X146135964Y-78265000D01*
X145308112Y-78429670D01*
X144528292Y-78752683D01*
X143826472Y-79221623D01*
X143229623Y-79818472D01*
X142760683Y-80520292D01*
X142437670Y-81300112D01*
X142273000Y-82127964D01*
X134587000Y-82127964D01*
X134422330Y-81300112D01*
X134099317Y-80520292D01*
X133630377Y-79818472D01*
X133033528Y-79221623D01*
X132331708Y-78752683D01*
X131551888Y-78429670D01*
X130724036Y-78265000D01*
X129879964Y-78265000D01*
X129052112Y-78429670D01*
X128272292Y-78752683D01*
X127570472Y-79221623D01*
X126973623Y-79818472D01*
X126504683Y-80520292D01*
X126181670Y-81300112D01*
X126017000Y-82127964D01*
X117064878Y-82127964D01*
X116635612Y-81698698D01*
X116081199Y-81328252D01*
X115465168Y-81073083D01*
X114811193Y-80943000D01*
X114144407Y-80943000D01*
X113490432Y-81073083D01*
X112874401Y-81328252D01*
X112319988Y-81698698D01*
X111848498Y-82170188D01*
X111478052Y-82724601D01*
X111222883Y-83340632D01*
X111092800Y-83994607D01*
X106530271Y-83994607D01*
X106466910Y-83676075D01*
X106298431Y-83269331D01*
X106053838Y-82903271D01*
X105742529Y-82591962D01*
X105376469Y-82347369D01*
X104969725Y-82178890D01*
X104537928Y-82093000D01*
X104097672Y-82093000D01*
X103665875Y-82178890D01*
X103259131Y-82347369D01*
X102893071Y-82591962D01*
X102581762Y-82903271D01*
X102337169Y-83269331D01*
X102168690Y-83676075D01*
X102082800Y-84107872D01*
X90176800Y-84107872D01*
X90176800Y-83994607D01*
X90046717Y-83340632D01*
X89791548Y-82724601D01*
X89421102Y-82170188D01*
X88949612Y-81698698D01*
X88395199Y-81328252D01*
X87779168Y-81073083D01*
X87125193Y-80943000D01*
X86458407Y-80943000D01*
X85804432Y-81073083D01*
X85188401Y-81328252D01*
X84633988Y-81698698D01*
X84162498Y-82170188D01*
X83792052Y-82724601D01*
X83536883Y-83340632D01*
X83406800Y-83994607D01*
X78844271Y-83994607D01*
X78780910Y-83676075D01*
X78612431Y-83269331D01*
X78367838Y-82903271D01*
X78056529Y-82591962D01*
X77690469Y-82347369D01*
X77283725Y-82178890D01*
X76851928Y-82093000D01*
X76411672Y-82093000D01*
X75979875Y-82178890D01*
X75573131Y-82347369D01*
X75207071Y-82591962D01*
X74895762Y-82903271D01*
X74651169Y-83269331D01*
X74482690Y-83676075D01*
X74396800Y-84107872D01*
X73465000Y-84107872D01*
X73465000Y-73947872D01*
X74396800Y-73947872D01*
X74396800Y-74388128D01*
X74482690Y-74819925D01*
X74651169Y-75226669D01*
X74895762Y-75592729D01*
X75207071Y-75904038D01*
X75573131Y-76148631D01*
X75979875Y-76317110D01*
X76411672Y-76403000D01*
X76851928Y-76403000D01*
X77283725Y-76317110D01*
X77690469Y-76148631D01*
X78056529Y-75904038D01*
X78367838Y-75592729D01*
X78612431Y-75226669D01*
X78780910Y-74819925D01*
X78866800Y-74388128D01*
X78866800Y-73947872D01*
X78844271Y-73834607D01*
X83406800Y-73834607D01*
X83406800Y-74501393D01*
X83536883Y-75155368D01*
X83792052Y-75771399D01*
X84162498Y-76325812D01*
X84633988Y-76797302D01*
X85188401Y-77167748D01*
X85804432Y-77422917D01*
X86458407Y-77553000D01*
X87125193Y-77553000D01*
X87779168Y-77422917D01*
X88395199Y-77167748D01*
X88949612Y-76797302D01*
X89421102Y-76325812D01*
X89791548Y-75771399D01*
X90046717Y-75155368D01*
X90176800Y-74501393D01*
X90176800Y-73947872D01*
X102082800Y-73947872D01*
X102082800Y-74388128D01*
X102168690Y-74819925D01*
X102337169Y-75226669D01*
X102581762Y-75592729D01*
X102893071Y-75904038D01*
X103259131Y-76148631D01*
X103665875Y-76317110D01*
X104097672Y-76403000D01*
X104537928Y-76403000D01*
X104969725Y-76317110D01*
X105376469Y-76148631D01*
X105742529Y-75904038D01*
X106053838Y-75592729D01*
X106298431Y-75226669D01*
X106466910Y-74819925D01*
X106552800Y-74388128D01*
X106552800Y-73947872D01*
X106530271Y-73834607D01*
X111092800Y-73834607D01*
X111092800Y-74501393D01*
X111222883Y-75155368D01*
X111478052Y-75771399D01*
X111848498Y-76325812D01*
X112319988Y-76797302D01*
X112874401Y-77167748D01*
X113490432Y-77422917D01*
X114144407Y-77553000D01*
X114811193Y-77553000D01*
X115465168Y-77422917D01*
X116081199Y-77167748D01*
X116635612Y-76797302D01*
X117107102Y-76325812D01*
X117477548Y-75771399D01*
X117732717Y-75155368D01*
X117862800Y-74501393D01*
X117862800Y-73834607D01*
X117732717Y-73180632D01*
X117477548Y-72564601D01*
X117107102Y-72010188D01*
X116635612Y-71538698D01*
X116081199Y-71168252D01*
X115465168Y-70913083D01*
X114811193Y-70783000D01*
X114144407Y-70783000D01*
X113490432Y-70913083D01*
X112874401Y-71168252D01*
X112319988Y-71538698D01*
X111848498Y-72010188D01*
X111478052Y-72564601D01*
X111222883Y-73180632D01*
X111092800Y-73834607D01*
X106530271Y-73834607D01*
X106466910Y-73516075D01*
X106298431Y-73109331D01*
X106053838Y-72743271D01*
X105742529Y-72431962D01*
X105376469Y-72187369D01*
X104969725Y-72018890D01*
X104537928Y-71933000D01*
X104097672Y-71933000D01*
X103665875Y-72018890D01*
X103259131Y-72187369D01*
X102893071Y-72431962D01*
X102581762Y-72743271D01*
X102337169Y-73109331D01*
X102168690Y-73516075D01*
X102082800Y-73947872D01*
X90176800Y-73947872D01*
X90176800Y-73834607D01*
X90046717Y-73180632D01*
X89791548Y-72564601D01*
X89421102Y-72010188D01*
X88949612Y-71538698D01*
X88395199Y-71168252D01*
X87779168Y-70913083D01*
X87125193Y-70783000D01*
X86458407Y-70783000D01*
X85804432Y-70913083D01*
X85188401Y-71168252D01*
X84633988Y-71538698D01*
X84162498Y-72010188D01*
X83792052Y-72564601D01*
X83536883Y-73180632D01*
X83406800Y-73834607D01*
X78844271Y-73834607D01*
X78780910Y-73516075D01*
X78612431Y-73109331D01*
X78367838Y-72743271D01*
X78056529Y-72431962D01*
X77690469Y-72187369D01*
X77283725Y-72018890D01*
X76851928Y-71933000D01*
X76411672Y-71933000D01*
X75979875Y-72018890D01*
X75573131Y-72187369D01*
X75207071Y-72431962D01*
X74895762Y-72743271D01*
X74651169Y-73109331D01*
X74482690Y-73516075D01*
X74396800Y-73947872D01*
X73465000Y-73947872D01*
X73465000Y-63787872D01*
X74396800Y-63787872D01*
X74396800Y-64228128D01*
X74482690Y-64659925D01*
X74651169Y-65066669D01*
X74895762Y-65432729D01*
X75207071Y-65744038D01*
X75573131Y-65988631D01*
X75979875Y-66157110D01*
X76411672Y-66243000D01*
X76851928Y-66243000D01*
X77283725Y-66157110D01*
X77690469Y-65988631D01*
X78056529Y-65744038D01*
X78367838Y-65432729D01*
X78612431Y-65066669D01*
X78780910Y-64659925D01*
X78866800Y-64228128D01*
X78866800Y-63787872D01*
X78844271Y-63674607D01*
X83406800Y-63674607D01*
X83406800Y-64341393D01*
X83536883Y-64995368D01*
X83792052Y-65611399D01*
X84162498Y-66165812D01*
X84633988Y-66637302D01*
X85188401Y-67007748D01*
X85804432Y-67262917D01*
X86458407Y-67393000D01*
X87125193Y-67393000D01*
X87779168Y-67262917D01*
X88395199Y-67007748D01*
X88949612Y-66637302D01*
X89421102Y-66165812D01*
X89791548Y-65611399D01*
X90046717Y-64995368D01*
X90176800Y-64341393D01*
X90176800Y-63787872D01*
X102082800Y-63787872D01*
X102082800Y-64228128D01*
X102168690Y-64659925D01*
X102337169Y-65066669D01*
X102581762Y-65432729D01*
X102893071Y-65744038D01*
X103259131Y-65988631D01*
X103665875Y-66157110D01*
X104097672Y-66243000D01*
X104537928Y-66243000D01*
X104969725Y-66157110D01*
X105376469Y-65988631D01*
X105742529Y-65744038D01*
X106053838Y-65432729D01*
X106298431Y-65066669D01*
X106466910Y-64659925D01*
X106552800Y-64228128D01*
X106552800Y-63787872D01*
X106530271Y-63674607D01*
X111092800Y-63674607D01*
X111092800Y-64341393D01*
X111222883Y-64995368D01*
X111478052Y-65611399D01*
X111848498Y-66165812D01*
X112319988Y-66637302D01*
X112874401Y-67007748D01*
X113490432Y-67262917D01*
X114144407Y-67393000D01*
X114811193Y-67393000D01*
X115465168Y-67262917D01*
X116081199Y-67007748D01*
X116635612Y-66637302D01*
X117107102Y-66165812D01*
X117477548Y-65611399D01*
X117732717Y-64995368D01*
X117862800Y-64341393D01*
X117862800Y-63674607D01*
X117744121Y-63077964D01*
X126017000Y-63077964D01*
X126017000Y-63922036D01*
X126181670Y-64749888D01*
X126504683Y-65529708D01*
X126973623Y-66231528D01*
X127570472Y-66828377D01*
X128272292Y-67297317D01*
X129052112Y-67620330D01*
X129879964Y-67785000D01*
X130724036Y-67785000D01*
X131551888Y-67620330D01*
X132331708Y-67297317D01*
X133033528Y-66828377D01*
X133630377Y-66231528D01*
X134099317Y-65529708D01*
X134422330Y-64749888D01*
X134587000Y-63922036D01*
X134587000Y-63077964D01*
X134581948Y-63052564D01*
X142273000Y-63052564D01*
X142273000Y-63896636D01*
X142437670Y-64724488D01*
X142760683Y-65504308D01*
X143229623Y-66206128D01*
X143826472Y-66802977D01*
X144528292Y-67271917D01*
X145308112Y-67594930D01*
X146135964Y-67759600D01*
X146980036Y-67759600D01*
X147807888Y-67594930D01*
X148587708Y-67271917D01*
X149289528Y-66802977D01*
X149886377Y-66206128D01*
X150355317Y-65504308D01*
X150678330Y-64724488D01*
X150843000Y-63896636D01*
X150843000Y-63052564D01*
X150678330Y-62224712D01*
X150355317Y-61444892D01*
X149886377Y-60743072D01*
X149289528Y-60146223D01*
X148587708Y-59677283D01*
X147807888Y-59354270D01*
X146980036Y-59189600D01*
X146135964Y-59189600D01*
X145308112Y-59354270D01*
X144528292Y-59677283D01*
X143826472Y-60146223D01*
X143229623Y-60743072D01*
X142760683Y-61444892D01*
X142437670Y-62224712D01*
X142273000Y-63052564D01*
X134581948Y-63052564D01*
X134422330Y-62250112D01*
X134099317Y-61470292D01*
X133630377Y-60768472D01*
X133033528Y-60171623D01*
X132331708Y-59702683D01*
X131551888Y-59379670D01*
X130724036Y-59215000D01*
X129879964Y-59215000D01*
X129052112Y-59379670D01*
X128272292Y-59702683D01*
X127570472Y-60171623D01*
X126973623Y-60768472D01*
X126504683Y-61470292D01*
X126181670Y-62250112D01*
X126017000Y-63077964D01*
X117744121Y-63077964D01*
X117732717Y-63020632D01*
X117477548Y-62404601D01*
X117107102Y-61850188D01*
X116635612Y-61378698D01*
X116081199Y-61008252D01*
X115465168Y-60753083D01*
X114811193Y-60623000D01*
X114144407Y-60623000D01*
X113490432Y-60753083D01*
X112874401Y-61008252D01*
X112319988Y-61378698D01*
X111848498Y-61850188D01*
X111478052Y-62404601D01*
X111222883Y-63020632D01*
X111092800Y-63674607D01*
X106530271Y-63674607D01*
X106466910Y-63356075D01*
X106298431Y-62949331D01*
X106053838Y-62583271D01*
X105742529Y-62271962D01*
X105376469Y-62027369D01*
X104969725Y-61858890D01*
X104537928Y-61773000D01*
X104097672Y-61773000D01*
X103665875Y-61858890D01*
X103259131Y-62027369D01*
X102893071Y-62271962D01*
X102581762Y-62583271D01*
X102337169Y-62949331D01*
X102168690Y-63356075D01*
X102082800Y-63787872D01*
X90176800Y-63787872D01*
X90176800Y-63674607D01*
X90046717Y-63020632D01*
X89791548Y-62404601D01*
X89421102Y-61850188D01*
X88949612Y-61378698D01*
X88395199Y-61008252D01*
X87779168Y-60753083D01*
X87125193Y-60623000D01*
X86458407Y-60623000D01*
X85804432Y-60753083D01*
X85188401Y-61008252D01*
X84633988Y-61378698D01*
X84162498Y-61850188D01*
X83792052Y-62404601D01*
X83536883Y-63020632D01*
X83406800Y-63674607D01*
X78844271Y-63674607D01*
X78780910Y-63356075D01*
X78612431Y-62949331D01*
X78367838Y-62583271D01*
X78056529Y-62271962D01*
X77690469Y-62027369D01*
X77283725Y-61858890D01*
X76851928Y-61773000D01*
X76411672Y-61773000D01*
X75979875Y-61858890D01*
X75573131Y-62027369D01*
X75207071Y-62271962D01*
X74895762Y-62583271D01*
X74651169Y-62949331D01*
X74482690Y-63356075D01*
X74396800Y-63787872D01*
X73465000Y-63787872D01*
X73465000Y-44220000D01*
X75844186Y-44220000D01*
X75887339Y-44658137D01*
X76015138Y-45079436D01*
X76222674Y-45467707D01*
X76501970Y-45808030D01*
X76842293Y-46087326D01*
X77230564Y-46294862D01*
X77651863Y-46422661D01*
X77980204Y-46455000D01*
X81499796Y-46455000D01*
X81828137Y-46422661D01*
X82249436Y-46294862D01*
X82637707Y-46087326D01*
X82978030Y-45808030D01*
X83257326Y-45467707D01*
X83464862Y-45079436D01*
X83592661Y-44658137D01*
X83635814Y-44220000D01*
X83634830Y-44210000D01*
X142204186Y-44210000D01*
X142247339Y-44648137D01*
X142375138Y-45069436D01*
X142582674Y-45457707D01*
X142861970Y-45798030D01*
X143202293Y-46077326D01*
X143590564Y-46284862D01*
X144011863Y-46412661D01*
X144340204Y-46445000D01*
X147859796Y-46445000D01*
X148188137Y-46412661D01*
X148609436Y-46284862D01*
X148997707Y-46077326D01*
X149338030Y-45798030D01*
X149617326Y-45457707D01*
X149824862Y-45069436D01*
X149952661Y-44648137D01*
X149995814Y-44210000D01*
X149952661Y-43771863D01*
X149824862Y-43350564D01*
X149617326Y-42962293D01*
X149338030Y-42621970D01*
X148997707Y-42342674D01*
X148609436Y-42135138D01*
X148188137Y-42007339D01*
X147859796Y-41975000D01*
X144340204Y-41975000D01*
X144011863Y-42007339D01*
X143590564Y-42135138D01*
X143202293Y-42342674D01*
X142861970Y-42621970D01*
X142582674Y-42962293D01*
X142375138Y-43350564D01*
X142247339Y-43771863D01*
X142204186Y-44210000D01*
X83634830Y-44210000D01*
X83592661Y-43781863D01*
X83464862Y-43360564D01*
X83257326Y-42972293D01*
X82978030Y-42631970D01*
X82637707Y-42352674D01*
X82249436Y-42145138D01*
X81828137Y-42017339D01*
X81499796Y-41985000D01*
X77980204Y-41985000D01*
X77651863Y-42017339D01*
X77230564Y-42145138D01*
X76842293Y-42352674D01*
X76501970Y-42631970D01*
X76222674Y-42972293D01*
X76015138Y-43360564D01*
X75887339Y-43781863D01*
X75844186Y-44220000D01*
X73465000Y-44220000D01*
X73465000Y-41946500D01*
X152875001Y-41946500D01*
X152875000Y-168937000D01*
M02*
