G04 #@! TF.FileFunction,Soldermask,Top*
%FSLAX46Y46*%
G04 Gerber Fmt 4.6, Leading zero omitted, Abs format (unit mm)*
G04 Created by KiCad (PCBNEW 4.0.5) date Saturday, February 10, 2018 'AMt' 02:18:48 AM*
%MOMM*%
%LPD*%
G01*
G04 APERTURE LIST*
%ADD10C,0.100000*%
%ADD11C,3.400000*%
%ADD12C,7.700000*%
%ADD13C,6.800000*%
%ADD14C,3.600000*%
G04 APERTURE END LIST*
D10*
D11*
X143256000Y-44196000D03*
X146304000Y-44196000D03*
X144780000Y-44196000D03*
X146304000Y-167132000D03*
X143256000Y-167132000D03*
X144780000Y-167132000D03*
X81788000Y-44196000D03*
X78740000Y-44196000D03*
X80264000Y-44196000D03*
X81788000Y-166624000D03*
X78740000Y-166624000D03*
D12*
X146558000Y-79248000D03*
D13*
X86791800Y-150368000D03*
X114554000Y-150368000D03*
X138430000Y-150368000D03*
X146558000Y-136652000D03*
X146558000Y-122809000D03*
X146558000Y-109093000D03*
X146558000Y-95250000D03*
X130302000Y-122682000D03*
X114554000Y-135128000D03*
X114554000Y-124968000D03*
X130302000Y-79248000D03*
X130302000Y-108966000D03*
X114554000Y-114808000D03*
X114554000Y-104648000D03*
X114554000Y-94488000D03*
X114554000Y-84328000D03*
X114554000Y-74168000D03*
X114554000Y-64008000D03*
X86868000Y-135128000D03*
X86868000Y-124968000D03*
X86868000Y-114808000D03*
X86868000Y-104648000D03*
X86868000Y-94488000D03*
X86868000Y-84328000D03*
X86868000Y-74168000D03*
X86868000Y-64008000D03*
D14*
X104394000Y-64008000D03*
X104394000Y-74168000D03*
X104394000Y-84328000D03*
X104394000Y-94488000D03*
X104394000Y-104648000D03*
X104394000Y-114808000D03*
X104394000Y-124968000D03*
X104394000Y-135128000D03*
X76708000Y-135128000D03*
X76708000Y-124968000D03*
X76708000Y-114808000D03*
X76708000Y-104648000D03*
X76708000Y-94488000D03*
X76708000Y-84328000D03*
X76708000Y-74168000D03*
X76708000Y-64008000D03*
D12*
X130225800Y-63500000D03*
D11*
X80264000Y-166624000D03*
M02*
