G04 #@! TF.GenerationSoftware,KiCad,Pcbnew,(5.1.0-0)*
G04 #@! TF.CreationDate,2019-10-11T10:51:37-05:00*
G04 #@! TF.ProjectId,trigger-seq-front-panel,74726967-6765-4722-9d73-65712d66726f,rev?*
G04 #@! TF.SameCoordinates,Original*
G04 #@! TF.FileFunction,Legend,Top*
G04 #@! TF.FilePolarity,Positive*
%FSLAX46Y46*%
G04 Gerber Fmt 4.6, Leading zero omitted, Abs format (unit mm)*
G04 Created by KiCad (PCBNEW (5.1.0-0)) date 2019-10-11 10:51:37*
%MOMM*%
%LPD*%
G04 APERTURE LIST*
%ADD10C,0.150000*%
G04 APERTURE END LIST*
D10*
X78240000Y-46220000D02*
X81240000Y-46220000D01*
X81240000Y-42220000D02*
X78240000Y-42220000D01*
X76240000Y-44220000D02*
G75*
G03X78240000Y-46220000I2000000J0D01*
G01*
X78240000Y-42220000D02*
G75*
G03X76240000Y-44220000I0J-2000000D01*
G01*
X81240000Y-46220000D02*
G75*
G03X83240000Y-44220000I0J2000000D01*
G01*
X83240000Y-44220000D02*
G75*
G03X81240000Y-42220000I-2000000J0D01*
G01*
X149600000Y-44210000D02*
G75*
G03X147600000Y-42210000I-2000000J0D01*
G01*
X147600000Y-46210000D02*
G75*
G03X149600000Y-44210000I0J2000000D01*
G01*
X144600000Y-42210000D02*
G75*
G03X142600000Y-44210000I0J-2000000D01*
G01*
X142600000Y-44210000D02*
G75*
G03X144600000Y-46210000I2000000J0D01*
G01*
X147600000Y-42210000D02*
X144600000Y-42210000D01*
X144600000Y-46210000D02*
X147600000Y-46210000D01*
X144610000Y-168670000D02*
X147610000Y-168670000D01*
X147610000Y-164670000D02*
X144610000Y-164670000D01*
X142610000Y-166670000D02*
G75*
G03X144610000Y-168670000I2000000J0D01*
G01*
X144610000Y-164670000D02*
G75*
G03X142610000Y-166670000I0J-2000000D01*
G01*
X147610000Y-168670000D02*
G75*
G03X149610000Y-166670000I0J2000000D01*
G01*
X149610000Y-166670000D02*
G75*
G03X147610000Y-164670000I-2000000J0D01*
G01*
X83720000Y-166680000D02*
G75*
G03X81720000Y-164680000I-2000000J0D01*
G01*
X81720000Y-168680000D02*
G75*
G03X83720000Y-166680000I0J2000000D01*
G01*
X78720000Y-164680000D02*
G75*
G03X76720000Y-166680000I0J-2000000D01*
G01*
X76720000Y-166680000D02*
G75*
G03X78720000Y-168680000I2000000J0D01*
G01*
X81720000Y-164680000D02*
X78720000Y-164680000D01*
X78720000Y-168680000D02*
X81720000Y-168680000D01*
M02*
