G04 #@! TF.GenerationSoftware,KiCad,Pcbnew,(6.0.11-0)*
G04 #@! TF.CreationDate,2026-05-01T21:55:58-05:00*
G04 #@! TF.ProjectId,trigger-seq-front-panel,74726967-6765-4722-9d73-65712d66726f,rev?*
G04 #@! TF.SameCoordinates,Original*
G04 #@! TF.FileFunction,Legend,Bot*
G04 #@! TF.FilePolarity,Positive*
%FSLAX46Y46*%
G04 Gerber Fmt 4.6, Leading zero omitted, Abs format (unit mm)*
G04 Created by KiCad (PCBNEW (6.0.11-0)) date 2026-05-01 21:55:58*
%MOMM*%
%LPD*%
G01*
G04 APERTURE LIST*
%ADD10C,0.750000*%
%ADD11C,0.200000*%
%ADD12C,0.300000*%
%ADD13C,0.635000*%
%ADD14C,0.010000*%
G04 APERTURE END LIST*
D10*
X113820400Y-133064600D02*
X116868400Y-130016600D01*
X110543800Y-130016600D02*
X113591800Y-133064600D01*
X141404800Y-51810000D02*
X141404800Y-138170000D01*
X113718800Y-51810000D02*
X113718800Y-138170000D01*
X141404800Y-133064600D02*
X144452800Y-130016600D01*
X138356800Y-130016600D02*
X141404800Y-133064600D01*
D11*
X141481000Y-138170000D02*
X141481000Y-138297000D01*
D12*
X152806826Y-93255571D02*
X152806826Y-92255571D01*
X152806826Y-92541285D02*
X152735398Y-92398428D01*
X152663969Y-92327000D01*
X152521112Y-92255571D01*
X152378255Y-92255571D01*
X151235398Y-92255571D02*
X151235398Y-93255571D01*
X151878255Y-92255571D02*
X151878255Y-93041285D01*
X151806826Y-93184142D01*
X151663969Y-93255571D01*
X151449683Y-93255571D01*
X151306826Y-93184142D01*
X151235398Y-93112714D01*
X150521112Y-92255571D02*
X150521112Y-93255571D01*
X150521112Y-92398428D02*
X150449683Y-92327000D01*
X150306826Y-92255571D01*
X150092541Y-92255571D01*
X149949683Y-92327000D01*
X149878255Y-92469857D01*
X149878255Y-93255571D01*
X153449683Y-101693142D02*
X153306826Y-101764571D01*
X153021112Y-101764571D01*
X152878255Y-101693142D01*
X152806826Y-101550285D01*
X152806826Y-101478857D01*
X152878255Y-101336000D01*
X153021112Y-101264571D01*
X153235398Y-101264571D01*
X153378255Y-101193142D01*
X153449683Y-101050285D01*
X153449683Y-100978857D01*
X153378255Y-100836000D01*
X153235398Y-100764571D01*
X153021112Y-100764571D01*
X152878255Y-100836000D01*
X152378255Y-100764571D02*
X151806826Y-100764571D01*
X152163969Y-100264571D02*
X152163969Y-101550285D01*
X152092541Y-101693142D01*
X151949683Y-101764571D01*
X151806826Y-101764571D01*
X151092541Y-101764571D02*
X151235398Y-101693142D01*
X151306826Y-101621714D01*
X151378255Y-101478857D01*
X151378255Y-101050285D01*
X151306826Y-100907428D01*
X151235398Y-100836000D01*
X151092541Y-100764571D01*
X150878255Y-100764571D01*
X150735398Y-100836000D01*
X150663969Y-100907428D01*
X150592541Y-101050285D01*
X150592541Y-101478857D01*
X150663969Y-101621714D01*
X150735398Y-101693142D01*
X150878255Y-101764571D01*
X151092541Y-101764571D01*
X149949683Y-100764571D02*
X149949683Y-102264571D01*
X149949683Y-100836000D02*
X149806826Y-100764571D01*
X149521112Y-100764571D01*
X149378255Y-100836000D01*
X149306826Y-100907428D01*
X149235398Y-101050285D01*
X149235398Y-101478857D01*
X149306826Y-101621714D01*
X149378255Y-101693142D01*
X149521112Y-101764571D01*
X149806826Y-101764571D01*
X149949683Y-101693142D01*
X153219541Y-114480571D02*
X152648112Y-114480571D01*
X153005255Y-115480571D02*
X153005255Y-114194857D01*
X152933826Y-114052000D01*
X152790969Y-113980571D01*
X152648112Y-113980571D01*
X152290969Y-114480571D02*
X152005255Y-115480571D01*
X151719541Y-114766285D01*
X151433826Y-115480571D01*
X151148112Y-114480571D01*
X149933826Y-115480571D02*
X149933826Y-113980571D01*
X149933826Y-115409142D02*
X150076683Y-115480571D01*
X150362398Y-115480571D01*
X150505255Y-115409142D01*
X150576683Y-115337714D01*
X150648112Y-115194857D01*
X150648112Y-114766285D01*
X150576683Y-114623428D01*
X150505255Y-114552000D01*
X150362398Y-114480571D01*
X150076683Y-114480571D01*
X149933826Y-114552000D01*
X153719541Y-106844571D02*
X153719541Y-105344571D01*
X153719541Y-105916000D02*
X153576683Y-105844571D01*
X153290969Y-105844571D01*
X153148112Y-105916000D01*
X153076683Y-105987428D01*
X153005255Y-106130285D01*
X153005255Y-106558857D01*
X153076683Y-106701714D01*
X153148112Y-106773142D01*
X153290969Y-106844571D01*
X153576683Y-106844571D01*
X153719541Y-106773142D01*
X151719541Y-106844571D02*
X151719541Y-106058857D01*
X151790969Y-105916000D01*
X151933826Y-105844571D01*
X152219541Y-105844571D01*
X152362398Y-105916000D01*
X151719541Y-106773142D02*
X151862398Y-106844571D01*
X152219541Y-106844571D01*
X152362398Y-106773142D01*
X152433826Y-106630285D01*
X152433826Y-106487428D01*
X152362398Y-106344571D01*
X152219541Y-106273142D01*
X151862398Y-106273142D01*
X151719541Y-106201714D01*
X150362398Y-106773142D02*
X150505255Y-106844571D01*
X150790969Y-106844571D01*
X150933826Y-106773142D01*
X151005255Y-106701714D01*
X151076683Y-106558857D01*
X151076683Y-106130285D01*
X151005255Y-105987428D01*
X150933826Y-105916000D01*
X150790969Y-105844571D01*
X150505255Y-105844571D01*
X150362398Y-105916000D01*
X149719541Y-106844571D02*
X149719541Y-105344571D01*
X149576683Y-106273142D02*
X149148112Y-106844571D01*
X149148112Y-105844571D02*
X149719541Y-106416000D01*
X163611228Y-146147142D02*
X163754085Y-146218571D01*
X164039800Y-146218571D01*
X164182657Y-146147142D01*
X164254085Y-146075714D01*
X164325514Y-145932857D01*
X164325514Y-145504285D01*
X164254085Y-145361428D01*
X164182657Y-145290000D01*
X164039800Y-145218571D01*
X163754085Y-145218571D01*
X163611228Y-145290000D01*
X162754085Y-146218571D02*
X162896942Y-146147142D01*
X162968371Y-146004285D01*
X162968371Y-144718571D01*
X161968371Y-146218571D02*
X162111228Y-146147142D01*
X162182657Y-146075714D01*
X162254085Y-145932857D01*
X162254085Y-145504285D01*
X162182657Y-145361428D01*
X162111228Y-145290000D01*
X161968371Y-145218571D01*
X161754085Y-145218571D01*
X161611228Y-145290000D01*
X161539800Y-145361428D01*
X161468371Y-145504285D01*
X161468371Y-145932857D01*
X161539800Y-146075714D01*
X161611228Y-146147142D01*
X161754085Y-146218571D01*
X161968371Y-146218571D01*
X160182657Y-146147142D02*
X160325514Y-146218571D01*
X160611228Y-146218571D01*
X160754085Y-146147142D01*
X160825514Y-146075714D01*
X160896942Y-145932857D01*
X160896942Y-145504285D01*
X160825514Y-145361428D01*
X160754085Y-145290000D01*
X160611228Y-145218571D01*
X160325514Y-145218571D01*
X160182657Y-145290000D01*
X159539800Y-146218571D02*
X159539800Y-144718571D01*
X159396942Y-145647142D02*
X158968371Y-146218571D01*
X158968371Y-145218571D02*
X159539800Y-145790000D01*
X156968371Y-146218571D02*
X157111228Y-146147142D01*
X157182657Y-146075714D01*
X157254085Y-145932857D01*
X157254085Y-145504285D01*
X157182657Y-145361428D01*
X157111228Y-145290000D01*
X156968371Y-145218571D01*
X156754085Y-145218571D01*
X156611228Y-145290000D01*
X156539800Y-145361428D01*
X156468371Y-145504285D01*
X156468371Y-145932857D01*
X156539800Y-146075714D01*
X156611228Y-146147142D01*
X156754085Y-146218571D01*
X156968371Y-146218571D01*
X155182657Y-145218571D02*
X155182657Y-146218571D01*
X155825514Y-145218571D02*
X155825514Y-146004285D01*
X155754085Y-146147142D01*
X155611228Y-146218571D01*
X155396942Y-146218571D01*
X155254085Y-146147142D01*
X155182657Y-146075714D01*
X154682657Y-145218571D02*
X154111228Y-145218571D01*
X154468371Y-144718571D02*
X154468371Y-146004285D01*
X154396942Y-146147142D01*
X154254085Y-146218571D01*
X154111228Y-146218571D01*
X116218800Y-146189171D02*
X116361657Y-146117742D01*
X116433085Y-146046314D01*
X116504514Y-145903457D01*
X116504514Y-145474885D01*
X116433085Y-145332028D01*
X116361657Y-145260600D01*
X116218800Y-145189171D01*
X116004514Y-145189171D01*
X115861657Y-145260600D01*
X115790228Y-145332028D01*
X115718800Y-145474885D01*
X115718800Y-145903457D01*
X115790228Y-146046314D01*
X115861657Y-146117742D01*
X116004514Y-146189171D01*
X116218800Y-146189171D01*
X114433085Y-145189171D02*
X114433085Y-146189171D01*
X115075942Y-145189171D02*
X115075942Y-145974885D01*
X115004514Y-146117742D01*
X114861657Y-146189171D01*
X114647371Y-146189171D01*
X114504514Y-146117742D01*
X114433085Y-146046314D01*
X113933085Y-145189171D02*
X113361657Y-145189171D01*
X113718800Y-144689171D02*
X113718800Y-145974885D01*
X113647371Y-146117742D01*
X113504514Y-146189171D01*
X113361657Y-146189171D01*
X111790228Y-144832028D02*
X111718800Y-144760600D01*
X111575942Y-144689171D01*
X111218800Y-144689171D01*
X111075942Y-144760600D01*
X111004514Y-144832028D01*
X110933085Y-144974885D01*
X110933085Y-145117742D01*
X111004514Y-145332028D01*
X111861657Y-146189171D01*
X110933085Y-146189171D01*
X170470371Y-130466571D02*
X170470371Y-129466571D01*
X170470371Y-129752285D02*
X170398942Y-129609428D01*
X170327514Y-129538000D01*
X170184657Y-129466571D01*
X170041800Y-129466571D01*
X168970371Y-130395142D02*
X169113228Y-130466571D01*
X169398942Y-130466571D01*
X169541800Y-130395142D01*
X169613228Y-130252285D01*
X169613228Y-129680857D01*
X169541800Y-129538000D01*
X169398942Y-129466571D01*
X169113228Y-129466571D01*
X168970371Y-129538000D01*
X168898942Y-129680857D01*
X168898942Y-129823714D01*
X169613228Y-129966571D01*
X168327514Y-130395142D02*
X168184657Y-130466571D01*
X167898942Y-130466571D01*
X167756085Y-130395142D01*
X167684657Y-130252285D01*
X167684657Y-130180857D01*
X167756085Y-130038000D01*
X167898942Y-129966571D01*
X168113228Y-129966571D01*
X168256085Y-129895142D01*
X168327514Y-129752285D01*
X168327514Y-129680857D01*
X168256085Y-129538000D01*
X168113228Y-129466571D01*
X167898942Y-129466571D01*
X167756085Y-129538000D01*
X166470371Y-130395142D02*
X166613228Y-130466571D01*
X166898942Y-130466571D01*
X167041800Y-130395142D01*
X167113228Y-130252285D01*
X167113228Y-129680857D01*
X167041800Y-129538000D01*
X166898942Y-129466571D01*
X166613228Y-129466571D01*
X166470371Y-129538000D01*
X166398942Y-129680857D01*
X166398942Y-129823714D01*
X167113228Y-129966571D01*
X165970371Y-129466571D02*
X165398942Y-129466571D01*
X165756085Y-128966571D02*
X165756085Y-130252285D01*
X165684657Y-130395142D01*
X165541800Y-130466571D01*
X165398942Y-130466571D01*
X143904800Y-146189171D02*
X144047657Y-146117742D01*
X144119085Y-146046314D01*
X144190514Y-145903457D01*
X144190514Y-145474885D01*
X144119085Y-145332028D01*
X144047657Y-145260600D01*
X143904800Y-145189171D01*
X143690514Y-145189171D01*
X143547657Y-145260600D01*
X143476228Y-145332028D01*
X143404800Y-145474885D01*
X143404800Y-145903457D01*
X143476228Y-146046314D01*
X143547657Y-146117742D01*
X143690514Y-146189171D01*
X143904800Y-146189171D01*
X142119085Y-145189171D02*
X142119085Y-146189171D01*
X142761942Y-145189171D02*
X142761942Y-145974885D01*
X142690514Y-146117742D01*
X142547657Y-146189171D01*
X142333371Y-146189171D01*
X142190514Y-146117742D01*
X142119085Y-146046314D01*
X141619085Y-145189171D02*
X141047657Y-145189171D01*
X141404800Y-144689171D02*
X141404800Y-145974885D01*
X141333371Y-146117742D01*
X141190514Y-146189171D01*
X141047657Y-146189171D01*
X138619085Y-146189171D02*
X139476228Y-146189171D01*
X139047657Y-146189171D02*
X139047657Y-144689171D01*
X139190514Y-144903457D01*
X139333371Y-145046314D01*
X139476228Y-145117742D01*
X179598371Y-63597142D02*
X179455514Y-63668571D01*
X179169800Y-63668571D01*
X179026942Y-63597142D01*
X178955514Y-63454285D01*
X178955514Y-63382857D01*
X179026942Y-63240000D01*
X179169800Y-63168571D01*
X179384085Y-63168571D01*
X179526942Y-63097142D01*
X179598371Y-62954285D01*
X179598371Y-62882857D01*
X179526942Y-62740000D01*
X179384085Y-62668571D01*
X179169800Y-62668571D01*
X179026942Y-62740000D01*
X178526942Y-62668571D02*
X177955514Y-62668571D01*
X178312657Y-62168571D02*
X178312657Y-63454285D01*
X178241228Y-63597142D01*
X178098371Y-63668571D01*
X177955514Y-63668571D01*
X176884085Y-63597142D02*
X177026942Y-63668571D01*
X177312657Y-63668571D01*
X177455514Y-63597142D01*
X177526942Y-63454285D01*
X177526942Y-62882857D01*
X177455514Y-62740000D01*
X177312657Y-62668571D01*
X177026942Y-62668571D01*
X176884085Y-62740000D01*
X176812657Y-62882857D01*
X176812657Y-63025714D01*
X177526942Y-63168571D01*
X176169800Y-62668571D02*
X176169800Y-64168571D01*
X176169800Y-62740000D02*
X176026942Y-62668571D01*
X175741228Y-62668571D01*
X175598371Y-62740000D01*
X175526942Y-62811428D01*
X175455514Y-62954285D01*
X175455514Y-63382857D01*
X175526942Y-63525714D01*
X175598371Y-63597142D01*
X175741228Y-63668571D01*
X176026942Y-63668571D01*
X176169800Y-63597142D01*
X174884085Y-63597142D02*
X174741228Y-63668571D01*
X174455514Y-63668571D01*
X174312657Y-63597142D01*
X174241228Y-63454285D01*
X174241228Y-63382857D01*
X174312657Y-63240000D01*
X174455514Y-63168571D01*
X174669800Y-63168571D01*
X174812657Y-63097142D01*
X174884085Y-62954285D01*
X174884085Y-62882857D01*
X174812657Y-62740000D01*
X174669800Y-62668571D01*
X174455514Y-62668571D01*
X174312657Y-62740000D01*
X161984228Y-63470142D02*
X161841371Y-63541571D01*
X161555657Y-63541571D01*
X161412800Y-63470142D01*
X161341371Y-63327285D01*
X161341371Y-63255857D01*
X161412800Y-63113000D01*
X161555657Y-63041571D01*
X161769942Y-63041571D01*
X161912800Y-62970142D01*
X161984228Y-62827285D01*
X161984228Y-62755857D01*
X161912800Y-62613000D01*
X161769942Y-62541571D01*
X161555657Y-62541571D01*
X161412800Y-62613000D01*
X160841371Y-62541571D02*
X160555657Y-63541571D01*
X160269942Y-62827285D01*
X159984228Y-63541571D01*
X159698514Y-62541571D01*
X159127085Y-63541571D02*
X159127085Y-62541571D01*
X159127085Y-62041571D02*
X159198514Y-62113000D01*
X159127085Y-62184428D01*
X159055657Y-62113000D01*
X159127085Y-62041571D01*
X159127085Y-62184428D01*
X158412800Y-62541571D02*
X158412800Y-63541571D01*
X158412800Y-62684428D02*
X158341371Y-62613000D01*
X158198514Y-62541571D01*
X157984228Y-62541571D01*
X157841371Y-62613000D01*
X157769942Y-62755857D01*
X157769942Y-63541571D01*
X156412800Y-62541571D02*
X156412800Y-63755857D01*
X156484228Y-63898714D01*
X156555657Y-63970142D01*
X156698514Y-64041571D01*
X156912800Y-64041571D01*
X157055657Y-63970142D01*
X156412800Y-63470142D02*
X156555657Y-63541571D01*
X156841371Y-63541571D01*
X156984228Y-63470142D01*
X157055657Y-63398714D01*
X157127085Y-63255857D01*
X157127085Y-62827285D01*
X157055657Y-62684428D01*
X156984228Y-62613000D01*
X156841371Y-62541571D01*
X156555657Y-62541571D01*
X156412800Y-62613000D01*
D13*
X172580195Y-35687047D02*
X171128767Y-35687047D01*
X171854481Y-38227047D02*
X171854481Y-35687047D01*
X170282100Y-38227047D02*
X170282100Y-35687047D01*
X169193529Y-38227047D02*
X169193529Y-36896571D01*
X169314481Y-36654666D01*
X169556386Y-36533714D01*
X169919243Y-36533714D01*
X170161148Y-36654666D01*
X170282100Y-36775619D01*
X167016386Y-38106095D02*
X167258291Y-38227047D01*
X167742100Y-38227047D01*
X167984005Y-38106095D01*
X168104957Y-37864190D01*
X168104957Y-36896571D01*
X167984005Y-36654666D01*
X167742100Y-36533714D01*
X167258291Y-36533714D01*
X167016386Y-36654666D01*
X166895434Y-36896571D01*
X166895434Y-37138476D01*
X168104957Y-37380380D01*
X162541148Y-35808000D02*
X162783053Y-35687047D01*
X163145910Y-35687047D01*
X163508767Y-35808000D01*
X163750672Y-36049904D01*
X163871624Y-36291809D01*
X163992576Y-36775619D01*
X163992576Y-37138476D01*
X163871624Y-37622285D01*
X163750672Y-37864190D01*
X163508767Y-38106095D01*
X163145910Y-38227047D01*
X162904005Y-38227047D01*
X162541148Y-38106095D01*
X162420195Y-37985142D01*
X162420195Y-37138476D01*
X162904005Y-37138476D01*
X160243053Y-38227047D02*
X160243053Y-36896571D01*
X160364005Y-36654666D01*
X160605910Y-36533714D01*
X161089719Y-36533714D01*
X161331624Y-36654666D01*
X160243053Y-38106095D02*
X160484957Y-38227047D01*
X161089719Y-38227047D01*
X161331624Y-38106095D01*
X161452576Y-37864190D01*
X161452576Y-37622285D01*
X161331624Y-37380380D01*
X161089719Y-37259428D01*
X160484957Y-37259428D01*
X160243053Y-37138476D01*
X159396386Y-36533714D02*
X158428767Y-36533714D01*
X159033529Y-35687047D02*
X159033529Y-37864190D01*
X158912576Y-38106095D01*
X158670672Y-38227047D01*
X158428767Y-38227047D01*
X157219243Y-38227047D02*
X157461148Y-38106095D01*
X157582100Y-37985142D01*
X157703053Y-37743238D01*
X157703053Y-37017523D01*
X157582100Y-36775619D01*
X157461148Y-36654666D01*
X157219243Y-36533714D01*
X156856386Y-36533714D01*
X156614481Y-36654666D01*
X156493529Y-36775619D01*
X156372576Y-37017523D01*
X156372576Y-37743238D01*
X156493529Y-37985142D01*
X156614481Y-38106095D01*
X156856386Y-38227047D01*
X157219243Y-38227047D01*
X155284005Y-38227047D02*
X155284005Y-36533714D01*
X155284005Y-37017523D02*
X155163053Y-36775619D01*
X155042100Y-36654666D01*
X154800195Y-36533714D01*
X154558291Y-36533714D01*
X152139243Y-35687047D02*
X150687814Y-35687047D01*
X151413529Y-38227047D02*
X151413529Y-35687047D01*
X149841148Y-38227047D02*
X149841148Y-36533714D01*
X149841148Y-37017523D02*
X149720195Y-36775619D01*
X149599243Y-36654666D01*
X149357338Y-36533714D01*
X149115434Y-36533714D01*
X148268767Y-38227047D02*
X148268767Y-36533714D01*
X148268767Y-35687047D02*
X148389719Y-35808000D01*
X148268767Y-35928952D01*
X148147814Y-35808000D01*
X148268767Y-35687047D01*
X148268767Y-35928952D01*
X145970672Y-36533714D02*
X145970672Y-38589904D01*
X146091624Y-38831809D01*
X146212576Y-38952761D01*
X146454481Y-39073714D01*
X146817338Y-39073714D01*
X147059243Y-38952761D01*
X145970672Y-38106095D02*
X146212576Y-38227047D01*
X146696386Y-38227047D01*
X146938291Y-38106095D01*
X147059243Y-37985142D01*
X147180195Y-37743238D01*
X147180195Y-37017523D01*
X147059243Y-36775619D01*
X146938291Y-36654666D01*
X146696386Y-36533714D01*
X146212576Y-36533714D01*
X145970672Y-36654666D01*
X143672576Y-36533714D02*
X143672576Y-38589904D01*
X143793529Y-38831809D01*
X143914481Y-38952761D01*
X144156386Y-39073714D01*
X144519243Y-39073714D01*
X144761148Y-38952761D01*
X143672576Y-38106095D02*
X143914481Y-38227047D01*
X144398291Y-38227047D01*
X144640195Y-38106095D01*
X144761148Y-37985142D01*
X144882100Y-37743238D01*
X144882100Y-37017523D01*
X144761148Y-36775619D01*
X144640195Y-36654666D01*
X144398291Y-36533714D01*
X143914481Y-36533714D01*
X143672576Y-36654666D01*
X141495434Y-38106095D02*
X141737338Y-38227047D01*
X142221148Y-38227047D01*
X142463053Y-38106095D01*
X142584005Y-37864190D01*
X142584005Y-36896571D01*
X142463053Y-36654666D01*
X142221148Y-36533714D01*
X141737338Y-36533714D01*
X141495434Y-36654666D01*
X141374481Y-36896571D01*
X141374481Y-37138476D01*
X142584005Y-37380380D01*
X140285910Y-38227047D02*
X140285910Y-36533714D01*
X140285910Y-37017523D02*
X140164957Y-36775619D01*
X140044005Y-36654666D01*
X139802100Y-36533714D01*
X139560195Y-36533714D01*
X136899243Y-38106095D02*
X136536386Y-38227047D01*
X135931624Y-38227047D01*
X135689719Y-38106095D01*
X135568767Y-37985142D01*
X135447814Y-37743238D01*
X135447814Y-37501333D01*
X135568767Y-37259428D01*
X135689719Y-37138476D01*
X135931624Y-37017523D01*
X136415434Y-36896571D01*
X136657338Y-36775619D01*
X136778291Y-36654666D01*
X136899243Y-36412761D01*
X136899243Y-36170857D01*
X136778291Y-35928952D01*
X136657338Y-35808000D01*
X136415434Y-35687047D01*
X135810672Y-35687047D01*
X135447814Y-35808000D01*
X133391624Y-38106095D02*
X133633529Y-38227047D01*
X134117338Y-38227047D01*
X134359243Y-38106095D01*
X134480195Y-37864190D01*
X134480195Y-36896571D01*
X134359243Y-36654666D01*
X134117338Y-36533714D01*
X133633529Y-36533714D01*
X133391624Y-36654666D01*
X133270672Y-36896571D01*
X133270672Y-37138476D01*
X134480195Y-37380380D01*
X131093529Y-36533714D02*
X131093529Y-39073714D01*
X131093529Y-38106095D02*
X131335433Y-38227047D01*
X131819243Y-38227047D01*
X132061148Y-38106095D01*
X132182100Y-37985142D01*
X132303053Y-37743238D01*
X132303053Y-37017523D01*
X132182100Y-36775619D01*
X132061148Y-36654666D01*
X131819243Y-36533714D01*
X131335433Y-36533714D01*
X131093529Y-36654666D01*
X128795433Y-36533714D02*
X128795433Y-38227047D01*
X129884005Y-36533714D02*
X129884005Y-37864190D01*
X129763053Y-38106095D01*
X129521148Y-38227047D01*
X129158291Y-38227047D01*
X128916386Y-38106095D01*
X128795433Y-37985142D01*
X126618291Y-38106095D02*
X126860195Y-38227047D01*
X127344005Y-38227047D01*
X127585910Y-38106095D01*
X127706862Y-37864190D01*
X127706862Y-36896571D01*
X127585910Y-36654666D01*
X127344005Y-36533714D01*
X126860195Y-36533714D01*
X126618291Y-36654666D01*
X126497338Y-36896571D01*
X126497338Y-37138476D01*
X127706862Y-37380380D01*
X125408767Y-36533714D02*
X125408767Y-38227047D01*
X125408767Y-36775619D02*
X125287814Y-36654666D01*
X125045910Y-36533714D01*
X124683053Y-36533714D01*
X124441148Y-36654666D01*
X124320195Y-36896571D01*
X124320195Y-38227047D01*
X122022100Y-38106095D02*
X122264005Y-38227047D01*
X122747814Y-38227047D01*
X122989719Y-38106095D01*
X123110672Y-37985142D01*
X123231624Y-37743238D01*
X123231624Y-37017523D01*
X123110672Y-36775619D01*
X122989719Y-36654666D01*
X122747814Y-36533714D01*
X122264005Y-36533714D01*
X122022100Y-36654666D01*
X119965910Y-38106095D02*
X120207814Y-38227047D01*
X120691624Y-38227047D01*
X120933529Y-38106095D01*
X121054481Y-37864190D01*
X121054481Y-36896571D01*
X120933529Y-36654666D01*
X120691624Y-36533714D01*
X120207814Y-36533714D01*
X119965910Y-36654666D01*
X119844957Y-36896571D01*
X119844957Y-37138476D01*
X121054481Y-37380380D01*
X118756386Y-38227047D02*
X118756386Y-36533714D01*
X118756386Y-37017523D02*
X118635433Y-36775619D01*
X118514481Y-36654666D01*
X118272576Y-36533714D01*
X118030672Y-36533714D01*
D12*
X169791800Y-77420428D02*
X169720371Y-77349000D01*
X169577514Y-77277571D01*
X169220371Y-77277571D01*
X169077514Y-77349000D01*
X169006085Y-77420428D01*
X168934657Y-77563285D01*
X168934657Y-77706142D01*
X169006085Y-77920428D01*
X169863228Y-78777571D01*
X168934657Y-78777571D01*
X168434657Y-78777571D02*
X167648942Y-77777571D01*
X168434657Y-77777571D02*
X167648942Y-78777571D01*
X166863228Y-77920428D02*
X167006085Y-77849000D01*
X167077514Y-77777571D01*
X167148942Y-77634714D01*
X167148942Y-77563285D01*
X167077514Y-77420428D01*
X167006085Y-77349000D01*
X166863228Y-77277571D01*
X166577514Y-77277571D01*
X166434657Y-77349000D01*
X166363228Y-77420428D01*
X166291800Y-77563285D01*
X166291800Y-77634714D01*
X166363228Y-77777571D01*
X166434657Y-77849000D01*
X166577514Y-77920428D01*
X166863228Y-77920428D01*
X167006085Y-77991857D01*
X167077514Y-78063285D01*
X167148942Y-78206142D01*
X167148942Y-78491857D01*
X167077514Y-78634714D01*
X167006085Y-78706142D01*
X166863228Y-78777571D01*
X166577514Y-78777571D01*
X166434657Y-78706142D01*
X166363228Y-78634714D01*
X166291800Y-78491857D01*
X166291800Y-78206142D01*
X166363228Y-78063285D01*
X166434657Y-77991857D01*
X166577514Y-77920428D01*
X169648942Y-90969571D02*
X170506085Y-90969571D01*
X170077514Y-90969571D02*
X170077514Y-89469571D01*
X170220371Y-89683857D01*
X170363228Y-89826714D01*
X170506085Y-89898142D01*
X169148942Y-90969571D02*
X168363228Y-89969571D01*
X169148942Y-89969571D02*
X168363228Y-90969571D01*
X167006085Y-90969571D02*
X167863228Y-90969571D01*
X167434657Y-90969571D02*
X167434657Y-89469571D01*
X167577514Y-89683857D01*
X167720371Y-89826714D01*
X167863228Y-89898142D01*
X165720371Y-89469571D02*
X166006085Y-89469571D01*
X166148942Y-89541000D01*
X166220371Y-89612428D01*
X166363228Y-89826714D01*
X166434657Y-90112428D01*
X166434657Y-90683857D01*
X166363228Y-90826714D01*
X166291800Y-90898142D01*
X166148942Y-90969571D01*
X165863228Y-90969571D01*
X165720371Y-90898142D01*
X165648942Y-90826714D01*
X165577514Y-90683857D01*
X165577514Y-90326714D01*
X165648942Y-90183857D01*
X165720371Y-90112428D01*
X165863228Y-90041000D01*
X166148942Y-90041000D01*
X166291800Y-90112428D01*
X166363228Y-90183857D01*
X166434657Y-90326714D01*
X161019942Y-44491571D02*
X161019942Y-43491571D01*
X161019942Y-43777285D02*
X160948514Y-43634428D01*
X160877085Y-43563000D01*
X160734228Y-43491571D01*
X160591371Y-43491571D01*
X159448514Y-44491571D02*
X159448514Y-43705857D01*
X159519942Y-43563000D01*
X159662800Y-43491571D01*
X159948514Y-43491571D01*
X160091371Y-43563000D01*
X159448514Y-44420142D02*
X159591371Y-44491571D01*
X159948514Y-44491571D01*
X160091371Y-44420142D01*
X160162800Y-44277285D01*
X160162800Y-44134428D01*
X160091371Y-43991571D01*
X159948514Y-43920142D01*
X159591371Y-43920142D01*
X159448514Y-43848714D01*
X158948514Y-43491571D02*
X158377085Y-43491571D01*
X158734228Y-42991571D02*
X158734228Y-44277285D01*
X158662800Y-44420142D01*
X158519942Y-44491571D01*
X158377085Y-44491571D01*
X157305657Y-44420142D02*
X157448514Y-44491571D01*
X157734228Y-44491571D01*
X157877085Y-44420142D01*
X157948514Y-44277285D01*
X157948514Y-43705857D01*
X157877085Y-43563000D01*
X157734228Y-43491571D01*
X157448514Y-43491571D01*
X157305657Y-43563000D01*
X157234228Y-43705857D01*
X157234228Y-43848714D01*
X157948514Y-43991571D01*
X179634085Y-43491571D02*
X179348371Y-44491571D01*
X179062657Y-43777285D01*
X178776942Y-44491571D01*
X178491228Y-43491571D01*
X177919800Y-44491571D02*
X177919800Y-43491571D01*
X177919800Y-42991571D02*
X177991228Y-43063000D01*
X177919800Y-43134428D01*
X177848371Y-43063000D01*
X177919800Y-42991571D01*
X177919800Y-43134428D01*
X176562657Y-44491571D02*
X176562657Y-42991571D01*
X176562657Y-44420142D02*
X176705514Y-44491571D01*
X176991228Y-44491571D01*
X177134085Y-44420142D01*
X177205514Y-44348714D01*
X177276942Y-44205857D01*
X177276942Y-43777285D01*
X177205514Y-43634428D01*
X177134085Y-43563000D01*
X176991228Y-43491571D01*
X176705514Y-43491571D01*
X176562657Y-43563000D01*
X176062657Y-43491571D02*
X175491228Y-43491571D01*
X175848371Y-42991571D02*
X175848371Y-44277285D01*
X175776942Y-44420142D01*
X175634085Y-44491571D01*
X175491228Y-44491571D01*
X174991228Y-44491571D02*
X174991228Y-42991571D01*
X174348371Y-44491571D02*
X174348371Y-43705857D01*
X174419800Y-43563000D01*
X174562657Y-43491571D01*
X174776942Y-43491571D01*
X174919800Y-43563000D01*
X174991228Y-43634428D01*
X180618228Y-146147142D02*
X180761085Y-146218571D01*
X181046800Y-146218571D01*
X181189657Y-146147142D01*
X181261085Y-146075714D01*
X181332514Y-145932857D01*
X181332514Y-145504285D01*
X181261085Y-145361428D01*
X181189657Y-145290000D01*
X181046800Y-145218571D01*
X180761085Y-145218571D01*
X180618228Y-145290000D01*
X179761085Y-146218571D02*
X179903942Y-146147142D01*
X179975371Y-146004285D01*
X179975371Y-144718571D01*
X178975371Y-146218571D02*
X179118228Y-146147142D01*
X179189657Y-146075714D01*
X179261085Y-145932857D01*
X179261085Y-145504285D01*
X179189657Y-145361428D01*
X179118228Y-145290000D01*
X178975371Y-145218571D01*
X178761085Y-145218571D01*
X178618228Y-145290000D01*
X178546800Y-145361428D01*
X178475371Y-145504285D01*
X178475371Y-145932857D01*
X178546800Y-146075714D01*
X178618228Y-146147142D01*
X178761085Y-146218571D01*
X178975371Y-146218571D01*
X177189657Y-146147142D02*
X177332514Y-146218571D01*
X177618228Y-146218571D01*
X177761085Y-146147142D01*
X177832514Y-146075714D01*
X177903942Y-145932857D01*
X177903942Y-145504285D01*
X177832514Y-145361428D01*
X177761085Y-145290000D01*
X177618228Y-145218571D01*
X177332514Y-145218571D01*
X177189657Y-145290000D01*
X176546800Y-146218571D02*
X176546800Y-144718571D01*
X176403942Y-145647142D02*
X175975371Y-146218571D01*
X175975371Y-145218571D02*
X176546800Y-145790000D01*
X174189657Y-146218571D02*
X174189657Y-145218571D01*
X174189657Y-144718571D02*
X174261085Y-144790000D01*
X174189657Y-144861428D01*
X174118228Y-144790000D01*
X174189657Y-144718571D01*
X174189657Y-144861428D01*
X173475371Y-145218571D02*
X173475371Y-146218571D01*
X173475371Y-145361428D02*
X173403942Y-145290000D01*
X173261085Y-145218571D01*
X173046800Y-145218571D01*
X172903942Y-145290000D01*
X172832514Y-145432857D01*
X172832514Y-146218571D01*
G36*
X129985016Y-143269259D02*
G01*
X129893008Y-143455786D01*
X129769270Y-143598566D01*
X129636726Y-143680551D01*
X129518302Y-143684688D01*
X129436921Y-143593925D01*
X129396795Y-143530370D01*
X129344636Y-143578050D01*
X129305793Y-143649566D01*
X129307759Y-143733346D01*
X129416000Y-143758000D01*
X129489816Y-143769907D01*
X129543000Y-143821500D01*
X129542863Y-143825221D01*
X129489254Y-143876207D01*
X129375509Y-143882594D01*
X129255413Y-143849984D01*
X129182749Y-143783978D01*
X129175744Y-143755296D01*
X129202860Y-143586748D01*
X129275290Y-143422879D01*
X129543000Y-143422879D01*
X129555121Y-143475900D01*
X129622837Y-143497657D01*
X129717954Y-143424625D01*
X129763085Y-143356233D01*
X129818855Y-143222017D01*
X129836433Y-143107788D01*
X129804880Y-143059500D01*
X129758373Y-143078443D01*
X129663330Y-143174325D01*
X129579235Y-143306210D01*
X129543000Y-143422879D01*
X129275290Y-143422879D01*
X129315525Y-143331848D01*
X129511943Y-142994902D01*
X129674866Y-142736816D01*
X129858515Y-142867585D01*
X129916201Y-142911673D01*
X130007183Y-143026836D01*
X130009796Y-143107788D01*
X130011688Y-143166414D01*
X129985016Y-143269259D01*
G37*
D14*
X129985016Y-143269259D02*
X129893008Y-143455786D01*
X129769270Y-143598566D01*
X129636726Y-143680551D01*
X129518302Y-143684688D01*
X129436921Y-143593925D01*
X129396795Y-143530370D01*
X129344636Y-143578050D01*
X129305793Y-143649566D01*
X129307759Y-143733346D01*
X129416000Y-143758000D01*
X129489816Y-143769907D01*
X129543000Y-143821500D01*
X129542863Y-143825221D01*
X129489254Y-143876207D01*
X129375509Y-143882594D01*
X129255413Y-143849984D01*
X129182749Y-143783978D01*
X129175744Y-143755296D01*
X129202860Y-143586748D01*
X129275290Y-143422879D01*
X129543000Y-143422879D01*
X129555121Y-143475900D01*
X129622837Y-143497657D01*
X129717954Y-143424625D01*
X129763085Y-143356233D01*
X129818855Y-143222017D01*
X129836433Y-143107788D01*
X129804880Y-143059500D01*
X129758373Y-143078443D01*
X129663330Y-143174325D01*
X129579235Y-143306210D01*
X129543000Y-143422879D01*
X129275290Y-143422879D01*
X129315525Y-143331848D01*
X129511943Y-142994902D01*
X129674866Y-142736816D01*
X129858515Y-142867585D01*
X129916201Y-142911673D01*
X130007183Y-143026836D01*
X130009796Y-143107788D01*
X130011688Y-143166414D01*
X129985016Y-143269259D01*
G36*
X132201985Y-144171360D02*
G01*
X132266821Y-144281536D01*
X132322987Y-144371124D01*
X132422815Y-144424411D01*
X132440507Y-144424915D01*
X132505019Y-144448028D01*
X132511188Y-144519585D01*
X132455279Y-144658859D01*
X132333560Y-144885125D01*
X132242734Y-145034817D01*
X132146426Y-145167427D01*
X132086205Y-145218500D01*
X132001345Y-145179625D01*
X131999291Y-145070046D01*
X132085514Y-144911181D01*
X132164842Y-144785691D01*
X132188335Y-144658427D01*
X132152275Y-144481195D01*
X132114284Y-144339655D01*
X132088450Y-144209008D01*
X132099975Y-144151709D01*
X132148547Y-144139000D01*
X132201985Y-144171360D01*
G37*
X132201985Y-144171360D02*
X132266821Y-144281536D01*
X132322987Y-144371124D01*
X132422815Y-144424411D01*
X132440507Y-144424915D01*
X132505019Y-144448028D01*
X132511188Y-144519585D01*
X132455279Y-144658859D01*
X132333560Y-144885125D01*
X132242734Y-145034817D01*
X132146426Y-145167427D01*
X132086205Y-145218500D01*
X132001345Y-145179625D01*
X131999291Y-145070046D01*
X132085514Y-144911181D01*
X132164842Y-144785691D01*
X132188335Y-144658427D01*
X132152275Y-144481195D01*
X132114284Y-144339655D01*
X132088450Y-144209008D01*
X132099975Y-144151709D01*
X132148547Y-144139000D01*
X132201985Y-144171360D01*
G36*
X131258153Y-144246084D02*
G01*
X131139771Y-144409130D01*
X131025704Y-144500699D01*
X130956354Y-144507296D01*
X130845164Y-144436054D01*
X130791614Y-144382081D01*
X130727347Y-144372820D01*
X130707963Y-144394933D01*
X130699083Y-144478994D01*
X130813000Y-144538399D01*
X130886988Y-144570836D01*
X130940000Y-144641055D01*
X130934875Y-144665238D01*
X130860210Y-144706538D01*
X130731356Y-144692394D01*
X130593205Y-144624896D01*
X130550617Y-144589585D01*
X130523663Y-144534925D01*
X130539324Y-144449156D01*
X130603962Y-144305648D01*
X130639506Y-144238139D01*
X130950618Y-144238139D01*
X130961713Y-144282832D01*
X130995928Y-144303149D01*
X131073224Y-144225387D01*
X131175368Y-144078645D01*
X131224178Y-143937835D01*
X131194017Y-143853260D01*
X131193880Y-143853176D01*
X131122630Y-143874375D01*
X131032783Y-143975104D01*
X130968101Y-144110940D01*
X130950618Y-144238139D01*
X130639506Y-144238139D01*
X130723943Y-144077768D01*
X130760639Y-144010563D01*
X130881621Y-143804292D01*
X130982743Y-143653630D01*
X131045145Y-143587372D01*
X131118896Y-143589612D01*
X131238973Y-143664094D01*
X131341177Y-143785834D01*
X131384263Y-143914987D01*
X131378928Y-143937835D01*
X131349917Y-144062092D01*
X131258153Y-144246084D01*
G37*
X131258153Y-144246084D02*
X131139771Y-144409130D01*
X131025704Y-144500699D01*
X130956354Y-144507296D01*
X130845164Y-144436054D01*
X130791614Y-144382081D01*
X130727347Y-144372820D01*
X130707963Y-144394933D01*
X130699083Y-144478994D01*
X130813000Y-144538399D01*
X130886988Y-144570836D01*
X130940000Y-144641055D01*
X130934875Y-144665238D01*
X130860210Y-144706538D01*
X130731356Y-144692394D01*
X130593205Y-144624896D01*
X130550617Y-144589585D01*
X130523663Y-144534925D01*
X130539324Y-144449156D01*
X130603962Y-144305648D01*
X130639506Y-144238139D01*
X130950618Y-144238139D01*
X130961713Y-144282832D01*
X130995928Y-144303149D01*
X131073224Y-144225387D01*
X131175368Y-144078645D01*
X131224178Y-143937835D01*
X131194017Y-143853260D01*
X131193880Y-143853176D01*
X131122630Y-143874375D01*
X131032783Y-143975104D01*
X130968101Y-144110940D01*
X130950618Y-144238139D01*
X130639506Y-144238139D01*
X130723943Y-144077768D01*
X130760639Y-144010563D01*
X130881621Y-143804292D01*
X130982743Y-143653630D01*
X131045145Y-143587372D01*
X131118896Y-143589612D01*
X131238973Y-143664094D01*
X131341177Y-143785834D01*
X131384263Y-143914987D01*
X131378928Y-143937835D01*
X131349917Y-144062092D01*
X131258153Y-144246084D01*
G36*
X123625387Y-145174381D02*
G01*
X123625036Y-145177977D01*
X123598170Y-145311273D01*
X123525977Y-145372514D01*
X123367625Y-145396958D01*
X123358377Y-145397764D01*
X123189274Y-145435727D01*
X123129500Y-145504927D01*
X123110737Y-145564490D01*
X123018375Y-145656174D01*
X122929847Y-145684549D01*
X122780250Y-145634283D01*
X122736779Y-145600784D01*
X122679377Y-145508700D01*
X122675372Y-145366191D01*
X122720658Y-145139125D01*
X122734209Y-145017677D01*
X122698348Y-144964500D01*
X122665927Y-144990390D01*
X122666601Y-145091500D01*
X122672416Y-145174731D01*
X122604563Y-145218500D01*
X122591781Y-145217563D01*
X122506153Y-145153332D01*
X122466530Y-145029187D01*
X122493299Y-144902944D01*
X122576487Y-144856613D01*
X122723641Y-144848290D01*
X122825741Y-144866102D01*
X122880569Y-144911923D01*
X122898770Y-145018345D01*
X122895747Y-145218500D01*
X122894589Y-145256797D01*
X122894902Y-145424562D01*
X122909757Y-145477309D01*
X122941326Y-145424875D01*
X122966278Y-145370846D01*
X123028053Y-145306403D01*
X123142244Y-145273525D01*
X123346142Y-145256723D01*
X123413037Y-145245606D01*
X123490146Y-145188890D01*
X123472434Y-145123072D01*
X123357042Y-145091500D01*
X123292142Y-145083709D01*
X123126497Y-145007943D01*
X122993511Y-144882190D01*
X122949814Y-144771803D01*
X123142770Y-144771803D01*
X123191727Y-144867715D01*
X123259095Y-144931419D01*
X123346154Y-144962260D01*
X123383500Y-144908775D01*
X123378287Y-144883001D01*
X123314941Y-144798179D01*
X123221358Y-144734262D01*
X123150667Y-144731666D01*
X123142770Y-144771803D01*
X122949814Y-144771803D01*
X122939000Y-144744484D01*
X122939419Y-144734119D01*
X123001571Y-144627232D01*
X123135506Y-144570135D01*
X123292716Y-144584736D01*
X123323237Y-144598100D01*
X123486852Y-144738635D01*
X123576591Y-144908775D01*
X123596801Y-144947093D01*
X123625387Y-145174381D01*
G37*
X123625387Y-145174381D02*
X123625036Y-145177977D01*
X123598170Y-145311273D01*
X123525977Y-145372514D01*
X123367625Y-145396958D01*
X123358377Y-145397764D01*
X123189274Y-145435727D01*
X123129500Y-145504927D01*
X123110737Y-145564490D01*
X123018375Y-145656174D01*
X122929847Y-145684549D01*
X122780250Y-145634283D01*
X122736779Y-145600784D01*
X122679377Y-145508700D01*
X122675372Y-145366191D01*
X122720658Y-145139125D01*
X122734209Y-145017677D01*
X122698348Y-144964500D01*
X122665927Y-144990390D01*
X122666601Y-145091500D01*
X122672416Y-145174731D01*
X122604563Y-145218500D01*
X122591781Y-145217563D01*
X122506153Y-145153332D01*
X122466530Y-145029187D01*
X122493299Y-144902944D01*
X122576487Y-144856613D01*
X122723641Y-144848290D01*
X122825741Y-144866102D01*
X122880569Y-144911923D01*
X122898770Y-145018345D01*
X122895747Y-145218500D01*
X122894589Y-145256797D01*
X122894902Y-145424562D01*
X122909757Y-145477309D01*
X122941326Y-145424875D01*
X122966278Y-145370846D01*
X123028053Y-145306403D01*
X123142244Y-145273525D01*
X123346142Y-145256723D01*
X123413037Y-145245606D01*
X123490146Y-145188890D01*
X123472434Y-145123072D01*
X123357042Y-145091500D01*
X123292142Y-145083709D01*
X123126497Y-145007943D01*
X122993511Y-144882190D01*
X122949814Y-144771803D01*
X123142770Y-144771803D01*
X123191727Y-144867715D01*
X123259095Y-144931419D01*
X123346154Y-144962260D01*
X123383500Y-144908775D01*
X123378287Y-144883001D01*
X123314941Y-144798179D01*
X123221358Y-144734262D01*
X123150667Y-144731666D01*
X123142770Y-144771803D01*
X122949814Y-144771803D01*
X122939000Y-144744484D01*
X122939419Y-144734119D01*
X123001571Y-144627232D01*
X123135506Y-144570135D01*
X123292716Y-144584736D01*
X123323237Y-144598100D01*
X123486852Y-144738635D01*
X123576591Y-144908775D01*
X123596801Y-144947093D01*
X123625387Y-145174381D01*
G36*
X123806436Y-143783981D02*
G01*
X123887497Y-143901111D01*
X123990566Y-144085657D01*
X124101650Y-144307904D01*
X124206753Y-144538141D01*
X124291882Y-144746655D01*
X124343041Y-144903734D01*
X124346236Y-144979664D01*
X124345904Y-144979994D01*
X124274395Y-144979029D01*
X124185900Y-144854226D01*
X124122991Y-144758651D01*
X123990121Y-144615302D01*
X123846890Y-144502328D01*
X123734985Y-144456500D01*
X123701903Y-144484258D01*
X123737871Y-144599221D01*
X123860800Y-144801254D01*
X123904463Y-144870218D01*
X123973551Y-145012256D01*
X123984052Y-145095866D01*
X123920052Y-145150574D01*
X123830275Y-145108142D01*
X123714337Y-144948625D01*
X123700332Y-144924989D01*
X123576469Y-144662123D01*
X123544204Y-144459852D01*
X123605556Y-144329661D01*
X123670022Y-144294018D01*
X123795442Y-144288652D01*
X123825635Y-144298845D01*
X123882995Y-144290984D01*
X123864473Y-144206562D01*
X123768846Y-144033875D01*
X123704490Y-143911117D01*
X123689446Y-143795770D01*
X123770835Y-143758000D01*
X123806436Y-143783981D01*
G37*
X123806436Y-143783981D02*
X123887497Y-143901111D01*
X123990566Y-144085657D01*
X124101650Y-144307904D01*
X124206753Y-144538141D01*
X124291882Y-144746655D01*
X124343041Y-144903734D01*
X124346236Y-144979664D01*
X124345904Y-144979994D01*
X124274395Y-144979029D01*
X124185900Y-144854226D01*
X124122991Y-144758651D01*
X123990121Y-144615302D01*
X123846890Y-144502328D01*
X123734985Y-144456500D01*
X123701903Y-144484258D01*
X123737871Y-144599221D01*
X123860800Y-144801254D01*
X123904463Y-144870218D01*
X123973551Y-145012256D01*
X123984052Y-145095866D01*
X123920052Y-145150574D01*
X123830275Y-145108142D01*
X123714337Y-144948625D01*
X123700332Y-144924989D01*
X123576469Y-144662123D01*
X123544204Y-144459852D01*
X123605556Y-144329661D01*
X123670022Y-144294018D01*
X123795442Y-144288652D01*
X123825635Y-144298845D01*
X123882995Y-144290984D01*
X123864473Y-144206562D01*
X123768846Y-144033875D01*
X123704490Y-143911117D01*
X123689446Y-143795770D01*
X123770835Y-143758000D01*
X123806436Y-143783981D01*
G36*
X122260506Y-145029053D02*
G01*
X122329462Y-145084237D01*
X122421780Y-145221631D01*
X122519163Y-145403801D01*
X122603316Y-145593311D01*
X122655941Y-145752727D01*
X122658742Y-145844615D01*
X122648761Y-145860353D01*
X122606637Y-145904328D01*
X122561237Y-145884054D01*
X122495406Y-145782747D01*
X122391992Y-145583625D01*
X122314408Y-145437926D01*
X122221748Y-145285079D01*
X122160537Y-145209724D01*
X122128137Y-145148983D01*
X122167129Y-145067638D01*
X122260123Y-145029044D01*
X122260506Y-145029053D01*
G37*
X122260506Y-145029053D02*
X122329462Y-145084237D01*
X122421780Y-145221631D01*
X122519163Y-145403801D01*
X122603316Y-145593311D01*
X122655941Y-145752727D01*
X122658742Y-145844615D01*
X122648761Y-145860353D01*
X122606637Y-145904328D01*
X122561237Y-145884054D01*
X122495406Y-145782747D01*
X122391992Y-145583625D01*
X122314408Y-145437926D01*
X122221748Y-145285079D01*
X122160537Y-145209724D01*
X122128137Y-145148983D01*
X122167129Y-145067638D01*
X122260123Y-145029044D01*
X122260506Y-145029053D01*
G36*
X122113500Y-145694750D02*
G01*
X122088701Y-145717385D01*
X122050000Y-145825497D01*
X122056546Y-145865839D01*
X122113500Y-145917000D01*
X122142712Y-145906253D01*
X122177000Y-145821750D01*
X122188064Y-145777329D01*
X122272250Y-145726500D01*
X122327678Y-145737238D01*
X122363104Y-145820195D01*
X122301766Y-145984674D01*
X122230588Y-146066237D01*
X122100687Y-146101253D01*
X121972404Y-146056335D01*
X121884660Y-145948762D01*
X121876379Y-145795815D01*
X121876813Y-145708676D01*
X121783600Y-145641358D01*
X121727291Y-145611721D01*
X121678813Y-145504700D01*
X121693367Y-145435402D01*
X121894334Y-145435402D01*
X121898772Y-145500951D01*
X121919268Y-145547110D01*
X121966094Y-145597443D01*
X121986500Y-145539747D01*
X121984244Y-145522500D01*
X121923728Y-145441199D01*
X121894334Y-145435402D01*
X121693367Y-145435402D01*
X121706779Y-145371542D01*
X121808158Y-145259404D01*
X121815198Y-145255111D01*
X121923730Y-145232427D01*
X122046283Y-145310386D01*
X122148478Y-145450557D01*
X122164280Y-145539747D01*
X122173836Y-145593692D01*
X122113500Y-145694750D01*
G37*
X122113500Y-145694750D02*
X122088701Y-145717385D01*
X122050000Y-145825497D01*
X122056546Y-145865839D01*
X122113500Y-145917000D01*
X122142712Y-145906253D01*
X122177000Y-145821750D01*
X122188064Y-145777329D01*
X122272250Y-145726500D01*
X122327678Y-145737238D01*
X122363104Y-145820195D01*
X122301766Y-145984674D01*
X122230588Y-146066237D01*
X122100687Y-146101253D01*
X121972404Y-146056335D01*
X121884660Y-145948762D01*
X121876379Y-145795815D01*
X121876813Y-145708676D01*
X121783600Y-145641358D01*
X121727291Y-145611721D01*
X121678813Y-145504700D01*
X121693367Y-145435402D01*
X121894334Y-145435402D01*
X121898772Y-145500951D01*
X121919268Y-145547110D01*
X121966094Y-145597443D01*
X121986500Y-145539747D01*
X121984244Y-145522500D01*
X121923728Y-145441199D01*
X121894334Y-145435402D01*
X121693367Y-145435402D01*
X121706779Y-145371542D01*
X121808158Y-145259404D01*
X121815198Y-145255111D01*
X121923730Y-145232427D01*
X122046283Y-145310386D01*
X122148478Y-145450557D01*
X122164280Y-145539747D01*
X122173836Y-145593692D01*
X122113500Y-145694750D01*
G36*
X135856723Y-146682610D02*
G01*
X135823751Y-146992951D01*
X135745565Y-147241873D01*
X135607247Y-147469600D01*
X135393879Y-147716357D01*
X135204359Y-147882086D01*
X134898353Y-148099142D01*
X134486392Y-148358910D01*
X133974101Y-148657992D01*
X133367105Y-148992992D01*
X132671029Y-149360515D01*
X132658982Y-149366761D01*
X132310503Y-149552374D01*
X131995297Y-149729251D01*
X131733466Y-149885416D01*
X131545108Y-150008897D01*
X131450323Y-150087719D01*
X131413384Y-150139772D01*
X131309126Y-150374405D01*
X131270861Y-150624949D01*
X131308865Y-150836974D01*
X131340135Y-150887857D01*
X131459283Y-151037479D01*
X131646248Y-151248940D01*
X131885242Y-151506100D01*
X132160476Y-151792820D01*
X132456161Y-152092961D01*
X132756507Y-152390384D01*
X133045726Y-152668949D01*
X133308029Y-152912517D01*
X133527625Y-153104949D01*
X133697556Y-153251502D01*
X133880604Y-153421387D01*
X134005379Y-153552122D01*
X134051500Y-153623530D01*
X134046937Y-153645337D01*
X133980792Y-153753522D01*
X133861000Y-153886250D01*
X133713339Y-154082003D01*
X133679386Y-154294443D01*
X133770364Y-154519379D01*
X133829994Y-154660398D01*
X133849739Y-154850520D01*
X133827754Y-154939841D01*
X133726444Y-155037684D01*
X133547330Y-155035782D01*
X133289913Y-154934210D01*
X133055628Y-154845997D01*
X132797115Y-154819307D01*
X132679082Y-154836020D01*
X132574226Y-154894726D01*
X132518521Y-155023837D01*
X132462074Y-155165537D01*
X132387319Y-155260990D01*
X132333961Y-155290390D01*
X132230924Y-155304729D01*
X132115694Y-155243045D01*
X131956000Y-155092750D01*
X131842645Y-154985888D01*
X131673954Y-154889042D01*
X131509933Y-154898636D01*
X131317182Y-155010363D01*
X131270133Y-155044943D01*
X131163329Y-155110679D01*
X131093592Y-155103587D01*
X131011350Y-155026238D01*
X130956952Y-154941450D01*
X130867964Y-154754008D01*
X130764810Y-154500929D01*
X130660482Y-154212349D01*
X130629131Y-154120718D01*
X130538056Y-153865304D01*
X130444377Y-153623956D01*
X130339571Y-153378851D01*
X130215112Y-153112170D01*
X130062476Y-152806090D01*
X129873139Y-152442791D01*
X129638575Y-152004451D01*
X129350261Y-151473250D01*
X129321892Y-151421072D01*
X129128886Y-151059513D01*
X128954712Y-150722387D01*
X128810140Y-150431307D01*
X128705940Y-150207887D01*
X128652882Y-150073741D01*
X128651606Y-150069302D01*
X128619499Y-149735341D01*
X128700614Y-149397987D01*
X128886944Y-149090872D01*
X128947397Y-149024840D01*
X129163020Y-148827129D01*
X129467819Y-148581323D01*
X129847235Y-148298436D01*
X130286704Y-147989478D01*
X130771667Y-147665463D01*
X130959927Y-147541824D01*
X131204604Y-147374776D01*
X131370469Y-147247617D01*
X131476080Y-147143682D01*
X131539990Y-147046308D01*
X131580756Y-146938830D01*
X131617734Y-146783009D01*
X131609310Y-146629873D01*
X131535568Y-146447077D01*
X131479315Y-146356477D01*
X131344590Y-146217377D01*
X131140424Y-146069765D01*
X130856418Y-145907899D01*
X130482179Y-145726037D01*
X130007308Y-145518436D01*
X129421411Y-145279355D01*
X129403936Y-145272405D01*
X128926488Y-145090267D01*
X128538820Y-144961972D01*
X128218589Y-144883271D01*
X127943449Y-144849910D01*
X127691054Y-144857640D01*
X127439058Y-144902209D01*
X127197804Y-144972131D01*
X126860883Y-145089131D01*
X126462659Y-145240566D01*
X126030028Y-145415546D01*
X125589886Y-145603182D01*
X125169132Y-145792583D01*
X124794662Y-145972860D01*
X124621829Y-146061080D01*
X124375127Y-146196798D01*
X124210719Y-146307262D01*
X124106145Y-146408650D01*
X124038947Y-146517135D01*
X123996051Y-146631161D01*
X123991721Y-146863054D01*
X124111413Y-147070143D01*
X124355604Y-147253536D01*
X124502943Y-147339689D01*
X124796018Y-147523094D01*
X125135516Y-147746057D01*
X125495750Y-147990765D01*
X125851033Y-148239409D01*
X126175680Y-148474176D01*
X126444004Y-148677256D01*
X126630318Y-148830838D01*
X126792365Y-148988260D01*
X127035256Y-149307294D01*
X127158016Y-149625410D01*
X127164769Y-149951255D01*
X127137234Y-150050538D01*
X127049451Y-150267917D01*
X126911401Y-150563567D01*
X126731520Y-150919652D01*
X126518241Y-151318338D01*
X126248854Y-151811707D01*
X125985233Y-152302220D01*
X125769755Y-152714804D01*
X125594095Y-153066731D01*
X125449932Y-153375274D01*
X125328941Y-153657704D01*
X125222800Y-153931293D01*
X125123186Y-154213313D01*
X125035930Y-154457407D01*
X124932754Y-154716825D01*
X124842146Y-154914988D01*
X124776924Y-155021965D01*
X124741108Y-155059171D01*
X124671283Y-155105996D01*
X124588284Y-155089051D01*
X124445151Y-155006090D01*
X124431666Y-154997788D01*
X124254340Y-154903462D01*
X124119982Y-154885809D01*
X123986836Y-154951512D01*
X123813146Y-155107255D01*
X123628525Y-155255612D01*
X123486337Y-155288016D01*
X123374556Y-155200879D01*
X123280340Y-154991410D01*
X123189491Y-154828128D01*
X123046622Y-154758785D01*
X122840195Y-154784000D01*
X122557972Y-154902264D01*
X122330775Y-155002537D01*
X122121632Y-155046265D01*
X121991532Y-154998492D01*
X121935065Y-154858841D01*
X121949927Y-154683747D01*
X122014440Y-154496869D01*
X122040947Y-154443249D01*
X122105273Y-154233765D01*
X122067833Y-154063754D01*
X121923000Y-153896256D01*
X121886504Y-153862087D01*
X121776700Y-153733721D01*
X121732500Y-153637458D01*
X121756204Y-153591004D01*
X121860482Y-153472615D01*
X122028773Y-153311421D01*
X122240152Y-153128406D01*
X122376058Y-153013393D01*
X122748821Y-152678643D01*
X123151810Y-152294670D01*
X123552635Y-151893565D01*
X123918912Y-151507420D01*
X124218252Y-151168328D01*
X124230471Y-151153699D01*
X124387664Y-150955365D01*
X124477098Y-150806568D01*
X124517225Y-150667105D01*
X124526500Y-150496772D01*
X124521244Y-150360073D01*
X124479810Y-150188835D01*
X124383625Y-150065330D01*
X124378596Y-150061023D01*
X124269050Y-149987783D01*
X124068145Y-149869630D01*
X123795952Y-149717782D01*
X123472540Y-149543457D01*
X123117977Y-149357874D01*
X122552285Y-149061979D01*
X121887859Y-148700778D01*
X121337650Y-148383701D01*
X120902646Y-148111347D01*
X120583838Y-147884314D01*
X120382215Y-147703202D01*
X120225367Y-147521217D01*
X120069947Y-147296689D01*
X119978150Y-147072464D01*
X119934503Y-146806499D01*
X119923534Y-146456750D01*
X119924479Y-146419267D01*
X120209895Y-146419267D01*
X120209912Y-146423772D01*
X120218061Y-146655014D01*
X120246155Y-146862339D01*
X120302744Y-147053010D01*
X120396378Y-147234288D01*
X120535610Y-147413435D01*
X120728990Y-147597712D01*
X120985069Y-147794381D01*
X121312397Y-148010705D01*
X121719527Y-148253945D01*
X122215009Y-148531362D01*
X122807394Y-148850219D01*
X123505233Y-149217777D01*
X123674778Y-149306533D01*
X124146998Y-149554105D01*
X124521394Y-149751385D01*
X124809260Y-149904738D01*
X125021885Y-150020533D01*
X125170561Y-150105137D01*
X125266579Y-150164918D01*
X125321230Y-150206243D01*
X125345807Y-150235479D01*
X125351599Y-150258994D01*
X125349117Y-150272047D01*
X125286870Y-150377742D01*
X125150568Y-150555705D01*
X124953162Y-150792036D01*
X124707599Y-151072834D01*
X124426830Y-151384199D01*
X124123802Y-151712232D01*
X123811465Y-152043033D01*
X123502768Y-152362701D01*
X123210659Y-152657337D01*
X122948087Y-152913040D01*
X122728001Y-153115910D01*
X122563350Y-153252048D01*
X122473134Y-153321536D01*
X122353148Y-153425693D01*
X122305501Y-153485348D01*
X122321230Y-153490349D01*
X122428661Y-153470870D01*
X122615567Y-153419302D01*
X122855662Y-153342473D01*
X122979594Y-153301052D01*
X123210429Y-153226645D01*
X123381595Y-153175206D01*
X123462911Y-153156000D01*
X123466117Y-153175529D01*
X123407165Y-153261995D01*
X123289513Y-153394125D01*
X123280152Y-153403915D01*
X123133121Y-153568073D01*
X122963395Y-153772052D01*
X122788341Y-153992984D01*
X122625326Y-154207999D01*
X122491718Y-154394229D01*
X122404884Y-154528805D01*
X122382192Y-154588858D01*
X122442791Y-154569539D01*
X122576447Y-154491392D01*
X122753895Y-154371346D01*
X122958292Y-154231571D01*
X123202133Y-154076525D01*
X123439085Y-153935803D01*
X123644471Y-153823465D01*
X123793614Y-153753568D01*
X123861837Y-153740169D01*
X123862415Y-153785482D01*
X123831089Y-153922248D01*
X123771723Y-154112987D01*
X123761923Y-154141600D01*
X123660636Y-154444849D01*
X123606808Y-154636875D01*
X123604443Y-154725307D01*
X123657547Y-154717775D01*
X123770124Y-154621906D01*
X123946179Y-154445331D01*
X124005959Y-154384796D01*
X124194514Y-154202936D01*
X124355468Y-154060290D01*
X124459164Y-153983553D01*
X124529110Y-153952831D01*
X124570409Y-153971878D01*
X124586970Y-154069046D01*
X124590000Y-154268763D01*
X124593894Y-154407357D01*
X124615503Y-154551967D01*
X124653500Y-154584750D01*
X124679495Y-154560346D01*
X124717000Y-154450917D01*
X124722054Y-154404131D01*
X124772843Y-154220458D01*
X124871284Y-153951899D01*
X125008775Y-153617633D01*
X125176718Y-153236842D01*
X125366512Y-152828703D01*
X125569557Y-152412397D01*
X125777254Y-152007102D01*
X125981001Y-151632000D01*
X126193595Y-151253500D01*
X126427674Y-150832271D01*
X126607576Y-150497676D01*
X126738104Y-150236028D01*
X126824064Y-150033642D01*
X126870260Y-149876831D01*
X126881498Y-149751911D01*
X126862581Y-149645195D01*
X126818314Y-149542998D01*
X126753503Y-149431634D01*
X126665255Y-149312900D01*
X126441358Y-149086266D01*
X126124928Y-148819012D01*
X125729107Y-148520482D01*
X125267038Y-148200018D01*
X124751863Y-147866962D01*
X124196725Y-147530658D01*
X123614767Y-147200446D01*
X122798283Y-146752752D01*
X123043267Y-146598119D01*
X123293760Y-146444263D01*
X124005344Y-146042712D01*
X124785979Y-145645244D01*
X125595412Y-145270834D01*
X126393392Y-144938457D01*
X127139665Y-144667087D01*
X127842930Y-144433786D01*
X128257920Y-144544365D01*
X128272182Y-144548193D01*
X128657610Y-144666904D01*
X129122504Y-144833285D01*
X129636102Y-145034824D01*
X130167643Y-145259011D01*
X130686363Y-145493334D01*
X131161502Y-145725281D01*
X131497972Y-145899325D01*
X131880396Y-146101918D01*
X132229173Y-146291616D01*
X132528400Y-146459470D01*
X132762171Y-146596534D01*
X132914582Y-146693859D01*
X132969727Y-146742500D01*
X132968646Y-146745562D01*
X132903053Y-146794779D01*
X132755896Y-146881666D01*
X132555100Y-146989584D01*
X132296834Y-147126530D01*
X131818658Y-147395418D01*
X131329500Y-147687637D01*
X130846977Y-147991386D01*
X130388704Y-148294867D01*
X129972295Y-148586281D01*
X129615365Y-148853828D01*
X129335530Y-149085710D01*
X129150405Y-149270128D01*
X129099166Y-149332548D01*
X128998760Y-149475363D01*
X128938144Y-149615264D01*
X128921003Y-149768205D01*
X128951024Y-149950136D01*
X129031894Y-150177009D01*
X129167298Y-150464777D01*
X129360923Y-150829391D01*
X129616455Y-151286802D01*
X129812323Y-151635534D01*
X130085340Y-152132746D01*
X130308402Y-152557495D01*
X130492125Y-152931752D01*
X130647124Y-153277490D01*
X130784015Y-153616681D01*
X130913414Y-153971297D01*
X130971511Y-154134919D01*
X131056449Y-154364211D01*
X131121978Y-154528832D01*
X131157339Y-154601005D01*
X131173501Y-154579852D01*
X131188295Y-154463278D01*
X131194000Y-154275599D01*
X131194003Y-154257378D01*
X131196983Y-154062762D01*
X131213760Y-153969349D01*
X131256377Y-153953050D01*
X131336875Y-153989776D01*
X131357330Y-154002128D01*
X131483877Y-154101891D01*
X131657116Y-154260304D01*
X131845822Y-154449182D01*
X132211894Y-154832344D01*
X132169946Y-154613297D01*
X132152305Y-154535227D01*
X132088181Y-154313675D01*
X132007922Y-154084369D01*
X131964769Y-153964753D01*
X131922252Y-153815030D01*
X131918640Y-153743693D01*
X131921386Y-153741979D01*
X131999840Y-153761671D01*
X132156609Y-153835360D01*
X132366555Y-153948916D01*
X132604539Y-154088211D01*
X132845425Y-154239114D01*
X133064073Y-154387497D01*
X133211669Y-154487887D01*
X133343925Y-154565911D01*
X133405047Y-154585619D01*
X133396271Y-154545463D01*
X133323808Y-154422930D01*
X133196322Y-154240535D01*
X133029271Y-154019274D01*
X132838110Y-153780141D01*
X132638297Y-153544132D01*
X132619157Y-153522163D01*
X132479267Y-153355192D01*
X132385584Y-153231981D01*
X132357503Y-153177830D01*
X132377324Y-153177989D01*
X132492683Y-153205807D01*
X132685969Y-153263425D01*
X132929332Y-153342809D01*
X133060497Y-153385901D01*
X133275649Y-153450199D01*
X133423753Y-153485624D01*
X133478500Y-153485348D01*
X133461066Y-153457398D01*
X133366973Y-153368260D01*
X133218871Y-153251250D01*
X133177377Y-153219266D01*
X132999573Y-153065401D01*
X132769375Y-152848337D01*
X132499723Y-152581972D01*
X132203556Y-152280201D01*
X131893814Y-151956920D01*
X131583438Y-151626026D01*
X131285367Y-151301415D01*
X131012541Y-150996983D01*
X130777900Y-150726626D01*
X130594385Y-150504240D01*
X130474935Y-150343721D01*
X130432490Y-150258967D01*
X130432495Y-150258552D01*
X130441185Y-150232890D01*
X130473799Y-150198954D01*
X130541449Y-150150485D01*
X130655244Y-150081225D01*
X130826294Y-149984915D01*
X131065710Y-149855297D01*
X131384601Y-149686112D01*
X131794078Y-149471102D01*
X132305250Y-149204008D01*
X132915109Y-148883902D01*
X133518975Y-148560391D01*
X134024648Y-148278719D01*
X134440716Y-148031572D01*
X134775768Y-147811632D01*
X135038392Y-147611583D01*
X135237177Y-147424108D01*
X135380711Y-147241890D01*
X135477582Y-147057614D01*
X135536379Y-146863962D01*
X135565691Y-146653619D01*
X135574106Y-146419267D01*
X135570301Y-146247509D01*
X135545714Y-146029275D01*
X135490258Y-145823514D01*
X135394646Y-145616549D01*
X135249589Y-145394698D01*
X135045801Y-145144283D01*
X134773994Y-144851625D01*
X134424880Y-144503045D01*
X133989172Y-144084863D01*
X133762045Y-143871168D01*
X133397496Y-143535055D01*
X133041567Y-143214455D01*
X132714869Y-142927622D01*
X132438011Y-142692809D01*
X132231604Y-142528270D01*
X131670293Y-142107000D01*
X124113708Y-142107000D01*
X123557996Y-142524068D01*
X123430823Y-142623903D01*
X123177546Y-142835727D01*
X122867180Y-143106092D01*
X122520047Y-143416953D01*
X122156468Y-143750267D01*
X121796766Y-144087989D01*
X121448528Y-144421889D01*
X121081862Y-144784175D01*
X120794244Y-145087073D01*
X120576414Y-145344188D01*
X120419108Y-145569129D01*
X120313065Y-145775500D01*
X120249023Y-145976909D01*
X120217720Y-146186962D01*
X120209895Y-146419267D01*
X119924479Y-146419267D01*
X119929811Y-146207734D01*
X119964912Y-145904755D01*
X120041337Y-145634308D01*
X120170826Y-145374237D01*
X120365122Y-145102387D01*
X120635965Y-144796600D01*
X120995098Y-144434722D01*
X121456045Y-143989335D01*
X121938916Y-143532332D01*
X122391051Y-143114239D01*
X122800869Y-142745464D01*
X123156789Y-142436416D01*
X123447230Y-142197501D01*
X123660612Y-142039129D01*
X124032973Y-141789500D01*
X131751028Y-141789500D01*
X132123389Y-142039129D01*
X132317667Y-142182478D01*
X132602593Y-142415578D01*
X132953789Y-142719521D01*
X133359628Y-143083858D01*
X133808483Y-143498137D01*
X134288727Y-143951909D01*
X134788732Y-144434722D01*
X135057034Y-144702256D01*
X135351628Y-145021738D01*
X135566365Y-145300943D01*
X135712959Y-145561959D01*
X135803122Y-145826874D01*
X135848568Y-146117774D01*
X135859634Y-146419267D01*
X135861009Y-146456750D01*
X135856723Y-146682610D01*
G37*
X135856723Y-146682610D02*
X135823751Y-146992951D01*
X135745565Y-147241873D01*
X135607247Y-147469600D01*
X135393879Y-147716357D01*
X135204359Y-147882086D01*
X134898353Y-148099142D01*
X134486392Y-148358910D01*
X133974101Y-148657992D01*
X133367105Y-148992992D01*
X132671029Y-149360515D01*
X132658982Y-149366761D01*
X132310503Y-149552374D01*
X131995297Y-149729251D01*
X131733466Y-149885416D01*
X131545108Y-150008897D01*
X131450323Y-150087719D01*
X131413384Y-150139772D01*
X131309126Y-150374405D01*
X131270861Y-150624949D01*
X131308865Y-150836974D01*
X131340135Y-150887857D01*
X131459283Y-151037479D01*
X131646248Y-151248940D01*
X131885242Y-151506100D01*
X132160476Y-151792820D01*
X132456161Y-152092961D01*
X132756507Y-152390384D01*
X133045726Y-152668949D01*
X133308029Y-152912517D01*
X133527625Y-153104949D01*
X133697556Y-153251502D01*
X133880604Y-153421387D01*
X134005379Y-153552122D01*
X134051500Y-153623530D01*
X134046937Y-153645337D01*
X133980792Y-153753522D01*
X133861000Y-153886250D01*
X133713339Y-154082003D01*
X133679386Y-154294443D01*
X133770364Y-154519379D01*
X133829994Y-154660398D01*
X133849739Y-154850520D01*
X133827754Y-154939841D01*
X133726444Y-155037684D01*
X133547330Y-155035782D01*
X133289913Y-154934210D01*
X133055628Y-154845997D01*
X132797115Y-154819307D01*
X132679082Y-154836020D01*
X132574226Y-154894726D01*
X132518521Y-155023837D01*
X132462074Y-155165537D01*
X132387319Y-155260990D01*
X132333961Y-155290390D01*
X132230924Y-155304729D01*
X132115694Y-155243045D01*
X131956000Y-155092750D01*
X131842645Y-154985888D01*
X131673954Y-154889042D01*
X131509933Y-154898636D01*
X131317182Y-155010363D01*
X131270133Y-155044943D01*
X131163329Y-155110679D01*
X131093592Y-155103587D01*
X131011350Y-155026238D01*
X130956952Y-154941450D01*
X130867964Y-154754008D01*
X130764810Y-154500929D01*
X130660482Y-154212349D01*
X130629131Y-154120718D01*
X130538056Y-153865304D01*
X130444377Y-153623956D01*
X130339571Y-153378851D01*
X130215112Y-153112170D01*
X130062476Y-152806090D01*
X129873139Y-152442791D01*
X129638575Y-152004451D01*
X129350261Y-151473250D01*
X129321892Y-151421072D01*
X129128886Y-151059513D01*
X128954712Y-150722387D01*
X128810140Y-150431307D01*
X128705940Y-150207887D01*
X128652882Y-150073741D01*
X128651606Y-150069302D01*
X128619499Y-149735341D01*
X128700614Y-149397987D01*
X128886944Y-149090872D01*
X128947397Y-149024840D01*
X129163020Y-148827129D01*
X129467819Y-148581323D01*
X129847235Y-148298436D01*
X130286704Y-147989478D01*
X130771667Y-147665463D01*
X130959927Y-147541824D01*
X131204604Y-147374776D01*
X131370469Y-147247617D01*
X131476080Y-147143682D01*
X131539990Y-147046308D01*
X131580756Y-146938830D01*
X131617734Y-146783009D01*
X131609310Y-146629873D01*
X131535568Y-146447077D01*
X131479315Y-146356477D01*
X131344590Y-146217377D01*
X131140424Y-146069765D01*
X130856418Y-145907899D01*
X130482179Y-145726037D01*
X130007308Y-145518436D01*
X129421411Y-145279355D01*
X129403936Y-145272405D01*
X128926488Y-145090267D01*
X128538820Y-144961972D01*
X128218589Y-144883271D01*
X127943449Y-144849910D01*
X127691054Y-144857640D01*
X127439058Y-144902209D01*
X127197804Y-144972131D01*
X126860883Y-145089131D01*
X126462659Y-145240566D01*
X126030028Y-145415546D01*
X125589886Y-145603182D01*
X125169132Y-145792583D01*
X124794662Y-145972860D01*
X124621829Y-146061080D01*
X124375127Y-146196798D01*
X124210719Y-146307262D01*
X124106145Y-146408650D01*
X124038947Y-146517135D01*
X123996051Y-146631161D01*
X123991721Y-146863054D01*
X124111413Y-147070143D01*
X124355604Y-147253536D01*
X124502943Y-147339689D01*
X124796018Y-147523094D01*
X125135516Y-147746057D01*
X125495750Y-147990765D01*
X125851033Y-148239409D01*
X126175680Y-148474176D01*
X126444004Y-148677256D01*
X126630318Y-148830838D01*
X126792365Y-148988260D01*
X127035256Y-149307294D01*
X127158016Y-149625410D01*
X127164769Y-149951255D01*
X127137234Y-150050538D01*
X127049451Y-150267917D01*
X126911401Y-150563567D01*
X126731520Y-150919652D01*
X126518241Y-151318338D01*
X126248854Y-151811707D01*
X125985233Y-152302220D01*
X125769755Y-152714804D01*
X125594095Y-153066731D01*
X125449932Y-153375274D01*
X125328941Y-153657704D01*
X125222800Y-153931293D01*
X125123186Y-154213313D01*
X125035930Y-154457407D01*
X124932754Y-154716825D01*
X124842146Y-154914988D01*
X124776924Y-155021965D01*
X124741108Y-155059171D01*
X124671283Y-155105996D01*
X124588284Y-155089051D01*
X124445151Y-155006090D01*
X124431666Y-154997788D01*
X124254340Y-154903462D01*
X124119982Y-154885809D01*
X123986836Y-154951512D01*
X123813146Y-155107255D01*
X123628525Y-155255612D01*
X123486337Y-155288016D01*
X123374556Y-155200879D01*
X123280340Y-154991410D01*
X123189491Y-154828128D01*
X123046622Y-154758785D01*
X122840195Y-154784000D01*
X122557972Y-154902264D01*
X122330775Y-155002537D01*
X122121632Y-155046265D01*
X121991532Y-154998492D01*
X121935065Y-154858841D01*
X121949927Y-154683747D01*
X122014440Y-154496869D01*
X122040947Y-154443249D01*
X122105273Y-154233765D01*
X122067833Y-154063754D01*
X121923000Y-153896256D01*
X121886504Y-153862087D01*
X121776700Y-153733721D01*
X121732500Y-153637458D01*
X121756204Y-153591004D01*
X121860482Y-153472615D01*
X122028773Y-153311421D01*
X122240152Y-153128406D01*
X122376058Y-153013393D01*
X122748821Y-152678643D01*
X123151810Y-152294670D01*
X123552635Y-151893565D01*
X123918912Y-151507420D01*
X124218252Y-151168328D01*
X124230471Y-151153699D01*
X124387664Y-150955365D01*
X124477098Y-150806568D01*
X124517225Y-150667105D01*
X124526500Y-150496772D01*
X124521244Y-150360073D01*
X124479810Y-150188835D01*
X124383625Y-150065330D01*
X124378596Y-150061023D01*
X124269050Y-149987783D01*
X124068145Y-149869630D01*
X123795952Y-149717782D01*
X123472540Y-149543457D01*
X123117977Y-149357874D01*
X122552285Y-149061979D01*
X121887859Y-148700778D01*
X121337650Y-148383701D01*
X120902646Y-148111347D01*
X120583838Y-147884314D01*
X120382215Y-147703202D01*
X120225367Y-147521217D01*
X120069947Y-147296689D01*
X119978150Y-147072464D01*
X119934503Y-146806499D01*
X119923534Y-146456750D01*
X119924479Y-146419267D01*
X120209895Y-146419267D01*
X120209912Y-146423772D01*
X120218061Y-146655014D01*
X120246155Y-146862339D01*
X120302744Y-147053010D01*
X120396378Y-147234288D01*
X120535610Y-147413435D01*
X120728990Y-147597712D01*
X120985069Y-147794381D01*
X121312397Y-148010705D01*
X121719527Y-148253945D01*
X122215009Y-148531362D01*
X122807394Y-148850219D01*
X123505233Y-149217777D01*
X123674778Y-149306533D01*
X124146998Y-149554105D01*
X124521394Y-149751385D01*
X124809260Y-149904738D01*
X125021885Y-150020533D01*
X125170561Y-150105137D01*
X125266579Y-150164918D01*
X125321230Y-150206243D01*
X125345807Y-150235479D01*
X125351599Y-150258994D01*
X125349117Y-150272047D01*
X125286870Y-150377742D01*
X125150568Y-150555705D01*
X124953162Y-150792036D01*
X124707599Y-151072834D01*
X124426830Y-151384199D01*
X124123802Y-151712232D01*
X123811465Y-152043033D01*
X123502768Y-152362701D01*
X123210659Y-152657337D01*
X122948087Y-152913040D01*
X122728001Y-153115910D01*
X122563350Y-153252048D01*
X122473134Y-153321536D01*
X122353148Y-153425693D01*
X122305501Y-153485348D01*
X122321230Y-153490349D01*
X122428661Y-153470870D01*
X122615567Y-153419302D01*
X122855662Y-153342473D01*
X122979594Y-153301052D01*
X123210429Y-153226645D01*
X123381595Y-153175206D01*
X123462911Y-153156000D01*
X123466117Y-153175529D01*
X123407165Y-153261995D01*
X123289513Y-153394125D01*
X123280152Y-153403915D01*
X123133121Y-153568073D01*
X122963395Y-153772052D01*
X122788341Y-153992984D01*
X122625326Y-154207999D01*
X122491718Y-154394229D01*
X122404884Y-154528805D01*
X122382192Y-154588858D01*
X122442791Y-154569539D01*
X122576447Y-154491392D01*
X122753895Y-154371346D01*
X122958292Y-154231571D01*
X123202133Y-154076525D01*
X123439085Y-153935803D01*
X123644471Y-153823465D01*
X123793614Y-153753568D01*
X123861837Y-153740169D01*
X123862415Y-153785482D01*
X123831089Y-153922248D01*
X123771723Y-154112987D01*
X123761923Y-154141600D01*
X123660636Y-154444849D01*
X123606808Y-154636875D01*
X123604443Y-154725307D01*
X123657547Y-154717775D01*
X123770124Y-154621906D01*
X123946179Y-154445331D01*
X124005959Y-154384796D01*
X124194514Y-154202936D01*
X124355468Y-154060290D01*
X124459164Y-153983553D01*
X124529110Y-153952831D01*
X124570409Y-153971878D01*
X124586970Y-154069046D01*
X124590000Y-154268763D01*
X124593894Y-154407357D01*
X124615503Y-154551967D01*
X124653500Y-154584750D01*
X124679495Y-154560346D01*
X124717000Y-154450917D01*
X124722054Y-154404131D01*
X124772843Y-154220458D01*
X124871284Y-153951899D01*
X125008775Y-153617633D01*
X125176718Y-153236842D01*
X125366512Y-152828703D01*
X125569557Y-152412397D01*
X125777254Y-152007102D01*
X125981001Y-151632000D01*
X126193595Y-151253500D01*
X126427674Y-150832271D01*
X126607576Y-150497676D01*
X126738104Y-150236028D01*
X126824064Y-150033642D01*
X126870260Y-149876831D01*
X126881498Y-149751911D01*
X126862581Y-149645195D01*
X126818314Y-149542998D01*
X126753503Y-149431634D01*
X126665255Y-149312900D01*
X126441358Y-149086266D01*
X126124928Y-148819012D01*
X125729107Y-148520482D01*
X125267038Y-148200018D01*
X124751863Y-147866962D01*
X124196725Y-147530658D01*
X123614767Y-147200446D01*
X122798283Y-146752752D01*
X123043267Y-146598119D01*
X123293760Y-146444263D01*
X124005344Y-146042712D01*
X124785979Y-145645244D01*
X125595412Y-145270834D01*
X126393392Y-144938457D01*
X127139665Y-144667087D01*
X127842930Y-144433786D01*
X128257920Y-144544365D01*
X128272182Y-144548193D01*
X128657610Y-144666904D01*
X129122504Y-144833285D01*
X129636102Y-145034824D01*
X130167643Y-145259011D01*
X130686363Y-145493334D01*
X131161502Y-145725281D01*
X131497972Y-145899325D01*
X131880396Y-146101918D01*
X132229173Y-146291616D01*
X132528400Y-146459470D01*
X132762171Y-146596534D01*
X132914582Y-146693859D01*
X132969727Y-146742500D01*
X132968646Y-146745562D01*
X132903053Y-146794779D01*
X132755896Y-146881666D01*
X132555100Y-146989584D01*
X132296834Y-147126530D01*
X131818658Y-147395418D01*
X131329500Y-147687637D01*
X130846977Y-147991386D01*
X130388704Y-148294867D01*
X129972295Y-148586281D01*
X129615365Y-148853828D01*
X129335530Y-149085710D01*
X129150405Y-149270128D01*
X129099166Y-149332548D01*
X128998760Y-149475363D01*
X128938144Y-149615264D01*
X128921003Y-149768205D01*
X128951024Y-149950136D01*
X129031894Y-150177009D01*
X129167298Y-150464777D01*
X129360923Y-150829391D01*
X129616455Y-151286802D01*
X129812323Y-151635534D01*
X130085340Y-152132746D01*
X130308402Y-152557495D01*
X130492125Y-152931752D01*
X130647124Y-153277490D01*
X130784015Y-153616681D01*
X130913414Y-153971297D01*
X130971511Y-154134919D01*
X131056449Y-154364211D01*
X131121978Y-154528832D01*
X131157339Y-154601005D01*
X131173501Y-154579852D01*
X131188295Y-154463278D01*
X131194000Y-154275599D01*
X131194003Y-154257378D01*
X131196983Y-154062762D01*
X131213760Y-153969349D01*
X131256377Y-153953050D01*
X131336875Y-153989776D01*
X131357330Y-154002128D01*
X131483877Y-154101891D01*
X131657116Y-154260304D01*
X131845822Y-154449182D01*
X132211894Y-154832344D01*
X132169946Y-154613297D01*
X132152305Y-154535227D01*
X132088181Y-154313675D01*
X132007922Y-154084369D01*
X131964769Y-153964753D01*
X131922252Y-153815030D01*
X131918640Y-153743693D01*
X131921386Y-153741979D01*
X131999840Y-153761671D01*
X132156609Y-153835360D01*
X132366555Y-153948916D01*
X132604539Y-154088211D01*
X132845425Y-154239114D01*
X133064073Y-154387497D01*
X133211669Y-154487887D01*
X133343925Y-154565911D01*
X133405047Y-154585619D01*
X133396271Y-154545463D01*
X133323808Y-154422930D01*
X133196322Y-154240535D01*
X133029271Y-154019274D01*
X132838110Y-153780141D01*
X132638297Y-153544132D01*
X132619157Y-153522163D01*
X132479267Y-153355192D01*
X132385584Y-153231981D01*
X132357503Y-153177830D01*
X132377324Y-153177989D01*
X132492683Y-153205807D01*
X132685969Y-153263425D01*
X132929332Y-153342809D01*
X133060497Y-153385901D01*
X133275649Y-153450199D01*
X133423753Y-153485624D01*
X133478500Y-153485348D01*
X133461066Y-153457398D01*
X133366973Y-153368260D01*
X133218871Y-153251250D01*
X133177377Y-153219266D01*
X132999573Y-153065401D01*
X132769375Y-152848337D01*
X132499723Y-152581972D01*
X132203556Y-152280201D01*
X131893814Y-151956920D01*
X131583438Y-151626026D01*
X131285367Y-151301415D01*
X131012541Y-150996983D01*
X130777900Y-150726626D01*
X130594385Y-150504240D01*
X130474935Y-150343721D01*
X130432490Y-150258967D01*
X130432495Y-150258552D01*
X130441185Y-150232890D01*
X130473799Y-150198954D01*
X130541449Y-150150485D01*
X130655244Y-150081225D01*
X130826294Y-149984915D01*
X131065710Y-149855297D01*
X131384601Y-149686112D01*
X131794078Y-149471102D01*
X132305250Y-149204008D01*
X132915109Y-148883902D01*
X133518975Y-148560391D01*
X134024648Y-148278719D01*
X134440716Y-148031572D01*
X134775768Y-147811632D01*
X135038392Y-147611583D01*
X135237177Y-147424108D01*
X135380711Y-147241890D01*
X135477582Y-147057614D01*
X135536379Y-146863962D01*
X135565691Y-146653619D01*
X135574106Y-146419267D01*
X135570301Y-146247509D01*
X135545714Y-146029275D01*
X135490258Y-145823514D01*
X135394646Y-145616549D01*
X135249589Y-145394698D01*
X135045801Y-145144283D01*
X134773994Y-144851625D01*
X134424880Y-144503045D01*
X133989172Y-144084863D01*
X133762045Y-143871168D01*
X133397496Y-143535055D01*
X133041567Y-143214455D01*
X132714869Y-142927622D01*
X132438011Y-142692809D01*
X132231604Y-142528270D01*
X131670293Y-142107000D01*
X124113708Y-142107000D01*
X123557996Y-142524068D01*
X123430823Y-142623903D01*
X123177546Y-142835727D01*
X122867180Y-143106092D01*
X122520047Y-143416953D01*
X122156468Y-143750267D01*
X121796766Y-144087989D01*
X121448528Y-144421889D01*
X121081862Y-144784175D01*
X120794244Y-145087073D01*
X120576414Y-145344188D01*
X120419108Y-145569129D01*
X120313065Y-145775500D01*
X120249023Y-145976909D01*
X120217720Y-146186962D01*
X120209895Y-146419267D01*
X119924479Y-146419267D01*
X119929811Y-146207734D01*
X119964912Y-145904755D01*
X120041337Y-145634308D01*
X120170826Y-145374237D01*
X120365122Y-145102387D01*
X120635965Y-144796600D01*
X120995098Y-144434722D01*
X121456045Y-143989335D01*
X121938916Y-143532332D01*
X122391051Y-143114239D01*
X122800869Y-142745464D01*
X123156789Y-142436416D01*
X123447230Y-142197501D01*
X123660612Y-142039129D01*
X124032973Y-141789500D01*
X131751028Y-141789500D01*
X132123389Y-142039129D01*
X132317667Y-142182478D01*
X132602593Y-142415578D01*
X132953789Y-142719521D01*
X133359628Y-143083858D01*
X133808483Y-143498137D01*
X134288727Y-143951909D01*
X134788732Y-144434722D01*
X135057034Y-144702256D01*
X135351628Y-145021738D01*
X135566365Y-145300943D01*
X135712959Y-145561959D01*
X135803122Y-145826874D01*
X135848568Y-146117774D01*
X135859634Y-146419267D01*
X135861009Y-146456750D01*
X135856723Y-146682610D01*
G36*
X122175621Y-144760257D02*
G01*
X122216169Y-144869779D01*
X122205209Y-144970230D01*
X122182539Y-144999377D01*
X122097856Y-145019521D01*
X122024838Y-144927019D01*
X122011871Y-144880354D01*
X122027898Y-144761237D01*
X122110454Y-144710500D01*
X122175621Y-144760257D01*
G37*
X122175621Y-144760257D02*
X122216169Y-144869779D01*
X122205209Y-144970230D01*
X122182539Y-144999377D01*
X122097856Y-145019521D01*
X122024838Y-144927019D01*
X122011871Y-144880354D01*
X122027898Y-144761237D01*
X122110454Y-144710500D01*
X122175621Y-144760257D01*
G36*
X132965346Y-144226052D02*
G01*
X133070652Y-144292080D01*
X133128927Y-144342942D01*
X133233978Y-144406242D01*
X133243525Y-144415891D01*
X133227959Y-144510651D01*
X133147468Y-144693455D01*
X133007304Y-144951662D01*
X132930704Y-145079680D01*
X132796597Y-145281564D01*
X132685971Y-145420678D01*
X132617193Y-145472500D01*
X132563144Y-145460951D01*
X132532681Y-145375197D01*
X132597483Y-145206387D01*
X132634446Y-145083478D01*
X132586804Y-144924908D01*
X132574905Y-144901502D01*
X132541397Y-144768942D01*
X132591635Y-144714597D01*
X132712630Y-144755909D01*
X132754877Y-144779224D01*
X132835921Y-144778495D01*
X132910642Y-144674747D01*
X132936833Y-144622182D01*
X132956053Y-144510850D01*
X132887151Y-144404491D01*
X132819602Y-144319937D01*
X132781500Y-144245124D01*
X132785219Y-144228606D01*
X132852753Y-144202060D01*
X132965346Y-144226052D01*
G37*
X132965346Y-144226052D02*
X133070652Y-144292080D01*
X133128927Y-144342942D01*
X133233978Y-144406242D01*
X133243525Y-144415891D01*
X133227959Y-144510651D01*
X133147468Y-144693455D01*
X133007304Y-144951662D01*
X132930704Y-145079680D01*
X132796597Y-145281564D01*
X132685971Y-145420678D01*
X132617193Y-145472500D01*
X132563144Y-145460951D01*
X132532681Y-145375197D01*
X132597483Y-145206387D01*
X132634446Y-145083478D01*
X132586804Y-144924908D01*
X132574905Y-144901502D01*
X132541397Y-144768942D01*
X132591635Y-144714597D01*
X132712630Y-144755909D01*
X132754877Y-144779224D01*
X132835921Y-144778495D01*
X132910642Y-144674747D01*
X132936833Y-144622182D01*
X132956053Y-144510850D01*
X132887151Y-144404491D01*
X132819602Y-144319937D01*
X132781500Y-144245124D01*
X132785219Y-144228606D01*
X132852753Y-144202060D01*
X132965346Y-144226052D01*
G36*
X125165085Y-143504030D02*
G01*
X125222048Y-143558835D01*
X125313302Y-143698288D01*
X125419454Y-143892832D01*
X125437868Y-143929843D01*
X125540285Y-144172637D01*
X125567270Y-144322296D01*
X125521750Y-144374639D01*
X125406653Y-144325486D01*
X125224906Y-144170657D01*
X125222876Y-144168676D01*
X125066464Y-144028127D01*
X124987857Y-143986988D01*
X124987603Y-144045148D01*
X125066250Y-144202500D01*
X125136187Y-144349313D01*
X125150212Y-144475917D01*
X125075895Y-144520000D01*
X125048977Y-144510815D01*
X124963453Y-144420862D01*
X124875750Y-144266000D01*
X124825322Y-144158690D01*
X124752381Y-144043266D01*
X124686951Y-144023755D01*
X124606136Y-144084764D01*
X124580790Y-144123588D01*
X124585163Y-144230692D01*
X124661368Y-144408420D01*
X124693226Y-144476167D01*
X124749090Y-144640797D01*
X124755175Y-144748406D01*
X124703112Y-144816413D01*
X124627564Y-144833527D01*
X124590000Y-144773307D01*
X124582167Y-144735132D01*
X124533535Y-144601026D01*
X124455165Y-144422265D01*
X124366159Y-144255141D01*
X124286778Y-144174787D01*
X124201165Y-144173236D01*
X124120563Y-144181629D01*
X124082000Y-144111529D01*
X124089761Y-144063732D01*
X124144752Y-144012000D01*
X124179968Y-143983400D01*
X124192377Y-143876124D01*
X124190814Y-143829423D01*
X124228924Y-143730917D01*
X124301242Y-143722538D01*
X124366641Y-143818004D01*
X124414685Y-143896648D01*
X124532885Y-143949895D01*
X124658134Y-143921871D01*
X124737556Y-143813252D01*
X124775965Y-143735632D01*
X124856087Y-143711910D01*
X124887468Y-143724699D01*
X125063312Y-143794718D01*
X125145009Y-143819181D01*
X125153171Y-143800459D01*
X125108409Y-143740920D01*
X125065066Y-143657072D01*
X125076437Y-143550411D01*
X125164334Y-143504000D01*
X125165085Y-143504030D01*
G37*
X125165085Y-143504030D02*
X125222048Y-143558835D01*
X125313302Y-143698288D01*
X125419454Y-143892832D01*
X125437868Y-143929843D01*
X125540285Y-144172637D01*
X125567270Y-144322296D01*
X125521750Y-144374639D01*
X125406653Y-144325486D01*
X125224906Y-144170657D01*
X125222876Y-144168676D01*
X125066464Y-144028127D01*
X124987857Y-143986988D01*
X124987603Y-144045148D01*
X125066250Y-144202500D01*
X125136187Y-144349313D01*
X125150212Y-144475917D01*
X125075895Y-144520000D01*
X125048977Y-144510815D01*
X124963453Y-144420862D01*
X124875750Y-144266000D01*
X124825322Y-144158690D01*
X124752381Y-144043266D01*
X124686951Y-144023755D01*
X124606136Y-144084764D01*
X124580790Y-144123588D01*
X124585163Y-144230692D01*
X124661368Y-144408420D01*
X124693226Y-144476167D01*
X124749090Y-144640797D01*
X124755175Y-144748406D01*
X124703112Y-144816413D01*
X124627564Y-144833527D01*
X124590000Y-144773307D01*
X124582167Y-144735132D01*
X124533535Y-144601026D01*
X124455165Y-144422265D01*
X124366159Y-144255141D01*
X124286778Y-144174787D01*
X124201165Y-144173236D01*
X124120563Y-144181629D01*
X124082000Y-144111529D01*
X124089761Y-144063732D01*
X124144752Y-144012000D01*
X124179968Y-143983400D01*
X124192377Y-143876124D01*
X124190814Y-143829423D01*
X124228924Y-143730917D01*
X124301242Y-143722538D01*
X124366641Y-143818004D01*
X124414685Y-143896648D01*
X124532885Y-143949895D01*
X124658134Y-143921871D01*
X124737556Y-143813252D01*
X124775965Y-143735632D01*
X124856087Y-143711910D01*
X124887468Y-143724699D01*
X125063312Y-143794718D01*
X125145009Y-143819181D01*
X125153171Y-143800459D01*
X125108409Y-143740920D01*
X125065066Y-143657072D01*
X125076437Y-143550411D01*
X125164334Y-143504000D01*
X125165085Y-143504030D01*
G36*
X130979855Y-143059609D02*
G01*
X131041609Y-143077421D01*
X131056079Y-143137138D01*
X131018224Y-143255185D01*
X130923003Y-143447989D01*
X130765375Y-143731975D01*
X130685387Y-143868032D01*
X130554246Y-144071290D01*
X130448075Y-144211504D01*
X130384375Y-144264222D01*
X130341563Y-144258463D01*
X130312272Y-144211379D01*
X130340709Y-144104587D01*
X130431869Y-143923284D01*
X130590750Y-143652664D01*
X130643146Y-143565322D01*
X130762475Y-143357434D01*
X130845416Y-143199644D01*
X130876500Y-143120747D01*
X130887229Y-143092594D01*
X130971750Y-143059500D01*
X130979855Y-143059609D01*
G37*
X130979855Y-143059609D02*
X131041609Y-143077421D01*
X131056079Y-143137138D01*
X131018224Y-143255185D01*
X130923003Y-143447989D01*
X130765375Y-143731975D01*
X130685387Y-143868032D01*
X130554246Y-144071290D01*
X130448075Y-144211504D01*
X130384375Y-144264222D01*
X130341563Y-144258463D01*
X130312272Y-144211379D01*
X130340709Y-144104587D01*
X130431869Y-143923284D01*
X130590750Y-143652664D01*
X130643146Y-143565322D01*
X130762475Y-143357434D01*
X130845416Y-143199644D01*
X130876500Y-143120747D01*
X130887229Y-143092594D01*
X130971750Y-143059500D01*
X130979855Y-143059609D01*
G36*
X130443502Y-143632973D02*
G01*
X130331106Y-143816627D01*
X130297182Y-143855086D01*
X130175601Y-143966994D01*
X130086947Y-144012000D01*
X130030458Y-143998695D01*
X129915520Y-143909427D01*
X129832494Y-143779667D01*
X129820601Y-143661090D01*
X129881434Y-143597192D01*
X129953251Y-143624574D01*
X129987500Y-143729997D01*
X129999328Y-143773548D01*
X130084985Y-143821500D01*
X130103054Y-143820947D01*
X130150118Y-143790661D01*
X130112820Y-143691359D01*
X130099411Y-143663575D01*
X130061488Y-143474751D01*
X130072527Y-143409571D01*
X130202272Y-143409571D01*
X130227358Y-143539973D01*
X130256109Y-143587864D01*
X130295602Y-143605919D01*
X130334986Y-143509558D01*
X130354477Y-143376956D01*
X130316425Y-143317455D01*
X130233862Y-143359238D01*
X130202272Y-143409571D01*
X130072527Y-143409571D01*
X130092632Y-143290853D01*
X130185244Y-143166923D01*
X130316157Y-143121880D01*
X130423060Y-143165022D01*
X130483743Y-143281619D01*
X130488801Y-143376956D01*
X130492469Y-143446120D01*
X130443502Y-143632973D01*
G37*
X130443502Y-143632973D02*
X130331106Y-143816627D01*
X130297182Y-143855086D01*
X130175601Y-143966994D01*
X130086947Y-144012000D01*
X130030458Y-143998695D01*
X129915520Y-143909427D01*
X129832494Y-143779667D01*
X129820601Y-143661090D01*
X129881434Y-143597192D01*
X129953251Y-143624574D01*
X129987500Y-143729997D01*
X129999328Y-143773548D01*
X130084985Y-143821500D01*
X130103054Y-143820947D01*
X130150118Y-143790661D01*
X130112820Y-143691359D01*
X130099411Y-143663575D01*
X130061488Y-143474751D01*
X130072527Y-143409571D01*
X130202272Y-143409571D01*
X130227358Y-143539973D01*
X130256109Y-143587864D01*
X130295602Y-143605919D01*
X130334986Y-143509558D01*
X130354477Y-143376956D01*
X130316425Y-143317455D01*
X130233862Y-143359238D01*
X130202272Y-143409571D01*
X130072527Y-143409571D01*
X130092632Y-143290853D01*
X130185244Y-143166923D01*
X130316157Y-143121880D01*
X130423060Y-143165022D01*
X130483743Y-143281619D01*
X130488801Y-143376956D01*
X130492469Y-143446120D01*
X130443502Y-143632973D01*
G36*
X131876941Y-144489375D02*
G01*
X131734054Y-144684218D01*
X131594444Y-144796704D01*
X131447947Y-144828841D01*
X131321578Y-144742946D01*
X131278283Y-144654327D01*
X131277829Y-144534129D01*
X131448000Y-144534129D01*
X131448038Y-144539241D01*
X131479532Y-144634213D01*
X131558148Y-144622347D01*
X131666650Y-144505870D01*
X131699327Y-144453152D01*
X131755109Y-144306327D01*
X131758671Y-144187757D01*
X131705601Y-144139000D01*
X131655727Y-144159630D01*
X131562077Y-144260900D01*
X131481958Y-144402416D01*
X131448000Y-144534129D01*
X131277829Y-144534129D01*
X131277611Y-144476493D01*
X131342099Y-144282269D01*
X131452809Y-144107392D01*
X131590806Y-143987599D01*
X131737154Y-143958627D01*
X131825397Y-143992585D01*
X131922736Y-144114558D01*
X131929895Y-144187757D01*
X131939876Y-144289822D01*
X131876941Y-144489375D01*
G37*
X131876941Y-144489375D02*
X131734054Y-144684218D01*
X131594444Y-144796704D01*
X131447947Y-144828841D01*
X131321578Y-144742946D01*
X131278283Y-144654327D01*
X131277829Y-144534129D01*
X131448000Y-144534129D01*
X131448038Y-144539241D01*
X131479532Y-144634213D01*
X131558148Y-144622347D01*
X131666650Y-144505870D01*
X131699327Y-144453152D01*
X131755109Y-144306327D01*
X131758671Y-144187757D01*
X131705601Y-144139000D01*
X131655727Y-144159630D01*
X131562077Y-144260900D01*
X131481958Y-144402416D01*
X131448000Y-144534129D01*
X131277829Y-144534129D01*
X131277611Y-144476493D01*
X131342099Y-144282269D01*
X131452809Y-144107392D01*
X131590806Y-143987599D01*
X131737154Y-143958627D01*
X131825397Y-143992585D01*
X131922736Y-144114558D01*
X131929895Y-144187757D01*
X131939876Y-144289822D01*
X131876941Y-144489375D01*
G36*
X126397757Y-142643461D02*
G01*
X126527929Y-142807779D01*
X126587275Y-142946167D01*
X126586004Y-143061442D01*
X126522093Y-143219095D01*
X126502432Y-143263583D01*
X126454359Y-143448257D01*
X126473197Y-143580452D01*
X126556508Y-143631000D01*
X126599587Y-143591575D01*
X126622000Y-143472250D01*
X126628570Y-143368004D01*
X126648557Y-143313500D01*
X126678123Y-143307449D01*
X126782696Y-143272216D01*
X126843511Y-143258802D01*
X126867131Y-143305515D01*
X126845452Y-143446841D01*
X126814099Y-143555783D01*
X126705117Y-143731921D01*
X126561013Y-143814135D01*
X126406309Y-143793385D01*
X126265525Y-143660633D01*
X126241017Y-143622293D01*
X126195446Y-143520295D01*
X126205531Y-143414951D01*
X126272165Y-143251298D01*
X126296776Y-143192953D01*
X126347738Y-142986832D01*
X126315931Y-142853115D01*
X126203468Y-142805500D01*
X126198542Y-142805521D01*
X126134099Y-142824579D01*
X126175192Y-142897968D01*
X126215657Y-142974396D01*
X126191233Y-143078877D01*
X126072268Y-143123000D01*
X126036780Y-143129345D01*
X126003794Y-143178829D01*
X125999163Y-143300101D01*
X126019322Y-143519875D01*
X126049362Y-143707920D01*
X126102178Y-143906357D01*
X126160258Y-144025509D01*
X126211076Y-144110504D01*
X126220535Y-144227740D01*
X126192631Y-144249269D01*
X126107840Y-144215210D01*
X125959670Y-144100849D01*
X125737519Y-143898970D01*
X125660964Y-143825486D01*
X125471299Y-143627845D01*
X125364898Y-143488296D01*
X125350007Y-143417093D01*
X125366343Y-143407240D01*
X125474099Y-143428487D01*
X125641821Y-143534549D01*
X125721927Y-143594957D01*
X125819741Y-143659588D01*
X125850386Y-143651761D01*
X125835250Y-143576070D01*
X125809416Y-143485617D01*
X125759057Y-143309044D01*
X125757367Y-143202696D01*
X125855726Y-143142516D01*
X125916561Y-143120376D01*
X125964526Y-143050663D01*
X125951816Y-142904775D01*
X125943560Y-142818637D01*
X125987523Y-142660012D01*
X126097747Y-142574596D01*
X126244427Y-142567406D01*
X126397757Y-142643461D01*
G37*
X126397757Y-142643461D02*
X126527929Y-142807779D01*
X126587275Y-142946167D01*
X126586004Y-143061442D01*
X126522093Y-143219095D01*
X126502432Y-143263583D01*
X126454359Y-143448257D01*
X126473197Y-143580452D01*
X126556508Y-143631000D01*
X126599587Y-143591575D01*
X126622000Y-143472250D01*
X126628570Y-143368004D01*
X126648557Y-143313500D01*
X126678123Y-143307449D01*
X126782696Y-143272216D01*
X126843511Y-143258802D01*
X126867131Y-143305515D01*
X126845452Y-143446841D01*
X126814099Y-143555783D01*
X126705117Y-143731921D01*
X126561013Y-143814135D01*
X126406309Y-143793385D01*
X126265525Y-143660633D01*
X126241017Y-143622293D01*
X126195446Y-143520295D01*
X126205531Y-143414951D01*
X126272165Y-143251298D01*
X126296776Y-143192953D01*
X126347738Y-142986832D01*
X126315931Y-142853115D01*
X126203468Y-142805500D01*
X126198542Y-142805521D01*
X126134099Y-142824579D01*
X126175192Y-142897968D01*
X126215657Y-142974396D01*
X126191233Y-143078877D01*
X126072268Y-143123000D01*
X126036780Y-143129345D01*
X126003794Y-143178829D01*
X125999163Y-143300101D01*
X126019322Y-143519875D01*
X126049362Y-143707920D01*
X126102178Y-143906357D01*
X126160258Y-144025509D01*
X126211076Y-144110504D01*
X126220535Y-144227740D01*
X126192631Y-144249269D01*
X126107840Y-144215210D01*
X125959670Y-144100849D01*
X125737519Y-143898970D01*
X125660964Y-143825486D01*
X125471299Y-143627845D01*
X125364898Y-143488296D01*
X125350007Y-143417093D01*
X125366343Y-143407240D01*
X125474099Y-143428487D01*
X125641821Y-143534549D01*
X125721927Y-143594957D01*
X125819741Y-143659588D01*
X125850386Y-143651761D01*
X125835250Y-143576070D01*
X125809416Y-143485617D01*
X125759057Y-143309044D01*
X125757367Y-143202696D01*
X125855726Y-143142516D01*
X125916561Y-143120376D01*
X125964526Y-143050663D01*
X125951816Y-142904775D01*
X125943560Y-142818637D01*
X125987523Y-142660012D01*
X126097747Y-142574596D01*
X126244427Y-142567406D01*
X126397757Y-142643461D01*
M02*
