M48
;DRILL file {KiCad 4.0.5} date Saturday, February 10, 2018 'AMt' 02:18:51 AM
;FORMAT={-:-/ absolute / inch / decimal}
FMAT,2
INCH,TZ
T1C0.118
T2C0.126
T3C0.252
T4C0.287
%
G90
G05
M72
T1
X3.1Y-1.74
X3.1Y-6.56
X3.16Y-1.74
X3.16Y-6.56
X3.22Y-1.74
X3.22Y-6.56
X5.64Y-1.74
X5.64Y-6.58
X5.7Y-1.74
X5.7Y-6.58
X5.76Y-1.74
X5.76Y-6.58
T2
X3.02Y-2.52
X3.02Y-2.92
X3.02Y-3.32
X3.02Y-3.72
X3.02Y-4.12
X3.02Y-4.52
X3.02Y-4.92
X3.02Y-5.32
X4.11Y-2.52
X4.11Y-2.92
X4.11Y-3.32
X4.11Y-3.72
X4.11Y-4.12
X4.11Y-4.52
X4.11Y-4.92
X4.11Y-5.32
T3
X3.417Y-5.92
X3.42Y-2.52
X3.42Y-2.92
X3.42Y-3.32
X3.42Y-3.72
X3.42Y-4.12
X3.42Y-4.52
X3.42Y-4.92
X3.42Y-5.32
X4.51Y-2.52
X4.51Y-2.92
X4.51Y-3.32
X4.51Y-3.72
X4.51Y-4.12
X4.51Y-4.52
X4.51Y-4.92
X4.51Y-5.32
X4.51Y-5.92
X5.13Y-3.12
X5.13Y-4.29
X5.13Y-4.83
X5.45Y-5.92
X5.77Y-3.75
X5.77Y-4.295
X5.77Y-4.835
X5.77Y-5.38
T4
X5.127Y-2.5
X5.77Y-3.12
T0
M30
