G04 #@! TF.FileFunction,Copper,L1,Top,Signal*
%FSLAX46Y46*%
G04 Gerber Fmt 4.6, Leading zero omitted, Abs format (unit mm)*
G04 Created by KiCad (PCBNEW 4.0.5) date Saturday, February 10, 2018 'AMt' 02:18:48 AM*
%MOMM*%
%LPD*%
G01*
G04 APERTURE LIST*
%ADD10C,0.100000*%
%ADD11C,0.254000*%
G04 APERTURE END LIST*
D10*
D11*
G36*
X153125500Y-168937000D02*
X147517831Y-168937000D01*
X148112909Y-168342959D01*
X148125721Y-168312105D01*
X148136739Y-168306582D01*
X148283950Y-167931046D01*
X148438628Y-167558541D01*
X148438647Y-167536414D01*
X148446723Y-167515813D01*
X148439018Y-167112546D01*
X148439370Y-166709185D01*
X148430920Y-166688734D01*
X148430497Y-166666613D01*
X148136739Y-165957418D01*
X148126657Y-165952365D01*
X148115020Y-165924200D01*
X147514959Y-165323091D01*
X147484105Y-165310279D01*
X147478582Y-165299261D01*
X147103046Y-165152050D01*
X146730541Y-164997372D01*
X146708414Y-164997353D01*
X146687813Y-164989277D01*
X146284546Y-164996982D01*
X145881185Y-164996630D01*
X145860734Y-165005080D01*
X145838613Y-165005503D01*
X145531990Y-165132510D01*
X145206541Y-164997372D01*
X145184414Y-164997353D01*
X145163813Y-164989277D01*
X144760546Y-164996982D01*
X144357185Y-164996630D01*
X144336734Y-165005080D01*
X144314613Y-165005503D01*
X144007990Y-165132510D01*
X143682541Y-164997372D01*
X143660414Y-164997353D01*
X143639813Y-164989277D01*
X143236546Y-164996982D01*
X142833185Y-164996630D01*
X142812734Y-165005080D01*
X142790613Y-165005503D01*
X142081418Y-165299261D01*
X142076365Y-165309343D01*
X142048200Y-165320980D01*
X141447091Y-165921041D01*
X141434279Y-165951895D01*
X141423261Y-165957418D01*
X141276050Y-166332954D01*
X141121372Y-166705459D01*
X141121353Y-166727586D01*
X141113277Y-166748187D01*
X141120982Y-167151454D01*
X141120630Y-167554815D01*
X141129080Y-167575266D01*
X141129503Y-167597387D01*
X141423261Y-168306582D01*
X141433343Y-168311635D01*
X141444980Y-168339800D01*
X142041139Y-168937000D01*
X73315500Y-168937000D01*
X73315500Y-166240187D01*
X76597277Y-166240187D01*
X76604982Y-166643454D01*
X76604630Y-167046815D01*
X76613080Y-167067266D01*
X76613503Y-167089387D01*
X76907261Y-167798582D01*
X76917343Y-167803635D01*
X76928980Y-167831800D01*
X77529041Y-168432909D01*
X77559895Y-168445721D01*
X77565418Y-168456739D01*
X77940954Y-168603950D01*
X78313459Y-168758628D01*
X78335586Y-168758647D01*
X78356187Y-168766723D01*
X78759454Y-168759018D01*
X79162815Y-168759370D01*
X79183266Y-168750920D01*
X79205387Y-168750497D01*
X79512010Y-168623490D01*
X79837459Y-168758628D01*
X79859586Y-168758647D01*
X79880187Y-168766723D01*
X80283454Y-168759018D01*
X80686815Y-168759370D01*
X80707266Y-168750920D01*
X80729387Y-168750497D01*
X81036010Y-168623490D01*
X81361459Y-168758628D01*
X81383586Y-168758647D01*
X81404187Y-168766723D01*
X81807454Y-168759018D01*
X82210815Y-168759370D01*
X82231266Y-168750920D01*
X82253387Y-168750497D01*
X82962582Y-168456739D01*
X82967635Y-168446657D01*
X82995800Y-168435020D01*
X83596909Y-167834959D01*
X83609721Y-167804105D01*
X83620739Y-167798582D01*
X83767950Y-167423046D01*
X83922628Y-167050541D01*
X83922647Y-167028414D01*
X83930723Y-167007813D01*
X83923018Y-166604546D01*
X83923370Y-166201185D01*
X83914920Y-166180734D01*
X83914497Y-166158613D01*
X83620739Y-165449418D01*
X83610657Y-165444365D01*
X83599020Y-165416200D01*
X82998959Y-164815091D01*
X82968105Y-164802279D01*
X82962582Y-164791261D01*
X82587046Y-164644050D01*
X82214541Y-164489372D01*
X82192414Y-164489353D01*
X82171813Y-164481277D01*
X81768546Y-164488982D01*
X81365185Y-164488630D01*
X81344734Y-164497080D01*
X81322613Y-164497503D01*
X81015990Y-164624510D01*
X80690541Y-164489372D01*
X80668414Y-164489353D01*
X80647813Y-164481277D01*
X80244546Y-164488982D01*
X79841185Y-164488630D01*
X79820734Y-164497080D01*
X79798613Y-164497503D01*
X79491990Y-164624510D01*
X79166541Y-164489372D01*
X79144414Y-164489353D01*
X79123813Y-164481277D01*
X78720546Y-164488982D01*
X78317185Y-164488630D01*
X78296734Y-164497080D01*
X78274613Y-164497503D01*
X77565418Y-164791261D01*
X77560365Y-164801343D01*
X77532200Y-164812980D01*
X76931091Y-165413041D01*
X76918279Y-165443895D01*
X76907261Y-165449418D01*
X76760050Y-165824954D01*
X76605372Y-166197459D01*
X76605353Y-166219586D01*
X76597277Y-166240187D01*
X73315500Y-166240187D01*
X73315500Y-151104793D01*
X82951713Y-151104793D01*
X82956146Y-151115705D01*
X82956136Y-151127482D01*
X83243104Y-151821998D01*
X83525981Y-152518246D01*
X83538578Y-152537099D01*
X83538750Y-152537515D01*
X83539071Y-152537836D01*
X83555457Y-152562360D01*
X83586514Y-152585363D01*
X84579391Y-153579974D01*
X84597440Y-153604343D01*
X84608290Y-153608924D01*
X84616611Y-153617259D01*
X85310693Y-153905467D01*
X86002971Y-154197736D01*
X86014747Y-154197816D01*
X86025625Y-154202333D01*
X86777152Y-154202989D01*
X87528593Y-154208087D01*
X87539505Y-154203654D01*
X87551282Y-154203664D01*
X88245798Y-153916696D01*
X88942046Y-153633819D01*
X88960899Y-153621222D01*
X88961315Y-153621050D01*
X88961636Y-153620729D01*
X88986160Y-153604343D01*
X89009163Y-153573286D01*
X90003774Y-152580409D01*
X90028143Y-152562360D01*
X90032724Y-152551510D01*
X90041059Y-152543189D01*
X90329267Y-151849107D01*
X90621536Y-151156829D01*
X90621616Y-151145053D01*
X90626133Y-151134175D01*
X90626158Y-151104793D01*
X110713913Y-151104793D01*
X110718346Y-151115705D01*
X110718336Y-151127482D01*
X111005304Y-151821998D01*
X111288181Y-152518246D01*
X111300778Y-152537099D01*
X111300950Y-152537515D01*
X111301271Y-152537836D01*
X111317657Y-152562360D01*
X111348714Y-152585363D01*
X112341591Y-153579974D01*
X112359640Y-153604343D01*
X112370490Y-153608924D01*
X112378811Y-153617259D01*
X113072893Y-153905467D01*
X113765171Y-154197736D01*
X113776947Y-154197816D01*
X113787825Y-154202333D01*
X114539352Y-154202989D01*
X115290793Y-154208087D01*
X115301705Y-154203654D01*
X115313482Y-154203664D01*
X116007998Y-153916696D01*
X116704246Y-153633819D01*
X116723099Y-153621222D01*
X116723515Y-153621050D01*
X116723836Y-153620729D01*
X116748360Y-153604343D01*
X116771363Y-153573286D01*
X117765974Y-152580409D01*
X117790343Y-152562360D01*
X117794924Y-152551510D01*
X117803259Y-152543189D01*
X118091467Y-151849107D01*
X118383736Y-151156829D01*
X118383816Y-151145053D01*
X118388333Y-151134175D01*
X118388358Y-151104793D01*
X134589913Y-151104793D01*
X134594346Y-151115705D01*
X134594336Y-151127482D01*
X134881304Y-151821998D01*
X135164181Y-152518246D01*
X135176778Y-152537099D01*
X135176950Y-152537515D01*
X135177271Y-152537836D01*
X135193657Y-152562360D01*
X135224714Y-152585363D01*
X136217591Y-153579974D01*
X136235640Y-153604343D01*
X136246490Y-153608924D01*
X136254811Y-153617259D01*
X136948893Y-153905467D01*
X137641171Y-154197736D01*
X137652947Y-154197816D01*
X137663825Y-154202333D01*
X138415352Y-154202989D01*
X139166793Y-154208087D01*
X139177705Y-154203654D01*
X139189482Y-154203664D01*
X139883998Y-153916696D01*
X140580246Y-153633819D01*
X140599099Y-153621222D01*
X140599515Y-153621050D01*
X140599836Y-153620729D01*
X140624360Y-153604343D01*
X140647363Y-153573286D01*
X141641974Y-152580409D01*
X141666343Y-152562360D01*
X141670924Y-152551510D01*
X141679259Y-152543189D01*
X141967467Y-151849107D01*
X142259736Y-151156829D01*
X142259816Y-151145053D01*
X142264333Y-151134175D01*
X142264989Y-150382648D01*
X142270087Y-149631207D01*
X142265654Y-149620295D01*
X142265664Y-149608518D01*
X141978696Y-148914002D01*
X141695819Y-148217754D01*
X141683222Y-148198901D01*
X141683050Y-148198485D01*
X141682729Y-148198164D01*
X141666343Y-148173640D01*
X141635286Y-148150637D01*
X140642409Y-147156026D01*
X140624360Y-147131657D01*
X140613510Y-147127076D01*
X140605189Y-147118741D01*
X139911107Y-146830533D01*
X139218829Y-146538264D01*
X139207053Y-146538184D01*
X139196175Y-146533667D01*
X138444648Y-146533011D01*
X137693207Y-146527913D01*
X137682295Y-146532346D01*
X137670518Y-146532336D01*
X136976002Y-146819304D01*
X136279754Y-147102181D01*
X136260901Y-147114778D01*
X136260485Y-147114950D01*
X136260164Y-147115271D01*
X136235640Y-147131657D01*
X136212637Y-147162714D01*
X135218026Y-148155591D01*
X135193657Y-148173640D01*
X135189076Y-148184490D01*
X135180741Y-148192811D01*
X134892533Y-148886893D01*
X134600264Y-149579171D01*
X134600184Y-149590947D01*
X134595667Y-149601825D01*
X134595011Y-150353352D01*
X134589913Y-151104793D01*
X118388358Y-151104793D01*
X118388989Y-150382648D01*
X118394087Y-149631207D01*
X118389654Y-149620295D01*
X118389664Y-149608518D01*
X118102696Y-148914002D01*
X117819819Y-148217754D01*
X117807222Y-148198901D01*
X117807050Y-148198485D01*
X117806729Y-148198164D01*
X117790343Y-148173640D01*
X117759286Y-148150637D01*
X116766409Y-147156026D01*
X116748360Y-147131657D01*
X116737510Y-147127076D01*
X116729189Y-147118741D01*
X116035107Y-146830533D01*
X115342829Y-146538264D01*
X115331053Y-146538184D01*
X115320175Y-146533667D01*
X114568648Y-146533011D01*
X113817207Y-146527913D01*
X113806295Y-146532346D01*
X113794518Y-146532336D01*
X113100002Y-146819304D01*
X112403754Y-147102181D01*
X112384901Y-147114778D01*
X112384485Y-147114950D01*
X112384164Y-147115271D01*
X112359640Y-147131657D01*
X112336637Y-147162714D01*
X111342026Y-148155591D01*
X111317657Y-148173640D01*
X111313076Y-148184490D01*
X111304741Y-148192811D01*
X111016533Y-148886893D01*
X110724264Y-149579171D01*
X110724184Y-149590947D01*
X110719667Y-149601825D01*
X110719011Y-150353352D01*
X110713913Y-151104793D01*
X90626158Y-151104793D01*
X90626789Y-150382648D01*
X90631887Y-149631207D01*
X90627454Y-149620295D01*
X90627464Y-149608518D01*
X90340496Y-148914002D01*
X90057619Y-148217754D01*
X90045022Y-148198901D01*
X90044850Y-148198485D01*
X90044529Y-148198164D01*
X90028143Y-148173640D01*
X89997086Y-148150637D01*
X89004209Y-147156026D01*
X88986160Y-147131657D01*
X88975310Y-147127076D01*
X88966989Y-147118741D01*
X88272907Y-146830533D01*
X87580629Y-146538264D01*
X87568853Y-146538184D01*
X87557975Y-146533667D01*
X86806448Y-146533011D01*
X86055007Y-146527913D01*
X86044095Y-146532346D01*
X86032318Y-146532336D01*
X85337802Y-146819304D01*
X84641554Y-147102181D01*
X84622701Y-147114778D01*
X84622285Y-147114950D01*
X84621964Y-147115271D01*
X84597440Y-147131657D01*
X84574437Y-147162714D01*
X83579826Y-148155591D01*
X83555457Y-148173640D01*
X83550876Y-148184490D01*
X83542541Y-148192811D01*
X83254333Y-148886893D01*
X82962064Y-149579171D01*
X82961984Y-149590947D01*
X82957467Y-149601825D01*
X82956811Y-150353352D01*
X82951713Y-151104793D01*
X73315500Y-151104793D01*
X73315500Y-134720346D01*
X74465974Y-134720346D01*
X74472984Y-135145425D01*
X74472613Y-135570619D01*
X74480303Y-135589230D01*
X74480635Y-135609363D01*
X74792640Y-136362610D01*
X74801845Y-136367420D01*
X74812155Y-136392372D01*
X75440321Y-137021636D01*
X75468057Y-137033153D01*
X75473390Y-137043360D01*
X75868797Y-137199554D01*
X76261481Y-137362611D01*
X76281619Y-137362629D01*
X76300346Y-137370026D01*
X76725425Y-137363016D01*
X77150619Y-137363387D01*
X77169230Y-137355697D01*
X77189363Y-137355365D01*
X77942610Y-137043360D01*
X77947420Y-137034155D01*
X77972372Y-137023845D01*
X78601636Y-136395679D01*
X78613153Y-136367943D01*
X78623360Y-136362610D01*
X78779554Y-135967203D01*
X78822078Y-135864793D01*
X83027913Y-135864793D01*
X83032346Y-135875705D01*
X83032336Y-135887482D01*
X83319304Y-136581998D01*
X83602181Y-137278246D01*
X83614778Y-137297099D01*
X83614950Y-137297515D01*
X83615271Y-137297836D01*
X83631657Y-137322360D01*
X83662714Y-137345363D01*
X84655591Y-138339974D01*
X84673640Y-138364343D01*
X84684490Y-138368924D01*
X84692811Y-138377259D01*
X85386893Y-138665467D01*
X86079171Y-138957736D01*
X86090947Y-138957816D01*
X86101825Y-138962333D01*
X86853352Y-138962989D01*
X87604793Y-138968087D01*
X87615705Y-138963654D01*
X87627482Y-138963664D01*
X88321998Y-138676696D01*
X89018246Y-138393819D01*
X89037099Y-138381222D01*
X89037515Y-138381050D01*
X89037836Y-138380729D01*
X89062360Y-138364343D01*
X89085363Y-138333286D01*
X90079974Y-137340409D01*
X90104343Y-137322360D01*
X90108924Y-137311510D01*
X90117259Y-137303189D01*
X90405467Y-136609107D01*
X90697736Y-135916829D01*
X90697816Y-135905053D01*
X90702333Y-135894175D01*
X90702989Y-135142648D01*
X90705854Y-134720346D01*
X102151974Y-134720346D01*
X102158984Y-135145425D01*
X102158613Y-135570619D01*
X102166303Y-135589230D01*
X102166635Y-135609363D01*
X102478640Y-136362610D01*
X102487845Y-136367420D01*
X102498155Y-136392372D01*
X103126321Y-137021636D01*
X103154057Y-137033153D01*
X103159390Y-137043360D01*
X103554797Y-137199554D01*
X103947481Y-137362611D01*
X103967619Y-137362629D01*
X103986346Y-137370026D01*
X104411425Y-137363016D01*
X104836619Y-137363387D01*
X104855230Y-137355697D01*
X104875363Y-137355365D01*
X105628610Y-137043360D01*
X105633420Y-137034155D01*
X105658372Y-137023845D01*
X106287636Y-136395679D01*
X106299153Y-136367943D01*
X106309360Y-136362610D01*
X106465554Y-135967203D01*
X106508078Y-135864793D01*
X110713913Y-135864793D01*
X110718346Y-135875705D01*
X110718336Y-135887482D01*
X111005304Y-136581998D01*
X111288181Y-137278246D01*
X111300778Y-137297099D01*
X111300950Y-137297515D01*
X111301271Y-137297836D01*
X111317657Y-137322360D01*
X111348714Y-137345363D01*
X112341591Y-138339974D01*
X112359640Y-138364343D01*
X112370490Y-138368924D01*
X112378811Y-138377259D01*
X113072893Y-138665467D01*
X113765171Y-138957736D01*
X113776947Y-138957816D01*
X113787825Y-138962333D01*
X114539352Y-138962989D01*
X115290793Y-138968087D01*
X115301705Y-138963654D01*
X115313482Y-138963664D01*
X116007998Y-138676696D01*
X116704246Y-138393819D01*
X116723099Y-138381222D01*
X116723515Y-138381050D01*
X116723836Y-138380729D01*
X116748360Y-138364343D01*
X116771363Y-138333286D01*
X117765974Y-137340409D01*
X117790343Y-137322360D01*
X117794924Y-137311510D01*
X117803259Y-137303189D01*
X118073656Y-136652000D01*
X124563780Y-136652000D01*
X125000576Y-138847922D01*
X126244466Y-140709534D01*
X128106078Y-141953424D01*
X130302000Y-142390220D01*
X132497922Y-141953424D01*
X134359534Y-140709534D01*
X135603424Y-138847922D01*
X135893662Y-137388793D01*
X142717913Y-137388793D01*
X142722346Y-137399705D01*
X142722336Y-137411482D01*
X143009304Y-138105998D01*
X143292181Y-138802246D01*
X143304778Y-138821099D01*
X143304950Y-138821515D01*
X143305271Y-138821836D01*
X143321657Y-138846360D01*
X143352714Y-138869363D01*
X144345591Y-139863974D01*
X144363640Y-139888343D01*
X144374490Y-139892924D01*
X144382811Y-139901259D01*
X145076893Y-140189467D01*
X145769171Y-140481736D01*
X145780947Y-140481816D01*
X145791825Y-140486333D01*
X146543352Y-140486989D01*
X147294793Y-140492087D01*
X147305705Y-140487654D01*
X147317482Y-140487664D01*
X148011998Y-140200696D01*
X148708246Y-139917819D01*
X148727099Y-139905222D01*
X148727515Y-139905050D01*
X148727836Y-139904729D01*
X148752360Y-139888343D01*
X148775363Y-139857286D01*
X149769974Y-138864409D01*
X149794343Y-138846360D01*
X149798924Y-138835510D01*
X149807259Y-138827189D01*
X150095467Y-138133107D01*
X150387736Y-137440829D01*
X150387816Y-137429053D01*
X150392333Y-137418175D01*
X150392989Y-136666648D01*
X150398087Y-135915207D01*
X150393654Y-135904295D01*
X150393664Y-135892518D01*
X150106696Y-135198002D01*
X149823819Y-134501754D01*
X149811222Y-134482901D01*
X149811050Y-134482485D01*
X149810729Y-134482164D01*
X149794343Y-134457640D01*
X149763286Y-134434637D01*
X148770409Y-133440026D01*
X148752360Y-133415657D01*
X148741510Y-133411076D01*
X148733189Y-133402741D01*
X148039107Y-133114533D01*
X147346829Y-132822264D01*
X147335053Y-132822184D01*
X147324175Y-132817667D01*
X146572648Y-132817011D01*
X145821207Y-132811913D01*
X145810295Y-132816346D01*
X145798518Y-132816336D01*
X145104002Y-133103304D01*
X144407754Y-133386181D01*
X144388901Y-133398778D01*
X144388485Y-133398950D01*
X144388164Y-133399271D01*
X144363640Y-133415657D01*
X144340637Y-133446714D01*
X143346026Y-134439591D01*
X143321657Y-134457640D01*
X143317076Y-134468490D01*
X143308741Y-134476811D01*
X143020533Y-135170893D01*
X142728264Y-135863171D01*
X142728184Y-135874947D01*
X142723667Y-135885825D01*
X142723011Y-136637352D01*
X142717913Y-137388793D01*
X135893662Y-137388793D01*
X136040220Y-136652000D01*
X135603424Y-134456078D01*
X134359534Y-132594466D01*
X132497922Y-131350576D01*
X130302000Y-130913780D01*
X128106078Y-131350576D01*
X126244466Y-132594466D01*
X125000576Y-134456078D01*
X124563780Y-136652000D01*
X118073656Y-136652000D01*
X118091467Y-136609107D01*
X118383736Y-135916829D01*
X118383816Y-135905053D01*
X118388333Y-135894175D01*
X118388989Y-135142648D01*
X118394087Y-134391207D01*
X118389654Y-134380295D01*
X118389664Y-134368518D01*
X118102696Y-133674002D01*
X117819819Y-132977754D01*
X117807222Y-132958901D01*
X117807050Y-132958485D01*
X117806729Y-132958164D01*
X117790343Y-132933640D01*
X117759286Y-132910637D01*
X116766409Y-131916026D01*
X116748360Y-131891657D01*
X116737510Y-131887076D01*
X116729189Y-131878741D01*
X116035107Y-131590533D01*
X115342829Y-131298264D01*
X115331053Y-131298184D01*
X115320175Y-131293667D01*
X114568648Y-131293011D01*
X113817207Y-131287913D01*
X113806295Y-131292346D01*
X113794518Y-131292336D01*
X113100002Y-131579304D01*
X112403754Y-131862181D01*
X112384901Y-131874778D01*
X112384485Y-131874950D01*
X112384164Y-131875271D01*
X112359640Y-131891657D01*
X112336637Y-131922714D01*
X111342026Y-132915591D01*
X111317657Y-132933640D01*
X111313076Y-132944490D01*
X111304741Y-132952811D01*
X111016533Y-133646893D01*
X110724264Y-134339171D01*
X110724184Y-134350947D01*
X110719667Y-134361825D01*
X110719011Y-135113352D01*
X110713913Y-135864793D01*
X106508078Y-135864793D01*
X106628611Y-135574519D01*
X106628629Y-135554381D01*
X106636026Y-135535654D01*
X106629016Y-135110575D01*
X106629387Y-134685381D01*
X106621697Y-134666770D01*
X106621365Y-134646637D01*
X106309360Y-133893390D01*
X106300155Y-133888580D01*
X106289845Y-133863628D01*
X105661679Y-133234364D01*
X105633943Y-133222847D01*
X105628610Y-133212640D01*
X105233203Y-133056446D01*
X104840519Y-132893389D01*
X104820381Y-132893371D01*
X104801654Y-132885974D01*
X104376575Y-132892984D01*
X103951381Y-132892613D01*
X103932770Y-132900303D01*
X103912637Y-132900635D01*
X103159390Y-133212640D01*
X103154580Y-133221845D01*
X103129628Y-133232155D01*
X102500364Y-133860321D01*
X102488847Y-133888057D01*
X102478640Y-133893390D01*
X102322446Y-134288797D01*
X102159389Y-134681481D01*
X102159371Y-134701619D01*
X102151974Y-134720346D01*
X90705854Y-134720346D01*
X90708087Y-134391207D01*
X90703654Y-134380295D01*
X90703664Y-134368518D01*
X90416696Y-133674002D01*
X90133819Y-132977754D01*
X90121222Y-132958901D01*
X90121050Y-132958485D01*
X90120729Y-132958164D01*
X90104343Y-132933640D01*
X90073286Y-132910637D01*
X89080409Y-131916026D01*
X89062360Y-131891657D01*
X89051510Y-131887076D01*
X89043189Y-131878741D01*
X88349107Y-131590533D01*
X87656829Y-131298264D01*
X87645053Y-131298184D01*
X87634175Y-131293667D01*
X86882648Y-131293011D01*
X86131207Y-131287913D01*
X86120295Y-131292346D01*
X86108518Y-131292336D01*
X85414002Y-131579304D01*
X84717754Y-131862181D01*
X84698901Y-131874778D01*
X84698485Y-131874950D01*
X84698164Y-131875271D01*
X84673640Y-131891657D01*
X84650637Y-131922714D01*
X83656026Y-132915591D01*
X83631657Y-132933640D01*
X83627076Y-132944490D01*
X83618741Y-132952811D01*
X83330533Y-133646893D01*
X83038264Y-134339171D01*
X83038184Y-134350947D01*
X83033667Y-134361825D01*
X83033011Y-135113352D01*
X83027913Y-135864793D01*
X78822078Y-135864793D01*
X78942611Y-135574519D01*
X78942629Y-135554381D01*
X78950026Y-135535654D01*
X78943016Y-135110575D01*
X78943387Y-134685381D01*
X78935697Y-134666770D01*
X78935365Y-134646637D01*
X78623360Y-133893390D01*
X78614155Y-133888580D01*
X78603845Y-133863628D01*
X77975679Y-133234364D01*
X77947943Y-133222847D01*
X77942610Y-133212640D01*
X77547203Y-133056446D01*
X77154519Y-132893389D01*
X77134381Y-132893371D01*
X77115654Y-132885974D01*
X76690575Y-132892984D01*
X76265381Y-132892613D01*
X76246770Y-132900303D01*
X76226637Y-132900635D01*
X75473390Y-133212640D01*
X75468580Y-133221845D01*
X75443628Y-133232155D01*
X74814364Y-133860321D01*
X74802847Y-133888057D01*
X74792640Y-133893390D01*
X74636446Y-134288797D01*
X74473389Y-134681481D01*
X74473371Y-134701619D01*
X74465974Y-134720346D01*
X73315500Y-134720346D01*
X73315500Y-124560346D01*
X74465974Y-124560346D01*
X74472984Y-124985425D01*
X74472613Y-125410619D01*
X74480303Y-125429230D01*
X74480635Y-125449363D01*
X74792640Y-126202610D01*
X74801845Y-126207420D01*
X74812155Y-126232372D01*
X75440321Y-126861636D01*
X75468057Y-126873153D01*
X75473390Y-126883360D01*
X75868797Y-127039554D01*
X76261481Y-127202611D01*
X76281619Y-127202629D01*
X76300346Y-127210026D01*
X76725425Y-127203016D01*
X77150619Y-127203387D01*
X77169230Y-127195697D01*
X77189363Y-127195365D01*
X77942610Y-126883360D01*
X77947420Y-126874155D01*
X77972372Y-126863845D01*
X78601636Y-126235679D01*
X78613153Y-126207943D01*
X78623360Y-126202610D01*
X78779554Y-125807203D01*
X78822078Y-125704793D01*
X83027913Y-125704793D01*
X83032346Y-125715705D01*
X83032336Y-125727482D01*
X83319304Y-126421998D01*
X83602181Y-127118246D01*
X83614778Y-127137099D01*
X83614950Y-127137515D01*
X83615271Y-127137836D01*
X83631657Y-127162360D01*
X83662714Y-127185363D01*
X84655591Y-128179974D01*
X84673640Y-128204343D01*
X84684490Y-128208924D01*
X84692811Y-128217259D01*
X85386893Y-128505467D01*
X86079171Y-128797736D01*
X86090947Y-128797816D01*
X86101825Y-128802333D01*
X86853352Y-128802989D01*
X87604793Y-128808087D01*
X87615705Y-128803654D01*
X87627482Y-128803664D01*
X88321998Y-128516696D01*
X89018246Y-128233819D01*
X89037099Y-128221222D01*
X89037515Y-128221050D01*
X89037836Y-128220729D01*
X89062360Y-128204343D01*
X89085363Y-128173286D01*
X90079974Y-127180409D01*
X90104343Y-127162360D01*
X90108924Y-127151510D01*
X90117259Y-127143189D01*
X90405467Y-126449107D01*
X90697736Y-125756829D01*
X90697816Y-125745053D01*
X90702333Y-125734175D01*
X90702989Y-124982648D01*
X90705854Y-124560346D01*
X102151974Y-124560346D01*
X102158984Y-124985425D01*
X102158613Y-125410619D01*
X102166303Y-125429230D01*
X102166635Y-125449363D01*
X102478640Y-126202610D01*
X102487845Y-126207420D01*
X102498155Y-126232372D01*
X103126321Y-126861636D01*
X103154057Y-126873153D01*
X103159390Y-126883360D01*
X103554797Y-127039554D01*
X103947481Y-127202611D01*
X103967619Y-127202629D01*
X103986346Y-127210026D01*
X104411425Y-127203016D01*
X104836619Y-127203387D01*
X104855230Y-127195697D01*
X104875363Y-127195365D01*
X105628610Y-126883360D01*
X105633420Y-126874155D01*
X105658372Y-126863845D01*
X106287636Y-126235679D01*
X106299153Y-126207943D01*
X106309360Y-126202610D01*
X106465554Y-125807203D01*
X106508078Y-125704793D01*
X110713913Y-125704793D01*
X110718346Y-125715705D01*
X110718336Y-125727482D01*
X111005304Y-126421998D01*
X111288181Y-127118246D01*
X111300778Y-127137099D01*
X111300950Y-127137515D01*
X111301271Y-127137836D01*
X111317657Y-127162360D01*
X111348714Y-127185363D01*
X112341591Y-128179974D01*
X112359640Y-128204343D01*
X112370490Y-128208924D01*
X112378811Y-128217259D01*
X113072893Y-128505467D01*
X113765171Y-128797736D01*
X113776947Y-128797816D01*
X113787825Y-128802333D01*
X114539352Y-128802989D01*
X115290793Y-128808087D01*
X115301705Y-128803654D01*
X115313482Y-128803664D01*
X116007998Y-128516696D01*
X116704246Y-128233819D01*
X116723099Y-128221222D01*
X116723515Y-128221050D01*
X116723836Y-128220729D01*
X116748360Y-128204343D01*
X116771363Y-128173286D01*
X117765974Y-127180409D01*
X117790343Y-127162360D01*
X117794924Y-127151510D01*
X117803259Y-127143189D01*
X118091467Y-126449107D01*
X118383736Y-125756829D01*
X118383816Y-125745053D01*
X118388333Y-125734175D01*
X118388989Y-124982648D01*
X118394087Y-124231207D01*
X118389654Y-124220295D01*
X118389664Y-124208518D01*
X118102696Y-123514002D01*
X118064014Y-123418793D01*
X126461913Y-123418793D01*
X126466346Y-123429705D01*
X126466336Y-123441482D01*
X126753304Y-124135998D01*
X127036181Y-124832246D01*
X127048778Y-124851099D01*
X127048950Y-124851515D01*
X127049271Y-124851836D01*
X127065657Y-124876360D01*
X127096714Y-124899363D01*
X128089591Y-125893974D01*
X128107640Y-125918343D01*
X128118490Y-125922924D01*
X128126811Y-125931259D01*
X128820893Y-126219467D01*
X129513171Y-126511736D01*
X129524947Y-126511816D01*
X129535825Y-126516333D01*
X130287352Y-126516989D01*
X131038793Y-126522087D01*
X131049705Y-126517654D01*
X131061482Y-126517664D01*
X131755998Y-126230696D01*
X132452246Y-125947819D01*
X132471099Y-125935222D01*
X132471515Y-125935050D01*
X132471836Y-125934729D01*
X132496360Y-125918343D01*
X132519363Y-125887286D01*
X133513974Y-124894409D01*
X133538343Y-124876360D01*
X133542924Y-124865510D01*
X133551259Y-124857189D01*
X133839467Y-124163107D01*
X134100087Y-123545793D01*
X142717913Y-123545793D01*
X142722346Y-123556705D01*
X142722336Y-123568482D01*
X143009304Y-124262998D01*
X143292181Y-124959246D01*
X143304778Y-124978099D01*
X143304950Y-124978515D01*
X143305271Y-124978836D01*
X143321657Y-125003360D01*
X143352714Y-125026363D01*
X144345591Y-126020974D01*
X144363640Y-126045343D01*
X144374490Y-126049924D01*
X144382811Y-126058259D01*
X145076893Y-126346467D01*
X145769171Y-126638736D01*
X145780947Y-126638816D01*
X145791825Y-126643333D01*
X146543352Y-126643989D01*
X147294793Y-126649087D01*
X147305705Y-126644654D01*
X147317482Y-126644664D01*
X148011998Y-126357696D01*
X148708246Y-126074819D01*
X148727099Y-126062222D01*
X148727515Y-126062050D01*
X148727836Y-126061729D01*
X148752360Y-126045343D01*
X148775363Y-126014286D01*
X149769974Y-125021409D01*
X149794343Y-125003360D01*
X149798924Y-124992510D01*
X149807259Y-124984189D01*
X150095467Y-124290107D01*
X150387736Y-123597829D01*
X150387816Y-123586053D01*
X150392333Y-123575175D01*
X150392989Y-122823648D01*
X150398087Y-122072207D01*
X150393654Y-122061295D01*
X150393664Y-122049518D01*
X150106696Y-121355002D01*
X149823819Y-120658754D01*
X149811222Y-120639901D01*
X149811050Y-120639485D01*
X149810729Y-120639164D01*
X149794343Y-120614640D01*
X149763286Y-120591637D01*
X148770409Y-119597026D01*
X148752360Y-119572657D01*
X148741510Y-119568076D01*
X148733189Y-119559741D01*
X148039107Y-119271533D01*
X147346829Y-118979264D01*
X147335053Y-118979184D01*
X147324175Y-118974667D01*
X146572648Y-118974011D01*
X145821207Y-118968913D01*
X145810295Y-118973346D01*
X145798518Y-118973336D01*
X145104002Y-119260304D01*
X144407754Y-119543181D01*
X144388901Y-119555778D01*
X144388485Y-119555950D01*
X144388164Y-119556271D01*
X144363640Y-119572657D01*
X144340637Y-119603714D01*
X143346026Y-120596591D01*
X143321657Y-120614640D01*
X143317076Y-120625490D01*
X143308741Y-120633811D01*
X143020533Y-121327893D01*
X142728264Y-122020171D01*
X142728184Y-122031947D01*
X142723667Y-122042825D01*
X142723011Y-122794352D01*
X142717913Y-123545793D01*
X134100087Y-123545793D01*
X134131736Y-123470829D01*
X134131816Y-123459053D01*
X134136333Y-123448175D01*
X134136989Y-122696648D01*
X134142087Y-121945207D01*
X134137654Y-121934295D01*
X134137664Y-121922518D01*
X133850696Y-121228002D01*
X133567819Y-120531754D01*
X133555222Y-120512901D01*
X133555050Y-120512485D01*
X133554729Y-120512164D01*
X133538343Y-120487640D01*
X133507286Y-120464637D01*
X132514409Y-119470026D01*
X132496360Y-119445657D01*
X132485510Y-119441076D01*
X132477189Y-119432741D01*
X131783107Y-119144533D01*
X131090829Y-118852264D01*
X131079053Y-118852184D01*
X131068175Y-118847667D01*
X130316648Y-118847011D01*
X129565207Y-118841913D01*
X129554295Y-118846346D01*
X129542518Y-118846336D01*
X128848002Y-119133304D01*
X128151754Y-119416181D01*
X128132901Y-119428778D01*
X128132485Y-119428950D01*
X128132164Y-119429271D01*
X128107640Y-119445657D01*
X128084637Y-119476714D01*
X127090026Y-120469591D01*
X127065657Y-120487640D01*
X127061076Y-120498490D01*
X127052741Y-120506811D01*
X126764533Y-121200893D01*
X126472264Y-121893171D01*
X126472184Y-121904947D01*
X126467667Y-121915825D01*
X126467011Y-122667352D01*
X126461913Y-123418793D01*
X118064014Y-123418793D01*
X117819819Y-122817754D01*
X117807222Y-122798901D01*
X117807050Y-122798485D01*
X117806729Y-122798164D01*
X117790343Y-122773640D01*
X117759286Y-122750637D01*
X116766409Y-121756026D01*
X116748360Y-121731657D01*
X116737510Y-121727076D01*
X116729189Y-121718741D01*
X116035107Y-121430533D01*
X115342829Y-121138264D01*
X115331053Y-121138184D01*
X115320175Y-121133667D01*
X114568648Y-121133011D01*
X113817207Y-121127913D01*
X113806295Y-121132346D01*
X113794518Y-121132336D01*
X113100002Y-121419304D01*
X112403754Y-121702181D01*
X112384901Y-121714778D01*
X112384485Y-121714950D01*
X112384164Y-121715271D01*
X112359640Y-121731657D01*
X112336637Y-121762714D01*
X111342026Y-122755591D01*
X111317657Y-122773640D01*
X111313076Y-122784490D01*
X111304741Y-122792811D01*
X111016533Y-123486893D01*
X110724264Y-124179171D01*
X110724184Y-124190947D01*
X110719667Y-124201825D01*
X110719011Y-124953352D01*
X110713913Y-125704793D01*
X106508078Y-125704793D01*
X106628611Y-125414519D01*
X106628629Y-125394381D01*
X106636026Y-125375654D01*
X106629016Y-124950575D01*
X106629387Y-124525381D01*
X106621697Y-124506770D01*
X106621365Y-124486637D01*
X106309360Y-123733390D01*
X106300155Y-123728580D01*
X106289845Y-123703628D01*
X105661679Y-123074364D01*
X105633943Y-123062847D01*
X105628610Y-123052640D01*
X105233203Y-122896446D01*
X104840519Y-122733389D01*
X104820381Y-122733371D01*
X104801654Y-122725974D01*
X104376575Y-122732984D01*
X103951381Y-122732613D01*
X103932770Y-122740303D01*
X103912637Y-122740635D01*
X103159390Y-123052640D01*
X103154580Y-123061845D01*
X103129628Y-123072155D01*
X102500364Y-123700321D01*
X102488847Y-123728057D01*
X102478640Y-123733390D01*
X102322446Y-124128797D01*
X102159389Y-124521481D01*
X102159371Y-124541619D01*
X102151974Y-124560346D01*
X90705854Y-124560346D01*
X90708087Y-124231207D01*
X90703654Y-124220295D01*
X90703664Y-124208518D01*
X90416696Y-123514002D01*
X90133819Y-122817754D01*
X90121222Y-122798901D01*
X90121050Y-122798485D01*
X90120729Y-122798164D01*
X90104343Y-122773640D01*
X90073286Y-122750637D01*
X89080409Y-121756026D01*
X89062360Y-121731657D01*
X89051510Y-121727076D01*
X89043189Y-121718741D01*
X88349107Y-121430533D01*
X87656829Y-121138264D01*
X87645053Y-121138184D01*
X87634175Y-121133667D01*
X86882648Y-121133011D01*
X86131207Y-121127913D01*
X86120295Y-121132346D01*
X86108518Y-121132336D01*
X85414002Y-121419304D01*
X84717754Y-121702181D01*
X84698901Y-121714778D01*
X84698485Y-121714950D01*
X84698164Y-121715271D01*
X84673640Y-121731657D01*
X84650637Y-121762714D01*
X83656026Y-122755591D01*
X83631657Y-122773640D01*
X83627076Y-122784490D01*
X83618741Y-122792811D01*
X83330533Y-123486893D01*
X83038264Y-124179171D01*
X83038184Y-124190947D01*
X83033667Y-124201825D01*
X83033011Y-124953352D01*
X83027913Y-125704793D01*
X78822078Y-125704793D01*
X78942611Y-125414519D01*
X78942629Y-125394381D01*
X78950026Y-125375654D01*
X78943016Y-124950575D01*
X78943387Y-124525381D01*
X78935697Y-124506770D01*
X78935365Y-124486637D01*
X78623360Y-123733390D01*
X78614155Y-123728580D01*
X78603845Y-123703628D01*
X77975679Y-123074364D01*
X77947943Y-123062847D01*
X77942610Y-123052640D01*
X77547203Y-122896446D01*
X77154519Y-122733389D01*
X77134381Y-122733371D01*
X77115654Y-122725974D01*
X76690575Y-122732984D01*
X76265381Y-122732613D01*
X76246770Y-122740303D01*
X76226637Y-122740635D01*
X75473390Y-123052640D01*
X75468580Y-123061845D01*
X75443628Y-123072155D01*
X74814364Y-123700321D01*
X74802847Y-123728057D01*
X74792640Y-123733390D01*
X74636446Y-124128797D01*
X74473389Y-124521481D01*
X74473371Y-124541619D01*
X74465974Y-124560346D01*
X73315500Y-124560346D01*
X73315500Y-114400346D01*
X74465974Y-114400346D01*
X74472984Y-114825425D01*
X74472613Y-115250619D01*
X74480303Y-115269230D01*
X74480635Y-115289363D01*
X74792640Y-116042610D01*
X74801845Y-116047420D01*
X74812155Y-116072372D01*
X75440321Y-116701636D01*
X75468057Y-116713153D01*
X75473390Y-116723360D01*
X75868797Y-116879554D01*
X76261481Y-117042611D01*
X76281619Y-117042629D01*
X76300346Y-117050026D01*
X76725425Y-117043016D01*
X77150619Y-117043387D01*
X77169230Y-117035697D01*
X77189363Y-117035365D01*
X77942610Y-116723360D01*
X77947420Y-116714155D01*
X77972372Y-116703845D01*
X78601636Y-116075679D01*
X78613153Y-116047943D01*
X78623360Y-116042610D01*
X78779554Y-115647203D01*
X78822078Y-115544793D01*
X83027913Y-115544793D01*
X83032346Y-115555705D01*
X83032336Y-115567482D01*
X83319304Y-116261998D01*
X83602181Y-116958246D01*
X83614778Y-116977099D01*
X83614950Y-116977515D01*
X83615271Y-116977836D01*
X83631657Y-117002360D01*
X83662714Y-117025363D01*
X84655591Y-118019974D01*
X84673640Y-118044343D01*
X84684490Y-118048924D01*
X84692811Y-118057259D01*
X85386893Y-118345467D01*
X86079171Y-118637736D01*
X86090947Y-118637816D01*
X86101825Y-118642333D01*
X86853352Y-118642989D01*
X87604793Y-118648087D01*
X87615705Y-118643654D01*
X87627482Y-118643664D01*
X88321998Y-118356696D01*
X89018246Y-118073819D01*
X89037099Y-118061222D01*
X89037515Y-118061050D01*
X89037836Y-118060729D01*
X89062360Y-118044343D01*
X89085363Y-118013286D01*
X90079974Y-117020409D01*
X90104343Y-117002360D01*
X90108924Y-116991510D01*
X90117259Y-116983189D01*
X90405467Y-116289107D01*
X90697736Y-115596829D01*
X90697816Y-115585053D01*
X90702333Y-115574175D01*
X90702989Y-114822648D01*
X90705854Y-114400346D01*
X102151974Y-114400346D01*
X102158984Y-114825425D01*
X102158613Y-115250619D01*
X102166303Y-115269230D01*
X102166635Y-115289363D01*
X102478640Y-116042610D01*
X102487845Y-116047420D01*
X102498155Y-116072372D01*
X103126321Y-116701636D01*
X103154057Y-116713153D01*
X103159390Y-116723360D01*
X103554797Y-116879554D01*
X103947481Y-117042611D01*
X103967619Y-117042629D01*
X103986346Y-117050026D01*
X104411425Y-117043016D01*
X104836619Y-117043387D01*
X104855230Y-117035697D01*
X104875363Y-117035365D01*
X105628610Y-116723360D01*
X105633420Y-116714155D01*
X105658372Y-116703845D01*
X106287636Y-116075679D01*
X106299153Y-116047943D01*
X106309360Y-116042610D01*
X106465554Y-115647203D01*
X106508078Y-115544793D01*
X110713913Y-115544793D01*
X110718346Y-115555705D01*
X110718336Y-115567482D01*
X111005304Y-116261998D01*
X111288181Y-116958246D01*
X111300778Y-116977099D01*
X111300950Y-116977515D01*
X111301271Y-116977836D01*
X111317657Y-117002360D01*
X111348714Y-117025363D01*
X112341591Y-118019974D01*
X112359640Y-118044343D01*
X112370490Y-118048924D01*
X112378811Y-118057259D01*
X113072893Y-118345467D01*
X113765171Y-118637736D01*
X113776947Y-118637816D01*
X113787825Y-118642333D01*
X114539352Y-118642989D01*
X115290793Y-118648087D01*
X115301705Y-118643654D01*
X115313482Y-118643664D01*
X116007998Y-118356696D01*
X116704246Y-118073819D01*
X116723099Y-118061222D01*
X116723515Y-118061050D01*
X116723836Y-118060729D01*
X116748360Y-118044343D01*
X116771363Y-118013286D01*
X117765974Y-117020409D01*
X117790343Y-117002360D01*
X117794924Y-116991510D01*
X117803259Y-116983189D01*
X118091467Y-116289107D01*
X118383736Y-115596829D01*
X118383816Y-115585053D01*
X118388333Y-115574175D01*
X118388989Y-114822648D01*
X118394087Y-114071207D01*
X118389654Y-114060295D01*
X118389664Y-114048518D01*
X118102696Y-113354002D01*
X117819819Y-112657754D01*
X117807222Y-112638901D01*
X117807050Y-112638485D01*
X117806729Y-112638164D01*
X117790343Y-112613640D01*
X117759286Y-112590637D01*
X116766409Y-111596026D01*
X116748360Y-111571657D01*
X116737510Y-111567076D01*
X116729189Y-111558741D01*
X116035107Y-111270533D01*
X115342829Y-110978264D01*
X115331053Y-110978184D01*
X115320175Y-110973667D01*
X114568648Y-110973011D01*
X113817207Y-110967913D01*
X113806295Y-110972346D01*
X113794518Y-110972336D01*
X113100002Y-111259304D01*
X112403754Y-111542181D01*
X112384901Y-111554778D01*
X112384485Y-111554950D01*
X112384164Y-111555271D01*
X112359640Y-111571657D01*
X112336637Y-111602714D01*
X111342026Y-112595591D01*
X111317657Y-112613640D01*
X111313076Y-112624490D01*
X111304741Y-112632811D01*
X111016533Y-113326893D01*
X110724264Y-114019171D01*
X110724184Y-114030947D01*
X110719667Y-114041825D01*
X110719011Y-114793352D01*
X110713913Y-115544793D01*
X106508078Y-115544793D01*
X106628611Y-115254519D01*
X106628629Y-115234381D01*
X106636026Y-115215654D01*
X106629016Y-114790575D01*
X106629387Y-114365381D01*
X106621697Y-114346770D01*
X106621365Y-114326637D01*
X106309360Y-113573390D01*
X106300155Y-113568580D01*
X106289845Y-113543628D01*
X105661679Y-112914364D01*
X105633943Y-112902847D01*
X105628610Y-112892640D01*
X105233203Y-112736446D01*
X104840519Y-112573389D01*
X104820381Y-112573371D01*
X104801654Y-112565974D01*
X104376575Y-112572984D01*
X103951381Y-112572613D01*
X103932770Y-112580303D01*
X103912637Y-112580635D01*
X103159390Y-112892640D01*
X103154580Y-112901845D01*
X103129628Y-112912155D01*
X102500364Y-113540321D01*
X102488847Y-113568057D01*
X102478640Y-113573390D01*
X102322446Y-113968797D01*
X102159389Y-114361481D01*
X102159371Y-114381619D01*
X102151974Y-114400346D01*
X90705854Y-114400346D01*
X90708087Y-114071207D01*
X90703654Y-114060295D01*
X90703664Y-114048518D01*
X90416696Y-113354002D01*
X90133819Y-112657754D01*
X90121222Y-112638901D01*
X90121050Y-112638485D01*
X90120729Y-112638164D01*
X90104343Y-112613640D01*
X90073286Y-112590637D01*
X89080409Y-111596026D01*
X89062360Y-111571657D01*
X89051510Y-111567076D01*
X89043189Y-111558741D01*
X88349107Y-111270533D01*
X87656829Y-110978264D01*
X87645053Y-110978184D01*
X87634175Y-110973667D01*
X86882648Y-110973011D01*
X86131207Y-110967913D01*
X86120295Y-110972346D01*
X86108518Y-110972336D01*
X85414002Y-111259304D01*
X84717754Y-111542181D01*
X84698901Y-111554778D01*
X84698485Y-111554950D01*
X84698164Y-111555271D01*
X84673640Y-111571657D01*
X84650637Y-111602714D01*
X83656026Y-112595591D01*
X83631657Y-112613640D01*
X83627076Y-112624490D01*
X83618741Y-112632811D01*
X83330533Y-113326893D01*
X83038264Y-114019171D01*
X83038184Y-114030947D01*
X83033667Y-114041825D01*
X83033011Y-114793352D01*
X83027913Y-115544793D01*
X78822078Y-115544793D01*
X78942611Y-115254519D01*
X78942629Y-115234381D01*
X78950026Y-115215654D01*
X78943016Y-114790575D01*
X78943387Y-114365381D01*
X78935697Y-114346770D01*
X78935365Y-114326637D01*
X78623360Y-113573390D01*
X78614155Y-113568580D01*
X78603845Y-113543628D01*
X77975679Y-112914364D01*
X77947943Y-112902847D01*
X77942610Y-112892640D01*
X77547203Y-112736446D01*
X77154519Y-112573389D01*
X77134381Y-112573371D01*
X77115654Y-112565974D01*
X76690575Y-112572984D01*
X76265381Y-112572613D01*
X76246770Y-112580303D01*
X76226637Y-112580635D01*
X75473390Y-112892640D01*
X75468580Y-112901845D01*
X75443628Y-112912155D01*
X74814364Y-113540321D01*
X74802847Y-113568057D01*
X74792640Y-113573390D01*
X74636446Y-113968797D01*
X74473389Y-114361481D01*
X74473371Y-114381619D01*
X74465974Y-114400346D01*
X73315500Y-114400346D01*
X73315500Y-109702793D01*
X126461913Y-109702793D01*
X126466346Y-109713705D01*
X126466336Y-109725482D01*
X126753304Y-110419998D01*
X127036181Y-111116246D01*
X127048778Y-111135099D01*
X127048950Y-111135515D01*
X127049271Y-111135836D01*
X127065657Y-111160360D01*
X127096714Y-111183363D01*
X128089591Y-112177974D01*
X128107640Y-112202343D01*
X128118490Y-112206924D01*
X128126811Y-112215259D01*
X128820893Y-112503467D01*
X129513171Y-112795736D01*
X129524947Y-112795816D01*
X129535825Y-112800333D01*
X130287352Y-112800989D01*
X131038793Y-112806087D01*
X131049705Y-112801654D01*
X131061482Y-112801664D01*
X131755998Y-112514696D01*
X132452246Y-112231819D01*
X132471099Y-112219222D01*
X132471515Y-112219050D01*
X132471836Y-112218729D01*
X132496360Y-112202343D01*
X132519363Y-112171286D01*
X133513974Y-111178409D01*
X133538343Y-111160360D01*
X133542924Y-111149510D01*
X133551259Y-111141189D01*
X133839467Y-110447107D01*
X134100087Y-109829793D01*
X142717913Y-109829793D01*
X142722346Y-109840705D01*
X142722336Y-109852482D01*
X143009304Y-110546998D01*
X143292181Y-111243246D01*
X143304778Y-111262099D01*
X143304950Y-111262515D01*
X143305271Y-111262836D01*
X143321657Y-111287360D01*
X143352714Y-111310363D01*
X144345591Y-112304974D01*
X144363640Y-112329343D01*
X144374490Y-112333924D01*
X144382811Y-112342259D01*
X145076893Y-112630467D01*
X145769171Y-112922736D01*
X145780947Y-112922816D01*
X145791825Y-112927333D01*
X146543352Y-112927989D01*
X147294793Y-112933087D01*
X147305705Y-112928654D01*
X147317482Y-112928664D01*
X148011998Y-112641696D01*
X148708246Y-112358819D01*
X148727099Y-112346222D01*
X148727515Y-112346050D01*
X148727836Y-112345729D01*
X148752360Y-112329343D01*
X148775363Y-112298286D01*
X149769974Y-111305409D01*
X149794343Y-111287360D01*
X149798924Y-111276510D01*
X149807259Y-111268189D01*
X150095467Y-110574107D01*
X150387736Y-109881829D01*
X150387816Y-109870053D01*
X150392333Y-109859175D01*
X150392989Y-109107648D01*
X150398087Y-108356207D01*
X150393654Y-108345295D01*
X150393664Y-108333518D01*
X150106696Y-107639002D01*
X149823819Y-106942754D01*
X149811222Y-106923901D01*
X149811050Y-106923485D01*
X149810729Y-106923164D01*
X149794343Y-106898640D01*
X149763286Y-106875637D01*
X148770409Y-105881026D01*
X148752360Y-105856657D01*
X148741510Y-105852076D01*
X148733189Y-105843741D01*
X148039107Y-105555533D01*
X147346829Y-105263264D01*
X147335053Y-105263184D01*
X147324175Y-105258667D01*
X146572648Y-105258011D01*
X145821207Y-105252913D01*
X145810295Y-105257346D01*
X145798518Y-105257336D01*
X145104002Y-105544304D01*
X144407754Y-105827181D01*
X144388901Y-105839778D01*
X144388485Y-105839950D01*
X144388164Y-105840271D01*
X144363640Y-105856657D01*
X144340637Y-105887714D01*
X143346026Y-106880591D01*
X143321657Y-106898640D01*
X143317076Y-106909490D01*
X143308741Y-106917811D01*
X143020533Y-107611893D01*
X142728264Y-108304171D01*
X142728184Y-108315947D01*
X142723667Y-108326825D01*
X142723011Y-109078352D01*
X142717913Y-109829793D01*
X134100087Y-109829793D01*
X134131736Y-109754829D01*
X134131816Y-109743053D01*
X134136333Y-109732175D01*
X134136989Y-108980648D01*
X134142087Y-108229207D01*
X134137654Y-108218295D01*
X134137664Y-108206518D01*
X133850696Y-107512002D01*
X133567819Y-106815754D01*
X133555222Y-106796901D01*
X133555050Y-106796485D01*
X133554729Y-106796164D01*
X133538343Y-106771640D01*
X133507286Y-106748637D01*
X132514409Y-105754026D01*
X132496360Y-105729657D01*
X132485510Y-105725076D01*
X132477189Y-105716741D01*
X131783107Y-105428533D01*
X131090829Y-105136264D01*
X131079053Y-105136184D01*
X131068175Y-105131667D01*
X130316648Y-105131011D01*
X129565207Y-105125913D01*
X129554295Y-105130346D01*
X129542518Y-105130336D01*
X128848002Y-105417304D01*
X128151754Y-105700181D01*
X128132901Y-105712778D01*
X128132485Y-105712950D01*
X128132164Y-105713271D01*
X128107640Y-105729657D01*
X128084637Y-105760714D01*
X127090026Y-106753591D01*
X127065657Y-106771640D01*
X127061076Y-106782490D01*
X127052741Y-106790811D01*
X126764533Y-107484893D01*
X126472264Y-108177171D01*
X126472184Y-108188947D01*
X126467667Y-108199825D01*
X126467011Y-108951352D01*
X126461913Y-109702793D01*
X73315500Y-109702793D01*
X73315500Y-104240346D01*
X74465974Y-104240346D01*
X74472984Y-104665425D01*
X74472613Y-105090619D01*
X74480303Y-105109230D01*
X74480635Y-105129363D01*
X74792640Y-105882610D01*
X74801845Y-105887420D01*
X74812155Y-105912372D01*
X75440321Y-106541636D01*
X75468057Y-106553153D01*
X75473390Y-106563360D01*
X75868797Y-106719554D01*
X76261481Y-106882611D01*
X76281619Y-106882629D01*
X76300346Y-106890026D01*
X76725425Y-106883016D01*
X77150619Y-106883387D01*
X77169230Y-106875697D01*
X77189363Y-106875365D01*
X77942610Y-106563360D01*
X77947420Y-106554155D01*
X77972372Y-106543845D01*
X78601636Y-105915679D01*
X78613153Y-105887943D01*
X78623360Y-105882610D01*
X78779554Y-105487203D01*
X78822078Y-105384793D01*
X83027913Y-105384793D01*
X83032346Y-105395705D01*
X83032336Y-105407482D01*
X83319304Y-106101998D01*
X83602181Y-106798246D01*
X83614778Y-106817099D01*
X83614950Y-106817515D01*
X83615271Y-106817836D01*
X83631657Y-106842360D01*
X83662714Y-106865363D01*
X84655591Y-107859974D01*
X84673640Y-107884343D01*
X84684490Y-107888924D01*
X84692811Y-107897259D01*
X85386893Y-108185467D01*
X86079171Y-108477736D01*
X86090947Y-108477816D01*
X86101825Y-108482333D01*
X86853352Y-108482989D01*
X87604793Y-108488087D01*
X87615705Y-108483654D01*
X87627482Y-108483664D01*
X88321998Y-108196696D01*
X89018246Y-107913819D01*
X89037099Y-107901222D01*
X89037515Y-107901050D01*
X89037836Y-107900729D01*
X89062360Y-107884343D01*
X89085363Y-107853286D01*
X90079974Y-106860409D01*
X90104343Y-106842360D01*
X90108924Y-106831510D01*
X90117259Y-106823189D01*
X90405467Y-106129107D01*
X90697736Y-105436829D01*
X90697816Y-105425053D01*
X90702333Y-105414175D01*
X90702989Y-104662648D01*
X90705854Y-104240346D01*
X102151974Y-104240346D01*
X102158984Y-104665425D01*
X102158613Y-105090619D01*
X102166303Y-105109230D01*
X102166635Y-105129363D01*
X102478640Y-105882610D01*
X102487845Y-105887420D01*
X102498155Y-105912372D01*
X103126321Y-106541636D01*
X103154057Y-106553153D01*
X103159390Y-106563360D01*
X103554797Y-106719554D01*
X103947481Y-106882611D01*
X103967619Y-106882629D01*
X103986346Y-106890026D01*
X104411425Y-106883016D01*
X104836619Y-106883387D01*
X104855230Y-106875697D01*
X104875363Y-106875365D01*
X105628610Y-106563360D01*
X105633420Y-106554155D01*
X105658372Y-106543845D01*
X106287636Y-105915679D01*
X106299153Y-105887943D01*
X106309360Y-105882610D01*
X106465554Y-105487203D01*
X106508078Y-105384793D01*
X110713913Y-105384793D01*
X110718346Y-105395705D01*
X110718336Y-105407482D01*
X111005304Y-106101998D01*
X111288181Y-106798246D01*
X111300778Y-106817099D01*
X111300950Y-106817515D01*
X111301271Y-106817836D01*
X111317657Y-106842360D01*
X111348714Y-106865363D01*
X112341591Y-107859974D01*
X112359640Y-107884343D01*
X112370490Y-107888924D01*
X112378811Y-107897259D01*
X113072893Y-108185467D01*
X113765171Y-108477736D01*
X113776947Y-108477816D01*
X113787825Y-108482333D01*
X114539352Y-108482989D01*
X115290793Y-108488087D01*
X115301705Y-108483654D01*
X115313482Y-108483664D01*
X116007998Y-108196696D01*
X116704246Y-107913819D01*
X116723099Y-107901222D01*
X116723515Y-107901050D01*
X116723836Y-107900729D01*
X116748360Y-107884343D01*
X116771363Y-107853286D01*
X117765974Y-106860409D01*
X117790343Y-106842360D01*
X117794924Y-106831510D01*
X117803259Y-106823189D01*
X118091467Y-106129107D01*
X118383736Y-105436829D01*
X118383816Y-105425053D01*
X118388333Y-105414175D01*
X118388989Y-104662648D01*
X118394087Y-103911207D01*
X118389654Y-103900295D01*
X118389664Y-103888518D01*
X118102696Y-103194002D01*
X117819819Y-102497754D01*
X117807222Y-102478901D01*
X117807050Y-102478485D01*
X117806729Y-102478164D01*
X117790343Y-102453640D01*
X117759286Y-102430637D01*
X116766409Y-101436026D01*
X116748360Y-101411657D01*
X116737510Y-101407076D01*
X116729189Y-101398741D01*
X116035107Y-101110533D01*
X115342829Y-100818264D01*
X115331053Y-100818184D01*
X115320175Y-100813667D01*
X114568648Y-100813011D01*
X113817207Y-100807913D01*
X113806295Y-100812346D01*
X113794518Y-100812336D01*
X113100002Y-101099304D01*
X112403754Y-101382181D01*
X112384901Y-101394778D01*
X112384485Y-101394950D01*
X112384164Y-101395271D01*
X112359640Y-101411657D01*
X112336637Y-101442714D01*
X111342026Y-102435591D01*
X111317657Y-102453640D01*
X111313076Y-102464490D01*
X111304741Y-102472811D01*
X111016533Y-103166893D01*
X110724264Y-103859171D01*
X110724184Y-103870947D01*
X110719667Y-103881825D01*
X110719011Y-104633352D01*
X110713913Y-105384793D01*
X106508078Y-105384793D01*
X106628611Y-105094519D01*
X106628629Y-105074381D01*
X106636026Y-105055654D01*
X106629016Y-104630575D01*
X106629387Y-104205381D01*
X106621697Y-104186770D01*
X106621365Y-104166637D01*
X106309360Y-103413390D01*
X106300155Y-103408580D01*
X106289845Y-103383628D01*
X105661679Y-102754364D01*
X105633943Y-102742847D01*
X105628610Y-102732640D01*
X105233203Y-102576446D01*
X104840519Y-102413389D01*
X104820381Y-102413371D01*
X104801654Y-102405974D01*
X104376575Y-102412984D01*
X103951381Y-102412613D01*
X103932770Y-102420303D01*
X103912637Y-102420635D01*
X103159390Y-102732640D01*
X103154580Y-102741845D01*
X103129628Y-102752155D01*
X102500364Y-103380321D01*
X102488847Y-103408057D01*
X102478640Y-103413390D01*
X102322446Y-103808797D01*
X102159389Y-104201481D01*
X102159371Y-104221619D01*
X102151974Y-104240346D01*
X90705854Y-104240346D01*
X90708087Y-103911207D01*
X90703654Y-103900295D01*
X90703664Y-103888518D01*
X90416696Y-103194002D01*
X90133819Y-102497754D01*
X90121222Y-102478901D01*
X90121050Y-102478485D01*
X90120729Y-102478164D01*
X90104343Y-102453640D01*
X90073286Y-102430637D01*
X89080409Y-101436026D01*
X89062360Y-101411657D01*
X89051510Y-101407076D01*
X89043189Y-101398741D01*
X88349107Y-101110533D01*
X87656829Y-100818264D01*
X87645053Y-100818184D01*
X87634175Y-100813667D01*
X86882648Y-100813011D01*
X86131207Y-100807913D01*
X86120295Y-100812346D01*
X86108518Y-100812336D01*
X85414002Y-101099304D01*
X84717754Y-101382181D01*
X84698901Y-101394778D01*
X84698485Y-101394950D01*
X84698164Y-101395271D01*
X84673640Y-101411657D01*
X84650637Y-101442714D01*
X83656026Y-102435591D01*
X83631657Y-102453640D01*
X83627076Y-102464490D01*
X83618741Y-102472811D01*
X83330533Y-103166893D01*
X83038264Y-103859171D01*
X83038184Y-103870947D01*
X83033667Y-103881825D01*
X83033011Y-104633352D01*
X83027913Y-105384793D01*
X78822078Y-105384793D01*
X78942611Y-105094519D01*
X78942629Y-105074381D01*
X78950026Y-105055654D01*
X78943016Y-104630575D01*
X78943387Y-104205381D01*
X78935697Y-104186770D01*
X78935365Y-104166637D01*
X78623360Y-103413390D01*
X78614155Y-103408580D01*
X78603845Y-103383628D01*
X77975679Y-102754364D01*
X77947943Y-102742847D01*
X77942610Y-102732640D01*
X77547203Y-102576446D01*
X77154519Y-102413389D01*
X77134381Y-102413371D01*
X77115654Y-102405974D01*
X76690575Y-102412984D01*
X76265381Y-102412613D01*
X76246770Y-102420303D01*
X76226637Y-102420635D01*
X75473390Y-102732640D01*
X75468580Y-102741845D01*
X75443628Y-102752155D01*
X74814364Y-103380321D01*
X74802847Y-103408057D01*
X74792640Y-103413390D01*
X74636446Y-103808797D01*
X74473389Y-104201481D01*
X74473371Y-104221619D01*
X74465974Y-104240346D01*
X73315500Y-104240346D01*
X73315500Y-94080346D01*
X74465974Y-94080346D01*
X74472984Y-94505425D01*
X74472613Y-94930619D01*
X74480303Y-94949230D01*
X74480635Y-94969363D01*
X74792640Y-95722610D01*
X74801845Y-95727420D01*
X74812155Y-95752372D01*
X75440321Y-96381636D01*
X75468057Y-96393153D01*
X75473390Y-96403360D01*
X75868797Y-96559554D01*
X76261481Y-96722611D01*
X76281619Y-96722629D01*
X76300346Y-96730026D01*
X76725425Y-96723016D01*
X77150619Y-96723387D01*
X77169230Y-96715697D01*
X77189363Y-96715365D01*
X77942610Y-96403360D01*
X77947420Y-96394155D01*
X77972372Y-96383845D01*
X78601636Y-95755679D01*
X78613153Y-95727943D01*
X78623360Y-95722610D01*
X78779554Y-95327203D01*
X78822078Y-95224793D01*
X83027913Y-95224793D01*
X83032346Y-95235705D01*
X83032336Y-95247482D01*
X83319304Y-95941998D01*
X83602181Y-96638246D01*
X83614778Y-96657099D01*
X83614950Y-96657515D01*
X83615271Y-96657836D01*
X83631657Y-96682360D01*
X83662714Y-96705363D01*
X84655591Y-97699974D01*
X84673640Y-97724343D01*
X84684490Y-97728924D01*
X84692811Y-97737259D01*
X85386893Y-98025467D01*
X86079171Y-98317736D01*
X86090947Y-98317816D01*
X86101825Y-98322333D01*
X86853352Y-98322989D01*
X87604793Y-98328087D01*
X87615705Y-98323654D01*
X87627482Y-98323664D01*
X88321998Y-98036696D01*
X89018246Y-97753819D01*
X89037099Y-97741222D01*
X89037515Y-97741050D01*
X89037836Y-97740729D01*
X89062360Y-97724343D01*
X89085363Y-97693286D01*
X90079974Y-96700409D01*
X90104343Y-96682360D01*
X90108924Y-96671510D01*
X90117259Y-96663189D01*
X90405467Y-95969107D01*
X90697736Y-95276829D01*
X90697816Y-95265053D01*
X90702333Y-95254175D01*
X90702989Y-94502648D01*
X90705854Y-94080346D01*
X102151974Y-94080346D01*
X102158984Y-94505425D01*
X102158613Y-94930619D01*
X102166303Y-94949230D01*
X102166635Y-94969363D01*
X102478640Y-95722610D01*
X102487845Y-95727420D01*
X102498155Y-95752372D01*
X103126321Y-96381636D01*
X103154057Y-96393153D01*
X103159390Y-96403360D01*
X103554797Y-96559554D01*
X103947481Y-96722611D01*
X103967619Y-96722629D01*
X103986346Y-96730026D01*
X104411425Y-96723016D01*
X104836619Y-96723387D01*
X104855230Y-96715697D01*
X104875363Y-96715365D01*
X105628610Y-96403360D01*
X105633420Y-96394155D01*
X105658372Y-96383845D01*
X106287636Y-95755679D01*
X106299153Y-95727943D01*
X106309360Y-95722610D01*
X106465554Y-95327203D01*
X106508078Y-95224793D01*
X110713913Y-95224793D01*
X110718346Y-95235705D01*
X110718336Y-95247482D01*
X111005304Y-95941998D01*
X111288181Y-96638246D01*
X111300778Y-96657099D01*
X111300950Y-96657515D01*
X111301271Y-96657836D01*
X111317657Y-96682360D01*
X111348714Y-96705363D01*
X112341591Y-97699974D01*
X112359640Y-97724343D01*
X112370490Y-97728924D01*
X112378811Y-97737259D01*
X113072893Y-98025467D01*
X113765171Y-98317736D01*
X113776947Y-98317816D01*
X113787825Y-98322333D01*
X114539352Y-98322989D01*
X115290793Y-98328087D01*
X115301705Y-98323654D01*
X115313482Y-98323664D01*
X116007998Y-98036696D01*
X116704246Y-97753819D01*
X116723099Y-97741222D01*
X116723515Y-97741050D01*
X116723836Y-97740729D01*
X116748360Y-97724343D01*
X116771363Y-97693286D01*
X117765974Y-96700409D01*
X117790343Y-96682360D01*
X117794924Y-96671510D01*
X117803259Y-96663189D01*
X118084123Y-95986793D01*
X142717913Y-95986793D01*
X142722346Y-95997705D01*
X142722336Y-96009482D01*
X143009304Y-96703998D01*
X143292181Y-97400246D01*
X143304778Y-97419099D01*
X143304950Y-97419515D01*
X143305271Y-97419836D01*
X143321657Y-97444360D01*
X143352714Y-97467363D01*
X144345591Y-98461974D01*
X144363640Y-98486343D01*
X144374490Y-98490924D01*
X144382811Y-98499259D01*
X145076893Y-98787467D01*
X145769171Y-99079736D01*
X145780947Y-99079816D01*
X145791825Y-99084333D01*
X146543352Y-99084989D01*
X147294793Y-99090087D01*
X147305705Y-99085654D01*
X147317482Y-99085664D01*
X148011998Y-98798696D01*
X148708246Y-98515819D01*
X148727099Y-98503222D01*
X148727515Y-98503050D01*
X148727836Y-98502729D01*
X148752360Y-98486343D01*
X148775363Y-98455286D01*
X149769974Y-97462409D01*
X149794343Y-97444360D01*
X149798924Y-97433510D01*
X149807259Y-97425189D01*
X150095467Y-96731107D01*
X150387736Y-96038829D01*
X150387816Y-96027053D01*
X150392333Y-96016175D01*
X150392989Y-95264648D01*
X150398087Y-94513207D01*
X150393654Y-94502295D01*
X150393664Y-94490518D01*
X150106696Y-93796002D01*
X149823819Y-93099754D01*
X149811222Y-93080901D01*
X149811050Y-93080485D01*
X149810729Y-93080164D01*
X149794343Y-93055640D01*
X149763286Y-93032637D01*
X148770409Y-92038026D01*
X148752360Y-92013657D01*
X148741510Y-92009076D01*
X148733189Y-92000741D01*
X148039107Y-91712533D01*
X147346829Y-91420264D01*
X147335053Y-91420184D01*
X147324175Y-91415667D01*
X146572648Y-91415011D01*
X145821207Y-91409913D01*
X145810295Y-91414346D01*
X145798518Y-91414336D01*
X145104002Y-91701304D01*
X144407754Y-91984181D01*
X144388901Y-91996778D01*
X144388485Y-91996950D01*
X144388164Y-91997271D01*
X144363640Y-92013657D01*
X144340637Y-92044714D01*
X143346026Y-93037591D01*
X143321657Y-93055640D01*
X143317076Y-93066490D01*
X143308741Y-93074811D01*
X143020533Y-93768893D01*
X142728264Y-94461171D01*
X142728184Y-94472947D01*
X142723667Y-94483825D01*
X142723011Y-95235352D01*
X142717913Y-95986793D01*
X118084123Y-95986793D01*
X118091467Y-95969107D01*
X118383736Y-95276829D01*
X118383816Y-95265053D01*
X118388333Y-95254175D01*
X118388989Y-94502648D01*
X118394087Y-93751207D01*
X118389654Y-93740295D01*
X118389664Y-93728518D01*
X118102696Y-93034002D01*
X117819819Y-92337754D01*
X117807222Y-92318901D01*
X117807050Y-92318485D01*
X117806729Y-92318164D01*
X117790343Y-92293640D01*
X117759286Y-92270637D01*
X116766409Y-91276026D01*
X116748360Y-91251657D01*
X116737510Y-91247076D01*
X116729189Y-91238741D01*
X116035107Y-90950533D01*
X115342829Y-90658264D01*
X115331053Y-90658184D01*
X115320175Y-90653667D01*
X114568648Y-90653011D01*
X113817207Y-90647913D01*
X113806295Y-90652346D01*
X113794518Y-90652336D01*
X113100002Y-90939304D01*
X112403754Y-91222181D01*
X112384901Y-91234778D01*
X112384485Y-91234950D01*
X112384164Y-91235271D01*
X112359640Y-91251657D01*
X112336637Y-91282714D01*
X111342026Y-92275591D01*
X111317657Y-92293640D01*
X111313076Y-92304490D01*
X111304741Y-92312811D01*
X111016533Y-93006893D01*
X110724264Y-93699171D01*
X110724184Y-93710947D01*
X110719667Y-93721825D01*
X110719011Y-94473352D01*
X110713913Y-95224793D01*
X106508078Y-95224793D01*
X106628611Y-94934519D01*
X106628629Y-94914381D01*
X106636026Y-94895654D01*
X106629016Y-94470575D01*
X106629387Y-94045381D01*
X106621697Y-94026770D01*
X106621365Y-94006637D01*
X106309360Y-93253390D01*
X106300155Y-93248580D01*
X106289845Y-93223628D01*
X105661679Y-92594364D01*
X105633943Y-92582847D01*
X105628610Y-92572640D01*
X105233203Y-92416446D01*
X104840519Y-92253389D01*
X104820381Y-92253371D01*
X104801654Y-92245974D01*
X104376575Y-92252984D01*
X103951381Y-92252613D01*
X103932770Y-92260303D01*
X103912637Y-92260635D01*
X103159390Y-92572640D01*
X103154580Y-92581845D01*
X103129628Y-92592155D01*
X102500364Y-93220321D01*
X102488847Y-93248057D01*
X102478640Y-93253390D01*
X102322446Y-93648797D01*
X102159389Y-94041481D01*
X102159371Y-94061619D01*
X102151974Y-94080346D01*
X90705854Y-94080346D01*
X90708087Y-93751207D01*
X90703654Y-93740295D01*
X90703664Y-93728518D01*
X90416696Y-93034002D01*
X90133819Y-92337754D01*
X90121222Y-92318901D01*
X90121050Y-92318485D01*
X90120729Y-92318164D01*
X90104343Y-92293640D01*
X90073286Y-92270637D01*
X89080409Y-91276026D01*
X89062360Y-91251657D01*
X89051510Y-91247076D01*
X89043189Y-91238741D01*
X88349107Y-90950533D01*
X87656829Y-90658264D01*
X87645053Y-90658184D01*
X87634175Y-90653667D01*
X86882648Y-90653011D01*
X86131207Y-90647913D01*
X86120295Y-90652346D01*
X86108518Y-90652336D01*
X85414002Y-90939304D01*
X84717754Y-91222181D01*
X84698901Y-91234778D01*
X84698485Y-91234950D01*
X84698164Y-91235271D01*
X84673640Y-91251657D01*
X84650637Y-91282714D01*
X83656026Y-92275591D01*
X83631657Y-92293640D01*
X83627076Y-92304490D01*
X83618741Y-92312811D01*
X83330533Y-93006893D01*
X83038264Y-93699171D01*
X83038184Y-93710947D01*
X83033667Y-93721825D01*
X83033011Y-94473352D01*
X83027913Y-95224793D01*
X78822078Y-95224793D01*
X78942611Y-94934519D01*
X78942629Y-94914381D01*
X78950026Y-94895654D01*
X78943016Y-94470575D01*
X78943387Y-94045381D01*
X78935697Y-94026770D01*
X78935365Y-94006637D01*
X78623360Y-93253390D01*
X78614155Y-93248580D01*
X78603845Y-93223628D01*
X77975679Y-92594364D01*
X77947943Y-92582847D01*
X77942610Y-92572640D01*
X77547203Y-92416446D01*
X77154519Y-92253389D01*
X77134381Y-92253371D01*
X77115654Y-92245974D01*
X76690575Y-92252984D01*
X76265381Y-92252613D01*
X76246770Y-92260303D01*
X76226637Y-92260635D01*
X75473390Y-92572640D01*
X75468580Y-92581845D01*
X75443628Y-92592155D01*
X74814364Y-93220321D01*
X74802847Y-93248057D01*
X74792640Y-93253390D01*
X74636446Y-93648797D01*
X74473389Y-94041481D01*
X74473371Y-94061619D01*
X74465974Y-94080346D01*
X73315500Y-94080346D01*
X73315500Y-83920346D01*
X74465974Y-83920346D01*
X74472984Y-84345425D01*
X74472613Y-84770619D01*
X74480303Y-84789230D01*
X74480635Y-84809363D01*
X74792640Y-85562610D01*
X74801845Y-85567420D01*
X74812155Y-85592372D01*
X75440321Y-86221636D01*
X75468057Y-86233153D01*
X75473390Y-86243360D01*
X75868797Y-86399554D01*
X76261481Y-86562611D01*
X76281619Y-86562629D01*
X76300346Y-86570026D01*
X76725425Y-86563016D01*
X77150619Y-86563387D01*
X77169230Y-86555697D01*
X77189363Y-86555365D01*
X77942610Y-86243360D01*
X77947420Y-86234155D01*
X77972372Y-86223845D01*
X78601636Y-85595679D01*
X78613153Y-85567943D01*
X78623360Y-85562610D01*
X78779554Y-85167203D01*
X78822078Y-85064793D01*
X83027913Y-85064793D01*
X83032346Y-85075705D01*
X83032336Y-85087482D01*
X83319304Y-85781998D01*
X83602181Y-86478246D01*
X83614778Y-86497099D01*
X83614950Y-86497515D01*
X83615271Y-86497836D01*
X83631657Y-86522360D01*
X83662714Y-86545363D01*
X84655591Y-87539974D01*
X84673640Y-87564343D01*
X84684490Y-87568924D01*
X84692811Y-87577259D01*
X85386893Y-87865467D01*
X86079171Y-88157736D01*
X86090947Y-88157816D01*
X86101825Y-88162333D01*
X86853352Y-88162989D01*
X87604793Y-88168087D01*
X87615705Y-88163654D01*
X87627482Y-88163664D01*
X88321998Y-87876696D01*
X89018246Y-87593819D01*
X89037099Y-87581222D01*
X89037515Y-87581050D01*
X89037836Y-87580729D01*
X89062360Y-87564343D01*
X89085363Y-87533286D01*
X90079974Y-86540409D01*
X90104343Y-86522360D01*
X90108924Y-86511510D01*
X90117259Y-86503189D01*
X90405467Y-85809107D01*
X90697736Y-85116829D01*
X90697816Y-85105053D01*
X90702333Y-85094175D01*
X90702989Y-84342648D01*
X90705854Y-83920346D01*
X102151974Y-83920346D01*
X102158984Y-84345425D01*
X102158613Y-84770619D01*
X102166303Y-84789230D01*
X102166635Y-84809363D01*
X102478640Y-85562610D01*
X102487845Y-85567420D01*
X102498155Y-85592372D01*
X103126321Y-86221636D01*
X103154057Y-86233153D01*
X103159390Y-86243360D01*
X103554797Y-86399554D01*
X103947481Y-86562611D01*
X103967619Y-86562629D01*
X103986346Y-86570026D01*
X104411425Y-86563016D01*
X104836619Y-86563387D01*
X104855230Y-86555697D01*
X104875363Y-86555365D01*
X105628610Y-86243360D01*
X105633420Y-86234155D01*
X105658372Y-86223845D01*
X106287636Y-85595679D01*
X106299153Y-85567943D01*
X106309360Y-85562610D01*
X106465554Y-85167203D01*
X106508078Y-85064793D01*
X110713913Y-85064793D01*
X110718346Y-85075705D01*
X110718336Y-85087482D01*
X111005304Y-85781998D01*
X111288181Y-86478246D01*
X111300778Y-86497099D01*
X111300950Y-86497515D01*
X111301271Y-86497836D01*
X111317657Y-86522360D01*
X111348714Y-86545363D01*
X112341591Y-87539974D01*
X112359640Y-87564343D01*
X112370490Y-87568924D01*
X112378811Y-87577259D01*
X113072893Y-87865467D01*
X113765171Y-88157736D01*
X113776947Y-88157816D01*
X113787825Y-88162333D01*
X114539352Y-88162989D01*
X115290793Y-88168087D01*
X115301705Y-88163654D01*
X115313482Y-88163664D01*
X116007998Y-87876696D01*
X116704246Y-87593819D01*
X116723099Y-87581222D01*
X116723515Y-87581050D01*
X116723836Y-87580729D01*
X116748360Y-87564343D01*
X116771363Y-87533286D01*
X117765974Y-86540409D01*
X117790343Y-86522360D01*
X117794924Y-86511510D01*
X117803259Y-86503189D01*
X118091467Y-85809107D01*
X118383736Y-85116829D01*
X118383816Y-85105053D01*
X118388333Y-85094175D01*
X118388989Y-84342648D01*
X118394087Y-83591207D01*
X118389654Y-83580295D01*
X118389664Y-83568518D01*
X118102696Y-82874002D01*
X117819819Y-82177754D01*
X117807222Y-82158901D01*
X117807050Y-82158485D01*
X117806729Y-82158164D01*
X117790343Y-82133640D01*
X117759286Y-82110637D01*
X116766409Y-81116026D01*
X116748360Y-81091657D01*
X116737510Y-81087076D01*
X116729189Y-81078741D01*
X116035107Y-80790533D01*
X115342829Y-80498264D01*
X115331053Y-80498184D01*
X115320175Y-80493667D01*
X114568648Y-80493011D01*
X113817207Y-80487913D01*
X113806295Y-80492346D01*
X113794518Y-80492336D01*
X113100002Y-80779304D01*
X112403754Y-81062181D01*
X112384901Y-81074778D01*
X112384485Y-81074950D01*
X112384164Y-81075271D01*
X112359640Y-81091657D01*
X112336637Y-81122714D01*
X111342026Y-82115591D01*
X111317657Y-82133640D01*
X111313076Y-82144490D01*
X111304741Y-82152811D01*
X111016533Y-82846893D01*
X110724264Y-83539171D01*
X110724184Y-83550947D01*
X110719667Y-83561825D01*
X110719011Y-84313352D01*
X110713913Y-85064793D01*
X106508078Y-85064793D01*
X106628611Y-84774519D01*
X106628629Y-84754381D01*
X106636026Y-84735654D01*
X106629016Y-84310575D01*
X106629387Y-83885381D01*
X106621697Y-83866770D01*
X106621365Y-83846637D01*
X106309360Y-83093390D01*
X106300155Y-83088580D01*
X106289845Y-83063628D01*
X105661679Y-82434364D01*
X105633943Y-82422847D01*
X105628610Y-82412640D01*
X105233203Y-82256446D01*
X104840519Y-82093389D01*
X104820381Y-82093371D01*
X104801654Y-82085974D01*
X104376575Y-82092984D01*
X103951381Y-82092613D01*
X103932770Y-82100303D01*
X103912637Y-82100635D01*
X103159390Y-82412640D01*
X103154580Y-82421845D01*
X103129628Y-82432155D01*
X102500364Y-83060321D01*
X102488847Y-83088057D01*
X102478640Y-83093390D01*
X102322446Y-83488797D01*
X102159389Y-83881481D01*
X102159371Y-83901619D01*
X102151974Y-83920346D01*
X90705854Y-83920346D01*
X90708087Y-83591207D01*
X90703654Y-83580295D01*
X90703664Y-83568518D01*
X90416696Y-82874002D01*
X90133819Y-82177754D01*
X90121222Y-82158901D01*
X90121050Y-82158485D01*
X90120729Y-82158164D01*
X90104343Y-82133640D01*
X90073286Y-82110637D01*
X89080409Y-81116026D01*
X89062360Y-81091657D01*
X89051510Y-81087076D01*
X89043189Y-81078741D01*
X88349107Y-80790533D01*
X87656829Y-80498264D01*
X87645053Y-80498184D01*
X87634175Y-80493667D01*
X86882648Y-80493011D01*
X86131207Y-80487913D01*
X86120295Y-80492346D01*
X86108518Y-80492336D01*
X85414002Y-80779304D01*
X84717754Y-81062181D01*
X84698901Y-81074778D01*
X84698485Y-81074950D01*
X84698164Y-81075271D01*
X84673640Y-81091657D01*
X84650637Y-81122714D01*
X83656026Y-82115591D01*
X83631657Y-82133640D01*
X83627076Y-82144490D01*
X83618741Y-82152811D01*
X83330533Y-82846893D01*
X83038264Y-83539171D01*
X83038184Y-83550947D01*
X83033667Y-83561825D01*
X83033011Y-84313352D01*
X83027913Y-85064793D01*
X78822078Y-85064793D01*
X78942611Y-84774519D01*
X78942629Y-84754381D01*
X78950026Y-84735654D01*
X78943016Y-84310575D01*
X78943387Y-83885381D01*
X78935697Y-83866770D01*
X78935365Y-83846637D01*
X78623360Y-83093390D01*
X78614155Y-83088580D01*
X78603845Y-83063628D01*
X77975679Y-82434364D01*
X77947943Y-82422847D01*
X77942610Y-82412640D01*
X77547203Y-82256446D01*
X77154519Y-82093389D01*
X77134381Y-82093371D01*
X77115654Y-82085974D01*
X76690575Y-82092984D01*
X76265381Y-82092613D01*
X76246770Y-82100303D01*
X76226637Y-82100635D01*
X75473390Y-82412640D01*
X75468580Y-82421845D01*
X75443628Y-82432155D01*
X74814364Y-83060321D01*
X74802847Y-83088057D01*
X74792640Y-83093390D01*
X74636446Y-83488797D01*
X74473389Y-83881481D01*
X74473371Y-83901619D01*
X74465974Y-83920346D01*
X73315500Y-83920346D01*
X73315500Y-79984793D01*
X126461913Y-79984793D01*
X126466346Y-79995705D01*
X126466336Y-80007482D01*
X126753304Y-80701998D01*
X127036181Y-81398246D01*
X127048778Y-81417099D01*
X127048950Y-81417515D01*
X127049271Y-81417836D01*
X127065657Y-81442360D01*
X127096714Y-81465363D01*
X128089591Y-82459974D01*
X128107640Y-82484343D01*
X128118490Y-82488924D01*
X128126811Y-82497259D01*
X128820893Y-82785467D01*
X129513171Y-83077736D01*
X129524947Y-83077816D01*
X129535825Y-83082333D01*
X130287352Y-83082989D01*
X131038793Y-83088087D01*
X131049705Y-83083654D01*
X131061482Y-83083664D01*
X131755998Y-82796696D01*
X132452246Y-82513819D01*
X132471099Y-82501222D01*
X132471515Y-82501050D01*
X132471836Y-82500729D01*
X132496360Y-82484343D01*
X132519363Y-82453286D01*
X133513974Y-81460409D01*
X133538343Y-81442360D01*
X133542924Y-81431510D01*
X133551259Y-81423189D01*
X133839467Y-80729107D01*
X134123388Y-80056601D01*
X142264530Y-80056601D01*
X142272276Y-80075855D01*
X142272258Y-80096600D01*
X142590062Y-80865743D01*
X142900790Y-81638090D01*
X142922799Y-81671029D01*
X142923236Y-81672086D01*
X142924051Y-81672903D01*
X142950291Y-81712173D01*
X143008274Y-81757273D01*
X144055133Y-82805961D01*
X144093827Y-82855709D01*
X144112915Y-82863845D01*
X144127573Y-82878528D01*
X144896204Y-83197691D01*
X145662011Y-83524087D01*
X145682762Y-83524299D01*
X145701921Y-83532254D01*
X146534105Y-83532980D01*
X147366601Y-83541470D01*
X147385855Y-83533724D01*
X147406600Y-83533742D01*
X148175743Y-83215938D01*
X148948090Y-82905210D01*
X148981029Y-82883201D01*
X148982086Y-82882764D01*
X148982903Y-82881949D01*
X149022173Y-82855709D01*
X149067273Y-82797726D01*
X150115961Y-81750867D01*
X150165709Y-81712173D01*
X150173845Y-81693085D01*
X150188528Y-81678427D01*
X150507691Y-80909796D01*
X150834087Y-80143989D01*
X150834299Y-80123238D01*
X150842254Y-80104079D01*
X150842980Y-79271895D01*
X150851470Y-78439399D01*
X150843724Y-78420145D01*
X150843742Y-78399400D01*
X150525938Y-77630257D01*
X150215210Y-76857910D01*
X150193201Y-76824971D01*
X150192764Y-76823914D01*
X150191949Y-76823097D01*
X150165709Y-76783827D01*
X150107726Y-76738727D01*
X149060867Y-75690039D01*
X149022173Y-75640291D01*
X149003085Y-75632155D01*
X148988427Y-75617472D01*
X148219796Y-75298309D01*
X147453989Y-74971913D01*
X147433238Y-74971701D01*
X147414079Y-74963746D01*
X146581895Y-74963020D01*
X145749399Y-74954530D01*
X145730145Y-74962276D01*
X145709400Y-74962258D01*
X144940257Y-75280062D01*
X144167910Y-75590790D01*
X144134971Y-75612799D01*
X144133914Y-75613236D01*
X144133097Y-75614051D01*
X144093827Y-75640291D01*
X144048727Y-75698274D01*
X143000039Y-76745133D01*
X142950291Y-76783827D01*
X142942155Y-76802915D01*
X142927472Y-76817573D01*
X142608309Y-77586204D01*
X142281913Y-78352011D01*
X142281701Y-78372762D01*
X142273746Y-78391921D01*
X142273020Y-79224105D01*
X142264530Y-80056601D01*
X134123388Y-80056601D01*
X134131736Y-80036829D01*
X134131816Y-80025053D01*
X134136333Y-80014175D01*
X134136989Y-79262648D01*
X134142087Y-78511207D01*
X134137654Y-78500295D01*
X134137664Y-78488518D01*
X133850696Y-77794002D01*
X133567819Y-77097754D01*
X133555222Y-77078901D01*
X133555050Y-77078485D01*
X133554729Y-77078164D01*
X133538343Y-77053640D01*
X133507286Y-77030637D01*
X132514409Y-76036026D01*
X132496360Y-76011657D01*
X132485510Y-76007076D01*
X132477189Y-75998741D01*
X131783107Y-75710533D01*
X131090829Y-75418264D01*
X131079053Y-75418184D01*
X131068175Y-75413667D01*
X130316648Y-75413011D01*
X129565207Y-75407913D01*
X129554295Y-75412346D01*
X129542518Y-75412336D01*
X128848002Y-75699304D01*
X128151754Y-75982181D01*
X128132901Y-75994778D01*
X128132485Y-75994950D01*
X128132164Y-75995271D01*
X128107640Y-76011657D01*
X128084637Y-76042714D01*
X127090026Y-77035591D01*
X127065657Y-77053640D01*
X127061076Y-77064490D01*
X127052741Y-77072811D01*
X126764533Y-77766893D01*
X126472264Y-78459171D01*
X126472184Y-78470947D01*
X126467667Y-78481825D01*
X126467011Y-79233352D01*
X126461913Y-79984793D01*
X73315500Y-79984793D01*
X73315500Y-73760346D01*
X74465974Y-73760346D01*
X74472984Y-74185425D01*
X74472613Y-74610619D01*
X74480303Y-74629230D01*
X74480635Y-74649363D01*
X74792640Y-75402610D01*
X74801845Y-75407420D01*
X74812155Y-75432372D01*
X75440321Y-76061636D01*
X75468057Y-76073153D01*
X75473390Y-76083360D01*
X75868797Y-76239554D01*
X76261481Y-76402611D01*
X76281619Y-76402629D01*
X76300346Y-76410026D01*
X76725425Y-76403016D01*
X77150619Y-76403387D01*
X77169230Y-76395697D01*
X77189363Y-76395365D01*
X77942610Y-76083360D01*
X77947420Y-76074155D01*
X77972372Y-76063845D01*
X78601636Y-75435679D01*
X78613153Y-75407943D01*
X78623360Y-75402610D01*
X78779554Y-75007203D01*
X78822078Y-74904793D01*
X83027913Y-74904793D01*
X83032346Y-74915705D01*
X83032336Y-74927482D01*
X83319304Y-75621998D01*
X83602181Y-76318246D01*
X83614778Y-76337099D01*
X83614950Y-76337515D01*
X83615271Y-76337836D01*
X83631657Y-76362360D01*
X83662714Y-76385363D01*
X84655591Y-77379974D01*
X84673640Y-77404343D01*
X84684490Y-77408924D01*
X84692811Y-77417259D01*
X85386893Y-77705467D01*
X86079171Y-77997736D01*
X86090947Y-77997816D01*
X86101825Y-78002333D01*
X86853352Y-78002989D01*
X87604793Y-78008087D01*
X87615705Y-78003654D01*
X87627482Y-78003664D01*
X88321998Y-77716696D01*
X89018246Y-77433819D01*
X89037099Y-77421222D01*
X89037515Y-77421050D01*
X89037836Y-77420729D01*
X89062360Y-77404343D01*
X89085363Y-77373286D01*
X90079974Y-76380409D01*
X90104343Y-76362360D01*
X90108924Y-76351510D01*
X90117259Y-76343189D01*
X90405467Y-75649107D01*
X90697736Y-74956829D01*
X90697816Y-74945053D01*
X90702333Y-74934175D01*
X90702989Y-74182648D01*
X90705854Y-73760346D01*
X102151974Y-73760346D01*
X102158984Y-74185425D01*
X102158613Y-74610619D01*
X102166303Y-74629230D01*
X102166635Y-74649363D01*
X102478640Y-75402610D01*
X102487845Y-75407420D01*
X102498155Y-75432372D01*
X103126321Y-76061636D01*
X103154057Y-76073153D01*
X103159390Y-76083360D01*
X103554797Y-76239554D01*
X103947481Y-76402611D01*
X103967619Y-76402629D01*
X103986346Y-76410026D01*
X104411425Y-76403016D01*
X104836619Y-76403387D01*
X104855230Y-76395697D01*
X104875363Y-76395365D01*
X105628610Y-76083360D01*
X105633420Y-76074155D01*
X105658372Y-76063845D01*
X106287636Y-75435679D01*
X106299153Y-75407943D01*
X106309360Y-75402610D01*
X106465554Y-75007203D01*
X106508078Y-74904793D01*
X110713913Y-74904793D01*
X110718346Y-74915705D01*
X110718336Y-74927482D01*
X111005304Y-75621998D01*
X111288181Y-76318246D01*
X111300778Y-76337099D01*
X111300950Y-76337515D01*
X111301271Y-76337836D01*
X111317657Y-76362360D01*
X111348714Y-76385363D01*
X112341591Y-77379974D01*
X112359640Y-77404343D01*
X112370490Y-77408924D01*
X112378811Y-77417259D01*
X113072893Y-77705467D01*
X113765171Y-77997736D01*
X113776947Y-77997816D01*
X113787825Y-78002333D01*
X114539352Y-78002989D01*
X115290793Y-78008087D01*
X115301705Y-78003654D01*
X115313482Y-78003664D01*
X116007998Y-77716696D01*
X116704246Y-77433819D01*
X116723099Y-77421222D01*
X116723515Y-77421050D01*
X116723836Y-77420729D01*
X116748360Y-77404343D01*
X116771363Y-77373286D01*
X117765974Y-76380409D01*
X117790343Y-76362360D01*
X117794924Y-76351510D01*
X117803259Y-76343189D01*
X118091467Y-75649107D01*
X118383736Y-74956829D01*
X118383816Y-74945053D01*
X118388333Y-74934175D01*
X118388989Y-74182648D01*
X118394087Y-73431207D01*
X118389654Y-73420295D01*
X118389664Y-73408518D01*
X118102696Y-72714002D01*
X117819819Y-72017754D01*
X117807222Y-71998901D01*
X117807050Y-71998485D01*
X117806729Y-71998164D01*
X117790343Y-71973640D01*
X117759286Y-71950637D01*
X116766409Y-70956026D01*
X116748360Y-70931657D01*
X116737510Y-70927076D01*
X116729189Y-70918741D01*
X116035107Y-70630533D01*
X115342829Y-70338264D01*
X115331053Y-70338184D01*
X115320175Y-70333667D01*
X114568648Y-70333011D01*
X113817207Y-70327913D01*
X113806295Y-70332346D01*
X113794518Y-70332336D01*
X113100002Y-70619304D01*
X112403754Y-70902181D01*
X112384901Y-70914778D01*
X112384485Y-70914950D01*
X112384164Y-70915271D01*
X112359640Y-70931657D01*
X112336637Y-70962714D01*
X111342026Y-71955591D01*
X111317657Y-71973640D01*
X111313076Y-71984490D01*
X111304741Y-71992811D01*
X111016533Y-72686893D01*
X110724264Y-73379171D01*
X110724184Y-73390947D01*
X110719667Y-73401825D01*
X110719011Y-74153352D01*
X110713913Y-74904793D01*
X106508078Y-74904793D01*
X106628611Y-74614519D01*
X106628629Y-74594381D01*
X106636026Y-74575654D01*
X106629016Y-74150575D01*
X106629387Y-73725381D01*
X106621697Y-73706770D01*
X106621365Y-73686637D01*
X106309360Y-72933390D01*
X106300155Y-72928580D01*
X106289845Y-72903628D01*
X105661679Y-72274364D01*
X105633943Y-72262847D01*
X105628610Y-72252640D01*
X105233203Y-72096446D01*
X104840519Y-71933389D01*
X104820381Y-71933371D01*
X104801654Y-71925974D01*
X104376575Y-71932984D01*
X103951381Y-71932613D01*
X103932770Y-71940303D01*
X103912637Y-71940635D01*
X103159390Y-72252640D01*
X103154580Y-72261845D01*
X103129628Y-72272155D01*
X102500364Y-72900321D01*
X102488847Y-72928057D01*
X102478640Y-72933390D01*
X102322446Y-73328797D01*
X102159389Y-73721481D01*
X102159371Y-73741619D01*
X102151974Y-73760346D01*
X90705854Y-73760346D01*
X90708087Y-73431207D01*
X90703654Y-73420295D01*
X90703664Y-73408518D01*
X90416696Y-72714002D01*
X90133819Y-72017754D01*
X90121222Y-71998901D01*
X90121050Y-71998485D01*
X90120729Y-71998164D01*
X90104343Y-71973640D01*
X90073286Y-71950637D01*
X89080409Y-70956026D01*
X89062360Y-70931657D01*
X89051510Y-70927076D01*
X89043189Y-70918741D01*
X88349107Y-70630533D01*
X87656829Y-70338264D01*
X87645053Y-70338184D01*
X87634175Y-70333667D01*
X86882648Y-70333011D01*
X86131207Y-70327913D01*
X86120295Y-70332346D01*
X86108518Y-70332336D01*
X85414002Y-70619304D01*
X84717754Y-70902181D01*
X84698901Y-70914778D01*
X84698485Y-70914950D01*
X84698164Y-70915271D01*
X84673640Y-70931657D01*
X84650637Y-70962714D01*
X83656026Y-71955591D01*
X83631657Y-71973640D01*
X83627076Y-71984490D01*
X83618741Y-71992811D01*
X83330533Y-72686893D01*
X83038264Y-73379171D01*
X83038184Y-73390947D01*
X83033667Y-73401825D01*
X83033011Y-74153352D01*
X83027913Y-74904793D01*
X78822078Y-74904793D01*
X78942611Y-74614519D01*
X78942629Y-74594381D01*
X78950026Y-74575654D01*
X78943016Y-74150575D01*
X78943387Y-73725381D01*
X78935697Y-73706770D01*
X78935365Y-73686637D01*
X78623360Y-72933390D01*
X78614155Y-72928580D01*
X78603845Y-72903628D01*
X77975679Y-72274364D01*
X77947943Y-72262847D01*
X77942610Y-72252640D01*
X77547203Y-72096446D01*
X77154519Y-71933389D01*
X77134381Y-71933371D01*
X77115654Y-71925974D01*
X76690575Y-71932984D01*
X76265381Y-71932613D01*
X76246770Y-71940303D01*
X76226637Y-71940635D01*
X75473390Y-72252640D01*
X75468580Y-72261845D01*
X75443628Y-72272155D01*
X74814364Y-72900321D01*
X74802847Y-72928057D01*
X74792640Y-72933390D01*
X74636446Y-73328797D01*
X74473389Y-73721481D01*
X74473371Y-73741619D01*
X74465974Y-73760346D01*
X73315500Y-73760346D01*
X73315500Y-63600346D01*
X74465974Y-63600346D01*
X74472984Y-64025425D01*
X74472613Y-64450619D01*
X74480303Y-64469230D01*
X74480635Y-64489363D01*
X74792640Y-65242610D01*
X74801845Y-65247420D01*
X74812155Y-65272372D01*
X75440321Y-65901636D01*
X75468057Y-65913153D01*
X75473390Y-65923360D01*
X75868797Y-66079554D01*
X76261481Y-66242611D01*
X76281619Y-66242629D01*
X76300346Y-66250026D01*
X76725425Y-66243016D01*
X77150619Y-66243387D01*
X77169230Y-66235697D01*
X77189363Y-66235365D01*
X77942610Y-65923360D01*
X77947420Y-65914155D01*
X77972372Y-65903845D01*
X78601636Y-65275679D01*
X78613153Y-65247943D01*
X78623360Y-65242610D01*
X78779554Y-64847203D01*
X78822078Y-64744793D01*
X83027913Y-64744793D01*
X83032346Y-64755705D01*
X83032336Y-64767482D01*
X83319304Y-65461998D01*
X83602181Y-66158246D01*
X83614778Y-66177099D01*
X83614950Y-66177515D01*
X83615271Y-66177836D01*
X83631657Y-66202360D01*
X83662714Y-66225363D01*
X84655591Y-67219974D01*
X84673640Y-67244343D01*
X84684490Y-67248924D01*
X84692811Y-67257259D01*
X85386893Y-67545467D01*
X86079171Y-67837736D01*
X86090947Y-67837816D01*
X86101825Y-67842333D01*
X86853352Y-67842989D01*
X87604793Y-67848087D01*
X87615705Y-67843654D01*
X87627482Y-67843664D01*
X88321998Y-67556696D01*
X89018246Y-67273819D01*
X89037099Y-67261222D01*
X89037515Y-67261050D01*
X89037836Y-67260729D01*
X89062360Y-67244343D01*
X89085363Y-67213286D01*
X90079974Y-66220409D01*
X90104343Y-66202360D01*
X90108924Y-66191510D01*
X90117259Y-66183189D01*
X90405467Y-65489107D01*
X90697736Y-64796829D01*
X90697816Y-64785053D01*
X90702333Y-64774175D01*
X90702989Y-64022648D01*
X90705854Y-63600346D01*
X102151974Y-63600346D01*
X102158984Y-64025425D01*
X102158613Y-64450619D01*
X102166303Y-64469230D01*
X102166635Y-64489363D01*
X102478640Y-65242610D01*
X102487845Y-65247420D01*
X102498155Y-65272372D01*
X103126321Y-65901636D01*
X103154057Y-65913153D01*
X103159390Y-65923360D01*
X103554797Y-66079554D01*
X103947481Y-66242611D01*
X103967619Y-66242629D01*
X103986346Y-66250026D01*
X104411425Y-66243016D01*
X104836619Y-66243387D01*
X104855230Y-66235697D01*
X104875363Y-66235365D01*
X105628610Y-65923360D01*
X105633420Y-65914155D01*
X105658372Y-65903845D01*
X106287636Y-65275679D01*
X106299153Y-65247943D01*
X106309360Y-65242610D01*
X106465554Y-64847203D01*
X106508078Y-64744793D01*
X110713913Y-64744793D01*
X110718346Y-64755705D01*
X110718336Y-64767482D01*
X111005304Y-65461998D01*
X111288181Y-66158246D01*
X111300778Y-66177099D01*
X111300950Y-66177515D01*
X111301271Y-66177836D01*
X111317657Y-66202360D01*
X111348714Y-66225363D01*
X112341591Y-67219974D01*
X112359640Y-67244343D01*
X112370490Y-67248924D01*
X112378811Y-67257259D01*
X113072893Y-67545467D01*
X113765171Y-67837736D01*
X113776947Y-67837816D01*
X113787825Y-67842333D01*
X114539352Y-67842989D01*
X115290793Y-67848087D01*
X115301705Y-67843654D01*
X115313482Y-67843664D01*
X116007998Y-67556696D01*
X116704246Y-67273819D01*
X116723099Y-67261222D01*
X116723515Y-67261050D01*
X116723836Y-67260729D01*
X116748360Y-67244343D01*
X116771363Y-67213286D01*
X117765974Y-66220409D01*
X117790343Y-66202360D01*
X117794924Y-66191510D01*
X117803259Y-66183189D01*
X118091467Y-65489107D01*
X118383736Y-64796829D01*
X118383816Y-64785053D01*
X118388333Y-64774175D01*
X118388739Y-64308601D01*
X125932330Y-64308601D01*
X125940076Y-64327855D01*
X125940058Y-64348600D01*
X126257862Y-65117743D01*
X126568590Y-65890090D01*
X126590599Y-65923029D01*
X126591036Y-65924086D01*
X126591851Y-65924903D01*
X126618091Y-65964173D01*
X126676074Y-66009273D01*
X127722933Y-67057961D01*
X127761627Y-67107709D01*
X127780715Y-67115845D01*
X127795373Y-67130528D01*
X128564004Y-67449691D01*
X129329811Y-67776087D01*
X129350562Y-67776299D01*
X129369721Y-67784254D01*
X130201905Y-67784980D01*
X131034401Y-67793470D01*
X131053655Y-67785724D01*
X131074400Y-67785742D01*
X131843543Y-67467938D01*
X132615890Y-67157210D01*
X132648829Y-67135201D01*
X132649886Y-67134764D01*
X132650703Y-67133949D01*
X132689973Y-67107709D01*
X132735073Y-67049726D01*
X133783761Y-66002867D01*
X133833509Y-65964173D01*
X133841645Y-65945085D01*
X133856328Y-65930427D01*
X134175491Y-65161796D01*
X134501887Y-64395989D01*
X134502099Y-64375238D01*
X134510054Y-64356079D01*
X134510780Y-63523895D01*
X134519270Y-62691399D01*
X134511524Y-62672145D01*
X134511542Y-62651400D01*
X134193738Y-61882257D01*
X133883010Y-61109910D01*
X133861001Y-61076971D01*
X133860564Y-61075914D01*
X133859749Y-61075097D01*
X133833509Y-61035827D01*
X133775526Y-60990727D01*
X132728667Y-59942039D01*
X132689973Y-59892291D01*
X132670885Y-59884155D01*
X132656227Y-59869472D01*
X131887596Y-59550309D01*
X131121789Y-59223913D01*
X131101038Y-59223701D01*
X131081879Y-59215746D01*
X130249695Y-59215020D01*
X129417199Y-59206530D01*
X129397945Y-59214276D01*
X129377200Y-59214258D01*
X128608057Y-59532062D01*
X127835710Y-59842790D01*
X127802771Y-59864799D01*
X127801714Y-59865236D01*
X127800897Y-59866051D01*
X127761627Y-59892291D01*
X127716527Y-59950274D01*
X126667839Y-60997133D01*
X126618091Y-61035827D01*
X126609955Y-61054915D01*
X126595272Y-61069573D01*
X126276109Y-61838204D01*
X125949713Y-62604011D01*
X125949501Y-62624762D01*
X125941546Y-62643921D01*
X125940820Y-63476105D01*
X125932330Y-64308601D01*
X118388739Y-64308601D01*
X118388989Y-64022648D01*
X118394087Y-63271207D01*
X118389654Y-63260295D01*
X118389664Y-63248518D01*
X118102696Y-62554002D01*
X117819819Y-61857754D01*
X117807222Y-61838901D01*
X117807050Y-61838485D01*
X117806729Y-61838164D01*
X117790343Y-61813640D01*
X117759286Y-61790637D01*
X116766409Y-60796026D01*
X116748360Y-60771657D01*
X116737510Y-60767076D01*
X116729189Y-60758741D01*
X116035107Y-60470533D01*
X115342829Y-60178264D01*
X115331053Y-60178184D01*
X115320175Y-60173667D01*
X114568648Y-60173011D01*
X113817207Y-60167913D01*
X113806295Y-60172346D01*
X113794518Y-60172336D01*
X113100002Y-60459304D01*
X112403754Y-60742181D01*
X112384901Y-60754778D01*
X112384485Y-60754950D01*
X112384164Y-60755271D01*
X112359640Y-60771657D01*
X112336637Y-60802714D01*
X111342026Y-61795591D01*
X111317657Y-61813640D01*
X111313076Y-61824490D01*
X111304741Y-61832811D01*
X111016533Y-62526893D01*
X110724264Y-63219171D01*
X110724184Y-63230947D01*
X110719667Y-63241825D01*
X110719011Y-63993352D01*
X110713913Y-64744793D01*
X106508078Y-64744793D01*
X106628611Y-64454519D01*
X106628629Y-64434381D01*
X106636026Y-64415654D01*
X106629016Y-63990575D01*
X106629387Y-63565381D01*
X106621697Y-63546770D01*
X106621365Y-63526637D01*
X106309360Y-62773390D01*
X106300155Y-62768580D01*
X106289845Y-62743628D01*
X105661679Y-62114364D01*
X105633943Y-62102847D01*
X105628610Y-62092640D01*
X105233203Y-61936446D01*
X104840519Y-61773389D01*
X104820381Y-61773371D01*
X104801654Y-61765974D01*
X104376575Y-61772984D01*
X103951381Y-61772613D01*
X103932770Y-61780303D01*
X103912637Y-61780635D01*
X103159390Y-62092640D01*
X103154580Y-62101845D01*
X103129628Y-62112155D01*
X102500364Y-62740321D01*
X102488847Y-62768057D01*
X102478640Y-62773390D01*
X102322446Y-63168797D01*
X102159389Y-63561481D01*
X102159371Y-63581619D01*
X102151974Y-63600346D01*
X90705854Y-63600346D01*
X90708087Y-63271207D01*
X90703654Y-63260295D01*
X90703664Y-63248518D01*
X90416696Y-62554002D01*
X90133819Y-61857754D01*
X90121222Y-61838901D01*
X90121050Y-61838485D01*
X90120729Y-61838164D01*
X90104343Y-61813640D01*
X90073286Y-61790637D01*
X89080409Y-60796026D01*
X89062360Y-60771657D01*
X89051510Y-60767076D01*
X89043189Y-60758741D01*
X88349107Y-60470533D01*
X87656829Y-60178264D01*
X87645053Y-60178184D01*
X87634175Y-60173667D01*
X86882648Y-60173011D01*
X86131207Y-60167913D01*
X86120295Y-60172346D01*
X86108518Y-60172336D01*
X85414002Y-60459304D01*
X84717754Y-60742181D01*
X84698901Y-60754778D01*
X84698485Y-60754950D01*
X84698164Y-60755271D01*
X84673640Y-60771657D01*
X84650637Y-60802714D01*
X83656026Y-61795591D01*
X83631657Y-61813640D01*
X83627076Y-61824490D01*
X83618741Y-61832811D01*
X83330533Y-62526893D01*
X83038264Y-63219171D01*
X83038184Y-63230947D01*
X83033667Y-63241825D01*
X83033011Y-63993352D01*
X83027913Y-64744793D01*
X78822078Y-64744793D01*
X78942611Y-64454519D01*
X78942629Y-64434381D01*
X78950026Y-64415654D01*
X78943016Y-63990575D01*
X78943387Y-63565381D01*
X78935697Y-63546770D01*
X78935365Y-63526637D01*
X78623360Y-62773390D01*
X78614155Y-62768580D01*
X78603845Y-62743628D01*
X77975679Y-62114364D01*
X77947943Y-62102847D01*
X77942610Y-62092640D01*
X77547203Y-61936446D01*
X77154519Y-61773389D01*
X77134381Y-61773371D01*
X77115654Y-61765974D01*
X76690575Y-61772984D01*
X76265381Y-61772613D01*
X76246770Y-61780303D01*
X76226637Y-61780635D01*
X75473390Y-62092640D01*
X75468580Y-62101845D01*
X75443628Y-62112155D01*
X74814364Y-62740321D01*
X74802847Y-62768057D01*
X74792640Y-62773390D01*
X74636446Y-63168797D01*
X74473389Y-63561481D01*
X74473371Y-63581619D01*
X74465974Y-63600346D01*
X73315500Y-63600346D01*
X73315500Y-43812187D01*
X76597277Y-43812187D01*
X76604982Y-44215454D01*
X76604630Y-44618815D01*
X76613080Y-44639266D01*
X76613503Y-44661387D01*
X76907261Y-45370582D01*
X76917343Y-45375635D01*
X76928980Y-45403800D01*
X77529041Y-46004909D01*
X77559895Y-46017721D01*
X77565418Y-46028739D01*
X77940954Y-46175950D01*
X78313459Y-46330628D01*
X78335586Y-46330647D01*
X78356187Y-46338723D01*
X78759454Y-46331018D01*
X79162815Y-46331370D01*
X79183266Y-46322920D01*
X79205387Y-46322497D01*
X79512010Y-46195490D01*
X79837459Y-46330628D01*
X79859586Y-46330647D01*
X79880187Y-46338723D01*
X80283454Y-46331018D01*
X80686815Y-46331370D01*
X80707266Y-46322920D01*
X80729387Y-46322497D01*
X81036010Y-46195490D01*
X81361459Y-46330628D01*
X81383586Y-46330647D01*
X81404187Y-46338723D01*
X81807454Y-46331018D01*
X82210815Y-46331370D01*
X82231266Y-46322920D01*
X82253387Y-46322497D01*
X82962582Y-46028739D01*
X82967635Y-46018657D01*
X82995800Y-46007020D01*
X83596909Y-45406959D01*
X83609721Y-45376105D01*
X83620739Y-45370582D01*
X83767950Y-44995046D01*
X83922628Y-44622541D01*
X83922647Y-44600414D01*
X83930723Y-44579813D01*
X83923018Y-44176546D01*
X83923335Y-43812187D01*
X141113277Y-43812187D01*
X141120982Y-44215454D01*
X141120630Y-44618815D01*
X141129080Y-44639266D01*
X141129503Y-44661387D01*
X141423261Y-45370582D01*
X141433343Y-45375635D01*
X141444980Y-45403800D01*
X142045041Y-46004909D01*
X142075895Y-46017721D01*
X142081418Y-46028739D01*
X142456954Y-46175950D01*
X142829459Y-46330628D01*
X142851586Y-46330647D01*
X142872187Y-46338723D01*
X143275454Y-46331018D01*
X143678815Y-46331370D01*
X143699266Y-46322920D01*
X143721387Y-46322497D01*
X144028010Y-46195490D01*
X144353459Y-46330628D01*
X144375586Y-46330647D01*
X144396187Y-46338723D01*
X144799454Y-46331018D01*
X145202815Y-46331370D01*
X145223266Y-46322920D01*
X145245387Y-46322497D01*
X145552010Y-46195490D01*
X145877459Y-46330628D01*
X145899586Y-46330647D01*
X145920187Y-46338723D01*
X146323454Y-46331018D01*
X146726815Y-46331370D01*
X146747266Y-46322920D01*
X146769387Y-46322497D01*
X147478582Y-46028739D01*
X147483635Y-46018657D01*
X147511800Y-46007020D01*
X148112909Y-45406959D01*
X148125721Y-45376105D01*
X148136739Y-45370582D01*
X148283950Y-44995046D01*
X148438628Y-44622541D01*
X148438647Y-44600414D01*
X148446723Y-44579813D01*
X148439018Y-44176546D01*
X148439370Y-43773185D01*
X148430920Y-43752734D01*
X148430497Y-43730613D01*
X148136739Y-43021418D01*
X148126657Y-43016365D01*
X148115020Y-42988200D01*
X147514959Y-42387091D01*
X147484105Y-42374279D01*
X147478582Y-42363261D01*
X147103046Y-42216050D01*
X146730541Y-42061372D01*
X146708414Y-42061353D01*
X146687813Y-42053277D01*
X146284546Y-42060982D01*
X145881185Y-42060630D01*
X145860734Y-42069080D01*
X145838613Y-42069503D01*
X145531990Y-42196510D01*
X145206541Y-42061372D01*
X145184414Y-42061353D01*
X145163813Y-42053277D01*
X144760546Y-42060982D01*
X144357185Y-42060630D01*
X144336734Y-42069080D01*
X144314613Y-42069503D01*
X144007990Y-42196510D01*
X143682541Y-42061372D01*
X143660414Y-42061353D01*
X143639813Y-42053277D01*
X143236546Y-42060982D01*
X142833185Y-42060630D01*
X142812734Y-42069080D01*
X142790613Y-42069503D01*
X142081418Y-42363261D01*
X142076365Y-42373343D01*
X142048200Y-42384980D01*
X141447091Y-42985041D01*
X141434279Y-43015895D01*
X141423261Y-43021418D01*
X141276050Y-43396954D01*
X141121372Y-43769459D01*
X141121353Y-43791586D01*
X141113277Y-43812187D01*
X83923335Y-43812187D01*
X83923370Y-43773185D01*
X83914920Y-43752734D01*
X83914497Y-43730613D01*
X83620739Y-43021418D01*
X83610657Y-43016365D01*
X83599020Y-42988200D01*
X82998959Y-42387091D01*
X82968105Y-42374279D01*
X82962582Y-42363261D01*
X82587046Y-42216050D01*
X82214541Y-42061372D01*
X82192414Y-42061353D01*
X82171813Y-42053277D01*
X81768546Y-42060982D01*
X81365185Y-42060630D01*
X81344734Y-42069080D01*
X81322613Y-42069503D01*
X81015990Y-42196510D01*
X80690541Y-42061372D01*
X80668414Y-42061353D01*
X80647813Y-42053277D01*
X80244546Y-42060982D01*
X79841185Y-42060630D01*
X79820734Y-42069080D01*
X79798613Y-42069503D01*
X79491990Y-42196510D01*
X79166541Y-42061372D01*
X79144414Y-42061353D01*
X79123813Y-42053277D01*
X78720546Y-42060982D01*
X78317185Y-42060630D01*
X78296734Y-42069080D01*
X78274613Y-42069503D01*
X77565418Y-42363261D01*
X77560365Y-42373343D01*
X77532200Y-42384980D01*
X76931091Y-42985041D01*
X76918279Y-43015895D01*
X76907261Y-43021418D01*
X76760050Y-43396954D01*
X76605372Y-43769459D01*
X76605353Y-43791586D01*
X76597277Y-43812187D01*
X73315500Y-43812187D01*
X73315500Y-41946500D01*
X153125500Y-41946500D01*
X153125500Y-168937000D01*
X153125500Y-168937000D01*
G37*
X153125500Y-168937000D02*
X147517831Y-168937000D01*
X148112909Y-168342959D01*
X148125721Y-168312105D01*
X148136739Y-168306582D01*
X148283950Y-167931046D01*
X148438628Y-167558541D01*
X148438647Y-167536414D01*
X148446723Y-167515813D01*
X148439018Y-167112546D01*
X148439370Y-166709185D01*
X148430920Y-166688734D01*
X148430497Y-166666613D01*
X148136739Y-165957418D01*
X148126657Y-165952365D01*
X148115020Y-165924200D01*
X147514959Y-165323091D01*
X147484105Y-165310279D01*
X147478582Y-165299261D01*
X147103046Y-165152050D01*
X146730541Y-164997372D01*
X146708414Y-164997353D01*
X146687813Y-164989277D01*
X146284546Y-164996982D01*
X145881185Y-164996630D01*
X145860734Y-165005080D01*
X145838613Y-165005503D01*
X145531990Y-165132510D01*
X145206541Y-164997372D01*
X145184414Y-164997353D01*
X145163813Y-164989277D01*
X144760546Y-164996982D01*
X144357185Y-164996630D01*
X144336734Y-165005080D01*
X144314613Y-165005503D01*
X144007990Y-165132510D01*
X143682541Y-164997372D01*
X143660414Y-164997353D01*
X143639813Y-164989277D01*
X143236546Y-164996982D01*
X142833185Y-164996630D01*
X142812734Y-165005080D01*
X142790613Y-165005503D01*
X142081418Y-165299261D01*
X142076365Y-165309343D01*
X142048200Y-165320980D01*
X141447091Y-165921041D01*
X141434279Y-165951895D01*
X141423261Y-165957418D01*
X141276050Y-166332954D01*
X141121372Y-166705459D01*
X141121353Y-166727586D01*
X141113277Y-166748187D01*
X141120982Y-167151454D01*
X141120630Y-167554815D01*
X141129080Y-167575266D01*
X141129503Y-167597387D01*
X141423261Y-168306582D01*
X141433343Y-168311635D01*
X141444980Y-168339800D01*
X142041139Y-168937000D01*
X73315500Y-168937000D01*
X73315500Y-166240187D01*
X76597277Y-166240187D01*
X76604982Y-166643454D01*
X76604630Y-167046815D01*
X76613080Y-167067266D01*
X76613503Y-167089387D01*
X76907261Y-167798582D01*
X76917343Y-167803635D01*
X76928980Y-167831800D01*
X77529041Y-168432909D01*
X77559895Y-168445721D01*
X77565418Y-168456739D01*
X77940954Y-168603950D01*
X78313459Y-168758628D01*
X78335586Y-168758647D01*
X78356187Y-168766723D01*
X78759454Y-168759018D01*
X79162815Y-168759370D01*
X79183266Y-168750920D01*
X79205387Y-168750497D01*
X79512010Y-168623490D01*
X79837459Y-168758628D01*
X79859586Y-168758647D01*
X79880187Y-168766723D01*
X80283454Y-168759018D01*
X80686815Y-168759370D01*
X80707266Y-168750920D01*
X80729387Y-168750497D01*
X81036010Y-168623490D01*
X81361459Y-168758628D01*
X81383586Y-168758647D01*
X81404187Y-168766723D01*
X81807454Y-168759018D01*
X82210815Y-168759370D01*
X82231266Y-168750920D01*
X82253387Y-168750497D01*
X82962582Y-168456739D01*
X82967635Y-168446657D01*
X82995800Y-168435020D01*
X83596909Y-167834959D01*
X83609721Y-167804105D01*
X83620739Y-167798582D01*
X83767950Y-167423046D01*
X83922628Y-167050541D01*
X83922647Y-167028414D01*
X83930723Y-167007813D01*
X83923018Y-166604546D01*
X83923370Y-166201185D01*
X83914920Y-166180734D01*
X83914497Y-166158613D01*
X83620739Y-165449418D01*
X83610657Y-165444365D01*
X83599020Y-165416200D01*
X82998959Y-164815091D01*
X82968105Y-164802279D01*
X82962582Y-164791261D01*
X82587046Y-164644050D01*
X82214541Y-164489372D01*
X82192414Y-164489353D01*
X82171813Y-164481277D01*
X81768546Y-164488982D01*
X81365185Y-164488630D01*
X81344734Y-164497080D01*
X81322613Y-164497503D01*
X81015990Y-164624510D01*
X80690541Y-164489372D01*
X80668414Y-164489353D01*
X80647813Y-164481277D01*
X80244546Y-164488982D01*
X79841185Y-164488630D01*
X79820734Y-164497080D01*
X79798613Y-164497503D01*
X79491990Y-164624510D01*
X79166541Y-164489372D01*
X79144414Y-164489353D01*
X79123813Y-164481277D01*
X78720546Y-164488982D01*
X78317185Y-164488630D01*
X78296734Y-164497080D01*
X78274613Y-164497503D01*
X77565418Y-164791261D01*
X77560365Y-164801343D01*
X77532200Y-164812980D01*
X76931091Y-165413041D01*
X76918279Y-165443895D01*
X76907261Y-165449418D01*
X76760050Y-165824954D01*
X76605372Y-166197459D01*
X76605353Y-166219586D01*
X76597277Y-166240187D01*
X73315500Y-166240187D01*
X73315500Y-151104793D01*
X82951713Y-151104793D01*
X82956146Y-151115705D01*
X82956136Y-151127482D01*
X83243104Y-151821998D01*
X83525981Y-152518246D01*
X83538578Y-152537099D01*
X83538750Y-152537515D01*
X83539071Y-152537836D01*
X83555457Y-152562360D01*
X83586514Y-152585363D01*
X84579391Y-153579974D01*
X84597440Y-153604343D01*
X84608290Y-153608924D01*
X84616611Y-153617259D01*
X85310693Y-153905467D01*
X86002971Y-154197736D01*
X86014747Y-154197816D01*
X86025625Y-154202333D01*
X86777152Y-154202989D01*
X87528593Y-154208087D01*
X87539505Y-154203654D01*
X87551282Y-154203664D01*
X88245798Y-153916696D01*
X88942046Y-153633819D01*
X88960899Y-153621222D01*
X88961315Y-153621050D01*
X88961636Y-153620729D01*
X88986160Y-153604343D01*
X89009163Y-153573286D01*
X90003774Y-152580409D01*
X90028143Y-152562360D01*
X90032724Y-152551510D01*
X90041059Y-152543189D01*
X90329267Y-151849107D01*
X90621536Y-151156829D01*
X90621616Y-151145053D01*
X90626133Y-151134175D01*
X90626158Y-151104793D01*
X110713913Y-151104793D01*
X110718346Y-151115705D01*
X110718336Y-151127482D01*
X111005304Y-151821998D01*
X111288181Y-152518246D01*
X111300778Y-152537099D01*
X111300950Y-152537515D01*
X111301271Y-152537836D01*
X111317657Y-152562360D01*
X111348714Y-152585363D01*
X112341591Y-153579974D01*
X112359640Y-153604343D01*
X112370490Y-153608924D01*
X112378811Y-153617259D01*
X113072893Y-153905467D01*
X113765171Y-154197736D01*
X113776947Y-154197816D01*
X113787825Y-154202333D01*
X114539352Y-154202989D01*
X115290793Y-154208087D01*
X115301705Y-154203654D01*
X115313482Y-154203664D01*
X116007998Y-153916696D01*
X116704246Y-153633819D01*
X116723099Y-153621222D01*
X116723515Y-153621050D01*
X116723836Y-153620729D01*
X116748360Y-153604343D01*
X116771363Y-153573286D01*
X117765974Y-152580409D01*
X117790343Y-152562360D01*
X117794924Y-152551510D01*
X117803259Y-152543189D01*
X118091467Y-151849107D01*
X118383736Y-151156829D01*
X118383816Y-151145053D01*
X118388333Y-151134175D01*
X118388358Y-151104793D01*
X134589913Y-151104793D01*
X134594346Y-151115705D01*
X134594336Y-151127482D01*
X134881304Y-151821998D01*
X135164181Y-152518246D01*
X135176778Y-152537099D01*
X135176950Y-152537515D01*
X135177271Y-152537836D01*
X135193657Y-152562360D01*
X135224714Y-152585363D01*
X136217591Y-153579974D01*
X136235640Y-153604343D01*
X136246490Y-153608924D01*
X136254811Y-153617259D01*
X136948893Y-153905467D01*
X137641171Y-154197736D01*
X137652947Y-154197816D01*
X137663825Y-154202333D01*
X138415352Y-154202989D01*
X139166793Y-154208087D01*
X139177705Y-154203654D01*
X139189482Y-154203664D01*
X139883998Y-153916696D01*
X140580246Y-153633819D01*
X140599099Y-153621222D01*
X140599515Y-153621050D01*
X140599836Y-153620729D01*
X140624360Y-153604343D01*
X140647363Y-153573286D01*
X141641974Y-152580409D01*
X141666343Y-152562360D01*
X141670924Y-152551510D01*
X141679259Y-152543189D01*
X141967467Y-151849107D01*
X142259736Y-151156829D01*
X142259816Y-151145053D01*
X142264333Y-151134175D01*
X142264989Y-150382648D01*
X142270087Y-149631207D01*
X142265654Y-149620295D01*
X142265664Y-149608518D01*
X141978696Y-148914002D01*
X141695819Y-148217754D01*
X141683222Y-148198901D01*
X141683050Y-148198485D01*
X141682729Y-148198164D01*
X141666343Y-148173640D01*
X141635286Y-148150637D01*
X140642409Y-147156026D01*
X140624360Y-147131657D01*
X140613510Y-147127076D01*
X140605189Y-147118741D01*
X139911107Y-146830533D01*
X139218829Y-146538264D01*
X139207053Y-146538184D01*
X139196175Y-146533667D01*
X138444648Y-146533011D01*
X137693207Y-146527913D01*
X137682295Y-146532346D01*
X137670518Y-146532336D01*
X136976002Y-146819304D01*
X136279754Y-147102181D01*
X136260901Y-147114778D01*
X136260485Y-147114950D01*
X136260164Y-147115271D01*
X136235640Y-147131657D01*
X136212637Y-147162714D01*
X135218026Y-148155591D01*
X135193657Y-148173640D01*
X135189076Y-148184490D01*
X135180741Y-148192811D01*
X134892533Y-148886893D01*
X134600264Y-149579171D01*
X134600184Y-149590947D01*
X134595667Y-149601825D01*
X134595011Y-150353352D01*
X134589913Y-151104793D01*
X118388358Y-151104793D01*
X118388989Y-150382648D01*
X118394087Y-149631207D01*
X118389654Y-149620295D01*
X118389664Y-149608518D01*
X118102696Y-148914002D01*
X117819819Y-148217754D01*
X117807222Y-148198901D01*
X117807050Y-148198485D01*
X117806729Y-148198164D01*
X117790343Y-148173640D01*
X117759286Y-148150637D01*
X116766409Y-147156026D01*
X116748360Y-147131657D01*
X116737510Y-147127076D01*
X116729189Y-147118741D01*
X116035107Y-146830533D01*
X115342829Y-146538264D01*
X115331053Y-146538184D01*
X115320175Y-146533667D01*
X114568648Y-146533011D01*
X113817207Y-146527913D01*
X113806295Y-146532346D01*
X113794518Y-146532336D01*
X113100002Y-146819304D01*
X112403754Y-147102181D01*
X112384901Y-147114778D01*
X112384485Y-147114950D01*
X112384164Y-147115271D01*
X112359640Y-147131657D01*
X112336637Y-147162714D01*
X111342026Y-148155591D01*
X111317657Y-148173640D01*
X111313076Y-148184490D01*
X111304741Y-148192811D01*
X111016533Y-148886893D01*
X110724264Y-149579171D01*
X110724184Y-149590947D01*
X110719667Y-149601825D01*
X110719011Y-150353352D01*
X110713913Y-151104793D01*
X90626158Y-151104793D01*
X90626789Y-150382648D01*
X90631887Y-149631207D01*
X90627454Y-149620295D01*
X90627464Y-149608518D01*
X90340496Y-148914002D01*
X90057619Y-148217754D01*
X90045022Y-148198901D01*
X90044850Y-148198485D01*
X90044529Y-148198164D01*
X90028143Y-148173640D01*
X89997086Y-148150637D01*
X89004209Y-147156026D01*
X88986160Y-147131657D01*
X88975310Y-147127076D01*
X88966989Y-147118741D01*
X88272907Y-146830533D01*
X87580629Y-146538264D01*
X87568853Y-146538184D01*
X87557975Y-146533667D01*
X86806448Y-146533011D01*
X86055007Y-146527913D01*
X86044095Y-146532346D01*
X86032318Y-146532336D01*
X85337802Y-146819304D01*
X84641554Y-147102181D01*
X84622701Y-147114778D01*
X84622285Y-147114950D01*
X84621964Y-147115271D01*
X84597440Y-147131657D01*
X84574437Y-147162714D01*
X83579826Y-148155591D01*
X83555457Y-148173640D01*
X83550876Y-148184490D01*
X83542541Y-148192811D01*
X83254333Y-148886893D01*
X82962064Y-149579171D01*
X82961984Y-149590947D01*
X82957467Y-149601825D01*
X82956811Y-150353352D01*
X82951713Y-151104793D01*
X73315500Y-151104793D01*
X73315500Y-134720346D01*
X74465974Y-134720346D01*
X74472984Y-135145425D01*
X74472613Y-135570619D01*
X74480303Y-135589230D01*
X74480635Y-135609363D01*
X74792640Y-136362610D01*
X74801845Y-136367420D01*
X74812155Y-136392372D01*
X75440321Y-137021636D01*
X75468057Y-137033153D01*
X75473390Y-137043360D01*
X75868797Y-137199554D01*
X76261481Y-137362611D01*
X76281619Y-137362629D01*
X76300346Y-137370026D01*
X76725425Y-137363016D01*
X77150619Y-137363387D01*
X77169230Y-137355697D01*
X77189363Y-137355365D01*
X77942610Y-137043360D01*
X77947420Y-137034155D01*
X77972372Y-137023845D01*
X78601636Y-136395679D01*
X78613153Y-136367943D01*
X78623360Y-136362610D01*
X78779554Y-135967203D01*
X78822078Y-135864793D01*
X83027913Y-135864793D01*
X83032346Y-135875705D01*
X83032336Y-135887482D01*
X83319304Y-136581998D01*
X83602181Y-137278246D01*
X83614778Y-137297099D01*
X83614950Y-137297515D01*
X83615271Y-137297836D01*
X83631657Y-137322360D01*
X83662714Y-137345363D01*
X84655591Y-138339974D01*
X84673640Y-138364343D01*
X84684490Y-138368924D01*
X84692811Y-138377259D01*
X85386893Y-138665467D01*
X86079171Y-138957736D01*
X86090947Y-138957816D01*
X86101825Y-138962333D01*
X86853352Y-138962989D01*
X87604793Y-138968087D01*
X87615705Y-138963654D01*
X87627482Y-138963664D01*
X88321998Y-138676696D01*
X89018246Y-138393819D01*
X89037099Y-138381222D01*
X89037515Y-138381050D01*
X89037836Y-138380729D01*
X89062360Y-138364343D01*
X89085363Y-138333286D01*
X90079974Y-137340409D01*
X90104343Y-137322360D01*
X90108924Y-137311510D01*
X90117259Y-137303189D01*
X90405467Y-136609107D01*
X90697736Y-135916829D01*
X90697816Y-135905053D01*
X90702333Y-135894175D01*
X90702989Y-135142648D01*
X90705854Y-134720346D01*
X102151974Y-134720346D01*
X102158984Y-135145425D01*
X102158613Y-135570619D01*
X102166303Y-135589230D01*
X102166635Y-135609363D01*
X102478640Y-136362610D01*
X102487845Y-136367420D01*
X102498155Y-136392372D01*
X103126321Y-137021636D01*
X103154057Y-137033153D01*
X103159390Y-137043360D01*
X103554797Y-137199554D01*
X103947481Y-137362611D01*
X103967619Y-137362629D01*
X103986346Y-137370026D01*
X104411425Y-137363016D01*
X104836619Y-137363387D01*
X104855230Y-137355697D01*
X104875363Y-137355365D01*
X105628610Y-137043360D01*
X105633420Y-137034155D01*
X105658372Y-137023845D01*
X106287636Y-136395679D01*
X106299153Y-136367943D01*
X106309360Y-136362610D01*
X106465554Y-135967203D01*
X106508078Y-135864793D01*
X110713913Y-135864793D01*
X110718346Y-135875705D01*
X110718336Y-135887482D01*
X111005304Y-136581998D01*
X111288181Y-137278246D01*
X111300778Y-137297099D01*
X111300950Y-137297515D01*
X111301271Y-137297836D01*
X111317657Y-137322360D01*
X111348714Y-137345363D01*
X112341591Y-138339974D01*
X112359640Y-138364343D01*
X112370490Y-138368924D01*
X112378811Y-138377259D01*
X113072893Y-138665467D01*
X113765171Y-138957736D01*
X113776947Y-138957816D01*
X113787825Y-138962333D01*
X114539352Y-138962989D01*
X115290793Y-138968087D01*
X115301705Y-138963654D01*
X115313482Y-138963664D01*
X116007998Y-138676696D01*
X116704246Y-138393819D01*
X116723099Y-138381222D01*
X116723515Y-138381050D01*
X116723836Y-138380729D01*
X116748360Y-138364343D01*
X116771363Y-138333286D01*
X117765974Y-137340409D01*
X117790343Y-137322360D01*
X117794924Y-137311510D01*
X117803259Y-137303189D01*
X118073656Y-136652000D01*
X124563780Y-136652000D01*
X125000576Y-138847922D01*
X126244466Y-140709534D01*
X128106078Y-141953424D01*
X130302000Y-142390220D01*
X132497922Y-141953424D01*
X134359534Y-140709534D01*
X135603424Y-138847922D01*
X135893662Y-137388793D01*
X142717913Y-137388793D01*
X142722346Y-137399705D01*
X142722336Y-137411482D01*
X143009304Y-138105998D01*
X143292181Y-138802246D01*
X143304778Y-138821099D01*
X143304950Y-138821515D01*
X143305271Y-138821836D01*
X143321657Y-138846360D01*
X143352714Y-138869363D01*
X144345591Y-139863974D01*
X144363640Y-139888343D01*
X144374490Y-139892924D01*
X144382811Y-139901259D01*
X145076893Y-140189467D01*
X145769171Y-140481736D01*
X145780947Y-140481816D01*
X145791825Y-140486333D01*
X146543352Y-140486989D01*
X147294793Y-140492087D01*
X147305705Y-140487654D01*
X147317482Y-140487664D01*
X148011998Y-140200696D01*
X148708246Y-139917819D01*
X148727099Y-139905222D01*
X148727515Y-139905050D01*
X148727836Y-139904729D01*
X148752360Y-139888343D01*
X148775363Y-139857286D01*
X149769974Y-138864409D01*
X149794343Y-138846360D01*
X149798924Y-138835510D01*
X149807259Y-138827189D01*
X150095467Y-138133107D01*
X150387736Y-137440829D01*
X150387816Y-137429053D01*
X150392333Y-137418175D01*
X150392989Y-136666648D01*
X150398087Y-135915207D01*
X150393654Y-135904295D01*
X150393664Y-135892518D01*
X150106696Y-135198002D01*
X149823819Y-134501754D01*
X149811222Y-134482901D01*
X149811050Y-134482485D01*
X149810729Y-134482164D01*
X149794343Y-134457640D01*
X149763286Y-134434637D01*
X148770409Y-133440026D01*
X148752360Y-133415657D01*
X148741510Y-133411076D01*
X148733189Y-133402741D01*
X148039107Y-133114533D01*
X147346829Y-132822264D01*
X147335053Y-132822184D01*
X147324175Y-132817667D01*
X146572648Y-132817011D01*
X145821207Y-132811913D01*
X145810295Y-132816346D01*
X145798518Y-132816336D01*
X145104002Y-133103304D01*
X144407754Y-133386181D01*
X144388901Y-133398778D01*
X144388485Y-133398950D01*
X144388164Y-133399271D01*
X144363640Y-133415657D01*
X144340637Y-133446714D01*
X143346026Y-134439591D01*
X143321657Y-134457640D01*
X143317076Y-134468490D01*
X143308741Y-134476811D01*
X143020533Y-135170893D01*
X142728264Y-135863171D01*
X142728184Y-135874947D01*
X142723667Y-135885825D01*
X142723011Y-136637352D01*
X142717913Y-137388793D01*
X135893662Y-137388793D01*
X136040220Y-136652000D01*
X135603424Y-134456078D01*
X134359534Y-132594466D01*
X132497922Y-131350576D01*
X130302000Y-130913780D01*
X128106078Y-131350576D01*
X126244466Y-132594466D01*
X125000576Y-134456078D01*
X124563780Y-136652000D01*
X118073656Y-136652000D01*
X118091467Y-136609107D01*
X118383736Y-135916829D01*
X118383816Y-135905053D01*
X118388333Y-135894175D01*
X118388989Y-135142648D01*
X118394087Y-134391207D01*
X118389654Y-134380295D01*
X118389664Y-134368518D01*
X118102696Y-133674002D01*
X117819819Y-132977754D01*
X117807222Y-132958901D01*
X117807050Y-132958485D01*
X117806729Y-132958164D01*
X117790343Y-132933640D01*
X117759286Y-132910637D01*
X116766409Y-131916026D01*
X116748360Y-131891657D01*
X116737510Y-131887076D01*
X116729189Y-131878741D01*
X116035107Y-131590533D01*
X115342829Y-131298264D01*
X115331053Y-131298184D01*
X115320175Y-131293667D01*
X114568648Y-131293011D01*
X113817207Y-131287913D01*
X113806295Y-131292346D01*
X113794518Y-131292336D01*
X113100002Y-131579304D01*
X112403754Y-131862181D01*
X112384901Y-131874778D01*
X112384485Y-131874950D01*
X112384164Y-131875271D01*
X112359640Y-131891657D01*
X112336637Y-131922714D01*
X111342026Y-132915591D01*
X111317657Y-132933640D01*
X111313076Y-132944490D01*
X111304741Y-132952811D01*
X111016533Y-133646893D01*
X110724264Y-134339171D01*
X110724184Y-134350947D01*
X110719667Y-134361825D01*
X110719011Y-135113352D01*
X110713913Y-135864793D01*
X106508078Y-135864793D01*
X106628611Y-135574519D01*
X106628629Y-135554381D01*
X106636026Y-135535654D01*
X106629016Y-135110575D01*
X106629387Y-134685381D01*
X106621697Y-134666770D01*
X106621365Y-134646637D01*
X106309360Y-133893390D01*
X106300155Y-133888580D01*
X106289845Y-133863628D01*
X105661679Y-133234364D01*
X105633943Y-133222847D01*
X105628610Y-133212640D01*
X105233203Y-133056446D01*
X104840519Y-132893389D01*
X104820381Y-132893371D01*
X104801654Y-132885974D01*
X104376575Y-132892984D01*
X103951381Y-132892613D01*
X103932770Y-132900303D01*
X103912637Y-132900635D01*
X103159390Y-133212640D01*
X103154580Y-133221845D01*
X103129628Y-133232155D01*
X102500364Y-133860321D01*
X102488847Y-133888057D01*
X102478640Y-133893390D01*
X102322446Y-134288797D01*
X102159389Y-134681481D01*
X102159371Y-134701619D01*
X102151974Y-134720346D01*
X90705854Y-134720346D01*
X90708087Y-134391207D01*
X90703654Y-134380295D01*
X90703664Y-134368518D01*
X90416696Y-133674002D01*
X90133819Y-132977754D01*
X90121222Y-132958901D01*
X90121050Y-132958485D01*
X90120729Y-132958164D01*
X90104343Y-132933640D01*
X90073286Y-132910637D01*
X89080409Y-131916026D01*
X89062360Y-131891657D01*
X89051510Y-131887076D01*
X89043189Y-131878741D01*
X88349107Y-131590533D01*
X87656829Y-131298264D01*
X87645053Y-131298184D01*
X87634175Y-131293667D01*
X86882648Y-131293011D01*
X86131207Y-131287913D01*
X86120295Y-131292346D01*
X86108518Y-131292336D01*
X85414002Y-131579304D01*
X84717754Y-131862181D01*
X84698901Y-131874778D01*
X84698485Y-131874950D01*
X84698164Y-131875271D01*
X84673640Y-131891657D01*
X84650637Y-131922714D01*
X83656026Y-132915591D01*
X83631657Y-132933640D01*
X83627076Y-132944490D01*
X83618741Y-132952811D01*
X83330533Y-133646893D01*
X83038264Y-134339171D01*
X83038184Y-134350947D01*
X83033667Y-134361825D01*
X83033011Y-135113352D01*
X83027913Y-135864793D01*
X78822078Y-135864793D01*
X78942611Y-135574519D01*
X78942629Y-135554381D01*
X78950026Y-135535654D01*
X78943016Y-135110575D01*
X78943387Y-134685381D01*
X78935697Y-134666770D01*
X78935365Y-134646637D01*
X78623360Y-133893390D01*
X78614155Y-133888580D01*
X78603845Y-133863628D01*
X77975679Y-133234364D01*
X77947943Y-133222847D01*
X77942610Y-133212640D01*
X77547203Y-133056446D01*
X77154519Y-132893389D01*
X77134381Y-132893371D01*
X77115654Y-132885974D01*
X76690575Y-132892984D01*
X76265381Y-132892613D01*
X76246770Y-132900303D01*
X76226637Y-132900635D01*
X75473390Y-133212640D01*
X75468580Y-133221845D01*
X75443628Y-133232155D01*
X74814364Y-133860321D01*
X74802847Y-133888057D01*
X74792640Y-133893390D01*
X74636446Y-134288797D01*
X74473389Y-134681481D01*
X74473371Y-134701619D01*
X74465974Y-134720346D01*
X73315500Y-134720346D01*
X73315500Y-124560346D01*
X74465974Y-124560346D01*
X74472984Y-124985425D01*
X74472613Y-125410619D01*
X74480303Y-125429230D01*
X74480635Y-125449363D01*
X74792640Y-126202610D01*
X74801845Y-126207420D01*
X74812155Y-126232372D01*
X75440321Y-126861636D01*
X75468057Y-126873153D01*
X75473390Y-126883360D01*
X75868797Y-127039554D01*
X76261481Y-127202611D01*
X76281619Y-127202629D01*
X76300346Y-127210026D01*
X76725425Y-127203016D01*
X77150619Y-127203387D01*
X77169230Y-127195697D01*
X77189363Y-127195365D01*
X77942610Y-126883360D01*
X77947420Y-126874155D01*
X77972372Y-126863845D01*
X78601636Y-126235679D01*
X78613153Y-126207943D01*
X78623360Y-126202610D01*
X78779554Y-125807203D01*
X78822078Y-125704793D01*
X83027913Y-125704793D01*
X83032346Y-125715705D01*
X83032336Y-125727482D01*
X83319304Y-126421998D01*
X83602181Y-127118246D01*
X83614778Y-127137099D01*
X83614950Y-127137515D01*
X83615271Y-127137836D01*
X83631657Y-127162360D01*
X83662714Y-127185363D01*
X84655591Y-128179974D01*
X84673640Y-128204343D01*
X84684490Y-128208924D01*
X84692811Y-128217259D01*
X85386893Y-128505467D01*
X86079171Y-128797736D01*
X86090947Y-128797816D01*
X86101825Y-128802333D01*
X86853352Y-128802989D01*
X87604793Y-128808087D01*
X87615705Y-128803654D01*
X87627482Y-128803664D01*
X88321998Y-128516696D01*
X89018246Y-128233819D01*
X89037099Y-128221222D01*
X89037515Y-128221050D01*
X89037836Y-128220729D01*
X89062360Y-128204343D01*
X89085363Y-128173286D01*
X90079974Y-127180409D01*
X90104343Y-127162360D01*
X90108924Y-127151510D01*
X90117259Y-127143189D01*
X90405467Y-126449107D01*
X90697736Y-125756829D01*
X90697816Y-125745053D01*
X90702333Y-125734175D01*
X90702989Y-124982648D01*
X90705854Y-124560346D01*
X102151974Y-124560346D01*
X102158984Y-124985425D01*
X102158613Y-125410619D01*
X102166303Y-125429230D01*
X102166635Y-125449363D01*
X102478640Y-126202610D01*
X102487845Y-126207420D01*
X102498155Y-126232372D01*
X103126321Y-126861636D01*
X103154057Y-126873153D01*
X103159390Y-126883360D01*
X103554797Y-127039554D01*
X103947481Y-127202611D01*
X103967619Y-127202629D01*
X103986346Y-127210026D01*
X104411425Y-127203016D01*
X104836619Y-127203387D01*
X104855230Y-127195697D01*
X104875363Y-127195365D01*
X105628610Y-126883360D01*
X105633420Y-126874155D01*
X105658372Y-126863845D01*
X106287636Y-126235679D01*
X106299153Y-126207943D01*
X106309360Y-126202610D01*
X106465554Y-125807203D01*
X106508078Y-125704793D01*
X110713913Y-125704793D01*
X110718346Y-125715705D01*
X110718336Y-125727482D01*
X111005304Y-126421998D01*
X111288181Y-127118246D01*
X111300778Y-127137099D01*
X111300950Y-127137515D01*
X111301271Y-127137836D01*
X111317657Y-127162360D01*
X111348714Y-127185363D01*
X112341591Y-128179974D01*
X112359640Y-128204343D01*
X112370490Y-128208924D01*
X112378811Y-128217259D01*
X113072893Y-128505467D01*
X113765171Y-128797736D01*
X113776947Y-128797816D01*
X113787825Y-128802333D01*
X114539352Y-128802989D01*
X115290793Y-128808087D01*
X115301705Y-128803654D01*
X115313482Y-128803664D01*
X116007998Y-128516696D01*
X116704246Y-128233819D01*
X116723099Y-128221222D01*
X116723515Y-128221050D01*
X116723836Y-128220729D01*
X116748360Y-128204343D01*
X116771363Y-128173286D01*
X117765974Y-127180409D01*
X117790343Y-127162360D01*
X117794924Y-127151510D01*
X117803259Y-127143189D01*
X118091467Y-126449107D01*
X118383736Y-125756829D01*
X118383816Y-125745053D01*
X118388333Y-125734175D01*
X118388989Y-124982648D01*
X118394087Y-124231207D01*
X118389654Y-124220295D01*
X118389664Y-124208518D01*
X118102696Y-123514002D01*
X118064014Y-123418793D01*
X126461913Y-123418793D01*
X126466346Y-123429705D01*
X126466336Y-123441482D01*
X126753304Y-124135998D01*
X127036181Y-124832246D01*
X127048778Y-124851099D01*
X127048950Y-124851515D01*
X127049271Y-124851836D01*
X127065657Y-124876360D01*
X127096714Y-124899363D01*
X128089591Y-125893974D01*
X128107640Y-125918343D01*
X128118490Y-125922924D01*
X128126811Y-125931259D01*
X128820893Y-126219467D01*
X129513171Y-126511736D01*
X129524947Y-126511816D01*
X129535825Y-126516333D01*
X130287352Y-126516989D01*
X131038793Y-126522087D01*
X131049705Y-126517654D01*
X131061482Y-126517664D01*
X131755998Y-126230696D01*
X132452246Y-125947819D01*
X132471099Y-125935222D01*
X132471515Y-125935050D01*
X132471836Y-125934729D01*
X132496360Y-125918343D01*
X132519363Y-125887286D01*
X133513974Y-124894409D01*
X133538343Y-124876360D01*
X133542924Y-124865510D01*
X133551259Y-124857189D01*
X133839467Y-124163107D01*
X134100087Y-123545793D01*
X142717913Y-123545793D01*
X142722346Y-123556705D01*
X142722336Y-123568482D01*
X143009304Y-124262998D01*
X143292181Y-124959246D01*
X143304778Y-124978099D01*
X143304950Y-124978515D01*
X143305271Y-124978836D01*
X143321657Y-125003360D01*
X143352714Y-125026363D01*
X144345591Y-126020974D01*
X144363640Y-126045343D01*
X144374490Y-126049924D01*
X144382811Y-126058259D01*
X145076893Y-126346467D01*
X145769171Y-126638736D01*
X145780947Y-126638816D01*
X145791825Y-126643333D01*
X146543352Y-126643989D01*
X147294793Y-126649087D01*
X147305705Y-126644654D01*
X147317482Y-126644664D01*
X148011998Y-126357696D01*
X148708246Y-126074819D01*
X148727099Y-126062222D01*
X148727515Y-126062050D01*
X148727836Y-126061729D01*
X148752360Y-126045343D01*
X148775363Y-126014286D01*
X149769974Y-125021409D01*
X149794343Y-125003360D01*
X149798924Y-124992510D01*
X149807259Y-124984189D01*
X150095467Y-124290107D01*
X150387736Y-123597829D01*
X150387816Y-123586053D01*
X150392333Y-123575175D01*
X150392989Y-122823648D01*
X150398087Y-122072207D01*
X150393654Y-122061295D01*
X150393664Y-122049518D01*
X150106696Y-121355002D01*
X149823819Y-120658754D01*
X149811222Y-120639901D01*
X149811050Y-120639485D01*
X149810729Y-120639164D01*
X149794343Y-120614640D01*
X149763286Y-120591637D01*
X148770409Y-119597026D01*
X148752360Y-119572657D01*
X148741510Y-119568076D01*
X148733189Y-119559741D01*
X148039107Y-119271533D01*
X147346829Y-118979264D01*
X147335053Y-118979184D01*
X147324175Y-118974667D01*
X146572648Y-118974011D01*
X145821207Y-118968913D01*
X145810295Y-118973346D01*
X145798518Y-118973336D01*
X145104002Y-119260304D01*
X144407754Y-119543181D01*
X144388901Y-119555778D01*
X144388485Y-119555950D01*
X144388164Y-119556271D01*
X144363640Y-119572657D01*
X144340637Y-119603714D01*
X143346026Y-120596591D01*
X143321657Y-120614640D01*
X143317076Y-120625490D01*
X143308741Y-120633811D01*
X143020533Y-121327893D01*
X142728264Y-122020171D01*
X142728184Y-122031947D01*
X142723667Y-122042825D01*
X142723011Y-122794352D01*
X142717913Y-123545793D01*
X134100087Y-123545793D01*
X134131736Y-123470829D01*
X134131816Y-123459053D01*
X134136333Y-123448175D01*
X134136989Y-122696648D01*
X134142087Y-121945207D01*
X134137654Y-121934295D01*
X134137664Y-121922518D01*
X133850696Y-121228002D01*
X133567819Y-120531754D01*
X133555222Y-120512901D01*
X133555050Y-120512485D01*
X133554729Y-120512164D01*
X133538343Y-120487640D01*
X133507286Y-120464637D01*
X132514409Y-119470026D01*
X132496360Y-119445657D01*
X132485510Y-119441076D01*
X132477189Y-119432741D01*
X131783107Y-119144533D01*
X131090829Y-118852264D01*
X131079053Y-118852184D01*
X131068175Y-118847667D01*
X130316648Y-118847011D01*
X129565207Y-118841913D01*
X129554295Y-118846346D01*
X129542518Y-118846336D01*
X128848002Y-119133304D01*
X128151754Y-119416181D01*
X128132901Y-119428778D01*
X128132485Y-119428950D01*
X128132164Y-119429271D01*
X128107640Y-119445657D01*
X128084637Y-119476714D01*
X127090026Y-120469591D01*
X127065657Y-120487640D01*
X127061076Y-120498490D01*
X127052741Y-120506811D01*
X126764533Y-121200893D01*
X126472264Y-121893171D01*
X126472184Y-121904947D01*
X126467667Y-121915825D01*
X126467011Y-122667352D01*
X126461913Y-123418793D01*
X118064014Y-123418793D01*
X117819819Y-122817754D01*
X117807222Y-122798901D01*
X117807050Y-122798485D01*
X117806729Y-122798164D01*
X117790343Y-122773640D01*
X117759286Y-122750637D01*
X116766409Y-121756026D01*
X116748360Y-121731657D01*
X116737510Y-121727076D01*
X116729189Y-121718741D01*
X116035107Y-121430533D01*
X115342829Y-121138264D01*
X115331053Y-121138184D01*
X115320175Y-121133667D01*
X114568648Y-121133011D01*
X113817207Y-121127913D01*
X113806295Y-121132346D01*
X113794518Y-121132336D01*
X113100002Y-121419304D01*
X112403754Y-121702181D01*
X112384901Y-121714778D01*
X112384485Y-121714950D01*
X112384164Y-121715271D01*
X112359640Y-121731657D01*
X112336637Y-121762714D01*
X111342026Y-122755591D01*
X111317657Y-122773640D01*
X111313076Y-122784490D01*
X111304741Y-122792811D01*
X111016533Y-123486893D01*
X110724264Y-124179171D01*
X110724184Y-124190947D01*
X110719667Y-124201825D01*
X110719011Y-124953352D01*
X110713913Y-125704793D01*
X106508078Y-125704793D01*
X106628611Y-125414519D01*
X106628629Y-125394381D01*
X106636026Y-125375654D01*
X106629016Y-124950575D01*
X106629387Y-124525381D01*
X106621697Y-124506770D01*
X106621365Y-124486637D01*
X106309360Y-123733390D01*
X106300155Y-123728580D01*
X106289845Y-123703628D01*
X105661679Y-123074364D01*
X105633943Y-123062847D01*
X105628610Y-123052640D01*
X105233203Y-122896446D01*
X104840519Y-122733389D01*
X104820381Y-122733371D01*
X104801654Y-122725974D01*
X104376575Y-122732984D01*
X103951381Y-122732613D01*
X103932770Y-122740303D01*
X103912637Y-122740635D01*
X103159390Y-123052640D01*
X103154580Y-123061845D01*
X103129628Y-123072155D01*
X102500364Y-123700321D01*
X102488847Y-123728057D01*
X102478640Y-123733390D01*
X102322446Y-124128797D01*
X102159389Y-124521481D01*
X102159371Y-124541619D01*
X102151974Y-124560346D01*
X90705854Y-124560346D01*
X90708087Y-124231207D01*
X90703654Y-124220295D01*
X90703664Y-124208518D01*
X90416696Y-123514002D01*
X90133819Y-122817754D01*
X90121222Y-122798901D01*
X90121050Y-122798485D01*
X90120729Y-122798164D01*
X90104343Y-122773640D01*
X90073286Y-122750637D01*
X89080409Y-121756026D01*
X89062360Y-121731657D01*
X89051510Y-121727076D01*
X89043189Y-121718741D01*
X88349107Y-121430533D01*
X87656829Y-121138264D01*
X87645053Y-121138184D01*
X87634175Y-121133667D01*
X86882648Y-121133011D01*
X86131207Y-121127913D01*
X86120295Y-121132346D01*
X86108518Y-121132336D01*
X85414002Y-121419304D01*
X84717754Y-121702181D01*
X84698901Y-121714778D01*
X84698485Y-121714950D01*
X84698164Y-121715271D01*
X84673640Y-121731657D01*
X84650637Y-121762714D01*
X83656026Y-122755591D01*
X83631657Y-122773640D01*
X83627076Y-122784490D01*
X83618741Y-122792811D01*
X83330533Y-123486893D01*
X83038264Y-124179171D01*
X83038184Y-124190947D01*
X83033667Y-124201825D01*
X83033011Y-124953352D01*
X83027913Y-125704793D01*
X78822078Y-125704793D01*
X78942611Y-125414519D01*
X78942629Y-125394381D01*
X78950026Y-125375654D01*
X78943016Y-124950575D01*
X78943387Y-124525381D01*
X78935697Y-124506770D01*
X78935365Y-124486637D01*
X78623360Y-123733390D01*
X78614155Y-123728580D01*
X78603845Y-123703628D01*
X77975679Y-123074364D01*
X77947943Y-123062847D01*
X77942610Y-123052640D01*
X77547203Y-122896446D01*
X77154519Y-122733389D01*
X77134381Y-122733371D01*
X77115654Y-122725974D01*
X76690575Y-122732984D01*
X76265381Y-122732613D01*
X76246770Y-122740303D01*
X76226637Y-122740635D01*
X75473390Y-123052640D01*
X75468580Y-123061845D01*
X75443628Y-123072155D01*
X74814364Y-123700321D01*
X74802847Y-123728057D01*
X74792640Y-123733390D01*
X74636446Y-124128797D01*
X74473389Y-124521481D01*
X74473371Y-124541619D01*
X74465974Y-124560346D01*
X73315500Y-124560346D01*
X73315500Y-114400346D01*
X74465974Y-114400346D01*
X74472984Y-114825425D01*
X74472613Y-115250619D01*
X74480303Y-115269230D01*
X74480635Y-115289363D01*
X74792640Y-116042610D01*
X74801845Y-116047420D01*
X74812155Y-116072372D01*
X75440321Y-116701636D01*
X75468057Y-116713153D01*
X75473390Y-116723360D01*
X75868797Y-116879554D01*
X76261481Y-117042611D01*
X76281619Y-117042629D01*
X76300346Y-117050026D01*
X76725425Y-117043016D01*
X77150619Y-117043387D01*
X77169230Y-117035697D01*
X77189363Y-117035365D01*
X77942610Y-116723360D01*
X77947420Y-116714155D01*
X77972372Y-116703845D01*
X78601636Y-116075679D01*
X78613153Y-116047943D01*
X78623360Y-116042610D01*
X78779554Y-115647203D01*
X78822078Y-115544793D01*
X83027913Y-115544793D01*
X83032346Y-115555705D01*
X83032336Y-115567482D01*
X83319304Y-116261998D01*
X83602181Y-116958246D01*
X83614778Y-116977099D01*
X83614950Y-116977515D01*
X83615271Y-116977836D01*
X83631657Y-117002360D01*
X83662714Y-117025363D01*
X84655591Y-118019974D01*
X84673640Y-118044343D01*
X84684490Y-118048924D01*
X84692811Y-118057259D01*
X85386893Y-118345467D01*
X86079171Y-118637736D01*
X86090947Y-118637816D01*
X86101825Y-118642333D01*
X86853352Y-118642989D01*
X87604793Y-118648087D01*
X87615705Y-118643654D01*
X87627482Y-118643664D01*
X88321998Y-118356696D01*
X89018246Y-118073819D01*
X89037099Y-118061222D01*
X89037515Y-118061050D01*
X89037836Y-118060729D01*
X89062360Y-118044343D01*
X89085363Y-118013286D01*
X90079974Y-117020409D01*
X90104343Y-117002360D01*
X90108924Y-116991510D01*
X90117259Y-116983189D01*
X90405467Y-116289107D01*
X90697736Y-115596829D01*
X90697816Y-115585053D01*
X90702333Y-115574175D01*
X90702989Y-114822648D01*
X90705854Y-114400346D01*
X102151974Y-114400346D01*
X102158984Y-114825425D01*
X102158613Y-115250619D01*
X102166303Y-115269230D01*
X102166635Y-115289363D01*
X102478640Y-116042610D01*
X102487845Y-116047420D01*
X102498155Y-116072372D01*
X103126321Y-116701636D01*
X103154057Y-116713153D01*
X103159390Y-116723360D01*
X103554797Y-116879554D01*
X103947481Y-117042611D01*
X103967619Y-117042629D01*
X103986346Y-117050026D01*
X104411425Y-117043016D01*
X104836619Y-117043387D01*
X104855230Y-117035697D01*
X104875363Y-117035365D01*
X105628610Y-116723360D01*
X105633420Y-116714155D01*
X105658372Y-116703845D01*
X106287636Y-116075679D01*
X106299153Y-116047943D01*
X106309360Y-116042610D01*
X106465554Y-115647203D01*
X106508078Y-115544793D01*
X110713913Y-115544793D01*
X110718346Y-115555705D01*
X110718336Y-115567482D01*
X111005304Y-116261998D01*
X111288181Y-116958246D01*
X111300778Y-116977099D01*
X111300950Y-116977515D01*
X111301271Y-116977836D01*
X111317657Y-117002360D01*
X111348714Y-117025363D01*
X112341591Y-118019974D01*
X112359640Y-118044343D01*
X112370490Y-118048924D01*
X112378811Y-118057259D01*
X113072893Y-118345467D01*
X113765171Y-118637736D01*
X113776947Y-118637816D01*
X113787825Y-118642333D01*
X114539352Y-118642989D01*
X115290793Y-118648087D01*
X115301705Y-118643654D01*
X115313482Y-118643664D01*
X116007998Y-118356696D01*
X116704246Y-118073819D01*
X116723099Y-118061222D01*
X116723515Y-118061050D01*
X116723836Y-118060729D01*
X116748360Y-118044343D01*
X116771363Y-118013286D01*
X117765974Y-117020409D01*
X117790343Y-117002360D01*
X117794924Y-116991510D01*
X117803259Y-116983189D01*
X118091467Y-116289107D01*
X118383736Y-115596829D01*
X118383816Y-115585053D01*
X118388333Y-115574175D01*
X118388989Y-114822648D01*
X118394087Y-114071207D01*
X118389654Y-114060295D01*
X118389664Y-114048518D01*
X118102696Y-113354002D01*
X117819819Y-112657754D01*
X117807222Y-112638901D01*
X117807050Y-112638485D01*
X117806729Y-112638164D01*
X117790343Y-112613640D01*
X117759286Y-112590637D01*
X116766409Y-111596026D01*
X116748360Y-111571657D01*
X116737510Y-111567076D01*
X116729189Y-111558741D01*
X116035107Y-111270533D01*
X115342829Y-110978264D01*
X115331053Y-110978184D01*
X115320175Y-110973667D01*
X114568648Y-110973011D01*
X113817207Y-110967913D01*
X113806295Y-110972346D01*
X113794518Y-110972336D01*
X113100002Y-111259304D01*
X112403754Y-111542181D01*
X112384901Y-111554778D01*
X112384485Y-111554950D01*
X112384164Y-111555271D01*
X112359640Y-111571657D01*
X112336637Y-111602714D01*
X111342026Y-112595591D01*
X111317657Y-112613640D01*
X111313076Y-112624490D01*
X111304741Y-112632811D01*
X111016533Y-113326893D01*
X110724264Y-114019171D01*
X110724184Y-114030947D01*
X110719667Y-114041825D01*
X110719011Y-114793352D01*
X110713913Y-115544793D01*
X106508078Y-115544793D01*
X106628611Y-115254519D01*
X106628629Y-115234381D01*
X106636026Y-115215654D01*
X106629016Y-114790575D01*
X106629387Y-114365381D01*
X106621697Y-114346770D01*
X106621365Y-114326637D01*
X106309360Y-113573390D01*
X106300155Y-113568580D01*
X106289845Y-113543628D01*
X105661679Y-112914364D01*
X105633943Y-112902847D01*
X105628610Y-112892640D01*
X105233203Y-112736446D01*
X104840519Y-112573389D01*
X104820381Y-112573371D01*
X104801654Y-112565974D01*
X104376575Y-112572984D01*
X103951381Y-112572613D01*
X103932770Y-112580303D01*
X103912637Y-112580635D01*
X103159390Y-112892640D01*
X103154580Y-112901845D01*
X103129628Y-112912155D01*
X102500364Y-113540321D01*
X102488847Y-113568057D01*
X102478640Y-113573390D01*
X102322446Y-113968797D01*
X102159389Y-114361481D01*
X102159371Y-114381619D01*
X102151974Y-114400346D01*
X90705854Y-114400346D01*
X90708087Y-114071207D01*
X90703654Y-114060295D01*
X90703664Y-114048518D01*
X90416696Y-113354002D01*
X90133819Y-112657754D01*
X90121222Y-112638901D01*
X90121050Y-112638485D01*
X90120729Y-112638164D01*
X90104343Y-112613640D01*
X90073286Y-112590637D01*
X89080409Y-111596026D01*
X89062360Y-111571657D01*
X89051510Y-111567076D01*
X89043189Y-111558741D01*
X88349107Y-111270533D01*
X87656829Y-110978264D01*
X87645053Y-110978184D01*
X87634175Y-110973667D01*
X86882648Y-110973011D01*
X86131207Y-110967913D01*
X86120295Y-110972346D01*
X86108518Y-110972336D01*
X85414002Y-111259304D01*
X84717754Y-111542181D01*
X84698901Y-111554778D01*
X84698485Y-111554950D01*
X84698164Y-111555271D01*
X84673640Y-111571657D01*
X84650637Y-111602714D01*
X83656026Y-112595591D01*
X83631657Y-112613640D01*
X83627076Y-112624490D01*
X83618741Y-112632811D01*
X83330533Y-113326893D01*
X83038264Y-114019171D01*
X83038184Y-114030947D01*
X83033667Y-114041825D01*
X83033011Y-114793352D01*
X83027913Y-115544793D01*
X78822078Y-115544793D01*
X78942611Y-115254519D01*
X78942629Y-115234381D01*
X78950026Y-115215654D01*
X78943016Y-114790575D01*
X78943387Y-114365381D01*
X78935697Y-114346770D01*
X78935365Y-114326637D01*
X78623360Y-113573390D01*
X78614155Y-113568580D01*
X78603845Y-113543628D01*
X77975679Y-112914364D01*
X77947943Y-112902847D01*
X77942610Y-112892640D01*
X77547203Y-112736446D01*
X77154519Y-112573389D01*
X77134381Y-112573371D01*
X77115654Y-112565974D01*
X76690575Y-112572984D01*
X76265381Y-112572613D01*
X76246770Y-112580303D01*
X76226637Y-112580635D01*
X75473390Y-112892640D01*
X75468580Y-112901845D01*
X75443628Y-112912155D01*
X74814364Y-113540321D01*
X74802847Y-113568057D01*
X74792640Y-113573390D01*
X74636446Y-113968797D01*
X74473389Y-114361481D01*
X74473371Y-114381619D01*
X74465974Y-114400346D01*
X73315500Y-114400346D01*
X73315500Y-109702793D01*
X126461913Y-109702793D01*
X126466346Y-109713705D01*
X126466336Y-109725482D01*
X126753304Y-110419998D01*
X127036181Y-111116246D01*
X127048778Y-111135099D01*
X127048950Y-111135515D01*
X127049271Y-111135836D01*
X127065657Y-111160360D01*
X127096714Y-111183363D01*
X128089591Y-112177974D01*
X128107640Y-112202343D01*
X128118490Y-112206924D01*
X128126811Y-112215259D01*
X128820893Y-112503467D01*
X129513171Y-112795736D01*
X129524947Y-112795816D01*
X129535825Y-112800333D01*
X130287352Y-112800989D01*
X131038793Y-112806087D01*
X131049705Y-112801654D01*
X131061482Y-112801664D01*
X131755998Y-112514696D01*
X132452246Y-112231819D01*
X132471099Y-112219222D01*
X132471515Y-112219050D01*
X132471836Y-112218729D01*
X132496360Y-112202343D01*
X132519363Y-112171286D01*
X133513974Y-111178409D01*
X133538343Y-111160360D01*
X133542924Y-111149510D01*
X133551259Y-111141189D01*
X133839467Y-110447107D01*
X134100087Y-109829793D01*
X142717913Y-109829793D01*
X142722346Y-109840705D01*
X142722336Y-109852482D01*
X143009304Y-110546998D01*
X143292181Y-111243246D01*
X143304778Y-111262099D01*
X143304950Y-111262515D01*
X143305271Y-111262836D01*
X143321657Y-111287360D01*
X143352714Y-111310363D01*
X144345591Y-112304974D01*
X144363640Y-112329343D01*
X144374490Y-112333924D01*
X144382811Y-112342259D01*
X145076893Y-112630467D01*
X145769171Y-112922736D01*
X145780947Y-112922816D01*
X145791825Y-112927333D01*
X146543352Y-112927989D01*
X147294793Y-112933087D01*
X147305705Y-112928654D01*
X147317482Y-112928664D01*
X148011998Y-112641696D01*
X148708246Y-112358819D01*
X148727099Y-112346222D01*
X148727515Y-112346050D01*
X148727836Y-112345729D01*
X148752360Y-112329343D01*
X148775363Y-112298286D01*
X149769974Y-111305409D01*
X149794343Y-111287360D01*
X149798924Y-111276510D01*
X149807259Y-111268189D01*
X150095467Y-110574107D01*
X150387736Y-109881829D01*
X150387816Y-109870053D01*
X150392333Y-109859175D01*
X150392989Y-109107648D01*
X150398087Y-108356207D01*
X150393654Y-108345295D01*
X150393664Y-108333518D01*
X150106696Y-107639002D01*
X149823819Y-106942754D01*
X149811222Y-106923901D01*
X149811050Y-106923485D01*
X149810729Y-106923164D01*
X149794343Y-106898640D01*
X149763286Y-106875637D01*
X148770409Y-105881026D01*
X148752360Y-105856657D01*
X148741510Y-105852076D01*
X148733189Y-105843741D01*
X148039107Y-105555533D01*
X147346829Y-105263264D01*
X147335053Y-105263184D01*
X147324175Y-105258667D01*
X146572648Y-105258011D01*
X145821207Y-105252913D01*
X145810295Y-105257346D01*
X145798518Y-105257336D01*
X145104002Y-105544304D01*
X144407754Y-105827181D01*
X144388901Y-105839778D01*
X144388485Y-105839950D01*
X144388164Y-105840271D01*
X144363640Y-105856657D01*
X144340637Y-105887714D01*
X143346026Y-106880591D01*
X143321657Y-106898640D01*
X143317076Y-106909490D01*
X143308741Y-106917811D01*
X143020533Y-107611893D01*
X142728264Y-108304171D01*
X142728184Y-108315947D01*
X142723667Y-108326825D01*
X142723011Y-109078352D01*
X142717913Y-109829793D01*
X134100087Y-109829793D01*
X134131736Y-109754829D01*
X134131816Y-109743053D01*
X134136333Y-109732175D01*
X134136989Y-108980648D01*
X134142087Y-108229207D01*
X134137654Y-108218295D01*
X134137664Y-108206518D01*
X133850696Y-107512002D01*
X133567819Y-106815754D01*
X133555222Y-106796901D01*
X133555050Y-106796485D01*
X133554729Y-106796164D01*
X133538343Y-106771640D01*
X133507286Y-106748637D01*
X132514409Y-105754026D01*
X132496360Y-105729657D01*
X132485510Y-105725076D01*
X132477189Y-105716741D01*
X131783107Y-105428533D01*
X131090829Y-105136264D01*
X131079053Y-105136184D01*
X131068175Y-105131667D01*
X130316648Y-105131011D01*
X129565207Y-105125913D01*
X129554295Y-105130346D01*
X129542518Y-105130336D01*
X128848002Y-105417304D01*
X128151754Y-105700181D01*
X128132901Y-105712778D01*
X128132485Y-105712950D01*
X128132164Y-105713271D01*
X128107640Y-105729657D01*
X128084637Y-105760714D01*
X127090026Y-106753591D01*
X127065657Y-106771640D01*
X127061076Y-106782490D01*
X127052741Y-106790811D01*
X126764533Y-107484893D01*
X126472264Y-108177171D01*
X126472184Y-108188947D01*
X126467667Y-108199825D01*
X126467011Y-108951352D01*
X126461913Y-109702793D01*
X73315500Y-109702793D01*
X73315500Y-104240346D01*
X74465974Y-104240346D01*
X74472984Y-104665425D01*
X74472613Y-105090619D01*
X74480303Y-105109230D01*
X74480635Y-105129363D01*
X74792640Y-105882610D01*
X74801845Y-105887420D01*
X74812155Y-105912372D01*
X75440321Y-106541636D01*
X75468057Y-106553153D01*
X75473390Y-106563360D01*
X75868797Y-106719554D01*
X76261481Y-106882611D01*
X76281619Y-106882629D01*
X76300346Y-106890026D01*
X76725425Y-106883016D01*
X77150619Y-106883387D01*
X77169230Y-106875697D01*
X77189363Y-106875365D01*
X77942610Y-106563360D01*
X77947420Y-106554155D01*
X77972372Y-106543845D01*
X78601636Y-105915679D01*
X78613153Y-105887943D01*
X78623360Y-105882610D01*
X78779554Y-105487203D01*
X78822078Y-105384793D01*
X83027913Y-105384793D01*
X83032346Y-105395705D01*
X83032336Y-105407482D01*
X83319304Y-106101998D01*
X83602181Y-106798246D01*
X83614778Y-106817099D01*
X83614950Y-106817515D01*
X83615271Y-106817836D01*
X83631657Y-106842360D01*
X83662714Y-106865363D01*
X84655591Y-107859974D01*
X84673640Y-107884343D01*
X84684490Y-107888924D01*
X84692811Y-107897259D01*
X85386893Y-108185467D01*
X86079171Y-108477736D01*
X86090947Y-108477816D01*
X86101825Y-108482333D01*
X86853352Y-108482989D01*
X87604793Y-108488087D01*
X87615705Y-108483654D01*
X87627482Y-108483664D01*
X88321998Y-108196696D01*
X89018246Y-107913819D01*
X89037099Y-107901222D01*
X89037515Y-107901050D01*
X89037836Y-107900729D01*
X89062360Y-107884343D01*
X89085363Y-107853286D01*
X90079974Y-106860409D01*
X90104343Y-106842360D01*
X90108924Y-106831510D01*
X90117259Y-106823189D01*
X90405467Y-106129107D01*
X90697736Y-105436829D01*
X90697816Y-105425053D01*
X90702333Y-105414175D01*
X90702989Y-104662648D01*
X90705854Y-104240346D01*
X102151974Y-104240346D01*
X102158984Y-104665425D01*
X102158613Y-105090619D01*
X102166303Y-105109230D01*
X102166635Y-105129363D01*
X102478640Y-105882610D01*
X102487845Y-105887420D01*
X102498155Y-105912372D01*
X103126321Y-106541636D01*
X103154057Y-106553153D01*
X103159390Y-106563360D01*
X103554797Y-106719554D01*
X103947481Y-106882611D01*
X103967619Y-106882629D01*
X103986346Y-106890026D01*
X104411425Y-106883016D01*
X104836619Y-106883387D01*
X104855230Y-106875697D01*
X104875363Y-106875365D01*
X105628610Y-106563360D01*
X105633420Y-106554155D01*
X105658372Y-106543845D01*
X106287636Y-105915679D01*
X106299153Y-105887943D01*
X106309360Y-105882610D01*
X106465554Y-105487203D01*
X106508078Y-105384793D01*
X110713913Y-105384793D01*
X110718346Y-105395705D01*
X110718336Y-105407482D01*
X111005304Y-106101998D01*
X111288181Y-106798246D01*
X111300778Y-106817099D01*
X111300950Y-106817515D01*
X111301271Y-106817836D01*
X111317657Y-106842360D01*
X111348714Y-106865363D01*
X112341591Y-107859974D01*
X112359640Y-107884343D01*
X112370490Y-107888924D01*
X112378811Y-107897259D01*
X113072893Y-108185467D01*
X113765171Y-108477736D01*
X113776947Y-108477816D01*
X113787825Y-108482333D01*
X114539352Y-108482989D01*
X115290793Y-108488087D01*
X115301705Y-108483654D01*
X115313482Y-108483664D01*
X116007998Y-108196696D01*
X116704246Y-107913819D01*
X116723099Y-107901222D01*
X116723515Y-107901050D01*
X116723836Y-107900729D01*
X116748360Y-107884343D01*
X116771363Y-107853286D01*
X117765974Y-106860409D01*
X117790343Y-106842360D01*
X117794924Y-106831510D01*
X117803259Y-106823189D01*
X118091467Y-106129107D01*
X118383736Y-105436829D01*
X118383816Y-105425053D01*
X118388333Y-105414175D01*
X118388989Y-104662648D01*
X118394087Y-103911207D01*
X118389654Y-103900295D01*
X118389664Y-103888518D01*
X118102696Y-103194002D01*
X117819819Y-102497754D01*
X117807222Y-102478901D01*
X117807050Y-102478485D01*
X117806729Y-102478164D01*
X117790343Y-102453640D01*
X117759286Y-102430637D01*
X116766409Y-101436026D01*
X116748360Y-101411657D01*
X116737510Y-101407076D01*
X116729189Y-101398741D01*
X116035107Y-101110533D01*
X115342829Y-100818264D01*
X115331053Y-100818184D01*
X115320175Y-100813667D01*
X114568648Y-100813011D01*
X113817207Y-100807913D01*
X113806295Y-100812346D01*
X113794518Y-100812336D01*
X113100002Y-101099304D01*
X112403754Y-101382181D01*
X112384901Y-101394778D01*
X112384485Y-101394950D01*
X112384164Y-101395271D01*
X112359640Y-101411657D01*
X112336637Y-101442714D01*
X111342026Y-102435591D01*
X111317657Y-102453640D01*
X111313076Y-102464490D01*
X111304741Y-102472811D01*
X111016533Y-103166893D01*
X110724264Y-103859171D01*
X110724184Y-103870947D01*
X110719667Y-103881825D01*
X110719011Y-104633352D01*
X110713913Y-105384793D01*
X106508078Y-105384793D01*
X106628611Y-105094519D01*
X106628629Y-105074381D01*
X106636026Y-105055654D01*
X106629016Y-104630575D01*
X106629387Y-104205381D01*
X106621697Y-104186770D01*
X106621365Y-104166637D01*
X106309360Y-103413390D01*
X106300155Y-103408580D01*
X106289845Y-103383628D01*
X105661679Y-102754364D01*
X105633943Y-102742847D01*
X105628610Y-102732640D01*
X105233203Y-102576446D01*
X104840519Y-102413389D01*
X104820381Y-102413371D01*
X104801654Y-102405974D01*
X104376575Y-102412984D01*
X103951381Y-102412613D01*
X103932770Y-102420303D01*
X103912637Y-102420635D01*
X103159390Y-102732640D01*
X103154580Y-102741845D01*
X103129628Y-102752155D01*
X102500364Y-103380321D01*
X102488847Y-103408057D01*
X102478640Y-103413390D01*
X102322446Y-103808797D01*
X102159389Y-104201481D01*
X102159371Y-104221619D01*
X102151974Y-104240346D01*
X90705854Y-104240346D01*
X90708087Y-103911207D01*
X90703654Y-103900295D01*
X90703664Y-103888518D01*
X90416696Y-103194002D01*
X90133819Y-102497754D01*
X90121222Y-102478901D01*
X90121050Y-102478485D01*
X90120729Y-102478164D01*
X90104343Y-102453640D01*
X90073286Y-102430637D01*
X89080409Y-101436026D01*
X89062360Y-101411657D01*
X89051510Y-101407076D01*
X89043189Y-101398741D01*
X88349107Y-101110533D01*
X87656829Y-100818264D01*
X87645053Y-100818184D01*
X87634175Y-100813667D01*
X86882648Y-100813011D01*
X86131207Y-100807913D01*
X86120295Y-100812346D01*
X86108518Y-100812336D01*
X85414002Y-101099304D01*
X84717754Y-101382181D01*
X84698901Y-101394778D01*
X84698485Y-101394950D01*
X84698164Y-101395271D01*
X84673640Y-101411657D01*
X84650637Y-101442714D01*
X83656026Y-102435591D01*
X83631657Y-102453640D01*
X83627076Y-102464490D01*
X83618741Y-102472811D01*
X83330533Y-103166893D01*
X83038264Y-103859171D01*
X83038184Y-103870947D01*
X83033667Y-103881825D01*
X83033011Y-104633352D01*
X83027913Y-105384793D01*
X78822078Y-105384793D01*
X78942611Y-105094519D01*
X78942629Y-105074381D01*
X78950026Y-105055654D01*
X78943016Y-104630575D01*
X78943387Y-104205381D01*
X78935697Y-104186770D01*
X78935365Y-104166637D01*
X78623360Y-103413390D01*
X78614155Y-103408580D01*
X78603845Y-103383628D01*
X77975679Y-102754364D01*
X77947943Y-102742847D01*
X77942610Y-102732640D01*
X77547203Y-102576446D01*
X77154519Y-102413389D01*
X77134381Y-102413371D01*
X77115654Y-102405974D01*
X76690575Y-102412984D01*
X76265381Y-102412613D01*
X76246770Y-102420303D01*
X76226637Y-102420635D01*
X75473390Y-102732640D01*
X75468580Y-102741845D01*
X75443628Y-102752155D01*
X74814364Y-103380321D01*
X74802847Y-103408057D01*
X74792640Y-103413390D01*
X74636446Y-103808797D01*
X74473389Y-104201481D01*
X74473371Y-104221619D01*
X74465974Y-104240346D01*
X73315500Y-104240346D01*
X73315500Y-94080346D01*
X74465974Y-94080346D01*
X74472984Y-94505425D01*
X74472613Y-94930619D01*
X74480303Y-94949230D01*
X74480635Y-94969363D01*
X74792640Y-95722610D01*
X74801845Y-95727420D01*
X74812155Y-95752372D01*
X75440321Y-96381636D01*
X75468057Y-96393153D01*
X75473390Y-96403360D01*
X75868797Y-96559554D01*
X76261481Y-96722611D01*
X76281619Y-96722629D01*
X76300346Y-96730026D01*
X76725425Y-96723016D01*
X77150619Y-96723387D01*
X77169230Y-96715697D01*
X77189363Y-96715365D01*
X77942610Y-96403360D01*
X77947420Y-96394155D01*
X77972372Y-96383845D01*
X78601636Y-95755679D01*
X78613153Y-95727943D01*
X78623360Y-95722610D01*
X78779554Y-95327203D01*
X78822078Y-95224793D01*
X83027913Y-95224793D01*
X83032346Y-95235705D01*
X83032336Y-95247482D01*
X83319304Y-95941998D01*
X83602181Y-96638246D01*
X83614778Y-96657099D01*
X83614950Y-96657515D01*
X83615271Y-96657836D01*
X83631657Y-96682360D01*
X83662714Y-96705363D01*
X84655591Y-97699974D01*
X84673640Y-97724343D01*
X84684490Y-97728924D01*
X84692811Y-97737259D01*
X85386893Y-98025467D01*
X86079171Y-98317736D01*
X86090947Y-98317816D01*
X86101825Y-98322333D01*
X86853352Y-98322989D01*
X87604793Y-98328087D01*
X87615705Y-98323654D01*
X87627482Y-98323664D01*
X88321998Y-98036696D01*
X89018246Y-97753819D01*
X89037099Y-97741222D01*
X89037515Y-97741050D01*
X89037836Y-97740729D01*
X89062360Y-97724343D01*
X89085363Y-97693286D01*
X90079974Y-96700409D01*
X90104343Y-96682360D01*
X90108924Y-96671510D01*
X90117259Y-96663189D01*
X90405467Y-95969107D01*
X90697736Y-95276829D01*
X90697816Y-95265053D01*
X90702333Y-95254175D01*
X90702989Y-94502648D01*
X90705854Y-94080346D01*
X102151974Y-94080346D01*
X102158984Y-94505425D01*
X102158613Y-94930619D01*
X102166303Y-94949230D01*
X102166635Y-94969363D01*
X102478640Y-95722610D01*
X102487845Y-95727420D01*
X102498155Y-95752372D01*
X103126321Y-96381636D01*
X103154057Y-96393153D01*
X103159390Y-96403360D01*
X103554797Y-96559554D01*
X103947481Y-96722611D01*
X103967619Y-96722629D01*
X103986346Y-96730026D01*
X104411425Y-96723016D01*
X104836619Y-96723387D01*
X104855230Y-96715697D01*
X104875363Y-96715365D01*
X105628610Y-96403360D01*
X105633420Y-96394155D01*
X105658372Y-96383845D01*
X106287636Y-95755679D01*
X106299153Y-95727943D01*
X106309360Y-95722610D01*
X106465554Y-95327203D01*
X106508078Y-95224793D01*
X110713913Y-95224793D01*
X110718346Y-95235705D01*
X110718336Y-95247482D01*
X111005304Y-95941998D01*
X111288181Y-96638246D01*
X111300778Y-96657099D01*
X111300950Y-96657515D01*
X111301271Y-96657836D01*
X111317657Y-96682360D01*
X111348714Y-96705363D01*
X112341591Y-97699974D01*
X112359640Y-97724343D01*
X112370490Y-97728924D01*
X112378811Y-97737259D01*
X113072893Y-98025467D01*
X113765171Y-98317736D01*
X113776947Y-98317816D01*
X113787825Y-98322333D01*
X114539352Y-98322989D01*
X115290793Y-98328087D01*
X115301705Y-98323654D01*
X115313482Y-98323664D01*
X116007998Y-98036696D01*
X116704246Y-97753819D01*
X116723099Y-97741222D01*
X116723515Y-97741050D01*
X116723836Y-97740729D01*
X116748360Y-97724343D01*
X116771363Y-97693286D01*
X117765974Y-96700409D01*
X117790343Y-96682360D01*
X117794924Y-96671510D01*
X117803259Y-96663189D01*
X118084123Y-95986793D01*
X142717913Y-95986793D01*
X142722346Y-95997705D01*
X142722336Y-96009482D01*
X143009304Y-96703998D01*
X143292181Y-97400246D01*
X143304778Y-97419099D01*
X143304950Y-97419515D01*
X143305271Y-97419836D01*
X143321657Y-97444360D01*
X143352714Y-97467363D01*
X144345591Y-98461974D01*
X144363640Y-98486343D01*
X144374490Y-98490924D01*
X144382811Y-98499259D01*
X145076893Y-98787467D01*
X145769171Y-99079736D01*
X145780947Y-99079816D01*
X145791825Y-99084333D01*
X146543352Y-99084989D01*
X147294793Y-99090087D01*
X147305705Y-99085654D01*
X147317482Y-99085664D01*
X148011998Y-98798696D01*
X148708246Y-98515819D01*
X148727099Y-98503222D01*
X148727515Y-98503050D01*
X148727836Y-98502729D01*
X148752360Y-98486343D01*
X148775363Y-98455286D01*
X149769974Y-97462409D01*
X149794343Y-97444360D01*
X149798924Y-97433510D01*
X149807259Y-97425189D01*
X150095467Y-96731107D01*
X150387736Y-96038829D01*
X150387816Y-96027053D01*
X150392333Y-96016175D01*
X150392989Y-95264648D01*
X150398087Y-94513207D01*
X150393654Y-94502295D01*
X150393664Y-94490518D01*
X150106696Y-93796002D01*
X149823819Y-93099754D01*
X149811222Y-93080901D01*
X149811050Y-93080485D01*
X149810729Y-93080164D01*
X149794343Y-93055640D01*
X149763286Y-93032637D01*
X148770409Y-92038026D01*
X148752360Y-92013657D01*
X148741510Y-92009076D01*
X148733189Y-92000741D01*
X148039107Y-91712533D01*
X147346829Y-91420264D01*
X147335053Y-91420184D01*
X147324175Y-91415667D01*
X146572648Y-91415011D01*
X145821207Y-91409913D01*
X145810295Y-91414346D01*
X145798518Y-91414336D01*
X145104002Y-91701304D01*
X144407754Y-91984181D01*
X144388901Y-91996778D01*
X144388485Y-91996950D01*
X144388164Y-91997271D01*
X144363640Y-92013657D01*
X144340637Y-92044714D01*
X143346026Y-93037591D01*
X143321657Y-93055640D01*
X143317076Y-93066490D01*
X143308741Y-93074811D01*
X143020533Y-93768893D01*
X142728264Y-94461171D01*
X142728184Y-94472947D01*
X142723667Y-94483825D01*
X142723011Y-95235352D01*
X142717913Y-95986793D01*
X118084123Y-95986793D01*
X118091467Y-95969107D01*
X118383736Y-95276829D01*
X118383816Y-95265053D01*
X118388333Y-95254175D01*
X118388989Y-94502648D01*
X118394087Y-93751207D01*
X118389654Y-93740295D01*
X118389664Y-93728518D01*
X118102696Y-93034002D01*
X117819819Y-92337754D01*
X117807222Y-92318901D01*
X117807050Y-92318485D01*
X117806729Y-92318164D01*
X117790343Y-92293640D01*
X117759286Y-92270637D01*
X116766409Y-91276026D01*
X116748360Y-91251657D01*
X116737510Y-91247076D01*
X116729189Y-91238741D01*
X116035107Y-90950533D01*
X115342829Y-90658264D01*
X115331053Y-90658184D01*
X115320175Y-90653667D01*
X114568648Y-90653011D01*
X113817207Y-90647913D01*
X113806295Y-90652346D01*
X113794518Y-90652336D01*
X113100002Y-90939304D01*
X112403754Y-91222181D01*
X112384901Y-91234778D01*
X112384485Y-91234950D01*
X112384164Y-91235271D01*
X112359640Y-91251657D01*
X112336637Y-91282714D01*
X111342026Y-92275591D01*
X111317657Y-92293640D01*
X111313076Y-92304490D01*
X111304741Y-92312811D01*
X111016533Y-93006893D01*
X110724264Y-93699171D01*
X110724184Y-93710947D01*
X110719667Y-93721825D01*
X110719011Y-94473352D01*
X110713913Y-95224793D01*
X106508078Y-95224793D01*
X106628611Y-94934519D01*
X106628629Y-94914381D01*
X106636026Y-94895654D01*
X106629016Y-94470575D01*
X106629387Y-94045381D01*
X106621697Y-94026770D01*
X106621365Y-94006637D01*
X106309360Y-93253390D01*
X106300155Y-93248580D01*
X106289845Y-93223628D01*
X105661679Y-92594364D01*
X105633943Y-92582847D01*
X105628610Y-92572640D01*
X105233203Y-92416446D01*
X104840519Y-92253389D01*
X104820381Y-92253371D01*
X104801654Y-92245974D01*
X104376575Y-92252984D01*
X103951381Y-92252613D01*
X103932770Y-92260303D01*
X103912637Y-92260635D01*
X103159390Y-92572640D01*
X103154580Y-92581845D01*
X103129628Y-92592155D01*
X102500364Y-93220321D01*
X102488847Y-93248057D01*
X102478640Y-93253390D01*
X102322446Y-93648797D01*
X102159389Y-94041481D01*
X102159371Y-94061619D01*
X102151974Y-94080346D01*
X90705854Y-94080346D01*
X90708087Y-93751207D01*
X90703654Y-93740295D01*
X90703664Y-93728518D01*
X90416696Y-93034002D01*
X90133819Y-92337754D01*
X90121222Y-92318901D01*
X90121050Y-92318485D01*
X90120729Y-92318164D01*
X90104343Y-92293640D01*
X90073286Y-92270637D01*
X89080409Y-91276026D01*
X89062360Y-91251657D01*
X89051510Y-91247076D01*
X89043189Y-91238741D01*
X88349107Y-90950533D01*
X87656829Y-90658264D01*
X87645053Y-90658184D01*
X87634175Y-90653667D01*
X86882648Y-90653011D01*
X86131207Y-90647913D01*
X86120295Y-90652346D01*
X86108518Y-90652336D01*
X85414002Y-90939304D01*
X84717754Y-91222181D01*
X84698901Y-91234778D01*
X84698485Y-91234950D01*
X84698164Y-91235271D01*
X84673640Y-91251657D01*
X84650637Y-91282714D01*
X83656026Y-92275591D01*
X83631657Y-92293640D01*
X83627076Y-92304490D01*
X83618741Y-92312811D01*
X83330533Y-93006893D01*
X83038264Y-93699171D01*
X83038184Y-93710947D01*
X83033667Y-93721825D01*
X83033011Y-94473352D01*
X83027913Y-95224793D01*
X78822078Y-95224793D01*
X78942611Y-94934519D01*
X78942629Y-94914381D01*
X78950026Y-94895654D01*
X78943016Y-94470575D01*
X78943387Y-94045381D01*
X78935697Y-94026770D01*
X78935365Y-94006637D01*
X78623360Y-93253390D01*
X78614155Y-93248580D01*
X78603845Y-93223628D01*
X77975679Y-92594364D01*
X77947943Y-92582847D01*
X77942610Y-92572640D01*
X77547203Y-92416446D01*
X77154519Y-92253389D01*
X77134381Y-92253371D01*
X77115654Y-92245974D01*
X76690575Y-92252984D01*
X76265381Y-92252613D01*
X76246770Y-92260303D01*
X76226637Y-92260635D01*
X75473390Y-92572640D01*
X75468580Y-92581845D01*
X75443628Y-92592155D01*
X74814364Y-93220321D01*
X74802847Y-93248057D01*
X74792640Y-93253390D01*
X74636446Y-93648797D01*
X74473389Y-94041481D01*
X74473371Y-94061619D01*
X74465974Y-94080346D01*
X73315500Y-94080346D01*
X73315500Y-83920346D01*
X74465974Y-83920346D01*
X74472984Y-84345425D01*
X74472613Y-84770619D01*
X74480303Y-84789230D01*
X74480635Y-84809363D01*
X74792640Y-85562610D01*
X74801845Y-85567420D01*
X74812155Y-85592372D01*
X75440321Y-86221636D01*
X75468057Y-86233153D01*
X75473390Y-86243360D01*
X75868797Y-86399554D01*
X76261481Y-86562611D01*
X76281619Y-86562629D01*
X76300346Y-86570026D01*
X76725425Y-86563016D01*
X77150619Y-86563387D01*
X77169230Y-86555697D01*
X77189363Y-86555365D01*
X77942610Y-86243360D01*
X77947420Y-86234155D01*
X77972372Y-86223845D01*
X78601636Y-85595679D01*
X78613153Y-85567943D01*
X78623360Y-85562610D01*
X78779554Y-85167203D01*
X78822078Y-85064793D01*
X83027913Y-85064793D01*
X83032346Y-85075705D01*
X83032336Y-85087482D01*
X83319304Y-85781998D01*
X83602181Y-86478246D01*
X83614778Y-86497099D01*
X83614950Y-86497515D01*
X83615271Y-86497836D01*
X83631657Y-86522360D01*
X83662714Y-86545363D01*
X84655591Y-87539974D01*
X84673640Y-87564343D01*
X84684490Y-87568924D01*
X84692811Y-87577259D01*
X85386893Y-87865467D01*
X86079171Y-88157736D01*
X86090947Y-88157816D01*
X86101825Y-88162333D01*
X86853352Y-88162989D01*
X87604793Y-88168087D01*
X87615705Y-88163654D01*
X87627482Y-88163664D01*
X88321998Y-87876696D01*
X89018246Y-87593819D01*
X89037099Y-87581222D01*
X89037515Y-87581050D01*
X89037836Y-87580729D01*
X89062360Y-87564343D01*
X89085363Y-87533286D01*
X90079974Y-86540409D01*
X90104343Y-86522360D01*
X90108924Y-86511510D01*
X90117259Y-86503189D01*
X90405467Y-85809107D01*
X90697736Y-85116829D01*
X90697816Y-85105053D01*
X90702333Y-85094175D01*
X90702989Y-84342648D01*
X90705854Y-83920346D01*
X102151974Y-83920346D01*
X102158984Y-84345425D01*
X102158613Y-84770619D01*
X102166303Y-84789230D01*
X102166635Y-84809363D01*
X102478640Y-85562610D01*
X102487845Y-85567420D01*
X102498155Y-85592372D01*
X103126321Y-86221636D01*
X103154057Y-86233153D01*
X103159390Y-86243360D01*
X103554797Y-86399554D01*
X103947481Y-86562611D01*
X103967619Y-86562629D01*
X103986346Y-86570026D01*
X104411425Y-86563016D01*
X104836619Y-86563387D01*
X104855230Y-86555697D01*
X104875363Y-86555365D01*
X105628610Y-86243360D01*
X105633420Y-86234155D01*
X105658372Y-86223845D01*
X106287636Y-85595679D01*
X106299153Y-85567943D01*
X106309360Y-85562610D01*
X106465554Y-85167203D01*
X106508078Y-85064793D01*
X110713913Y-85064793D01*
X110718346Y-85075705D01*
X110718336Y-85087482D01*
X111005304Y-85781998D01*
X111288181Y-86478246D01*
X111300778Y-86497099D01*
X111300950Y-86497515D01*
X111301271Y-86497836D01*
X111317657Y-86522360D01*
X111348714Y-86545363D01*
X112341591Y-87539974D01*
X112359640Y-87564343D01*
X112370490Y-87568924D01*
X112378811Y-87577259D01*
X113072893Y-87865467D01*
X113765171Y-88157736D01*
X113776947Y-88157816D01*
X113787825Y-88162333D01*
X114539352Y-88162989D01*
X115290793Y-88168087D01*
X115301705Y-88163654D01*
X115313482Y-88163664D01*
X116007998Y-87876696D01*
X116704246Y-87593819D01*
X116723099Y-87581222D01*
X116723515Y-87581050D01*
X116723836Y-87580729D01*
X116748360Y-87564343D01*
X116771363Y-87533286D01*
X117765974Y-86540409D01*
X117790343Y-86522360D01*
X117794924Y-86511510D01*
X117803259Y-86503189D01*
X118091467Y-85809107D01*
X118383736Y-85116829D01*
X118383816Y-85105053D01*
X118388333Y-85094175D01*
X118388989Y-84342648D01*
X118394087Y-83591207D01*
X118389654Y-83580295D01*
X118389664Y-83568518D01*
X118102696Y-82874002D01*
X117819819Y-82177754D01*
X117807222Y-82158901D01*
X117807050Y-82158485D01*
X117806729Y-82158164D01*
X117790343Y-82133640D01*
X117759286Y-82110637D01*
X116766409Y-81116026D01*
X116748360Y-81091657D01*
X116737510Y-81087076D01*
X116729189Y-81078741D01*
X116035107Y-80790533D01*
X115342829Y-80498264D01*
X115331053Y-80498184D01*
X115320175Y-80493667D01*
X114568648Y-80493011D01*
X113817207Y-80487913D01*
X113806295Y-80492346D01*
X113794518Y-80492336D01*
X113100002Y-80779304D01*
X112403754Y-81062181D01*
X112384901Y-81074778D01*
X112384485Y-81074950D01*
X112384164Y-81075271D01*
X112359640Y-81091657D01*
X112336637Y-81122714D01*
X111342026Y-82115591D01*
X111317657Y-82133640D01*
X111313076Y-82144490D01*
X111304741Y-82152811D01*
X111016533Y-82846893D01*
X110724264Y-83539171D01*
X110724184Y-83550947D01*
X110719667Y-83561825D01*
X110719011Y-84313352D01*
X110713913Y-85064793D01*
X106508078Y-85064793D01*
X106628611Y-84774519D01*
X106628629Y-84754381D01*
X106636026Y-84735654D01*
X106629016Y-84310575D01*
X106629387Y-83885381D01*
X106621697Y-83866770D01*
X106621365Y-83846637D01*
X106309360Y-83093390D01*
X106300155Y-83088580D01*
X106289845Y-83063628D01*
X105661679Y-82434364D01*
X105633943Y-82422847D01*
X105628610Y-82412640D01*
X105233203Y-82256446D01*
X104840519Y-82093389D01*
X104820381Y-82093371D01*
X104801654Y-82085974D01*
X104376575Y-82092984D01*
X103951381Y-82092613D01*
X103932770Y-82100303D01*
X103912637Y-82100635D01*
X103159390Y-82412640D01*
X103154580Y-82421845D01*
X103129628Y-82432155D01*
X102500364Y-83060321D01*
X102488847Y-83088057D01*
X102478640Y-83093390D01*
X102322446Y-83488797D01*
X102159389Y-83881481D01*
X102159371Y-83901619D01*
X102151974Y-83920346D01*
X90705854Y-83920346D01*
X90708087Y-83591207D01*
X90703654Y-83580295D01*
X90703664Y-83568518D01*
X90416696Y-82874002D01*
X90133819Y-82177754D01*
X90121222Y-82158901D01*
X90121050Y-82158485D01*
X90120729Y-82158164D01*
X90104343Y-82133640D01*
X90073286Y-82110637D01*
X89080409Y-81116026D01*
X89062360Y-81091657D01*
X89051510Y-81087076D01*
X89043189Y-81078741D01*
X88349107Y-80790533D01*
X87656829Y-80498264D01*
X87645053Y-80498184D01*
X87634175Y-80493667D01*
X86882648Y-80493011D01*
X86131207Y-80487913D01*
X86120295Y-80492346D01*
X86108518Y-80492336D01*
X85414002Y-80779304D01*
X84717754Y-81062181D01*
X84698901Y-81074778D01*
X84698485Y-81074950D01*
X84698164Y-81075271D01*
X84673640Y-81091657D01*
X84650637Y-81122714D01*
X83656026Y-82115591D01*
X83631657Y-82133640D01*
X83627076Y-82144490D01*
X83618741Y-82152811D01*
X83330533Y-82846893D01*
X83038264Y-83539171D01*
X83038184Y-83550947D01*
X83033667Y-83561825D01*
X83033011Y-84313352D01*
X83027913Y-85064793D01*
X78822078Y-85064793D01*
X78942611Y-84774519D01*
X78942629Y-84754381D01*
X78950026Y-84735654D01*
X78943016Y-84310575D01*
X78943387Y-83885381D01*
X78935697Y-83866770D01*
X78935365Y-83846637D01*
X78623360Y-83093390D01*
X78614155Y-83088580D01*
X78603845Y-83063628D01*
X77975679Y-82434364D01*
X77947943Y-82422847D01*
X77942610Y-82412640D01*
X77547203Y-82256446D01*
X77154519Y-82093389D01*
X77134381Y-82093371D01*
X77115654Y-82085974D01*
X76690575Y-82092984D01*
X76265381Y-82092613D01*
X76246770Y-82100303D01*
X76226637Y-82100635D01*
X75473390Y-82412640D01*
X75468580Y-82421845D01*
X75443628Y-82432155D01*
X74814364Y-83060321D01*
X74802847Y-83088057D01*
X74792640Y-83093390D01*
X74636446Y-83488797D01*
X74473389Y-83881481D01*
X74473371Y-83901619D01*
X74465974Y-83920346D01*
X73315500Y-83920346D01*
X73315500Y-79984793D01*
X126461913Y-79984793D01*
X126466346Y-79995705D01*
X126466336Y-80007482D01*
X126753304Y-80701998D01*
X127036181Y-81398246D01*
X127048778Y-81417099D01*
X127048950Y-81417515D01*
X127049271Y-81417836D01*
X127065657Y-81442360D01*
X127096714Y-81465363D01*
X128089591Y-82459974D01*
X128107640Y-82484343D01*
X128118490Y-82488924D01*
X128126811Y-82497259D01*
X128820893Y-82785467D01*
X129513171Y-83077736D01*
X129524947Y-83077816D01*
X129535825Y-83082333D01*
X130287352Y-83082989D01*
X131038793Y-83088087D01*
X131049705Y-83083654D01*
X131061482Y-83083664D01*
X131755998Y-82796696D01*
X132452246Y-82513819D01*
X132471099Y-82501222D01*
X132471515Y-82501050D01*
X132471836Y-82500729D01*
X132496360Y-82484343D01*
X132519363Y-82453286D01*
X133513974Y-81460409D01*
X133538343Y-81442360D01*
X133542924Y-81431510D01*
X133551259Y-81423189D01*
X133839467Y-80729107D01*
X134123388Y-80056601D01*
X142264530Y-80056601D01*
X142272276Y-80075855D01*
X142272258Y-80096600D01*
X142590062Y-80865743D01*
X142900790Y-81638090D01*
X142922799Y-81671029D01*
X142923236Y-81672086D01*
X142924051Y-81672903D01*
X142950291Y-81712173D01*
X143008274Y-81757273D01*
X144055133Y-82805961D01*
X144093827Y-82855709D01*
X144112915Y-82863845D01*
X144127573Y-82878528D01*
X144896204Y-83197691D01*
X145662011Y-83524087D01*
X145682762Y-83524299D01*
X145701921Y-83532254D01*
X146534105Y-83532980D01*
X147366601Y-83541470D01*
X147385855Y-83533724D01*
X147406600Y-83533742D01*
X148175743Y-83215938D01*
X148948090Y-82905210D01*
X148981029Y-82883201D01*
X148982086Y-82882764D01*
X148982903Y-82881949D01*
X149022173Y-82855709D01*
X149067273Y-82797726D01*
X150115961Y-81750867D01*
X150165709Y-81712173D01*
X150173845Y-81693085D01*
X150188528Y-81678427D01*
X150507691Y-80909796D01*
X150834087Y-80143989D01*
X150834299Y-80123238D01*
X150842254Y-80104079D01*
X150842980Y-79271895D01*
X150851470Y-78439399D01*
X150843724Y-78420145D01*
X150843742Y-78399400D01*
X150525938Y-77630257D01*
X150215210Y-76857910D01*
X150193201Y-76824971D01*
X150192764Y-76823914D01*
X150191949Y-76823097D01*
X150165709Y-76783827D01*
X150107726Y-76738727D01*
X149060867Y-75690039D01*
X149022173Y-75640291D01*
X149003085Y-75632155D01*
X148988427Y-75617472D01*
X148219796Y-75298309D01*
X147453989Y-74971913D01*
X147433238Y-74971701D01*
X147414079Y-74963746D01*
X146581895Y-74963020D01*
X145749399Y-74954530D01*
X145730145Y-74962276D01*
X145709400Y-74962258D01*
X144940257Y-75280062D01*
X144167910Y-75590790D01*
X144134971Y-75612799D01*
X144133914Y-75613236D01*
X144133097Y-75614051D01*
X144093827Y-75640291D01*
X144048727Y-75698274D01*
X143000039Y-76745133D01*
X142950291Y-76783827D01*
X142942155Y-76802915D01*
X142927472Y-76817573D01*
X142608309Y-77586204D01*
X142281913Y-78352011D01*
X142281701Y-78372762D01*
X142273746Y-78391921D01*
X142273020Y-79224105D01*
X142264530Y-80056601D01*
X134123388Y-80056601D01*
X134131736Y-80036829D01*
X134131816Y-80025053D01*
X134136333Y-80014175D01*
X134136989Y-79262648D01*
X134142087Y-78511207D01*
X134137654Y-78500295D01*
X134137664Y-78488518D01*
X133850696Y-77794002D01*
X133567819Y-77097754D01*
X133555222Y-77078901D01*
X133555050Y-77078485D01*
X133554729Y-77078164D01*
X133538343Y-77053640D01*
X133507286Y-77030637D01*
X132514409Y-76036026D01*
X132496360Y-76011657D01*
X132485510Y-76007076D01*
X132477189Y-75998741D01*
X131783107Y-75710533D01*
X131090829Y-75418264D01*
X131079053Y-75418184D01*
X131068175Y-75413667D01*
X130316648Y-75413011D01*
X129565207Y-75407913D01*
X129554295Y-75412346D01*
X129542518Y-75412336D01*
X128848002Y-75699304D01*
X128151754Y-75982181D01*
X128132901Y-75994778D01*
X128132485Y-75994950D01*
X128132164Y-75995271D01*
X128107640Y-76011657D01*
X128084637Y-76042714D01*
X127090026Y-77035591D01*
X127065657Y-77053640D01*
X127061076Y-77064490D01*
X127052741Y-77072811D01*
X126764533Y-77766893D01*
X126472264Y-78459171D01*
X126472184Y-78470947D01*
X126467667Y-78481825D01*
X126467011Y-79233352D01*
X126461913Y-79984793D01*
X73315500Y-79984793D01*
X73315500Y-73760346D01*
X74465974Y-73760346D01*
X74472984Y-74185425D01*
X74472613Y-74610619D01*
X74480303Y-74629230D01*
X74480635Y-74649363D01*
X74792640Y-75402610D01*
X74801845Y-75407420D01*
X74812155Y-75432372D01*
X75440321Y-76061636D01*
X75468057Y-76073153D01*
X75473390Y-76083360D01*
X75868797Y-76239554D01*
X76261481Y-76402611D01*
X76281619Y-76402629D01*
X76300346Y-76410026D01*
X76725425Y-76403016D01*
X77150619Y-76403387D01*
X77169230Y-76395697D01*
X77189363Y-76395365D01*
X77942610Y-76083360D01*
X77947420Y-76074155D01*
X77972372Y-76063845D01*
X78601636Y-75435679D01*
X78613153Y-75407943D01*
X78623360Y-75402610D01*
X78779554Y-75007203D01*
X78822078Y-74904793D01*
X83027913Y-74904793D01*
X83032346Y-74915705D01*
X83032336Y-74927482D01*
X83319304Y-75621998D01*
X83602181Y-76318246D01*
X83614778Y-76337099D01*
X83614950Y-76337515D01*
X83615271Y-76337836D01*
X83631657Y-76362360D01*
X83662714Y-76385363D01*
X84655591Y-77379974D01*
X84673640Y-77404343D01*
X84684490Y-77408924D01*
X84692811Y-77417259D01*
X85386893Y-77705467D01*
X86079171Y-77997736D01*
X86090947Y-77997816D01*
X86101825Y-78002333D01*
X86853352Y-78002989D01*
X87604793Y-78008087D01*
X87615705Y-78003654D01*
X87627482Y-78003664D01*
X88321998Y-77716696D01*
X89018246Y-77433819D01*
X89037099Y-77421222D01*
X89037515Y-77421050D01*
X89037836Y-77420729D01*
X89062360Y-77404343D01*
X89085363Y-77373286D01*
X90079974Y-76380409D01*
X90104343Y-76362360D01*
X90108924Y-76351510D01*
X90117259Y-76343189D01*
X90405467Y-75649107D01*
X90697736Y-74956829D01*
X90697816Y-74945053D01*
X90702333Y-74934175D01*
X90702989Y-74182648D01*
X90705854Y-73760346D01*
X102151974Y-73760346D01*
X102158984Y-74185425D01*
X102158613Y-74610619D01*
X102166303Y-74629230D01*
X102166635Y-74649363D01*
X102478640Y-75402610D01*
X102487845Y-75407420D01*
X102498155Y-75432372D01*
X103126321Y-76061636D01*
X103154057Y-76073153D01*
X103159390Y-76083360D01*
X103554797Y-76239554D01*
X103947481Y-76402611D01*
X103967619Y-76402629D01*
X103986346Y-76410026D01*
X104411425Y-76403016D01*
X104836619Y-76403387D01*
X104855230Y-76395697D01*
X104875363Y-76395365D01*
X105628610Y-76083360D01*
X105633420Y-76074155D01*
X105658372Y-76063845D01*
X106287636Y-75435679D01*
X106299153Y-75407943D01*
X106309360Y-75402610D01*
X106465554Y-75007203D01*
X106508078Y-74904793D01*
X110713913Y-74904793D01*
X110718346Y-74915705D01*
X110718336Y-74927482D01*
X111005304Y-75621998D01*
X111288181Y-76318246D01*
X111300778Y-76337099D01*
X111300950Y-76337515D01*
X111301271Y-76337836D01*
X111317657Y-76362360D01*
X111348714Y-76385363D01*
X112341591Y-77379974D01*
X112359640Y-77404343D01*
X112370490Y-77408924D01*
X112378811Y-77417259D01*
X113072893Y-77705467D01*
X113765171Y-77997736D01*
X113776947Y-77997816D01*
X113787825Y-78002333D01*
X114539352Y-78002989D01*
X115290793Y-78008087D01*
X115301705Y-78003654D01*
X115313482Y-78003664D01*
X116007998Y-77716696D01*
X116704246Y-77433819D01*
X116723099Y-77421222D01*
X116723515Y-77421050D01*
X116723836Y-77420729D01*
X116748360Y-77404343D01*
X116771363Y-77373286D01*
X117765974Y-76380409D01*
X117790343Y-76362360D01*
X117794924Y-76351510D01*
X117803259Y-76343189D01*
X118091467Y-75649107D01*
X118383736Y-74956829D01*
X118383816Y-74945053D01*
X118388333Y-74934175D01*
X118388989Y-74182648D01*
X118394087Y-73431207D01*
X118389654Y-73420295D01*
X118389664Y-73408518D01*
X118102696Y-72714002D01*
X117819819Y-72017754D01*
X117807222Y-71998901D01*
X117807050Y-71998485D01*
X117806729Y-71998164D01*
X117790343Y-71973640D01*
X117759286Y-71950637D01*
X116766409Y-70956026D01*
X116748360Y-70931657D01*
X116737510Y-70927076D01*
X116729189Y-70918741D01*
X116035107Y-70630533D01*
X115342829Y-70338264D01*
X115331053Y-70338184D01*
X115320175Y-70333667D01*
X114568648Y-70333011D01*
X113817207Y-70327913D01*
X113806295Y-70332346D01*
X113794518Y-70332336D01*
X113100002Y-70619304D01*
X112403754Y-70902181D01*
X112384901Y-70914778D01*
X112384485Y-70914950D01*
X112384164Y-70915271D01*
X112359640Y-70931657D01*
X112336637Y-70962714D01*
X111342026Y-71955591D01*
X111317657Y-71973640D01*
X111313076Y-71984490D01*
X111304741Y-71992811D01*
X111016533Y-72686893D01*
X110724264Y-73379171D01*
X110724184Y-73390947D01*
X110719667Y-73401825D01*
X110719011Y-74153352D01*
X110713913Y-74904793D01*
X106508078Y-74904793D01*
X106628611Y-74614519D01*
X106628629Y-74594381D01*
X106636026Y-74575654D01*
X106629016Y-74150575D01*
X106629387Y-73725381D01*
X106621697Y-73706770D01*
X106621365Y-73686637D01*
X106309360Y-72933390D01*
X106300155Y-72928580D01*
X106289845Y-72903628D01*
X105661679Y-72274364D01*
X105633943Y-72262847D01*
X105628610Y-72252640D01*
X105233203Y-72096446D01*
X104840519Y-71933389D01*
X104820381Y-71933371D01*
X104801654Y-71925974D01*
X104376575Y-71932984D01*
X103951381Y-71932613D01*
X103932770Y-71940303D01*
X103912637Y-71940635D01*
X103159390Y-72252640D01*
X103154580Y-72261845D01*
X103129628Y-72272155D01*
X102500364Y-72900321D01*
X102488847Y-72928057D01*
X102478640Y-72933390D01*
X102322446Y-73328797D01*
X102159389Y-73721481D01*
X102159371Y-73741619D01*
X102151974Y-73760346D01*
X90705854Y-73760346D01*
X90708087Y-73431207D01*
X90703654Y-73420295D01*
X90703664Y-73408518D01*
X90416696Y-72714002D01*
X90133819Y-72017754D01*
X90121222Y-71998901D01*
X90121050Y-71998485D01*
X90120729Y-71998164D01*
X90104343Y-71973640D01*
X90073286Y-71950637D01*
X89080409Y-70956026D01*
X89062360Y-70931657D01*
X89051510Y-70927076D01*
X89043189Y-70918741D01*
X88349107Y-70630533D01*
X87656829Y-70338264D01*
X87645053Y-70338184D01*
X87634175Y-70333667D01*
X86882648Y-70333011D01*
X86131207Y-70327913D01*
X86120295Y-70332346D01*
X86108518Y-70332336D01*
X85414002Y-70619304D01*
X84717754Y-70902181D01*
X84698901Y-70914778D01*
X84698485Y-70914950D01*
X84698164Y-70915271D01*
X84673640Y-70931657D01*
X84650637Y-70962714D01*
X83656026Y-71955591D01*
X83631657Y-71973640D01*
X83627076Y-71984490D01*
X83618741Y-71992811D01*
X83330533Y-72686893D01*
X83038264Y-73379171D01*
X83038184Y-73390947D01*
X83033667Y-73401825D01*
X83033011Y-74153352D01*
X83027913Y-74904793D01*
X78822078Y-74904793D01*
X78942611Y-74614519D01*
X78942629Y-74594381D01*
X78950026Y-74575654D01*
X78943016Y-74150575D01*
X78943387Y-73725381D01*
X78935697Y-73706770D01*
X78935365Y-73686637D01*
X78623360Y-72933390D01*
X78614155Y-72928580D01*
X78603845Y-72903628D01*
X77975679Y-72274364D01*
X77947943Y-72262847D01*
X77942610Y-72252640D01*
X77547203Y-72096446D01*
X77154519Y-71933389D01*
X77134381Y-71933371D01*
X77115654Y-71925974D01*
X76690575Y-71932984D01*
X76265381Y-71932613D01*
X76246770Y-71940303D01*
X76226637Y-71940635D01*
X75473390Y-72252640D01*
X75468580Y-72261845D01*
X75443628Y-72272155D01*
X74814364Y-72900321D01*
X74802847Y-72928057D01*
X74792640Y-72933390D01*
X74636446Y-73328797D01*
X74473389Y-73721481D01*
X74473371Y-73741619D01*
X74465974Y-73760346D01*
X73315500Y-73760346D01*
X73315500Y-63600346D01*
X74465974Y-63600346D01*
X74472984Y-64025425D01*
X74472613Y-64450619D01*
X74480303Y-64469230D01*
X74480635Y-64489363D01*
X74792640Y-65242610D01*
X74801845Y-65247420D01*
X74812155Y-65272372D01*
X75440321Y-65901636D01*
X75468057Y-65913153D01*
X75473390Y-65923360D01*
X75868797Y-66079554D01*
X76261481Y-66242611D01*
X76281619Y-66242629D01*
X76300346Y-66250026D01*
X76725425Y-66243016D01*
X77150619Y-66243387D01*
X77169230Y-66235697D01*
X77189363Y-66235365D01*
X77942610Y-65923360D01*
X77947420Y-65914155D01*
X77972372Y-65903845D01*
X78601636Y-65275679D01*
X78613153Y-65247943D01*
X78623360Y-65242610D01*
X78779554Y-64847203D01*
X78822078Y-64744793D01*
X83027913Y-64744793D01*
X83032346Y-64755705D01*
X83032336Y-64767482D01*
X83319304Y-65461998D01*
X83602181Y-66158246D01*
X83614778Y-66177099D01*
X83614950Y-66177515D01*
X83615271Y-66177836D01*
X83631657Y-66202360D01*
X83662714Y-66225363D01*
X84655591Y-67219974D01*
X84673640Y-67244343D01*
X84684490Y-67248924D01*
X84692811Y-67257259D01*
X85386893Y-67545467D01*
X86079171Y-67837736D01*
X86090947Y-67837816D01*
X86101825Y-67842333D01*
X86853352Y-67842989D01*
X87604793Y-67848087D01*
X87615705Y-67843654D01*
X87627482Y-67843664D01*
X88321998Y-67556696D01*
X89018246Y-67273819D01*
X89037099Y-67261222D01*
X89037515Y-67261050D01*
X89037836Y-67260729D01*
X89062360Y-67244343D01*
X89085363Y-67213286D01*
X90079974Y-66220409D01*
X90104343Y-66202360D01*
X90108924Y-66191510D01*
X90117259Y-66183189D01*
X90405467Y-65489107D01*
X90697736Y-64796829D01*
X90697816Y-64785053D01*
X90702333Y-64774175D01*
X90702989Y-64022648D01*
X90705854Y-63600346D01*
X102151974Y-63600346D01*
X102158984Y-64025425D01*
X102158613Y-64450619D01*
X102166303Y-64469230D01*
X102166635Y-64489363D01*
X102478640Y-65242610D01*
X102487845Y-65247420D01*
X102498155Y-65272372D01*
X103126321Y-65901636D01*
X103154057Y-65913153D01*
X103159390Y-65923360D01*
X103554797Y-66079554D01*
X103947481Y-66242611D01*
X103967619Y-66242629D01*
X103986346Y-66250026D01*
X104411425Y-66243016D01*
X104836619Y-66243387D01*
X104855230Y-66235697D01*
X104875363Y-66235365D01*
X105628610Y-65923360D01*
X105633420Y-65914155D01*
X105658372Y-65903845D01*
X106287636Y-65275679D01*
X106299153Y-65247943D01*
X106309360Y-65242610D01*
X106465554Y-64847203D01*
X106508078Y-64744793D01*
X110713913Y-64744793D01*
X110718346Y-64755705D01*
X110718336Y-64767482D01*
X111005304Y-65461998D01*
X111288181Y-66158246D01*
X111300778Y-66177099D01*
X111300950Y-66177515D01*
X111301271Y-66177836D01*
X111317657Y-66202360D01*
X111348714Y-66225363D01*
X112341591Y-67219974D01*
X112359640Y-67244343D01*
X112370490Y-67248924D01*
X112378811Y-67257259D01*
X113072893Y-67545467D01*
X113765171Y-67837736D01*
X113776947Y-67837816D01*
X113787825Y-67842333D01*
X114539352Y-67842989D01*
X115290793Y-67848087D01*
X115301705Y-67843654D01*
X115313482Y-67843664D01*
X116007998Y-67556696D01*
X116704246Y-67273819D01*
X116723099Y-67261222D01*
X116723515Y-67261050D01*
X116723836Y-67260729D01*
X116748360Y-67244343D01*
X116771363Y-67213286D01*
X117765974Y-66220409D01*
X117790343Y-66202360D01*
X117794924Y-66191510D01*
X117803259Y-66183189D01*
X118091467Y-65489107D01*
X118383736Y-64796829D01*
X118383816Y-64785053D01*
X118388333Y-64774175D01*
X118388739Y-64308601D01*
X125932330Y-64308601D01*
X125940076Y-64327855D01*
X125940058Y-64348600D01*
X126257862Y-65117743D01*
X126568590Y-65890090D01*
X126590599Y-65923029D01*
X126591036Y-65924086D01*
X126591851Y-65924903D01*
X126618091Y-65964173D01*
X126676074Y-66009273D01*
X127722933Y-67057961D01*
X127761627Y-67107709D01*
X127780715Y-67115845D01*
X127795373Y-67130528D01*
X128564004Y-67449691D01*
X129329811Y-67776087D01*
X129350562Y-67776299D01*
X129369721Y-67784254D01*
X130201905Y-67784980D01*
X131034401Y-67793470D01*
X131053655Y-67785724D01*
X131074400Y-67785742D01*
X131843543Y-67467938D01*
X132615890Y-67157210D01*
X132648829Y-67135201D01*
X132649886Y-67134764D01*
X132650703Y-67133949D01*
X132689973Y-67107709D01*
X132735073Y-67049726D01*
X133783761Y-66002867D01*
X133833509Y-65964173D01*
X133841645Y-65945085D01*
X133856328Y-65930427D01*
X134175491Y-65161796D01*
X134501887Y-64395989D01*
X134502099Y-64375238D01*
X134510054Y-64356079D01*
X134510780Y-63523895D01*
X134519270Y-62691399D01*
X134511524Y-62672145D01*
X134511542Y-62651400D01*
X134193738Y-61882257D01*
X133883010Y-61109910D01*
X133861001Y-61076971D01*
X133860564Y-61075914D01*
X133859749Y-61075097D01*
X133833509Y-61035827D01*
X133775526Y-60990727D01*
X132728667Y-59942039D01*
X132689973Y-59892291D01*
X132670885Y-59884155D01*
X132656227Y-59869472D01*
X131887596Y-59550309D01*
X131121789Y-59223913D01*
X131101038Y-59223701D01*
X131081879Y-59215746D01*
X130249695Y-59215020D01*
X129417199Y-59206530D01*
X129397945Y-59214276D01*
X129377200Y-59214258D01*
X128608057Y-59532062D01*
X127835710Y-59842790D01*
X127802771Y-59864799D01*
X127801714Y-59865236D01*
X127800897Y-59866051D01*
X127761627Y-59892291D01*
X127716527Y-59950274D01*
X126667839Y-60997133D01*
X126618091Y-61035827D01*
X126609955Y-61054915D01*
X126595272Y-61069573D01*
X126276109Y-61838204D01*
X125949713Y-62604011D01*
X125949501Y-62624762D01*
X125941546Y-62643921D01*
X125940820Y-63476105D01*
X125932330Y-64308601D01*
X118388739Y-64308601D01*
X118388989Y-64022648D01*
X118394087Y-63271207D01*
X118389654Y-63260295D01*
X118389664Y-63248518D01*
X118102696Y-62554002D01*
X117819819Y-61857754D01*
X117807222Y-61838901D01*
X117807050Y-61838485D01*
X117806729Y-61838164D01*
X117790343Y-61813640D01*
X117759286Y-61790637D01*
X116766409Y-60796026D01*
X116748360Y-60771657D01*
X116737510Y-60767076D01*
X116729189Y-60758741D01*
X116035107Y-60470533D01*
X115342829Y-60178264D01*
X115331053Y-60178184D01*
X115320175Y-60173667D01*
X114568648Y-60173011D01*
X113817207Y-60167913D01*
X113806295Y-60172346D01*
X113794518Y-60172336D01*
X113100002Y-60459304D01*
X112403754Y-60742181D01*
X112384901Y-60754778D01*
X112384485Y-60754950D01*
X112384164Y-60755271D01*
X112359640Y-60771657D01*
X112336637Y-60802714D01*
X111342026Y-61795591D01*
X111317657Y-61813640D01*
X111313076Y-61824490D01*
X111304741Y-61832811D01*
X111016533Y-62526893D01*
X110724264Y-63219171D01*
X110724184Y-63230947D01*
X110719667Y-63241825D01*
X110719011Y-63993352D01*
X110713913Y-64744793D01*
X106508078Y-64744793D01*
X106628611Y-64454519D01*
X106628629Y-64434381D01*
X106636026Y-64415654D01*
X106629016Y-63990575D01*
X106629387Y-63565381D01*
X106621697Y-63546770D01*
X106621365Y-63526637D01*
X106309360Y-62773390D01*
X106300155Y-62768580D01*
X106289845Y-62743628D01*
X105661679Y-62114364D01*
X105633943Y-62102847D01*
X105628610Y-62092640D01*
X105233203Y-61936446D01*
X104840519Y-61773389D01*
X104820381Y-61773371D01*
X104801654Y-61765974D01*
X104376575Y-61772984D01*
X103951381Y-61772613D01*
X103932770Y-61780303D01*
X103912637Y-61780635D01*
X103159390Y-62092640D01*
X103154580Y-62101845D01*
X103129628Y-62112155D01*
X102500364Y-62740321D01*
X102488847Y-62768057D01*
X102478640Y-62773390D01*
X102322446Y-63168797D01*
X102159389Y-63561481D01*
X102159371Y-63581619D01*
X102151974Y-63600346D01*
X90705854Y-63600346D01*
X90708087Y-63271207D01*
X90703654Y-63260295D01*
X90703664Y-63248518D01*
X90416696Y-62554002D01*
X90133819Y-61857754D01*
X90121222Y-61838901D01*
X90121050Y-61838485D01*
X90120729Y-61838164D01*
X90104343Y-61813640D01*
X90073286Y-61790637D01*
X89080409Y-60796026D01*
X89062360Y-60771657D01*
X89051510Y-60767076D01*
X89043189Y-60758741D01*
X88349107Y-60470533D01*
X87656829Y-60178264D01*
X87645053Y-60178184D01*
X87634175Y-60173667D01*
X86882648Y-60173011D01*
X86131207Y-60167913D01*
X86120295Y-60172346D01*
X86108518Y-60172336D01*
X85414002Y-60459304D01*
X84717754Y-60742181D01*
X84698901Y-60754778D01*
X84698485Y-60754950D01*
X84698164Y-60755271D01*
X84673640Y-60771657D01*
X84650637Y-60802714D01*
X83656026Y-61795591D01*
X83631657Y-61813640D01*
X83627076Y-61824490D01*
X83618741Y-61832811D01*
X83330533Y-62526893D01*
X83038264Y-63219171D01*
X83038184Y-63230947D01*
X83033667Y-63241825D01*
X83033011Y-63993352D01*
X83027913Y-64744793D01*
X78822078Y-64744793D01*
X78942611Y-64454519D01*
X78942629Y-64434381D01*
X78950026Y-64415654D01*
X78943016Y-63990575D01*
X78943387Y-63565381D01*
X78935697Y-63546770D01*
X78935365Y-63526637D01*
X78623360Y-62773390D01*
X78614155Y-62768580D01*
X78603845Y-62743628D01*
X77975679Y-62114364D01*
X77947943Y-62102847D01*
X77942610Y-62092640D01*
X77547203Y-61936446D01*
X77154519Y-61773389D01*
X77134381Y-61773371D01*
X77115654Y-61765974D01*
X76690575Y-61772984D01*
X76265381Y-61772613D01*
X76246770Y-61780303D01*
X76226637Y-61780635D01*
X75473390Y-62092640D01*
X75468580Y-62101845D01*
X75443628Y-62112155D01*
X74814364Y-62740321D01*
X74802847Y-62768057D01*
X74792640Y-62773390D01*
X74636446Y-63168797D01*
X74473389Y-63561481D01*
X74473371Y-63581619D01*
X74465974Y-63600346D01*
X73315500Y-63600346D01*
X73315500Y-43812187D01*
X76597277Y-43812187D01*
X76604982Y-44215454D01*
X76604630Y-44618815D01*
X76613080Y-44639266D01*
X76613503Y-44661387D01*
X76907261Y-45370582D01*
X76917343Y-45375635D01*
X76928980Y-45403800D01*
X77529041Y-46004909D01*
X77559895Y-46017721D01*
X77565418Y-46028739D01*
X77940954Y-46175950D01*
X78313459Y-46330628D01*
X78335586Y-46330647D01*
X78356187Y-46338723D01*
X78759454Y-46331018D01*
X79162815Y-46331370D01*
X79183266Y-46322920D01*
X79205387Y-46322497D01*
X79512010Y-46195490D01*
X79837459Y-46330628D01*
X79859586Y-46330647D01*
X79880187Y-46338723D01*
X80283454Y-46331018D01*
X80686815Y-46331370D01*
X80707266Y-46322920D01*
X80729387Y-46322497D01*
X81036010Y-46195490D01*
X81361459Y-46330628D01*
X81383586Y-46330647D01*
X81404187Y-46338723D01*
X81807454Y-46331018D01*
X82210815Y-46331370D01*
X82231266Y-46322920D01*
X82253387Y-46322497D01*
X82962582Y-46028739D01*
X82967635Y-46018657D01*
X82995800Y-46007020D01*
X83596909Y-45406959D01*
X83609721Y-45376105D01*
X83620739Y-45370582D01*
X83767950Y-44995046D01*
X83922628Y-44622541D01*
X83922647Y-44600414D01*
X83930723Y-44579813D01*
X83923018Y-44176546D01*
X83923335Y-43812187D01*
X141113277Y-43812187D01*
X141120982Y-44215454D01*
X141120630Y-44618815D01*
X141129080Y-44639266D01*
X141129503Y-44661387D01*
X141423261Y-45370582D01*
X141433343Y-45375635D01*
X141444980Y-45403800D01*
X142045041Y-46004909D01*
X142075895Y-46017721D01*
X142081418Y-46028739D01*
X142456954Y-46175950D01*
X142829459Y-46330628D01*
X142851586Y-46330647D01*
X142872187Y-46338723D01*
X143275454Y-46331018D01*
X143678815Y-46331370D01*
X143699266Y-46322920D01*
X143721387Y-46322497D01*
X144028010Y-46195490D01*
X144353459Y-46330628D01*
X144375586Y-46330647D01*
X144396187Y-46338723D01*
X144799454Y-46331018D01*
X145202815Y-46331370D01*
X145223266Y-46322920D01*
X145245387Y-46322497D01*
X145552010Y-46195490D01*
X145877459Y-46330628D01*
X145899586Y-46330647D01*
X145920187Y-46338723D01*
X146323454Y-46331018D01*
X146726815Y-46331370D01*
X146747266Y-46322920D01*
X146769387Y-46322497D01*
X147478582Y-46028739D01*
X147483635Y-46018657D01*
X147511800Y-46007020D01*
X148112909Y-45406959D01*
X148125721Y-45376105D01*
X148136739Y-45370582D01*
X148283950Y-44995046D01*
X148438628Y-44622541D01*
X148438647Y-44600414D01*
X148446723Y-44579813D01*
X148439018Y-44176546D01*
X148439370Y-43773185D01*
X148430920Y-43752734D01*
X148430497Y-43730613D01*
X148136739Y-43021418D01*
X148126657Y-43016365D01*
X148115020Y-42988200D01*
X147514959Y-42387091D01*
X147484105Y-42374279D01*
X147478582Y-42363261D01*
X147103046Y-42216050D01*
X146730541Y-42061372D01*
X146708414Y-42061353D01*
X146687813Y-42053277D01*
X146284546Y-42060982D01*
X145881185Y-42060630D01*
X145860734Y-42069080D01*
X145838613Y-42069503D01*
X145531990Y-42196510D01*
X145206541Y-42061372D01*
X145184414Y-42061353D01*
X145163813Y-42053277D01*
X144760546Y-42060982D01*
X144357185Y-42060630D01*
X144336734Y-42069080D01*
X144314613Y-42069503D01*
X144007990Y-42196510D01*
X143682541Y-42061372D01*
X143660414Y-42061353D01*
X143639813Y-42053277D01*
X143236546Y-42060982D01*
X142833185Y-42060630D01*
X142812734Y-42069080D01*
X142790613Y-42069503D01*
X142081418Y-42363261D01*
X142076365Y-42373343D01*
X142048200Y-42384980D01*
X141447091Y-42985041D01*
X141434279Y-43015895D01*
X141423261Y-43021418D01*
X141276050Y-43396954D01*
X141121372Y-43769459D01*
X141121353Y-43791586D01*
X141113277Y-43812187D01*
X83923335Y-43812187D01*
X83923370Y-43773185D01*
X83914920Y-43752734D01*
X83914497Y-43730613D01*
X83620739Y-43021418D01*
X83610657Y-43016365D01*
X83599020Y-42988200D01*
X82998959Y-42387091D01*
X82968105Y-42374279D01*
X82962582Y-42363261D01*
X82587046Y-42216050D01*
X82214541Y-42061372D01*
X82192414Y-42061353D01*
X82171813Y-42053277D01*
X81768546Y-42060982D01*
X81365185Y-42060630D01*
X81344734Y-42069080D01*
X81322613Y-42069503D01*
X81015990Y-42196510D01*
X80690541Y-42061372D01*
X80668414Y-42061353D01*
X80647813Y-42053277D01*
X80244546Y-42060982D01*
X79841185Y-42060630D01*
X79820734Y-42069080D01*
X79798613Y-42069503D01*
X79491990Y-42196510D01*
X79166541Y-42061372D01*
X79144414Y-42061353D01*
X79123813Y-42053277D01*
X78720546Y-42060982D01*
X78317185Y-42060630D01*
X78296734Y-42069080D01*
X78274613Y-42069503D01*
X77565418Y-42363261D01*
X77560365Y-42373343D01*
X77532200Y-42384980D01*
X76931091Y-42985041D01*
X76918279Y-43015895D01*
X76907261Y-43021418D01*
X76760050Y-43396954D01*
X76605372Y-43769459D01*
X76605353Y-43791586D01*
X76597277Y-43812187D01*
X73315500Y-43812187D01*
X73315500Y-41946500D01*
X153125500Y-41946500D01*
X153125500Y-168937000D01*
G36*
X131935377Y-132708679D02*
X133320087Y-133633913D01*
X134245321Y-135018623D01*
X134570220Y-136652000D01*
X134245321Y-138285377D01*
X133320087Y-139670087D01*
X131935377Y-140595321D01*
X130302000Y-140920220D01*
X128668623Y-140595321D01*
X127283913Y-139670087D01*
X126358679Y-138285377D01*
X126033780Y-136652000D01*
X126358679Y-135018623D01*
X127283913Y-133633913D01*
X128668623Y-132708679D01*
X130302000Y-132383780D01*
X131935377Y-132708679D01*
X131935377Y-132708679D01*
G37*
X131935377Y-132708679D02*
X133320087Y-133633913D01*
X134245321Y-135018623D01*
X134570220Y-136652000D01*
X134245321Y-138285377D01*
X133320087Y-139670087D01*
X131935377Y-140595321D01*
X130302000Y-140920220D01*
X128668623Y-140595321D01*
X127283913Y-139670087D01*
X126358679Y-138285377D01*
X126033780Y-136652000D01*
X126358679Y-135018623D01*
X127283913Y-133633913D01*
X128668623Y-132708679D01*
X130302000Y-132383780D01*
X131935377Y-132708679D01*
M02*
