M48
INCH,TZ
T1C0.1260
T2C0.2165
T3C0.2520
T4C0.2874
T5C0.3937
%
G90
G05
T1
X40771Y-20398
X40771Y-24398
X40771Y-28398
X40771Y-32398
X40771Y-36398
X40771Y-40398
X40771Y-44398
X40771Y-48398
X51671Y-20398
X51671Y-24398
X51671Y-28398
X51671Y-32398
X51671Y-36398
X51671Y-40398
X51671Y-44398
X51671Y-48398
T2
X44771Y-20398
X44771Y-24398
X44771Y-28398
X44771Y-32398
X44771Y-36398
X44771Y-40398
X44771Y-44398
X44771Y-48398
X55671Y-20398
X55671Y-24398
X55671Y-28398
X55671Y-32398
X55671Y-36398
X55671Y-40398
X55671Y-44398
X55671Y-48398
X62663Y-38249
X62663Y-43649
X66158Y-33198
T3
X44761Y-54398
X55671Y-54398
X62663Y-54399
X69653Y-38249
X69653Y-43649
X69653Y-49049
X69653Y-54399
T4
X62663Y-20249
X62663Y-27749
X69653Y-20249
X69653Y-27749
T5
X62663Y-49049
T1
G00X41538Y-60820
M15
G01X42837Y-60820
M16
G05
G00X41539Y-12604
M15
G01X42838Y-12604
M16
G05
G00X71577Y-12604
M15
G01X72877Y-12604
M16
G05
G00X71577Y-60818
M15
G01X72877Y-60818
M16
G05
T0
M30
