M48
; DRILL file {KiCad (5.1.0-0)} date Friday, October 11, 2019 at 10:51:41 AM
; FORMAT={-:-/ absolute / inch / decimal}
; #@! TF.CreationDate,2019-10-11T10:51:41-05:00
; #@! TF.GenerationSoftware,Kicad,Pcbnew,(5.1.0-0)
; #@! TF.FileFunction,NonPlated,1,2,NPTH
FMAT,2
INCH
T1C0.1260
T2C0.2165
T3C0.2520
T4C0.2874
T5C0.3937
%
G90
G05
T1
X3.017Y-4.12
X4.107Y-2.52
X3.017Y-4.52
X3.017Y-3.72
X3.017Y-2.52
X4.107Y-3.32
X3.017Y-2.92
X4.107Y-4.92
X3.017Y-5.32
X4.107Y-4.52
X4.107Y-3.72
X4.107Y-4.12
X4.107Y-5.32
X3.017Y-4.92
X4.107Y-2.92
X3.017Y-3.32
T2
X3.417Y-4.92
X4.507Y-3.72
X4.507Y-2.52
X4.507Y-4.12
X4.507Y-2.92
X4.507Y-5.32
X4.507Y-4.52
X3.417Y-4.12
X3.417Y-3.32
X3.417Y-3.72
X3.417Y-2.52
X5.13Y-4.84
X3.417Y-2.92
X5.45Y-3.8
X5.13Y-4.3
X4.507Y-4.92
X4.507Y-3.32
X3.417Y-4.52
X3.417Y-5.32
T3
X3.416Y-5.92
X5.77Y-5.915
X5.77Y-4.84
X5.77Y-4.3
X5.77Y-5.38
X5.13Y-5.915
X4.507Y-5.92
T4
X5.13Y-2.5
X5.13Y-3.25
X5.77Y-2.499
X5.77Y-3.25
T5
X5.13Y-5.38
T1
G00X5.687Y-1.7406
M15
G01X5.8169Y-1.7406
M16
G05
G00X3.0744Y-1.7409
M15
G01X3.2043Y-1.7409
M16
G05
G00X3.0933Y-6.5622
M15
G01X3.2232Y-6.5622
M16
G05
G00X5.6874Y-6.5618
M15
G01X5.8173Y-6.5618
M16
G05
T0
M30
