G04 #@! TF.GenerationSoftware,KiCad,Pcbnew,(5.0.0-rc2-24-g81af2db)*
G04 #@! TF.CreationDate,2019-03-24T02:10:34-05:00*
G04 #@! TF.ProjectId,trigger-seq-panel,747269676765722D7365712D70616E65,rev?*
G04 #@! TF.SameCoordinates,Original*
G04 #@! TF.FileFunction,Legend,Top*
G04 #@! TF.FilePolarity,Positive*
%FSLAX46Y46*%
G04 Gerber Fmt 4.6, Leading zero omitted, Abs format (unit mm)*
G04 Created by KiCad (PCBNEW (5.0.0-rc2-24-g81af2db)) date Sunday, March 24, 2019 at 02:10:34 AM*
%MOMM*%
%LPD*%
G01*
G04 APERTURE LIST*
%ADD10C,0.300000*%
%ADD11C,0.152400*%
%ADD12C,0.150000*%
%ADD13C,0.010000*%
%ADD14C,0.120000*%
G04 APERTURE END LIST*
D10*
X98898571Y-99010714D02*
X98112857Y-99010714D01*
X97970000Y-99082142D01*
X97898571Y-99225000D01*
X97898571Y-99510714D01*
X97970000Y-99653571D01*
X98827142Y-99010714D02*
X98898571Y-99153571D01*
X98898571Y-99510714D01*
X98827142Y-99653571D01*
X98684285Y-99725000D01*
X98541428Y-99725000D01*
X98398571Y-99653571D01*
X98327142Y-99510714D01*
X98327142Y-99153571D01*
X98255714Y-99010714D01*
X98898571Y-98082142D02*
X98827142Y-98225000D01*
X98684285Y-98296428D01*
X97398571Y-98296428D01*
X98898571Y-97296428D02*
X98827142Y-97439285D01*
X98684285Y-97510714D01*
X97398571Y-97510714D01*
X98898571Y-94939285D02*
X97398571Y-94939285D01*
X98827142Y-94939285D02*
X98898571Y-95082142D01*
X98898571Y-95367857D01*
X98827142Y-95510714D01*
X98755714Y-95582142D01*
X98612857Y-95653571D01*
X98184285Y-95653571D01*
X98041428Y-95582142D01*
X97970000Y-95510714D01*
X97898571Y-95367857D01*
X97898571Y-95082142D01*
X97970000Y-94939285D01*
X98898571Y-94225000D02*
X97898571Y-94225000D01*
X97398571Y-94225000D02*
X97470000Y-94296428D01*
X97541428Y-94225000D01*
X97470000Y-94153571D01*
X97398571Y-94225000D01*
X97541428Y-94225000D01*
X98898571Y-93296428D02*
X98827142Y-93439285D01*
X98755714Y-93510714D01*
X98612857Y-93582142D01*
X98184285Y-93582142D01*
X98041428Y-93510714D01*
X97970000Y-93439285D01*
X97898571Y-93296428D01*
X97898571Y-93082142D01*
X97970000Y-92939285D01*
X98041428Y-92867857D01*
X98184285Y-92796428D01*
X98612857Y-92796428D01*
X98755714Y-92867857D01*
X98827142Y-92939285D01*
X98898571Y-93082142D01*
X98898571Y-93296428D01*
X98898571Y-91510714D02*
X97398571Y-91510714D01*
X98827142Y-91510714D02*
X98898571Y-91653571D01*
X98898571Y-91939285D01*
X98827142Y-92082142D01*
X98755714Y-92153571D01*
X98612857Y-92225000D01*
X98184285Y-92225000D01*
X98041428Y-92153571D01*
X97970000Y-92082142D01*
X97898571Y-91939285D01*
X97898571Y-91653571D01*
X97970000Y-91510714D01*
X98827142Y-90225000D02*
X98898571Y-90367857D01*
X98898571Y-90653571D01*
X98827142Y-90796428D01*
X98684285Y-90867857D01*
X98112857Y-90867857D01*
X97970000Y-90796428D01*
X97898571Y-90653571D01*
X97898571Y-90367857D01*
X97970000Y-90225000D01*
X98112857Y-90153571D01*
X98255714Y-90153571D01*
X98398571Y-90867857D01*
X98827142Y-89582142D02*
X98898571Y-89439285D01*
X98898571Y-89153571D01*
X98827142Y-89010714D01*
X98684285Y-88939285D01*
X98612857Y-88939285D01*
X98470000Y-89010714D01*
X98398571Y-89153571D01*
X98398571Y-89367857D01*
X98327142Y-89510714D01*
X98184285Y-89582142D01*
X98112857Y-89582142D01*
X97970000Y-89510714D01*
X97898571Y-89367857D01*
X97898571Y-89153571D01*
X97970000Y-89010714D01*
X98898571Y-86367857D02*
X98898571Y-87225000D01*
X98898571Y-86796428D02*
X97398571Y-86796428D01*
X97612857Y-86939285D01*
X97755714Y-87082142D01*
X97827142Y-87225000D01*
X98898571Y-85725000D02*
X97398571Y-85725000D01*
X98898571Y-84867857D01*
X97398571Y-84867857D01*
X97898571Y-83510714D02*
X98898571Y-83510714D01*
X97327142Y-83867857D02*
X98398571Y-84225000D01*
X98398571Y-83296428D01*
X98898571Y-81939285D02*
X98898571Y-82796428D01*
X98898571Y-82367857D02*
X97398571Y-82367857D01*
X97612857Y-82510714D01*
X97755714Y-82653571D01*
X97827142Y-82796428D01*
X97898571Y-80653571D02*
X98898571Y-80653571D01*
X97327142Y-81010714D02*
X98398571Y-81367857D01*
X98398571Y-80439285D01*
X98041428Y-79653571D02*
X97970000Y-79796428D01*
X97898571Y-79867857D01*
X97755714Y-79939285D01*
X97684285Y-79939285D01*
X97541428Y-79867857D01*
X97470000Y-79796428D01*
X97398571Y-79653571D01*
X97398571Y-79367857D01*
X97470000Y-79225000D01*
X97541428Y-79153571D01*
X97684285Y-79082142D01*
X97755714Y-79082142D01*
X97898571Y-79153571D01*
X97970000Y-79225000D01*
X98041428Y-79367857D01*
X98041428Y-79653571D01*
X98112857Y-79796428D01*
X98184285Y-79867857D01*
X98327142Y-79939285D01*
X98612857Y-79939285D01*
X98755714Y-79867857D01*
X98827142Y-79796428D01*
X98898571Y-79653571D01*
X98898571Y-79367857D01*
X98827142Y-79225000D01*
X98755714Y-79153571D01*
X98612857Y-79082142D01*
X98327142Y-79082142D01*
X98184285Y-79153571D01*
X98112857Y-79225000D01*
X98041428Y-79367857D01*
X97327142Y-77367857D02*
X99255714Y-78653571D01*
X98898571Y-76082142D02*
X98898571Y-76939285D01*
X98898571Y-76510714D02*
X97398571Y-76510714D01*
X97612857Y-76653571D01*
X97755714Y-76796428D01*
X97827142Y-76939285D01*
X98898571Y-75439285D02*
X97398571Y-75439285D01*
X98898571Y-74582142D01*
X97398571Y-74582142D01*
X98898571Y-73796428D02*
X98898571Y-73510714D01*
X98827142Y-73367857D01*
X98755714Y-73296428D01*
X98541428Y-73153571D01*
X98255714Y-73082142D01*
X97684285Y-73082142D01*
X97541428Y-73153571D01*
X97470000Y-73225000D01*
X97398571Y-73367857D01*
X97398571Y-73653571D01*
X97470000Y-73796428D01*
X97541428Y-73867857D01*
X97684285Y-73939285D01*
X98041428Y-73939285D01*
X98184285Y-73867857D01*
X98255714Y-73796428D01*
X98327142Y-73653571D01*
X98327142Y-73367857D01*
X98255714Y-73225000D01*
X98184285Y-73153571D01*
X98041428Y-73082142D01*
X98898571Y-71653571D02*
X98898571Y-72510714D01*
X98898571Y-72082142D02*
X97398571Y-72082142D01*
X97612857Y-72225000D01*
X97755714Y-72367857D01*
X97827142Y-72510714D01*
X97898571Y-70367857D02*
X98898571Y-70367857D01*
X97327142Y-70725000D02*
X98398571Y-71082142D01*
X98398571Y-70153571D01*
D11*
X79946500Y-54288266D02*
X79946500Y-53399266D01*
X79946500Y-53822600D02*
X80454500Y-53822600D01*
X80454500Y-54288266D02*
X80454500Y-53399266D01*
X81004833Y-54288266D02*
X80920166Y-54245933D01*
X80877833Y-54203600D01*
X80835500Y-54118933D01*
X80835500Y-53864933D01*
X80877833Y-53780266D01*
X80920166Y-53737933D01*
X81004833Y-53695600D01*
X81131833Y-53695600D01*
X81216500Y-53737933D01*
X81258833Y-53780266D01*
X81301166Y-53864933D01*
X81301166Y-54118933D01*
X81258833Y-54203600D01*
X81216500Y-54245933D01*
X81131833Y-54288266D01*
X81004833Y-54288266D01*
X81809166Y-54288266D02*
X81724500Y-54245933D01*
X81682166Y-54203600D01*
X81639833Y-54118933D01*
X81639833Y-53864933D01*
X81682166Y-53780266D01*
X81724500Y-53737933D01*
X81809166Y-53695600D01*
X81936166Y-53695600D01*
X82020833Y-53737933D01*
X82063166Y-53780266D01*
X82105500Y-53864933D01*
X82105500Y-54118933D01*
X82063166Y-54203600D01*
X82020833Y-54245933D01*
X81936166Y-54288266D01*
X81809166Y-54288266D01*
X82486500Y-54288266D02*
X82486500Y-53399266D01*
X82571166Y-53949600D02*
X82825166Y-54288266D01*
X82825166Y-53695600D02*
X82486500Y-54034266D01*
X83248500Y-53399266D02*
X83248500Y-53441600D01*
X83206166Y-53526266D01*
X83163833Y-53568600D01*
X83587166Y-54245933D02*
X83671833Y-54288266D01*
X83841166Y-54288266D01*
X83925833Y-54245933D01*
X83968166Y-54161266D01*
X83968166Y-54118933D01*
X83925833Y-54034266D01*
X83841166Y-53991933D01*
X83714166Y-53991933D01*
X83629500Y-53949600D01*
X83587166Y-53864933D01*
X83587166Y-53822600D01*
X83629500Y-53737933D01*
X83714166Y-53695600D01*
X83841166Y-53695600D01*
X83925833Y-53737933D01*
X85492166Y-53441600D02*
X85407500Y-53399266D01*
X85280500Y-53399266D01*
X85153500Y-53441600D01*
X85068833Y-53526266D01*
X85026500Y-53610933D01*
X84984166Y-53780266D01*
X84984166Y-53907266D01*
X85026500Y-54076600D01*
X85068833Y-54161266D01*
X85153500Y-54245933D01*
X85280500Y-54288266D01*
X85365166Y-54288266D01*
X85492166Y-54245933D01*
X85534500Y-54203600D01*
X85534500Y-53907266D01*
X85365166Y-53907266D01*
X86296500Y-54288266D02*
X86296500Y-53822600D01*
X86254166Y-53737933D01*
X86169500Y-53695600D01*
X86000166Y-53695600D01*
X85915500Y-53737933D01*
X86296500Y-54245933D02*
X86211833Y-54288266D01*
X86000166Y-54288266D01*
X85915500Y-54245933D01*
X85873166Y-54161266D01*
X85873166Y-54076600D01*
X85915500Y-53991933D01*
X86000166Y-53949600D01*
X86211833Y-53949600D01*
X86296500Y-53907266D01*
X86592833Y-53695600D02*
X86931500Y-53695600D01*
X86719833Y-53399266D02*
X86719833Y-54161266D01*
X86762166Y-54245933D01*
X86846833Y-54288266D01*
X86931500Y-54288266D01*
X87354833Y-54288266D02*
X87270166Y-54245933D01*
X87227833Y-54203600D01*
X87185500Y-54118933D01*
X87185500Y-53864933D01*
X87227833Y-53780266D01*
X87270166Y-53737933D01*
X87354833Y-53695600D01*
X87481833Y-53695600D01*
X87566500Y-53737933D01*
X87608833Y-53780266D01*
X87651166Y-53864933D01*
X87651166Y-54118933D01*
X87608833Y-54203600D01*
X87566500Y-54245933D01*
X87481833Y-54288266D01*
X87354833Y-54288266D01*
X88032166Y-54288266D02*
X88032166Y-53695600D01*
X88032166Y-53864933D02*
X88074500Y-53780266D01*
X88116833Y-53737933D01*
X88201500Y-53695600D01*
X88286166Y-53695600D01*
X89217500Y-53483933D02*
X89259833Y-53441600D01*
X89344500Y-53399266D01*
X89556166Y-53399266D01*
X89640833Y-53441600D01*
X89683166Y-53483933D01*
X89725500Y-53568600D01*
X89725500Y-53653266D01*
X89683166Y-53780266D01*
X89175166Y-54288266D01*
X89725500Y-54288266D01*
X90106500Y-54203600D02*
X90148833Y-54245933D01*
X90106500Y-54288266D01*
X90064166Y-54245933D01*
X90106500Y-54203600D01*
X90106500Y-54288266D01*
X90995500Y-54288266D02*
X90487500Y-54288266D01*
X90741500Y-54288266D02*
X90741500Y-53399266D01*
X90656833Y-53526266D01*
X90572166Y-53610933D01*
X90487500Y-53653266D01*
X92053833Y-53695600D02*
X92053833Y-54584600D01*
X92053833Y-53737933D02*
X92138500Y-53695600D01*
X92307833Y-53695600D01*
X92392500Y-53737933D01*
X92434833Y-53780266D01*
X92477166Y-53864933D01*
X92477166Y-54118933D01*
X92434833Y-54203600D01*
X92392500Y-54245933D01*
X92307833Y-54288266D01*
X92138500Y-54288266D01*
X92053833Y-54245933D01*
X93239166Y-54288266D02*
X93239166Y-53822600D01*
X93196833Y-53737933D01*
X93112166Y-53695600D01*
X92942833Y-53695600D01*
X92858166Y-53737933D01*
X93239166Y-54245933D02*
X93154500Y-54288266D01*
X92942833Y-54288266D01*
X92858166Y-54245933D01*
X92815833Y-54161266D01*
X92815833Y-54076600D01*
X92858166Y-53991933D01*
X92942833Y-53949600D01*
X93154500Y-53949600D01*
X93239166Y-53907266D01*
X93662500Y-53695600D02*
X93662500Y-54288266D01*
X93662500Y-53780266D02*
X93704833Y-53737933D01*
X93789500Y-53695600D01*
X93916500Y-53695600D01*
X94001166Y-53737933D01*
X94043500Y-53822600D01*
X94043500Y-54288266D01*
X94805500Y-54245933D02*
X94720833Y-54288266D01*
X94551500Y-54288266D01*
X94466833Y-54245933D01*
X94424500Y-54161266D01*
X94424500Y-53822600D01*
X94466833Y-53737933D01*
X94551500Y-53695600D01*
X94720833Y-53695600D01*
X94805500Y-53737933D01*
X94847833Y-53822600D01*
X94847833Y-53907266D01*
X94424500Y-53991933D01*
X95355833Y-54288266D02*
X95271166Y-54245933D01*
X95228833Y-54161266D01*
X95228833Y-53399266D01*
X96371833Y-54288266D02*
X96371833Y-53399266D01*
X96710500Y-53399266D01*
X96795166Y-53441600D01*
X96837500Y-53483933D01*
X96879833Y-53568600D01*
X96879833Y-53695600D01*
X96837500Y-53780266D01*
X96795166Y-53822600D01*
X96710500Y-53864933D01*
X96371833Y-53864933D01*
X97768833Y-54203600D02*
X97726500Y-54245933D01*
X97599500Y-54288266D01*
X97514833Y-54288266D01*
X97387833Y-54245933D01*
X97303166Y-54161266D01*
X97260833Y-54076600D01*
X97218500Y-53907266D01*
X97218500Y-53780266D01*
X97260833Y-53610933D01*
X97303166Y-53526266D01*
X97387833Y-53441600D01*
X97514833Y-53399266D01*
X97599500Y-53399266D01*
X97726500Y-53441600D01*
X97768833Y-53483933D01*
X98446166Y-53822600D02*
X98573166Y-53864933D01*
X98615500Y-53907266D01*
X98657833Y-53991933D01*
X98657833Y-54118933D01*
X98615500Y-54203600D01*
X98573166Y-54245933D01*
X98488500Y-54288266D01*
X98149833Y-54288266D01*
X98149833Y-53399266D01*
X98446166Y-53399266D01*
X98530833Y-53441600D01*
X98573166Y-53483933D01*
X98615500Y-53568600D01*
X98615500Y-53653266D01*
X98573166Y-53737933D01*
X98530833Y-53780266D01*
X98446166Y-53822600D01*
X98149833Y-53822600D01*
X81555166Y-55181500D02*
X81893833Y-55181500D01*
X81682166Y-54885166D02*
X81682166Y-55647166D01*
X81724500Y-55731833D01*
X81809166Y-55774166D01*
X81893833Y-55774166D01*
X82190166Y-55774166D02*
X82190166Y-55181500D01*
X82190166Y-55350833D02*
X82232500Y-55266166D01*
X82274833Y-55223833D01*
X82359500Y-55181500D01*
X82444166Y-55181500D01*
X82740500Y-55774166D02*
X82740500Y-55181500D01*
X82740500Y-54885166D02*
X82698166Y-54927500D01*
X82740500Y-54969833D01*
X82782833Y-54927500D01*
X82740500Y-54885166D01*
X82740500Y-54969833D01*
X83544833Y-55181500D02*
X83544833Y-55901166D01*
X83502500Y-55985833D01*
X83460166Y-56028166D01*
X83375500Y-56070500D01*
X83248500Y-56070500D01*
X83163833Y-56028166D01*
X83544833Y-55731833D02*
X83460166Y-55774166D01*
X83290833Y-55774166D01*
X83206166Y-55731833D01*
X83163833Y-55689500D01*
X83121500Y-55604833D01*
X83121500Y-55350833D01*
X83163833Y-55266166D01*
X83206166Y-55223833D01*
X83290833Y-55181500D01*
X83460166Y-55181500D01*
X83544833Y-55223833D01*
X84349166Y-55181500D02*
X84349166Y-55901166D01*
X84306833Y-55985833D01*
X84264500Y-56028166D01*
X84179833Y-56070500D01*
X84052833Y-56070500D01*
X83968166Y-56028166D01*
X84349166Y-55731833D02*
X84264500Y-55774166D01*
X84095166Y-55774166D01*
X84010500Y-55731833D01*
X83968166Y-55689500D01*
X83925833Y-55604833D01*
X83925833Y-55350833D01*
X83968166Y-55266166D01*
X84010500Y-55223833D01*
X84095166Y-55181500D01*
X84264500Y-55181500D01*
X84349166Y-55223833D01*
X85111166Y-55731833D02*
X85026500Y-55774166D01*
X84857166Y-55774166D01*
X84772500Y-55731833D01*
X84730166Y-55647166D01*
X84730166Y-55308500D01*
X84772500Y-55223833D01*
X84857166Y-55181500D01*
X85026500Y-55181500D01*
X85111166Y-55223833D01*
X85153500Y-55308500D01*
X85153500Y-55393166D01*
X84730166Y-55477833D01*
X85534500Y-55774166D02*
X85534500Y-55181500D01*
X85534500Y-55350833D02*
X85576833Y-55266166D01*
X85619166Y-55223833D01*
X85703833Y-55181500D01*
X85788500Y-55181500D01*
X86719833Y-54842833D02*
X85957833Y-55985833D01*
X87397166Y-55181500D02*
X87397166Y-55901166D01*
X87354833Y-55985833D01*
X87312500Y-56028166D01*
X87227833Y-56070500D01*
X87100833Y-56070500D01*
X87016166Y-56028166D01*
X87397166Y-55731833D02*
X87312500Y-55774166D01*
X87143166Y-55774166D01*
X87058500Y-55731833D01*
X87016166Y-55689500D01*
X86973833Y-55604833D01*
X86973833Y-55350833D01*
X87016166Y-55266166D01*
X87058500Y-55223833D01*
X87143166Y-55181500D01*
X87312500Y-55181500D01*
X87397166Y-55223833D01*
X88201500Y-55774166D02*
X88201500Y-55308500D01*
X88159166Y-55223833D01*
X88074500Y-55181500D01*
X87905166Y-55181500D01*
X87820500Y-55223833D01*
X88201500Y-55731833D02*
X88116833Y-55774166D01*
X87905166Y-55774166D01*
X87820500Y-55731833D01*
X87778166Y-55647166D01*
X87778166Y-55562500D01*
X87820500Y-55477833D01*
X87905166Y-55435500D01*
X88116833Y-55435500D01*
X88201500Y-55393166D01*
X88497833Y-55181500D02*
X88836500Y-55181500D01*
X88624833Y-54885166D02*
X88624833Y-55647166D01*
X88667166Y-55731833D01*
X88751833Y-55774166D01*
X88836500Y-55774166D01*
X89471500Y-55731833D02*
X89386833Y-55774166D01*
X89217500Y-55774166D01*
X89132833Y-55731833D01*
X89090500Y-55647166D01*
X89090500Y-55308500D01*
X89132833Y-55223833D01*
X89217500Y-55181500D01*
X89386833Y-55181500D01*
X89471500Y-55223833D01*
X89513833Y-55308500D01*
X89513833Y-55393166D01*
X89090500Y-55477833D01*
X90529833Y-55731833D02*
X90614500Y-55774166D01*
X90783833Y-55774166D01*
X90868500Y-55731833D01*
X90910833Y-55647166D01*
X90910833Y-55604833D01*
X90868500Y-55520166D01*
X90783833Y-55477833D01*
X90656833Y-55477833D01*
X90572166Y-55435500D01*
X90529833Y-55350833D01*
X90529833Y-55308500D01*
X90572166Y-55223833D01*
X90656833Y-55181500D01*
X90783833Y-55181500D01*
X90868500Y-55223833D01*
X91630500Y-55731833D02*
X91545833Y-55774166D01*
X91376500Y-55774166D01*
X91291833Y-55731833D01*
X91249500Y-55647166D01*
X91249500Y-55308500D01*
X91291833Y-55223833D01*
X91376500Y-55181500D01*
X91545833Y-55181500D01*
X91630500Y-55223833D01*
X91672833Y-55308500D01*
X91672833Y-55393166D01*
X91249500Y-55477833D01*
X92434833Y-55181500D02*
X92434833Y-56070500D01*
X92434833Y-55731833D02*
X92350166Y-55774166D01*
X92180833Y-55774166D01*
X92096166Y-55731833D01*
X92053833Y-55689500D01*
X92011500Y-55604833D01*
X92011500Y-55350833D01*
X92053833Y-55266166D01*
X92096166Y-55223833D01*
X92180833Y-55181500D01*
X92350166Y-55181500D01*
X92434833Y-55223833D01*
X93239166Y-55181500D02*
X93239166Y-55774166D01*
X92858166Y-55181500D02*
X92858166Y-55647166D01*
X92900500Y-55731833D01*
X92985166Y-55774166D01*
X93112166Y-55774166D01*
X93196833Y-55731833D01*
X93239166Y-55689500D01*
X94001166Y-55731833D02*
X93916500Y-55774166D01*
X93747166Y-55774166D01*
X93662500Y-55731833D01*
X93620166Y-55647166D01*
X93620166Y-55308500D01*
X93662500Y-55223833D01*
X93747166Y-55181500D01*
X93916500Y-55181500D01*
X94001166Y-55223833D01*
X94043500Y-55308500D01*
X94043500Y-55393166D01*
X93620166Y-55477833D01*
X94424500Y-55181500D02*
X94424500Y-55774166D01*
X94424500Y-55266166D02*
X94466833Y-55223833D01*
X94551500Y-55181500D01*
X94678500Y-55181500D01*
X94763166Y-55223833D01*
X94805500Y-55308500D01*
X94805500Y-55774166D01*
X95609833Y-55731833D02*
X95525166Y-55774166D01*
X95355833Y-55774166D01*
X95271166Y-55731833D01*
X95228833Y-55689500D01*
X95186500Y-55604833D01*
X95186500Y-55350833D01*
X95228833Y-55266166D01*
X95271166Y-55223833D01*
X95355833Y-55181500D01*
X95525166Y-55181500D01*
X95609833Y-55223833D01*
X96329500Y-55731833D02*
X96244833Y-55774166D01*
X96075500Y-55774166D01*
X95990833Y-55731833D01*
X95948500Y-55647166D01*
X95948500Y-55308500D01*
X95990833Y-55223833D01*
X96075500Y-55181500D01*
X96244833Y-55181500D01*
X96329500Y-55223833D01*
X96371833Y-55308500D01*
X96371833Y-55393166D01*
X95948500Y-55477833D01*
X96752833Y-55774166D02*
X96752833Y-55181500D01*
X96752833Y-55350833D02*
X96795166Y-55266166D01*
X96837500Y-55223833D01*
X96922166Y-55181500D01*
X97006833Y-55181500D01*
X80793166Y-57598733D02*
X80750833Y-57556400D01*
X80666166Y-57429400D01*
X80623833Y-57344733D01*
X80581500Y-57217733D01*
X80539166Y-57006066D01*
X80539166Y-56836733D01*
X80581500Y-56625066D01*
X80623833Y-56498066D01*
X80666166Y-56413400D01*
X80750833Y-56286400D01*
X80793166Y-56244066D01*
X81512833Y-57217733D02*
X81428166Y-57260066D01*
X81258833Y-57260066D01*
X81174166Y-57217733D01*
X81131833Y-57175400D01*
X81089500Y-57090733D01*
X81089500Y-56836733D01*
X81131833Y-56752066D01*
X81174166Y-56709733D01*
X81258833Y-56667400D01*
X81428166Y-56667400D01*
X81512833Y-56709733D01*
X81809166Y-57598733D02*
X81851500Y-57556400D01*
X81936166Y-57429400D01*
X81978500Y-57344733D01*
X82020833Y-57217733D01*
X82063166Y-57006066D01*
X82063166Y-56836733D01*
X82020833Y-56625066D01*
X81978500Y-56498066D01*
X81936166Y-56413400D01*
X81851500Y-56286400D01*
X81809166Y-56244066D01*
X82444166Y-56455733D02*
X82486500Y-56413400D01*
X82571166Y-56371066D01*
X82782833Y-56371066D01*
X82867500Y-56413400D01*
X82909833Y-56455733D01*
X82952166Y-56540400D01*
X82952166Y-56625066D01*
X82909833Y-56752066D01*
X82401833Y-57260066D01*
X82952166Y-57260066D01*
X83502500Y-56371066D02*
X83587166Y-56371066D01*
X83671833Y-56413400D01*
X83714166Y-56455733D01*
X83756500Y-56540400D01*
X83798833Y-56709733D01*
X83798833Y-56921400D01*
X83756500Y-57090733D01*
X83714166Y-57175400D01*
X83671833Y-57217733D01*
X83587166Y-57260066D01*
X83502500Y-57260066D01*
X83417833Y-57217733D01*
X83375500Y-57175400D01*
X83333166Y-57090733D01*
X83290833Y-56921400D01*
X83290833Y-56709733D01*
X83333166Y-56540400D01*
X83375500Y-56455733D01*
X83417833Y-56413400D01*
X83502500Y-56371066D01*
X84645500Y-57260066D02*
X84137500Y-57260066D01*
X84391500Y-57260066D02*
X84391500Y-56371066D01*
X84306833Y-56498066D01*
X84222166Y-56582733D01*
X84137500Y-56625066D01*
X85068833Y-57260066D02*
X85238166Y-57260066D01*
X85322833Y-57217733D01*
X85365166Y-57175400D01*
X85449833Y-57048400D01*
X85492166Y-56879066D01*
X85492166Y-56540400D01*
X85449833Y-56455733D01*
X85407500Y-56413400D01*
X85322833Y-56371066D01*
X85153500Y-56371066D01*
X85068833Y-56413400D01*
X85026500Y-56455733D01*
X84984166Y-56540400D01*
X84984166Y-56752066D01*
X85026500Y-56836733D01*
X85068833Y-56879066D01*
X85153500Y-56921400D01*
X85322833Y-56921400D01*
X85407500Y-56879066D01*
X85449833Y-56836733D01*
X85492166Y-56752066D01*
X86846833Y-56794400D02*
X86550500Y-56794400D01*
X86550500Y-57260066D02*
X86550500Y-56371066D01*
X86973833Y-56371066D01*
X87312500Y-57260066D02*
X87312500Y-56667400D01*
X87312500Y-56836733D02*
X87354833Y-56752066D01*
X87397166Y-56709733D01*
X87481833Y-56667400D01*
X87566500Y-56667400D01*
X87989833Y-57260066D02*
X87905166Y-57217733D01*
X87862833Y-57175400D01*
X87820500Y-57090733D01*
X87820500Y-56836733D01*
X87862833Y-56752066D01*
X87905166Y-56709733D01*
X87989833Y-56667400D01*
X88116833Y-56667400D01*
X88201500Y-56709733D01*
X88243833Y-56752066D01*
X88286166Y-56836733D01*
X88286166Y-57090733D01*
X88243833Y-57175400D01*
X88201500Y-57217733D01*
X88116833Y-57260066D01*
X87989833Y-57260066D01*
X89048166Y-56667400D02*
X89048166Y-57387066D01*
X89005833Y-57471733D01*
X88963500Y-57514066D01*
X88878833Y-57556400D01*
X88751833Y-57556400D01*
X88667166Y-57514066D01*
X89048166Y-57217733D02*
X88963500Y-57260066D01*
X88794166Y-57260066D01*
X88709500Y-57217733D01*
X88667166Y-57175400D01*
X88624833Y-57090733D01*
X88624833Y-56836733D01*
X88667166Y-56752066D01*
X88709500Y-56709733D01*
X88794166Y-56667400D01*
X88963500Y-56667400D01*
X89048166Y-56709733D01*
X89598500Y-57260066D02*
X89513833Y-57217733D01*
X89471500Y-57133066D01*
X89471500Y-56371066D01*
X90275833Y-57217733D02*
X90191166Y-57260066D01*
X90021833Y-57260066D01*
X89937166Y-57217733D01*
X89894833Y-57133066D01*
X89894833Y-56794400D01*
X89937166Y-56709733D01*
X90021833Y-56667400D01*
X90191166Y-56667400D01*
X90275833Y-56709733D01*
X90318166Y-56794400D01*
X90318166Y-56879066D01*
X89894833Y-56963733D01*
X91080166Y-56667400D02*
X91080166Y-57387066D01*
X91037833Y-57471733D01*
X90995500Y-57514066D01*
X90910833Y-57556400D01*
X90783833Y-57556400D01*
X90699166Y-57514066D01*
X91080166Y-57217733D02*
X90995500Y-57260066D01*
X90826166Y-57260066D01*
X90741500Y-57217733D01*
X90699166Y-57175400D01*
X90656833Y-57090733D01*
X90656833Y-56836733D01*
X90699166Y-56752066D01*
X90741500Y-56709733D01*
X90826166Y-56667400D01*
X90995500Y-56667400D01*
X91080166Y-56709733D01*
X92138500Y-57217733D02*
X92265500Y-57260066D01*
X92477166Y-57260066D01*
X92561833Y-57217733D01*
X92604166Y-57175400D01*
X92646500Y-57090733D01*
X92646500Y-57006066D01*
X92604166Y-56921400D01*
X92561833Y-56879066D01*
X92477166Y-56836733D01*
X92307833Y-56794400D01*
X92223166Y-56752066D01*
X92180833Y-56709733D01*
X92138500Y-56625066D01*
X92138500Y-56540400D01*
X92180833Y-56455733D01*
X92223166Y-56413400D01*
X92307833Y-56371066D01*
X92519500Y-56371066D01*
X92646500Y-56413400D01*
X92942833Y-56667400D02*
X93154500Y-57260066D01*
X93366166Y-56667400D02*
X93154500Y-57260066D01*
X93069833Y-57471733D01*
X93027500Y-57514066D01*
X92942833Y-57556400D01*
X93704833Y-56667400D02*
X93704833Y-57260066D01*
X93704833Y-56752066D02*
X93747166Y-56709733D01*
X93831833Y-56667400D01*
X93958833Y-56667400D01*
X94043500Y-56709733D01*
X94085833Y-56794400D01*
X94085833Y-57260066D01*
X94382166Y-56667400D02*
X94720833Y-56667400D01*
X94509166Y-56371066D02*
X94509166Y-57133066D01*
X94551500Y-57217733D01*
X94636166Y-57260066D01*
X94720833Y-57260066D01*
X95017166Y-57260066D02*
X95017166Y-56371066D01*
X95398166Y-57260066D02*
X95398166Y-56794400D01*
X95355833Y-56709733D01*
X95271166Y-56667400D01*
X95144166Y-56667400D01*
X95059500Y-56709733D01*
X95017166Y-56752066D01*
X96160166Y-57217733D02*
X96075500Y-57260066D01*
X95906166Y-57260066D01*
X95821500Y-57217733D01*
X95779166Y-57133066D01*
X95779166Y-56794400D01*
X95821500Y-56709733D01*
X95906166Y-56667400D01*
X96075500Y-56667400D01*
X96160166Y-56709733D01*
X96202500Y-56794400D01*
X96202500Y-56879066D01*
X95779166Y-56963733D01*
X96541166Y-57217733D02*
X96625833Y-57260066D01*
X96795166Y-57260066D01*
X96879833Y-57217733D01*
X96922166Y-57133066D01*
X96922166Y-57090733D01*
X96879833Y-57006066D01*
X96795166Y-56963733D01*
X96668166Y-56963733D01*
X96583500Y-56921400D01*
X96541166Y-56836733D01*
X96541166Y-56794400D01*
X96583500Y-56709733D01*
X96668166Y-56667400D01*
X96795166Y-56667400D01*
X96879833Y-56709733D01*
X97303166Y-57260066D02*
X97303166Y-56667400D01*
X97303166Y-56371066D02*
X97260833Y-56413400D01*
X97303166Y-56455733D01*
X97345500Y-56413400D01*
X97303166Y-56371066D01*
X97303166Y-56455733D01*
X97684166Y-57217733D02*
X97768833Y-57260066D01*
X97938166Y-57260066D01*
X98022833Y-57217733D01*
X98065166Y-57133066D01*
X98065166Y-57090733D01*
X98022833Y-57006066D01*
X97938166Y-56963733D01*
X97811166Y-56963733D01*
X97726500Y-56921400D01*
X97684166Y-56836733D01*
X97684166Y-56794400D01*
X97726500Y-56709733D01*
X97811166Y-56667400D01*
X97938166Y-56667400D01*
X98022833Y-56709733D01*
D12*
G04 #@! TO.C,P8*
X126111000Y-101981000D02*
X126111000Y-84201000D01*
X131191000Y-86741000D02*
X131191000Y-101981000D01*
X126111000Y-101981000D02*
X131191000Y-101981000D01*
X126111000Y-84201000D02*
X128651000Y-84201000D01*
X131471000Y-85471000D02*
X131471000Y-83921000D01*
X128651000Y-84201000D02*
X128651000Y-86741000D01*
X128651000Y-86741000D02*
X131191000Y-86741000D01*
X131471000Y-83921000D02*
X129921000Y-83921000D01*
G04 #@! TO.C,P9*
X134463000Y-102844000D02*
X134463000Y-104394000D01*
X135763000Y-102844000D02*
X134463000Y-102844000D01*
X139954000Y-104267000D02*
X145796000Y-104267000D01*
X145796000Y-104267000D02*
X145796000Y-104521000D01*
X145796000Y-104521000D02*
X139954000Y-104521000D01*
X139954000Y-104521000D02*
X139954000Y-104394000D01*
X139954000Y-104394000D02*
X145796000Y-104394000D01*
X137287000Y-121920000D02*
X136906000Y-121920000D01*
X137287000Y-122428000D02*
X136906000Y-122428000D01*
X137287000Y-124460000D02*
X136906000Y-124460000D01*
X137287000Y-124968000D02*
X136906000Y-124968000D01*
X137287000Y-127000000D02*
X136906000Y-127000000D01*
X137287000Y-127508000D02*
X136906000Y-127508000D01*
X137287000Y-104140000D02*
X136906000Y-104140000D01*
X137287000Y-104648000D02*
X136906000Y-104648000D01*
X137287000Y-106680000D02*
X136906000Y-106680000D01*
X137287000Y-107188000D02*
X136906000Y-107188000D01*
X137287000Y-109220000D02*
X136906000Y-109220000D01*
X137287000Y-109728000D02*
X136906000Y-109728000D01*
X137287000Y-119888000D02*
X136906000Y-119888000D01*
X137287000Y-119380000D02*
X136906000Y-119380000D01*
X137287000Y-117348000D02*
X136906000Y-117348000D01*
X137287000Y-116840000D02*
X136906000Y-116840000D01*
X137287000Y-114808000D02*
X136906000Y-114808000D01*
X137287000Y-114300000D02*
X136906000Y-114300000D01*
X137287000Y-112268000D02*
X136906000Y-112268000D01*
X137287000Y-111760000D02*
X136906000Y-111760000D01*
X137287000Y-118364000D02*
X139827000Y-118364000D01*
X137287000Y-118364000D02*
X137287000Y-120904000D01*
X137287000Y-120904000D02*
X139827000Y-120904000D01*
X139827000Y-119380000D02*
X145923000Y-119380000D01*
X145923000Y-119380000D02*
X145923000Y-119888000D01*
X145923000Y-119888000D02*
X139827000Y-119888000D01*
X139827000Y-120904000D02*
X139827000Y-118364000D01*
X139827000Y-123444000D02*
X139827000Y-120904000D01*
X145923000Y-122428000D02*
X139827000Y-122428000D01*
X145923000Y-121920000D02*
X145923000Y-122428000D01*
X139827000Y-121920000D02*
X145923000Y-121920000D01*
X137287000Y-123444000D02*
X139827000Y-123444000D01*
X137287000Y-120904000D02*
X137287000Y-123444000D01*
X137287000Y-120904000D02*
X139827000Y-120904000D01*
X137287000Y-125984000D02*
X139827000Y-125984000D01*
X137287000Y-125984000D02*
X137287000Y-128524000D01*
X139827000Y-127000000D02*
X145923000Y-127000000D01*
X145923000Y-127000000D02*
X145923000Y-127508000D01*
X145923000Y-127508000D02*
X139827000Y-127508000D01*
X139827000Y-128524000D02*
X139827000Y-125984000D01*
X139827000Y-125984000D02*
X139827000Y-123444000D01*
X145923000Y-124968000D02*
X139827000Y-124968000D01*
X145923000Y-124460000D02*
X145923000Y-124968000D01*
X139827000Y-124460000D02*
X145923000Y-124460000D01*
X137287000Y-125984000D02*
X139827000Y-125984000D01*
X137287000Y-123444000D02*
X137287000Y-125984000D01*
X137287000Y-123444000D02*
X139827000Y-123444000D01*
X137287000Y-128524000D02*
X139827000Y-128524000D01*
X137287000Y-103124000D02*
X139827000Y-103124000D01*
X137287000Y-105664000D02*
X139827000Y-105664000D01*
X137287000Y-105664000D02*
X137287000Y-108204000D01*
X137287000Y-108204000D02*
X139827000Y-108204000D01*
X139827000Y-106680000D02*
X145923000Y-106680000D01*
X145923000Y-106680000D02*
X145923000Y-107188000D01*
X145923000Y-107188000D02*
X139827000Y-107188000D01*
X139827000Y-108204000D02*
X139827000Y-105664000D01*
X139827000Y-105664000D02*
X139827000Y-103124000D01*
X145923000Y-104648000D02*
X139827000Y-104648000D01*
X145923000Y-104140000D02*
X145923000Y-104648000D01*
X139827000Y-104140000D02*
X145923000Y-104140000D01*
X137287000Y-105664000D02*
X139827000Y-105664000D01*
X137287000Y-103124000D02*
X137287000Y-105664000D01*
X137287000Y-113284000D02*
X139827000Y-113284000D01*
X137287000Y-113284000D02*
X137287000Y-115824000D01*
X137287000Y-115824000D02*
X139827000Y-115824000D01*
X139827000Y-114300000D02*
X145923000Y-114300000D01*
X145923000Y-114300000D02*
X145923000Y-114808000D01*
X145923000Y-114808000D02*
X139827000Y-114808000D01*
X139827000Y-115824000D02*
X139827000Y-113284000D01*
X139827000Y-118364000D02*
X139827000Y-115824000D01*
X145923000Y-117348000D02*
X139827000Y-117348000D01*
X145923000Y-116840000D02*
X145923000Y-117348000D01*
X139827000Y-116840000D02*
X145923000Y-116840000D01*
X137287000Y-118364000D02*
X139827000Y-118364000D01*
X137287000Y-115824000D02*
X137287000Y-118364000D01*
X137287000Y-115824000D02*
X139827000Y-115824000D01*
X137287000Y-110744000D02*
X139827000Y-110744000D01*
X137287000Y-110744000D02*
X137287000Y-113284000D01*
X137287000Y-113284000D02*
X139827000Y-113284000D01*
X139827000Y-111760000D02*
X145923000Y-111760000D01*
X145923000Y-111760000D02*
X145923000Y-112268000D01*
X145923000Y-112268000D02*
X139827000Y-112268000D01*
X139827000Y-113284000D02*
X139827000Y-110744000D01*
X139827000Y-110744000D02*
X139827000Y-108204000D01*
X145923000Y-109728000D02*
X139827000Y-109728000D01*
X145923000Y-109220000D02*
X145923000Y-109728000D01*
X139827000Y-109220000D02*
X145923000Y-109220000D01*
X137287000Y-110744000D02*
X139827000Y-110744000D01*
X137287000Y-108204000D02*
X137287000Y-110744000D01*
X137287000Y-108204000D02*
X139827000Y-108204000D01*
D13*
G04 #@! TO.C,G\002A\002A\002A*
G36*
X108498388Y-53907129D02*
X108711770Y-54065501D01*
X109002211Y-54304416D01*
X109358131Y-54613464D01*
X109767949Y-54982239D01*
X110220084Y-55400332D01*
X110702955Y-55857335D01*
X111163902Y-56302722D01*
X111523035Y-56664600D01*
X111793878Y-56970387D01*
X111988174Y-57242237D01*
X112117663Y-57502308D01*
X112194088Y-57772755D01*
X112229189Y-58075734D01*
X112235466Y-58324750D01*
X112224497Y-58674499D01*
X112180850Y-58940464D01*
X112089053Y-59164689D01*
X111933633Y-59389217D01*
X111776785Y-59571202D01*
X111575162Y-59752314D01*
X111256354Y-59979347D01*
X110821350Y-60251701D01*
X110271141Y-60568778D01*
X109606715Y-60929979D01*
X109041023Y-61225874D01*
X108686460Y-61411457D01*
X108363048Y-61585782D01*
X108090855Y-61737630D01*
X107889950Y-61855783D01*
X107780404Y-61929023D01*
X107775375Y-61933330D01*
X107679190Y-62056835D01*
X107637756Y-62228073D01*
X107632500Y-62364772D01*
X107641775Y-62535105D01*
X107681902Y-62674568D01*
X107771336Y-62823365D01*
X107928529Y-63021699D01*
X107940748Y-63036328D01*
X108240088Y-63375420D01*
X108606365Y-63761565D01*
X109007190Y-64162670D01*
X109410179Y-64546643D01*
X109782942Y-64881393D01*
X109918848Y-64996406D01*
X110130227Y-65179421D01*
X110298518Y-65340615D01*
X110402796Y-65459004D01*
X110426500Y-65505458D01*
X110382300Y-65601721D01*
X110272496Y-65730087D01*
X110236000Y-65764256D01*
X110091167Y-65931754D01*
X110053727Y-66101765D01*
X110118053Y-66311249D01*
X110144560Y-66364869D01*
X110209073Y-66551747D01*
X110223935Y-66726841D01*
X110167468Y-66866492D01*
X110037368Y-66914265D01*
X109828225Y-66870537D01*
X109601028Y-66770264D01*
X109318805Y-66652000D01*
X109112378Y-66626785D01*
X108969509Y-66696128D01*
X108878660Y-66859410D01*
X108784444Y-67068879D01*
X108672663Y-67156016D01*
X108530475Y-67123612D01*
X108345854Y-66975255D01*
X108172164Y-66819512D01*
X108039018Y-66753809D01*
X107904660Y-66771462D01*
X107727334Y-66865788D01*
X107713849Y-66874090D01*
X107570716Y-66957051D01*
X107487717Y-66973996D01*
X107417892Y-66927171D01*
X107382076Y-66889965D01*
X107316854Y-66782988D01*
X107226246Y-66584825D01*
X107123070Y-66325407D01*
X107035814Y-66081313D01*
X106936200Y-65799293D01*
X106830059Y-65525704D01*
X106709068Y-65243274D01*
X106564905Y-64934731D01*
X106389245Y-64582804D01*
X106173767Y-64170220D01*
X105910146Y-63679707D01*
X105640759Y-63186338D01*
X105427480Y-62787652D01*
X105247599Y-62431567D01*
X105109549Y-62135917D01*
X105021766Y-61918538D01*
X104994231Y-61819255D01*
X105000984Y-61493410D01*
X105123744Y-61175294D01*
X105366635Y-60856260D01*
X105528682Y-60698838D01*
X105714996Y-60545256D01*
X105983320Y-60342176D01*
X106307967Y-60107409D01*
X106663250Y-59858765D01*
X107023484Y-59614057D01*
X107362982Y-59391094D01*
X107656057Y-59207689D01*
X107803396Y-59121536D01*
X108047587Y-58938143D01*
X108167279Y-58731054D01*
X108162949Y-58499161D01*
X108120053Y-58385135D01*
X108052855Y-58276650D01*
X107948281Y-58175262D01*
X107783873Y-58064798D01*
X107537171Y-57929080D01*
X107364338Y-57840860D01*
X106989868Y-57660583D01*
X106569114Y-57471182D01*
X106128972Y-57283546D01*
X105696341Y-57108566D01*
X105298117Y-56957131D01*
X104961196Y-56840131D01*
X104719942Y-56770209D01*
X104467946Y-56725640D01*
X104215551Y-56717910D01*
X103940411Y-56751271D01*
X103620180Y-56829972D01*
X103232512Y-56958267D01*
X102755064Y-57140405D01*
X102737589Y-57147355D01*
X102151692Y-57386436D01*
X101676821Y-57594037D01*
X101302582Y-57775899D01*
X101018576Y-57937765D01*
X100814410Y-58085377D01*
X100679685Y-58224477D01*
X100623432Y-58315077D01*
X100549690Y-58497873D01*
X100541266Y-58651009D01*
X100578244Y-58806830D01*
X100619010Y-58914308D01*
X100682920Y-59011682D01*
X100788531Y-59115617D01*
X100954396Y-59242776D01*
X101199073Y-59409824D01*
X101387333Y-59533463D01*
X101872296Y-59857478D01*
X102311765Y-60166436D01*
X102691181Y-60449323D01*
X102995980Y-60695129D01*
X103211603Y-60892840D01*
X103272056Y-60958872D01*
X103458386Y-61265987D01*
X103539501Y-61603341D01*
X103507394Y-61937302D01*
X103506118Y-61941741D01*
X103453060Y-62075887D01*
X103348860Y-62299307D01*
X103204288Y-62590387D01*
X103030114Y-62927513D01*
X102837108Y-63289072D01*
X102808739Y-63341250D01*
X102520425Y-63872451D01*
X102285861Y-64310791D01*
X102096524Y-64674090D01*
X101943888Y-64980170D01*
X101819429Y-65246851D01*
X101714623Y-65491956D01*
X101620944Y-65733304D01*
X101529869Y-65988718D01*
X101498518Y-66080349D01*
X101394190Y-66368929D01*
X101291036Y-66622008D01*
X101202048Y-66809450D01*
X101147650Y-66894238D01*
X101065408Y-66971587D01*
X100995671Y-66978679D01*
X100888867Y-66912943D01*
X100841818Y-66878363D01*
X100649067Y-66766636D01*
X100485046Y-66757042D01*
X100316355Y-66853888D01*
X100203000Y-66960750D01*
X100043306Y-67111045D01*
X99928076Y-67172729D01*
X99825039Y-67158390D01*
X99771681Y-67128990D01*
X99696926Y-67033537D01*
X99640479Y-66891837D01*
X99584774Y-66762726D01*
X99479918Y-66704020D01*
X99361885Y-66687307D01*
X99103372Y-66713997D01*
X98869087Y-66802210D01*
X98611670Y-66903782D01*
X98432556Y-66905684D01*
X98331246Y-66807841D01*
X98309261Y-66718520D01*
X98329006Y-66528398D01*
X98388636Y-66387379D01*
X98479614Y-66162443D01*
X98445661Y-65950003D01*
X98298000Y-65754250D01*
X98178208Y-65621522D01*
X98112063Y-65513337D01*
X98107500Y-65491530D01*
X98153621Y-65420122D01*
X98278396Y-65289387D01*
X98461444Y-65119502D01*
X98631375Y-64972949D01*
X98850971Y-64780517D01*
X99113274Y-64536949D01*
X99402493Y-64258384D01*
X99702839Y-63960961D01*
X99998524Y-63660820D01*
X100273758Y-63374100D01*
X100512752Y-63116940D01*
X100699717Y-62905479D01*
X100818865Y-62755857D01*
X100850135Y-62704974D01*
X100888139Y-62492949D01*
X100849874Y-62242405D01*
X100745616Y-62007772D01*
X100708677Y-61955719D01*
X100613892Y-61876897D01*
X100425534Y-61753416D01*
X100163703Y-61597251D01*
X99848497Y-61420374D01*
X99500018Y-61234761D01*
X99487971Y-61228515D01*
X98791895Y-60860992D01*
X98184899Y-60525992D01*
X97672608Y-60226910D01*
X97260647Y-59967142D01*
X96954641Y-59750086D01*
X96765121Y-59584357D01*
X96551753Y-59337600D01*
X96413435Y-59109873D01*
X96335249Y-58860951D01*
X96302277Y-58550610D01*
X96297991Y-58324750D01*
X96299366Y-58287267D01*
X96584894Y-58287267D01*
X96593309Y-58521619D01*
X96622621Y-58731962D01*
X96681418Y-58925614D01*
X96778289Y-59109890D01*
X96921823Y-59292108D01*
X97120608Y-59479583D01*
X97383232Y-59679632D01*
X97718284Y-59899572D01*
X98134352Y-60146719D01*
X98640025Y-60428391D01*
X99243891Y-60751902D01*
X99853750Y-61072008D01*
X100364922Y-61339102D01*
X100774399Y-61554112D01*
X101093290Y-61723297D01*
X101332706Y-61852915D01*
X101503756Y-61949225D01*
X101617551Y-62018485D01*
X101685201Y-62066954D01*
X101717815Y-62100890D01*
X101726505Y-62126552D01*
X101726510Y-62126967D01*
X101684065Y-62211721D01*
X101564615Y-62372240D01*
X101381100Y-62594626D01*
X101146459Y-62864983D01*
X100873633Y-63169415D01*
X100575562Y-63494026D01*
X100265186Y-63824920D01*
X99955444Y-64148201D01*
X99659277Y-64449972D01*
X99389625Y-64716337D01*
X99159427Y-64933401D01*
X98981623Y-65087266D01*
X98940129Y-65119250D01*
X98792027Y-65236260D01*
X98697934Y-65325398D01*
X98680500Y-65353348D01*
X98735247Y-65353624D01*
X98883351Y-65318199D01*
X99098503Y-65253901D01*
X99229668Y-65210809D01*
X99473031Y-65131425D01*
X99666317Y-65073807D01*
X99781676Y-65045989D01*
X99801497Y-65045830D01*
X99773416Y-65099981D01*
X99679733Y-65223192D01*
X99539843Y-65390163D01*
X99520703Y-65412132D01*
X99320890Y-65648141D01*
X99129729Y-65887274D01*
X98962678Y-66108535D01*
X98835192Y-66290930D01*
X98762729Y-66413463D01*
X98753953Y-66453619D01*
X98815075Y-66433911D01*
X98947331Y-66355887D01*
X99094927Y-66255497D01*
X99313575Y-66107114D01*
X99554461Y-65956211D01*
X99792445Y-65816916D01*
X100002391Y-65703360D01*
X100159160Y-65629671D01*
X100237614Y-65609979D01*
X100240360Y-65611693D01*
X100236748Y-65683030D01*
X100194231Y-65832753D01*
X100151078Y-65952369D01*
X100070819Y-66181675D01*
X100006695Y-66403227D01*
X99989054Y-66481297D01*
X99947106Y-66700344D01*
X100313178Y-66317182D01*
X100501884Y-66128304D01*
X100675123Y-65969891D01*
X100801670Y-65870128D01*
X100822125Y-65857776D01*
X100902623Y-65821050D01*
X100945240Y-65837349D01*
X100962017Y-65930762D01*
X100964997Y-66125378D01*
X100965000Y-66143599D01*
X100970705Y-66331278D01*
X100985499Y-66447852D01*
X101001661Y-66469005D01*
X101037022Y-66396832D01*
X101102551Y-66232211D01*
X101187489Y-66002919D01*
X101245586Y-65839297D01*
X101374985Y-65484681D01*
X101511876Y-65145490D01*
X101666875Y-64799752D01*
X101850598Y-64425495D01*
X102073660Y-64000746D01*
X102346677Y-63503534D01*
X102542545Y-63154802D01*
X102798077Y-62697391D01*
X102991702Y-62332777D01*
X103127106Y-62045009D01*
X103207976Y-61818136D01*
X103237997Y-61636205D01*
X103220856Y-61483264D01*
X103160240Y-61343363D01*
X103059834Y-61200548D01*
X103008595Y-61138128D01*
X102823470Y-60953710D01*
X102543635Y-60721828D01*
X102186705Y-60454281D01*
X101770296Y-60162867D01*
X101312023Y-59859386D01*
X100829500Y-59555637D01*
X100340342Y-59263418D01*
X99862166Y-58994530D01*
X99603900Y-58857584D01*
X99403104Y-58749666D01*
X99255947Y-58662779D01*
X99190354Y-58613562D01*
X99189273Y-58610500D01*
X99244418Y-58561859D01*
X99396829Y-58464534D01*
X99630600Y-58327470D01*
X99929827Y-58159616D01*
X100278604Y-57969918D01*
X100661028Y-57767325D01*
X100997498Y-57593281D01*
X101472637Y-57361334D01*
X101991357Y-57127011D01*
X102522898Y-56902824D01*
X103036496Y-56701285D01*
X103501390Y-56534904D01*
X103886818Y-56416193D01*
X103901080Y-56412365D01*
X104316070Y-56301786D01*
X105019335Y-56535087D01*
X105765608Y-56806457D01*
X106563588Y-57138834D01*
X107373021Y-57513244D01*
X108153656Y-57910712D01*
X108865240Y-58312263D01*
X109115733Y-58466119D01*
X109360717Y-58620752D01*
X108544233Y-59068446D01*
X107962275Y-59398658D01*
X107407137Y-59734962D01*
X106891962Y-60068018D01*
X106429893Y-60388482D01*
X106034072Y-60687012D01*
X105717642Y-60954266D01*
X105493745Y-61180900D01*
X105405497Y-61299634D01*
X105340686Y-61410998D01*
X105296419Y-61513195D01*
X105277502Y-61619911D01*
X105288740Y-61744831D01*
X105334936Y-61901642D01*
X105420896Y-62104028D01*
X105551424Y-62365676D01*
X105731326Y-62700271D01*
X105965405Y-63121500D01*
X106177999Y-63500000D01*
X106381746Y-63875102D01*
X106589443Y-64280397D01*
X106792488Y-64696703D01*
X106982282Y-65104842D01*
X107150225Y-65485633D01*
X107287716Y-65819899D01*
X107386157Y-66088458D01*
X107436946Y-66272131D01*
X107442000Y-66318917D01*
X107479505Y-66428346D01*
X107505500Y-66452750D01*
X107543497Y-66419967D01*
X107565106Y-66275357D01*
X107569000Y-66136763D01*
X107572030Y-65937046D01*
X107588591Y-65839878D01*
X107629890Y-65820831D01*
X107699836Y-65851553D01*
X107803532Y-65928290D01*
X107964486Y-66070936D01*
X108153041Y-66252796D01*
X108212821Y-66313331D01*
X108388876Y-66489906D01*
X108501453Y-66585775D01*
X108554557Y-66593307D01*
X108552192Y-66504875D01*
X108498364Y-66312849D01*
X108397077Y-66009600D01*
X108387277Y-65980987D01*
X108327911Y-65790248D01*
X108296585Y-65653482D01*
X108297163Y-65608169D01*
X108365386Y-65621568D01*
X108514529Y-65691465D01*
X108719915Y-65803803D01*
X108956867Y-65944525D01*
X109200708Y-66099571D01*
X109405105Y-66239346D01*
X109582553Y-66359392D01*
X109716209Y-66437539D01*
X109776808Y-66456858D01*
X109754116Y-66396805D01*
X109667282Y-66262229D01*
X109533674Y-66075999D01*
X109370659Y-65860984D01*
X109195605Y-65640052D01*
X109025879Y-65436073D01*
X108878848Y-65271915D01*
X108869487Y-65262125D01*
X108751835Y-65129995D01*
X108692883Y-65043529D01*
X108696089Y-65024000D01*
X108777405Y-65043206D01*
X108948571Y-65094645D01*
X109179406Y-65169052D01*
X109303338Y-65210473D01*
X109543433Y-65287302D01*
X109730339Y-65338870D01*
X109837770Y-65358349D01*
X109853499Y-65353348D01*
X109805852Y-65293693D01*
X109685866Y-65189536D01*
X109595650Y-65120048D01*
X109430999Y-64983910D01*
X109210913Y-64781040D01*
X108948341Y-64525337D01*
X108656232Y-64230701D01*
X108347535Y-63911033D01*
X108035198Y-63580232D01*
X107732170Y-63252199D01*
X107451401Y-62940834D01*
X107205838Y-62660036D01*
X107008432Y-62423705D01*
X106872130Y-62245742D01*
X106809883Y-62140047D01*
X106807401Y-62126994D01*
X106813193Y-62103479D01*
X106837770Y-62074243D01*
X106892421Y-62032918D01*
X106988439Y-61973137D01*
X107137115Y-61888533D01*
X107349740Y-61772738D01*
X107637606Y-61619385D01*
X108012002Y-61422105D01*
X108484222Y-61174533D01*
X108653767Y-61085777D01*
X109351606Y-60718219D01*
X109943991Y-60399362D01*
X110439473Y-60121945D01*
X110846603Y-59878705D01*
X111173931Y-59662381D01*
X111430010Y-59465712D01*
X111623390Y-59281435D01*
X111762622Y-59102288D01*
X111856256Y-58921010D01*
X111912845Y-58730339D01*
X111940939Y-58523014D01*
X111949088Y-58291772D01*
X111949105Y-58287267D01*
X111941280Y-58054962D01*
X111909977Y-57844909D01*
X111845935Y-57643500D01*
X111739892Y-57437129D01*
X111582586Y-57212188D01*
X111364756Y-56955073D01*
X111077138Y-56652175D01*
X110710472Y-56289889D01*
X110362234Y-55955989D01*
X110002532Y-55618267D01*
X109638953Y-55284953D01*
X109291820Y-54974092D01*
X108981454Y-54703727D01*
X108728177Y-54491903D01*
X108601004Y-54392068D01*
X108045292Y-53975000D01*
X100488707Y-53975000D01*
X99927396Y-54396270D01*
X99720989Y-54560809D01*
X99444131Y-54795622D01*
X99117433Y-55082455D01*
X98761504Y-55403055D01*
X98396955Y-55739168D01*
X98169828Y-55952863D01*
X97734120Y-56371045D01*
X97385006Y-56719625D01*
X97113199Y-57012283D01*
X96909411Y-57262698D01*
X96764354Y-57484549D01*
X96668742Y-57691514D01*
X96613286Y-57897275D01*
X96588699Y-58115509D01*
X96584894Y-58287267D01*
X96299366Y-58287267D01*
X96310432Y-57985774D01*
X96355878Y-57694874D01*
X96446041Y-57429959D01*
X96592635Y-57168943D01*
X96807372Y-56889738D01*
X97101966Y-56570256D01*
X97370268Y-56302722D01*
X97870273Y-55819909D01*
X98350517Y-55366137D01*
X98799372Y-54951858D01*
X99205211Y-54587521D01*
X99556407Y-54283578D01*
X99841333Y-54050478D01*
X100035611Y-53907129D01*
X100407972Y-53657500D01*
X108126027Y-53657500D01*
X108498388Y-53907129D01*
X108498388Y-53907129D01*
G37*
X108498388Y-53907129D02*
X108711770Y-54065501D01*
X109002211Y-54304416D01*
X109358131Y-54613464D01*
X109767949Y-54982239D01*
X110220084Y-55400332D01*
X110702955Y-55857335D01*
X111163902Y-56302722D01*
X111523035Y-56664600D01*
X111793878Y-56970387D01*
X111988174Y-57242237D01*
X112117663Y-57502308D01*
X112194088Y-57772755D01*
X112229189Y-58075734D01*
X112235466Y-58324750D01*
X112224497Y-58674499D01*
X112180850Y-58940464D01*
X112089053Y-59164689D01*
X111933633Y-59389217D01*
X111776785Y-59571202D01*
X111575162Y-59752314D01*
X111256354Y-59979347D01*
X110821350Y-60251701D01*
X110271141Y-60568778D01*
X109606715Y-60929979D01*
X109041023Y-61225874D01*
X108686460Y-61411457D01*
X108363048Y-61585782D01*
X108090855Y-61737630D01*
X107889950Y-61855783D01*
X107780404Y-61929023D01*
X107775375Y-61933330D01*
X107679190Y-62056835D01*
X107637756Y-62228073D01*
X107632500Y-62364772D01*
X107641775Y-62535105D01*
X107681902Y-62674568D01*
X107771336Y-62823365D01*
X107928529Y-63021699D01*
X107940748Y-63036328D01*
X108240088Y-63375420D01*
X108606365Y-63761565D01*
X109007190Y-64162670D01*
X109410179Y-64546643D01*
X109782942Y-64881393D01*
X109918848Y-64996406D01*
X110130227Y-65179421D01*
X110298518Y-65340615D01*
X110402796Y-65459004D01*
X110426500Y-65505458D01*
X110382300Y-65601721D01*
X110272496Y-65730087D01*
X110236000Y-65764256D01*
X110091167Y-65931754D01*
X110053727Y-66101765D01*
X110118053Y-66311249D01*
X110144560Y-66364869D01*
X110209073Y-66551747D01*
X110223935Y-66726841D01*
X110167468Y-66866492D01*
X110037368Y-66914265D01*
X109828225Y-66870537D01*
X109601028Y-66770264D01*
X109318805Y-66652000D01*
X109112378Y-66626785D01*
X108969509Y-66696128D01*
X108878660Y-66859410D01*
X108784444Y-67068879D01*
X108672663Y-67156016D01*
X108530475Y-67123612D01*
X108345854Y-66975255D01*
X108172164Y-66819512D01*
X108039018Y-66753809D01*
X107904660Y-66771462D01*
X107727334Y-66865788D01*
X107713849Y-66874090D01*
X107570716Y-66957051D01*
X107487717Y-66973996D01*
X107417892Y-66927171D01*
X107382076Y-66889965D01*
X107316854Y-66782988D01*
X107226246Y-66584825D01*
X107123070Y-66325407D01*
X107035814Y-66081313D01*
X106936200Y-65799293D01*
X106830059Y-65525704D01*
X106709068Y-65243274D01*
X106564905Y-64934731D01*
X106389245Y-64582804D01*
X106173767Y-64170220D01*
X105910146Y-63679707D01*
X105640759Y-63186338D01*
X105427480Y-62787652D01*
X105247599Y-62431567D01*
X105109549Y-62135917D01*
X105021766Y-61918538D01*
X104994231Y-61819255D01*
X105000984Y-61493410D01*
X105123744Y-61175294D01*
X105366635Y-60856260D01*
X105528682Y-60698838D01*
X105714996Y-60545256D01*
X105983320Y-60342176D01*
X106307967Y-60107409D01*
X106663250Y-59858765D01*
X107023484Y-59614057D01*
X107362982Y-59391094D01*
X107656057Y-59207689D01*
X107803396Y-59121536D01*
X108047587Y-58938143D01*
X108167279Y-58731054D01*
X108162949Y-58499161D01*
X108120053Y-58385135D01*
X108052855Y-58276650D01*
X107948281Y-58175262D01*
X107783873Y-58064798D01*
X107537171Y-57929080D01*
X107364338Y-57840860D01*
X106989868Y-57660583D01*
X106569114Y-57471182D01*
X106128972Y-57283546D01*
X105696341Y-57108566D01*
X105298117Y-56957131D01*
X104961196Y-56840131D01*
X104719942Y-56770209D01*
X104467946Y-56725640D01*
X104215551Y-56717910D01*
X103940411Y-56751271D01*
X103620180Y-56829972D01*
X103232512Y-56958267D01*
X102755064Y-57140405D01*
X102737589Y-57147355D01*
X102151692Y-57386436D01*
X101676821Y-57594037D01*
X101302582Y-57775899D01*
X101018576Y-57937765D01*
X100814410Y-58085377D01*
X100679685Y-58224477D01*
X100623432Y-58315077D01*
X100549690Y-58497873D01*
X100541266Y-58651009D01*
X100578244Y-58806830D01*
X100619010Y-58914308D01*
X100682920Y-59011682D01*
X100788531Y-59115617D01*
X100954396Y-59242776D01*
X101199073Y-59409824D01*
X101387333Y-59533463D01*
X101872296Y-59857478D01*
X102311765Y-60166436D01*
X102691181Y-60449323D01*
X102995980Y-60695129D01*
X103211603Y-60892840D01*
X103272056Y-60958872D01*
X103458386Y-61265987D01*
X103539501Y-61603341D01*
X103507394Y-61937302D01*
X103506118Y-61941741D01*
X103453060Y-62075887D01*
X103348860Y-62299307D01*
X103204288Y-62590387D01*
X103030114Y-62927513D01*
X102837108Y-63289072D01*
X102808739Y-63341250D01*
X102520425Y-63872451D01*
X102285861Y-64310791D01*
X102096524Y-64674090D01*
X101943888Y-64980170D01*
X101819429Y-65246851D01*
X101714623Y-65491956D01*
X101620944Y-65733304D01*
X101529869Y-65988718D01*
X101498518Y-66080349D01*
X101394190Y-66368929D01*
X101291036Y-66622008D01*
X101202048Y-66809450D01*
X101147650Y-66894238D01*
X101065408Y-66971587D01*
X100995671Y-66978679D01*
X100888867Y-66912943D01*
X100841818Y-66878363D01*
X100649067Y-66766636D01*
X100485046Y-66757042D01*
X100316355Y-66853888D01*
X100203000Y-66960750D01*
X100043306Y-67111045D01*
X99928076Y-67172729D01*
X99825039Y-67158390D01*
X99771681Y-67128990D01*
X99696926Y-67033537D01*
X99640479Y-66891837D01*
X99584774Y-66762726D01*
X99479918Y-66704020D01*
X99361885Y-66687307D01*
X99103372Y-66713997D01*
X98869087Y-66802210D01*
X98611670Y-66903782D01*
X98432556Y-66905684D01*
X98331246Y-66807841D01*
X98309261Y-66718520D01*
X98329006Y-66528398D01*
X98388636Y-66387379D01*
X98479614Y-66162443D01*
X98445661Y-65950003D01*
X98298000Y-65754250D01*
X98178208Y-65621522D01*
X98112063Y-65513337D01*
X98107500Y-65491530D01*
X98153621Y-65420122D01*
X98278396Y-65289387D01*
X98461444Y-65119502D01*
X98631375Y-64972949D01*
X98850971Y-64780517D01*
X99113274Y-64536949D01*
X99402493Y-64258384D01*
X99702839Y-63960961D01*
X99998524Y-63660820D01*
X100273758Y-63374100D01*
X100512752Y-63116940D01*
X100699717Y-62905479D01*
X100818865Y-62755857D01*
X100850135Y-62704974D01*
X100888139Y-62492949D01*
X100849874Y-62242405D01*
X100745616Y-62007772D01*
X100708677Y-61955719D01*
X100613892Y-61876897D01*
X100425534Y-61753416D01*
X100163703Y-61597251D01*
X99848497Y-61420374D01*
X99500018Y-61234761D01*
X99487971Y-61228515D01*
X98791895Y-60860992D01*
X98184899Y-60525992D01*
X97672608Y-60226910D01*
X97260647Y-59967142D01*
X96954641Y-59750086D01*
X96765121Y-59584357D01*
X96551753Y-59337600D01*
X96413435Y-59109873D01*
X96335249Y-58860951D01*
X96302277Y-58550610D01*
X96297991Y-58324750D01*
X96299366Y-58287267D01*
X96584894Y-58287267D01*
X96593309Y-58521619D01*
X96622621Y-58731962D01*
X96681418Y-58925614D01*
X96778289Y-59109890D01*
X96921823Y-59292108D01*
X97120608Y-59479583D01*
X97383232Y-59679632D01*
X97718284Y-59899572D01*
X98134352Y-60146719D01*
X98640025Y-60428391D01*
X99243891Y-60751902D01*
X99853750Y-61072008D01*
X100364922Y-61339102D01*
X100774399Y-61554112D01*
X101093290Y-61723297D01*
X101332706Y-61852915D01*
X101503756Y-61949225D01*
X101617551Y-62018485D01*
X101685201Y-62066954D01*
X101717815Y-62100890D01*
X101726505Y-62126552D01*
X101726510Y-62126967D01*
X101684065Y-62211721D01*
X101564615Y-62372240D01*
X101381100Y-62594626D01*
X101146459Y-62864983D01*
X100873633Y-63169415D01*
X100575562Y-63494026D01*
X100265186Y-63824920D01*
X99955444Y-64148201D01*
X99659277Y-64449972D01*
X99389625Y-64716337D01*
X99159427Y-64933401D01*
X98981623Y-65087266D01*
X98940129Y-65119250D01*
X98792027Y-65236260D01*
X98697934Y-65325398D01*
X98680500Y-65353348D01*
X98735247Y-65353624D01*
X98883351Y-65318199D01*
X99098503Y-65253901D01*
X99229668Y-65210809D01*
X99473031Y-65131425D01*
X99666317Y-65073807D01*
X99781676Y-65045989D01*
X99801497Y-65045830D01*
X99773416Y-65099981D01*
X99679733Y-65223192D01*
X99539843Y-65390163D01*
X99520703Y-65412132D01*
X99320890Y-65648141D01*
X99129729Y-65887274D01*
X98962678Y-66108535D01*
X98835192Y-66290930D01*
X98762729Y-66413463D01*
X98753953Y-66453619D01*
X98815075Y-66433911D01*
X98947331Y-66355887D01*
X99094927Y-66255497D01*
X99313575Y-66107114D01*
X99554461Y-65956211D01*
X99792445Y-65816916D01*
X100002391Y-65703360D01*
X100159160Y-65629671D01*
X100237614Y-65609979D01*
X100240360Y-65611693D01*
X100236748Y-65683030D01*
X100194231Y-65832753D01*
X100151078Y-65952369D01*
X100070819Y-66181675D01*
X100006695Y-66403227D01*
X99989054Y-66481297D01*
X99947106Y-66700344D01*
X100313178Y-66317182D01*
X100501884Y-66128304D01*
X100675123Y-65969891D01*
X100801670Y-65870128D01*
X100822125Y-65857776D01*
X100902623Y-65821050D01*
X100945240Y-65837349D01*
X100962017Y-65930762D01*
X100964997Y-66125378D01*
X100965000Y-66143599D01*
X100970705Y-66331278D01*
X100985499Y-66447852D01*
X101001661Y-66469005D01*
X101037022Y-66396832D01*
X101102551Y-66232211D01*
X101187489Y-66002919D01*
X101245586Y-65839297D01*
X101374985Y-65484681D01*
X101511876Y-65145490D01*
X101666875Y-64799752D01*
X101850598Y-64425495D01*
X102073660Y-64000746D01*
X102346677Y-63503534D01*
X102542545Y-63154802D01*
X102798077Y-62697391D01*
X102991702Y-62332777D01*
X103127106Y-62045009D01*
X103207976Y-61818136D01*
X103237997Y-61636205D01*
X103220856Y-61483264D01*
X103160240Y-61343363D01*
X103059834Y-61200548D01*
X103008595Y-61138128D01*
X102823470Y-60953710D01*
X102543635Y-60721828D01*
X102186705Y-60454281D01*
X101770296Y-60162867D01*
X101312023Y-59859386D01*
X100829500Y-59555637D01*
X100340342Y-59263418D01*
X99862166Y-58994530D01*
X99603900Y-58857584D01*
X99403104Y-58749666D01*
X99255947Y-58662779D01*
X99190354Y-58613562D01*
X99189273Y-58610500D01*
X99244418Y-58561859D01*
X99396829Y-58464534D01*
X99630600Y-58327470D01*
X99929827Y-58159616D01*
X100278604Y-57969918D01*
X100661028Y-57767325D01*
X100997498Y-57593281D01*
X101472637Y-57361334D01*
X101991357Y-57127011D01*
X102522898Y-56902824D01*
X103036496Y-56701285D01*
X103501390Y-56534904D01*
X103886818Y-56416193D01*
X103901080Y-56412365D01*
X104316070Y-56301786D01*
X105019335Y-56535087D01*
X105765608Y-56806457D01*
X106563588Y-57138834D01*
X107373021Y-57513244D01*
X108153656Y-57910712D01*
X108865240Y-58312263D01*
X109115733Y-58466119D01*
X109360717Y-58620752D01*
X108544233Y-59068446D01*
X107962275Y-59398658D01*
X107407137Y-59734962D01*
X106891962Y-60068018D01*
X106429893Y-60388482D01*
X106034072Y-60687012D01*
X105717642Y-60954266D01*
X105493745Y-61180900D01*
X105405497Y-61299634D01*
X105340686Y-61410998D01*
X105296419Y-61513195D01*
X105277502Y-61619911D01*
X105288740Y-61744831D01*
X105334936Y-61901642D01*
X105420896Y-62104028D01*
X105551424Y-62365676D01*
X105731326Y-62700271D01*
X105965405Y-63121500D01*
X106177999Y-63500000D01*
X106381746Y-63875102D01*
X106589443Y-64280397D01*
X106792488Y-64696703D01*
X106982282Y-65104842D01*
X107150225Y-65485633D01*
X107287716Y-65819899D01*
X107386157Y-66088458D01*
X107436946Y-66272131D01*
X107442000Y-66318917D01*
X107479505Y-66428346D01*
X107505500Y-66452750D01*
X107543497Y-66419967D01*
X107565106Y-66275357D01*
X107569000Y-66136763D01*
X107572030Y-65937046D01*
X107588591Y-65839878D01*
X107629890Y-65820831D01*
X107699836Y-65851553D01*
X107803532Y-65928290D01*
X107964486Y-66070936D01*
X108153041Y-66252796D01*
X108212821Y-66313331D01*
X108388876Y-66489906D01*
X108501453Y-66585775D01*
X108554557Y-66593307D01*
X108552192Y-66504875D01*
X108498364Y-66312849D01*
X108397077Y-66009600D01*
X108387277Y-65980987D01*
X108327911Y-65790248D01*
X108296585Y-65653482D01*
X108297163Y-65608169D01*
X108365386Y-65621568D01*
X108514529Y-65691465D01*
X108719915Y-65803803D01*
X108956867Y-65944525D01*
X109200708Y-66099571D01*
X109405105Y-66239346D01*
X109582553Y-66359392D01*
X109716209Y-66437539D01*
X109776808Y-66456858D01*
X109754116Y-66396805D01*
X109667282Y-66262229D01*
X109533674Y-66075999D01*
X109370659Y-65860984D01*
X109195605Y-65640052D01*
X109025879Y-65436073D01*
X108878848Y-65271915D01*
X108869487Y-65262125D01*
X108751835Y-65129995D01*
X108692883Y-65043529D01*
X108696089Y-65024000D01*
X108777405Y-65043206D01*
X108948571Y-65094645D01*
X109179406Y-65169052D01*
X109303338Y-65210473D01*
X109543433Y-65287302D01*
X109730339Y-65338870D01*
X109837770Y-65358349D01*
X109853499Y-65353348D01*
X109805852Y-65293693D01*
X109685866Y-65189536D01*
X109595650Y-65120048D01*
X109430999Y-64983910D01*
X109210913Y-64781040D01*
X108948341Y-64525337D01*
X108656232Y-64230701D01*
X108347535Y-63911033D01*
X108035198Y-63580232D01*
X107732170Y-63252199D01*
X107451401Y-62940834D01*
X107205838Y-62660036D01*
X107008432Y-62423705D01*
X106872130Y-62245742D01*
X106809883Y-62140047D01*
X106807401Y-62126994D01*
X106813193Y-62103479D01*
X106837770Y-62074243D01*
X106892421Y-62032918D01*
X106988439Y-61973137D01*
X107137115Y-61888533D01*
X107349740Y-61772738D01*
X107637606Y-61619385D01*
X108012002Y-61422105D01*
X108484222Y-61174533D01*
X108653767Y-61085777D01*
X109351606Y-60718219D01*
X109943991Y-60399362D01*
X110439473Y-60121945D01*
X110846603Y-59878705D01*
X111173931Y-59662381D01*
X111430010Y-59465712D01*
X111623390Y-59281435D01*
X111762622Y-59102288D01*
X111856256Y-58921010D01*
X111912845Y-58730339D01*
X111940939Y-58523014D01*
X111949088Y-58291772D01*
X111949105Y-58287267D01*
X111941280Y-58054962D01*
X111909977Y-57844909D01*
X111845935Y-57643500D01*
X111739892Y-57437129D01*
X111582586Y-57212188D01*
X111364756Y-56955073D01*
X111077138Y-56652175D01*
X110710472Y-56289889D01*
X110362234Y-55955989D01*
X110002532Y-55618267D01*
X109638953Y-55284953D01*
X109291820Y-54974092D01*
X108981454Y-54703727D01*
X108728177Y-54491903D01*
X108601004Y-54392068D01*
X108045292Y-53975000D01*
X100488707Y-53975000D01*
X99927396Y-54396270D01*
X99720989Y-54560809D01*
X99444131Y-54795622D01*
X99117433Y-55082455D01*
X98761504Y-55403055D01*
X98396955Y-55739168D01*
X98169828Y-55952863D01*
X97734120Y-56371045D01*
X97385006Y-56719625D01*
X97113199Y-57012283D01*
X96909411Y-57262698D01*
X96764354Y-57484549D01*
X96668742Y-57691514D01*
X96613286Y-57897275D01*
X96588699Y-58115509D01*
X96584894Y-58287267D01*
X96299366Y-58287267D01*
X96310432Y-57985774D01*
X96355878Y-57694874D01*
X96446041Y-57429959D01*
X96592635Y-57168943D01*
X96807372Y-56889738D01*
X97101966Y-56570256D01*
X97370268Y-56302722D01*
X97870273Y-55819909D01*
X98350517Y-55366137D01*
X98799372Y-54951858D01*
X99205211Y-54587521D01*
X99556407Y-54283578D01*
X99841333Y-54050478D01*
X100035611Y-53907129D01*
X100407972Y-53657500D01*
X108126027Y-53657500D01*
X108498388Y-53907129D01*
G36*
X110343802Y-57123111D02*
X110350842Y-57127404D01*
X110452221Y-57239542D01*
X110480187Y-57372700D01*
X110431709Y-57479721D01*
X110375400Y-57509358D01*
X110282187Y-57576676D01*
X110282621Y-57663815D01*
X110274340Y-57816762D01*
X110186596Y-57924335D01*
X110058313Y-57969253D01*
X109928412Y-57934237D01*
X109857234Y-57852674D01*
X109795896Y-57688195D01*
X109831322Y-57605238D01*
X109886750Y-57594500D01*
X109970936Y-57645329D01*
X109982000Y-57689750D01*
X110016288Y-57774253D01*
X110045500Y-57785000D01*
X110102454Y-57733839D01*
X110109000Y-57693497D01*
X110070299Y-57585385D01*
X110045500Y-57562750D01*
X109985164Y-57461692D01*
X109994720Y-57407747D01*
X110172500Y-57407747D01*
X110192906Y-57465443D01*
X110239732Y-57415110D01*
X110260228Y-57368951D01*
X110264666Y-57303402D01*
X110235272Y-57309199D01*
X110174756Y-57390500D01*
X110172500Y-57407747D01*
X109994720Y-57407747D01*
X110010522Y-57318557D01*
X110112717Y-57178386D01*
X110235270Y-57100427D01*
X110343802Y-57123111D01*
X110343802Y-57123111D01*
G37*
X110343802Y-57123111D02*
X110350842Y-57127404D01*
X110452221Y-57239542D01*
X110480187Y-57372700D01*
X110431709Y-57479721D01*
X110375400Y-57509358D01*
X110282187Y-57576676D01*
X110282621Y-57663815D01*
X110274340Y-57816762D01*
X110186596Y-57924335D01*
X110058313Y-57969253D01*
X109928412Y-57934237D01*
X109857234Y-57852674D01*
X109795896Y-57688195D01*
X109831322Y-57605238D01*
X109886750Y-57594500D01*
X109970936Y-57645329D01*
X109982000Y-57689750D01*
X110016288Y-57774253D01*
X110045500Y-57785000D01*
X110102454Y-57733839D01*
X110109000Y-57693497D01*
X110070299Y-57585385D01*
X110045500Y-57562750D01*
X109985164Y-57461692D01*
X109994720Y-57407747D01*
X110172500Y-57407747D01*
X110192906Y-57465443D01*
X110239732Y-57415110D01*
X110260228Y-57368951D01*
X110264666Y-57303402D01*
X110235272Y-57309199D01*
X110174756Y-57390500D01*
X110172500Y-57407747D01*
X109994720Y-57407747D01*
X110010522Y-57318557D01*
X110112717Y-57178386D01*
X110235270Y-57100427D01*
X110343802Y-57123111D01*
G36*
X109991871Y-56935638D02*
X110030863Y-57016983D01*
X109998463Y-57077724D01*
X109937252Y-57153079D01*
X109844592Y-57305926D01*
X109767008Y-57451625D01*
X109663594Y-57650747D01*
X109597763Y-57752054D01*
X109552363Y-57772328D01*
X109510239Y-57728353D01*
X109500258Y-57712615D01*
X109503059Y-57620727D01*
X109555684Y-57461311D01*
X109639837Y-57271801D01*
X109737220Y-57089631D01*
X109829538Y-56952237D01*
X109898494Y-56897053D01*
X109898877Y-56897044D01*
X109991871Y-56935638D01*
X109991871Y-56935638D01*
G37*
X109991871Y-56935638D02*
X110030863Y-57016983D01*
X109998463Y-57077724D01*
X109937252Y-57153079D01*
X109844592Y-57305926D01*
X109767008Y-57451625D01*
X109663594Y-57650747D01*
X109597763Y-57752054D01*
X109552363Y-57772328D01*
X109510239Y-57728353D01*
X109500258Y-57712615D01*
X109503059Y-57620727D01*
X109555684Y-57461311D01*
X109639837Y-57271801D01*
X109737220Y-57089631D01*
X109829538Y-56952237D01*
X109898494Y-56897053D01*
X109898877Y-56897044D01*
X109991871Y-56935638D01*
G36*
X109157429Y-56495232D02*
X109219581Y-56602119D01*
X109220000Y-56612484D01*
X109165489Y-56750190D01*
X109032503Y-56875943D01*
X108866858Y-56951709D01*
X108801958Y-56959500D01*
X108686566Y-56991072D01*
X108668854Y-57056890D01*
X108745963Y-57113606D01*
X108812858Y-57124723D01*
X109016756Y-57141525D01*
X109130947Y-57174403D01*
X109192722Y-57238846D01*
X109217674Y-57292875D01*
X109249243Y-57345309D01*
X109264098Y-57292562D01*
X109264411Y-57124797D01*
X109263253Y-57086500D01*
X109260230Y-56886345D01*
X109278431Y-56779923D01*
X109333259Y-56734102D01*
X109435359Y-56716290D01*
X109582513Y-56724613D01*
X109665701Y-56770944D01*
X109692470Y-56897187D01*
X109652847Y-57021332D01*
X109567219Y-57085563D01*
X109554437Y-57086500D01*
X109486584Y-57042731D01*
X109492399Y-56959500D01*
X109493073Y-56858390D01*
X109460652Y-56832500D01*
X109424791Y-56885677D01*
X109438342Y-57007125D01*
X109483628Y-57234191D01*
X109479623Y-57376700D01*
X109422221Y-57468784D01*
X109378750Y-57502283D01*
X109229153Y-57552549D01*
X109140625Y-57524174D01*
X109048263Y-57432490D01*
X109029500Y-57372927D01*
X108969726Y-57303727D01*
X108800623Y-57265764D01*
X108791375Y-57264958D01*
X108633023Y-57240514D01*
X108560830Y-57179273D01*
X108533964Y-57045977D01*
X108533613Y-57042381D01*
X108562199Y-56815093D01*
X108582409Y-56776775D01*
X108775500Y-56776775D01*
X108812846Y-56830260D01*
X108899905Y-56799419D01*
X108967273Y-56735715D01*
X109016230Y-56639803D01*
X109008333Y-56599666D01*
X108937642Y-56602262D01*
X108844059Y-56666179D01*
X108780713Y-56751001D01*
X108775500Y-56776775D01*
X108582409Y-56776775D01*
X108672148Y-56606635D01*
X108835763Y-56466100D01*
X108866284Y-56452736D01*
X109023494Y-56438135D01*
X109157429Y-56495232D01*
X109157429Y-56495232D01*
G37*
X109157429Y-56495232D02*
X109219581Y-56602119D01*
X109220000Y-56612484D01*
X109165489Y-56750190D01*
X109032503Y-56875943D01*
X108866858Y-56951709D01*
X108801958Y-56959500D01*
X108686566Y-56991072D01*
X108668854Y-57056890D01*
X108745963Y-57113606D01*
X108812858Y-57124723D01*
X109016756Y-57141525D01*
X109130947Y-57174403D01*
X109192722Y-57238846D01*
X109217674Y-57292875D01*
X109249243Y-57345309D01*
X109264098Y-57292562D01*
X109264411Y-57124797D01*
X109263253Y-57086500D01*
X109260230Y-56886345D01*
X109278431Y-56779923D01*
X109333259Y-56734102D01*
X109435359Y-56716290D01*
X109582513Y-56724613D01*
X109665701Y-56770944D01*
X109692470Y-56897187D01*
X109652847Y-57021332D01*
X109567219Y-57085563D01*
X109554437Y-57086500D01*
X109486584Y-57042731D01*
X109492399Y-56959500D01*
X109493073Y-56858390D01*
X109460652Y-56832500D01*
X109424791Y-56885677D01*
X109438342Y-57007125D01*
X109483628Y-57234191D01*
X109479623Y-57376700D01*
X109422221Y-57468784D01*
X109378750Y-57502283D01*
X109229153Y-57552549D01*
X109140625Y-57524174D01*
X109048263Y-57432490D01*
X109029500Y-57372927D01*
X108969726Y-57303727D01*
X108800623Y-57265764D01*
X108791375Y-57264958D01*
X108633023Y-57240514D01*
X108560830Y-57179273D01*
X108533964Y-57045977D01*
X108533613Y-57042381D01*
X108562199Y-56815093D01*
X108582409Y-56776775D01*
X108775500Y-56776775D01*
X108812846Y-56830260D01*
X108899905Y-56799419D01*
X108967273Y-56735715D01*
X109016230Y-56639803D01*
X109008333Y-56599666D01*
X108937642Y-56602262D01*
X108844059Y-56666179D01*
X108780713Y-56751001D01*
X108775500Y-56776775D01*
X108582409Y-56776775D01*
X108672148Y-56606635D01*
X108835763Y-56466100D01*
X108866284Y-56452736D01*
X109023494Y-56438135D01*
X109157429Y-56495232D01*
G36*
X99373781Y-56096606D02*
X99377500Y-56113124D01*
X99339398Y-56187937D01*
X99271849Y-56272491D01*
X99202947Y-56378850D01*
X99222167Y-56490182D01*
X99248358Y-56542747D01*
X99323079Y-56646495D01*
X99404123Y-56647224D01*
X99446370Y-56623909D01*
X99567365Y-56582597D01*
X99617603Y-56636942D01*
X99584095Y-56769502D01*
X99572196Y-56792908D01*
X99524554Y-56951478D01*
X99561517Y-57074387D01*
X99626319Y-57243197D01*
X99595856Y-57328951D01*
X99541807Y-57340500D01*
X99473029Y-57288678D01*
X99362403Y-57149564D01*
X99228296Y-56947680D01*
X99151696Y-56819662D01*
X99011532Y-56561455D01*
X98931041Y-56378651D01*
X98915475Y-56283891D01*
X98925022Y-56274242D01*
X99030073Y-56210942D01*
X99088348Y-56160080D01*
X99193654Y-56094052D01*
X99306247Y-56070060D01*
X99373781Y-56096606D01*
X99373781Y-56096606D01*
G37*
X99373781Y-56096606D02*
X99377500Y-56113124D01*
X99339398Y-56187937D01*
X99271849Y-56272491D01*
X99202947Y-56378850D01*
X99222167Y-56490182D01*
X99248358Y-56542747D01*
X99323079Y-56646495D01*
X99404123Y-56647224D01*
X99446370Y-56623909D01*
X99567365Y-56582597D01*
X99617603Y-56636942D01*
X99584095Y-56769502D01*
X99572196Y-56792908D01*
X99524554Y-56951478D01*
X99561517Y-57074387D01*
X99626319Y-57243197D01*
X99595856Y-57328951D01*
X99541807Y-57340500D01*
X99473029Y-57288678D01*
X99362403Y-57149564D01*
X99228296Y-56947680D01*
X99151696Y-56819662D01*
X99011532Y-56561455D01*
X98931041Y-56378651D01*
X98915475Y-56283891D01*
X98925022Y-56274242D01*
X99030073Y-56210942D01*
X99088348Y-56160080D01*
X99193654Y-56094052D01*
X99306247Y-56070060D01*
X99373781Y-56096606D01*
G36*
X100059025Y-56019709D02*
X100070550Y-56077008D01*
X100044716Y-56207655D01*
X100006725Y-56349195D01*
X99970665Y-56526427D01*
X99994158Y-56653691D01*
X100073486Y-56779181D01*
X100159709Y-56938046D01*
X100157655Y-57047625D01*
X100072795Y-57086500D01*
X100012574Y-57035427D01*
X99916266Y-56902817D01*
X99825440Y-56753125D01*
X99703721Y-56526859D01*
X99647812Y-56387585D01*
X99653981Y-56316028D01*
X99718493Y-56292915D01*
X99736185Y-56292411D01*
X99836013Y-56239124D01*
X99892179Y-56149536D01*
X99957015Y-56039360D01*
X100010453Y-56007000D01*
X100059025Y-56019709D01*
X100059025Y-56019709D01*
G37*
X100059025Y-56019709D02*
X100070550Y-56077008D01*
X100044716Y-56207655D01*
X100006725Y-56349195D01*
X99970665Y-56526427D01*
X99994158Y-56653691D01*
X100073486Y-56779181D01*
X100159709Y-56938046D01*
X100157655Y-57047625D01*
X100072795Y-57086500D01*
X100012574Y-57035427D01*
X99916266Y-56902817D01*
X99825440Y-56753125D01*
X99703721Y-56526859D01*
X99647812Y-56387585D01*
X99653981Y-56316028D01*
X99718493Y-56292915D01*
X99736185Y-56292411D01*
X99836013Y-56239124D01*
X99892179Y-56149536D01*
X99957015Y-56039360D01*
X100010453Y-56007000D01*
X100059025Y-56019709D01*
G36*
X108469554Y-55663770D02*
X108454510Y-55779117D01*
X108390154Y-55901875D01*
X108294527Y-56074562D01*
X108276005Y-56158984D01*
X108333365Y-56166845D01*
X108363558Y-56156652D01*
X108488978Y-56162018D01*
X108553444Y-56197661D01*
X108614796Y-56327852D01*
X108582531Y-56530123D01*
X108458668Y-56792989D01*
X108444663Y-56816625D01*
X108328725Y-56976142D01*
X108238948Y-57018574D01*
X108174948Y-56963866D01*
X108185449Y-56880256D01*
X108254537Y-56738218D01*
X108298200Y-56669254D01*
X108421129Y-56467221D01*
X108457097Y-56352258D01*
X108424015Y-56324500D01*
X108312110Y-56370328D01*
X108168879Y-56483302D01*
X108036009Y-56626651D01*
X107973100Y-56722226D01*
X107884605Y-56847029D01*
X107813096Y-56847994D01*
X107812764Y-56847664D01*
X107815959Y-56771734D01*
X107867118Y-56614655D01*
X107952247Y-56406141D01*
X108057350Y-56175904D01*
X108168434Y-55953657D01*
X108271503Y-55769111D01*
X108352564Y-55651981D01*
X108388165Y-55626000D01*
X108469554Y-55663770D01*
X108469554Y-55663770D01*
G37*
X108469554Y-55663770D02*
X108454510Y-55779117D01*
X108390154Y-55901875D01*
X108294527Y-56074562D01*
X108276005Y-56158984D01*
X108333365Y-56166845D01*
X108363558Y-56156652D01*
X108488978Y-56162018D01*
X108553444Y-56197661D01*
X108614796Y-56327852D01*
X108582531Y-56530123D01*
X108458668Y-56792989D01*
X108444663Y-56816625D01*
X108328725Y-56976142D01*
X108238948Y-57018574D01*
X108174948Y-56963866D01*
X108185449Y-56880256D01*
X108254537Y-56738218D01*
X108298200Y-56669254D01*
X108421129Y-56467221D01*
X108457097Y-56352258D01*
X108424015Y-56324500D01*
X108312110Y-56370328D01*
X108168879Y-56483302D01*
X108036009Y-56626651D01*
X107973100Y-56722226D01*
X107884605Y-56847029D01*
X107813096Y-56847994D01*
X107812764Y-56847664D01*
X107815959Y-56771734D01*
X107867118Y-56614655D01*
X107952247Y-56406141D01*
X108057350Y-56175904D01*
X108168434Y-55953657D01*
X108271503Y-55769111D01*
X108352564Y-55651981D01*
X108388165Y-55626000D01*
X108469554Y-55663770D01*
G36*
X110131102Y-56629237D02*
X110147129Y-56748354D01*
X110134162Y-56795019D01*
X110061144Y-56887521D01*
X109976461Y-56867377D01*
X109953791Y-56838230D01*
X109942831Y-56737779D01*
X109983379Y-56628257D01*
X110048546Y-56578500D01*
X110131102Y-56629237D01*
X110131102Y-56629237D01*
G37*
X110131102Y-56629237D02*
X110147129Y-56748354D01*
X110134162Y-56795019D01*
X110061144Y-56887521D01*
X109976461Y-56867377D01*
X109953791Y-56838230D01*
X109942831Y-56737779D01*
X109983379Y-56628257D01*
X110048546Y-56578500D01*
X110131102Y-56629237D01*
G36*
X100568194Y-55855599D02*
X100706191Y-55975392D01*
X100816901Y-56150269D01*
X100881389Y-56344493D01*
X100880717Y-56522327D01*
X100837422Y-56610946D01*
X100711053Y-56696841D01*
X100564556Y-56664704D01*
X100424946Y-56552218D01*
X100282059Y-56357375D01*
X100219124Y-56157822D01*
X100229105Y-56055757D01*
X100400329Y-56055757D01*
X100403891Y-56174327D01*
X100459673Y-56321152D01*
X100492350Y-56373870D01*
X100600852Y-56490347D01*
X100679468Y-56502213D01*
X100710962Y-56407241D01*
X100711000Y-56402129D01*
X100677042Y-56270416D01*
X100596923Y-56128900D01*
X100503273Y-56027630D01*
X100453399Y-56007000D01*
X100400329Y-56055757D01*
X100229105Y-56055757D01*
X100236264Y-55982558D01*
X100333603Y-55860585D01*
X100421846Y-55826627D01*
X100568194Y-55855599D01*
X100568194Y-55855599D01*
G37*
X100568194Y-55855599D02*
X100706191Y-55975392D01*
X100816901Y-56150269D01*
X100881389Y-56344493D01*
X100880717Y-56522327D01*
X100837422Y-56610946D01*
X100711053Y-56696841D01*
X100564556Y-56664704D01*
X100424946Y-56552218D01*
X100282059Y-56357375D01*
X100219124Y-56157822D01*
X100229105Y-56055757D01*
X100400329Y-56055757D01*
X100403891Y-56174327D01*
X100459673Y-56321152D01*
X100492350Y-56373870D01*
X100600852Y-56490347D01*
X100679468Y-56502213D01*
X100710962Y-56407241D01*
X100711000Y-56402129D01*
X100677042Y-56270416D01*
X100596923Y-56128900D01*
X100503273Y-56027630D01*
X100453399Y-56007000D01*
X100400329Y-56055757D01*
X100229105Y-56055757D01*
X100236264Y-55982558D01*
X100333603Y-55860585D01*
X100421846Y-55826627D01*
X100568194Y-55855599D01*
G36*
X107082563Y-55418411D02*
X107093934Y-55525072D01*
X107050591Y-55608920D01*
X107005829Y-55668459D01*
X107013991Y-55687181D01*
X107095688Y-55662718D01*
X107271532Y-55592699D01*
X107302913Y-55579910D01*
X107383035Y-55603632D01*
X107421444Y-55681252D01*
X107500866Y-55789871D01*
X107626115Y-55817895D01*
X107744315Y-55764648D01*
X107792359Y-55686004D01*
X107857758Y-55590538D01*
X107930076Y-55598917D01*
X107968186Y-55697423D01*
X107966623Y-55744124D01*
X107979032Y-55851400D01*
X108014248Y-55880000D01*
X108069239Y-55931732D01*
X108077000Y-55979529D01*
X108038437Y-56049629D01*
X107957835Y-56041236D01*
X107872222Y-56042787D01*
X107792841Y-56123141D01*
X107703835Y-56290265D01*
X107625465Y-56469026D01*
X107576833Y-56603132D01*
X107569000Y-56641307D01*
X107531436Y-56701527D01*
X107455888Y-56684413D01*
X107403825Y-56616406D01*
X107409910Y-56508797D01*
X107465774Y-56344167D01*
X107497632Y-56276420D01*
X107573837Y-56098692D01*
X107578210Y-55991588D01*
X107552864Y-55952764D01*
X107472049Y-55891755D01*
X107406619Y-55911266D01*
X107333678Y-56026690D01*
X107283250Y-56134000D01*
X107195547Y-56288862D01*
X107110023Y-56378815D01*
X107083105Y-56388000D01*
X107008788Y-56343917D01*
X107022813Y-56217313D01*
X107092750Y-56070500D01*
X107171397Y-55913148D01*
X107171143Y-55854988D01*
X107092536Y-55896127D01*
X106936124Y-56036676D01*
X106934094Y-56038657D01*
X106752347Y-56193486D01*
X106637250Y-56242639D01*
X106591730Y-56190296D01*
X106618715Y-56040637D01*
X106721132Y-55797843D01*
X106739546Y-55760832D01*
X106845698Y-55566288D01*
X106936952Y-55426835D01*
X106993915Y-55372030D01*
X106994666Y-55372000D01*
X107082563Y-55418411D01*
X107082563Y-55418411D01*
G37*
X107082563Y-55418411D02*
X107093934Y-55525072D01*
X107050591Y-55608920D01*
X107005829Y-55668459D01*
X107013991Y-55687181D01*
X107095688Y-55662718D01*
X107271532Y-55592699D01*
X107302913Y-55579910D01*
X107383035Y-55603632D01*
X107421444Y-55681252D01*
X107500866Y-55789871D01*
X107626115Y-55817895D01*
X107744315Y-55764648D01*
X107792359Y-55686004D01*
X107857758Y-55590538D01*
X107930076Y-55598917D01*
X107968186Y-55697423D01*
X107966623Y-55744124D01*
X107979032Y-55851400D01*
X108014248Y-55880000D01*
X108069239Y-55931732D01*
X108077000Y-55979529D01*
X108038437Y-56049629D01*
X107957835Y-56041236D01*
X107872222Y-56042787D01*
X107792841Y-56123141D01*
X107703835Y-56290265D01*
X107625465Y-56469026D01*
X107576833Y-56603132D01*
X107569000Y-56641307D01*
X107531436Y-56701527D01*
X107455888Y-56684413D01*
X107403825Y-56616406D01*
X107409910Y-56508797D01*
X107465774Y-56344167D01*
X107497632Y-56276420D01*
X107573837Y-56098692D01*
X107578210Y-55991588D01*
X107552864Y-55952764D01*
X107472049Y-55891755D01*
X107406619Y-55911266D01*
X107333678Y-56026690D01*
X107283250Y-56134000D01*
X107195547Y-56288862D01*
X107110023Y-56378815D01*
X107083105Y-56388000D01*
X107008788Y-56343917D01*
X107022813Y-56217313D01*
X107092750Y-56070500D01*
X107171397Y-55913148D01*
X107171143Y-55854988D01*
X107092536Y-55896127D01*
X106936124Y-56036676D01*
X106934094Y-56038657D01*
X106752347Y-56193486D01*
X106637250Y-56242639D01*
X106591730Y-56190296D01*
X106618715Y-56040637D01*
X106721132Y-55797843D01*
X106739546Y-55760832D01*
X106845698Y-55566288D01*
X106936952Y-55426835D01*
X106993915Y-55372030D01*
X106994666Y-55372000D01*
X107082563Y-55418411D01*
G36*
X101176257Y-55521630D02*
X101277379Y-55672292D01*
X101398361Y-55878563D01*
X101435057Y-55945768D01*
X101555038Y-56173648D01*
X101619676Y-56317156D01*
X101635337Y-56402925D01*
X101608383Y-56457585D01*
X101565795Y-56492896D01*
X101427644Y-56560394D01*
X101298790Y-56574538D01*
X101224125Y-56533238D01*
X101219000Y-56509055D01*
X101272012Y-56438836D01*
X101346000Y-56406399D01*
X101459917Y-56346994D01*
X101451037Y-56262933D01*
X101431653Y-56240820D01*
X101367386Y-56250081D01*
X101313836Y-56304054D01*
X101202646Y-56375296D01*
X101133296Y-56368699D01*
X101019229Y-56277130D01*
X100900847Y-56114084D01*
X100809083Y-55930092D01*
X100780072Y-55805835D01*
X100934822Y-55805835D01*
X100983632Y-55946645D01*
X101085776Y-56093387D01*
X101163072Y-56171149D01*
X101197287Y-56150832D01*
X101208382Y-56106139D01*
X101190899Y-55978940D01*
X101126217Y-55843104D01*
X101036370Y-55742375D01*
X100965120Y-55721176D01*
X100964983Y-55721260D01*
X100934822Y-55805835D01*
X100780072Y-55805835D01*
X100774737Y-55782987D01*
X100817823Y-55653834D01*
X100920027Y-55532094D01*
X101040104Y-55457612D01*
X101113855Y-55455372D01*
X101176257Y-55521630D01*
X101176257Y-55521630D01*
G37*
X101176257Y-55521630D02*
X101277379Y-55672292D01*
X101398361Y-55878563D01*
X101435057Y-55945768D01*
X101555038Y-56173648D01*
X101619676Y-56317156D01*
X101635337Y-56402925D01*
X101608383Y-56457585D01*
X101565795Y-56492896D01*
X101427644Y-56560394D01*
X101298790Y-56574538D01*
X101224125Y-56533238D01*
X101219000Y-56509055D01*
X101272012Y-56438836D01*
X101346000Y-56406399D01*
X101459917Y-56346994D01*
X101451037Y-56262933D01*
X101431653Y-56240820D01*
X101367386Y-56250081D01*
X101313836Y-56304054D01*
X101202646Y-56375296D01*
X101133296Y-56368699D01*
X101019229Y-56277130D01*
X100900847Y-56114084D01*
X100809083Y-55930092D01*
X100780072Y-55805835D01*
X100934822Y-55805835D01*
X100983632Y-55946645D01*
X101085776Y-56093387D01*
X101163072Y-56171149D01*
X101197287Y-56150832D01*
X101208382Y-56106139D01*
X101190899Y-55978940D01*
X101126217Y-55843104D01*
X101036370Y-55742375D01*
X100965120Y-55721176D01*
X100964983Y-55721260D01*
X100934822Y-55805835D01*
X100780072Y-55805835D01*
X100774737Y-55782987D01*
X100817823Y-55653834D01*
X100920027Y-55532094D01*
X101040104Y-55457612D01*
X101113855Y-55455372D01*
X101176257Y-55521630D01*
G36*
X106061253Y-54442596D02*
X106171477Y-54528012D01*
X106215440Y-54686637D01*
X106207184Y-54772775D01*
X106194474Y-54918663D01*
X106242439Y-54988376D01*
X106303274Y-55010516D01*
X106401633Y-55070696D01*
X106399943Y-55177044D01*
X106349584Y-55353617D01*
X106323750Y-55444070D01*
X106308614Y-55519761D01*
X106339259Y-55527588D01*
X106437073Y-55462957D01*
X106517179Y-55402549D01*
X106684901Y-55296487D01*
X106792657Y-55275240D01*
X106808993Y-55285093D01*
X106794102Y-55356296D01*
X106687701Y-55495845D01*
X106498036Y-55693486D01*
X106421481Y-55766970D01*
X106199330Y-55968849D01*
X106051160Y-56083210D01*
X105966369Y-56117269D01*
X105938465Y-56095740D01*
X105947924Y-55978504D01*
X105998742Y-55893509D01*
X106056822Y-55774357D01*
X106109638Y-55575920D01*
X106139678Y-55387875D01*
X106159837Y-55168101D01*
X106155206Y-55046829D01*
X106122220Y-54997345D01*
X106086732Y-54991000D01*
X105967767Y-54946877D01*
X105943343Y-54842396D01*
X105983808Y-54765968D01*
X106024901Y-54692579D01*
X105960458Y-54673521D01*
X105955532Y-54673500D01*
X105843069Y-54721115D01*
X105811262Y-54854832D01*
X105862224Y-55060953D01*
X105886835Y-55119298D01*
X105953469Y-55282951D01*
X105963554Y-55388295D01*
X105917983Y-55490293D01*
X105893475Y-55528633D01*
X105752691Y-55661385D01*
X105597987Y-55682135D01*
X105453883Y-55599921D01*
X105344901Y-55423783D01*
X105313548Y-55314841D01*
X105291869Y-55173515D01*
X105315489Y-55126802D01*
X105376304Y-55140216D01*
X105480877Y-55175449D01*
X105510443Y-55181500D01*
X105530430Y-55236004D01*
X105537000Y-55340250D01*
X105559413Y-55459575D01*
X105602492Y-55499000D01*
X105685803Y-55448452D01*
X105704641Y-55316257D01*
X105656568Y-55131583D01*
X105636907Y-55087095D01*
X105572996Y-54929442D01*
X105571725Y-54814167D01*
X105631071Y-54675779D01*
X105761243Y-54511461D01*
X105914573Y-54435406D01*
X106061253Y-54442596D01*
X106061253Y-54442596D01*
G37*
X106061253Y-54442596D02*
X106171477Y-54528012D01*
X106215440Y-54686637D01*
X106207184Y-54772775D01*
X106194474Y-54918663D01*
X106242439Y-54988376D01*
X106303274Y-55010516D01*
X106401633Y-55070696D01*
X106399943Y-55177044D01*
X106349584Y-55353617D01*
X106323750Y-55444070D01*
X106308614Y-55519761D01*
X106339259Y-55527588D01*
X106437073Y-55462957D01*
X106517179Y-55402549D01*
X106684901Y-55296487D01*
X106792657Y-55275240D01*
X106808993Y-55285093D01*
X106794102Y-55356296D01*
X106687701Y-55495845D01*
X106498036Y-55693486D01*
X106421481Y-55766970D01*
X106199330Y-55968849D01*
X106051160Y-56083210D01*
X105966369Y-56117269D01*
X105938465Y-56095740D01*
X105947924Y-55978504D01*
X105998742Y-55893509D01*
X106056822Y-55774357D01*
X106109638Y-55575920D01*
X106139678Y-55387875D01*
X106159837Y-55168101D01*
X106155206Y-55046829D01*
X106122220Y-54997345D01*
X106086732Y-54991000D01*
X105967767Y-54946877D01*
X105943343Y-54842396D01*
X105983808Y-54765968D01*
X106024901Y-54692579D01*
X105960458Y-54673521D01*
X105955532Y-54673500D01*
X105843069Y-54721115D01*
X105811262Y-54854832D01*
X105862224Y-55060953D01*
X105886835Y-55119298D01*
X105953469Y-55282951D01*
X105963554Y-55388295D01*
X105917983Y-55490293D01*
X105893475Y-55528633D01*
X105752691Y-55661385D01*
X105597987Y-55682135D01*
X105453883Y-55599921D01*
X105344901Y-55423783D01*
X105313548Y-55314841D01*
X105291869Y-55173515D01*
X105315489Y-55126802D01*
X105376304Y-55140216D01*
X105480877Y-55175449D01*
X105510443Y-55181500D01*
X105530430Y-55236004D01*
X105537000Y-55340250D01*
X105559413Y-55459575D01*
X105602492Y-55499000D01*
X105685803Y-55448452D01*
X105704641Y-55316257D01*
X105656568Y-55131583D01*
X105636907Y-55087095D01*
X105572996Y-54929442D01*
X105571725Y-54814167D01*
X105631071Y-54675779D01*
X105761243Y-54511461D01*
X105914573Y-54435406D01*
X106061253Y-54442596D01*
G36*
X101271771Y-54960594D02*
X101282500Y-54988747D01*
X101313584Y-55067644D01*
X101396525Y-55225434D01*
X101515854Y-55433322D01*
X101568250Y-55520664D01*
X101727131Y-55791284D01*
X101818291Y-55972587D01*
X101846728Y-56079379D01*
X101817437Y-56126463D01*
X101774625Y-56132222D01*
X101710925Y-56079504D01*
X101604754Y-55939290D01*
X101473613Y-55736032D01*
X101393625Y-55599975D01*
X101235997Y-55315989D01*
X101140776Y-55123185D01*
X101102921Y-55005138D01*
X101117391Y-54945421D01*
X101179145Y-54927609D01*
X101187250Y-54927500D01*
X101271771Y-54960594D01*
X101271771Y-54960594D01*
G37*
X101271771Y-54960594D02*
X101282500Y-54988747D01*
X101313584Y-55067644D01*
X101396525Y-55225434D01*
X101515854Y-55433322D01*
X101568250Y-55520664D01*
X101727131Y-55791284D01*
X101818291Y-55972587D01*
X101846728Y-56079379D01*
X101817437Y-56126463D01*
X101774625Y-56132222D01*
X101710925Y-56079504D01*
X101604754Y-55939290D01*
X101473613Y-55736032D01*
X101393625Y-55599975D01*
X101235997Y-55315989D01*
X101140776Y-55123185D01*
X101102921Y-55005138D01*
X101117391Y-54945421D01*
X101179145Y-54927609D01*
X101187250Y-54927500D01*
X101271771Y-54960594D01*
G36*
X101973756Y-55034923D02*
X102066368Y-55158853D01*
X102097512Y-55342751D01*
X102059589Y-55531575D01*
X102046180Y-55559359D01*
X102008882Y-55658661D01*
X102055946Y-55688947D01*
X102074015Y-55689500D01*
X102159672Y-55641548D01*
X102171500Y-55597997D01*
X102205749Y-55492574D01*
X102277566Y-55465192D01*
X102338399Y-55529090D01*
X102326506Y-55647667D01*
X102243480Y-55777427D01*
X102128542Y-55866695D01*
X102072053Y-55880000D01*
X101983399Y-55834994D01*
X101861818Y-55723086D01*
X101827894Y-55684627D01*
X101715498Y-55500973D01*
X101666531Y-55314120D01*
X101670199Y-55244956D01*
X101804523Y-55244956D01*
X101824014Y-55377558D01*
X101863398Y-55473919D01*
X101902891Y-55455864D01*
X101931642Y-55407973D01*
X101956728Y-55277571D01*
X101925138Y-55227238D01*
X101842575Y-55185455D01*
X101804523Y-55244956D01*
X101670199Y-55244956D01*
X101675257Y-55149619D01*
X101735940Y-55033022D01*
X101842843Y-54989880D01*
X101973756Y-55034923D01*
X101973756Y-55034923D01*
G37*
X101973756Y-55034923D02*
X102066368Y-55158853D01*
X102097512Y-55342751D01*
X102059589Y-55531575D01*
X102046180Y-55559359D01*
X102008882Y-55658661D01*
X102055946Y-55688947D01*
X102074015Y-55689500D01*
X102159672Y-55641548D01*
X102171500Y-55597997D01*
X102205749Y-55492574D01*
X102277566Y-55465192D01*
X102338399Y-55529090D01*
X102326506Y-55647667D01*
X102243480Y-55777427D01*
X102128542Y-55866695D01*
X102072053Y-55880000D01*
X101983399Y-55834994D01*
X101861818Y-55723086D01*
X101827894Y-55684627D01*
X101715498Y-55500973D01*
X101666531Y-55314120D01*
X101670199Y-55244956D01*
X101804523Y-55244956D01*
X101824014Y-55377558D01*
X101863398Y-55473919D01*
X101902891Y-55455864D01*
X101931642Y-55407973D01*
X101956728Y-55277571D01*
X101925138Y-55227238D01*
X101842575Y-55185455D01*
X101804523Y-55244956D01*
X101670199Y-55244956D01*
X101675257Y-55149619D01*
X101735940Y-55033022D01*
X101842843Y-54989880D01*
X101973756Y-55034923D01*
G36*
X102647057Y-54862902D02*
X102843475Y-55199848D01*
X102956140Y-55454748D01*
X102983256Y-55623296D01*
X102976251Y-55651978D01*
X102903587Y-55717984D01*
X102783491Y-55750594D01*
X102669746Y-55744207D01*
X102616137Y-55693221D01*
X102616000Y-55689500D01*
X102669184Y-55637907D01*
X102743000Y-55626000D01*
X102851241Y-55601346D01*
X102853207Y-55517566D01*
X102814364Y-55446050D01*
X102762205Y-55398370D01*
X102722079Y-55461925D01*
X102640698Y-55552688D01*
X102522274Y-55548551D01*
X102389730Y-55466566D01*
X102265992Y-55323786D01*
X102173984Y-55137259D01*
X102147312Y-55034414D01*
X102149204Y-54975788D01*
X102322567Y-54975788D01*
X102340145Y-55090017D01*
X102395915Y-55224233D01*
X102441046Y-55292625D01*
X102536163Y-55365657D01*
X102603879Y-55343900D01*
X102616000Y-55290879D01*
X102579765Y-55174210D01*
X102495670Y-55042325D01*
X102400627Y-54946443D01*
X102354120Y-54927500D01*
X102322567Y-54975788D01*
X102149204Y-54975788D01*
X102151817Y-54894836D01*
X102242799Y-54779673D01*
X102300485Y-54735585D01*
X102484134Y-54604816D01*
X102647057Y-54862902D01*
X102647057Y-54862902D01*
G37*
X102647057Y-54862902D02*
X102843475Y-55199848D01*
X102956140Y-55454748D01*
X102983256Y-55623296D01*
X102976251Y-55651978D01*
X102903587Y-55717984D01*
X102783491Y-55750594D01*
X102669746Y-55744207D01*
X102616137Y-55693221D01*
X102616000Y-55689500D01*
X102669184Y-55637907D01*
X102743000Y-55626000D01*
X102851241Y-55601346D01*
X102853207Y-55517566D01*
X102814364Y-55446050D01*
X102762205Y-55398370D01*
X102722079Y-55461925D01*
X102640698Y-55552688D01*
X102522274Y-55548551D01*
X102389730Y-55466566D01*
X102265992Y-55323786D01*
X102173984Y-55137259D01*
X102147312Y-55034414D01*
X102149204Y-54975788D01*
X102322567Y-54975788D01*
X102340145Y-55090017D01*
X102395915Y-55224233D01*
X102441046Y-55292625D01*
X102536163Y-55365657D01*
X102603879Y-55343900D01*
X102616000Y-55290879D01*
X102579765Y-55174210D01*
X102495670Y-55042325D01*
X102400627Y-54946443D01*
X102354120Y-54927500D01*
X102322567Y-54975788D01*
X102149204Y-54975788D01*
X102151817Y-54894836D01*
X102242799Y-54779673D01*
X102300485Y-54735585D01*
X102484134Y-54604816D01*
X102647057Y-54862902D01*
D12*
G04 #@! TO.C,C4*
X103743000Y-142859000D02*
X96743000Y-142859000D01*
X96743000Y-142859000D02*
X96743000Y-140859000D01*
X96743000Y-140859000D02*
X103743000Y-140859000D01*
X103743000Y-140859000D02*
X103743000Y-142859000D01*
G04 #@! TO.C,C5*
X96155000Y-154575000D02*
X103155000Y-154575000D01*
X103155000Y-154575000D02*
X103155000Y-156575000D01*
X103155000Y-156575000D02*
X96155000Y-156575000D01*
X96155000Y-156575000D02*
X96155000Y-154575000D01*
G04 #@! TO.C,C13*
X136922000Y-143541000D02*
X136922000Y-136541000D01*
X136922000Y-136541000D02*
X138922000Y-136541000D01*
X138922000Y-136541000D02*
X138922000Y-143541000D01*
X138922000Y-143541000D02*
X136922000Y-143541000D01*
G04 #@! TO.C,D11*
X116762520Y-59445460D02*
X118159520Y-59445460D01*
X112317520Y-59445460D02*
X110793520Y-59445460D01*
X112698520Y-58683460D02*
X112698520Y-60207460D01*
X112444520Y-58683460D02*
X112444520Y-60207460D01*
X112190520Y-59445460D02*
X112190520Y-60207460D01*
X112190520Y-60207460D02*
X116762520Y-60207460D01*
X116762520Y-60207460D02*
X116762520Y-58683460D01*
X116762520Y-58683460D02*
X112190520Y-58683460D01*
X112190520Y-58683460D02*
X112190520Y-59445460D01*
G04 #@! TO.C,D12*
X112190520Y-69859460D02*
X112190520Y-70621460D01*
X116762520Y-69859460D02*
X112190520Y-69859460D01*
X116762520Y-71383460D02*
X116762520Y-69859460D01*
X112190520Y-71383460D02*
X116762520Y-71383460D01*
X112190520Y-70621460D02*
X112190520Y-71383460D01*
X112444520Y-69859460D02*
X112444520Y-71383460D01*
X112698520Y-69859460D02*
X112698520Y-71383460D01*
X112317520Y-70621460D02*
X110793520Y-70621460D01*
X116762520Y-70621460D02*
X118159520Y-70621460D01*
G04 #@! TO.C,D13*
X116762520Y-80781460D02*
X118159520Y-80781460D01*
X112317520Y-80781460D02*
X110793520Y-80781460D01*
X112698520Y-80019460D02*
X112698520Y-81543460D01*
X112444520Y-80019460D02*
X112444520Y-81543460D01*
X112190520Y-80781460D02*
X112190520Y-81543460D01*
X112190520Y-81543460D02*
X116762520Y-81543460D01*
X116762520Y-81543460D02*
X116762520Y-80019460D01*
X116762520Y-80019460D02*
X112190520Y-80019460D01*
X112190520Y-80019460D02*
X112190520Y-80781460D01*
G04 #@! TO.C,D14*
X112190520Y-90179460D02*
X112190520Y-90941460D01*
X116762520Y-90179460D02*
X112190520Y-90179460D01*
X116762520Y-91703460D02*
X116762520Y-90179460D01*
X112190520Y-91703460D02*
X116762520Y-91703460D01*
X112190520Y-90941460D02*
X112190520Y-91703460D01*
X112444520Y-90179460D02*
X112444520Y-91703460D01*
X112698520Y-90179460D02*
X112698520Y-91703460D01*
X112317520Y-90941460D02*
X110793520Y-90941460D01*
X116762520Y-90941460D02*
X118159520Y-90941460D01*
G04 #@! TO.C,D15*
X116762520Y-101101460D02*
X118159520Y-101101460D01*
X112317520Y-101101460D02*
X110793520Y-101101460D01*
X112698520Y-100339460D02*
X112698520Y-101863460D01*
X112444520Y-100339460D02*
X112444520Y-101863460D01*
X112190520Y-101101460D02*
X112190520Y-101863460D01*
X112190520Y-101863460D02*
X116762520Y-101863460D01*
X116762520Y-101863460D02*
X116762520Y-100339460D01*
X116762520Y-100339460D02*
X112190520Y-100339460D01*
X112190520Y-100339460D02*
X112190520Y-101101460D01*
G04 #@! TO.C,D16*
X116762520Y-111261460D02*
X118159520Y-111261460D01*
X112317520Y-111261460D02*
X110793520Y-111261460D01*
X112698520Y-110499460D02*
X112698520Y-112023460D01*
X112444520Y-110499460D02*
X112444520Y-112023460D01*
X112190520Y-111261460D02*
X112190520Y-112023460D01*
X112190520Y-112023460D02*
X116762520Y-112023460D01*
X116762520Y-112023460D02*
X116762520Y-110499460D01*
X116762520Y-110499460D02*
X112190520Y-110499460D01*
X112190520Y-110499460D02*
X112190520Y-111261460D01*
G04 #@! TO.C,D17*
X111682520Y-120659460D02*
X111682520Y-121421460D01*
X116254520Y-120659460D02*
X111682520Y-120659460D01*
X116254520Y-122183460D02*
X116254520Y-120659460D01*
X111682520Y-122183460D02*
X116254520Y-122183460D01*
X111682520Y-121421460D02*
X111682520Y-122183460D01*
X111936520Y-120659460D02*
X111936520Y-122183460D01*
X112190520Y-120659460D02*
X112190520Y-122183460D01*
X111809520Y-121421460D02*
X110285520Y-121421460D01*
X116254520Y-121421460D02*
X117651520Y-121421460D01*
G04 #@! TO.C,D18*
X116254520Y-131581460D02*
X117651520Y-131581460D01*
X111809520Y-131581460D02*
X110285520Y-131581460D01*
X112190520Y-130819460D02*
X112190520Y-132343460D01*
X111936520Y-130819460D02*
X111936520Y-132343460D01*
X111682520Y-131581460D02*
X111682520Y-132343460D01*
X111682520Y-132343460D02*
X116254520Y-132343460D01*
X116254520Y-132343460D02*
X116254520Y-130819460D01*
X116254520Y-130819460D02*
X111682520Y-130819460D01*
X111682520Y-130819460D02*
X111682520Y-131581460D01*
G04 #@! TO.C,D27*
X84249480Y-59958540D02*
X82852480Y-59958540D01*
X88694480Y-59958540D02*
X90218480Y-59958540D01*
X88313480Y-60720540D02*
X88313480Y-59196540D01*
X88567480Y-60720540D02*
X88567480Y-59196540D01*
X88821480Y-59958540D02*
X88821480Y-59196540D01*
X88821480Y-59196540D02*
X84249480Y-59196540D01*
X84249480Y-59196540D02*
X84249480Y-60720540D01*
X84249480Y-60720540D02*
X88821480Y-60720540D01*
X88821480Y-60720540D02*
X88821480Y-59958540D01*
G04 #@! TO.C,D28*
X88821480Y-71388540D02*
X88821480Y-70626540D01*
X84249480Y-71388540D02*
X88821480Y-71388540D01*
X84249480Y-69864540D02*
X84249480Y-71388540D01*
X88821480Y-69864540D02*
X84249480Y-69864540D01*
X88821480Y-70626540D02*
X88821480Y-69864540D01*
X88567480Y-71388540D02*
X88567480Y-69864540D01*
X88313480Y-71388540D02*
X88313480Y-69864540D01*
X88694480Y-70626540D02*
X90218480Y-70626540D01*
X84249480Y-70626540D02*
X82852480Y-70626540D01*
G04 #@! TO.C,D29*
X84249480Y-80786540D02*
X82852480Y-80786540D01*
X88694480Y-80786540D02*
X90218480Y-80786540D01*
X88313480Y-81548540D02*
X88313480Y-80024540D01*
X88567480Y-81548540D02*
X88567480Y-80024540D01*
X88821480Y-80786540D02*
X88821480Y-80024540D01*
X88821480Y-80024540D02*
X84249480Y-80024540D01*
X84249480Y-80024540D02*
X84249480Y-81548540D01*
X84249480Y-81548540D02*
X88821480Y-81548540D01*
X88821480Y-81548540D02*
X88821480Y-80786540D01*
G04 #@! TO.C,D30*
X88821480Y-91708540D02*
X88821480Y-90946540D01*
X84249480Y-91708540D02*
X88821480Y-91708540D01*
X84249480Y-90184540D02*
X84249480Y-91708540D01*
X88821480Y-90184540D02*
X84249480Y-90184540D01*
X88821480Y-90946540D02*
X88821480Y-90184540D01*
X88567480Y-91708540D02*
X88567480Y-90184540D01*
X88313480Y-91708540D02*
X88313480Y-90184540D01*
X88694480Y-90946540D02*
X90218480Y-90946540D01*
X84249480Y-90946540D02*
X82852480Y-90946540D01*
G04 #@! TO.C,D31*
X84249480Y-101106540D02*
X82852480Y-101106540D01*
X88694480Y-101106540D02*
X90218480Y-101106540D01*
X88313480Y-101868540D02*
X88313480Y-100344540D01*
X88567480Y-101868540D02*
X88567480Y-100344540D01*
X88821480Y-101106540D02*
X88821480Y-100344540D01*
X88821480Y-100344540D02*
X84249480Y-100344540D01*
X84249480Y-100344540D02*
X84249480Y-101868540D01*
X84249480Y-101868540D02*
X88821480Y-101868540D01*
X88821480Y-101868540D02*
X88821480Y-101106540D01*
G04 #@! TO.C,D32*
X88821480Y-112028540D02*
X88821480Y-111266540D01*
X84249480Y-112028540D02*
X88821480Y-112028540D01*
X84249480Y-110504540D02*
X84249480Y-112028540D01*
X88821480Y-110504540D02*
X84249480Y-110504540D01*
X88821480Y-111266540D02*
X88821480Y-110504540D01*
X88567480Y-112028540D02*
X88567480Y-110504540D01*
X88313480Y-112028540D02*
X88313480Y-110504540D01*
X88694480Y-111266540D02*
X90218480Y-111266540D01*
X84249480Y-111266540D02*
X82852480Y-111266540D01*
G04 #@! TO.C,D33*
X84249480Y-121426540D02*
X82852480Y-121426540D01*
X88694480Y-121426540D02*
X90218480Y-121426540D01*
X88313480Y-122188540D02*
X88313480Y-120664540D01*
X88567480Y-122188540D02*
X88567480Y-120664540D01*
X88821480Y-121426540D02*
X88821480Y-120664540D01*
X88821480Y-120664540D02*
X84249480Y-120664540D01*
X84249480Y-120664540D02*
X84249480Y-122188540D01*
X84249480Y-122188540D02*
X88821480Y-122188540D01*
X88821480Y-122188540D02*
X88821480Y-121426540D01*
G04 #@! TO.C,D34*
X88821480Y-132348540D02*
X88821480Y-131586540D01*
X84249480Y-132348540D02*
X88821480Y-132348540D01*
X84249480Y-130824540D02*
X84249480Y-132348540D01*
X88821480Y-130824540D02*
X84249480Y-130824540D01*
X88821480Y-131586540D02*
X88821480Y-130824540D01*
X88567480Y-132348540D02*
X88567480Y-130824540D01*
X88313480Y-132348540D02*
X88313480Y-130824540D01*
X88694480Y-131586540D02*
X90218480Y-131586540D01*
X84249480Y-131586540D02*
X82852480Y-131586540D01*
G04 #@! TO.C,R1*
X111936000Y-69354000D02*
X106856000Y-69354000D01*
X106856000Y-69354000D02*
X106856000Y-66814000D01*
X106856000Y-66814000D02*
X111936000Y-66814000D01*
X111936000Y-66814000D02*
X111936000Y-69354000D01*
X111936000Y-68084000D02*
X113206000Y-68084000D01*
X106856000Y-68084000D02*
X105586000Y-68084000D01*
G04 #@! TO.C,R2*
X106856000Y-78244000D02*
X105586000Y-78244000D01*
X111936000Y-78244000D02*
X113206000Y-78244000D01*
X111936000Y-76974000D02*
X111936000Y-79514000D01*
X106856000Y-76974000D02*
X111936000Y-76974000D01*
X106856000Y-79514000D02*
X106856000Y-76974000D01*
X111936000Y-79514000D02*
X106856000Y-79514000D01*
G04 #@! TO.C,R3*
X111936000Y-89674000D02*
X106856000Y-89674000D01*
X106856000Y-89674000D02*
X106856000Y-87134000D01*
X106856000Y-87134000D02*
X111936000Y-87134000D01*
X111936000Y-87134000D02*
X111936000Y-89674000D01*
X111936000Y-88404000D02*
X113206000Y-88404000D01*
X106856000Y-88404000D02*
X105586000Y-88404000D01*
G04 #@! TO.C,R4*
X106856000Y-98564000D02*
X105586000Y-98564000D01*
X111936000Y-98564000D02*
X113206000Y-98564000D01*
X111936000Y-97294000D02*
X111936000Y-99834000D01*
X106856000Y-97294000D02*
X111936000Y-97294000D01*
X106856000Y-99834000D02*
X106856000Y-97294000D01*
X111936000Y-99834000D02*
X106856000Y-99834000D01*
G04 #@! TO.C,R5*
X106856000Y-108724000D02*
X105586000Y-108724000D01*
X111936000Y-108724000D02*
X113206000Y-108724000D01*
X111936000Y-107454000D02*
X111936000Y-109994000D01*
X106856000Y-107454000D02*
X111936000Y-107454000D01*
X106856000Y-109994000D02*
X106856000Y-107454000D01*
X111936000Y-109994000D02*
X106856000Y-109994000D01*
G04 #@! TO.C,R6*
X111428000Y-120154000D02*
X106348000Y-120154000D01*
X106348000Y-120154000D02*
X106348000Y-117614000D01*
X106348000Y-117614000D02*
X111428000Y-117614000D01*
X111428000Y-117614000D02*
X111428000Y-120154000D01*
X111428000Y-118884000D02*
X112698000Y-118884000D01*
X106348000Y-118884000D02*
X105078000Y-118884000D01*
G04 #@! TO.C,R7*
X111428000Y-130314000D02*
X106348000Y-130314000D01*
X106348000Y-130314000D02*
X106348000Y-127774000D01*
X106348000Y-127774000D02*
X111428000Y-127774000D01*
X111428000Y-127774000D02*
X111428000Y-130314000D01*
X111428000Y-129044000D02*
X112698000Y-129044000D01*
X106348000Y-129044000D02*
X105078000Y-129044000D01*
G04 #@! TO.C,R8*
X112014000Y-138303000D02*
X110744000Y-138303000D01*
X117094000Y-138303000D02*
X118364000Y-138303000D01*
X117094000Y-137033000D02*
X117094000Y-139573000D01*
X112014000Y-137033000D02*
X117094000Y-137033000D01*
X112014000Y-139573000D02*
X112014000Y-137033000D01*
X117094000Y-139573000D02*
X112014000Y-139573000D01*
G04 #@! TO.C,R9*
X117094000Y-142621000D02*
X112014000Y-142621000D01*
X112014000Y-142621000D02*
X112014000Y-140081000D01*
X112014000Y-140081000D02*
X117094000Y-140081000D01*
X117094000Y-140081000D02*
X117094000Y-142621000D01*
X117094000Y-141351000D02*
X118364000Y-141351000D01*
X112014000Y-141351000D02*
X110744000Y-141351000D01*
G04 #@! TO.C,R10*
X83996000Y-69354000D02*
X78916000Y-69354000D01*
X78916000Y-69354000D02*
X78916000Y-66814000D01*
X78916000Y-66814000D02*
X83996000Y-66814000D01*
X83996000Y-66814000D02*
X83996000Y-69354000D01*
X83996000Y-68084000D02*
X85266000Y-68084000D01*
X78916000Y-68084000D02*
X77646000Y-68084000D01*
G04 #@! TO.C,R11*
X78916000Y-78244000D02*
X77646000Y-78244000D01*
X83996000Y-78244000D02*
X85266000Y-78244000D01*
X83996000Y-76974000D02*
X83996000Y-79514000D01*
X78916000Y-76974000D02*
X83996000Y-76974000D01*
X78916000Y-79514000D02*
X78916000Y-76974000D01*
X83996000Y-79514000D02*
X78916000Y-79514000D01*
G04 #@! TO.C,R12*
X83996000Y-89674000D02*
X78916000Y-89674000D01*
X78916000Y-89674000D02*
X78916000Y-87134000D01*
X78916000Y-87134000D02*
X83996000Y-87134000D01*
X83996000Y-87134000D02*
X83996000Y-89674000D01*
X83996000Y-88404000D02*
X85266000Y-88404000D01*
X78916000Y-88404000D02*
X77646000Y-88404000D01*
G04 #@! TO.C,R13*
X78916000Y-98564000D02*
X77646000Y-98564000D01*
X83996000Y-98564000D02*
X85266000Y-98564000D01*
X83996000Y-97294000D02*
X83996000Y-99834000D01*
X78916000Y-97294000D02*
X83996000Y-97294000D01*
X78916000Y-99834000D02*
X78916000Y-97294000D01*
X83996000Y-99834000D02*
X78916000Y-99834000D01*
G04 #@! TO.C,R14*
X83996000Y-109994000D02*
X78916000Y-109994000D01*
X78916000Y-109994000D02*
X78916000Y-107454000D01*
X78916000Y-107454000D02*
X83996000Y-107454000D01*
X83996000Y-107454000D02*
X83996000Y-109994000D01*
X83996000Y-108724000D02*
X85266000Y-108724000D01*
X78916000Y-108724000D02*
X77646000Y-108724000D01*
G04 #@! TO.C,R15*
X78916000Y-118884000D02*
X77646000Y-118884000D01*
X83996000Y-118884000D02*
X85266000Y-118884000D01*
X83996000Y-117614000D02*
X83996000Y-120154000D01*
X78916000Y-117614000D02*
X83996000Y-117614000D01*
X78916000Y-120154000D02*
X78916000Y-117614000D01*
X83996000Y-120154000D02*
X78916000Y-120154000D01*
G04 #@! TO.C,R16*
X83996000Y-130314000D02*
X78916000Y-130314000D01*
X78916000Y-130314000D02*
X78916000Y-127774000D01*
X78916000Y-127774000D02*
X83996000Y-127774000D01*
X83996000Y-127774000D02*
X83996000Y-130314000D01*
X83996000Y-129044000D02*
X85266000Y-129044000D01*
X78916000Y-129044000D02*
X77646000Y-129044000D01*
G04 #@! TO.C,R17*
X79170000Y-140220000D02*
X77900000Y-140220000D01*
X84250000Y-140220000D02*
X85520000Y-140220000D01*
X84250000Y-138950000D02*
X84250000Y-141490000D01*
X79170000Y-138950000D02*
X84250000Y-138950000D01*
X79170000Y-141490000D02*
X79170000Y-138950000D01*
X84250000Y-141490000D02*
X79170000Y-141490000D01*
G04 #@! TO.C,R18*
X112014000Y-144399000D02*
X110744000Y-144399000D01*
X117094000Y-144399000D02*
X118364000Y-144399000D01*
X117094000Y-143129000D02*
X117094000Y-145669000D01*
X112014000Y-143129000D02*
X117094000Y-143129000D01*
X112014000Y-145669000D02*
X112014000Y-143129000D01*
X117094000Y-145669000D02*
X112014000Y-145669000D01*
G04 #@! TO.C,R19*
X96696000Y-128028000D02*
X96696000Y-126758000D01*
X96696000Y-133108000D02*
X96696000Y-134378000D01*
X97966000Y-133108000D02*
X95426000Y-133108000D01*
X97966000Y-128028000D02*
X97966000Y-133108000D01*
X95426000Y-128028000D02*
X97966000Y-128028000D01*
X95426000Y-133108000D02*
X95426000Y-128028000D01*
G04 #@! TO.C,R20*
X79248000Y-142367000D02*
X84328000Y-142367000D01*
X84328000Y-142367000D02*
X84328000Y-144907000D01*
X84328000Y-144907000D02*
X79248000Y-144907000D01*
X79248000Y-144907000D02*
X79248000Y-142367000D01*
X79248000Y-143637000D02*
X77978000Y-143637000D01*
X84328000Y-143637000D02*
X85598000Y-143637000D01*
G04 #@! TO.C,R21*
X125349000Y-151828500D02*
X125349000Y-153098500D01*
X125349000Y-146748500D02*
X125349000Y-145478500D01*
X124079000Y-146748500D02*
X126619000Y-146748500D01*
X124079000Y-151828500D02*
X124079000Y-146748500D01*
X126619000Y-151828500D02*
X124079000Y-151828500D01*
X126619000Y-146748500D02*
X126619000Y-151828500D01*
D14*
G04 #@! TO.C,U2*
X101076000Y-153917000D02*
X102446000Y-153917000D01*
X102446000Y-153917000D02*
X102446000Y-143517000D01*
X102446000Y-143517000D02*
X97706000Y-143517000D01*
X97706000Y-143517000D02*
X97706000Y-153917000D01*
X97706000Y-153917000D02*
X99076000Y-153917000D01*
X105276000Y-153917000D02*
X105276000Y-143517000D01*
X105276000Y-143517000D02*
X94876000Y-143517000D01*
X94876000Y-143517000D02*
X94876000Y-153917000D01*
X94876000Y-153917000D02*
X105276000Y-153917000D01*
X99076000Y-153917000D02*
G75*
G02X101076000Y-153917000I1000000J0D01*
G01*
D12*
G04 #@! TO.C,P3*
X95631000Y-122428000D02*
X95631000Y-102108000D01*
X100711000Y-104648000D02*
X100711000Y-122428000D01*
X95631000Y-122428000D02*
X100711000Y-122428000D01*
X95631000Y-102108000D02*
X98171000Y-102108000D01*
X100991000Y-103378000D02*
X100991000Y-101828000D01*
X98171000Y-102108000D02*
X98171000Y-104648000D01*
X98171000Y-104648000D02*
X100711000Y-104648000D01*
X100991000Y-101828000D02*
X99441000Y-101828000D01*
G04 #@! TO.C,P8*
X125420380Y-101703095D02*
X124420380Y-101703095D01*
X124420380Y-101322142D01*
X124468000Y-101226904D01*
X124515619Y-101179285D01*
X124610857Y-101131666D01*
X124753714Y-101131666D01*
X124848952Y-101179285D01*
X124896571Y-101226904D01*
X124944190Y-101322142D01*
X124944190Y-101703095D01*
X124848952Y-100560238D02*
X124801333Y-100655476D01*
X124753714Y-100703095D01*
X124658476Y-100750714D01*
X124610857Y-100750714D01*
X124515619Y-100703095D01*
X124468000Y-100655476D01*
X124420380Y-100560238D01*
X124420380Y-100369761D01*
X124468000Y-100274523D01*
X124515619Y-100226904D01*
X124610857Y-100179285D01*
X124658476Y-100179285D01*
X124753714Y-100226904D01*
X124801333Y-100274523D01*
X124848952Y-100369761D01*
X124848952Y-100560238D01*
X124896571Y-100655476D01*
X124944190Y-100703095D01*
X125039428Y-100750714D01*
X125229904Y-100750714D01*
X125325142Y-100703095D01*
X125372761Y-100655476D01*
X125420380Y-100560238D01*
X125420380Y-100369761D01*
X125372761Y-100274523D01*
X125325142Y-100226904D01*
X125229904Y-100179285D01*
X125039428Y-100179285D01*
X124944190Y-100226904D01*
X124896571Y-100274523D01*
X124848952Y-100369761D01*
X131786380Y-98305380D02*
X132500666Y-98305380D01*
X132643523Y-98353000D01*
X132738761Y-98448238D01*
X132786380Y-98591095D01*
X132786380Y-98686333D01*
X132500666Y-97876809D02*
X132500666Y-97400619D01*
X132786380Y-97972047D02*
X131786380Y-97638714D01*
X132786380Y-97305380D01*
X132691142Y-96400619D02*
X132738761Y-96448238D01*
X132786380Y-96591095D01*
X132786380Y-96686333D01*
X132738761Y-96829190D01*
X132643523Y-96924428D01*
X132548285Y-96972047D01*
X132357809Y-97019666D01*
X132214952Y-97019666D01*
X132024476Y-96972047D01*
X131929238Y-96924428D01*
X131834000Y-96829190D01*
X131786380Y-96686333D01*
X131786380Y-96591095D01*
X131834000Y-96448238D01*
X131881619Y-96400619D01*
X132786380Y-95972047D02*
X131786380Y-95972047D01*
X132786380Y-95400619D02*
X132214952Y-95829190D01*
X131786380Y-95400619D02*
X132357809Y-95972047D01*
X132738761Y-95019666D02*
X132786380Y-94876809D01*
X132786380Y-94638714D01*
X132738761Y-94543476D01*
X132691142Y-94495857D01*
X132595904Y-94448238D01*
X132500666Y-94448238D01*
X132405428Y-94495857D01*
X132357809Y-94543476D01*
X132310190Y-94638714D01*
X132262571Y-94829190D01*
X132214952Y-94924428D01*
X132167333Y-94972047D01*
X132072095Y-95019666D01*
X131976857Y-95019666D01*
X131881619Y-94972047D01*
X131834000Y-94924428D01*
X131786380Y-94829190D01*
X131786380Y-94591095D01*
X131834000Y-94448238D01*
X132881619Y-94257761D02*
X132881619Y-93495857D01*
X132786380Y-93257761D02*
X131786380Y-93257761D01*
X131786380Y-92876809D01*
X131834000Y-92781571D01*
X131881619Y-92733952D01*
X131976857Y-92686333D01*
X132119714Y-92686333D01*
X132214952Y-92733952D01*
X132262571Y-92781571D01*
X132310190Y-92876809D01*
X132310190Y-93257761D01*
X132500666Y-92305380D02*
X132500666Y-91829190D01*
X132786380Y-92400619D02*
X131786380Y-92067285D01*
X132786380Y-91733952D01*
X132786380Y-91400619D02*
X131786380Y-91400619D01*
X132786380Y-90829190D01*
X131786380Y-90829190D01*
X132262571Y-90353000D02*
X132262571Y-90019666D01*
X132786380Y-89876809D02*
X132786380Y-90353000D01*
X131786380Y-90353000D01*
X131786380Y-89876809D01*
X132786380Y-88972047D02*
X132786380Y-89448238D01*
X131786380Y-89448238D01*
G04 #@! TO.C,P9*
X135024904Y-102242880D02*
X135024904Y-101242880D01*
X135405857Y-101242880D01*
X135501095Y-101290500D01*
X135548714Y-101338119D01*
X135596333Y-101433357D01*
X135596333Y-101576214D01*
X135548714Y-101671452D01*
X135501095Y-101719071D01*
X135405857Y-101766690D01*
X135024904Y-101766690D01*
X136072523Y-102242880D02*
X136263000Y-102242880D01*
X136358238Y-102195261D01*
X136405857Y-102147642D01*
X136501095Y-102004785D01*
X136548714Y-101814309D01*
X136548714Y-101433357D01*
X136501095Y-101338119D01*
X136453476Y-101290500D01*
X136358238Y-101242880D01*
X136167761Y-101242880D01*
X136072523Y-101290500D01*
X136024904Y-101338119D01*
X135977285Y-101433357D01*
X135977285Y-101671452D01*
X136024904Y-101766690D01*
X136072523Y-101814309D01*
X136167761Y-101861928D01*
X136358238Y-101861928D01*
X136453476Y-101814309D01*
X136501095Y-101766690D01*
X136548714Y-101671452D01*
X132881714Y-120466738D02*
X133738857Y-120466738D01*
X133834095Y-120514357D01*
X133881714Y-120609595D01*
X133881714Y-120657214D01*
X132548380Y-120466738D02*
X132596000Y-120514357D01*
X132643619Y-120466738D01*
X132596000Y-120419119D01*
X132548380Y-120466738D01*
X132643619Y-120466738D01*
X133548380Y-119561976D02*
X133024571Y-119561976D01*
X132929333Y-119609595D01*
X132881714Y-119704833D01*
X132881714Y-119895309D01*
X132929333Y-119990547D01*
X133500761Y-119561976D02*
X133548380Y-119657214D01*
X133548380Y-119895309D01*
X133500761Y-119990547D01*
X133405523Y-120038166D01*
X133310285Y-120038166D01*
X133215047Y-119990547D01*
X133167428Y-119895309D01*
X133167428Y-119657214D01*
X133119809Y-119561976D01*
X133500761Y-118657214D02*
X133548380Y-118752452D01*
X133548380Y-118942928D01*
X133500761Y-119038166D01*
X133453142Y-119085785D01*
X133357904Y-119133404D01*
X133072190Y-119133404D01*
X132976952Y-119085785D01*
X132929333Y-119038166D01*
X132881714Y-118942928D01*
X132881714Y-118752452D01*
X132929333Y-118657214D01*
X133548380Y-118228642D02*
X132548380Y-118228642D01*
X133167428Y-118133404D02*
X133548380Y-117847690D01*
X132881714Y-117847690D02*
X133262666Y-118228642D01*
X133548380Y-117419119D02*
X132548380Y-117419119D01*
X132929333Y-117419119D02*
X132881714Y-117323880D01*
X132881714Y-117133404D01*
X132929333Y-117038166D01*
X132976952Y-116990547D01*
X133072190Y-116942928D01*
X133357904Y-116942928D01*
X133453142Y-116990547D01*
X133500761Y-117038166D01*
X133548380Y-117133404D01*
X133548380Y-117323880D01*
X133500761Y-117419119D01*
X133548380Y-116371500D02*
X133500761Y-116466738D01*
X133453142Y-116514357D01*
X133357904Y-116561976D01*
X133072190Y-116561976D01*
X132976952Y-116514357D01*
X132929333Y-116466738D01*
X132881714Y-116371500D01*
X132881714Y-116228642D01*
X132929333Y-116133404D01*
X132976952Y-116085785D01*
X133072190Y-116038166D01*
X133357904Y-116038166D01*
X133453142Y-116085785D01*
X133500761Y-116133404D01*
X133548380Y-116228642D01*
X133548380Y-116371500D01*
X133548380Y-115181023D02*
X133024571Y-115181023D01*
X132929333Y-115228642D01*
X132881714Y-115323880D01*
X132881714Y-115514357D01*
X132929333Y-115609595D01*
X133500761Y-115181023D02*
X133548380Y-115276261D01*
X133548380Y-115514357D01*
X133500761Y-115609595D01*
X133405523Y-115657214D01*
X133310285Y-115657214D01*
X133215047Y-115609595D01*
X133167428Y-115514357D01*
X133167428Y-115276261D01*
X133119809Y-115181023D01*
X133548380Y-114704833D02*
X132881714Y-114704833D01*
X133072190Y-114704833D02*
X132976952Y-114657214D01*
X132929333Y-114609595D01*
X132881714Y-114514357D01*
X132881714Y-114419119D01*
X133548380Y-113657214D02*
X132548380Y-113657214D01*
X133500761Y-113657214D02*
X133548380Y-113752452D01*
X133548380Y-113942928D01*
X133500761Y-114038166D01*
X133453142Y-114085785D01*
X133357904Y-114133404D01*
X133072190Y-114133404D01*
X132976952Y-114085785D01*
X132929333Y-114038166D01*
X132881714Y-113942928D01*
X132881714Y-113752452D01*
X132929333Y-113657214D01*
X133548380Y-112419119D02*
X132881714Y-112419119D01*
X132976952Y-112419119D02*
X132929333Y-112371500D01*
X132881714Y-112276261D01*
X132881714Y-112133404D01*
X132929333Y-112038166D01*
X133024571Y-111990547D01*
X133548380Y-111990547D01*
X133024571Y-111990547D02*
X132929333Y-111942928D01*
X132881714Y-111847690D01*
X132881714Y-111704833D01*
X132929333Y-111609595D01*
X133024571Y-111561976D01*
X133548380Y-111561976D01*
X133548380Y-110657214D02*
X133024571Y-110657214D01*
X132929333Y-110704833D01*
X132881714Y-110800071D01*
X132881714Y-110990547D01*
X132929333Y-111085785D01*
X133500761Y-110657214D02*
X133548380Y-110752452D01*
X133548380Y-110990547D01*
X133500761Y-111085785D01*
X133405523Y-111133404D01*
X133310285Y-111133404D01*
X133215047Y-111085785D01*
X133167428Y-110990547D01*
X133167428Y-110752452D01*
X133119809Y-110657214D01*
X133548380Y-110181023D02*
X132881714Y-110181023D01*
X132548380Y-110181023D02*
X132596000Y-110228642D01*
X132643619Y-110181023D01*
X132596000Y-110133404D01*
X132548380Y-110181023D01*
X132643619Y-110181023D01*
X132881714Y-109704833D02*
X133548380Y-109704833D01*
X132976952Y-109704833D02*
X132929333Y-109657214D01*
X132881714Y-109561976D01*
X132881714Y-109419119D01*
X132929333Y-109323880D01*
X133024571Y-109276261D01*
X133548380Y-109276261D01*
G04 #@! TO.C,C4*
X95083333Y-142851142D02*
X95035714Y-142898761D01*
X94892857Y-142946380D01*
X94797619Y-142946380D01*
X94654761Y-142898761D01*
X94559523Y-142803523D01*
X94511904Y-142708285D01*
X94464285Y-142517809D01*
X94464285Y-142374952D01*
X94511904Y-142184476D01*
X94559523Y-142089238D01*
X94654761Y-141994000D01*
X94797619Y-141946380D01*
X94892857Y-141946380D01*
X95035714Y-141994000D01*
X95083333Y-142041619D01*
X95940476Y-142279714D02*
X95940476Y-142946380D01*
X95702380Y-141898761D02*
X95464285Y-142613047D01*
X96083333Y-142613047D01*
X99238404Y-142146261D02*
X98875547Y-142146261D01*
X99056976Y-142146261D02*
X99056976Y-141511261D01*
X98996500Y-141601976D01*
X98936023Y-141662452D01*
X98875547Y-141692690D01*
X99631500Y-141511261D02*
X99691976Y-141511261D01*
X99752452Y-141541500D01*
X99782690Y-141571738D01*
X99812928Y-141632214D01*
X99843166Y-141753166D01*
X99843166Y-141904357D01*
X99812928Y-142025309D01*
X99782690Y-142085785D01*
X99752452Y-142116023D01*
X99691976Y-142146261D01*
X99631500Y-142146261D01*
X99571023Y-142116023D01*
X99540785Y-142085785D01*
X99510547Y-142025309D01*
X99480309Y-141904357D01*
X99480309Y-141753166D01*
X99510547Y-141632214D01*
X99540785Y-141571738D01*
X99571023Y-141541500D01*
X99631500Y-141511261D01*
X100236261Y-141511261D02*
X100296738Y-141511261D01*
X100357214Y-141541500D01*
X100387452Y-141571738D01*
X100417690Y-141632214D01*
X100447928Y-141753166D01*
X100447928Y-141904357D01*
X100417690Y-142025309D01*
X100387452Y-142085785D01*
X100357214Y-142116023D01*
X100296738Y-142146261D01*
X100236261Y-142146261D01*
X100175785Y-142116023D01*
X100145547Y-142085785D01*
X100115309Y-142025309D01*
X100085071Y-141904357D01*
X100085071Y-141753166D01*
X100115309Y-141632214D01*
X100145547Y-141571738D01*
X100175785Y-141541500D01*
X100236261Y-141511261D01*
X100720071Y-141722928D02*
X100720071Y-142146261D01*
X100720071Y-141783404D02*
X100750309Y-141753166D01*
X100810785Y-141722928D01*
X100901500Y-141722928D01*
X100961976Y-141753166D01*
X100992214Y-141813642D01*
X100992214Y-142146261D01*
G04 #@! TO.C,C5*
X94702333Y-155932142D02*
X94654714Y-155979761D01*
X94511857Y-156027380D01*
X94416619Y-156027380D01*
X94273761Y-155979761D01*
X94178523Y-155884523D01*
X94130904Y-155789285D01*
X94083285Y-155598809D01*
X94083285Y-155455952D01*
X94130904Y-155265476D01*
X94178523Y-155170238D01*
X94273761Y-155075000D01*
X94416619Y-155027380D01*
X94511857Y-155027380D01*
X94654714Y-155075000D01*
X94702333Y-155122619D01*
X95607095Y-155027380D02*
X95130904Y-155027380D01*
X95083285Y-155503571D01*
X95130904Y-155455952D01*
X95226142Y-155408333D01*
X95464238Y-155408333D01*
X95559476Y-155455952D01*
X95607095Y-155503571D01*
X95654714Y-155598809D01*
X95654714Y-155836904D01*
X95607095Y-155932142D01*
X95559476Y-155979761D01*
X95464238Y-156027380D01*
X95226142Y-156027380D01*
X95130904Y-155979761D01*
X95083285Y-155932142D01*
X99111404Y-155862261D02*
X98748547Y-155862261D01*
X98929976Y-155862261D02*
X98929976Y-155227261D01*
X98869500Y-155317976D01*
X98809023Y-155378452D01*
X98748547Y-155408690D01*
X99504500Y-155227261D02*
X99564976Y-155227261D01*
X99625452Y-155257500D01*
X99655690Y-155287738D01*
X99685928Y-155348214D01*
X99716166Y-155469166D01*
X99716166Y-155620357D01*
X99685928Y-155741309D01*
X99655690Y-155801785D01*
X99625452Y-155832023D01*
X99564976Y-155862261D01*
X99504500Y-155862261D01*
X99444023Y-155832023D01*
X99413785Y-155801785D01*
X99383547Y-155741309D01*
X99353309Y-155620357D01*
X99353309Y-155469166D01*
X99383547Y-155348214D01*
X99413785Y-155287738D01*
X99444023Y-155257500D01*
X99504500Y-155227261D01*
X100109261Y-155227261D02*
X100169738Y-155227261D01*
X100230214Y-155257500D01*
X100260452Y-155287738D01*
X100290690Y-155348214D01*
X100320928Y-155469166D01*
X100320928Y-155620357D01*
X100290690Y-155741309D01*
X100260452Y-155801785D01*
X100230214Y-155832023D01*
X100169738Y-155862261D01*
X100109261Y-155862261D01*
X100048785Y-155832023D01*
X100018547Y-155801785D01*
X99988309Y-155741309D01*
X99958071Y-155620357D01*
X99958071Y-155469166D01*
X99988309Y-155348214D01*
X100018547Y-155287738D01*
X100048785Y-155257500D01*
X100109261Y-155227261D01*
X100593071Y-155438928D02*
X100593071Y-155862261D01*
X100593071Y-155499404D02*
X100623309Y-155469166D01*
X100683785Y-155438928D01*
X100774500Y-155438928D01*
X100834976Y-155469166D01*
X100865214Y-155529642D01*
X100865214Y-155862261D01*
G04 #@! TO.C,C13*
X138279142Y-146104857D02*
X138326761Y-146152476D01*
X138374380Y-146295333D01*
X138374380Y-146390571D01*
X138326761Y-146533428D01*
X138231523Y-146628666D01*
X138136285Y-146676285D01*
X137945809Y-146723904D01*
X137802952Y-146723904D01*
X137612476Y-146676285D01*
X137517238Y-146628666D01*
X137422000Y-146533428D01*
X137374380Y-146390571D01*
X137374380Y-146295333D01*
X137422000Y-146152476D01*
X137469619Y-146104857D01*
X138374380Y-145152476D02*
X138374380Y-145723904D01*
X138374380Y-145438190D02*
X137374380Y-145438190D01*
X137517238Y-145533428D01*
X137612476Y-145628666D01*
X137660095Y-145723904D01*
X137374380Y-144819142D02*
X137374380Y-144200095D01*
X137755333Y-144533428D01*
X137755333Y-144390571D01*
X137802952Y-144295333D01*
X137850571Y-144247714D01*
X137945809Y-144200095D01*
X138183904Y-144200095D01*
X138279142Y-144247714D01*
X138326761Y-144295333D01*
X138374380Y-144390571D01*
X138374380Y-144676285D01*
X138326761Y-144771523D01*
X138279142Y-144819142D01*
X137469619Y-141215285D02*
X137422000Y-141167666D01*
X137374380Y-141072428D01*
X137374380Y-140834333D01*
X137422000Y-140739095D01*
X137469619Y-140691476D01*
X137564857Y-140643857D01*
X137660095Y-140643857D01*
X137802952Y-140691476D01*
X138374380Y-141262904D01*
X138374380Y-140643857D01*
X137469619Y-140262904D02*
X137422000Y-140215285D01*
X137374380Y-140120047D01*
X137374380Y-139881952D01*
X137422000Y-139786714D01*
X137469619Y-139739095D01*
X137564857Y-139691476D01*
X137660095Y-139691476D01*
X137802952Y-139739095D01*
X138374380Y-140310523D01*
X138374380Y-139691476D01*
X137707714Y-139262904D02*
X138374380Y-139262904D01*
X137802952Y-139262904D02*
X137755333Y-139215285D01*
X137707714Y-139120047D01*
X137707714Y-138977190D01*
X137755333Y-138881952D01*
X137850571Y-138834333D01*
X138374380Y-138834333D01*
G04 #@! TO.C,D11*
X121150214Y-59761380D02*
X121150214Y-58761380D01*
X121388309Y-58761380D01*
X121531166Y-58809000D01*
X121626404Y-58904238D01*
X121674023Y-58999476D01*
X121721642Y-59189952D01*
X121721642Y-59332809D01*
X121674023Y-59523285D01*
X121626404Y-59618523D01*
X121531166Y-59713761D01*
X121388309Y-59761380D01*
X121150214Y-59761380D01*
X122674023Y-59761380D02*
X122102595Y-59761380D01*
X122388309Y-59761380D02*
X122388309Y-58761380D01*
X122293071Y-58904238D01*
X122197833Y-58999476D01*
X122102595Y-59047095D01*
X123626404Y-59761380D02*
X123054976Y-59761380D01*
X123340690Y-59761380D02*
X123340690Y-58761380D01*
X123245452Y-58904238D01*
X123150214Y-58999476D01*
X123054976Y-59047095D01*
G04 #@! TO.C,D12*
X104943214Y-71076380D02*
X104943214Y-70076380D01*
X105181309Y-70076380D01*
X105324166Y-70124000D01*
X105419404Y-70219238D01*
X105467023Y-70314476D01*
X105514642Y-70504952D01*
X105514642Y-70647809D01*
X105467023Y-70838285D01*
X105419404Y-70933523D01*
X105324166Y-71028761D01*
X105181309Y-71076380D01*
X104943214Y-71076380D01*
X106467023Y-71076380D02*
X105895595Y-71076380D01*
X106181309Y-71076380D02*
X106181309Y-70076380D01*
X106086071Y-70219238D01*
X105990833Y-70314476D01*
X105895595Y-70362095D01*
X106847976Y-70171619D02*
X106895595Y-70124000D01*
X106990833Y-70076380D01*
X107228928Y-70076380D01*
X107324166Y-70124000D01*
X107371785Y-70171619D01*
X107419404Y-70266857D01*
X107419404Y-70362095D01*
X107371785Y-70504952D01*
X106800357Y-71076380D01*
X107419404Y-71076380D01*
G04 #@! TO.C,D13*
X104943214Y-81299880D02*
X104943214Y-80299880D01*
X105181309Y-80299880D01*
X105324166Y-80347500D01*
X105419404Y-80442738D01*
X105467023Y-80537976D01*
X105514642Y-80728452D01*
X105514642Y-80871309D01*
X105467023Y-81061785D01*
X105419404Y-81157023D01*
X105324166Y-81252261D01*
X105181309Y-81299880D01*
X104943214Y-81299880D01*
X106467023Y-81299880D02*
X105895595Y-81299880D01*
X106181309Y-81299880D02*
X106181309Y-80299880D01*
X106086071Y-80442738D01*
X105990833Y-80537976D01*
X105895595Y-80585595D01*
X106800357Y-80299880D02*
X107419404Y-80299880D01*
X107086071Y-80680833D01*
X107228928Y-80680833D01*
X107324166Y-80728452D01*
X107371785Y-80776071D01*
X107419404Y-80871309D01*
X107419404Y-81109404D01*
X107371785Y-81204642D01*
X107324166Y-81252261D01*
X107228928Y-81299880D01*
X106943214Y-81299880D01*
X106847976Y-81252261D01*
X106800357Y-81204642D01*
G04 #@! TO.C,D14*
X105260714Y-91205880D02*
X105260714Y-90205880D01*
X105498809Y-90205880D01*
X105641666Y-90253500D01*
X105736904Y-90348738D01*
X105784523Y-90443976D01*
X105832142Y-90634452D01*
X105832142Y-90777309D01*
X105784523Y-90967785D01*
X105736904Y-91063023D01*
X105641666Y-91158261D01*
X105498809Y-91205880D01*
X105260714Y-91205880D01*
X106784523Y-91205880D02*
X106213095Y-91205880D01*
X106498809Y-91205880D02*
X106498809Y-90205880D01*
X106403571Y-90348738D01*
X106308333Y-90443976D01*
X106213095Y-90491595D01*
X107641666Y-90539214D02*
X107641666Y-91205880D01*
X107403571Y-90158261D02*
X107165476Y-90872547D01*
X107784523Y-90872547D01*
G04 #@! TO.C,D15*
X105211714Y-101417380D02*
X105211714Y-100417380D01*
X105449809Y-100417380D01*
X105592666Y-100465000D01*
X105687904Y-100560238D01*
X105735523Y-100655476D01*
X105783142Y-100845952D01*
X105783142Y-100988809D01*
X105735523Y-101179285D01*
X105687904Y-101274523D01*
X105592666Y-101369761D01*
X105449809Y-101417380D01*
X105211714Y-101417380D01*
X106735523Y-101417380D02*
X106164095Y-101417380D01*
X106449809Y-101417380D02*
X106449809Y-100417380D01*
X106354571Y-100560238D01*
X106259333Y-100655476D01*
X106164095Y-100703095D01*
X107640285Y-100417380D02*
X107164095Y-100417380D01*
X107116476Y-100893571D01*
X107164095Y-100845952D01*
X107259333Y-100798333D01*
X107497428Y-100798333D01*
X107592666Y-100845952D01*
X107640285Y-100893571D01*
X107687904Y-100988809D01*
X107687904Y-101226904D01*
X107640285Y-101322142D01*
X107592666Y-101369761D01*
X107497428Y-101417380D01*
X107259333Y-101417380D01*
X107164095Y-101369761D01*
X107116476Y-101322142D01*
G04 #@! TO.C,D16*
X105211714Y-111704380D02*
X105211714Y-110704380D01*
X105449809Y-110704380D01*
X105592666Y-110752000D01*
X105687904Y-110847238D01*
X105735523Y-110942476D01*
X105783142Y-111132952D01*
X105783142Y-111275809D01*
X105735523Y-111466285D01*
X105687904Y-111561523D01*
X105592666Y-111656761D01*
X105449809Y-111704380D01*
X105211714Y-111704380D01*
X106735523Y-111704380D02*
X106164095Y-111704380D01*
X106449809Y-111704380D02*
X106449809Y-110704380D01*
X106354571Y-110847238D01*
X106259333Y-110942476D01*
X106164095Y-110990095D01*
X107592666Y-110704380D02*
X107402190Y-110704380D01*
X107306952Y-110752000D01*
X107259333Y-110799619D01*
X107164095Y-110942476D01*
X107116476Y-111132952D01*
X107116476Y-111513904D01*
X107164095Y-111609142D01*
X107211714Y-111656761D01*
X107306952Y-111704380D01*
X107497428Y-111704380D01*
X107592666Y-111656761D01*
X107640285Y-111609142D01*
X107687904Y-111513904D01*
X107687904Y-111275809D01*
X107640285Y-111180571D01*
X107592666Y-111132952D01*
X107497428Y-111085333D01*
X107306952Y-111085333D01*
X107211714Y-111132952D01*
X107164095Y-111180571D01*
X107116476Y-111275809D01*
G04 #@! TO.C,D17*
X104703714Y-121991380D02*
X104703714Y-120991380D01*
X104941809Y-120991380D01*
X105084666Y-121039000D01*
X105179904Y-121134238D01*
X105227523Y-121229476D01*
X105275142Y-121419952D01*
X105275142Y-121562809D01*
X105227523Y-121753285D01*
X105179904Y-121848523D01*
X105084666Y-121943761D01*
X104941809Y-121991380D01*
X104703714Y-121991380D01*
X106227523Y-121991380D02*
X105656095Y-121991380D01*
X105941809Y-121991380D02*
X105941809Y-120991380D01*
X105846571Y-121134238D01*
X105751333Y-121229476D01*
X105656095Y-121277095D01*
X106560857Y-120991380D02*
X107227523Y-120991380D01*
X106798952Y-121991380D01*
G04 #@! TO.C,D18*
X104703714Y-132024380D02*
X104703714Y-131024380D01*
X104941809Y-131024380D01*
X105084666Y-131072000D01*
X105179904Y-131167238D01*
X105227523Y-131262476D01*
X105275142Y-131452952D01*
X105275142Y-131595809D01*
X105227523Y-131786285D01*
X105179904Y-131881523D01*
X105084666Y-131976761D01*
X104941809Y-132024380D01*
X104703714Y-132024380D01*
X106227523Y-132024380D02*
X105656095Y-132024380D01*
X105941809Y-132024380D02*
X105941809Y-131024380D01*
X105846571Y-131167238D01*
X105751333Y-131262476D01*
X105656095Y-131310095D01*
X106798952Y-131452952D02*
X106703714Y-131405333D01*
X106656095Y-131357714D01*
X106608476Y-131262476D01*
X106608476Y-131214857D01*
X106656095Y-131119619D01*
X106703714Y-131072000D01*
X106798952Y-131024380D01*
X106989428Y-131024380D01*
X107084666Y-131072000D01*
X107132285Y-131119619D01*
X107179904Y-131214857D01*
X107179904Y-131262476D01*
X107132285Y-131357714D01*
X107084666Y-131405333D01*
X106989428Y-131452952D01*
X106798952Y-131452952D01*
X106703714Y-131500571D01*
X106656095Y-131548190D01*
X106608476Y-131643428D01*
X106608476Y-131833904D01*
X106656095Y-131929142D01*
X106703714Y-131976761D01*
X106798952Y-132024380D01*
X106989428Y-132024380D01*
X107084666Y-131976761D01*
X107132285Y-131929142D01*
X107179904Y-131833904D01*
X107179904Y-131643428D01*
X107132285Y-131548190D01*
X107084666Y-131500571D01*
X106989428Y-131452952D01*
G04 #@! TO.C,D27*
X77716214Y-60459880D02*
X77716214Y-59459880D01*
X77954309Y-59459880D01*
X78097166Y-59507500D01*
X78192404Y-59602738D01*
X78240023Y-59697976D01*
X78287642Y-59888452D01*
X78287642Y-60031309D01*
X78240023Y-60221785D01*
X78192404Y-60317023D01*
X78097166Y-60412261D01*
X77954309Y-60459880D01*
X77716214Y-60459880D01*
X78668595Y-59555119D02*
X78716214Y-59507500D01*
X78811452Y-59459880D01*
X79049547Y-59459880D01*
X79144785Y-59507500D01*
X79192404Y-59555119D01*
X79240023Y-59650357D01*
X79240023Y-59745595D01*
X79192404Y-59888452D01*
X78620976Y-60459880D01*
X79240023Y-60459880D01*
X79573357Y-59459880D02*
X80240023Y-59459880D01*
X79811452Y-60459880D01*
G04 #@! TO.C,D28*
X77271714Y-71064380D02*
X77271714Y-70064380D01*
X77509809Y-70064380D01*
X77652666Y-70112000D01*
X77747904Y-70207238D01*
X77795523Y-70302476D01*
X77843142Y-70492952D01*
X77843142Y-70635809D01*
X77795523Y-70826285D01*
X77747904Y-70921523D01*
X77652666Y-71016761D01*
X77509809Y-71064380D01*
X77271714Y-71064380D01*
X78224095Y-70159619D02*
X78271714Y-70112000D01*
X78366952Y-70064380D01*
X78605047Y-70064380D01*
X78700285Y-70112000D01*
X78747904Y-70159619D01*
X78795523Y-70254857D01*
X78795523Y-70350095D01*
X78747904Y-70492952D01*
X78176476Y-71064380D01*
X78795523Y-71064380D01*
X79366952Y-70492952D02*
X79271714Y-70445333D01*
X79224095Y-70397714D01*
X79176476Y-70302476D01*
X79176476Y-70254857D01*
X79224095Y-70159619D01*
X79271714Y-70112000D01*
X79366952Y-70064380D01*
X79557428Y-70064380D01*
X79652666Y-70112000D01*
X79700285Y-70159619D01*
X79747904Y-70254857D01*
X79747904Y-70302476D01*
X79700285Y-70397714D01*
X79652666Y-70445333D01*
X79557428Y-70492952D01*
X79366952Y-70492952D01*
X79271714Y-70540571D01*
X79224095Y-70588190D01*
X79176476Y-70683428D01*
X79176476Y-70873904D01*
X79224095Y-70969142D01*
X79271714Y-71016761D01*
X79366952Y-71064380D01*
X79557428Y-71064380D01*
X79652666Y-71016761D01*
X79700285Y-70969142D01*
X79747904Y-70873904D01*
X79747904Y-70683428D01*
X79700285Y-70588190D01*
X79652666Y-70540571D01*
X79557428Y-70492952D01*
G04 #@! TO.C,D29*
X77525714Y-81097380D02*
X77525714Y-80097380D01*
X77763809Y-80097380D01*
X77906666Y-80145000D01*
X78001904Y-80240238D01*
X78049523Y-80335476D01*
X78097142Y-80525952D01*
X78097142Y-80668809D01*
X78049523Y-80859285D01*
X78001904Y-80954523D01*
X77906666Y-81049761D01*
X77763809Y-81097380D01*
X77525714Y-81097380D01*
X78478095Y-80192619D02*
X78525714Y-80145000D01*
X78620952Y-80097380D01*
X78859047Y-80097380D01*
X78954285Y-80145000D01*
X79001904Y-80192619D01*
X79049523Y-80287857D01*
X79049523Y-80383095D01*
X79001904Y-80525952D01*
X78430476Y-81097380D01*
X79049523Y-81097380D01*
X79525714Y-81097380D02*
X79716190Y-81097380D01*
X79811428Y-81049761D01*
X79859047Y-81002142D01*
X79954285Y-80859285D01*
X80001904Y-80668809D01*
X80001904Y-80287857D01*
X79954285Y-80192619D01*
X79906666Y-80145000D01*
X79811428Y-80097380D01*
X79620952Y-80097380D01*
X79525714Y-80145000D01*
X79478095Y-80192619D01*
X79430476Y-80287857D01*
X79430476Y-80525952D01*
X79478095Y-80621190D01*
X79525714Y-80668809D01*
X79620952Y-80716428D01*
X79811428Y-80716428D01*
X79906666Y-80668809D01*
X79954285Y-80621190D01*
X80001904Y-80525952D01*
G04 #@! TO.C,D30*
X77271714Y-91257380D02*
X77271714Y-90257380D01*
X77509809Y-90257380D01*
X77652666Y-90305000D01*
X77747904Y-90400238D01*
X77795523Y-90495476D01*
X77843142Y-90685952D01*
X77843142Y-90828809D01*
X77795523Y-91019285D01*
X77747904Y-91114523D01*
X77652666Y-91209761D01*
X77509809Y-91257380D01*
X77271714Y-91257380D01*
X78176476Y-90257380D02*
X78795523Y-90257380D01*
X78462190Y-90638333D01*
X78605047Y-90638333D01*
X78700285Y-90685952D01*
X78747904Y-90733571D01*
X78795523Y-90828809D01*
X78795523Y-91066904D01*
X78747904Y-91162142D01*
X78700285Y-91209761D01*
X78605047Y-91257380D01*
X78319333Y-91257380D01*
X78224095Y-91209761D01*
X78176476Y-91162142D01*
X79414571Y-90257380D02*
X79509809Y-90257380D01*
X79605047Y-90305000D01*
X79652666Y-90352619D01*
X79700285Y-90447857D01*
X79747904Y-90638333D01*
X79747904Y-90876428D01*
X79700285Y-91066904D01*
X79652666Y-91162142D01*
X79605047Y-91209761D01*
X79509809Y-91257380D01*
X79414571Y-91257380D01*
X79319333Y-91209761D01*
X79271714Y-91162142D01*
X79224095Y-91066904D01*
X79176476Y-90876428D01*
X79176476Y-90638333D01*
X79224095Y-90447857D01*
X79271714Y-90352619D01*
X79319333Y-90305000D01*
X79414571Y-90257380D01*
G04 #@! TO.C,D31*
X77144714Y-101544380D02*
X77144714Y-100544380D01*
X77382809Y-100544380D01*
X77525666Y-100592000D01*
X77620904Y-100687238D01*
X77668523Y-100782476D01*
X77716142Y-100972952D01*
X77716142Y-101115809D01*
X77668523Y-101306285D01*
X77620904Y-101401523D01*
X77525666Y-101496761D01*
X77382809Y-101544380D01*
X77144714Y-101544380D01*
X78049476Y-100544380D02*
X78668523Y-100544380D01*
X78335190Y-100925333D01*
X78478047Y-100925333D01*
X78573285Y-100972952D01*
X78620904Y-101020571D01*
X78668523Y-101115809D01*
X78668523Y-101353904D01*
X78620904Y-101449142D01*
X78573285Y-101496761D01*
X78478047Y-101544380D01*
X78192333Y-101544380D01*
X78097095Y-101496761D01*
X78049476Y-101449142D01*
X79620904Y-101544380D02*
X79049476Y-101544380D01*
X79335190Y-101544380D02*
X79335190Y-100544380D01*
X79239952Y-100687238D01*
X79144714Y-100782476D01*
X79049476Y-100830095D01*
G04 #@! TO.C,D32*
X77398714Y-111704380D02*
X77398714Y-110704380D01*
X77636809Y-110704380D01*
X77779666Y-110752000D01*
X77874904Y-110847238D01*
X77922523Y-110942476D01*
X77970142Y-111132952D01*
X77970142Y-111275809D01*
X77922523Y-111466285D01*
X77874904Y-111561523D01*
X77779666Y-111656761D01*
X77636809Y-111704380D01*
X77398714Y-111704380D01*
X78303476Y-110704380D02*
X78922523Y-110704380D01*
X78589190Y-111085333D01*
X78732047Y-111085333D01*
X78827285Y-111132952D01*
X78874904Y-111180571D01*
X78922523Y-111275809D01*
X78922523Y-111513904D01*
X78874904Y-111609142D01*
X78827285Y-111656761D01*
X78732047Y-111704380D01*
X78446333Y-111704380D01*
X78351095Y-111656761D01*
X78303476Y-111609142D01*
X79303476Y-110799619D02*
X79351095Y-110752000D01*
X79446333Y-110704380D01*
X79684428Y-110704380D01*
X79779666Y-110752000D01*
X79827285Y-110799619D01*
X79874904Y-110894857D01*
X79874904Y-110990095D01*
X79827285Y-111132952D01*
X79255857Y-111704380D01*
X79874904Y-111704380D01*
G04 #@! TO.C,D33*
X77271714Y-121864380D02*
X77271714Y-120864380D01*
X77509809Y-120864380D01*
X77652666Y-120912000D01*
X77747904Y-121007238D01*
X77795523Y-121102476D01*
X77843142Y-121292952D01*
X77843142Y-121435809D01*
X77795523Y-121626285D01*
X77747904Y-121721523D01*
X77652666Y-121816761D01*
X77509809Y-121864380D01*
X77271714Y-121864380D01*
X78176476Y-120864380D02*
X78795523Y-120864380D01*
X78462190Y-121245333D01*
X78605047Y-121245333D01*
X78700285Y-121292952D01*
X78747904Y-121340571D01*
X78795523Y-121435809D01*
X78795523Y-121673904D01*
X78747904Y-121769142D01*
X78700285Y-121816761D01*
X78605047Y-121864380D01*
X78319333Y-121864380D01*
X78224095Y-121816761D01*
X78176476Y-121769142D01*
X79128857Y-120864380D02*
X79747904Y-120864380D01*
X79414571Y-121245333D01*
X79557428Y-121245333D01*
X79652666Y-121292952D01*
X79700285Y-121340571D01*
X79747904Y-121435809D01*
X79747904Y-121673904D01*
X79700285Y-121769142D01*
X79652666Y-121816761D01*
X79557428Y-121864380D01*
X79271714Y-121864380D01*
X79176476Y-121816761D01*
X79128857Y-121769142D01*
G04 #@! TO.C,D34*
X77271714Y-131897380D02*
X77271714Y-130897380D01*
X77509809Y-130897380D01*
X77652666Y-130945000D01*
X77747904Y-131040238D01*
X77795523Y-131135476D01*
X77843142Y-131325952D01*
X77843142Y-131468809D01*
X77795523Y-131659285D01*
X77747904Y-131754523D01*
X77652666Y-131849761D01*
X77509809Y-131897380D01*
X77271714Y-131897380D01*
X78176476Y-130897380D02*
X78795523Y-130897380D01*
X78462190Y-131278333D01*
X78605047Y-131278333D01*
X78700285Y-131325952D01*
X78747904Y-131373571D01*
X78795523Y-131468809D01*
X78795523Y-131706904D01*
X78747904Y-131802142D01*
X78700285Y-131849761D01*
X78605047Y-131897380D01*
X78319333Y-131897380D01*
X78224095Y-131849761D01*
X78176476Y-131802142D01*
X79652666Y-131230714D02*
X79652666Y-131897380D01*
X79414571Y-130849761D02*
X79176476Y-131564047D01*
X79795523Y-131564047D01*
G04 #@! TO.C,R1*
X116927333Y-68651380D02*
X116594000Y-68175190D01*
X116355904Y-68651380D02*
X116355904Y-67651380D01*
X116736857Y-67651380D01*
X116832095Y-67699000D01*
X116879714Y-67746619D01*
X116927333Y-67841857D01*
X116927333Y-67984714D01*
X116879714Y-68079952D01*
X116832095Y-68127571D01*
X116736857Y-68175190D01*
X116355904Y-68175190D01*
X117879714Y-68651380D02*
X117308285Y-68651380D01*
X117594000Y-68651380D02*
X117594000Y-67651380D01*
X117498761Y-67794238D01*
X117403523Y-67889476D01*
X117308285Y-67937095D01*
X109132714Y-68397380D02*
X108561285Y-68397380D01*
X108847000Y-68397380D02*
X108847000Y-67397380D01*
X108751761Y-67540238D01*
X108656523Y-67635476D01*
X108561285Y-67683095D01*
X109561285Y-68397380D02*
X109561285Y-67397380D01*
X110132714Y-68397380D02*
X109704142Y-67825952D01*
X110132714Y-67397380D02*
X109561285Y-67968809D01*
G04 #@! TO.C,R2*
X116800333Y-78823380D02*
X116467000Y-78347190D01*
X116228904Y-78823380D02*
X116228904Y-77823380D01*
X116609857Y-77823380D01*
X116705095Y-77871000D01*
X116752714Y-77918619D01*
X116800333Y-78013857D01*
X116800333Y-78156714D01*
X116752714Y-78251952D01*
X116705095Y-78299571D01*
X116609857Y-78347190D01*
X116228904Y-78347190D01*
X117181285Y-77918619D02*
X117228904Y-77871000D01*
X117324142Y-77823380D01*
X117562238Y-77823380D01*
X117657476Y-77871000D01*
X117705095Y-77918619D01*
X117752714Y-78013857D01*
X117752714Y-78109095D01*
X117705095Y-78251952D01*
X117133666Y-78823380D01*
X117752714Y-78823380D01*
X109005714Y-78684380D02*
X108434285Y-78684380D01*
X108720000Y-78684380D02*
X108720000Y-77684380D01*
X108624761Y-77827238D01*
X108529523Y-77922476D01*
X108434285Y-77970095D01*
X109434285Y-78684380D02*
X109434285Y-77684380D01*
X110005714Y-78684380D02*
X109577142Y-78112952D01*
X110005714Y-77684380D02*
X109434285Y-78255809D01*
G04 #@! TO.C,R3*
X116800333Y-88856380D02*
X116467000Y-88380190D01*
X116228904Y-88856380D02*
X116228904Y-87856380D01*
X116609857Y-87856380D01*
X116705095Y-87904000D01*
X116752714Y-87951619D01*
X116800333Y-88046857D01*
X116800333Y-88189714D01*
X116752714Y-88284952D01*
X116705095Y-88332571D01*
X116609857Y-88380190D01*
X116228904Y-88380190D01*
X117133666Y-87856380D02*
X117752714Y-87856380D01*
X117419380Y-88237333D01*
X117562238Y-88237333D01*
X117657476Y-88284952D01*
X117705095Y-88332571D01*
X117752714Y-88427809D01*
X117752714Y-88665904D01*
X117705095Y-88761142D01*
X117657476Y-88808761D01*
X117562238Y-88856380D01*
X117276523Y-88856380D01*
X117181285Y-88808761D01*
X117133666Y-88761142D01*
X109005714Y-88844380D02*
X108434285Y-88844380D01*
X108720000Y-88844380D02*
X108720000Y-87844380D01*
X108624761Y-87987238D01*
X108529523Y-88082476D01*
X108434285Y-88130095D01*
X109434285Y-88844380D02*
X109434285Y-87844380D01*
X110005714Y-88844380D02*
X109577142Y-88272952D01*
X110005714Y-87844380D02*
X109434285Y-88415809D01*
G04 #@! TO.C,R4*
X117054333Y-99079880D02*
X116721000Y-98603690D01*
X116482904Y-99079880D02*
X116482904Y-98079880D01*
X116863857Y-98079880D01*
X116959095Y-98127500D01*
X117006714Y-98175119D01*
X117054333Y-98270357D01*
X117054333Y-98413214D01*
X117006714Y-98508452D01*
X116959095Y-98556071D01*
X116863857Y-98603690D01*
X116482904Y-98603690D01*
X117911476Y-98413214D02*
X117911476Y-99079880D01*
X117673380Y-98032261D02*
X117435285Y-98746547D01*
X118054333Y-98746547D01*
X109132714Y-99004380D02*
X108561285Y-99004380D01*
X108847000Y-99004380D02*
X108847000Y-98004380D01*
X108751761Y-98147238D01*
X108656523Y-98242476D01*
X108561285Y-98290095D01*
X109561285Y-99004380D02*
X109561285Y-98004380D01*
X110132714Y-99004380D02*
X109704142Y-98432952D01*
X110132714Y-98004380D02*
X109561285Y-98575809D01*
G04 #@! TO.C,R5*
X116927333Y-109291380D02*
X116594000Y-108815190D01*
X116355904Y-109291380D02*
X116355904Y-108291380D01*
X116736857Y-108291380D01*
X116832095Y-108339000D01*
X116879714Y-108386619D01*
X116927333Y-108481857D01*
X116927333Y-108624714D01*
X116879714Y-108719952D01*
X116832095Y-108767571D01*
X116736857Y-108815190D01*
X116355904Y-108815190D01*
X117832095Y-108291380D02*
X117355904Y-108291380D01*
X117308285Y-108767571D01*
X117355904Y-108719952D01*
X117451142Y-108672333D01*
X117689238Y-108672333D01*
X117784476Y-108719952D01*
X117832095Y-108767571D01*
X117879714Y-108862809D01*
X117879714Y-109100904D01*
X117832095Y-109196142D01*
X117784476Y-109243761D01*
X117689238Y-109291380D01*
X117451142Y-109291380D01*
X117355904Y-109243761D01*
X117308285Y-109196142D01*
X109259714Y-109164380D02*
X108688285Y-109164380D01*
X108974000Y-109164380D02*
X108974000Y-108164380D01*
X108878761Y-108307238D01*
X108783523Y-108402476D01*
X108688285Y-108450095D01*
X109688285Y-109164380D02*
X109688285Y-108164380D01*
X110259714Y-109164380D02*
X109831142Y-108592952D01*
X110259714Y-108164380D02*
X109688285Y-108735809D01*
G04 #@! TO.C,R6*
X116419333Y-119451380D02*
X116086000Y-118975190D01*
X115847904Y-119451380D02*
X115847904Y-118451380D01*
X116228857Y-118451380D01*
X116324095Y-118499000D01*
X116371714Y-118546619D01*
X116419333Y-118641857D01*
X116419333Y-118784714D01*
X116371714Y-118879952D01*
X116324095Y-118927571D01*
X116228857Y-118975190D01*
X115847904Y-118975190D01*
X117276476Y-118451380D02*
X117086000Y-118451380D01*
X116990761Y-118499000D01*
X116943142Y-118546619D01*
X116847904Y-118689476D01*
X116800285Y-118879952D01*
X116800285Y-119260904D01*
X116847904Y-119356142D01*
X116895523Y-119403761D01*
X116990761Y-119451380D01*
X117181238Y-119451380D01*
X117276476Y-119403761D01*
X117324095Y-119356142D01*
X117371714Y-119260904D01*
X117371714Y-119022809D01*
X117324095Y-118927571D01*
X117276476Y-118879952D01*
X117181238Y-118832333D01*
X116990761Y-118832333D01*
X116895523Y-118879952D01*
X116847904Y-118927571D01*
X116800285Y-119022809D01*
X108497714Y-119451380D02*
X107926285Y-119451380D01*
X108212000Y-119451380D02*
X108212000Y-118451380D01*
X108116761Y-118594238D01*
X108021523Y-118689476D01*
X107926285Y-118737095D01*
X108926285Y-119451380D02*
X108926285Y-118451380D01*
X109497714Y-119451380D02*
X109069142Y-118879952D01*
X109497714Y-118451380D02*
X108926285Y-119022809D01*
G04 #@! TO.C,R7*
X116546333Y-129611380D02*
X116213000Y-129135190D01*
X115974904Y-129611380D02*
X115974904Y-128611380D01*
X116355857Y-128611380D01*
X116451095Y-128659000D01*
X116498714Y-128706619D01*
X116546333Y-128801857D01*
X116546333Y-128944714D01*
X116498714Y-129039952D01*
X116451095Y-129087571D01*
X116355857Y-129135190D01*
X115974904Y-129135190D01*
X116879666Y-128611380D02*
X117546333Y-128611380D01*
X117117761Y-129611380D01*
X108624714Y-129496380D02*
X108053285Y-129496380D01*
X108339000Y-129496380D02*
X108339000Y-128496380D01*
X108243761Y-128639238D01*
X108148523Y-128734476D01*
X108053285Y-128782095D01*
X109053285Y-129496380D02*
X109053285Y-128496380D01*
X109624714Y-129496380D02*
X109196142Y-128924952D01*
X109624714Y-128496380D02*
X109053285Y-129067809D01*
G04 #@! TO.C,R8*
X106894333Y-138755380D02*
X106561000Y-138279190D01*
X106322904Y-138755380D02*
X106322904Y-137755380D01*
X106703857Y-137755380D01*
X106799095Y-137803000D01*
X106846714Y-137850619D01*
X106894333Y-137945857D01*
X106894333Y-138088714D01*
X106846714Y-138183952D01*
X106799095Y-138231571D01*
X106703857Y-138279190D01*
X106322904Y-138279190D01*
X107465761Y-138183952D02*
X107370523Y-138136333D01*
X107322904Y-138088714D01*
X107275285Y-137993476D01*
X107275285Y-137945857D01*
X107322904Y-137850619D01*
X107370523Y-137803000D01*
X107465761Y-137755380D01*
X107656238Y-137755380D01*
X107751476Y-137803000D01*
X107799095Y-137850619D01*
X107846714Y-137945857D01*
X107846714Y-137993476D01*
X107799095Y-138088714D01*
X107751476Y-138136333D01*
X107656238Y-138183952D01*
X107465761Y-138183952D01*
X107370523Y-138231571D01*
X107322904Y-138279190D01*
X107275285Y-138374428D01*
X107275285Y-138564904D01*
X107322904Y-138660142D01*
X107370523Y-138707761D01*
X107465761Y-138755380D01*
X107656238Y-138755380D01*
X107751476Y-138707761D01*
X107799095Y-138660142D01*
X107846714Y-138564904D01*
X107846714Y-138374428D01*
X107799095Y-138279190D01*
X107751476Y-138231571D01*
X107656238Y-138183952D01*
X114085714Y-138882380D02*
X113514285Y-138882380D01*
X113800000Y-138882380D02*
X113800000Y-137882380D01*
X113704761Y-138025238D01*
X113609523Y-138120476D01*
X113514285Y-138168095D01*
X114514285Y-138882380D02*
X114514285Y-137882380D01*
X115085714Y-138882380D02*
X114657142Y-138310952D01*
X115085714Y-137882380D02*
X114514285Y-138453809D01*
G04 #@! TO.C,R9*
X106894333Y-141803380D02*
X106561000Y-141327190D01*
X106322904Y-141803380D02*
X106322904Y-140803380D01*
X106703857Y-140803380D01*
X106799095Y-140851000D01*
X106846714Y-140898619D01*
X106894333Y-140993857D01*
X106894333Y-141136714D01*
X106846714Y-141231952D01*
X106799095Y-141279571D01*
X106703857Y-141327190D01*
X106322904Y-141327190D01*
X107370523Y-141803380D02*
X107561000Y-141803380D01*
X107656238Y-141755761D01*
X107703857Y-141708142D01*
X107799095Y-141565285D01*
X107846714Y-141374809D01*
X107846714Y-140993857D01*
X107799095Y-140898619D01*
X107751476Y-140851000D01*
X107656238Y-140803380D01*
X107465761Y-140803380D01*
X107370523Y-140851000D01*
X107322904Y-140898619D01*
X107275285Y-140993857D01*
X107275285Y-141231952D01*
X107322904Y-141327190D01*
X107370523Y-141374809D01*
X107465761Y-141422428D01*
X107656238Y-141422428D01*
X107751476Y-141374809D01*
X107799095Y-141327190D01*
X107846714Y-141231952D01*
X113990523Y-141803380D02*
X113419095Y-141803380D01*
X113704809Y-141803380D02*
X113704809Y-140803380D01*
X113609571Y-140946238D01*
X113514333Y-141041476D01*
X113419095Y-141089095D01*
X114609571Y-140803380D02*
X114704809Y-140803380D01*
X114800047Y-140851000D01*
X114847666Y-140898619D01*
X114895285Y-140993857D01*
X114942904Y-141184333D01*
X114942904Y-141422428D01*
X114895285Y-141612904D01*
X114847666Y-141708142D01*
X114800047Y-141755761D01*
X114704809Y-141803380D01*
X114609571Y-141803380D01*
X114514333Y-141755761D01*
X114466714Y-141708142D01*
X114419095Y-141612904D01*
X114371476Y-141422428D01*
X114371476Y-141184333D01*
X114419095Y-140993857D01*
X114466714Y-140898619D01*
X114514333Y-140851000D01*
X114609571Y-140803380D01*
X115371476Y-141803380D02*
X115371476Y-140803380D01*
X115942904Y-141803380D02*
X115514333Y-141231952D01*
X115942904Y-140803380D02*
X115371476Y-141374809D01*
G04 #@! TO.C,R10*
X88638142Y-68524380D02*
X88304809Y-68048190D01*
X88066714Y-68524380D02*
X88066714Y-67524380D01*
X88447666Y-67524380D01*
X88542904Y-67572000D01*
X88590523Y-67619619D01*
X88638142Y-67714857D01*
X88638142Y-67857714D01*
X88590523Y-67952952D01*
X88542904Y-68000571D01*
X88447666Y-68048190D01*
X88066714Y-68048190D01*
X89590523Y-68524380D02*
X89019095Y-68524380D01*
X89304809Y-68524380D02*
X89304809Y-67524380D01*
X89209571Y-67667238D01*
X89114333Y-67762476D01*
X89019095Y-67810095D01*
X90209571Y-67524380D02*
X90304809Y-67524380D01*
X90400047Y-67572000D01*
X90447666Y-67619619D01*
X90495285Y-67714857D01*
X90542904Y-67905333D01*
X90542904Y-68143428D01*
X90495285Y-68333904D01*
X90447666Y-68429142D01*
X90400047Y-68476761D01*
X90304809Y-68524380D01*
X90209571Y-68524380D01*
X90114333Y-68476761D01*
X90066714Y-68429142D01*
X90019095Y-68333904D01*
X89971476Y-68143428D01*
X89971476Y-67905333D01*
X90019095Y-67714857D01*
X90066714Y-67619619D01*
X90114333Y-67572000D01*
X90209571Y-67524380D01*
X81065714Y-68536380D02*
X80494285Y-68536380D01*
X80780000Y-68536380D02*
X80780000Y-67536380D01*
X80684761Y-67679238D01*
X80589523Y-67774476D01*
X80494285Y-67822095D01*
X81494285Y-68536380D02*
X81494285Y-67536380D01*
X82065714Y-68536380D02*
X81637142Y-67964952D01*
X82065714Y-67536380D02*
X81494285Y-68107809D01*
G04 #@! TO.C,R11*
X88638142Y-78684380D02*
X88304809Y-78208190D01*
X88066714Y-78684380D02*
X88066714Y-77684380D01*
X88447666Y-77684380D01*
X88542904Y-77732000D01*
X88590523Y-77779619D01*
X88638142Y-77874857D01*
X88638142Y-78017714D01*
X88590523Y-78112952D01*
X88542904Y-78160571D01*
X88447666Y-78208190D01*
X88066714Y-78208190D01*
X89590523Y-78684380D02*
X89019095Y-78684380D01*
X89304809Y-78684380D02*
X89304809Y-77684380D01*
X89209571Y-77827238D01*
X89114333Y-77922476D01*
X89019095Y-77970095D01*
X90542904Y-78684380D02*
X89971476Y-78684380D01*
X90257190Y-78684380D02*
X90257190Y-77684380D01*
X90161952Y-77827238D01*
X90066714Y-77922476D01*
X89971476Y-77970095D01*
X81065714Y-78811380D02*
X80494285Y-78811380D01*
X80780000Y-78811380D02*
X80780000Y-77811380D01*
X80684761Y-77954238D01*
X80589523Y-78049476D01*
X80494285Y-78097095D01*
X81494285Y-78811380D02*
X81494285Y-77811380D01*
X82065714Y-78811380D02*
X81637142Y-78239952D01*
X82065714Y-77811380D02*
X81494285Y-78382809D01*
G04 #@! TO.C,R12*
X89019142Y-88971380D02*
X88685809Y-88495190D01*
X88447714Y-88971380D02*
X88447714Y-87971380D01*
X88828666Y-87971380D01*
X88923904Y-88019000D01*
X88971523Y-88066619D01*
X89019142Y-88161857D01*
X89019142Y-88304714D01*
X88971523Y-88399952D01*
X88923904Y-88447571D01*
X88828666Y-88495190D01*
X88447714Y-88495190D01*
X89971523Y-88971380D02*
X89400095Y-88971380D01*
X89685809Y-88971380D02*
X89685809Y-87971380D01*
X89590571Y-88114238D01*
X89495333Y-88209476D01*
X89400095Y-88257095D01*
X90352476Y-88066619D02*
X90400095Y-88019000D01*
X90495333Y-87971380D01*
X90733428Y-87971380D01*
X90828666Y-88019000D01*
X90876285Y-88066619D01*
X90923904Y-88161857D01*
X90923904Y-88257095D01*
X90876285Y-88399952D01*
X90304857Y-88971380D01*
X90923904Y-88971380D01*
X81065714Y-88856380D02*
X80494285Y-88856380D01*
X80780000Y-88856380D02*
X80780000Y-87856380D01*
X80684761Y-87999238D01*
X80589523Y-88094476D01*
X80494285Y-88142095D01*
X81494285Y-88856380D02*
X81494285Y-87856380D01*
X82065714Y-88856380D02*
X81637142Y-88284952D01*
X82065714Y-87856380D02*
X81494285Y-88427809D01*
G04 #@! TO.C,R13*
X89019142Y-99131380D02*
X88685809Y-98655190D01*
X88447714Y-99131380D02*
X88447714Y-98131380D01*
X88828666Y-98131380D01*
X88923904Y-98179000D01*
X88971523Y-98226619D01*
X89019142Y-98321857D01*
X89019142Y-98464714D01*
X88971523Y-98559952D01*
X88923904Y-98607571D01*
X88828666Y-98655190D01*
X88447714Y-98655190D01*
X89971523Y-99131380D02*
X89400095Y-99131380D01*
X89685809Y-99131380D02*
X89685809Y-98131380D01*
X89590571Y-98274238D01*
X89495333Y-98369476D01*
X89400095Y-98417095D01*
X90304857Y-98131380D02*
X90923904Y-98131380D01*
X90590571Y-98512333D01*
X90733428Y-98512333D01*
X90828666Y-98559952D01*
X90876285Y-98607571D01*
X90923904Y-98702809D01*
X90923904Y-98940904D01*
X90876285Y-99036142D01*
X90828666Y-99083761D01*
X90733428Y-99131380D01*
X90447714Y-99131380D01*
X90352476Y-99083761D01*
X90304857Y-99036142D01*
X81192714Y-99131380D02*
X80621285Y-99131380D01*
X80907000Y-99131380D02*
X80907000Y-98131380D01*
X80811761Y-98274238D01*
X80716523Y-98369476D01*
X80621285Y-98417095D01*
X81621285Y-99131380D02*
X81621285Y-98131380D01*
X82192714Y-99131380D02*
X81764142Y-98559952D01*
X82192714Y-98131380D02*
X81621285Y-98702809D01*
G04 #@! TO.C,R14*
X89146142Y-109418380D02*
X88812809Y-108942190D01*
X88574714Y-109418380D02*
X88574714Y-108418380D01*
X88955666Y-108418380D01*
X89050904Y-108466000D01*
X89098523Y-108513619D01*
X89146142Y-108608857D01*
X89146142Y-108751714D01*
X89098523Y-108846952D01*
X89050904Y-108894571D01*
X88955666Y-108942190D01*
X88574714Y-108942190D01*
X90098523Y-109418380D02*
X89527095Y-109418380D01*
X89812809Y-109418380D02*
X89812809Y-108418380D01*
X89717571Y-108561238D01*
X89622333Y-108656476D01*
X89527095Y-108704095D01*
X90955666Y-108751714D02*
X90955666Y-109418380D01*
X90717571Y-108370761D02*
X90479476Y-109085047D01*
X91098523Y-109085047D01*
X81192714Y-109291380D02*
X80621285Y-109291380D01*
X80907000Y-109291380D02*
X80907000Y-108291380D01*
X80811761Y-108434238D01*
X80716523Y-108529476D01*
X80621285Y-108577095D01*
X81621285Y-109291380D02*
X81621285Y-108291380D01*
X82192714Y-109291380D02*
X81764142Y-108719952D01*
X82192714Y-108291380D02*
X81621285Y-108862809D01*
G04 #@! TO.C,R15*
X88892142Y-119324380D02*
X88558809Y-118848190D01*
X88320714Y-119324380D02*
X88320714Y-118324380D01*
X88701666Y-118324380D01*
X88796904Y-118372000D01*
X88844523Y-118419619D01*
X88892142Y-118514857D01*
X88892142Y-118657714D01*
X88844523Y-118752952D01*
X88796904Y-118800571D01*
X88701666Y-118848190D01*
X88320714Y-118848190D01*
X89844523Y-119324380D02*
X89273095Y-119324380D01*
X89558809Y-119324380D02*
X89558809Y-118324380D01*
X89463571Y-118467238D01*
X89368333Y-118562476D01*
X89273095Y-118610095D01*
X90749285Y-118324380D02*
X90273095Y-118324380D01*
X90225476Y-118800571D01*
X90273095Y-118752952D01*
X90368333Y-118705333D01*
X90606428Y-118705333D01*
X90701666Y-118752952D01*
X90749285Y-118800571D01*
X90796904Y-118895809D01*
X90796904Y-119133904D01*
X90749285Y-119229142D01*
X90701666Y-119276761D01*
X90606428Y-119324380D01*
X90368333Y-119324380D01*
X90273095Y-119276761D01*
X90225476Y-119229142D01*
X81065714Y-119451380D02*
X80494285Y-119451380D01*
X80780000Y-119451380D02*
X80780000Y-118451380D01*
X80684761Y-118594238D01*
X80589523Y-118689476D01*
X80494285Y-118737095D01*
X81494285Y-119451380D02*
X81494285Y-118451380D01*
X82065714Y-119451380D02*
X81637142Y-118879952D01*
X82065714Y-118451380D02*
X81494285Y-119022809D01*
G04 #@! TO.C,R16*
X88892142Y-129484380D02*
X88558809Y-129008190D01*
X88320714Y-129484380D02*
X88320714Y-128484380D01*
X88701666Y-128484380D01*
X88796904Y-128532000D01*
X88844523Y-128579619D01*
X88892142Y-128674857D01*
X88892142Y-128817714D01*
X88844523Y-128912952D01*
X88796904Y-128960571D01*
X88701666Y-129008190D01*
X88320714Y-129008190D01*
X89844523Y-129484380D02*
X89273095Y-129484380D01*
X89558809Y-129484380D02*
X89558809Y-128484380D01*
X89463571Y-128627238D01*
X89368333Y-128722476D01*
X89273095Y-128770095D01*
X90701666Y-128484380D02*
X90511190Y-128484380D01*
X90415952Y-128532000D01*
X90368333Y-128579619D01*
X90273095Y-128722476D01*
X90225476Y-128912952D01*
X90225476Y-129293904D01*
X90273095Y-129389142D01*
X90320714Y-129436761D01*
X90415952Y-129484380D01*
X90606428Y-129484380D01*
X90701666Y-129436761D01*
X90749285Y-129389142D01*
X90796904Y-129293904D01*
X90796904Y-129055809D01*
X90749285Y-128960571D01*
X90701666Y-128912952D01*
X90606428Y-128865333D01*
X90415952Y-128865333D01*
X90320714Y-128912952D01*
X90273095Y-128960571D01*
X90225476Y-129055809D01*
X80938714Y-129496380D02*
X80367285Y-129496380D01*
X80653000Y-129496380D02*
X80653000Y-128496380D01*
X80557761Y-128639238D01*
X80462523Y-128734476D01*
X80367285Y-128782095D01*
X81367285Y-129496380D02*
X81367285Y-128496380D01*
X81938714Y-129496380D02*
X81510142Y-128924952D01*
X81938714Y-128496380D02*
X81367285Y-129067809D01*
G04 #@! TO.C,R17*
X89654142Y-140787380D02*
X89320809Y-140311190D01*
X89082714Y-140787380D02*
X89082714Y-139787380D01*
X89463666Y-139787380D01*
X89558904Y-139835000D01*
X89606523Y-139882619D01*
X89654142Y-139977857D01*
X89654142Y-140120714D01*
X89606523Y-140215952D01*
X89558904Y-140263571D01*
X89463666Y-140311190D01*
X89082714Y-140311190D01*
X90606523Y-140787380D02*
X90035095Y-140787380D01*
X90320809Y-140787380D02*
X90320809Y-139787380D01*
X90225571Y-139930238D01*
X90130333Y-140025476D01*
X90035095Y-140073095D01*
X90939857Y-139787380D02*
X91606523Y-139787380D01*
X91177952Y-140787380D01*
X81319714Y-140787380D02*
X80748285Y-140787380D01*
X81034000Y-140787380D02*
X81034000Y-139787380D01*
X80938761Y-139930238D01*
X80843523Y-140025476D01*
X80748285Y-140073095D01*
X81748285Y-140787380D02*
X81748285Y-139787380D01*
X82319714Y-140787380D02*
X81891142Y-140215952D01*
X82319714Y-139787380D02*
X81748285Y-140358809D01*
G04 #@! TO.C,R18*
X106291142Y-144978380D02*
X105957809Y-144502190D01*
X105719714Y-144978380D02*
X105719714Y-143978380D01*
X106100666Y-143978380D01*
X106195904Y-144026000D01*
X106243523Y-144073619D01*
X106291142Y-144168857D01*
X106291142Y-144311714D01*
X106243523Y-144406952D01*
X106195904Y-144454571D01*
X106100666Y-144502190D01*
X105719714Y-144502190D01*
X107243523Y-144978380D02*
X106672095Y-144978380D01*
X106957809Y-144978380D02*
X106957809Y-143978380D01*
X106862571Y-144121238D01*
X106767333Y-144216476D01*
X106672095Y-144264095D01*
X107814952Y-144406952D02*
X107719714Y-144359333D01*
X107672095Y-144311714D01*
X107624476Y-144216476D01*
X107624476Y-144168857D01*
X107672095Y-144073619D01*
X107719714Y-144026000D01*
X107814952Y-143978380D01*
X108005428Y-143978380D01*
X108100666Y-144026000D01*
X108148285Y-144073619D01*
X108195904Y-144168857D01*
X108195904Y-144216476D01*
X108148285Y-144311714D01*
X108100666Y-144359333D01*
X108005428Y-144406952D01*
X107814952Y-144406952D01*
X107719714Y-144454571D01*
X107672095Y-144502190D01*
X107624476Y-144597428D01*
X107624476Y-144787904D01*
X107672095Y-144883142D01*
X107719714Y-144930761D01*
X107814952Y-144978380D01*
X108005428Y-144978380D01*
X108100666Y-144930761D01*
X108148285Y-144883142D01*
X108195904Y-144787904D01*
X108195904Y-144597428D01*
X108148285Y-144502190D01*
X108100666Y-144454571D01*
X108005428Y-144406952D01*
X114339714Y-144851380D02*
X113768285Y-144851380D01*
X114054000Y-144851380D02*
X114054000Y-143851380D01*
X113958761Y-143994238D01*
X113863523Y-144089476D01*
X113768285Y-144137095D01*
X114768285Y-144851380D02*
X114768285Y-143851380D01*
X115339714Y-144851380D02*
X114911142Y-144279952D01*
X115339714Y-143851380D02*
X114768285Y-144422809D01*
G04 #@! TO.C,R19*
X97226380Y-139199857D02*
X96750190Y-139533190D01*
X97226380Y-139771285D02*
X96226380Y-139771285D01*
X96226380Y-139390333D01*
X96274000Y-139295095D01*
X96321619Y-139247476D01*
X96416857Y-139199857D01*
X96559714Y-139199857D01*
X96654952Y-139247476D01*
X96702571Y-139295095D01*
X96750190Y-139390333D01*
X96750190Y-139771285D01*
X97226380Y-138247476D02*
X97226380Y-138818904D01*
X97226380Y-138533190D02*
X96226380Y-138533190D01*
X96369238Y-138628428D01*
X96464476Y-138723666D01*
X96512095Y-138818904D01*
X97226380Y-137771285D02*
X97226380Y-137580809D01*
X97178761Y-137485571D01*
X97131142Y-137437952D01*
X96988285Y-137342714D01*
X96797809Y-137295095D01*
X96416857Y-137295095D01*
X96321619Y-137342714D01*
X96274000Y-137390333D01*
X96226380Y-137485571D01*
X96226380Y-137676047D01*
X96274000Y-137771285D01*
X96321619Y-137818904D01*
X96416857Y-137866523D01*
X96654952Y-137866523D01*
X96750190Y-137818904D01*
X96797809Y-137771285D01*
X96845428Y-137676047D01*
X96845428Y-137485571D01*
X96797809Y-137390333D01*
X96750190Y-137342714D01*
X96654952Y-137295095D01*
X97226380Y-131373476D02*
X97226380Y-131944904D01*
X97226380Y-131659190D02*
X96226380Y-131659190D01*
X96369238Y-131754428D01*
X96464476Y-131849666D01*
X96512095Y-131944904D01*
X96226380Y-130754428D02*
X96226380Y-130659190D01*
X96274000Y-130563952D01*
X96321619Y-130516333D01*
X96416857Y-130468714D01*
X96607333Y-130421095D01*
X96845428Y-130421095D01*
X97035904Y-130468714D01*
X97131142Y-130516333D01*
X97178761Y-130563952D01*
X97226380Y-130659190D01*
X97226380Y-130754428D01*
X97178761Y-130849666D01*
X97131142Y-130897285D01*
X97035904Y-130944904D01*
X96845428Y-130992523D01*
X96607333Y-130992523D01*
X96416857Y-130944904D01*
X96321619Y-130897285D01*
X96274000Y-130849666D01*
X96226380Y-130754428D01*
X97226380Y-129992523D02*
X96226380Y-129992523D01*
X97226380Y-129421095D02*
X96654952Y-129849666D01*
X96226380Y-129421095D02*
X96797809Y-129992523D01*
G04 #@! TO.C,R20*
X90289142Y-144470380D02*
X89955809Y-143994190D01*
X89717714Y-144470380D02*
X89717714Y-143470380D01*
X90098666Y-143470380D01*
X90193904Y-143518000D01*
X90241523Y-143565619D01*
X90289142Y-143660857D01*
X90289142Y-143803714D01*
X90241523Y-143898952D01*
X90193904Y-143946571D01*
X90098666Y-143994190D01*
X89717714Y-143994190D01*
X90670095Y-143565619D02*
X90717714Y-143518000D01*
X90812952Y-143470380D01*
X91051047Y-143470380D01*
X91146285Y-143518000D01*
X91193904Y-143565619D01*
X91241523Y-143660857D01*
X91241523Y-143756095D01*
X91193904Y-143898952D01*
X90622476Y-144470380D01*
X91241523Y-144470380D01*
X91860571Y-143470380D02*
X91955809Y-143470380D01*
X92051047Y-143518000D01*
X92098666Y-143565619D01*
X92146285Y-143660857D01*
X92193904Y-143851333D01*
X92193904Y-144089428D01*
X92146285Y-144279904D01*
X92098666Y-144375142D01*
X92051047Y-144422761D01*
X91955809Y-144470380D01*
X91860571Y-144470380D01*
X91765333Y-144422761D01*
X91717714Y-144375142D01*
X91670095Y-144279904D01*
X91622476Y-144089428D01*
X91622476Y-143851333D01*
X91670095Y-143660857D01*
X91717714Y-143565619D01*
X91765333Y-143518000D01*
X91860571Y-143470380D01*
X81573714Y-143962380D02*
X81002285Y-143962380D01*
X81288000Y-143962380D02*
X81288000Y-142962380D01*
X81192761Y-143105238D01*
X81097523Y-143200476D01*
X81002285Y-143248095D01*
X82002285Y-143962380D02*
X82002285Y-142962380D01*
X82573714Y-143962380D02*
X82145142Y-143390952D01*
X82573714Y-142962380D02*
X82002285Y-143533809D01*
G04 #@! TO.C,R21*
X125801380Y-141803357D02*
X125325190Y-142136690D01*
X125801380Y-142374785D02*
X124801380Y-142374785D01*
X124801380Y-141993833D01*
X124849000Y-141898595D01*
X124896619Y-141850976D01*
X124991857Y-141803357D01*
X125134714Y-141803357D01*
X125229952Y-141850976D01*
X125277571Y-141898595D01*
X125325190Y-141993833D01*
X125325190Y-142374785D01*
X124896619Y-141422404D02*
X124849000Y-141374785D01*
X124801380Y-141279547D01*
X124801380Y-141041452D01*
X124849000Y-140946214D01*
X124896619Y-140898595D01*
X124991857Y-140850976D01*
X125087095Y-140850976D01*
X125229952Y-140898595D01*
X125801380Y-141470023D01*
X125801380Y-140850976D01*
X125801380Y-139898595D02*
X125801380Y-140470023D01*
X125801380Y-140184309D02*
X124801380Y-140184309D01*
X124944238Y-140279547D01*
X125039476Y-140374785D01*
X125087095Y-140470023D01*
X125674380Y-149502785D02*
X125674380Y-150074214D01*
X125674380Y-149788500D02*
X124674380Y-149788500D01*
X124817238Y-149883738D01*
X124912476Y-149978976D01*
X124960095Y-150074214D01*
X125674380Y-149074214D02*
X124674380Y-149074214D01*
X125674380Y-148502785D02*
X125102952Y-148931357D01*
X124674380Y-148502785D02*
X125245809Y-149074214D01*
G04 #@! TO.C,U2*
X105156095Y-154773380D02*
X105156095Y-155582904D01*
X105203714Y-155678142D01*
X105251333Y-155725761D01*
X105346571Y-155773380D01*
X105537047Y-155773380D01*
X105632285Y-155725761D01*
X105679904Y-155678142D01*
X105727523Y-155582904D01*
X105727523Y-154773380D01*
X106156095Y-154868619D02*
X106203714Y-154821000D01*
X106298952Y-154773380D01*
X106537047Y-154773380D01*
X106632285Y-154821000D01*
X106679904Y-154868619D01*
X106727523Y-154963857D01*
X106727523Y-155059095D01*
X106679904Y-155201952D01*
X106108476Y-155773380D01*
X106727523Y-155773380D01*
X99528380Y-150201047D02*
X99528380Y-149629619D01*
X100528380Y-149915333D02*
X99528380Y-149915333D01*
X100528380Y-148820095D02*
X100528380Y-149296285D01*
X99528380Y-149296285D01*
X99528380Y-148296285D02*
X99528380Y-148201047D01*
X99576000Y-148105809D01*
X99623619Y-148058190D01*
X99718857Y-148010571D01*
X99909333Y-147962952D01*
X100147428Y-147962952D01*
X100337904Y-148010571D01*
X100433142Y-148058190D01*
X100480761Y-148105809D01*
X100528380Y-148201047D01*
X100528380Y-148296285D01*
X100480761Y-148391523D01*
X100433142Y-148439142D01*
X100337904Y-148486761D01*
X100147428Y-148534380D01*
X99909333Y-148534380D01*
X99718857Y-148486761D01*
X99623619Y-148439142D01*
X99576000Y-148391523D01*
X99528380Y-148296285D01*
X99528380Y-147629619D02*
X99528380Y-146962952D01*
X100528380Y-147391523D01*
X99623619Y-146629619D02*
X99576000Y-146582000D01*
X99528380Y-146486761D01*
X99528380Y-146248666D01*
X99576000Y-146153428D01*
X99623619Y-146105809D01*
X99718857Y-146058190D01*
X99814095Y-146058190D01*
X99956952Y-146105809D01*
X100528380Y-146677238D01*
X100528380Y-146058190D01*
G04 #@! TO.C,P3*
X94940380Y-122150095D02*
X93940380Y-122150095D01*
X93940380Y-121769142D01*
X93988000Y-121673904D01*
X94035619Y-121626285D01*
X94130857Y-121578666D01*
X94273714Y-121578666D01*
X94368952Y-121626285D01*
X94416571Y-121673904D01*
X94464190Y-121769142D01*
X94464190Y-122150095D01*
X93940380Y-121245333D02*
X93940380Y-120626285D01*
X94321333Y-120959619D01*
X94321333Y-120816761D01*
X94368952Y-120721523D01*
X94416571Y-120673904D01*
X94511809Y-120626285D01*
X94749904Y-120626285D01*
X94845142Y-120673904D01*
X94892761Y-120721523D01*
X94940380Y-120816761D01*
X94940380Y-121102476D01*
X94892761Y-121197714D01*
X94845142Y-121245333D01*
X94511761Y-117331476D02*
X94559380Y-117188619D01*
X94559380Y-116950523D01*
X94511761Y-116855285D01*
X94464142Y-116807666D01*
X94368904Y-116760047D01*
X94273666Y-116760047D01*
X94178428Y-116807666D01*
X94130809Y-116855285D01*
X94083190Y-116950523D01*
X94035571Y-117141000D01*
X93987952Y-117236238D01*
X93940333Y-117283857D01*
X93845095Y-117331476D01*
X93749857Y-117331476D01*
X93654619Y-117283857D01*
X93607000Y-117236238D01*
X93559380Y-117141000D01*
X93559380Y-116902904D01*
X93607000Y-116760047D01*
X93559380Y-116426714D02*
X94559380Y-116188619D01*
X93845095Y-115998142D01*
X94559380Y-115807666D01*
X93559380Y-115569571D01*
X94559380Y-115188619D02*
X93559380Y-115188619D01*
X93559380Y-114855285D02*
X93559380Y-114283857D01*
X94559380Y-114569571D02*
X93559380Y-114569571D01*
X94464142Y-113379095D02*
X94511761Y-113426714D01*
X94559380Y-113569571D01*
X94559380Y-113664809D01*
X94511761Y-113807666D01*
X94416523Y-113902904D01*
X94321285Y-113950523D01*
X94130809Y-113998142D01*
X93987952Y-113998142D01*
X93797476Y-113950523D01*
X93702238Y-113902904D01*
X93607000Y-113807666D01*
X93559380Y-113664809D01*
X93559380Y-113569571D01*
X93607000Y-113426714D01*
X93654619Y-113379095D01*
X94559380Y-112950523D02*
X93559380Y-112950523D01*
X94035571Y-112950523D02*
X94035571Y-112379095D01*
X94559380Y-112379095D02*
X93559380Y-112379095D01*
X94654619Y-112141000D02*
X94654619Y-111379095D01*
X94559380Y-111141000D02*
X93559380Y-111141000D01*
X93559380Y-110760047D01*
X93607000Y-110664809D01*
X93654619Y-110617190D01*
X93749857Y-110569571D01*
X93892714Y-110569571D01*
X93987952Y-110617190D01*
X94035571Y-110664809D01*
X94083190Y-110760047D01*
X94083190Y-111141000D01*
X94273666Y-110188619D02*
X94273666Y-109712428D01*
X94559380Y-110283857D02*
X93559380Y-109950523D01*
X94559380Y-109617190D01*
X94559380Y-109283857D02*
X93559380Y-109283857D01*
X94559380Y-108712428D01*
X93559380Y-108712428D01*
X94035571Y-108236238D02*
X94035571Y-107902904D01*
X94559380Y-107760047D02*
X94559380Y-108236238D01*
X93559380Y-108236238D01*
X93559380Y-107760047D01*
X94559380Y-106855285D02*
X94559380Y-107331476D01*
X93559380Y-107331476D01*
G04 #@! TD*
M02*
