M48
;DRILL file {KiCad 4.0.5} date Friday, February 09, 2018 'PMt' 10:56:50 PM
;FORMAT={-:-/ absolute / inch / decimal}
FMAT,2
INCH,TZ
T1C0.016
T2C0.028
T3C0.030
T4C0.031
T5C0.039
T6C0.039
T7C0.040
T8C0.059
T9C0.062
T10C0.087
T11C0.118
%
G90
G05
M72
T1
X4.2069Y-4.3355
X4.8144Y-5.7405
X4.925Y-4.2
X4.925Y-4.335
T2
X3.2069Y-2.3606
X3.2069Y-2.7806
X3.2069Y-3.1806
X3.2069Y-3.5806
X3.2069Y-3.9806
X3.2069Y-4.3806
X3.2069Y-4.7806
X3.2069Y-5.1806
X3.6069Y-2.3606
X3.6069Y-2.7806
X3.6069Y-3.1806
X3.6069Y-3.5806
X3.6069Y-3.9806
X3.6069Y-4.3806
X3.6069Y-4.7806
X3.6069Y-5.1806
X4.2869Y-4.7804
X4.2869Y-5.1804
X4.3069Y-2.3404
X4.3069Y-2.7804
X4.3069Y-3.1804
X4.3069Y-3.5804
X4.3069Y-3.9804
X4.3069Y-4.3804
X4.6869Y-4.7804
X4.6869Y-5.1804
X4.7069Y-2.3404
X4.7069Y-2.7804
X4.7069Y-3.1804
X4.7069Y-3.5804
X4.7069Y-3.9804
X4.7069Y-4.3804
X5.3651Y-3.515
X5.3651Y-3.915
X5.3651Y-4.035
X5.3651Y-4.435
X5.3651Y-4.595
X5.3651Y-4.995
X5.4201Y-5.135
X5.4201Y-5.535
T3
X5.0316Y-5.2816
X5.0316Y-5.4784
X5.2284Y-5.2816
X5.2284Y-5.4784
T4
X4.85Y-5.315
X4.85Y-5.5119
T5
X5.0285Y-2.7761
X5.1269Y-2.7761
X5.2254Y-2.7761
X5.6685Y-3.3961
X5.7669Y-3.3961
X5.8654Y-3.3961
T6
X2.9669Y-2.5205
X2.9669Y-2.9205
X2.9669Y-3.3205
X2.9669Y-3.7205
X2.9669Y-4.1205
X2.9669Y-4.5205
X2.9669Y-4.9205
X2.9669Y-5.3205
X3.0669Y-2.5205
X3.0669Y-2.9205
X3.0669Y-3.3205
X3.0669Y-3.7205
X3.0669Y-4.1205
X3.0669Y-4.5205
X3.0669Y-4.9205
X3.0669Y-5.3205
X3.2069Y-2.6805
X3.2069Y-3.0805
X3.2069Y-3.4805
X3.2069Y-3.8805
X3.2069Y-4.2805
X3.2069Y-4.6805
X3.2069Y-5.0805
X3.2169Y-5.5205
X3.2169Y-5.6705
X3.6069Y-2.6805
X3.6069Y-3.0805
X3.6069Y-3.4805
X3.6069Y-3.8805
X3.6069Y-4.2805
X3.6069Y-4.6805
X3.6069Y-5.0805
X3.6169Y-5.5205
X3.6169Y-5.6705
X3.8069Y-5.1405
X3.8069Y-5.5405
X4.0569Y-2.5205
X4.0569Y-2.9205
X4.0569Y-3.3205
X4.0569Y-3.7205
X4.0569Y-4.1205
X4.0569Y-4.5205
X4.0569Y-4.9205
X4.0569Y-5.3205
X4.1569Y-2.5205
X4.1569Y-2.9205
X4.1569Y-3.3205
X4.1569Y-3.7205
X4.1569Y-4.1205
X4.1569Y-4.5205
X4.1569Y-4.9205
X4.1569Y-5.3205
X4.2869Y-4.6805
X4.2869Y-5.0805
X4.2869Y-5.4805
X4.2869Y-5.5805
X4.3069Y-2.6805
X4.3069Y-3.0805
X4.3069Y-3.4805
X4.3069Y-3.8805
X4.3069Y-4.2805
X4.3669Y-5.6805
X4.6869Y-4.6805
X4.6869Y-5.0805
X4.6869Y-5.4805
X4.6869Y-5.5805
X4.7069Y-2.6805
X4.7069Y-3.0805
X4.7069Y-3.4805
X4.7069Y-3.8805
X4.7069Y-4.2805
X4.7669Y-5.6805
X5.245Y-5.67
X5.3669Y-2.9805
X5.3669Y-3.3805
X5.4869Y-2.8205
X5.56Y-3.515
X5.56Y-4.035
X5.56Y-4.595
X5.565Y-5.135
X5.645Y-5.67
X5.8869Y-2.8205
X5.96Y-3.515
X5.96Y-4.035
X5.96Y-4.595
X5.965Y-5.135
T7
X3.8169Y-4.0705
X3.8169Y-4.1705
X3.8169Y-4.2705
X3.8169Y-4.3705
X3.8169Y-4.4705
X3.8169Y-4.5705
X3.8169Y-4.6705
X3.8169Y-4.7705
X3.9169Y-4.0705
X3.9169Y-4.1705
X3.9169Y-4.2705
X3.9169Y-4.3705
X3.9169Y-4.4705
X3.9169Y-4.5705
X3.9169Y-4.6705
X3.9169Y-4.7705
X5.0169Y-3.3705
X5.0169Y-3.4705
X5.0169Y-3.5705
X5.0169Y-3.6705
X5.0169Y-3.7705
X5.0169Y-3.8705
X5.0169Y-3.9705
X5.1169Y-3.3705
X5.1169Y-3.4705
X5.1169Y-3.5705
X5.1169Y-3.6705
X5.1169Y-3.7705
X5.1169Y-3.8705
X5.1169Y-3.9705
T8
X3.1618Y-5.9205
X3.2839Y-5.9205
X3.6106Y-5.9205
X4.2549Y-5.92
X4.3769Y-5.92
X4.7037Y-5.92
X5.1949Y-5.92
X5.3169Y-5.92
X5.5099Y-4.295
X5.5149Y-3.75
X5.5149Y-4.835
X5.5149Y-5.38
X5.6319Y-4.295
X5.6369Y-3.75
X5.6369Y-4.835
X5.6369Y-5.38
X5.6437Y-5.92
X5.9587Y-4.295
X5.9637Y-3.75
X5.9637Y-4.835
X5.9637Y-5.38
T9
X3.3169Y-2.5205
X3.3169Y-2.9205
X3.3169Y-3.3205
X3.3169Y-3.7205
X3.3169Y-4.1205
X3.3169Y-4.5205
X3.3169Y-4.9205
X3.3169Y-5.3205
X3.4169Y-2.5205
X3.4169Y-2.9205
X3.4169Y-3.3205
X3.4169Y-3.7205
X3.4169Y-4.1205
X3.4169Y-4.5205
X3.4169Y-4.9205
X3.4169Y-5.3205
X3.5169Y-2.5205
X3.5169Y-2.9205
X3.5169Y-3.3205
X3.5169Y-3.7205
X3.5169Y-4.1205
X3.5169Y-4.5205
X3.5169Y-4.9205
X3.5169Y-5.3205
X4.4069Y-2.5205
X4.4069Y-2.9205
X4.4069Y-3.3205
X4.4069Y-3.7205
X4.4069Y-4.1205
X4.4069Y-4.5205
X4.4069Y-4.9205
X4.4069Y-5.3205
X4.5069Y-2.5205
X4.5069Y-2.9205
X4.5069Y-3.3205
X4.5069Y-3.7205
X4.5069Y-4.1205
X4.5069Y-4.5205
X4.5069Y-4.9205
X4.5069Y-5.3205
X4.6069Y-2.5205
X4.6069Y-2.9205
X4.6069Y-3.3205
X4.6069Y-3.7205
X4.6069Y-4.1205
X4.6069Y-4.5205
X4.6069Y-4.9205
X4.6069Y-5.3205
X5.0469Y-3.0205
X5.0469Y-3.1205
X5.0494Y-3.2205
X5.13Y-4.195
X5.13Y-4.295
X5.13Y-4.395
X5.13Y-4.735
X5.13Y-4.835
X5.13Y-4.935
X5.2069Y-3.0205
X5.2069Y-3.1205
X5.2069Y-3.2205
T10
X4.938Y-2.5005
X5.3159Y-2.5005
X5.578Y-3.1205
X5.9559Y-3.1205
T11
X3.0369Y-2.2405
X3.0369Y-6.0205
X5.8769Y-2.2405
X5.8769Y-6.0205
T0
M30
