G04 #@! TF.FileFunction,Soldermask,Bot*
%FSLAX46Y46*%
G04 Gerber Fmt 4.6, Leading zero omitted, Abs format (unit mm)*
G04 Created by KiCad (PCBNEW 4.0.5) date Friday, February 09, 2018 'PMt' 10:56:44 PM*
%MOMM*%
%LPD*%
G01*
G04 APERTURE LIST*
%ADD10C,0.100000*%
%ADD11C,2.099260*%
%ADD12R,2.099260X2.099260*%
%ADD13C,2.650000*%
%ADD14C,3.400000*%
%ADD15C,2.398980*%
%ADD16O,1.900000X2.400000*%
%ADD17C,3.900000*%
%ADD18C,1.900000*%
%ADD19R,1.700000X1.700000*%
%ADD20C,1.700000*%
%ADD21R,2.127200X2.127200*%
%ADD22O,2.127200X2.127200*%
%ADD23R,2.400000X2.400000*%
%ADD24C,2.400000*%
%ADD25C,2.686000*%
G04 APERTURE END LIST*
D10*
D11*
X119556520Y-59445460D03*
D12*
X109396520Y-59445460D03*
D11*
X119556520Y-70621460D03*
D12*
X109396520Y-70621460D03*
D11*
X119556520Y-80781460D03*
D12*
X109396520Y-80781460D03*
D11*
X119556520Y-90941460D03*
D12*
X109396520Y-90941460D03*
D11*
X119556520Y-101101460D03*
D12*
X109396520Y-101101460D03*
D11*
X119556520Y-111261460D03*
D12*
X109396520Y-111261460D03*
D11*
X119048520Y-121421460D03*
D12*
X108888520Y-121421460D03*
D11*
X119048520Y-131581460D03*
D12*
X108888520Y-131581460D03*
D11*
X81455480Y-59958540D03*
D12*
X91615480Y-59958540D03*
D11*
X81455480Y-70626540D03*
D12*
X91615480Y-70626540D03*
D11*
X81455480Y-80786540D03*
D12*
X91615480Y-80786540D03*
D11*
X81455480Y-90946540D03*
D12*
X91615480Y-90946540D03*
D11*
X81455480Y-101106540D03*
D12*
X91615480Y-101106540D03*
D11*
X81455480Y-111266540D03*
D12*
X91615480Y-111266540D03*
D11*
X81455480Y-121426540D03*
D12*
X91615480Y-121426540D03*
D11*
X81455480Y-131586540D03*
D12*
X91615480Y-131586540D03*
D13*
X151478000Y-95250000D03*
X143178000Y-95250000D03*
X140078000Y-95250000D03*
D14*
X146558000Y-95250000D03*
D13*
X151478000Y-136652000D03*
X143178000Y-136652000D03*
X140078000Y-136652000D03*
D14*
X146558000Y-136652000D03*
D13*
X151478000Y-122809000D03*
X143178000Y-122809000D03*
X140078000Y-122809000D03*
D14*
X146558000Y-122809000D03*
D13*
X119474000Y-150368000D03*
X111174000Y-150368000D03*
X108074000Y-150368000D03*
D14*
X114554000Y-150368000D03*
D13*
X91710000Y-150380000D03*
X83410000Y-150380000D03*
X80310000Y-150380000D03*
D14*
X86790000Y-150380000D03*
D13*
X143350000Y-150368000D03*
X135050000Y-150368000D03*
X131950000Y-150368000D03*
D14*
X138430000Y-150368000D03*
D15*
X136320000Y-75704000D03*
X136320000Y-85864000D03*
X119556000Y-68084000D03*
X109396000Y-68084000D03*
X119556000Y-78244000D03*
X109396000Y-78244000D03*
X119556000Y-88404000D03*
X109396000Y-88404000D03*
X119556000Y-98564000D03*
X109396000Y-98564000D03*
X119556000Y-108724000D03*
X109396000Y-108724000D03*
X119048000Y-118884000D03*
X108888000Y-118884000D03*
X119048000Y-129044000D03*
X108888000Y-129044000D03*
X119048000Y-139204000D03*
X108888000Y-139204000D03*
X121080000Y-144284000D03*
X110920000Y-144284000D03*
X91616000Y-68084000D03*
X81456000Y-68084000D03*
X91616000Y-78244000D03*
X81456000Y-78244000D03*
X91616000Y-88404000D03*
X81456000Y-88404000D03*
X91616000Y-98564000D03*
X81456000Y-98564000D03*
X91616000Y-108724000D03*
X81456000Y-108724000D03*
X91616000Y-118884000D03*
X81456000Y-118884000D03*
X91616000Y-129044000D03*
X81456000Y-129044000D03*
X91870000Y-140220000D03*
X81710000Y-140220000D03*
X91870000Y-144030000D03*
X81710000Y-144030000D03*
X119048000Y-141744000D03*
X108888000Y-141744000D03*
X96696000Y-140728000D03*
X96696000Y-130568000D03*
D16*
X132724000Y-70512000D03*
X130224000Y-70512000D03*
X127724000Y-70512000D03*
D17*
X135024000Y-63512000D03*
X125424000Y-63512000D03*
D16*
X148980000Y-86260000D03*
X146480000Y-86260000D03*
X143980000Y-86260000D03*
D17*
X151280000Y-79260000D03*
X141680000Y-79260000D03*
D18*
X132802000Y-139152000D03*
X127802000Y-139152000D03*
X127802000Y-134152000D03*
X132802000Y-134152000D03*
D19*
X123190000Y-135001000D03*
D20*
X123190000Y-140001000D03*
D15*
X149528000Y-71640000D03*
X139368000Y-71640000D03*
D21*
X129970000Y-85610000D03*
D22*
X127430000Y-85610000D03*
X129970000Y-88150000D03*
X127430000Y-88150000D03*
D21*
X99490000Y-103390000D03*
D22*
X96950000Y-103390000D03*
X99490000Y-105930000D03*
X96950000Y-105930000D03*
X99490000Y-108470000D03*
X96950000Y-108470000D03*
X99490000Y-111010000D03*
X96950000Y-111010000D03*
X99490000Y-113550000D03*
X96950000Y-113550000D03*
X99490000Y-116090000D03*
X96950000Y-116090000D03*
X99490000Y-118630000D03*
X96950000Y-118630000D03*
X99490000Y-121170000D03*
X96950000Y-121170000D03*
D15*
X133223000Y-144018000D03*
X143383000Y-144018000D03*
D11*
X137670540Y-140589520D03*
D12*
X137670540Y-130429520D03*
D11*
X136273540Y-126873520D03*
D12*
X136273540Y-116713520D03*
D11*
X136273540Y-112649520D03*
D12*
X136273540Y-102489520D03*
D11*
X136273540Y-99441520D03*
D12*
X136273540Y-89281520D03*
D23*
X103046000Y-64020000D03*
D24*
X105586000Y-64020000D03*
D23*
X103046000Y-74180000D03*
D24*
X105586000Y-74180000D03*
D23*
X103046000Y-84340000D03*
D24*
X105586000Y-84340000D03*
D23*
X103046000Y-94500000D03*
D24*
X105586000Y-94500000D03*
D23*
X103046000Y-104660000D03*
D24*
X105586000Y-104660000D03*
D23*
X103046000Y-114820000D03*
D24*
X105586000Y-114820000D03*
D23*
X103046000Y-124980000D03*
D24*
X105586000Y-124980000D03*
D23*
X103046000Y-135140000D03*
D24*
X105586000Y-135140000D03*
D23*
X75360000Y-64020000D03*
D24*
X77900000Y-64020000D03*
D23*
X75360000Y-74180000D03*
D24*
X77900000Y-74180000D03*
D23*
X75360000Y-84340000D03*
D24*
X77900000Y-84340000D03*
D23*
X75360000Y-94500000D03*
D24*
X77900000Y-94500000D03*
D23*
X75360000Y-104660000D03*
D24*
X77900000Y-104660000D03*
D23*
X75360000Y-114820000D03*
D24*
X77900000Y-114820000D03*
D23*
X75360000Y-124980000D03*
D24*
X77900000Y-124980000D03*
D23*
X75360000Y-135140000D03*
D24*
X77900000Y-135140000D03*
D13*
X151351000Y-109093000D03*
X143051000Y-109093000D03*
X139951000Y-109093000D03*
D14*
X146431000Y-109093000D03*
D21*
X129970000Y-90690000D03*
D22*
X127430000Y-90690000D03*
X129970000Y-93230000D03*
X127430000Y-93230000D03*
X129970000Y-95770000D03*
X127430000Y-95770000D03*
D21*
X129970000Y-98310000D03*
D22*
X127430000Y-98310000D03*
X129970000Y-100850000D03*
X127430000Y-100850000D03*
D15*
X141224000Y-102489000D03*
X151384000Y-102489000D03*
X141351000Y-130429000D03*
X151511000Y-130429000D03*
X141224000Y-89281000D03*
X151384000Y-89281000D03*
X141224000Y-116713000D03*
X151384000Y-116713000D03*
D25*
X130302000Y-125349000D03*
X130302000Y-120269000D03*
X130302000Y-122809000D03*
X128192000Y-76720000D03*
X128192000Y-79260000D03*
X128255500Y-81800000D03*
X132256000Y-76720000D03*
X132256000Y-81800000D03*
X132256000Y-79260000D03*
X117016000Y-64020000D03*
X111936000Y-64020000D03*
X114476000Y-64020000D03*
X117016000Y-74180000D03*
X111936000Y-74180000D03*
X114476000Y-74180000D03*
X117016000Y-84340000D03*
X111936000Y-84340000D03*
X114476000Y-84340000D03*
X117016000Y-94500000D03*
X111936000Y-94500000D03*
X114476000Y-94500000D03*
X117016000Y-104660000D03*
X111936000Y-104660000D03*
X114476000Y-104660000D03*
X117016000Y-114820000D03*
X111936000Y-114820000D03*
X114476000Y-114820000D03*
X117016000Y-124980000D03*
X111936000Y-124980000D03*
X114476000Y-124980000D03*
X117016000Y-135140000D03*
X111936000Y-135140000D03*
X114476000Y-135140000D03*
X89330000Y-64020000D03*
X84250000Y-64020000D03*
X86790000Y-64020000D03*
X89330000Y-74180000D03*
X84250000Y-74180000D03*
X86790000Y-74180000D03*
X89330000Y-84340000D03*
X84250000Y-84340000D03*
X86790000Y-84340000D03*
X89330000Y-94500000D03*
X84250000Y-94500000D03*
X86790000Y-94500000D03*
X89330000Y-104660000D03*
X84250000Y-104660000D03*
X86790000Y-104660000D03*
X89330000Y-114820000D03*
X84250000Y-114820000D03*
X86790000Y-114820000D03*
X89330000Y-124980000D03*
X84250000Y-124980000D03*
X86790000Y-124980000D03*
X89330000Y-135140000D03*
X84250000Y-135140000D03*
X86790000Y-135140000D03*
X130302000Y-106553000D03*
X130302000Y-111633000D03*
X130302000Y-109093000D03*
M02*
