M48
;DRILL file {KiCad (5.0.0-rc2-24-g81af2db)} date Sunday, March 24, 2019 at 02:10:37 AM
;FORMAT={-:-/ absolute / inch / decimal}
FMAT,2
INCH,TZ
T1C0.0276
T2C0.0295
T3C0.0315
T4C0.0394
T5C0.0394
T6C0.0400
T7C0.0591
T8C0.0620
T9C0.0866
T10C0.1181
%
G90
G05
M72
T1
X3.2069Y-4.7806
X3.6069Y-4.7806
X3.2069Y-3.9806
X3.6069Y-3.9806
X3.2069Y-3.1806
X3.6069Y-3.1806
X3.2069Y-2.3606
X3.6069Y-2.3606
X4.2869Y-4.7804
X4.6869Y-4.7804
X4.3069Y-3.9804
X4.7069Y-3.9804
X4.3069Y-3.1804
X4.7069Y-3.1804
X4.3069Y-2.3404
X4.7069Y-2.3404
X3.2069Y-5.1806
X3.6069Y-5.1806
X3.2069Y-4.3806
X3.6069Y-4.3806
X3.2069Y-3.5806
X3.6069Y-3.5806
X3.2069Y-2.7806
X3.6069Y-2.7806
X4.2869Y-5.1804
X4.6869Y-5.1804
X4.3069Y-4.3804
X4.7069Y-4.3804
X4.3069Y-3.5804
X4.7069Y-3.5804
X4.3069Y-2.7804
X4.7069Y-2.7804
T2
X5.0316Y-5.2816
X5.0316Y-5.4784
X5.2284Y-5.2816
X5.2284Y-5.4784
T3
X3.79Y-5.705
X3.79Y-5.805
X3.79Y-5.905
X3.79Y-6.005
X4.09Y-5.705
X4.09Y-5.805
X4.09Y-5.905
X4.09Y-6.005
X3.8481Y-5.585
X4.045Y-5.585
X3.825Y-6.125
X4.0219Y-6.125
X5.43Y-5.415
X5.43Y-5.6119
T4
X5.6716Y-2.7756
X5.77Y-2.7756
X5.8684Y-2.7756
X5.0316Y-2.7756
X5.13Y-2.7756
X5.2284Y-2.7756
T5
X4.0569Y-3.7205
X4.1569Y-3.7205
X2.9669Y-2.5205
X3.0669Y-2.5205
X4.1069Y-3.0805
X4.5069Y-3.0805
X3.0069Y-2.6805
X3.4069Y-2.6805
X2.9669Y-4.5205
X3.0669Y-4.5205
X4.0869Y-4.6805
X4.4869Y-4.6805
X4.0569Y-4.1205
X4.1569Y-4.1205
X2.9669Y-2.9205
X3.0669Y-2.9205
X2.967Y-4.9205
X3.067Y-4.9205
X4.0869Y-5.0805
X4.4869Y-5.0805
X4.31Y-5.445
X4.71Y-5.445
X4.31Y-5.565
X4.71Y-5.565
X4.0569Y-4.5205
X4.1569Y-4.5205
X2.9669Y-3.3205
X3.0669Y-3.3205
X4.1069Y-3.8805
X4.5069Y-3.8805
X2.9669Y-5.3205
X3.0669Y-5.3205
X4.1069Y-4.2805
X4.5069Y-4.2805
X3.8069Y-4.9405
X3.8069Y-5.3405
X3.02Y-5.655
X3.42Y-5.655
X4.1069Y-3.4805
X4.5069Y-3.4805
X4.935Y-5.6775
X4.935Y-6.0775
X4.1069Y-2.6805
X4.5069Y-2.6805
X4.0569Y-2.9205
X4.1569Y-2.9205
X4.0569Y-4.9205
X4.1569Y-4.9205
X2.9669Y-3.7205
X3.0669Y-3.7205
X3.0069Y-3.0805
X3.4069Y-3.0805
X4.0569Y-3.3205
X4.1569Y-3.3205
X3.0069Y-3.4805
X3.4069Y-3.4805
X4.0569Y-5.3205
X4.1569Y-5.3205
X3.0069Y-3.8805
X3.4069Y-3.8805
X4.0569Y-2.5205
X4.1569Y-2.5205
X2.965Y-4.12
X3.065Y-4.12
X3.0069Y-4.2805
X3.4069Y-4.2805
X3.0069Y-4.6805
X3.4069Y-4.6805
X4.31Y-5.685
X4.71Y-5.685
X3.0069Y-5.0805
X3.4069Y-5.0805
X3.0169Y-5.5205
X3.4169Y-5.5205
T6
X3.815Y-4.07
X3.815Y-4.17
X3.815Y-4.27
X3.815Y-4.37
X3.815Y-4.47
X3.815Y-4.57
X3.815Y-4.67
X3.815Y-4.77
X3.915Y-4.07
X3.915Y-4.17
X3.915Y-4.27
X3.915Y-4.37
X3.915Y-4.47
X3.915Y-4.57
X3.915Y-4.67
X3.915Y-4.77
X5.015Y-3.365
X5.015Y-3.465
X5.015Y-3.565
X5.015Y-3.665
X5.015Y-3.765
X5.015Y-3.865
X5.015Y-3.965
X5.115Y-3.365
X5.115Y-3.465
X5.115Y-3.565
X5.115Y-3.665
X5.115Y-3.765
X5.115Y-3.865
X5.115Y-3.965
X5.345Y-4.11
X5.345Y-4.21
X5.345Y-4.31
X5.345Y-4.41
X5.345Y-4.51
X5.345Y-4.61
X5.345Y-4.71
X5.345Y-4.81
X5.345Y-4.91
X5.345Y-5.01
T7
X5.1949Y-5.92
X5.3169Y-5.92
X5.6437Y-5.92
X3.1618Y-5.9205
X3.2839Y-5.9205
X3.6106Y-5.9205
X4.2499Y-5.92
X4.3719Y-5.92
X4.6987Y-5.92
T8
X5.77Y-3.02
X5.77Y-3.12
X5.77Y-3.22
X3.3169Y-3.7205
X3.4169Y-3.7205
X3.5169Y-3.7205
X3.3169Y-5.3205
X3.4169Y-5.3205
X3.5169Y-5.3205
X3.3169Y-3.3205
X3.4169Y-3.3205
X3.5169Y-3.3205
X3.3169Y-2.9205
X3.4169Y-2.9205
X3.5169Y-2.9205
X4.4069Y-3.7205
X4.5069Y-3.7205
X4.6069Y-3.7205
X5.13Y-4.74
X5.13Y-4.84
X5.13Y-4.94
X3.3169Y-2.5205
X3.4169Y-2.5205
X3.5169Y-2.5205
X4.4069Y-3.3205
X4.5069Y-3.3205
X4.6069Y-3.3205
X5.13Y-4.2
X5.13Y-4.3
X5.13Y-4.4
X4.4069Y-4.1205
X4.5069Y-4.1205
X4.6069Y-4.1205
X4.4069Y-5.3205
X4.5069Y-5.3205
X4.6069Y-5.3205
X4.4069Y-2.9205
X4.5069Y-2.9205
X4.6069Y-2.9205
X3.317Y-4.92
X3.417Y-4.92
X3.517Y-4.92
X4.4069Y-4.9205
X4.5069Y-4.9205
X4.6069Y-4.9205
X3.3169Y-4.5205
X3.4169Y-4.5205
X3.5169Y-4.5205
X4.4069Y-4.5205
X4.5069Y-4.5205
X4.6069Y-4.5205
X4.4069Y-2.5205
X4.5069Y-2.5205
X4.6069Y-2.5205
X5.0414Y-3.0196
X5.0414Y-3.12
X5.0414Y-3.2204
X5.2186Y-3.0196
X5.2186Y-3.12
X5.2186Y-3.2204
X3.3169Y-4.1205
X3.4169Y-4.1205
X3.5169Y-4.1205
T9
X5.581Y-2.5
X5.959Y-2.5
X4.941Y-2.5
X5.319Y-2.5
T10
X3.0369Y-6.0205
X5.8769Y-6.0205
X3.0369Y-2.2405
X5.445Y-2.24
T0
M30
