G04 #@! TF.FileFunction,Legend,Bot*
%FSLAX46Y46*%
G04 Gerber Fmt 4.6, Leading zero omitted, Abs format (unit mm)*
G04 Created by KiCad (PCBNEW 4.0.5) date Friday, February 09, 2018 'PMt' 10:56:44 PM*
%MOMM*%
%LPD*%
G01*
G04 APERTURE LIST*
%ADD10C,0.100000*%
%ADD11C,0.300000*%
%ADD12C,0.150000*%
%ADD13C,0.381000*%
G04 APERTURE END LIST*
D10*
D11*
X125671642Y-84193071D02*
X126528785Y-84193071D01*
X126100213Y-84193071D02*
X126100213Y-82693071D01*
X126243070Y-82907357D01*
X126385928Y-83050214D01*
X126528785Y-83121643D01*
X125171642Y-84193071D02*
X124385928Y-83193071D01*
X125171642Y-83193071D02*
X124385928Y-84193071D01*
X123028785Y-84193071D02*
X123885928Y-84193071D01*
X123457356Y-84193071D02*
X123457356Y-82693071D01*
X123600213Y-82907357D01*
X123743071Y-83050214D01*
X123885928Y-83121643D01*
X121743071Y-82693071D02*
X122028785Y-82693071D01*
X122171642Y-82764500D01*
X122243071Y-82835929D01*
X122385928Y-83050214D01*
X122457357Y-83335929D01*
X122457357Y-83907357D01*
X122385928Y-84050214D01*
X122314500Y-84121643D01*
X122171642Y-84193071D01*
X121885928Y-84193071D01*
X121743071Y-84121643D01*
X121671642Y-84050214D01*
X121600214Y-83907357D01*
X121600214Y-83550214D01*
X121671642Y-83407357D01*
X121743071Y-83335929D01*
X121885928Y-83264500D01*
X122171642Y-83264500D01*
X122314500Y-83335929D01*
X122385928Y-83407357D01*
X122457357Y-83550214D01*
X126703500Y-73374429D02*
X126632071Y-73303000D01*
X126489214Y-73231571D01*
X126132071Y-73231571D01*
X125989214Y-73303000D01*
X125917785Y-73374429D01*
X125846357Y-73517286D01*
X125846357Y-73660143D01*
X125917785Y-73874429D01*
X126774928Y-74731571D01*
X125846357Y-74731571D01*
X125346357Y-74731571D02*
X124560643Y-73731571D01*
X125346357Y-73731571D02*
X124560643Y-74731571D01*
X123774928Y-73874429D02*
X123917786Y-73803000D01*
X123989214Y-73731571D01*
X124060643Y-73588714D01*
X124060643Y-73517286D01*
X123989214Y-73374429D01*
X123917786Y-73303000D01*
X123774928Y-73231571D01*
X123489214Y-73231571D01*
X123346357Y-73303000D01*
X123274928Y-73374429D01*
X123203500Y-73517286D01*
X123203500Y-73588714D01*
X123274928Y-73731571D01*
X123346357Y-73803000D01*
X123489214Y-73874429D01*
X123774928Y-73874429D01*
X123917786Y-73945857D01*
X123989214Y-74017286D01*
X124060643Y-74160143D01*
X124060643Y-74445857D01*
X123989214Y-74588714D01*
X123917786Y-74660143D01*
X123774928Y-74731571D01*
X123489214Y-74731571D01*
X123346357Y-74660143D01*
X123274928Y-74588714D01*
X123203500Y-74445857D01*
X123203500Y-74160143D01*
X123274928Y-74017286D01*
X123346357Y-73945857D01*
X123489214Y-73874429D01*
X148129286Y-72195571D02*
X147843572Y-73195571D01*
X147557858Y-72481286D01*
X147272143Y-73195571D01*
X146986429Y-72195571D01*
X146415000Y-73195571D02*
X146415000Y-72195571D01*
X146415000Y-71695571D02*
X146486429Y-71767000D01*
X146415000Y-71838429D01*
X146343572Y-71767000D01*
X146415000Y-71695571D01*
X146415000Y-71838429D01*
X145057857Y-73195571D02*
X145057857Y-71695571D01*
X145057857Y-73124143D02*
X145200714Y-73195571D01*
X145486428Y-73195571D01*
X145629286Y-73124143D01*
X145700714Y-73052714D01*
X145772143Y-72909857D01*
X145772143Y-72481286D01*
X145700714Y-72338429D01*
X145629286Y-72267000D01*
X145486428Y-72195571D01*
X145200714Y-72195571D01*
X145057857Y-72267000D01*
X144557857Y-72195571D02*
X143986428Y-72195571D01*
X144343571Y-71695571D02*
X144343571Y-72981286D01*
X144272143Y-73124143D01*
X144129285Y-73195571D01*
X143986428Y-73195571D01*
X143486428Y-73195571D02*
X143486428Y-71695571D01*
X142843571Y-73195571D02*
X142843571Y-72409857D01*
X142915000Y-72267000D01*
X143057857Y-72195571D01*
X143272142Y-72195571D01*
X143415000Y-72267000D01*
X143486428Y-72338429D01*
X131778142Y-57320571D02*
X131778142Y-56320571D01*
X131778142Y-56606286D02*
X131706714Y-56463429D01*
X131635285Y-56392000D01*
X131492428Y-56320571D01*
X131349571Y-56320571D01*
X130206714Y-57320571D02*
X130206714Y-56534857D01*
X130278143Y-56392000D01*
X130421000Y-56320571D01*
X130706714Y-56320571D01*
X130849571Y-56392000D01*
X130206714Y-57249143D02*
X130349571Y-57320571D01*
X130706714Y-57320571D01*
X130849571Y-57249143D01*
X130921000Y-57106286D01*
X130921000Y-56963429D01*
X130849571Y-56820571D01*
X130706714Y-56749143D01*
X130349571Y-56749143D01*
X130206714Y-56677714D01*
X129706714Y-56320571D02*
X129135285Y-56320571D01*
X129492428Y-55820571D02*
X129492428Y-57106286D01*
X129421000Y-57249143D01*
X129278142Y-57320571D01*
X129135285Y-57320571D01*
X128063857Y-57249143D02*
X128206714Y-57320571D01*
X128492428Y-57320571D01*
X128635285Y-57249143D01*
X128706714Y-57106286D01*
X128706714Y-56534857D01*
X128635285Y-56392000D01*
X128492428Y-56320571D01*
X128206714Y-56320571D01*
X128063857Y-56392000D01*
X127992428Y-56534857D01*
X127992428Y-56677714D01*
X128706714Y-56820571D01*
D12*
X142058000Y-99750000D02*
X142058000Y-90750000D01*
X142058000Y-90750000D02*
X152558000Y-90750000D01*
X152558000Y-90750000D02*
X152558000Y-99750000D01*
X152558000Y-99750000D02*
X142058000Y-99750000D01*
X142058000Y-141152000D02*
X142058000Y-132152000D01*
X142058000Y-132152000D02*
X152558000Y-132152000D01*
X152558000Y-132152000D02*
X152558000Y-141152000D01*
X152558000Y-141152000D02*
X142058000Y-141152000D01*
X142058000Y-127309000D02*
X142058000Y-118309000D01*
X142058000Y-118309000D02*
X152558000Y-118309000D01*
X152558000Y-118309000D02*
X152558000Y-127309000D01*
X152558000Y-127309000D02*
X142058000Y-127309000D01*
X110054000Y-154868000D02*
X110054000Y-145868000D01*
X110054000Y-145868000D02*
X120554000Y-145868000D01*
X120554000Y-145868000D02*
X120554000Y-154868000D01*
X120554000Y-154868000D02*
X110054000Y-154868000D01*
X82290000Y-154880000D02*
X82290000Y-145880000D01*
X82290000Y-145880000D02*
X92790000Y-145880000D01*
X92790000Y-145880000D02*
X92790000Y-154880000D01*
X92790000Y-154880000D02*
X82290000Y-154880000D01*
X133930000Y-154868000D02*
X133930000Y-145868000D01*
X133930000Y-145868000D02*
X144430000Y-145868000D01*
X144430000Y-145868000D02*
X144430000Y-154868000D01*
X144430000Y-154868000D02*
X133930000Y-154868000D01*
D13*
X125324000Y-58012000D02*
X125324000Y-70012000D01*
X135124000Y-70012000D02*
X135124000Y-58012000D01*
X135124000Y-70012000D02*
X125324000Y-70012000D01*
X135124000Y-58012000D02*
X125324000Y-58012000D01*
X126824000Y-67912000D02*
G75*
G03X126824000Y-67912000I-400000J0D01*
G01*
X134424000Y-67912000D02*
G75*
G03X134424000Y-67912000I-400000J0D01*
G01*
X126824000Y-59112000D02*
G75*
G03X126824000Y-59112000I-400000J0D01*
G01*
X134424000Y-59112000D02*
G75*
G03X134424000Y-59112000I-400000J0D01*
G01*
X132824960Y-62010860D02*
X127623040Y-62010860D01*
X133223740Y-63512000D02*
G75*
G03X133223740Y-63512000I-2999740J0D01*
G01*
X133625060Y-63512000D02*
G75*
G03X133625060Y-63512000I-3401060J0D01*
G01*
X141580000Y-73760000D02*
X141580000Y-85760000D01*
X151380000Y-85760000D02*
X151380000Y-73760000D01*
X151380000Y-85760000D02*
X141580000Y-85760000D01*
X151380000Y-73760000D02*
X141580000Y-73760000D01*
X143080000Y-83660000D02*
G75*
G03X143080000Y-83660000I-400000J0D01*
G01*
X150680000Y-83660000D02*
G75*
G03X150680000Y-83660000I-400000J0D01*
G01*
X143080000Y-74860000D02*
G75*
G03X143080000Y-74860000I-400000J0D01*
G01*
X150680000Y-74860000D02*
G75*
G03X150680000Y-74860000I-400000J0D01*
G01*
X149080960Y-77758860D02*
X143879040Y-77758860D01*
X149479740Y-79260000D02*
G75*
G03X149479740Y-79260000I-2999740J0D01*
G01*
X149881060Y-79260000D02*
G75*
G03X149881060Y-79260000I-3401060J0D01*
G01*
D12*
X132902000Y-142052000D02*
G75*
G02X124902000Y-139252000I-2600000J5400000D01*
G01*
X124909236Y-134021773D02*
G75*
G02X130302000Y-130652000I5392764J-2630227D01*
G01*
X130302000Y-130652000D02*
G75*
G02X136302000Y-136652000I0J-6000000D01*
G01*
X136302000Y-136652000D02*
G75*
G02X130302000Y-142652000I-6000000J0D01*
G01*
X124902000Y-139252000D02*
X124902000Y-134052000D01*
X134802000Y-136652000D02*
G75*
G03X134802000Y-136652000I-4500000J0D01*
G01*
X102847000Y-62706000D02*
X102847000Y-62906000D01*
X102847000Y-65300000D02*
X102847000Y-65120000D01*
X106074744Y-64989643D02*
G75*
G02X102847000Y-65306000I-1727744J1003643D01*
G01*
X105399006Y-65119068D02*
G75*
G02X103296000Y-65120000I-1052006J1133068D01*
G01*
X102859780Y-62679274D02*
G75*
G02X106097000Y-63026000I1497220J-1306726D01*
G01*
X103333111Y-62906747D02*
G75*
G02X105381000Y-62926000I1013889J-1079253D01*
G01*
X102847000Y-72866000D02*
X102847000Y-73066000D01*
X102847000Y-75460000D02*
X102847000Y-75280000D01*
X106074744Y-75149643D02*
G75*
G02X102847000Y-75466000I-1727744J1003643D01*
G01*
X105399006Y-75279068D02*
G75*
G02X103296000Y-75280000I-1052006J1133068D01*
G01*
X102859780Y-72839274D02*
G75*
G02X106097000Y-73186000I1497220J-1306726D01*
G01*
X103333111Y-73066747D02*
G75*
G02X105381000Y-73086000I1013889J-1079253D01*
G01*
X102847000Y-83026000D02*
X102847000Y-83226000D01*
X102847000Y-85620000D02*
X102847000Y-85440000D01*
X106074744Y-85309643D02*
G75*
G02X102847000Y-85626000I-1727744J1003643D01*
G01*
X105399006Y-85439068D02*
G75*
G02X103296000Y-85440000I-1052006J1133068D01*
G01*
X102859780Y-82999274D02*
G75*
G02X106097000Y-83346000I1497220J-1306726D01*
G01*
X103333111Y-83226747D02*
G75*
G02X105381000Y-83246000I1013889J-1079253D01*
G01*
X102847000Y-93186000D02*
X102847000Y-93386000D01*
X102847000Y-95780000D02*
X102847000Y-95600000D01*
X106074744Y-95469643D02*
G75*
G02X102847000Y-95786000I-1727744J1003643D01*
G01*
X105399006Y-95599068D02*
G75*
G02X103296000Y-95600000I-1052006J1133068D01*
G01*
X102859780Y-93159274D02*
G75*
G02X106097000Y-93506000I1497220J-1306726D01*
G01*
X103333111Y-93386747D02*
G75*
G02X105381000Y-93406000I1013889J-1079253D01*
G01*
X102847000Y-103346000D02*
X102847000Y-103546000D01*
X102847000Y-105940000D02*
X102847000Y-105760000D01*
X106074744Y-105629643D02*
G75*
G02X102847000Y-105946000I-1727744J1003643D01*
G01*
X105399006Y-105759068D02*
G75*
G02X103296000Y-105760000I-1052006J1133068D01*
G01*
X102859780Y-103319274D02*
G75*
G02X106097000Y-103666000I1497220J-1306726D01*
G01*
X103333111Y-103546747D02*
G75*
G02X105381000Y-103566000I1013889J-1079253D01*
G01*
X102847000Y-113506000D02*
X102847000Y-113706000D01*
X102847000Y-116100000D02*
X102847000Y-115920000D01*
X106074744Y-115789643D02*
G75*
G02X102847000Y-116106000I-1727744J1003643D01*
G01*
X105399006Y-115919068D02*
G75*
G02X103296000Y-115920000I-1052006J1133068D01*
G01*
X102859780Y-113479274D02*
G75*
G02X106097000Y-113826000I1497220J-1306726D01*
G01*
X103333111Y-113706747D02*
G75*
G02X105381000Y-113726000I1013889J-1079253D01*
G01*
X102847000Y-123666000D02*
X102847000Y-123866000D01*
X102847000Y-126260000D02*
X102847000Y-126080000D01*
X106074744Y-125949643D02*
G75*
G02X102847000Y-126266000I-1727744J1003643D01*
G01*
X105399006Y-126079068D02*
G75*
G02X103296000Y-126080000I-1052006J1133068D01*
G01*
X102859780Y-123639274D02*
G75*
G02X106097000Y-123986000I1497220J-1306726D01*
G01*
X103333111Y-123866747D02*
G75*
G02X105381000Y-123886000I1013889J-1079253D01*
G01*
X102847000Y-133826000D02*
X102847000Y-134026000D01*
X102847000Y-136420000D02*
X102847000Y-136240000D01*
X106074744Y-136109643D02*
G75*
G02X102847000Y-136426000I-1727744J1003643D01*
G01*
X105399006Y-136239068D02*
G75*
G02X103296000Y-136240000I-1052006J1133068D01*
G01*
X102859780Y-133799274D02*
G75*
G02X106097000Y-134146000I1497220J-1306726D01*
G01*
X103333111Y-134026747D02*
G75*
G02X105381000Y-134046000I1013889J-1079253D01*
G01*
X75161000Y-62706000D02*
X75161000Y-62906000D01*
X75161000Y-65300000D02*
X75161000Y-65120000D01*
X78388744Y-64989643D02*
G75*
G02X75161000Y-65306000I-1727744J1003643D01*
G01*
X77713006Y-65119068D02*
G75*
G02X75610000Y-65120000I-1052006J1133068D01*
G01*
X75173780Y-62679274D02*
G75*
G02X78411000Y-63026000I1497220J-1306726D01*
G01*
X75647111Y-62906747D02*
G75*
G02X77695000Y-62926000I1013889J-1079253D01*
G01*
X75161000Y-72866000D02*
X75161000Y-73066000D01*
X75161000Y-75460000D02*
X75161000Y-75280000D01*
X78388744Y-75149643D02*
G75*
G02X75161000Y-75466000I-1727744J1003643D01*
G01*
X77713006Y-75279068D02*
G75*
G02X75610000Y-75280000I-1052006J1133068D01*
G01*
X75173780Y-72839274D02*
G75*
G02X78411000Y-73186000I1497220J-1306726D01*
G01*
X75647111Y-73066747D02*
G75*
G02X77695000Y-73086000I1013889J-1079253D01*
G01*
X75161000Y-83026000D02*
X75161000Y-83226000D01*
X75161000Y-85620000D02*
X75161000Y-85440000D01*
X78388744Y-85309643D02*
G75*
G02X75161000Y-85626000I-1727744J1003643D01*
G01*
X77713006Y-85439068D02*
G75*
G02X75610000Y-85440000I-1052006J1133068D01*
G01*
X75173780Y-82999274D02*
G75*
G02X78411000Y-83346000I1497220J-1306726D01*
G01*
X75647111Y-83226747D02*
G75*
G02X77695000Y-83246000I1013889J-1079253D01*
G01*
X75161000Y-93186000D02*
X75161000Y-93386000D01*
X75161000Y-95780000D02*
X75161000Y-95600000D01*
X78388744Y-95469643D02*
G75*
G02X75161000Y-95786000I-1727744J1003643D01*
G01*
X77713006Y-95599068D02*
G75*
G02X75610000Y-95600000I-1052006J1133068D01*
G01*
X75173780Y-93159274D02*
G75*
G02X78411000Y-93506000I1497220J-1306726D01*
G01*
X75647111Y-93386747D02*
G75*
G02X77695000Y-93406000I1013889J-1079253D01*
G01*
X75161000Y-103346000D02*
X75161000Y-103546000D01*
X75161000Y-105940000D02*
X75161000Y-105760000D01*
X78388744Y-105629643D02*
G75*
G02X75161000Y-105946000I-1727744J1003643D01*
G01*
X77713006Y-105759068D02*
G75*
G02X75610000Y-105760000I-1052006J1133068D01*
G01*
X75173780Y-103319274D02*
G75*
G02X78411000Y-103666000I1497220J-1306726D01*
G01*
X75647111Y-103546747D02*
G75*
G02X77695000Y-103566000I1013889J-1079253D01*
G01*
X75161000Y-113506000D02*
X75161000Y-113706000D01*
X75161000Y-116100000D02*
X75161000Y-115920000D01*
X78388744Y-115789643D02*
G75*
G02X75161000Y-116106000I-1727744J1003643D01*
G01*
X77713006Y-115919068D02*
G75*
G02X75610000Y-115920000I-1052006J1133068D01*
G01*
X75173780Y-113479274D02*
G75*
G02X78411000Y-113826000I1497220J-1306726D01*
G01*
X75647111Y-113706747D02*
G75*
G02X77695000Y-113726000I1013889J-1079253D01*
G01*
X75161000Y-123666000D02*
X75161000Y-123866000D01*
X75161000Y-126260000D02*
X75161000Y-126080000D01*
X78388744Y-125949643D02*
G75*
G02X75161000Y-126266000I-1727744J1003643D01*
G01*
X77713006Y-126079068D02*
G75*
G02X75610000Y-126080000I-1052006J1133068D01*
G01*
X75173780Y-123639274D02*
G75*
G02X78411000Y-123986000I1497220J-1306726D01*
G01*
X75647111Y-123866747D02*
G75*
G02X77695000Y-123886000I1013889J-1079253D01*
G01*
X75161000Y-133826000D02*
X75161000Y-134026000D01*
X75161000Y-136420000D02*
X75161000Y-136240000D01*
X78388744Y-136109643D02*
G75*
G02X75161000Y-136426000I-1727744J1003643D01*
G01*
X77713006Y-136239068D02*
G75*
G02X75610000Y-136240000I-1052006J1133068D01*
G01*
X75173780Y-133799274D02*
G75*
G02X78411000Y-134146000I1497220J-1306726D01*
G01*
X75647111Y-134026747D02*
G75*
G02X77695000Y-134046000I1013889J-1079253D01*
G01*
X141931000Y-113593000D02*
X141931000Y-104593000D01*
X141931000Y-104593000D02*
X152431000Y-104593000D01*
X152431000Y-104593000D02*
X152431000Y-113593000D01*
X152431000Y-113593000D02*
X141931000Y-113593000D01*
X132143500Y-121158000D02*
X128460500Y-121158000D01*
X131728985Y-122809000D02*
G75*
G03X131728985Y-122809000I-1426985J0D01*
G01*
X132842000Y-118745000D02*
X127762000Y-118745000D01*
X127762000Y-118745000D02*
X127762000Y-126873000D01*
X127762000Y-126873000D02*
X132842000Y-126873000D01*
X132842000Y-126873000D02*
X132842000Y-118745000D01*
X132779314Y-122809000D02*
G75*
G03X132779314Y-122809000I-2477314J0D01*
G01*
X125652000Y-83324000D02*
X134796000Y-83324000D01*
X134796000Y-83324000D02*
X134796000Y-75196000D01*
X134796000Y-75196000D02*
X125652000Y-75196000D01*
X125652000Y-75196000D02*
X125652000Y-83324000D01*
X128382500Y-80911000D02*
X132065500Y-80911000D01*
X131650985Y-79260000D02*
G75*
G03X131650985Y-79260000I-1426985J0D01*
G01*
X132701314Y-79260000D02*
G75*
G03X132701314Y-79260000I-2477314J0D01*
G01*
X112825000Y-62178500D02*
X112825000Y-65861500D01*
X115902985Y-64020000D02*
G75*
G03X115902985Y-64020000I-1426985J0D01*
G01*
X110412000Y-61480000D02*
X110412000Y-66560000D01*
X110412000Y-66560000D02*
X118540000Y-66560000D01*
X118540000Y-66560000D02*
X118540000Y-61480000D01*
X118540000Y-61480000D02*
X110412000Y-61480000D01*
X116953314Y-64020000D02*
G75*
G03X116953314Y-64020000I-2477314J0D01*
G01*
X112825000Y-72338500D02*
X112825000Y-76021500D01*
X115902985Y-74180000D02*
G75*
G03X115902985Y-74180000I-1426985J0D01*
G01*
X110412000Y-71640000D02*
X110412000Y-76720000D01*
X110412000Y-76720000D02*
X118540000Y-76720000D01*
X118540000Y-76720000D02*
X118540000Y-71640000D01*
X118540000Y-71640000D02*
X110412000Y-71640000D01*
X116953314Y-74180000D02*
G75*
G03X116953314Y-74180000I-2477314J0D01*
G01*
X112825000Y-82498500D02*
X112825000Y-86181500D01*
X115902985Y-84340000D02*
G75*
G03X115902985Y-84340000I-1426985J0D01*
G01*
X110412000Y-81800000D02*
X110412000Y-86880000D01*
X110412000Y-86880000D02*
X118540000Y-86880000D01*
X118540000Y-86880000D02*
X118540000Y-81800000D01*
X118540000Y-81800000D02*
X110412000Y-81800000D01*
X116953314Y-84340000D02*
G75*
G03X116953314Y-84340000I-2477314J0D01*
G01*
X112825000Y-92658500D02*
X112825000Y-96341500D01*
X115902985Y-94500000D02*
G75*
G03X115902985Y-94500000I-1426985J0D01*
G01*
X110412000Y-91960000D02*
X110412000Y-97040000D01*
X110412000Y-97040000D02*
X118540000Y-97040000D01*
X118540000Y-97040000D02*
X118540000Y-91960000D01*
X118540000Y-91960000D02*
X110412000Y-91960000D01*
X116953314Y-94500000D02*
G75*
G03X116953314Y-94500000I-2477314J0D01*
G01*
X112825000Y-102818500D02*
X112825000Y-106501500D01*
X115902985Y-104660000D02*
G75*
G03X115902985Y-104660000I-1426985J0D01*
G01*
X110412000Y-102120000D02*
X110412000Y-107200000D01*
X110412000Y-107200000D02*
X118540000Y-107200000D01*
X118540000Y-107200000D02*
X118540000Y-102120000D01*
X118540000Y-102120000D02*
X110412000Y-102120000D01*
X116953314Y-104660000D02*
G75*
G03X116953314Y-104660000I-2477314J0D01*
G01*
X112825000Y-112978500D02*
X112825000Y-116661500D01*
X115902985Y-114820000D02*
G75*
G03X115902985Y-114820000I-1426985J0D01*
G01*
X110412000Y-112280000D02*
X110412000Y-117360000D01*
X110412000Y-117360000D02*
X118540000Y-117360000D01*
X118540000Y-117360000D02*
X118540000Y-112280000D01*
X118540000Y-112280000D02*
X110412000Y-112280000D01*
X116953314Y-114820000D02*
G75*
G03X116953314Y-114820000I-2477314J0D01*
G01*
X112825000Y-123138500D02*
X112825000Y-126821500D01*
X115902985Y-124980000D02*
G75*
G03X115902985Y-124980000I-1426985J0D01*
G01*
X110412000Y-122440000D02*
X110412000Y-127520000D01*
X110412000Y-127520000D02*
X118540000Y-127520000D01*
X118540000Y-127520000D02*
X118540000Y-122440000D01*
X118540000Y-122440000D02*
X110412000Y-122440000D01*
X116953314Y-124980000D02*
G75*
G03X116953314Y-124980000I-2477314J0D01*
G01*
X112825000Y-133298500D02*
X112825000Y-136981500D01*
X115902985Y-135140000D02*
G75*
G03X115902985Y-135140000I-1426985J0D01*
G01*
X110412000Y-132600000D02*
X110412000Y-137680000D01*
X110412000Y-137680000D02*
X118540000Y-137680000D01*
X118540000Y-137680000D02*
X118540000Y-132600000D01*
X118540000Y-132600000D02*
X110412000Y-132600000D01*
X116953314Y-135140000D02*
G75*
G03X116953314Y-135140000I-2477314J0D01*
G01*
X85139000Y-62178500D02*
X85139000Y-65861500D01*
X88216985Y-64020000D02*
G75*
G03X88216985Y-64020000I-1426985J0D01*
G01*
X82726000Y-61480000D02*
X82726000Y-66560000D01*
X82726000Y-66560000D02*
X90854000Y-66560000D01*
X90854000Y-66560000D02*
X90854000Y-61480000D01*
X90854000Y-61480000D02*
X82726000Y-61480000D01*
X89267314Y-64020000D02*
G75*
G03X89267314Y-64020000I-2477314J0D01*
G01*
X85139000Y-72338500D02*
X85139000Y-76021500D01*
X88216985Y-74180000D02*
G75*
G03X88216985Y-74180000I-1426985J0D01*
G01*
X82726000Y-71640000D02*
X82726000Y-76720000D01*
X82726000Y-76720000D02*
X90854000Y-76720000D01*
X90854000Y-76720000D02*
X90854000Y-71640000D01*
X90854000Y-71640000D02*
X82726000Y-71640000D01*
X89267314Y-74180000D02*
G75*
G03X89267314Y-74180000I-2477314J0D01*
G01*
X85139000Y-82498500D02*
X85139000Y-86181500D01*
X88216985Y-84340000D02*
G75*
G03X88216985Y-84340000I-1426985J0D01*
G01*
X82726000Y-81800000D02*
X82726000Y-86880000D01*
X82726000Y-86880000D02*
X90854000Y-86880000D01*
X90854000Y-86880000D02*
X90854000Y-81800000D01*
X90854000Y-81800000D02*
X82726000Y-81800000D01*
X89267314Y-84340000D02*
G75*
G03X89267314Y-84340000I-2477314J0D01*
G01*
X85139000Y-92658500D02*
X85139000Y-96341500D01*
X88216985Y-94500000D02*
G75*
G03X88216985Y-94500000I-1426985J0D01*
G01*
X82726000Y-91960000D02*
X82726000Y-97040000D01*
X82726000Y-97040000D02*
X90854000Y-97040000D01*
X90854000Y-97040000D02*
X90854000Y-91960000D01*
X90854000Y-91960000D02*
X82726000Y-91960000D01*
X89267314Y-94500000D02*
G75*
G03X89267314Y-94500000I-2477314J0D01*
G01*
X85139000Y-102818500D02*
X85139000Y-106501500D01*
X88216985Y-104660000D02*
G75*
G03X88216985Y-104660000I-1426985J0D01*
G01*
X82726000Y-102120000D02*
X82726000Y-107200000D01*
X82726000Y-107200000D02*
X90854000Y-107200000D01*
X90854000Y-107200000D02*
X90854000Y-102120000D01*
X90854000Y-102120000D02*
X82726000Y-102120000D01*
X89267314Y-104660000D02*
G75*
G03X89267314Y-104660000I-2477314J0D01*
G01*
X85139000Y-112978500D02*
X85139000Y-116661500D01*
X88216985Y-114820000D02*
G75*
G03X88216985Y-114820000I-1426985J0D01*
G01*
X82726000Y-112280000D02*
X82726000Y-117360000D01*
X82726000Y-117360000D02*
X90854000Y-117360000D01*
X90854000Y-117360000D02*
X90854000Y-112280000D01*
X90854000Y-112280000D02*
X82726000Y-112280000D01*
X89267314Y-114820000D02*
G75*
G03X89267314Y-114820000I-2477314J0D01*
G01*
X85139000Y-123138500D02*
X85139000Y-126821500D01*
X88216985Y-124980000D02*
G75*
G03X88216985Y-124980000I-1426985J0D01*
G01*
X82726000Y-122440000D02*
X82726000Y-127520000D01*
X82726000Y-127520000D02*
X90854000Y-127520000D01*
X90854000Y-127520000D02*
X90854000Y-122440000D01*
X90854000Y-122440000D02*
X82726000Y-122440000D01*
X89267314Y-124980000D02*
G75*
G03X89267314Y-124980000I-2477314J0D01*
G01*
X85139000Y-133298500D02*
X85139000Y-136981500D01*
X88216985Y-135140000D02*
G75*
G03X88216985Y-135140000I-1426985J0D01*
G01*
X82726000Y-132600000D02*
X82726000Y-137680000D01*
X82726000Y-137680000D02*
X90854000Y-137680000D01*
X90854000Y-137680000D02*
X90854000Y-132600000D01*
X90854000Y-132600000D02*
X82726000Y-132600000D01*
X89267314Y-135140000D02*
G75*
G03X89267314Y-135140000I-2477314J0D01*
G01*
X128460500Y-110744000D02*
X132143500Y-110744000D01*
X131728985Y-109093000D02*
G75*
G03X131728985Y-109093000I-1426985J0D01*
G01*
X127762000Y-113157000D02*
X132842000Y-113157000D01*
X132842000Y-113157000D02*
X132842000Y-105029000D01*
X132842000Y-105029000D02*
X127762000Y-105029000D01*
X127762000Y-105029000D02*
X127762000Y-113157000D01*
X132779314Y-109093000D02*
G75*
G03X132779314Y-109093000I-2477314J0D01*
G01*
X152868381Y-91360667D02*
X153582667Y-91360667D01*
X153725524Y-91313047D01*
X153820762Y-91217809D01*
X153868381Y-91074952D01*
X153868381Y-90979714D01*
X153868381Y-92360667D02*
X153868381Y-91789238D01*
X153868381Y-92074952D02*
X152868381Y-92074952D01*
X153011238Y-91979714D01*
X153106476Y-91884476D01*
X153154095Y-91789238D01*
X149319904Y-101195143D02*
X149367523Y-101242762D01*
X149510380Y-101290381D01*
X149605618Y-101290381D01*
X149748476Y-101242762D01*
X149843714Y-101147524D01*
X149891333Y-101052286D01*
X149938952Y-100861810D01*
X149938952Y-100718952D01*
X149891333Y-100528476D01*
X149843714Y-100433238D01*
X149748476Y-100338000D01*
X149605618Y-100290381D01*
X149510380Y-100290381D01*
X149367523Y-100338000D01*
X149319904Y-100385619D01*
X148415142Y-101290381D02*
X148891333Y-101290381D01*
X148891333Y-100290381D01*
X147891333Y-100290381D02*
X147700856Y-100290381D01*
X147605618Y-100338000D01*
X147510380Y-100433238D01*
X147462761Y-100623714D01*
X147462761Y-100957048D01*
X147510380Y-101147524D01*
X147605618Y-101242762D01*
X147700856Y-101290381D01*
X147891333Y-101290381D01*
X147986571Y-101242762D01*
X148081809Y-101147524D01*
X148129428Y-100957048D01*
X148129428Y-100623714D01*
X148081809Y-100433238D01*
X147986571Y-100338000D01*
X147891333Y-100290381D01*
X146462761Y-101195143D02*
X146510380Y-101242762D01*
X146653237Y-101290381D01*
X146748475Y-101290381D01*
X146891333Y-101242762D01*
X146986571Y-101147524D01*
X147034190Y-101052286D01*
X147081809Y-100861810D01*
X147081809Y-100718952D01*
X147034190Y-100528476D01*
X146986571Y-100433238D01*
X146891333Y-100338000D01*
X146748475Y-100290381D01*
X146653237Y-100290381D01*
X146510380Y-100338000D01*
X146462761Y-100385619D01*
X146034190Y-101290381D02*
X146034190Y-100290381D01*
X145462761Y-101290381D02*
X145891333Y-100718952D01*
X145462761Y-100290381D02*
X146034190Y-100861810D01*
X145272285Y-101385619D02*
X144510380Y-101385619D01*
X144272285Y-101290381D02*
X144272285Y-100290381D01*
X143796095Y-101290381D02*
X143796095Y-100290381D01*
X143224666Y-101290381D01*
X143224666Y-100290381D01*
X152868381Y-133270667D02*
X153582667Y-133270667D01*
X153725524Y-133223047D01*
X153820762Y-133127809D01*
X153868381Y-132984952D01*
X153868381Y-132889714D01*
X152963619Y-133699238D02*
X152916000Y-133746857D01*
X152868381Y-133842095D01*
X152868381Y-134080191D01*
X152916000Y-134175429D01*
X152963619Y-134223048D01*
X153058857Y-134270667D01*
X153154095Y-134270667D01*
X153296952Y-134223048D01*
X153868381Y-133651619D01*
X153868381Y-134270667D01*
X148264381Y-142692381D02*
X148597715Y-142216190D01*
X148835810Y-142692381D02*
X148835810Y-141692381D01*
X148454857Y-141692381D01*
X148359619Y-141740000D01*
X148312000Y-141787619D01*
X148264381Y-141882857D01*
X148264381Y-142025714D01*
X148312000Y-142120952D01*
X148359619Y-142168571D01*
X148454857Y-142216190D01*
X148835810Y-142216190D01*
X147835810Y-142168571D02*
X147502476Y-142168571D01*
X147359619Y-142692381D02*
X147835810Y-142692381D01*
X147835810Y-141692381D01*
X147359619Y-141692381D01*
X146978667Y-142644762D02*
X146835810Y-142692381D01*
X146597714Y-142692381D01*
X146502476Y-142644762D01*
X146454857Y-142597143D01*
X146407238Y-142501905D01*
X146407238Y-142406667D01*
X146454857Y-142311429D01*
X146502476Y-142263810D01*
X146597714Y-142216190D01*
X146788191Y-142168571D01*
X146883429Y-142120952D01*
X146931048Y-142073333D01*
X146978667Y-141978095D01*
X146978667Y-141882857D01*
X146931048Y-141787619D01*
X146883429Y-141740000D01*
X146788191Y-141692381D01*
X146550095Y-141692381D01*
X146407238Y-141740000D01*
X145978667Y-142168571D02*
X145645333Y-142168571D01*
X145502476Y-142692381D02*
X145978667Y-142692381D01*
X145978667Y-141692381D01*
X145502476Y-141692381D01*
X145216762Y-141692381D02*
X144645333Y-141692381D01*
X144931048Y-142692381D02*
X144931048Y-141692381D01*
X152868381Y-119427667D02*
X153582667Y-119427667D01*
X153725524Y-119380047D01*
X153820762Y-119284809D01*
X153868381Y-119141952D01*
X153868381Y-119046714D01*
X152868381Y-119808619D02*
X152868381Y-120427667D01*
X153249333Y-120094333D01*
X153249333Y-120237191D01*
X153296952Y-120332429D01*
X153344571Y-120380048D01*
X153439810Y-120427667D01*
X153677905Y-120427667D01*
X153773143Y-120380048D01*
X153820762Y-120332429D01*
X153868381Y-120237191D01*
X153868381Y-119951476D01*
X153820762Y-119856238D01*
X153773143Y-119808619D01*
X149542047Y-128722381D02*
X149542047Y-127722381D01*
X149303952Y-127722381D01*
X149161094Y-127770000D01*
X149065856Y-127865238D01*
X149018237Y-127960476D01*
X148970618Y-128150952D01*
X148970618Y-128293810D01*
X149018237Y-128484286D01*
X149065856Y-128579524D01*
X149161094Y-128674762D01*
X149303952Y-128722381D01*
X149542047Y-128722381D01*
X148542047Y-128722381D02*
X148542047Y-127722381D01*
X147494428Y-128722381D02*
X147827762Y-128246190D01*
X148065857Y-128722381D02*
X148065857Y-127722381D01*
X147684904Y-127722381D01*
X147589666Y-127770000D01*
X147542047Y-127817619D01*
X147494428Y-127912857D01*
X147494428Y-128055714D01*
X147542047Y-128150952D01*
X147589666Y-128198571D01*
X147684904Y-128246190D01*
X148065857Y-128246190D01*
X147065857Y-128198571D02*
X146732523Y-128198571D01*
X146589666Y-128722381D02*
X147065857Y-128722381D01*
X147065857Y-127722381D01*
X146589666Y-127722381D01*
X145589666Y-128627143D02*
X145637285Y-128674762D01*
X145780142Y-128722381D01*
X145875380Y-128722381D01*
X146018238Y-128674762D01*
X146113476Y-128579524D01*
X146161095Y-128484286D01*
X146208714Y-128293810D01*
X146208714Y-128150952D01*
X146161095Y-127960476D01*
X146113476Y-127865238D01*
X146018238Y-127770000D01*
X145875380Y-127722381D01*
X145780142Y-127722381D01*
X145637285Y-127770000D01*
X145589666Y-127817619D01*
X145303952Y-127722381D02*
X144732523Y-127722381D01*
X145018238Y-128722381D02*
X145018238Y-127722381D01*
X144399190Y-128722381D02*
X144399190Y-127722381D01*
X143732524Y-127722381D02*
X143542047Y-127722381D01*
X143446809Y-127770000D01*
X143351571Y-127865238D01*
X143303952Y-128055714D01*
X143303952Y-128389048D01*
X143351571Y-128579524D01*
X143446809Y-128674762D01*
X143542047Y-128722381D01*
X143732524Y-128722381D01*
X143827762Y-128674762D01*
X143923000Y-128579524D01*
X143970619Y-128389048D01*
X143970619Y-128055714D01*
X143923000Y-127865238D01*
X143827762Y-127770000D01*
X143732524Y-127722381D01*
X142875381Y-128722381D02*
X142875381Y-127722381D01*
X142303952Y-128722381D01*
X142303952Y-127722381D01*
X121006381Y-150034667D02*
X121720667Y-150034667D01*
X121863524Y-149987047D01*
X121958762Y-149891809D01*
X122006381Y-149748952D01*
X122006381Y-149653714D01*
X121339714Y-150939429D02*
X122006381Y-150939429D01*
X120958762Y-150701333D02*
X121673048Y-150463238D01*
X121673048Y-151082286D01*
X116411143Y-155408381D02*
X116220666Y-155408381D01*
X116125428Y-155456000D01*
X116030190Y-155551238D01*
X115982571Y-155741714D01*
X115982571Y-156075048D01*
X116030190Y-156265524D01*
X116125428Y-156360762D01*
X116220666Y-156408381D01*
X116411143Y-156408381D01*
X116506381Y-156360762D01*
X116601619Y-156265524D01*
X116649238Y-156075048D01*
X116649238Y-155741714D01*
X116601619Y-155551238D01*
X116506381Y-155456000D01*
X116411143Y-155408381D01*
X115554000Y-155408381D02*
X115554000Y-156217905D01*
X115506381Y-156313143D01*
X115458762Y-156360762D01*
X115363524Y-156408381D01*
X115173047Y-156408381D01*
X115077809Y-156360762D01*
X115030190Y-156313143D01*
X114982571Y-156217905D01*
X114982571Y-155408381D01*
X114649238Y-155408381D02*
X114077809Y-155408381D01*
X114363524Y-156408381D02*
X114363524Y-155408381D01*
X112458761Y-156408381D02*
X113030190Y-156408381D01*
X112744476Y-156408381D02*
X112744476Y-155408381D01*
X112839714Y-155551238D01*
X112934952Y-155646476D01*
X113030190Y-155694095D01*
X93242381Y-150046667D02*
X93956667Y-150046667D01*
X94099524Y-149999047D01*
X94194762Y-149903809D01*
X94242381Y-149760952D01*
X94242381Y-149665714D01*
X93242381Y-150999048D02*
X93242381Y-150522857D01*
X93718571Y-150475238D01*
X93670952Y-150522857D01*
X93623333Y-150618095D01*
X93623333Y-150856191D01*
X93670952Y-150951429D01*
X93718571Y-150999048D01*
X93813810Y-151046667D01*
X94051905Y-151046667D01*
X94147143Y-150999048D01*
X94194762Y-150951429D01*
X94242381Y-150856191D01*
X94242381Y-150618095D01*
X94194762Y-150522857D01*
X94147143Y-150475238D01*
X88647143Y-155420381D02*
X88456666Y-155420381D01*
X88361428Y-155468000D01*
X88266190Y-155563238D01*
X88218571Y-155753714D01*
X88218571Y-156087048D01*
X88266190Y-156277524D01*
X88361428Y-156372762D01*
X88456666Y-156420381D01*
X88647143Y-156420381D01*
X88742381Y-156372762D01*
X88837619Y-156277524D01*
X88885238Y-156087048D01*
X88885238Y-155753714D01*
X88837619Y-155563238D01*
X88742381Y-155468000D01*
X88647143Y-155420381D01*
X87790000Y-155420381D02*
X87790000Y-156229905D01*
X87742381Y-156325143D01*
X87694762Y-156372762D01*
X87599524Y-156420381D01*
X87409047Y-156420381D01*
X87313809Y-156372762D01*
X87266190Y-156325143D01*
X87218571Y-156229905D01*
X87218571Y-155420381D01*
X86885238Y-155420381D02*
X86313809Y-155420381D01*
X86599524Y-156420381D02*
X86599524Y-155420381D01*
X85266190Y-155515619D02*
X85218571Y-155468000D01*
X85123333Y-155420381D01*
X84885237Y-155420381D01*
X84789999Y-155468000D01*
X84742380Y-155515619D01*
X84694761Y-155610857D01*
X84694761Y-155706095D01*
X84742380Y-155848952D01*
X85313809Y-156420381D01*
X84694761Y-156420381D01*
X144994381Y-146478667D02*
X145708667Y-146478667D01*
X145851524Y-146431047D01*
X145946762Y-146335809D01*
X145994381Y-146192952D01*
X145994381Y-146097714D01*
X144994381Y-147383429D02*
X144994381Y-147192952D01*
X145042000Y-147097714D01*
X145089619Y-147050095D01*
X145232476Y-146954857D01*
X145422952Y-146907238D01*
X145803905Y-146907238D01*
X145899143Y-146954857D01*
X145946762Y-147002476D01*
X145994381Y-147097714D01*
X145994381Y-147288191D01*
X145946762Y-147383429D01*
X145899143Y-147431048D01*
X145803905Y-147478667D01*
X145565810Y-147478667D01*
X145470571Y-147431048D01*
X145422952Y-147383429D01*
X145375333Y-147288191D01*
X145375333Y-147097714D01*
X145422952Y-147002476D01*
X145470571Y-146954857D01*
X145565810Y-146907238D01*
X141858571Y-156313143D02*
X141906190Y-156360762D01*
X142049047Y-156408381D01*
X142144285Y-156408381D01*
X142287143Y-156360762D01*
X142382381Y-156265524D01*
X142430000Y-156170286D01*
X142477619Y-155979810D01*
X142477619Y-155836952D01*
X142430000Y-155646476D01*
X142382381Y-155551238D01*
X142287143Y-155456000D01*
X142144285Y-155408381D01*
X142049047Y-155408381D01*
X141906190Y-155456000D01*
X141858571Y-155503619D01*
X140953809Y-156408381D02*
X141430000Y-156408381D01*
X141430000Y-155408381D01*
X140430000Y-155408381D02*
X140239523Y-155408381D01*
X140144285Y-155456000D01*
X140049047Y-155551238D01*
X140001428Y-155741714D01*
X140001428Y-156075048D01*
X140049047Y-156265524D01*
X140144285Y-156360762D01*
X140239523Y-156408381D01*
X140430000Y-156408381D01*
X140525238Y-156360762D01*
X140620476Y-156265524D01*
X140668095Y-156075048D01*
X140668095Y-155741714D01*
X140620476Y-155551238D01*
X140525238Y-155456000D01*
X140430000Y-155408381D01*
X139001428Y-156313143D02*
X139049047Y-156360762D01*
X139191904Y-156408381D01*
X139287142Y-156408381D01*
X139430000Y-156360762D01*
X139525238Y-156265524D01*
X139572857Y-156170286D01*
X139620476Y-155979810D01*
X139620476Y-155836952D01*
X139572857Y-155646476D01*
X139525238Y-155551238D01*
X139430000Y-155456000D01*
X139287142Y-155408381D01*
X139191904Y-155408381D01*
X139049047Y-155456000D01*
X139001428Y-155503619D01*
X138572857Y-156408381D02*
X138572857Y-155408381D01*
X138001428Y-156408381D02*
X138430000Y-155836952D01*
X138001428Y-155408381D02*
X138572857Y-155979810D01*
X137810952Y-156503619D02*
X137049047Y-156503619D01*
X136620476Y-155408381D02*
X136429999Y-155408381D01*
X136334761Y-155456000D01*
X136239523Y-155551238D01*
X136191904Y-155741714D01*
X136191904Y-156075048D01*
X136239523Y-156265524D01*
X136334761Y-156360762D01*
X136429999Y-156408381D01*
X136620476Y-156408381D01*
X136715714Y-156360762D01*
X136810952Y-156265524D01*
X136858571Y-156075048D01*
X136858571Y-155741714D01*
X136810952Y-155551238D01*
X136715714Y-155456000D01*
X136620476Y-155408381D01*
X135763333Y-155408381D02*
X135763333Y-156217905D01*
X135715714Y-156313143D01*
X135668095Y-156360762D01*
X135572857Y-156408381D01*
X135382380Y-156408381D01*
X135287142Y-156360762D01*
X135239523Y-156313143D01*
X135191904Y-156217905D01*
X135191904Y-155408381D01*
X134858571Y-155408381D02*
X134287142Y-155408381D01*
X134572857Y-156408381D02*
X134572857Y-155408381D01*
X130643238Y-73096381D02*
X130976572Y-72620190D01*
X131214667Y-73096381D02*
X131214667Y-72096381D01*
X130833714Y-72096381D01*
X130738476Y-72144000D01*
X130690857Y-72191619D01*
X130643238Y-72286857D01*
X130643238Y-72429714D01*
X130690857Y-72524952D01*
X130738476Y-72572571D01*
X130833714Y-72620190D01*
X131214667Y-72620190D01*
X130357524Y-72096381D02*
X130024191Y-73096381D01*
X129690857Y-72096381D01*
X128833714Y-73096381D02*
X129405143Y-73096381D01*
X129119429Y-73096381D02*
X129119429Y-72096381D01*
X129214667Y-72239238D01*
X129309905Y-72334476D01*
X129405143Y-72382095D01*
X131390666Y-63964381D02*
X131962095Y-63964381D01*
X131676381Y-63964381D02*
X131676381Y-62964381D01*
X131771619Y-63107238D01*
X131866857Y-63202476D01*
X131962095Y-63250095D01*
X130771619Y-62964381D02*
X130676380Y-62964381D01*
X130581142Y-63012000D01*
X130533523Y-63059619D01*
X130485904Y-63154857D01*
X130438285Y-63345333D01*
X130438285Y-63583429D01*
X130485904Y-63773905D01*
X130533523Y-63869143D01*
X130581142Y-63916762D01*
X130676380Y-63964381D01*
X130771619Y-63964381D01*
X130866857Y-63916762D01*
X130914476Y-63869143D01*
X130962095Y-63773905D01*
X131009714Y-63583429D01*
X131009714Y-63345333D01*
X130962095Y-63154857D01*
X130914476Y-63059619D01*
X130866857Y-63012000D01*
X130771619Y-62964381D01*
X129819238Y-62964381D02*
X129723999Y-62964381D01*
X129628761Y-63012000D01*
X129581142Y-63059619D01*
X129533523Y-63154857D01*
X129485904Y-63345333D01*
X129485904Y-63583429D01*
X129533523Y-63773905D01*
X129581142Y-63869143D01*
X129628761Y-63916762D01*
X129723999Y-63964381D01*
X129819238Y-63964381D01*
X129914476Y-63916762D01*
X129962095Y-63869143D01*
X130009714Y-63773905D01*
X130057333Y-63583429D01*
X130057333Y-63345333D01*
X130009714Y-63154857D01*
X129962095Y-63059619D01*
X129914476Y-63012000D01*
X129819238Y-62964381D01*
X129057333Y-63964381D02*
X129057333Y-62964381D01*
X128485904Y-63964381D02*
X128914476Y-63392952D01*
X128485904Y-62964381D02*
X129057333Y-63535810D01*
X147153238Y-89352381D02*
X147486572Y-88876190D01*
X147724667Y-89352381D02*
X147724667Y-88352381D01*
X147343714Y-88352381D01*
X147248476Y-88400000D01*
X147200857Y-88447619D01*
X147153238Y-88542857D01*
X147153238Y-88685714D01*
X147200857Y-88780952D01*
X147248476Y-88828571D01*
X147343714Y-88876190D01*
X147724667Y-88876190D01*
X146867524Y-88352381D02*
X146534191Y-89352381D01*
X146200857Y-88352381D01*
X145915143Y-88447619D02*
X145867524Y-88400000D01*
X145772286Y-88352381D01*
X145534190Y-88352381D01*
X145438952Y-88400000D01*
X145391333Y-88447619D01*
X145343714Y-88542857D01*
X145343714Y-88638095D01*
X145391333Y-88780952D01*
X145962762Y-89352381D01*
X145343714Y-89352381D01*
X147724666Y-79954381D02*
X148296095Y-79954381D01*
X148010381Y-79954381D02*
X148010381Y-78954381D01*
X148105619Y-79097238D01*
X148200857Y-79192476D01*
X148296095Y-79240095D01*
X147105619Y-78954381D02*
X147010380Y-78954381D01*
X146915142Y-79002000D01*
X146867523Y-79049619D01*
X146819904Y-79144857D01*
X146772285Y-79335333D01*
X146772285Y-79573429D01*
X146819904Y-79763905D01*
X146867523Y-79859143D01*
X146915142Y-79906762D01*
X147010380Y-79954381D01*
X147105619Y-79954381D01*
X147200857Y-79906762D01*
X147248476Y-79859143D01*
X147296095Y-79763905D01*
X147343714Y-79573429D01*
X147343714Y-79335333D01*
X147296095Y-79144857D01*
X147248476Y-79049619D01*
X147200857Y-79002000D01*
X147105619Y-78954381D01*
X146153238Y-78954381D02*
X146057999Y-78954381D01*
X145962761Y-79002000D01*
X145915142Y-79049619D01*
X145867523Y-79144857D01*
X145819904Y-79335333D01*
X145819904Y-79573429D01*
X145867523Y-79763905D01*
X145915142Y-79859143D01*
X145962761Y-79906762D01*
X146057999Y-79954381D01*
X146153238Y-79954381D01*
X146248476Y-79906762D01*
X146296095Y-79859143D01*
X146343714Y-79763905D01*
X146391333Y-79573429D01*
X146391333Y-79335333D01*
X146343714Y-79144857D01*
X146296095Y-79049619D01*
X146248476Y-79002000D01*
X146153238Y-78954381D01*
X145391333Y-79954381D02*
X145391333Y-78954381D01*
X144819904Y-79954381D02*
X145248476Y-79382952D01*
X144819904Y-78954381D02*
X145391333Y-79525810D01*
X126555333Y-131214762D02*
X126412476Y-131262381D01*
X126174380Y-131262381D01*
X126079142Y-131214762D01*
X126031523Y-131167143D01*
X125983904Y-131071905D01*
X125983904Y-130976667D01*
X126031523Y-130881429D01*
X126079142Y-130833810D01*
X126174380Y-130786190D01*
X126364857Y-130738571D01*
X126460095Y-130690952D01*
X126507714Y-130643333D01*
X126555333Y-130548095D01*
X126555333Y-130452857D01*
X126507714Y-130357619D01*
X126460095Y-130310000D01*
X126364857Y-130262381D01*
X126126761Y-130262381D01*
X125983904Y-130310000D01*
X125650571Y-130262381D02*
X125412476Y-131262381D01*
X125221999Y-130548095D01*
X125031523Y-131262381D01*
X124793428Y-130262381D01*
X123888666Y-131262381D02*
X124460095Y-131262381D01*
X124174381Y-131262381D02*
X124174381Y-130262381D01*
X124269619Y-130405238D01*
X124364857Y-130500476D01*
X124460095Y-130548095D01*
X131500381Y-130246381D02*
X131833715Y-129770190D01*
X132071810Y-130246381D02*
X132071810Y-129246381D01*
X131690857Y-129246381D01*
X131595619Y-129294000D01*
X131548000Y-129341619D01*
X131500381Y-129436857D01*
X131500381Y-129579714D01*
X131548000Y-129674952D01*
X131595619Y-129722571D01*
X131690857Y-129770190D01*
X132071810Y-129770190D01*
X131071810Y-129722571D02*
X130738476Y-129722571D01*
X130595619Y-130246381D02*
X131071810Y-130246381D01*
X131071810Y-129246381D01*
X130595619Y-129246381D01*
X130214667Y-130198762D02*
X130071810Y-130246381D01*
X129833714Y-130246381D01*
X129738476Y-130198762D01*
X129690857Y-130151143D01*
X129643238Y-130055905D01*
X129643238Y-129960667D01*
X129690857Y-129865429D01*
X129738476Y-129817810D01*
X129833714Y-129770190D01*
X130024191Y-129722571D01*
X130119429Y-129674952D01*
X130167048Y-129627333D01*
X130214667Y-129532095D01*
X130214667Y-129436857D01*
X130167048Y-129341619D01*
X130119429Y-129294000D01*
X130024191Y-129246381D01*
X129786095Y-129246381D01*
X129643238Y-129294000D01*
X129214667Y-129722571D02*
X128881333Y-129722571D01*
X128738476Y-130246381D02*
X129214667Y-130246381D01*
X129214667Y-129246381D01*
X128738476Y-129246381D01*
X128452762Y-129246381D02*
X127881333Y-129246381D01*
X128167048Y-130246381D02*
X128167048Y-129246381D01*
X105694095Y-61412381D02*
X105694095Y-60412381D01*
X105456000Y-60412381D01*
X105313142Y-60460000D01*
X105217904Y-60555238D01*
X105170285Y-60650476D01*
X105122666Y-60840952D01*
X105122666Y-60983810D01*
X105170285Y-61174286D01*
X105217904Y-61269524D01*
X105313142Y-61364762D01*
X105456000Y-61412381D01*
X105694095Y-61412381D01*
X104789333Y-60412381D02*
X104122666Y-60412381D01*
X104551238Y-61412381D01*
X105107905Y-67324762D02*
X104965048Y-67372381D01*
X104726952Y-67372381D01*
X104631714Y-67324762D01*
X104584095Y-67277143D01*
X104536476Y-67181905D01*
X104536476Y-67086667D01*
X104584095Y-66991429D01*
X104631714Y-66943810D01*
X104726952Y-66896190D01*
X104917429Y-66848571D01*
X105012667Y-66800952D01*
X105060286Y-66753333D01*
X105107905Y-66658095D01*
X105107905Y-66562857D01*
X105060286Y-66467619D01*
X105012667Y-66420000D01*
X104917429Y-66372381D01*
X104679333Y-66372381D01*
X104536476Y-66420000D01*
X103584095Y-67372381D02*
X104155524Y-67372381D01*
X103869810Y-67372381D02*
X103869810Y-66372381D01*
X103965048Y-66515238D01*
X104060286Y-66610476D01*
X104155524Y-66658095D01*
X101617905Y-62732381D02*
X101617905Y-61732381D01*
X101046476Y-62732381D02*
X101475048Y-62160952D01*
X101046476Y-61732381D02*
X101617905Y-62303810D01*
X105694095Y-71572381D02*
X105694095Y-70572381D01*
X105456000Y-70572381D01*
X105313142Y-70620000D01*
X105217904Y-70715238D01*
X105170285Y-70810476D01*
X105122666Y-71000952D01*
X105122666Y-71143810D01*
X105170285Y-71334286D01*
X105217904Y-71429524D01*
X105313142Y-71524762D01*
X105456000Y-71572381D01*
X105694095Y-71572381D01*
X104551238Y-71000952D02*
X104646476Y-70953333D01*
X104694095Y-70905714D01*
X104741714Y-70810476D01*
X104741714Y-70762857D01*
X104694095Y-70667619D01*
X104646476Y-70620000D01*
X104551238Y-70572381D01*
X104360761Y-70572381D01*
X104265523Y-70620000D01*
X104217904Y-70667619D01*
X104170285Y-70762857D01*
X104170285Y-70810476D01*
X104217904Y-70905714D01*
X104265523Y-70953333D01*
X104360761Y-71000952D01*
X104551238Y-71000952D01*
X104646476Y-71048571D01*
X104694095Y-71096190D01*
X104741714Y-71191429D01*
X104741714Y-71381905D01*
X104694095Y-71477143D01*
X104646476Y-71524762D01*
X104551238Y-71572381D01*
X104360761Y-71572381D01*
X104265523Y-71524762D01*
X104217904Y-71477143D01*
X104170285Y-71381905D01*
X104170285Y-71191429D01*
X104217904Y-71096190D01*
X104265523Y-71048571D01*
X104360761Y-71000952D01*
X105107905Y-77484762D02*
X104965048Y-77532381D01*
X104726952Y-77532381D01*
X104631714Y-77484762D01*
X104584095Y-77437143D01*
X104536476Y-77341905D01*
X104536476Y-77246667D01*
X104584095Y-77151429D01*
X104631714Y-77103810D01*
X104726952Y-77056190D01*
X104917429Y-77008571D01*
X105012667Y-76960952D01*
X105060286Y-76913333D01*
X105107905Y-76818095D01*
X105107905Y-76722857D01*
X105060286Y-76627619D01*
X105012667Y-76580000D01*
X104917429Y-76532381D01*
X104679333Y-76532381D01*
X104536476Y-76580000D01*
X104155524Y-76627619D02*
X104107905Y-76580000D01*
X104012667Y-76532381D01*
X103774571Y-76532381D01*
X103679333Y-76580000D01*
X103631714Y-76627619D01*
X103584095Y-76722857D01*
X103584095Y-76818095D01*
X103631714Y-76960952D01*
X104203143Y-77532381D01*
X103584095Y-77532381D01*
X101617905Y-72892381D02*
X101617905Y-71892381D01*
X101046476Y-72892381D02*
X101475048Y-72320952D01*
X101046476Y-71892381D02*
X101617905Y-72463810D01*
X105694095Y-81732381D02*
X105694095Y-80732381D01*
X105456000Y-80732381D01*
X105313142Y-80780000D01*
X105217904Y-80875238D01*
X105170285Y-80970476D01*
X105122666Y-81160952D01*
X105122666Y-81303810D01*
X105170285Y-81494286D01*
X105217904Y-81589524D01*
X105313142Y-81684762D01*
X105456000Y-81732381D01*
X105694095Y-81732381D01*
X104646476Y-81732381D02*
X104456000Y-81732381D01*
X104360761Y-81684762D01*
X104313142Y-81637143D01*
X104217904Y-81494286D01*
X104170285Y-81303810D01*
X104170285Y-80922857D01*
X104217904Y-80827619D01*
X104265523Y-80780000D01*
X104360761Y-80732381D01*
X104551238Y-80732381D01*
X104646476Y-80780000D01*
X104694095Y-80827619D01*
X104741714Y-80922857D01*
X104741714Y-81160952D01*
X104694095Y-81256190D01*
X104646476Y-81303810D01*
X104551238Y-81351429D01*
X104360761Y-81351429D01*
X104265523Y-81303810D01*
X104217904Y-81256190D01*
X104170285Y-81160952D01*
X105107905Y-87644762D02*
X104965048Y-87692381D01*
X104726952Y-87692381D01*
X104631714Y-87644762D01*
X104584095Y-87597143D01*
X104536476Y-87501905D01*
X104536476Y-87406667D01*
X104584095Y-87311429D01*
X104631714Y-87263810D01*
X104726952Y-87216190D01*
X104917429Y-87168571D01*
X105012667Y-87120952D01*
X105060286Y-87073333D01*
X105107905Y-86978095D01*
X105107905Y-86882857D01*
X105060286Y-86787619D01*
X105012667Y-86740000D01*
X104917429Y-86692381D01*
X104679333Y-86692381D01*
X104536476Y-86740000D01*
X104203143Y-86692381D02*
X103584095Y-86692381D01*
X103917429Y-87073333D01*
X103774571Y-87073333D01*
X103679333Y-87120952D01*
X103631714Y-87168571D01*
X103584095Y-87263810D01*
X103584095Y-87501905D01*
X103631714Y-87597143D01*
X103679333Y-87644762D01*
X103774571Y-87692381D01*
X104060286Y-87692381D01*
X104155524Y-87644762D01*
X104203143Y-87597143D01*
X101617905Y-83052381D02*
X101617905Y-82052381D01*
X101046476Y-83052381D02*
X101475048Y-82480952D01*
X101046476Y-82052381D02*
X101617905Y-82623810D01*
X106170286Y-91892381D02*
X106170286Y-90892381D01*
X105932191Y-90892381D01*
X105789333Y-90940000D01*
X105694095Y-91035238D01*
X105646476Y-91130476D01*
X105598857Y-91320952D01*
X105598857Y-91463810D01*
X105646476Y-91654286D01*
X105694095Y-91749524D01*
X105789333Y-91844762D01*
X105932191Y-91892381D01*
X106170286Y-91892381D01*
X104646476Y-91892381D02*
X105217905Y-91892381D01*
X104932191Y-91892381D02*
X104932191Y-90892381D01*
X105027429Y-91035238D01*
X105122667Y-91130476D01*
X105217905Y-91178095D01*
X104027429Y-90892381D02*
X103932190Y-90892381D01*
X103836952Y-90940000D01*
X103789333Y-90987619D01*
X103741714Y-91082857D01*
X103694095Y-91273333D01*
X103694095Y-91511429D01*
X103741714Y-91701905D01*
X103789333Y-91797143D01*
X103836952Y-91844762D01*
X103932190Y-91892381D01*
X104027429Y-91892381D01*
X104122667Y-91844762D01*
X104170286Y-91797143D01*
X104217905Y-91701905D01*
X104265524Y-91511429D01*
X104265524Y-91273333D01*
X104217905Y-91082857D01*
X104170286Y-90987619D01*
X104122667Y-90940000D01*
X104027429Y-90892381D01*
X105107905Y-97804762D02*
X104965048Y-97852381D01*
X104726952Y-97852381D01*
X104631714Y-97804762D01*
X104584095Y-97757143D01*
X104536476Y-97661905D01*
X104536476Y-97566667D01*
X104584095Y-97471429D01*
X104631714Y-97423810D01*
X104726952Y-97376190D01*
X104917429Y-97328571D01*
X105012667Y-97280952D01*
X105060286Y-97233333D01*
X105107905Y-97138095D01*
X105107905Y-97042857D01*
X105060286Y-96947619D01*
X105012667Y-96900000D01*
X104917429Y-96852381D01*
X104679333Y-96852381D01*
X104536476Y-96900000D01*
X103679333Y-97185714D02*
X103679333Y-97852381D01*
X103917429Y-96804762D02*
X104155524Y-97519048D01*
X103536476Y-97519048D01*
X101617905Y-93212381D02*
X101617905Y-92212381D01*
X101046476Y-93212381D02*
X101475048Y-92640952D01*
X101046476Y-92212381D02*
X101617905Y-92783810D01*
X106170286Y-102052381D02*
X106170286Y-101052381D01*
X105932191Y-101052381D01*
X105789333Y-101100000D01*
X105694095Y-101195238D01*
X105646476Y-101290476D01*
X105598857Y-101480952D01*
X105598857Y-101623810D01*
X105646476Y-101814286D01*
X105694095Y-101909524D01*
X105789333Y-102004762D01*
X105932191Y-102052381D01*
X106170286Y-102052381D01*
X104646476Y-102052381D02*
X105217905Y-102052381D01*
X104932191Y-102052381D02*
X104932191Y-101052381D01*
X105027429Y-101195238D01*
X105122667Y-101290476D01*
X105217905Y-101338095D01*
X103694095Y-102052381D02*
X104265524Y-102052381D01*
X103979810Y-102052381D02*
X103979810Y-101052381D01*
X104075048Y-101195238D01*
X104170286Y-101290476D01*
X104265524Y-101338095D01*
X105107905Y-107964762D02*
X104965048Y-108012381D01*
X104726952Y-108012381D01*
X104631714Y-107964762D01*
X104584095Y-107917143D01*
X104536476Y-107821905D01*
X104536476Y-107726667D01*
X104584095Y-107631429D01*
X104631714Y-107583810D01*
X104726952Y-107536190D01*
X104917429Y-107488571D01*
X105012667Y-107440952D01*
X105060286Y-107393333D01*
X105107905Y-107298095D01*
X105107905Y-107202857D01*
X105060286Y-107107619D01*
X105012667Y-107060000D01*
X104917429Y-107012381D01*
X104679333Y-107012381D01*
X104536476Y-107060000D01*
X103631714Y-107012381D02*
X104107905Y-107012381D01*
X104155524Y-107488571D01*
X104107905Y-107440952D01*
X104012667Y-107393333D01*
X103774571Y-107393333D01*
X103679333Y-107440952D01*
X103631714Y-107488571D01*
X103584095Y-107583810D01*
X103584095Y-107821905D01*
X103631714Y-107917143D01*
X103679333Y-107964762D01*
X103774571Y-108012381D01*
X104012667Y-108012381D01*
X104107905Y-107964762D01*
X104155524Y-107917143D01*
X101617905Y-103372381D02*
X101617905Y-102372381D01*
X101046476Y-103372381D02*
X101475048Y-102800952D01*
X101046476Y-102372381D02*
X101617905Y-102943810D01*
X106170286Y-112212381D02*
X106170286Y-111212381D01*
X105932191Y-111212381D01*
X105789333Y-111260000D01*
X105694095Y-111355238D01*
X105646476Y-111450476D01*
X105598857Y-111640952D01*
X105598857Y-111783810D01*
X105646476Y-111974286D01*
X105694095Y-112069524D01*
X105789333Y-112164762D01*
X105932191Y-112212381D01*
X106170286Y-112212381D01*
X104646476Y-112212381D02*
X105217905Y-112212381D01*
X104932191Y-112212381D02*
X104932191Y-111212381D01*
X105027429Y-111355238D01*
X105122667Y-111450476D01*
X105217905Y-111498095D01*
X104265524Y-111307619D02*
X104217905Y-111260000D01*
X104122667Y-111212381D01*
X103884571Y-111212381D01*
X103789333Y-111260000D01*
X103741714Y-111307619D01*
X103694095Y-111402857D01*
X103694095Y-111498095D01*
X103741714Y-111640952D01*
X104313143Y-112212381D01*
X103694095Y-112212381D01*
X105107905Y-118124762D02*
X104965048Y-118172381D01*
X104726952Y-118172381D01*
X104631714Y-118124762D01*
X104584095Y-118077143D01*
X104536476Y-117981905D01*
X104536476Y-117886667D01*
X104584095Y-117791429D01*
X104631714Y-117743810D01*
X104726952Y-117696190D01*
X104917429Y-117648571D01*
X105012667Y-117600952D01*
X105060286Y-117553333D01*
X105107905Y-117458095D01*
X105107905Y-117362857D01*
X105060286Y-117267619D01*
X105012667Y-117220000D01*
X104917429Y-117172381D01*
X104679333Y-117172381D01*
X104536476Y-117220000D01*
X103679333Y-117172381D02*
X103869810Y-117172381D01*
X103965048Y-117220000D01*
X104012667Y-117267619D01*
X104107905Y-117410476D01*
X104155524Y-117600952D01*
X104155524Y-117981905D01*
X104107905Y-118077143D01*
X104060286Y-118124762D01*
X103965048Y-118172381D01*
X103774571Y-118172381D01*
X103679333Y-118124762D01*
X103631714Y-118077143D01*
X103584095Y-117981905D01*
X103584095Y-117743810D01*
X103631714Y-117648571D01*
X103679333Y-117600952D01*
X103774571Y-117553333D01*
X103965048Y-117553333D01*
X104060286Y-117600952D01*
X104107905Y-117648571D01*
X104155524Y-117743810D01*
X101617905Y-113532381D02*
X101617905Y-112532381D01*
X101046476Y-113532381D02*
X101475048Y-112960952D01*
X101046476Y-112532381D02*
X101617905Y-113103810D01*
X106170286Y-122372381D02*
X106170286Y-121372381D01*
X105932191Y-121372381D01*
X105789333Y-121420000D01*
X105694095Y-121515238D01*
X105646476Y-121610476D01*
X105598857Y-121800952D01*
X105598857Y-121943810D01*
X105646476Y-122134286D01*
X105694095Y-122229524D01*
X105789333Y-122324762D01*
X105932191Y-122372381D01*
X106170286Y-122372381D01*
X104646476Y-122372381D02*
X105217905Y-122372381D01*
X104932191Y-122372381D02*
X104932191Y-121372381D01*
X105027429Y-121515238D01*
X105122667Y-121610476D01*
X105217905Y-121658095D01*
X104313143Y-121372381D02*
X103694095Y-121372381D01*
X104027429Y-121753333D01*
X103884571Y-121753333D01*
X103789333Y-121800952D01*
X103741714Y-121848571D01*
X103694095Y-121943810D01*
X103694095Y-122181905D01*
X103741714Y-122277143D01*
X103789333Y-122324762D01*
X103884571Y-122372381D01*
X104170286Y-122372381D01*
X104265524Y-122324762D01*
X104313143Y-122277143D01*
X105107905Y-128284762D02*
X104965048Y-128332381D01*
X104726952Y-128332381D01*
X104631714Y-128284762D01*
X104584095Y-128237143D01*
X104536476Y-128141905D01*
X104536476Y-128046667D01*
X104584095Y-127951429D01*
X104631714Y-127903810D01*
X104726952Y-127856190D01*
X104917429Y-127808571D01*
X105012667Y-127760952D01*
X105060286Y-127713333D01*
X105107905Y-127618095D01*
X105107905Y-127522857D01*
X105060286Y-127427619D01*
X105012667Y-127380000D01*
X104917429Y-127332381D01*
X104679333Y-127332381D01*
X104536476Y-127380000D01*
X104203143Y-127332381D02*
X103536476Y-127332381D01*
X103965048Y-128332381D01*
X101617905Y-123692381D02*
X101617905Y-122692381D01*
X101046476Y-123692381D02*
X101475048Y-123120952D01*
X101046476Y-122692381D02*
X101617905Y-123263810D01*
X106170286Y-132532381D02*
X106170286Y-131532381D01*
X105932191Y-131532381D01*
X105789333Y-131580000D01*
X105694095Y-131675238D01*
X105646476Y-131770476D01*
X105598857Y-131960952D01*
X105598857Y-132103810D01*
X105646476Y-132294286D01*
X105694095Y-132389524D01*
X105789333Y-132484762D01*
X105932191Y-132532381D01*
X106170286Y-132532381D01*
X104646476Y-132532381D02*
X105217905Y-132532381D01*
X104932191Y-132532381D02*
X104932191Y-131532381D01*
X105027429Y-131675238D01*
X105122667Y-131770476D01*
X105217905Y-131818095D01*
X103789333Y-131865714D02*
X103789333Y-132532381D01*
X104027429Y-131484762D02*
X104265524Y-132199048D01*
X103646476Y-132199048D01*
X105107905Y-138444762D02*
X104965048Y-138492381D01*
X104726952Y-138492381D01*
X104631714Y-138444762D01*
X104584095Y-138397143D01*
X104536476Y-138301905D01*
X104536476Y-138206667D01*
X104584095Y-138111429D01*
X104631714Y-138063810D01*
X104726952Y-138016190D01*
X104917429Y-137968571D01*
X105012667Y-137920952D01*
X105060286Y-137873333D01*
X105107905Y-137778095D01*
X105107905Y-137682857D01*
X105060286Y-137587619D01*
X105012667Y-137540000D01*
X104917429Y-137492381D01*
X104679333Y-137492381D01*
X104536476Y-137540000D01*
X103965048Y-137920952D02*
X104060286Y-137873333D01*
X104107905Y-137825714D01*
X104155524Y-137730476D01*
X104155524Y-137682857D01*
X104107905Y-137587619D01*
X104060286Y-137540000D01*
X103965048Y-137492381D01*
X103774571Y-137492381D01*
X103679333Y-137540000D01*
X103631714Y-137587619D01*
X103584095Y-137682857D01*
X103584095Y-137730476D01*
X103631714Y-137825714D01*
X103679333Y-137873333D01*
X103774571Y-137920952D01*
X103965048Y-137920952D01*
X104060286Y-137968571D01*
X104107905Y-138016190D01*
X104155524Y-138111429D01*
X104155524Y-138301905D01*
X104107905Y-138397143D01*
X104060286Y-138444762D01*
X103965048Y-138492381D01*
X103774571Y-138492381D01*
X103679333Y-138444762D01*
X103631714Y-138397143D01*
X103584095Y-138301905D01*
X103584095Y-138111429D01*
X103631714Y-138016190D01*
X103679333Y-137968571D01*
X103774571Y-137920952D01*
X101617905Y-133852381D02*
X101617905Y-132852381D01*
X101046476Y-133852381D02*
X101475048Y-133280952D01*
X101046476Y-132852381D02*
X101617905Y-133423810D01*
X78484286Y-61412381D02*
X78484286Y-60412381D01*
X78246191Y-60412381D01*
X78103333Y-60460000D01*
X78008095Y-60555238D01*
X77960476Y-60650476D01*
X77912857Y-60840952D01*
X77912857Y-60983810D01*
X77960476Y-61174286D01*
X78008095Y-61269524D01*
X78103333Y-61364762D01*
X78246191Y-61412381D01*
X78484286Y-61412381D01*
X77531905Y-60507619D02*
X77484286Y-60460000D01*
X77389048Y-60412381D01*
X77150952Y-60412381D01*
X77055714Y-60460000D01*
X77008095Y-60507619D01*
X76960476Y-60602857D01*
X76960476Y-60698095D01*
X77008095Y-60840952D01*
X77579524Y-61412381D01*
X76960476Y-61412381D01*
X76627143Y-60412381D02*
X76008095Y-60412381D01*
X76341429Y-60793333D01*
X76198571Y-60793333D01*
X76103333Y-60840952D01*
X76055714Y-60888571D01*
X76008095Y-60983810D01*
X76008095Y-61221905D01*
X76055714Y-61317143D01*
X76103333Y-61364762D01*
X76198571Y-61412381D01*
X76484286Y-61412381D01*
X76579524Y-61364762D01*
X76627143Y-61317143D01*
X77421905Y-67324762D02*
X77279048Y-67372381D01*
X77040952Y-67372381D01*
X76945714Y-67324762D01*
X76898095Y-67277143D01*
X76850476Y-67181905D01*
X76850476Y-67086667D01*
X76898095Y-66991429D01*
X76945714Y-66943810D01*
X77040952Y-66896190D01*
X77231429Y-66848571D01*
X77326667Y-66800952D01*
X77374286Y-66753333D01*
X77421905Y-66658095D01*
X77421905Y-66562857D01*
X77374286Y-66467619D01*
X77326667Y-66420000D01*
X77231429Y-66372381D01*
X76993333Y-66372381D01*
X76850476Y-66420000D01*
X76374286Y-67372381D02*
X76183810Y-67372381D01*
X76088571Y-67324762D01*
X76040952Y-67277143D01*
X75945714Y-67134286D01*
X75898095Y-66943810D01*
X75898095Y-66562857D01*
X75945714Y-66467619D01*
X75993333Y-66420000D01*
X76088571Y-66372381D01*
X76279048Y-66372381D01*
X76374286Y-66420000D01*
X76421905Y-66467619D01*
X76469524Y-66562857D01*
X76469524Y-66800952D01*
X76421905Y-66896190D01*
X76374286Y-66943810D01*
X76279048Y-66991429D01*
X76088571Y-66991429D01*
X75993333Y-66943810D01*
X75945714Y-66896190D01*
X75898095Y-66800952D01*
X73931905Y-62732381D02*
X73931905Y-61732381D01*
X73360476Y-62732381D02*
X73789048Y-62160952D01*
X73360476Y-61732381D02*
X73931905Y-62303810D01*
X78484286Y-71572381D02*
X78484286Y-70572381D01*
X78246191Y-70572381D01*
X78103333Y-70620000D01*
X78008095Y-70715238D01*
X77960476Y-70810476D01*
X77912857Y-71000952D01*
X77912857Y-71143810D01*
X77960476Y-71334286D01*
X78008095Y-71429524D01*
X78103333Y-71524762D01*
X78246191Y-71572381D01*
X78484286Y-71572381D01*
X77531905Y-70667619D02*
X77484286Y-70620000D01*
X77389048Y-70572381D01*
X77150952Y-70572381D01*
X77055714Y-70620000D01*
X77008095Y-70667619D01*
X76960476Y-70762857D01*
X76960476Y-70858095D01*
X77008095Y-71000952D01*
X77579524Y-71572381D01*
X76960476Y-71572381D01*
X76103333Y-70905714D02*
X76103333Y-71572381D01*
X76341429Y-70524762D02*
X76579524Y-71239048D01*
X75960476Y-71239048D01*
X77898095Y-77484762D02*
X77755238Y-77532381D01*
X77517142Y-77532381D01*
X77421904Y-77484762D01*
X77374285Y-77437143D01*
X77326666Y-77341905D01*
X77326666Y-77246667D01*
X77374285Y-77151429D01*
X77421904Y-77103810D01*
X77517142Y-77056190D01*
X77707619Y-77008571D01*
X77802857Y-76960952D01*
X77850476Y-76913333D01*
X77898095Y-76818095D01*
X77898095Y-76722857D01*
X77850476Y-76627619D01*
X77802857Y-76580000D01*
X77707619Y-76532381D01*
X77469523Y-76532381D01*
X77326666Y-76580000D01*
X76374285Y-77532381D02*
X76945714Y-77532381D01*
X76660000Y-77532381D02*
X76660000Y-76532381D01*
X76755238Y-76675238D01*
X76850476Y-76770476D01*
X76945714Y-76818095D01*
X75755238Y-76532381D02*
X75659999Y-76532381D01*
X75564761Y-76580000D01*
X75517142Y-76627619D01*
X75469523Y-76722857D01*
X75421904Y-76913333D01*
X75421904Y-77151429D01*
X75469523Y-77341905D01*
X75517142Y-77437143D01*
X75564761Y-77484762D01*
X75659999Y-77532381D01*
X75755238Y-77532381D01*
X75850476Y-77484762D01*
X75898095Y-77437143D01*
X75945714Y-77341905D01*
X75993333Y-77151429D01*
X75993333Y-76913333D01*
X75945714Y-76722857D01*
X75898095Y-76627619D01*
X75850476Y-76580000D01*
X75755238Y-76532381D01*
X73931905Y-72892381D02*
X73931905Y-71892381D01*
X73360476Y-72892381D02*
X73789048Y-72320952D01*
X73360476Y-71892381D02*
X73931905Y-72463810D01*
X78484286Y-81732381D02*
X78484286Y-80732381D01*
X78246191Y-80732381D01*
X78103333Y-80780000D01*
X78008095Y-80875238D01*
X77960476Y-80970476D01*
X77912857Y-81160952D01*
X77912857Y-81303810D01*
X77960476Y-81494286D01*
X78008095Y-81589524D01*
X78103333Y-81684762D01*
X78246191Y-81732381D01*
X78484286Y-81732381D01*
X77531905Y-80827619D02*
X77484286Y-80780000D01*
X77389048Y-80732381D01*
X77150952Y-80732381D01*
X77055714Y-80780000D01*
X77008095Y-80827619D01*
X76960476Y-80922857D01*
X76960476Y-81018095D01*
X77008095Y-81160952D01*
X77579524Y-81732381D01*
X76960476Y-81732381D01*
X76055714Y-80732381D02*
X76531905Y-80732381D01*
X76579524Y-81208571D01*
X76531905Y-81160952D01*
X76436667Y-81113333D01*
X76198571Y-81113333D01*
X76103333Y-81160952D01*
X76055714Y-81208571D01*
X76008095Y-81303810D01*
X76008095Y-81541905D01*
X76055714Y-81637143D01*
X76103333Y-81684762D01*
X76198571Y-81732381D01*
X76436667Y-81732381D01*
X76531905Y-81684762D01*
X76579524Y-81637143D01*
X77898095Y-87644762D02*
X77755238Y-87692381D01*
X77517142Y-87692381D01*
X77421904Y-87644762D01*
X77374285Y-87597143D01*
X77326666Y-87501905D01*
X77326666Y-87406667D01*
X77374285Y-87311429D01*
X77421904Y-87263810D01*
X77517142Y-87216190D01*
X77707619Y-87168571D01*
X77802857Y-87120952D01*
X77850476Y-87073333D01*
X77898095Y-86978095D01*
X77898095Y-86882857D01*
X77850476Y-86787619D01*
X77802857Y-86740000D01*
X77707619Y-86692381D01*
X77469523Y-86692381D01*
X77326666Y-86740000D01*
X76374285Y-87692381D02*
X76945714Y-87692381D01*
X76660000Y-87692381D02*
X76660000Y-86692381D01*
X76755238Y-86835238D01*
X76850476Y-86930476D01*
X76945714Y-86978095D01*
X75421904Y-87692381D02*
X75993333Y-87692381D01*
X75707619Y-87692381D02*
X75707619Y-86692381D01*
X75802857Y-86835238D01*
X75898095Y-86930476D01*
X75993333Y-86978095D01*
X73931905Y-83052381D02*
X73931905Y-82052381D01*
X73360476Y-83052381D02*
X73789048Y-82480952D01*
X73360476Y-82052381D02*
X73931905Y-82623810D01*
X78484286Y-91892381D02*
X78484286Y-90892381D01*
X78246191Y-90892381D01*
X78103333Y-90940000D01*
X78008095Y-91035238D01*
X77960476Y-91130476D01*
X77912857Y-91320952D01*
X77912857Y-91463810D01*
X77960476Y-91654286D01*
X78008095Y-91749524D01*
X78103333Y-91844762D01*
X78246191Y-91892381D01*
X78484286Y-91892381D01*
X77531905Y-90987619D02*
X77484286Y-90940000D01*
X77389048Y-90892381D01*
X77150952Y-90892381D01*
X77055714Y-90940000D01*
X77008095Y-90987619D01*
X76960476Y-91082857D01*
X76960476Y-91178095D01*
X77008095Y-91320952D01*
X77579524Y-91892381D01*
X76960476Y-91892381D01*
X76103333Y-90892381D02*
X76293810Y-90892381D01*
X76389048Y-90940000D01*
X76436667Y-90987619D01*
X76531905Y-91130476D01*
X76579524Y-91320952D01*
X76579524Y-91701905D01*
X76531905Y-91797143D01*
X76484286Y-91844762D01*
X76389048Y-91892381D01*
X76198571Y-91892381D01*
X76103333Y-91844762D01*
X76055714Y-91797143D01*
X76008095Y-91701905D01*
X76008095Y-91463810D01*
X76055714Y-91368571D01*
X76103333Y-91320952D01*
X76198571Y-91273333D01*
X76389048Y-91273333D01*
X76484286Y-91320952D01*
X76531905Y-91368571D01*
X76579524Y-91463810D01*
X77898095Y-97804762D02*
X77755238Y-97852381D01*
X77517142Y-97852381D01*
X77421904Y-97804762D01*
X77374285Y-97757143D01*
X77326666Y-97661905D01*
X77326666Y-97566667D01*
X77374285Y-97471429D01*
X77421904Y-97423810D01*
X77517142Y-97376190D01*
X77707619Y-97328571D01*
X77802857Y-97280952D01*
X77850476Y-97233333D01*
X77898095Y-97138095D01*
X77898095Y-97042857D01*
X77850476Y-96947619D01*
X77802857Y-96900000D01*
X77707619Y-96852381D01*
X77469523Y-96852381D01*
X77326666Y-96900000D01*
X76374285Y-97852381D02*
X76945714Y-97852381D01*
X76660000Y-97852381D02*
X76660000Y-96852381D01*
X76755238Y-96995238D01*
X76850476Y-97090476D01*
X76945714Y-97138095D01*
X75993333Y-96947619D02*
X75945714Y-96900000D01*
X75850476Y-96852381D01*
X75612380Y-96852381D01*
X75517142Y-96900000D01*
X75469523Y-96947619D01*
X75421904Y-97042857D01*
X75421904Y-97138095D01*
X75469523Y-97280952D01*
X76040952Y-97852381D01*
X75421904Y-97852381D01*
X73931905Y-93212381D02*
X73931905Y-92212381D01*
X73360476Y-93212381D02*
X73789048Y-92640952D01*
X73360476Y-92212381D02*
X73931905Y-92783810D01*
X78484286Y-102052381D02*
X78484286Y-101052381D01*
X78246191Y-101052381D01*
X78103333Y-101100000D01*
X78008095Y-101195238D01*
X77960476Y-101290476D01*
X77912857Y-101480952D01*
X77912857Y-101623810D01*
X77960476Y-101814286D01*
X78008095Y-101909524D01*
X78103333Y-102004762D01*
X78246191Y-102052381D01*
X78484286Y-102052381D01*
X77531905Y-101147619D02*
X77484286Y-101100000D01*
X77389048Y-101052381D01*
X77150952Y-101052381D01*
X77055714Y-101100000D01*
X77008095Y-101147619D01*
X76960476Y-101242857D01*
X76960476Y-101338095D01*
X77008095Y-101480952D01*
X77579524Y-102052381D01*
X76960476Y-102052381D01*
X76627143Y-101052381D02*
X75960476Y-101052381D01*
X76389048Y-102052381D01*
X77898095Y-107964762D02*
X77755238Y-108012381D01*
X77517142Y-108012381D01*
X77421904Y-107964762D01*
X77374285Y-107917143D01*
X77326666Y-107821905D01*
X77326666Y-107726667D01*
X77374285Y-107631429D01*
X77421904Y-107583810D01*
X77517142Y-107536190D01*
X77707619Y-107488571D01*
X77802857Y-107440952D01*
X77850476Y-107393333D01*
X77898095Y-107298095D01*
X77898095Y-107202857D01*
X77850476Y-107107619D01*
X77802857Y-107060000D01*
X77707619Y-107012381D01*
X77469523Y-107012381D01*
X77326666Y-107060000D01*
X76374285Y-108012381D02*
X76945714Y-108012381D01*
X76660000Y-108012381D02*
X76660000Y-107012381D01*
X76755238Y-107155238D01*
X76850476Y-107250476D01*
X76945714Y-107298095D01*
X76040952Y-107012381D02*
X75421904Y-107012381D01*
X75755238Y-107393333D01*
X75612380Y-107393333D01*
X75517142Y-107440952D01*
X75469523Y-107488571D01*
X75421904Y-107583810D01*
X75421904Y-107821905D01*
X75469523Y-107917143D01*
X75517142Y-107964762D01*
X75612380Y-108012381D01*
X75898095Y-108012381D01*
X75993333Y-107964762D01*
X76040952Y-107917143D01*
X73931905Y-103372381D02*
X73931905Y-102372381D01*
X73360476Y-103372381D02*
X73789048Y-102800952D01*
X73360476Y-102372381D02*
X73931905Y-102943810D01*
X78484286Y-112212381D02*
X78484286Y-111212381D01*
X78246191Y-111212381D01*
X78103333Y-111260000D01*
X78008095Y-111355238D01*
X77960476Y-111450476D01*
X77912857Y-111640952D01*
X77912857Y-111783810D01*
X77960476Y-111974286D01*
X78008095Y-112069524D01*
X78103333Y-112164762D01*
X78246191Y-112212381D01*
X78484286Y-112212381D01*
X77531905Y-111307619D02*
X77484286Y-111260000D01*
X77389048Y-111212381D01*
X77150952Y-111212381D01*
X77055714Y-111260000D01*
X77008095Y-111307619D01*
X76960476Y-111402857D01*
X76960476Y-111498095D01*
X77008095Y-111640952D01*
X77579524Y-112212381D01*
X76960476Y-112212381D01*
X76389048Y-111640952D02*
X76484286Y-111593333D01*
X76531905Y-111545714D01*
X76579524Y-111450476D01*
X76579524Y-111402857D01*
X76531905Y-111307619D01*
X76484286Y-111260000D01*
X76389048Y-111212381D01*
X76198571Y-111212381D01*
X76103333Y-111260000D01*
X76055714Y-111307619D01*
X76008095Y-111402857D01*
X76008095Y-111450476D01*
X76055714Y-111545714D01*
X76103333Y-111593333D01*
X76198571Y-111640952D01*
X76389048Y-111640952D01*
X76484286Y-111688571D01*
X76531905Y-111736190D01*
X76579524Y-111831429D01*
X76579524Y-112021905D01*
X76531905Y-112117143D01*
X76484286Y-112164762D01*
X76389048Y-112212381D01*
X76198571Y-112212381D01*
X76103333Y-112164762D01*
X76055714Y-112117143D01*
X76008095Y-112021905D01*
X76008095Y-111831429D01*
X76055714Y-111736190D01*
X76103333Y-111688571D01*
X76198571Y-111640952D01*
X77898095Y-118124762D02*
X77755238Y-118172381D01*
X77517142Y-118172381D01*
X77421904Y-118124762D01*
X77374285Y-118077143D01*
X77326666Y-117981905D01*
X77326666Y-117886667D01*
X77374285Y-117791429D01*
X77421904Y-117743810D01*
X77517142Y-117696190D01*
X77707619Y-117648571D01*
X77802857Y-117600952D01*
X77850476Y-117553333D01*
X77898095Y-117458095D01*
X77898095Y-117362857D01*
X77850476Y-117267619D01*
X77802857Y-117220000D01*
X77707619Y-117172381D01*
X77469523Y-117172381D01*
X77326666Y-117220000D01*
X76374285Y-118172381D02*
X76945714Y-118172381D01*
X76660000Y-118172381D02*
X76660000Y-117172381D01*
X76755238Y-117315238D01*
X76850476Y-117410476D01*
X76945714Y-117458095D01*
X75517142Y-117505714D02*
X75517142Y-118172381D01*
X75755238Y-117124762D02*
X75993333Y-117839048D01*
X75374285Y-117839048D01*
X73931905Y-113532381D02*
X73931905Y-112532381D01*
X73360476Y-113532381D02*
X73789048Y-112960952D01*
X73360476Y-112532381D02*
X73931905Y-113103810D01*
X78484286Y-122372381D02*
X78484286Y-121372381D01*
X78246191Y-121372381D01*
X78103333Y-121420000D01*
X78008095Y-121515238D01*
X77960476Y-121610476D01*
X77912857Y-121800952D01*
X77912857Y-121943810D01*
X77960476Y-122134286D01*
X78008095Y-122229524D01*
X78103333Y-122324762D01*
X78246191Y-122372381D01*
X78484286Y-122372381D01*
X77531905Y-121467619D02*
X77484286Y-121420000D01*
X77389048Y-121372381D01*
X77150952Y-121372381D01*
X77055714Y-121420000D01*
X77008095Y-121467619D01*
X76960476Y-121562857D01*
X76960476Y-121658095D01*
X77008095Y-121800952D01*
X77579524Y-122372381D01*
X76960476Y-122372381D01*
X76484286Y-122372381D02*
X76293810Y-122372381D01*
X76198571Y-122324762D01*
X76150952Y-122277143D01*
X76055714Y-122134286D01*
X76008095Y-121943810D01*
X76008095Y-121562857D01*
X76055714Y-121467619D01*
X76103333Y-121420000D01*
X76198571Y-121372381D01*
X76389048Y-121372381D01*
X76484286Y-121420000D01*
X76531905Y-121467619D01*
X76579524Y-121562857D01*
X76579524Y-121800952D01*
X76531905Y-121896190D01*
X76484286Y-121943810D01*
X76389048Y-121991429D01*
X76198571Y-121991429D01*
X76103333Y-121943810D01*
X76055714Y-121896190D01*
X76008095Y-121800952D01*
X77898095Y-128284762D02*
X77755238Y-128332381D01*
X77517142Y-128332381D01*
X77421904Y-128284762D01*
X77374285Y-128237143D01*
X77326666Y-128141905D01*
X77326666Y-128046667D01*
X77374285Y-127951429D01*
X77421904Y-127903810D01*
X77517142Y-127856190D01*
X77707619Y-127808571D01*
X77802857Y-127760952D01*
X77850476Y-127713333D01*
X77898095Y-127618095D01*
X77898095Y-127522857D01*
X77850476Y-127427619D01*
X77802857Y-127380000D01*
X77707619Y-127332381D01*
X77469523Y-127332381D01*
X77326666Y-127380000D01*
X76374285Y-128332381D02*
X76945714Y-128332381D01*
X76660000Y-128332381D02*
X76660000Y-127332381D01*
X76755238Y-127475238D01*
X76850476Y-127570476D01*
X76945714Y-127618095D01*
X75469523Y-127332381D02*
X75945714Y-127332381D01*
X75993333Y-127808571D01*
X75945714Y-127760952D01*
X75850476Y-127713333D01*
X75612380Y-127713333D01*
X75517142Y-127760952D01*
X75469523Y-127808571D01*
X75421904Y-127903810D01*
X75421904Y-128141905D01*
X75469523Y-128237143D01*
X75517142Y-128284762D01*
X75612380Y-128332381D01*
X75850476Y-128332381D01*
X75945714Y-128284762D01*
X75993333Y-128237143D01*
X73931905Y-123692381D02*
X73931905Y-122692381D01*
X73360476Y-123692381D02*
X73789048Y-123120952D01*
X73360476Y-122692381D02*
X73931905Y-123263810D01*
X78484286Y-132532381D02*
X78484286Y-131532381D01*
X78246191Y-131532381D01*
X78103333Y-131580000D01*
X78008095Y-131675238D01*
X77960476Y-131770476D01*
X77912857Y-131960952D01*
X77912857Y-132103810D01*
X77960476Y-132294286D01*
X78008095Y-132389524D01*
X78103333Y-132484762D01*
X78246191Y-132532381D01*
X78484286Y-132532381D01*
X77579524Y-131532381D02*
X76960476Y-131532381D01*
X77293810Y-131913333D01*
X77150952Y-131913333D01*
X77055714Y-131960952D01*
X77008095Y-132008571D01*
X76960476Y-132103810D01*
X76960476Y-132341905D01*
X77008095Y-132437143D01*
X77055714Y-132484762D01*
X77150952Y-132532381D01*
X77436667Y-132532381D01*
X77531905Y-132484762D01*
X77579524Y-132437143D01*
X76341429Y-131532381D02*
X76246190Y-131532381D01*
X76150952Y-131580000D01*
X76103333Y-131627619D01*
X76055714Y-131722857D01*
X76008095Y-131913333D01*
X76008095Y-132151429D01*
X76055714Y-132341905D01*
X76103333Y-132437143D01*
X76150952Y-132484762D01*
X76246190Y-132532381D01*
X76341429Y-132532381D01*
X76436667Y-132484762D01*
X76484286Y-132437143D01*
X76531905Y-132341905D01*
X76579524Y-132151429D01*
X76579524Y-131913333D01*
X76531905Y-131722857D01*
X76484286Y-131627619D01*
X76436667Y-131580000D01*
X76341429Y-131532381D01*
X77898095Y-138444762D02*
X77755238Y-138492381D01*
X77517142Y-138492381D01*
X77421904Y-138444762D01*
X77374285Y-138397143D01*
X77326666Y-138301905D01*
X77326666Y-138206667D01*
X77374285Y-138111429D01*
X77421904Y-138063810D01*
X77517142Y-138016190D01*
X77707619Y-137968571D01*
X77802857Y-137920952D01*
X77850476Y-137873333D01*
X77898095Y-137778095D01*
X77898095Y-137682857D01*
X77850476Y-137587619D01*
X77802857Y-137540000D01*
X77707619Y-137492381D01*
X77469523Y-137492381D01*
X77326666Y-137540000D01*
X76374285Y-138492381D02*
X76945714Y-138492381D01*
X76660000Y-138492381D02*
X76660000Y-137492381D01*
X76755238Y-137635238D01*
X76850476Y-137730476D01*
X76945714Y-137778095D01*
X75517142Y-137492381D02*
X75707619Y-137492381D01*
X75802857Y-137540000D01*
X75850476Y-137587619D01*
X75945714Y-137730476D01*
X75993333Y-137920952D01*
X75993333Y-138301905D01*
X75945714Y-138397143D01*
X75898095Y-138444762D01*
X75802857Y-138492381D01*
X75612380Y-138492381D01*
X75517142Y-138444762D01*
X75469523Y-138397143D01*
X75421904Y-138301905D01*
X75421904Y-138063810D01*
X75469523Y-137968571D01*
X75517142Y-137920952D01*
X75612380Y-137873333D01*
X75802857Y-137873333D01*
X75898095Y-137920952D01*
X75945714Y-137968571D01*
X75993333Y-138063810D01*
X73931905Y-133852381D02*
X73931905Y-132852381D01*
X73360476Y-133852381D02*
X73789048Y-133280952D01*
X73360476Y-132852381D02*
X73931905Y-133423810D01*
X152883381Y-108759667D02*
X153597667Y-108759667D01*
X153740524Y-108712047D01*
X153835762Y-108616809D01*
X153883381Y-108473952D01*
X153883381Y-108378714D01*
X152883381Y-109140619D02*
X152883381Y-109807286D01*
X153883381Y-109378714D01*
X149700857Y-114942881D02*
X150034191Y-114466690D01*
X150272286Y-114942881D02*
X150272286Y-113942881D01*
X149891333Y-113942881D01*
X149796095Y-113990500D01*
X149748476Y-114038119D01*
X149700857Y-114133357D01*
X149700857Y-114276214D01*
X149748476Y-114371452D01*
X149796095Y-114419071D01*
X149891333Y-114466690D01*
X150272286Y-114466690D01*
X149272286Y-113942881D02*
X149272286Y-114752405D01*
X149224667Y-114847643D01*
X149177048Y-114895262D01*
X149081810Y-114942881D01*
X148891333Y-114942881D01*
X148796095Y-114895262D01*
X148748476Y-114847643D01*
X148700857Y-114752405D01*
X148700857Y-113942881D01*
X148224667Y-114942881D02*
X148224667Y-113942881D01*
X147653238Y-114942881D01*
X147653238Y-113942881D01*
X146462762Y-113895262D02*
X147319905Y-115180976D01*
X146177048Y-114895262D02*
X146034191Y-114942881D01*
X145796095Y-114942881D01*
X145700857Y-114895262D01*
X145653238Y-114847643D01*
X145605619Y-114752405D01*
X145605619Y-114657167D01*
X145653238Y-114561929D01*
X145700857Y-114514310D01*
X145796095Y-114466690D01*
X145986572Y-114419071D01*
X146081810Y-114371452D01*
X146129429Y-114323833D01*
X146177048Y-114228595D01*
X146177048Y-114133357D01*
X146129429Y-114038119D01*
X146081810Y-113990500D01*
X145986572Y-113942881D01*
X145748476Y-113942881D01*
X145605619Y-113990500D01*
X145319905Y-113942881D02*
X144748476Y-113942881D01*
X145034191Y-114942881D02*
X145034191Y-113942881D01*
X144224667Y-113942881D02*
X144034190Y-113942881D01*
X143938952Y-113990500D01*
X143843714Y-114085738D01*
X143796095Y-114276214D01*
X143796095Y-114609548D01*
X143843714Y-114800024D01*
X143938952Y-114895262D01*
X144034190Y-114942881D01*
X144224667Y-114942881D01*
X144319905Y-114895262D01*
X144415143Y-114800024D01*
X144462762Y-114609548D01*
X144462762Y-114276214D01*
X144415143Y-114085738D01*
X144319905Y-113990500D01*
X144224667Y-113942881D01*
X143367524Y-114942881D02*
X143367524Y-113942881D01*
X142986571Y-113942881D01*
X142891333Y-113990500D01*
X142843714Y-114038119D01*
X142796095Y-114133357D01*
X142796095Y-114276214D01*
X142843714Y-114371452D01*
X142891333Y-114419071D01*
X142986571Y-114466690D01*
X143367524Y-114466690D01*
X136207333Y-120165762D02*
X136064476Y-120213381D01*
X135826380Y-120213381D01*
X135731142Y-120165762D01*
X135683523Y-120118143D01*
X135635904Y-120022905D01*
X135635904Y-119927667D01*
X135683523Y-119832429D01*
X135731142Y-119784810D01*
X135826380Y-119737190D01*
X136016857Y-119689571D01*
X136112095Y-119641952D01*
X136159714Y-119594333D01*
X136207333Y-119499095D01*
X136207333Y-119403857D01*
X136159714Y-119308619D01*
X136112095Y-119261000D01*
X136016857Y-119213381D01*
X135778761Y-119213381D01*
X135635904Y-119261000D01*
X135302571Y-119213381D02*
X135064476Y-120213381D01*
X134873999Y-119499095D01*
X134683523Y-120213381D01*
X134445428Y-119213381D01*
X134112095Y-119308619D02*
X134064476Y-119261000D01*
X133969238Y-119213381D01*
X133731142Y-119213381D01*
X133635904Y-119261000D01*
X133588285Y-119308619D01*
X133540666Y-119403857D01*
X133540666Y-119499095D01*
X133588285Y-119641952D01*
X134159714Y-120213381D01*
X133540666Y-120213381D01*
X126198381Y-119380429D02*
X127007905Y-119380429D01*
X127103143Y-119428048D01*
X127150762Y-119475667D01*
X127198381Y-119570905D01*
X127198381Y-119761382D01*
X127150762Y-119856620D01*
X127103143Y-119904239D01*
X127007905Y-119951858D01*
X126198381Y-119951858D01*
X127198381Y-120428048D02*
X126198381Y-120428048D01*
X126198381Y-120809001D01*
X126246000Y-120904239D01*
X126293619Y-120951858D01*
X126388857Y-120999477D01*
X126531714Y-120999477D01*
X126626952Y-120951858D01*
X126674571Y-120904239D01*
X126722190Y-120809001D01*
X126722190Y-120428048D01*
X126150762Y-122142334D02*
X127436476Y-121285191D01*
X127198381Y-122475667D02*
X126198381Y-122475667D01*
X126198381Y-122713762D01*
X126246000Y-122856620D01*
X126341238Y-122951858D01*
X126436476Y-122999477D01*
X126626952Y-123047096D01*
X126769810Y-123047096D01*
X126960286Y-122999477D01*
X127055524Y-122951858D01*
X127150762Y-122856620D01*
X127198381Y-122713762D01*
X127198381Y-122475667D01*
X126198381Y-123666143D02*
X126198381Y-123856620D01*
X126246000Y-123951858D01*
X126341238Y-124047096D01*
X126531714Y-124094715D01*
X126865048Y-124094715D01*
X127055524Y-124047096D01*
X127150762Y-123951858D01*
X127198381Y-123856620D01*
X127198381Y-123666143D01*
X127150762Y-123570905D01*
X127055524Y-123475667D01*
X126865048Y-123428048D01*
X126531714Y-123428048D01*
X126341238Y-123475667D01*
X126246000Y-123570905D01*
X126198381Y-123666143D01*
X126198381Y-124428048D02*
X127198381Y-124666143D01*
X126484095Y-124856620D01*
X127198381Y-125047096D01*
X126198381Y-125285191D01*
X127198381Y-125666143D02*
X126198381Y-125666143D01*
X127198381Y-126237572D01*
X126198381Y-126237572D01*
X125118762Y-77406667D02*
X125166381Y-77549524D01*
X125166381Y-77787620D01*
X125118762Y-77882858D01*
X125071143Y-77930477D01*
X124975905Y-77978096D01*
X124880667Y-77978096D01*
X124785429Y-77930477D01*
X124737810Y-77882858D01*
X124690190Y-77787620D01*
X124642571Y-77597143D01*
X124594952Y-77501905D01*
X124547333Y-77454286D01*
X124452095Y-77406667D01*
X124356857Y-77406667D01*
X124261619Y-77454286D01*
X124214000Y-77501905D01*
X124166381Y-77597143D01*
X124166381Y-77835239D01*
X124214000Y-77978096D01*
X124166381Y-78311429D02*
X125166381Y-78549524D01*
X124452095Y-78740001D01*
X125166381Y-78930477D01*
X124166381Y-79168572D01*
X124166381Y-79454286D02*
X124166381Y-80073334D01*
X124547333Y-79740000D01*
X124547333Y-79882858D01*
X124594952Y-79978096D01*
X124642571Y-80025715D01*
X124737810Y-80073334D01*
X124975905Y-80073334D01*
X125071143Y-80025715D01*
X125118762Y-79978096D01*
X125166381Y-79882858D01*
X125166381Y-79597143D01*
X125118762Y-79501905D01*
X125071143Y-79454286D01*
X121040262Y-62686667D02*
X121087881Y-62829524D01*
X121087881Y-63067620D01*
X121040262Y-63162858D01*
X120992643Y-63210477D01*
X120897405Y-63258096D01*
X120802167Y-63258096D01*
X120706929Y-63210477D01*
X120659310Y-63162858D01*
X120611690Y-63067620D01*
X120564071Y-62877143D01*
X120516452Y-62781905D01*
X120468833Y-62734286D01*
X120373595Y-62686667D01*
X120278357Y-62686667D01*
X120183119Y-62734286D01*
X120135500Y-62781905D01*
X120087881Y-62877143D01*
X120087881Y-63115239D01*
X120135500Y-63258096D01*
X120087881Y-63591429D02*
X121087881Y-63829524D01*
X120373595Y-64020001D01*
X121087881Y-64210477D01*
X120087881Y-64448572D01*
X120421214Y-65258096D02*
X121087881Y-65258096D01*
X120040262Y-65020000D02*
X120754548Y-64781905D01*
X120754548Y-65400953D01*
X121040262Y-72846667D02*
X121087881Y-72989524D01*
X121087881Y-73227620D01*
X121040262Y-73322858D01*
X120992643Y-73370477D01*
X120897405Y-73418096D01*
X120802167Y-73418096D01*
X120706929Y-73370477D01*
X120659310Y-73322858D01*
X120611690Y-73227620D01*
X120564071Y-73037143D01*
X120516452Y-72941905D01*
X120468833Y-72894286D01*
X120373595Y-72846667D01*
X120278357Y-72846667D01*
X120183119Y-72894286D01*
X120135500Y-72941905D01*
X120087881Y-73037143D01*
X120087881Y-73275239D01*
X120135500Y-73418096D01*
X120087881Y-73751429D02*
X121087881Y-73989524D01*
X120373595Y-74180001D01*
X121087881Y-74370477D01*
X120087881Y-74608572D01*
X120087881Y-75465715D02*
X120087881Y-74989524D01*
X120564071Y-74941905D01*
X120516452Y-74989524D01*
X120468833Y-75084762D01*
X120468833Y-75322858D01*
X120516452Y-75418096D01*
X120564071Y-75465715D01*
X120659310Y-75513334D01*
X120897405Y-75513334D01*
X120992643Y-75465715D01*
X121040262Y-75418096D01*
X121087881Y-75322858D01*
X121087881Y-75084762D01*
X121040262Y-74989524D01*
X120992643Y-74941905D01*
X121040262Y-83006667D02*
X121087881Y-83149524D01*
X121087881Y-83387620D01*
X121040262Y-83482858D01*
X120992643Y-83530477D01*
X120897405Y-83578096D01*
X120802167Y-83578096D01*
X120706929Y-83530477D01*
X120659310Y-83482858D01*
X120611690Y-83387620D01*
X120564071Y-83197143D01*
X120516452Y-83101905D01*
X120468833Y-83054286D01*
X120373595Y-83006667D01*
X120278357Y-83006667D01*
X120183119Y-83054286D01*
X120135500Y-83101905D01*
X120087881Y-83197143D01*
X120087881Y-83435239D01*
X120135500Y-83578096D01*
X120087881Y-83911429D02*
X121087881Y-84149524D01*
X120373595Y-84340001D01*
X121087881Y-84530477D01*
X120087881Y-84768572D01*
X120087881Y-85578096D02*
X120087881Y-85387619D01*
X120135500Y-85292381D01*
X120183119Y-85244762D01*
X120325976Y-85149524D01*
X120516452Y-85101905D01*
X120897405Y-85101905D01*
X120992643Y-85149524D01*
X121040262Y-85197143D01*
X121087881Y-85292381D01*
X121087881Y-85482858D01*
X121040262Y-85578096D01*
X120992643Y-85625715D01*
X120897405Y-85673334D01*
X120659310Y-85673334D01*
X120564071Y-85625715D01*
X120516452Y-85578096D01*
X120468833Y-85482858D01*
X120468833Y-85292381D01*
X120516452Y-85197143D01*
X120564071Y-85149524D01*
X120659310Y-85101905D01*
X121040262Y-93166667D02*
X121087881Y-93309524D01*
X121087881Y-93547620D01*
X121040262Y-93642858D01*
X120992643Y-93690477D01*
X120897405Y-93738096D01*
X120802167Y-93738096D01*
X120706929Y-93690477D01*
X120659310Y-93642858D01*
X120611690Y-93547620D01*
X120564071Y-93357143D01*
X120516452Y-93261905D01*
X120468833Y-93214286D01*
X120373595Y-93166667D01*
X120278357Y-93166667D01*
X120183119Y-93214286D01*
X120135500Y-93261905D01*
X120087881Y-93357143D01*
X120087881Y-93595239D01*
X120135500Y-93738096D01*
X120087881Y-94071429D02*
X121087881Y-94309524D01*
X120373595Y-94500001D01*
X121087881Y-94690477D01*
X120087881Y-94928572D01*
X120087881Y-95214286D02*
X120087881Y-95880953D01*
X121087881Y-95452381D01*
X121040262Y-103326667D02*
X121087881Y-103469524D01*
X121087881Y-103707620D01*
X121040262Y-103802858D01*
X120992643Y-103850477D01*
X120897405Y-103898096D01*
X120802167Y-103898096D01*
X120706929Y-103850477D01*
X120659310Y-103802858D01*
X120611690Y-103707620D01*
X120564071Y-103517143D01*
X120516452Y-103421905D01*
X120468833Y-103374286D01*
X120373595Y-103326667D01*
X120278357Y-103326667D01*
X120183119Y-103374286D01*
X120135500Y-103421905D01*
X120087881Y-103517143D01*
X120087881Y-103755239D01*
X120135500Y-103898096D01*
X120087881Y-104231429D02*
X121087881Y-104469524D01*
X120373595Y-104660001D01*
X121087881Y-104850477D01*
X120087881Y-105088572D01*
X120516452Y-105612381D02*
X120468833Y-105517143D01*
X120421214Y-105469524D01*
X120325976Y-105421905D01*
X120278357Y-105421905D01*
X120183119Y-105469524D01*
X120135500Y-105517143D01*
X120087881Y-105612381D01*
X120087881Y-105802858D01*
X120135500Y-105898096D01*
X120183119Y-105945715D01*
X120278357Y-105993334D01*
X120325976Y-105993334D01*
X120421214Y-105945715D01*
X120468833Y-105898096D01*
X120516452Y-105802858D01*
X120516452Y-105612381D01*
X120564071Y-105517143D01*
X120611690Y-105469524D01*
X120706929Y-105421905D01*
X120897405Y-105421905D01*
X120992643Y-105469524D01*
X121040262Y-105517143D01*
X121087881Y-105612381D01*
X121087881Y-105802858D01*
X121040262Y-105898096D01*
X120992643Y-105945715D01*
X120897405Y-105993334D01*
X120706929Y-105993334D01*
X120611690Y-105945715D01*
X120564071Y-105898096D01*
X120516452Y-105802858D01*
X121040262Y-113486667D02*
X121087881Y-113629524D01*
X121087881Y-113867620D01*
X121040262Y-113962858D01*
X120992643Y-114010477D01*
X120897405Y-114058096D01*
X120802167Y-114058096D01*
X120706929Y-114010477D01*
X120659310Y-113962858D01*
X120611690Y-113867620D01*
X120564071Y-113677143D01*
X120516452Y-113581905D01*
X120468833Y-113534286D01*
X120373595Y-113486667D01*
X120278357Y-113486667D01*
X120183119Y-113534286D01*
X120135500Y-113581905D01*
X120087881Y-113677143D01*
X120087881Y-113915239D01*
X120135500Y-114058096D01*
X120087881Y-114391429D02*
X121087881Y-114629524D01*
X120373595Y-114820001D01*
X121087881Y-115010477D01*
X120087881Y-115248572D01*
X121087881Y-115677143D02*
X121087881Y-115867619D01*
X121040262Y-115962858D01*
X120992643Y-116010477D01*
X120849786Y-116105715D01*
X120659310Y-116153334D01*
X120278357Y-116153334D01*
X120183119Y-116105715D01*
X120135500Y-116058096D01*
X120087881Y-115962858D01*
X120087881Y-115772381D01*
X120135500Y-115677143D01*
X120183119Y-115629524D01*
X120278357Y-115581905D01*
X120516452Y-115581905D01*
X120611690Y-115629524D01*
X120659310Y-115677143D01*
X120706929Y-115772381D01*
X120706929Y-115962858D01*
X120659310Y-116058096D01*
X120611690Y-116105715D01*
X120516452Y-116153334D01*
X121040262Y-123170476D02*
X121087881Y-123313333D01*
X121087881Y-123551429D01*
X121040262Y-123646667D01*
X120992643Y-123694286D01*
X120897405Y-123741905D01*
X120802167Y-123741905D01*
X120706929Y-123694286D01*
X120659310Y-123646667D01*
X120611690Y-123551429D01*
X120564071Y-123360952D01*
X120516452Y-123265714D01*
X120468833Y-123218095D01*
X120373595Y-123170476D01*
X120278357Y-123170476D01*
X120183119Y-123218095D01*
X120135500Y-123265714D01*
X120087881Y-123360952D01*
X120087881Y-123599048D01*
X120135500Y-123741905D01*
X120087881Y-124075238D02*
X121087881Y-124313333D01*
X120373595Y-124503810D01*
X121087881Y-124694286D01*
X120087881Y-124932381D01*
X121087881Y-125837143D02*
X121087881Y-125265714D01*
X121087881Y-125551428D02*
X120087881Y-125551428D01*
X120230738Y-125456190D01*
X120325976Y-125360952D01*
X120373595Y-125265714D01*
X120087881Y-126456190D02*
X120087881Y-126551429D01*
X120135500Y-126646667D01*
X120183119Y-126694286D01*
X120278357Y-126741905D01*
X120468833Y-126789524D01*
X120706929Y-126789524D01*
X120897405Y-126741905D01*
X120992643Y-126694286D01*
X121040262Y-126646667D01*
X121087881Y-126551429D01*
X121087881Y-126456190D01*
X121040262Y-126360952D01*
X120992643Y-126313333D01*
X120897405Y-126265714D01*
X120706929Y-126218095D01*
X120468833Y-126218095D01*
X120278357Y-126265714D01*
X120183119Y-126313333D01*
X120135500Y-126360952D01*
X120087881Y-126456190D01*
X121040262Y-133330476D02*
X121087881Y-133473333D01*
X121087881Y-133711429D01*
X121040262Y-133806667D01*
X120992643Y-133854286D01*
X120897405Y-133901905D01*
X120802167Y-133901905D01*
X120706929Y-133854286D01*
X120659310Y-133806667D01*
X120611690Y-133711429D01*
X120564071Y-133520952D01*
X120516452Y-133425714D01*
X120468833Y-133378095D01*
X120373595Y-133330476D01*
X120278357Y-133330476D01*
X120183119Y-133378095D01*
X120135500Y-133425714D01*
X120087881Y-133520952D01*
X120087881Y-133759048D01*
X120135500Y-133901905D01*
X120087881Y-134235238D02*
X121087881Y-134473333D01*
X120373595Y-134663810D01*
X121087881Y-134854286D01*
X120087881Y-135092381D01*
X121087881Y-135997143D02*
X121087881Y-135425714D01*
X121087881Y-135711428D02*
X120087881Y-135711428D01*
X120230738Y-135616190D01*
X120325976Y-135520952D01*
X120373595Y-135425714D01*
X121087881Y-136949524D02*
X121087881Y-136378095D01*
X121087881Y-136663809D02*
X120087881Y-136663809D01*
X120230738Y-136568571D01*
X120325976Y-136473333D01*
X120373595Y-136378095D01*
X93354262Y-62210476D02*
X93401881Y-62353333D01*
X93401881Y-62591429D01*
X93354262Y-62686667D01*
X93306643Y-62734286D01*
X93211405Y-62781905D01*
X93116167Y-62781905D01*
X93020929Y-62734286D01*
X92973310Y-62686667D01*
X92925690Y-62591429D01*
X92878071Y-62400952D01*
X92830452Y-62305714D01*
X92782833Y-62258095D01*
X92687595Y-62210476D01*
X92592357Y-62210476D01*
X92497119Y-62258095D01*
X92449500Y-62305714D01*
X92401881Y-62400952D01*
X92401881Y-62639048D01*
X92449500Y-62781905D01*
X92401881Y-63115238D02*
X93401881Y-63353333D01*
X92687595Y-63543810D01*
X93401881Y-63734286D01*
X92401881Y-63972381D01*
X93401881Y-64877143D02*
X93401881Y-64305714D01*
X93401881Y-64591428D02*
X92401881Y-64591428D01*
X92544738Y-64496190D01*
X92639976Y-64400952D01*
X92687595Y-64305714D01*
X92497119Y-65258095D02*
X92449500Y-65305714D01*
X92401881Y-65400952D01*
X92401881Y-65639048D01*
X92449500Y-65734286D01*
X92497119Y-65781905D01*
X92592357Y-65829524D01*
X92687595Y-65829524D01*
X92830452Y-65781905D01*
X93401881Y-65210476D01*
X93401881Y-65829524D01*
X93354262Y-72370476D02*
X93401881Y-72513333D01*
X93401881Y-72751429D01*
X93354262Y-72846667D01*
X93306643Y-72894286D01*
X93211405Y-72941905D01*
X93116167Y-72941905D01*
X93020929Y-72894286D01*
X92973310Y-72846667D01*
X92925690Y-72751429D01*
X92878071Y-72560952D01*
X92830452Y-72465714D01*
X92782833Y-72418095D01*
X92687595Y-72370476D01*
X92592357Y-72370476D01*
X92497119Y-72418095D01*
X92449500Y-72465714D01*
X92401881Y-72560952D01*
X92401881Y-72799048D01*
X92449500Y-72941905D01*
X92401881Y-73275238D02*
X93401881Y-73513333D01*
X92687595Y-73703810D01*
X93401881Y-73894286D01*
X92401881Y-74132381D01*
X93401881Y-75037143D02*
X93401881Y-74465714D01*
X93401881Y-74751428D02*
X92401881Y-74751428D01*
X92544738Y-74656190D01*
X92639976Y-74560952D01*
X92687595Y-74465714D01*
X92401881Y-75370476D02*
X92401881Y-75989524D01*
X92782833Y-75656190D01*
X92782833Y-75799048D01*
X92830452Y-75894286D01*
X92878071Y-75941905D01*
X92973310Y-75989524D01*
X93211405Y-75989524D01*
X93306643Y-75941905D01*
X93354262Y-75894286D01*
X93401881Y-75799048D01*
X93401881Y-75513333D01*
X93354262Y-75418095D01*
X93306643Y-75370476D01*
X93354262Y-82530476D02*
X93401881Y-82673333D01*
X93401881Y-82911429D01*
X93354262Y-83006667D01*
X93306643Y-83054286D01*
X93211405Y-83101905D01*
X93116167Y-83101905D01*
X93020929Y-83054286D01*
X92973310Y-83006667D01*
X92925690Y-82911429D01*
X92878071Y-82720952D01*
X92830452Y-82625714D01*
X92782833Y-82578095D01*
X92687595Y-82530476D01*
X92592357Y-82530476D01*
X92497119Y-82578095D01*
X92449500Y-82625714D01*
X92401881Y-82720952D01*
X92401881Y-82959048D01*
X92449500Y-83101905D01*
X92401881Y-83435238D02*
X93401881Y-83673333D01*
X92687595Y-83863810D01*
X93401881Y-84054286D01*
X92401881Y-84292381D01*
X93401881Y-85197143D02*
X93401881Y-84625714D01*
X93401881Y-84911428D02*
X92401881Y-84911428D01*
X92544738Y-84816190D01*
X92639976Y-84720952D01*
X92687595Y-84625714D01*
X92735214Y-86054286D02*
X93401881Y-86054286D01*
X92354262Y-85816190D02*
X93068548Y-85578095D01*
X93068548Y-86197143D01*
X93354262Y-92690476D02*
X93401881Y-92833333D01*
X93401881Y-93071429D01*
X93354262Y-93166667D01*
X93306643Y-93214286D01*
X93211405Y-93261905D01*
X93116167Y-93261905D01*
X93020929Y-93214286D01*
X92973310Y-93166667D01*
X92925690Y-93071429D01*
X92878071Y-92880952D01*
X92830452Y-92785714D01*
X92782833Y-92738095D01*
X92687595Y-92690476D01*
X92592357Y-92690476D01*
X92497119Y-92738095D01*
X92449500Y-92785714D01*
X92401881Y-92880952D01*
X92401881Y-93119048D01*
X92449500Y-93261905D01*
X92401881Y-93595238D02*
X93401881Y-93833333D01*
X92687595Y-94023810D01*
X93401881Y-94214286D01*
X92401881Y-94452381D01*
X93401881Y-95357143D02*
X93401881Y-94785714D01*
X93401881Y-95071428D02*
X92401881Y-95071428D01*
X92544738Y-94976190D01*
X92639976Y-94880952D01*
X92687595Y-94785714D01*
X92401881Y-96261905D02*
X92401881Y-95785714D01*
X92878071Y-95738095D01*
X92830452Y-95785714D01*
X92782833Y-95880952D01*
X92782833Y-96119048D01*
X92830452Y-96214286D01*
X92878071Y-96261905D01*
X92973310Y-96309524D01*
X93211405Y-96309524D01*
X93306643Y-96261905D01*
X93354262Y-96214286D01*
X93401881Y-96119048D01*
X93401881Y-95880952D01*
X93354262Y-95785714D01*
X93306643Y-95738095D01*
X93354262Y-102850476D02*
X93401881Y-102993333D01*
X93401881Y-103231429D01*
X93354262Y-103326667D01*
X93306643Y-103374286D01*
X93211405Y-103421905D01*
X93116167Y-103421905D01*
X93020929Y-103374286D01*
X92973310Y-103326667D01*
X92925690Y-103231429D01*
X92878071Y-103040952D01*
X92830452Y-102945714D01*
X92782833Y-102898095D01*
X92687595Y-102850476D01*
X92592357Y-102850476D01*
X92497119Y-102898095D01*
X92449500Y-102945714D01*
X92401881Y-103040952D01*
X92401881Y-103279048D01*
X92449500Y-103421905D01*
X92401881Y-103755238D02*
X93401881Y-103993333D01*
X92687595Y-104183810D01*
X93401881Y-104374286D01*
X92401881Y-104612381D01*
X93401881Y-105517143D02*
X93401881Y-104945714D01*
X93401881Y-105231428D02*
X92401881Y-105231428D01*
X92544738Y-105136190D01*
X92639976Y-105040952D01*
X92687595Y-104945714D01*
X92401881Y-106374286D02*
X92401881Y-106183809D01*
X92449500Y-106088571D01*
X92497119Y-106040952D01*
X92639976Y-105945714D01*
X92830452Y-105898095D01*
X93211405Y-105898095D01*
X93306643Y-105945714D01*
X93354262Y-105993333D01*
X93401881Y-106088571D01*
X93401881Y-106279048D01*
X93354262Y-106374286D01*
X93306643Y-106421905D01*
X93211405Y-106469524D01*
X92973310Y-106469524D01*
X92878071Y-106421905D01*
X92830452Y-106374286D01*
X92782833Y-106279048D01*
X92782833Y-106088571D01*
X92830452Y-105993333D01*
X92878071Y-105945714D01*
X92973310Y-105898095D01*
X93354262Y-113010476D02*
X93401881Y-113153333D01*
X93401881Y-113391429D01*
X93354262Y-113486667D01*
X93306643Y-113534286D01*
X93211405Y-113581905D01*
X93116167Y-113581905D01*
X93020929Y-113534286D01*
X92973310Y-113486667D01*
X92925690Y-113391429D01*
X92878071Y-113200952D01*
X92830452Y-113105714D01*
X92782833Y-113058095D01*
X92687595Y-113010476D01*
X92592357Y-113010476D01*
X92497119Y-113058095D01*
X92449500Y-113105714D01*
X92401881Y-113200952D01*
X92401881Y-113439048D01*
X92449500Y-113581905D01*
X92401881Y-113915238D02*
X93401881Y-114153333D01*
X92687595Y-114343810D01*
X93401881Y-114534286D01*
X92401881Y-114772381D01*
X93401881Y-115677143D02*
X93401881Y-115105714D01*
X93401881Y-115391428D02*
X92401881Y-115391428D01*
X92544738Y-115296190D01*
X92639976Y-115200952D01*
X92687595Y-115105714D01*
X92401881Y-116010476D02*
X92401881Y-116677143D01*
X93401881Y-116248571D01*
X93354262Y-123170476D02*
X93401881Y-123313333D01*
X93401881Y-123551429D01*
X93354262Y-123646667D01*
X93306643Y-123694286D01*
X93211405Y-123741905D01*
X93116167Y-123741905D01*
X93020929Y-123694286D01*
X92973310Y-123646667D01*
X92925690Y-123551429D01*
X92878071Y-123360952D01*
X92830452Y-123265714D01*
X92782833Y-123218095D01*
X92687595Y-123170476D01*
X92592357Y-123170476D01*
X92497119Y-123218095D01*
X92449500Y-123265714D01*
X92401881Y-123360952D01*
X92401881Y-123599048D01*
X92449500Y-123741905D01*
X92401881Y-124075238D02*
X93401881Y-124313333D01*
X92687595Y-124503810D01*
X93401881Y-124694286D01*
X92401881Y-124932381D01*
X93401881Y-125837143D02*
X93401881Y-125265714D01*
X93401881Y-125551428D02*
X92401881Y-125551428D01*
X92544738Y-125456190D01*
X92639976Y-125360952D01*
X92687595Y-125265714D01*
X92830452Y-126408571D02*
X92782833Y-126313333D01*
X92735214Y-126265714D01*
X92639976Y-126218095D01*
X92592357Y-126218095D01*
X92497119Y-126265714D01*
X92449500Y-126313333D01*
X92401881Y-126408571D01*
X92401881Y-126599048D01*
X92449500Y-126694286D01*
X92497119Y-126741905D01*
X92592357Y-126789524D01*
X92639976Y-126789524D01*
X92735214Y-126741905D01*
X92782833Y-126694286D01*
X92830452Y-126599048D01*
X92830452Y-126408571D01*
X92878071Y-126313333D01*
X92925690Y-126265714D01*
X93020929Y-126218095D01*
X93211405Y-126218095D01*
X93306643Y-126265714D01*
X93354262Y-126313333D01*
X93401881Y-126408571D01*
X93401881Y-126599048D01*
X93354262Y-126694286D01*
X93306643Y-126741905D01*
X93211405Y-126789524D01*
X93020929Y-126789524D01*
X92925690Y-126741905D01*
X92878071Y-126694286D01*
X92830452Y-126599048D01*
X93354262Y-133330476D02*
X93401881Y-133473333D01*
X93401881Y-133711429D01*
X93354262Y-133806667D01*
X93306643Y-133854286D01*
X93211405Y-133901905D01*
X93116167Y-133901905D01*
X93020929Y-133854286D01*
X92973310Y-133806667D01*
X92925690Y-133711429D01*
X92878071Y-133520952D01*
X92830452Y-133425714D01*
X92782833Y-133378095D01*
X92687595Y-133330476D01*
X92592357Y-133330476D01*
X92497119Y-133378095D01*
X92449500Y-133425714D01*
X92401881Y-133520952D01*
X92401881Y-133759048D01*
X92449500Y-133901905D01*
X92401881Y-134235238D02*
X93401881Y-134473333D01*
X92687595Y-134663810D01*
X93401881Y-134854286D01*
X92401881Y-135092381D01*
X93401881Y-135997143D02*
X93401881Y-135425714D01*
X93401881Y-135711428D02*
X92401881Y-135711428D01*
X92544738Y-135616190D01*
X92639976Y-135520952D01*
X92687595Y-135425714D01*
X93401881Y-136473333D02*
X93401881Y-136663809D01*
X93354262Y-136759048D01*
X93306643Y-136806667D01*
X93163786Y-136901905D01*
X92973310Y-136949524D01*
X92592357Y-136949524D01*
X92497119Y-136901905D01*
X92449500Y-136854286D01*
X92401881Y-136759048D01*
X92401881Y-136568571D01*
X92449500Y-136473333D01*
X92497119Y-136425714D01*
X92592357Y-136378095D01*
X92830452Y-136378095D01*
X92925690Y-136425714D01*
X92973310Y-136473333D01*
X93020929Y-136568571D01*
X93020929Y-136759048D01*
X92973310Y-136854286D01*
X92925690Y-136901905D01*
X92830452Y-136949524D01*
X132111524Y-103338262D02*
X131968667Y-103385881D01*
X131730571Y-103385881D01*
X131635333Y-103338262D01*
X131587714Y-103290643D01*
X131540095Y-103195405D01*
X131540095Y-103100167D01*
X131587714Y-103004929D01*
X131635333Y-102957310D01*
X131730571Y-102909690D01*
X131921048Y-102862071D01*
X132016286Y-102814452D01*
X132063905Y-102766833D01*
X132111524Y-102671595D01*
X132111524Y-102576357D01*
X132063905Y-102481119D01*
X132016286Y-102433500D01*
X131921048Y-102385881D01*
X131682952Y-102385881D01*
X131540095Y-102433500D01*
X131206762Y-102385881D02*
X130968667Y-103385881D01*
X130778190Y-102671595D01*
X130587714Y-103385881D01*
X130349619Y-102385881D01*
X130016286Y-102481119D02*
X129968667Y-102433500D01*
X129873429Y-102385881D01*
X129635333Y-102385881D01*
X129540095Y-102433500D01*
X129492476Y-102481119D01*
X129444857Y-102576357D01*
X129444857Y-102671595D01*
X129492476Y-102814452D01*
X130063905Y-103385881D01*
X129444857Y-103385881D01*
X128825810Y-102385881D02*
X128730571Y-102385881D01*
X128635333Y-102433500D01*
X128587714Y-102481119D01*
X128540095Y-102576357D01*
X128492476Y-102766833D01*
X128492476Y-103004929D01*
X128540095Y-103195405D01*
X128587714Y-103290643D01*
X128635333Y-103338262D01*
X128730571Y-103385881D01*
X128825810Y-103385881D01*
X128921048Y-103338262D01*
X128968667Y-103290643D01*
X129016286Y-103195405D01*
X129063905Y-103004929D01*
X129063905Y-102766833D01*
X129016286Y-102576357D01*
X128968667Y-102481119D01*
X128921048Y-102433500D01*
X128825810Y-102385881D01*
X134310381Y-105823143D02*
X133834190Y-105489809D01*
X134310381Y-105251714D02*
X133310381Y-105251714D01*
X133310381Y-105632667D01*
X133358000Y-105727905D01*
X133405619Y-105775524D01*
X133500857Y-105823143D01*
X133643714Y-105823143D01*
X133738952Y-105775524D01*
X133786571Y-105727905D01*
X133834190Y-105632667D01*
X133834190Y-105251714D01*
X133310381Y-106251714D02*
X134119905Y-106251714D01*
X134215143Y-106299333D01*
X134262762Y-106346952D01*
X134310381Y-106442190D01*
X134310381Y-106632667D01*
X134262762Y-106727905D01*
X134215143Y-106775524D01*
X134119905Y-106823143D01*
X133310381Y-106823143D01*
X134310381Y-107299333D02*
X133310381Y-107299333D01*
X134310381Y-107870762D01*
X133310381Y-107870762D01*
X133262762Y-109061238D02*
X134548476Y-108204095D01*
X134262762Y-109346952D02*
X134310381Y-109489809D01*
X134310381Y-109727905D01*
X134262762Y-109823143D01*
X134215143Y-109870762D01*
X134119905Y-109918381D01*
X134024667Y-109918381D01*
X133929429Y-109870762D01*
X133881810Y-109823143D01*
X133834190Y-109727905D01*
X133786571Y-109537428D01*
X133738952Y-109442190D01*
X133691333Y-109394571D01*
X133596095Y-109346952D01*
X133500857Y-109346952D01*
X133405619Y-109394571D01*
X133358000Y-109442190D01*
X133310381Y-109537428D01*
X133310381Y-109775524D01*
X133358000Y-109918381D01*
X133310381Y-110204095D02*
X133310381Y-110775524D01*
X134310381Y-110489809D02*
X133310381Y-110489809D01*
X133310381Y-111299333D02*
X133310381Y-111489810D01*
X133358000Y-111585048D01*
X133453238Y-111680286D01*
X133643714Y-111727905D01*
X133977048Y-111727905D01*
X134167524Y-111680286D01*
X134262762Y-111585048D01*
X134310381Y-111489810D01*
X134310381Y-111299333D01*
X134262762Y-111204095D01*
X134167524Y-111108857D01*
X133977048Y-111061238D01*
X133643714Y-111061238D01*
X133453238Y-111108857D01*
X133358000Y-111204095D01*
X133310381Y-111299333D01*
X134310381Y-112156476D02*
X133310381Y-112156476D01*
X133310381Y-112537429D01*
X133358000Y-112632667D01*
X133405619Y-112680286D01*
X133500857Y-112727905D01*
X133643714Y-112727905D01*
X133738952Y-112680286D01*
X133786571Y-112632667D01*
X133834190Y-112537429D01*
X133834190Y-112156476D01*
M02*
