G04 #@! TF.GenerationSoftware,KiCad,Pcbnew,(5.0.0-rc2-24-g81af2db)*
G04 #@! TF.CreationDate,2019-03-24T02:10:34-05:00*
G04 #@! TF.ProjectId,trigger-seq-panel,747269676765722D7365712D70616E65,rev?*
G04 #@! TF.SameCoordinates,Original*
G04 #@! TF.FileFunction,Legend,Bot*
G04 #@! TF.FilePolarity,Positive*
%FSLAX46Y46*%
G04 Gerber Fmt 4.6, Leading zero omitted, Abs format (unit mm)*
G04 Created by KiCad (PCBNEW (5.0.0-rc2-24-g81af2db)) date Sunday, March 24, 2019 at 02:10:34 AM*
%MOMM*%
%LPD*%
G01*
G04 APERTURE LIST*
%ADD10C,0.300000*%
%ADD11C,0.150000*%
%ADD12C,0.381000*%
G04 APERTURE END LIST*
D10*
X131778142Y-57320571D02*
X131778142Y-56320571D01*
X131778142Y-56606285D02*
X131706714Y-56463428D01*
X131635285Y-56392000D01*
X131492428Y-56320571D01*
X131349571Y-56320571D01*
X130206714Y-57320571D02*
X130206714Y-56534857D01*
X130278142Y-56392000D01*
X130421000Y-56320571D01*
X130706714Y-56320571D01*
X130849571Y-56392000D01*
X130206714Y-57249142D02*
X130349571Y-57320571D01*
X130706714Y-57320571D01*
X130849571Y-57249142D01*
X130921000Y-57106285D01*
X130921000Y-56963428D01*
X130849571Y-56820571D01*
X130706714Y-56749142D01*
X130349571Y-56749142D01*
X130206714Y-56677714D01*
X129706714Y-56320571D02*
X129135285Y-56320571D01*
X129492428Y-55820571D02*
X129492428Y-57106285D01*
X129421000Y-57249142D01*
X129278142Y-57320571D01*
X129135285Y-57320571D01*
X128063857Y-57249142D02*
X128206714Y-57320571D01*
X128492428Y-57320571D01*
X128635285Y-57249142D01*
X128706714Y-57106285D01*
X128706714Y-56534857D01*
X128635285Y-56392000D01*
X128492428Y-56320571D01*
X128206714Y-56320571D01*
X128063857Y-56392000D01*
X127992428Y-56534857D01*
X127992428Y-56677714D01*
X128706714Y-56820571D01*
X149018285Y-56447571D02*
X148732571Y-57447571D01*
X148446857Y-56733285D01*
X148161142Y-57447571D01*
X147875428Y-56447571D01*
X147304000Y-57447571D02*
X147304000Y-56447571D01*
X147304000Y-55947571D02*
X147375428Y-56019000D01*
X147304000Y-56090428D01*
X147232571Y-56019000D01*
X147304000Y-55947571D01*
X147304000Y-56090428D01*
X145946857Y-57447571D02*
X145946857Y-55947571D01*
X145946857Y-57376142D02*
X146089714Y-57447571D01*
X146375428Y-57447571D01*
X146518285Y-57376142D01*
X146589714Y-57304714D01*
X146661142Y-57161857D01*
X146661142Y-56733285D01*
X146589714Y-56590428D01*
X146518285Y-56519000D01*
X146375428Y-56447571D01*
X146089714Y-56447571D01*
X145946857Y-56519000D01*
X145446857Y-56447571D02*
X144875428Y-56447571D01*
X145232571Y-55947571D02*
X145232571Y-57233285D01*
X145161142Y-57376142D01*
X145018285Y-57447571D01*
X144875428Y-57447571D01*
X144375428Y-57447571D02*
X144375428Y-55947571D01*
X143732571Y-57447571D02*
X143732571Y-56661857D01*
X143804000Y-56519000D01*
X143946857Y-56447571D01*
X144161142Y-56447571D01*
X144304000Y-56519000D01*
X144375428Y-56590428D01*
X125671642Y-84193071D02*
X126528785Y-84193071D01*
X126100214Y-84193071D02*
X126100214Y-82693071D01*
X126243071Y-82907357D01*
X126385928Y-83050214D01*
X126528785Y-83121642D01*
X125171642Y-84193071D02*
X124385928Y-83193071D01*
X125171642Y-83193071D02*
X124385928Y-84193071D01*
X123028785Y-84193071D02*
X123885928Y-84193071D01*
X123457357Y-84193071D02*
X123457357Y-82693071D01*
X123600214Y-82907357D01*
X123743071Y-83050214D01*
X123885928Y-83121642D01*
X121743071Y-82693071D02*
X122028785Y-82693071D01*
X122171642Y-82764500D01*
X122243071Y-82835928D01*
X122385928Y-83050214D01*
X122457357Y-83335928D01*
X122457357Y-83907357D01*
X122385928Y-84050214D01*
X122314500Y-84121642D01*
X122171642Y-84193071D01*
X121885928Y-84193071D01*
X121743071Y-84121642D01*
X121671642Y-84050214D01*
X121600214Y-83907357D01*
X121600214Y-83550214D01*
X121671642Y-83407357D01*
X121743071Y-83335928D01*
X121885928Y-83264500D01*
X122171642Y-83264500D01*
X122314500Y-83335928D01*
X122385928Y-83407357D01*
X122457357Y-83550214D01*
X126703500Y-73374428D02*
X126632071Y-73303000D01*
X126489214Y-73231571D01*
X126132071Y-73231571D01*
X125989214Y-73303000D01*
X125917785Y-73374428D01*
X125846357Y-73517285D01*
X125846357Y-73660142D01*
X125917785Y-73874428D01*
X126774928Y-74731571D01*
X125846357Y-74731571D01*
X125346357Y-74731571D02*
X124560642Y-73731571D01*
X125346357Y-73731571D02*
X124560642Y-74731571D01*
X123774928Y-73874428D02*
X123917785Y-73803000D01*
X123989214Y-73731571D01*
X124060642Y-73588714D01*
X124060642Y-73517285D01*
X123989214Y-73374428D01*
X123917785Y-73303000D01*
X123774928Y-73231571D01*
X123489214Y-73231571D01*
X123346357Y-73303000D01*
X123274928Y-73374428D01*
X123203500Y-73517285D01*
X123203500Y-73588714D01*
X123274928Y-73731571D01*
X123346357Y-73803000D01*
X123489214Y-73874428D01*
X123774928Y-73874428D01*
X123917785Y-73945857D01*
X123989214Y-74017285D01*
X124060642Y-74160142D01*
X124060642Y-74445857D01*
X123989214Y-74588714D01*
X123917785Y-74660142D01*
X123774928Y-74731571D01*
X123489214Y-74731571D01*
X123346357Y-74660142D01*
X123274928Y-74588714D01*
X123203500Y-74445857D01*
X123203500Y-74160142D01*
X123274928Y-74017285D01*
X123346357Y-73945857D01*
X123489214Y-73874428D01*
D11*
G04 #@! TO.C,SW21*
X144716500Y-80899000D02*
X148399500Y-80899000D01*
X147984985Y-79248000D02*
G75*
G03X147984985Y-79248000I-1426985J0D01*
G01*
X144018000Y-83312000D02*
X149098000Y-83312000D01*
X149098000Y-83312000D02*
X149098000Y-75184000D01*
X149098000Y-75184000D02*
X144018000Y-75184000D01*
X144018000Y-75184000D02*
X144018000Y-83312000D01*
X149035314Y-79248000D02*
G75*
G03X149035314Y-79248000I-2477314J0D01*
G01*
G04 #@! TO.C,J1*
X109927000Y-154868000D02*
X109927000Y-145868000D01*
X109927000Y-145868000D02*
X120427000Y-145868000D01*
X120427000Y-145868000D02*
X120427000Y-154868000D01*
X120427000Y-154868000D02*
X109927000Y-154868000D01*
G04 #@! TO.C,J2*
X82290000Y-154880000D02*
X82290000Y-145880000D01*
X82290000Y-145880000D02*
X92790000Y-145880000D01*
X92790000Y-145880000D02*
X92790000Y-154880000D01*
X92790000Y-154880000D02*
X82290000Y-154880000D01*
D12*
G04 #@! TO.C,RV1*
X125402000Y-58000000D02*
X125402000Y-70000000D01*
X135202000Y-70000000D02*
X135202000Y-58000000D01*
X135202000Y-70000000D02*
X125402000Y-70000000D01*
X135202000Y-58000000D02*
X125402000Y-58000000D01*
X126902000Y-67900000D02*
G75*
G03X126902000Y-67900000I-400000J0D01*
G01*
X134502000Y-67900000D02*
G75*
G03X134502000Y-67900000I-400000J0D01*
G01*
X126902000Y-59100000D02*
G75*
G03X126902000Y-59100000I-400000J0D01*
G01*
X134502000Y-59100000D02*
G75*
G03X134502000Y-59100000I-400000J0D01*
G01*
X132902960Y-61998860D02*
X127701040Y-61998860D01*
X133301740Y-63500000D02*
G75*
G03X133301740Y-63500000I-2999740J0D01*
G01*
X133703060Y-63500000D02*
G75*
G03X133703060Y-63500000I-3401060J0D01*
G01*
G04 #@! TO.C,RV2*
X141658000Y-58000000D02*
X141658000Y-70000000D01*
X151458000Y-70000000D02*
X151458000Y-58000000D01*
X151458000Y-70000000D02*
X141658000Y-70000000D01*
X151458000Y-58000000D02*
X141658000Y-58000000D01*
X143158000Y-67900000D02*
G75*
G03X143158000Y-67900000I-400000J0D01*
G01*
X150758000Y-67900000D02*
G75*
G03X150758000Y-67900000I-400000J0D01*
G01*
X143158000Y-59100000D02*
G75*
G03X143158000Y-59100000I-400000J0D01*
G01*
X150758000Y-59100000D02*
G75*
G03X150758000Y-59100000I-400000J0D01*
G01*
X149158960Y-61998860D02*
X143957040Y-61998860D01*
X149557740Y-63500000D02*
G75*
G03X149557740Y-63500000I-2999740J0D01*
G01*
X149959060Y-63500000D02*
G75*
G03X149959060Y-63500000I-3401060J0D01*
G01*
D11*
G04 #@! TO.C,SW1*
X112825000Y-62178500D02*
X112825000Y-65861500D01*
X115902985Y-64020000D02*
G75*
G03X115902985Y-64020000I-1426985J0D01*
G01*
X110412000Y-61480000D02*
X110412000Y-66560000D01*
X110412000Y-66560000D02*
X118540000Y-66560000D01*
X118540000Y-66560000D02*
X118540000Y-61480000D01*
X118540000Y-61480000D02*
X110412000Y-61480000D01*
X116953314Y-64020000D02*
G75*
G03X116953314Y-64020000I-2477314J0D01*
G01*
G04 #@! TO.C,SW2*
X112825000Y-72338500D02*
X112825000Y-76021500D01*
X115902985Y-74180000D02*
G75*
G03X115902985Y-74180000I-1426985J0D01*
G01*
X110412000Y-71640000D02*
X110412000Y-76720000D01*
X110412000Y-76720000D02*
X118540000Y-76720000D01*
X118540000Y-76720000D02*
X118540000Y-71640000D01*
X118540000Y-71640000D02*
X110412000Y-71640000D01*
X116953314Y-74180000D02*
G75*
G03X116953314Y-74180000I-2477314J0D01*
G01*
G04 #@! TO.C,SW3*
X112825000Y-82498500D02*
X112825000Y-86181500D01*
X115902985Y-84340000D02*
G75*
G03X115902985Y-84340000I-1426985J0D01*
G01*
X110412000Y-81800000D02*
X110412000Y-86880000D01*
X110412000Y-86880000D02*
X118540000Y-86880000D01*
X118540000Y-86880000D02*
X118540000Y-81800000D01*
X118540000Y-81800000D02*
X110412000Y-81800000D01*
X116953314Y-84340000D02*
G75*
G03X116953314Y-84340000I-2477314J0D01*
G01*
G04 #@! TO.C,SW4*
X112825000Y-92658500D02*
X112825000Y-96341500D01*
X115902985Y-94500000D02*
G75*
G03X115902985Y-94500000I-1426985J0D01*
G01*
X110412000Y-91960000D02*
X110412000Y-97040000D01*
X110412000Y-97040000D02*
X118540000Y-97040000D01*
X118540000Y-97040000D02*
X118540000Y-91960000D01*
X118540000Y-91960000D02*
X110412000Y-91960000D01*
X116953314Y-94500000D02*
G75*
G03X116953314Y-94500000I-2477314J0D01*
G01*
G04 #@! TO.C,SW5*
X112825000Y-102818500D02*
X112825000Y-106501500D01*
X115902985Y-104660000D02*
G75*
G03X115902985Y-104660000I-1426985J0D01*
G01*
X110412000Y-102120000D02*
X110412000Y-107200000D01*
X110412000Y-107200000D02*
X118540000Y-107200000D01*
X118540000Y-107200000D02*
X118540000Y-102120000D01*
X118540000Y-102120000D02*
X110412000Y-102120000D01*
X116953314Y-104660000D02*
G75*
G03X116953314Y-104660000I-2477314J0D01*
G01*
G04 #@! TO.C,SW6*
X112825000Y-112978500D02*
X112825000Y-116661500D01*
X115902985Y-114820000D02*
G75*
G03X115902985Y-114820000I-1426985J0D01*
G01*
X110412000Y-112280000D02*
X110412000Y-117360000D01*
X110412000Y-117360000D02*
X118540000Y-117360000D01*
X118540000Y-117360000D02*
X118540000Y-112280000D01*
X118540000Y-112280000D02*
X110412000Y-112280000D01*
X116953314Y-114820000D02*
G75*
G03X116953314Y-114820000I-2477314J0D01*
G01*
G04 #@! TO.C,SW7*
X112825000Y-123138500D02*
X112825000Y-126821500D01*
X115902985Y-124980000D02*
G75*
G03X115902985Y-124980000I-1426985J0D01*
G01*
X110412000Y-122440000D02*
X110412000Y-127520000D01*
X110412000Y-127520000D02*
X118540000Y-127520000D01*
X118540000Y-127520000D02*
X118540000Y-122440000D01*
X118540000Y-122440000D02*
X110412000Y-122440000D01*
X116953314Y-124980000D02*
G75*
G03X116953314Y-124980000I-2477314J0D01*
G01*
G04 #@! TO.C,SW8*
X112825000Y-133298500D02*
X112825000Y-136981500D01*
X115902985Y-135140000D02*
G75*
G03X115902985Y-135140000I-1426985J0D01*
G01*
X110412000Y-132600000D02*
X110412000Y-137680000D01*
X110412000Y-137680000D02*
X118540000Y-137680000D01*
X118540000Y-137680000D02*
X118540000Y-132600000D01*
X118540000Y-132600000D02*
X110412000Y-132600000D01*
X116953314Y-135140000D02*
G75*
G03X116953314Y-135140000I-2477314J0D01*
G01*
G04 #@! TO.C,SW10*
X85139000Y-62178500D02*
X85139000Y-65861500D01*
X88216985Y-64020000D02*
G75*
G03X88216985Y-64020000I-1426985J0D01*
G01*
X82726000Y-61480000D02*
X82726000Y-66560000D01*
X82726000Y-66560000D02*
X90854000Y-66560000D01*
X90854000Y-66560000D02*
X90854000Y-61480000D01*
X90854000Y-61480000D02*
X82726000Y-61480000D01*
X89267314Y-64020000D02*
G75*
G03X89267314Y-64020000I-2477314J0D01*
G01*
G04 #@! TO.C,SW11*
X85139000Y-72338500D02*
X85139000Y-76021500D01*
X88216985Y-74180000D02*
G75*
G03X88216985Y-74180000I-1426985J0D01*
G01*
X82726000Y-71640000D02*
X82726000Y-76720000D01*
X82726000Y-76720000D02*
X90854000Y-76720000D01*
X90854000Y-76720000D02*
X90854000Y-71640000D01*
X90854000Y-71640000D02*
X82726000Y-71640000D01*
X89267314Y-74180000D02*
G75*
G03X89267314Y-74180000I-2477314J0D01*
G01*
G04 #@! TO.C,SW12*
X85139000Y-82498500D02*
X85139000Y-86181500D01*
X88216985Y-84340000D02*
G75*
G03X88216985Y-84340000I-1426985J0D01*
G01*
X82726000Y-81800000D02*
X82726000Y-86880000D01*
X82726000Y-86880000D02*
X90854000Y-86880000D01*
X90854000Y-86880000D02*
X90854000Y-81800000D01*
X90854000Y-81800000D02*
X82726000Y-81800000D01*
X89267314Y-84340000D02*
G75*
G03X89267314Y-84340000I-2477314J0D01*
G01*
G04 #@! TO.C,SW13*
X85139000Y-92658500D02*
X85139000Y-96341500D01*
X88216985Y-94500000D02*
G75*
G03X88216985Y-94500000I-1426985J0D01*
G01*
X82726000Y-91960000D02*
X82726000Y-97040000D01*
X82726000Y-97040000D02*
X90854000Y-97040000D01*
X90854000Y-97040000D02*
X90854000Y-91960000D01*
X90854000Y-91960000D02*
X82726000Y-91960000D01*
X89267314Y-94500000D02*
G75*
G03X89267314Y-94500000I-2477314J0D01*
G01*
G04 #@! TO.C,SW14*
X85139000Y-102818500D02*
X85139000Y-106501500D01*
X88216985Y-104660000D02*
G75*
G03X88216985Y-104660000I-1426985J0D01*
G01*
X82726000Y-102120000D02*
X82726000Y-107200000D01*
X82726000Y-107200000D02*
X90854000Y-107200000D01*
X90854000Y-107200000D02*
X90854000Y-102120000D01*
X90854000Y-102120000D02*
X82726000Y-102120000D01*
X89267314Y-104660000D02*
G75*
G03X89267314Y-104660000I-2477314J0D01*
G01*
G04 #@! TO.C,SW15*
X85139000Y-112978500D02*
X85139000Y-116661500D01*
X88216985Y-114820000D02*
G75*
G03X88216985Y-114820000I-1426985J0D01*
G01*
X82726000Y-112280000D02*
X82726000Y-117360000D01*
X82726000Y-117360000D02*
X90854000Y-117360000D01*
X90854000Y-117360000D02*
X90854000Y-112280000D01*
X90854000Y-112280000D02*
X82726000Y-112280000D01*
X89267314Y-114820000D02*
G75*
G03X89267314Y-114820000I-2477314J0D01*
G01*
G04 #@! TO.C,SW16*
X85140800Y-123126500D02*
X85140800Y-126809500D01*
X88218785Y-124968000D02*
G75*
G03X88218785Y-124968000I-1426985J0D01*
G01*
X82727800Y-122428000D02*
X82727800Y-127508000D01*
X82727800Y-127508000D02*
X90855800Y-127508000D01*
X90855800Y-127508000D02*
X90855800Y-122428000D01*
X90855800Y-122428000D02*
X82727800Y-122428000D01*
X89269114Y-124968000D02*
G75*
G03X89269114Y-124968000I-2477314J0D01*
G01*
G04 #@! TO.C,SW17*
X85139000Y-133298500D02*
X85139000Y-136981500D01*
X88216985Y-135140000D02*
G75*
G03X88216985Y-135140000I-1426985J0D01*
G01*
X82726000Y-132600000D02*
X82726000Y-137680000D01*
X82726000Y-137680000D02*
X90854000Y-137680000D01*
X90854000Y-137680000D02*
X90854000Y-132600000D01*
X90854000Y-132600000D02*
X82726000Y-132600000D01*
X89267314Y-135140000D02*
G75*
G03X89267314Y-135140000I-2477314J0D01*
G01*
G04 #@! TO.C,J7*
X133930000Y-154868000D02*
X133930000Y-145868000D01*
X133930000Y-145868000D02*
X144430000Y-145868000D01*
X144430000Y-145868000D02*
X144430000Y-154868000D01*
X144430000Y-154868000D02*
X133930000Y-154868000D01*
G04 #@! TO.C,SW9*
X125730000Y-83312000D02*
X134874000Y-83312000D01*
X134874000Y-83312000D02*
X134874000Y-75184000D01*
X134874000Y-75184000D02*
X125730000Y-75184000D01*
X125730000Y-75184000D02*
X125730000Y-83312000D01*
X128460500Y-80899000D02*
X132143500Y-80899000D01*
X131728985Y-79248000D02*
G75*
G03X131728985Y-79248000I-1426985J0D01*
G01*
X132779314Y-79248000D02*
G75*
G03X132779314Y-79248000I-2477314J0D01*
G01*
G04 #@! TO.C,SW18*
X128460500Y-110871000D02*
X132143500Y-110871000D01*
X131728985Y-109220000D02*
G75*
G03X131728985Y-109220000I-1426985J0D01*
G01*
X127762000Y-113284000D02*
X132842000Y-113284000D01*
X132842000Y-113284000D02*
X132842000Y-105156000D01*
X132842000Y-105156000D02*
X127762000Y-105156000D01*
X127762000Y-105156000D02*
X127762000Y-113284000D01*
X132779314Y-109220000D02*
G75*
G03X132779314Y-109220000I-2477314J0D01*
G01*
G04 #@! TO.C,SW19*
X132143500Y-121285000D02*
X128460500Y-121285000D01*
X131728985Y-122936000D02*
G75*
G03X131728985Y-122936000I-1426985J0D01*
G01*
X132842000Y-118872000D02*
X127762000Y-118872000D01*
X127762000Y-118872000D02*
X127762000Y-127000000D01*
X127762000Y-127000000D02*
X132842000Y-127000000D01*
X132842000Y-127000000D02*
X132842000Y-118872000D01*
X132779314Y-122936000D02*
G75*
G03X132779314Y-122936000I-2477314J0D01*
G01*
G04 #@! TO.C,SW20*
X132902000Y-142052000D02*
G75*
G02X124902000Y-139252000I-2600000J5400000D01*
G01*
X124909236Y-134021773D02*
G75*
G02X130302000Y-130652000I5392764J-2630227D01*
G01*
X130302000Y-130652000D02*
G75*
G02X136302000Y-136652000I0J-6000000D01*
G01*
X136302000Y-136652000D02*
G75*
G02X130302000Y-142652000I-6000000J0D01*
G01*
X124902000Y-139252000D02*
X124902000Y-134052000D01*
X134802000Y-136652000D02*
G75*
G03X134802000Y-136652000I-4500000J0D01*
G01*
G04 #@! TO.C,D3*
X103333111Y-62906747D02*
G75*
G02X105381000Y-62926000I1013889J-1079253D01*
G01*
X102859780Y-62679274D02*
G75*
G02X106097000Y-63026000I1497220J-1306726D01*
G01*
X105399006Y-65119068D02*
G75*
G02X103296000Y-65120000I-1052006J1133068D01*
G01*
X106074744Y-64989643D02*
G75*
G02X102847000Y-65306000I-1727744J1003643D01*
G01*
X102847000Y-65300000D02*
X102847000Y-65120000D01*
X102847000Y-62706000D02*
X102847000Y-62906000D01*
G04 #@! TO.C,D4*
X102847000Y-72866000D02*
X102847000Y-73066000D01*
X102847000Y-75460000D02*
X102847000Y-75280000D01*
X106074744Y-75149643D02*
G75*
G02X102847000Y-75466000I-1727744J1003643D01*
G01*
X105399006Y-75279068D02*
G75*
G02X103296000Y-75280000I-1052006J1133068D01*
G01*
X102859780Y-72839274D02*
G75*
G02X106097000Y-73186000I1497220J-1306726D01*
G01*
X103333111Y-73066747D02*
G75*
G02X105381000Y-73086000I1013889J-1079253D01*
G01*
G04 #@! TO.C,D5*
X103333111Y-83226747D02*
G75*
G02X105381000Y-83246000I1013889J-1079253D01*
G01*
X102859780Y-82999274D02*
G75*
G02X106097000Y-83346000I1497220J-1306726D01*
G01*
X105399006Y-85439068D02*
G75*
G02X103296000Y-85440000I-1052006J1133068D01*
G01*
X106074744Y-85309643D02*
G75*
G02X102847000Y-85626000I-1727744J1003643D01*
G01*
X102847000Y-85620000D02*
X102847000Y-85440000D01*
X102847000Y-83026000D02*
X102847000Y-83226000D01*
G04 #@! TO.C,D6*
X102847000Y-93186000D02*
X102847000Y-93386000D01*
X102847000Y-95780000D02*
X102847000Y-95600000D01*
X106074744Y-95469643D02*
G75*
G02X102847000Y-95786000I-1727744J1003643D01*
G01*
X105399006Y-95599068D02*
G75*
G02X103296000Y-95600000I-1052006J1133068D01*
G01*
X102859780Y-93159274D02*
G75*
G02X106097000Y-93506000I1497220J-1306726D01*
G01*
X103333111Y-93386747D02*
G75*
G02X105381000Y-93406000I1013889J-1079253D01*
G01*
G04 #@! TO.C,D7*
X103333111Y-103546747D02*
G75*
G02X105381000Y-103566000I1013889J-1079253D01*
G01*
X102859780Y-103319274D02*
G75*
G02X106097000Y-103666000I1497220J-1306726D01*
G01*
X105399006Y-105759068D02*
G75*
G02X103296000Y-105760000I-1052006J1133068D01*
G01*
X106074744Y-105629643D02*
G75*
G02X102847000Y-105946000I-1727744J1003643D01*
G01*
X102847000Y-105940000D02*
X102847000Y-105760000D01*
X102847000Y-103346000D02*
X102847000Y-103546000D01*
G04 #@! TO.C,D8*
X102847000Y-113506000D02*
X102847000Y-113706000D01*
X102847000Y-116100000D02*
X102847000Y-115920000D01*
X106074744Y-115789643D02*
G75*
G02X102847000Y-116106000I-1727744J1003643D01*
G01*
X105399006Y-115919068D02*
G75*
G02X103296000Y-115920000I-1052006J1133068D01*
G01*
X102859780Y-113479274D02*
G75*
G02X106097000Y-113826000I1497220J-1306726D01*
G01*
X103333111Y-113706747D02*
G75*
G02X105381000Y-113726000I1013889J-1079253D01*
G01*
G04 #@! TO.C,D9*
X103333111Y-123866747D02*
G75*
G02X105381000Y-123886000I1013889J-1079253D01*
G01*
X102859780Y-123639274D02*
G75*
G02X106097000Y-123986000I1497220J-1306726D01*
G01*
X105399006Y-126079068D02*
G75*
G02X103296000Y-126080000I-1052006J1133068D01*
G01*
X106074744Y-125949643D02*
G75*
G02X102847000Y-126266000I-1727744J1003643D01*
G01*
X102847000Y-126260000D02*
X102847000Y-126080000D01*
X102847000Y-123666000D02*
X102847000Y-123866000D01*
G04 #@! TO.C,D10*
X102847000Y-133826000D02*
X102847000Y-134026000D01*
X102847000Y-136420000D02*
X102847000Y-136240000D01*
X106074744Y-136109643D02*
G75*
G02X102847000Y-136426000I-1727744J1003643D01*
G01*
X105399006Y-136239068D02*
G75*
G02X103296000Y-136240000I-1052006J1133068D01*
G01*
X102859780Y-133799274D02*
G75*
G02X106097000Y-134146000I1497220J-1306726D01*
G01*
X103333111Y-134026747D02*
G75*
G02X105381000Y-134046000I1013889J-1079253D01*
G01*
G04 #@! TO.C,D19*
X75647111Y-62906747D02*
G75*
G02X77695000Y-62926000I1013889J-1079253D01*
G01*
X75173780Y-62679274D02*
G75*
G02X78411000Y-63026000I1497220J-1306726D01*
G01*
X77713006Y-65119068D02*
G75*
G02X75610000Y-65120000I-1052006J1133068D01*
G01*
X78388744Y-64989643D02*
G75*
G02X75161000Y-65306000I-1727744J1003643D01*
G01*
X75161000Y-65300000D02*
X75161000Y-65120000D01*
X75161000Y-62706000D02*
X75161000Y-62906000D01*
G04 #@! TO.C,D20*
X75161000Y-72866000D02*
X75161000Y-73066000D01*
X75161000Y-75460000D02*
X75161000Y-75280000D01*
X78388744Y-75149643D02*
G75*
G02X75161000Y-75466000I-1727744J1003643D01*
G01*
X77713006Y-75279068D02*
G75*
G02X75610000Y-75280000I-1052006J1133068D01*
G01*
X75173780Y-72839274D02*
G75*
G02X78411000Y-73186000I1497220J-1306726D01*
G01*
X75647111Y-73066747D02*
G75*
G02X77695000Y-73086000I1013889J-1079253D01*
G01*
G04 #@! TO.C,D21*
X75647111Y-83226747D02*
G75*
G02X77695000Y-83246000I1013889J-1079253D01*
G01*
X75173780Y-82999274D02*
G75*
G02X78411000Y-83346000I1497220J-1306726D01*
G01*
X77713006Y-85439068D02*
G75*
G02X75610000Y-85440000I-1052006J1133068D01*
G01*
X78388744Y-85309643D02*
G75*
G02X75161000Y-85626000I-1727744J1003643D01*
G01*
X75161000Y-85620000D02*
X75161000Y-85440000D01*
X75161000Y-83026000D02*
X75161000Y-83226000D01*
G04 #@! TO.C,D22*
X75161000Y-93186000D02*
X75161000Y-93386000D01*
X75161000Y-95780000D02*
X75161000Y-95600000D01*
X78388744Y-95469643D02*
G75*
G02X75161000Y-95786000I-1727744J1003643D01*
G01*
X77713006Y-95599068D02*
G75*
G02X75610000Y-95600000I-1052006J1133068D01*
G01*
X75173780Y-93159274D02*
G75*
G02X78411000Y-93506000I1497220J-1306726D01*
G01*
X75647111Y-93386747D02*
G75*
G02X77695000Y-93406000I1013889J-1079253D01*
G01*
G04 #@! TO.C,D23*
X75112000Y-103334000D02*
X75112000Y-103534000D01*
X75112000Y-105928000D02*
X75112000Y-105748000D01*
X78339744Y-105617643D02*
G75*
G02X75112000Y-105934000I-1727744J1003643D01*
G01*
X77664006Y-105747068D02*
G75*
G02X75561000Y-105748000I-1052006J1133068D01*
G01*
X75124780Y-103307274D02*
G75*
G02X78362000Y-103654000I1497220J-1306726D01*
G01*
X75598111Y-103534747D02*
G75*
G02X77646000Y-103554000I1013889J-1079253D01*
G01*
G04 #@! TO.C,D24*
X75647111Y-113706747D02*
G75*
G02X77695000Y-113726000I1013889J-1079253D01*
G01*
X75173780Y-113479274D02*
G75*
G02X78411000Y-113826000I1497220J-1306726D01*
G01*
X77713006Y-115919068D02*
G75*
G02X75610000Y-115920000I-1052006J1133068D01*
G01*
X78388744Y-115789643D02*
G75*
G02X75161000Y-116106000I-1727744J1003643D01*
G01*
X75161000Y-116100000D02*
X75161000Y-115920000D01*
X75161000Y-113506000D02*
X75161000Y-113706000D01*
G04 #@! TO.C,D25*
X75162800Y-123666000D02*
X75162800Y-123866000D01*
X75162800Y-126260000D02*
X75162800Y-126080000D01*
X78390544Y-125949643D02*
G75*
G02X75162800Y-126266000I-1727744J1003643D01*
G01*
X77714806Y-126079068D02*
G75*
G02X75611800Y-126080000I-1052006J1133068D01*
G01*
X75175580Y-123639274D02*
G75*
G02X78412800Y-123986000I1497220J-1306726D01*
G01*
X75648911Y-123866747D02*
G75*
G02X77696800Y-123886000I1013889J-1079253D01*
G01*
G04 #@! TO.C,D26*
X75647111Y-134026747D02*
G75*
G02X77695000Y-134046000I1013889J-1079253D01*
G01*
X75173780Y-133799274D02*
G75*
G02X78411000Y-134146000I1497220J-1306726D01*
G01*
X77713006Y-136239068D02*
G75*
G02X75610000Y-136240000I-1052006J1133068D01*
G01*
X78388744Y-136109643D02*
G75*
G02X75161000Y-136426000I-1727744J1003643D01*
G01*
X75161000Y-136420000D02*
X75161000Y-136240000D01*
X75161000Y-133826000D02*
X75161000Y-134026000D01*
G04 #@! TO.C,SW21*
X150518761Y-77311476D02*
X150566380Y-77454333D01*
X150566380Y-77692428D01*
X150518761Y-77787666D01*
X150471142Y-77835285D01*
X150375904Y-77882904D01*
X150280666Y-77882904D01*
X150185428Y-77835285D01*
X150137809Y-77787666D01*
X150090190Y-77692428D01*
X150042571Y-77501952D01*
X149994952Y-77406714D01*
X149947333Y-77359095D01*
X149852095Y-77311476D01*
X149756857Y-77311476D01*
X149661619Y-77359095D01*
X149614000Y-77406714D01*
X149566380Y-77501952D01*
X149566380Y-77740047D01*
X149614000Y-77882904D01*
X149566380Y-78216238D02*
X150566380Y-78454333D01*
X149852095Y-78644809D01*
X150566380Y-78835285D01*
X149566380Y-79073380D01*
X149661619Y-79406714D02*
X149614000Y-79454333D01*
X149566380Y-79549571D01*
X149566380Y-79787666D01*
X149614000Y-79882904D01*
X149661619Y-79930523D01*
X149756857Y-79978142D01*
X149852095Y-79978142D01*
X149994952Y-79930523D01*
X150566380Y-79359095D01*
X150566380Y-79978142D01*
X150566380Y-80930523D02*
X150566380Y-80359095D01*
X150566380Y-80644809D02*
X149566380Y-80644809D01*
X149709238Y-80549571D01*
X149804476Y-80454333D01*
X149852095Y-80359095D01*
X143406761Y-76406761D02*
X143454380Y-76549619D01*
X143454380Y-76787714D01*
X143406761Y-76882952D01*
X143359142Y-76930571D01*
X143263904Y-76978190D01*
X143168666Y-76978190D01*
X143073428Y-76930571D01*
X143025809Y-76882952D01*
X142978190Y-76787714D01*
X142930571Y-76597238D01*
X142882952Y-76502000D01*
X142835333Y-76454380D01*
X142740095Y-76406761D01*
X142644857Y-76406761D01*
X142549619Y-76454380D01*
X142502000Y-76502000D01*
X142454380Y-76597238D01*
X142454380Y-76835333D01*
X142502000Y-76978190D01*
X142454380Y-77311523D02*
X143454380Y-77549619D01*
X142740095Y-77740095D01*
X143454380Y-77930571D01*
X142454380Y-78168666D01*
X143549619Y-78311523D02*
X143549619Y-79073428D01*
X143406761Y-79263904D02*
X143454380Y-79406761D01*
X143454380Y-79644857D01*
X143406761Y-79740095D01*
X143359142Y-79787714D01*
X143263904Y-79835333D01*
X143168666Y-79835333D01*
X143073428Y-79787714D01*
X143025809Y-79740095D01*
X142978190Y-79644857D01*
X142930571Y-79454380D01*
X142882952Y-79359142D01*
X142835333Y-79311523D01*
X142740095Y-79263904D01*
X142644857Y-79263904D01*
X142549619Y-79311523D01*
X142502000Y-79359142D01*
X142454380Y-79454380D01*
X142454380Y-79692476D01*
X142502000Y-79835333D01*
X143454380Y-80263904D02*
X142454380Y-80263904D01*
X142454380Y-80644857D01*
X142502000Y-80740095D01*
X142549619Y-80787714D01*
X142644857Y-80835333D01*
X142787714Y-80835333D01*
X142882952Y-80787714D01*
X142930571Y-80740095D01*
X142978190Y-80644857D01*
X142978190Y-80263904D01*
X143454380Y-81263904D02*
X142454380Y-81263904D01*
X142454380Y-81502000D01*
X142502000Y-81644857D01*
X142597238Y-81740095D01*
X142692476Y-81787714D01*
X142882952Y-81835333D01*
X143025809Y-81835333D01*
X143216285Y-81787714D01*
X143311523Y-81740095D01*
X143406761Y-81644857D01*
X143454380Y-81502000D01*
X143454380Y-81263904D01*
X142454380Y-82121047D02*
X142454380Y-82692476D01*
X143454380Y-82406761D02*
X142454380Y-82406761D01*
G04 #@! TO.C,J1*
X109172333Y-146518380D02*
X109172333Y-147232666D01*
X109219952Y-147375523D01*
X109315190Y-147470761D01*
X109458047Y-147518380D01*
X109553285Y-147518380D01*
X108172333Y-147518380D02*
X108743761Y-147518380D01*
X108458047Y-147518380D02*
X108458047Y-146518380D01*
X108553285Y-146661238D01*
X108648523Y-146756476D01*
X108743761Y-146804095D01*
X115903190Y-155408380D02*
X115712714Y-155408380D01*
X115617476Y-155456000D01*
X115522238Y-155551238D01*
X115474619Y-155741714D01*
X115474619Y-156075047D01*
X115522238Y-156265523D01*
X115617476Y-156360761D01*
X115712714Y-156408380D01*
X115903190Y-156408380D01*
X115998428Y-156360761D01*
X116093666Y-156265523D01*
X116141285Y-156075047D01*
X116141285Y-155741714D01*
X116093666Y-155551238D01*
X115998428Y-155456000D01*
X115903190Y-155408380D01*
X115046047Y-155408380D02*
X115046047Y-156217904D01*
X114998428Y-156313142D01*
X114950809Y-156360761D01*
X114855571Y-156408380D01*
X114665095Y-156408380D01*
X114569857Y-156360761D01*
X114522238Y-156313142D01*
X114474619Y-156217904D01*
X114474619Y-155408380D01*
X114141285Y-155408380D02*
X113569857Y-155408380D01*
X113855571Y-156408380D02*
X113855571Y-155408380D01*
X112712714Y-156408380D02*
X113284142Y-156408380D01*
X112998428Y-156408380D02*
X112998428Y-155408380D01*
X113093666Y-155551238D01*
X113188904Y-155646476D01*
X113284142Y-155694095D01*
G04 #@! TO.C,J2*
X81359333Y-146010380D02*
X81359333Y-146724666D01*
X81406952Y-146867523D01*
X81502190Y-146962761D01*
X81645047Y-147010380D01*
X81740285Y-147010380D01*
X80930761Y-146105619D02*
X80883142Y-146058000D01*
X80787904Y-146010380D01*
X80549809Y-146010380D01*
X80454571Y-146058000D01*
X80406952Y-146105619D01*
X80359333Y-146200857D01*
X80359333Y-146296095D01*
X80406952Y-146438952D01*
X80978380Y-147010380D01*
X80359333Y-147010380D01*
X88266190Y-155420380D02*
X88075714Y-155420380D01*
X87980476Y-155468000D01*
X87885238Y-155563238D01*
X87837619Y-155753714D01*
X87837619Y-156087047D01*
X87885238Y-156277523D01*
X87980476Y-156372761D01*
X88075714Y-156420380D01*
X88266190Y-156420380D01*
X88361428Y-156372761D01*
X88456666Y-156277523D01*
X88504285Y-156087047D01*
X88504285Y-155753714D01*
X88456666Y-155563238D01*
X88361428Y-155468000D01*
X88266190Y-155420380D01*
X87409047Y-155420380D02*
X87409047Y-156229904D01*
X87361428Y-156325142D01*
X87313809Y-156372761D01*
X87218571Y-156420380D01*
X87028095Y-156420380D01*
X86932857Y-156372761D01*
X86885238Y-156325142D01*
X86837619Y-156229904D01*
X86837619Y-155420380D01*
X86504285Y-155420380D02*
X85932857Y-155420380D01*
X86218571Y-156420380D02*
X86218571Y-155420380D01*
X85647142Y-155515619D02*
X85599523Y-155468000D01*
X85504285Y-155420380D01*
X85266190Y-155420380D01*
X85170952Y-155468000D01*
X85123333Y-155515619D01*
X85075714Y-155610857D01*
X85075714Y-155706095D01*
X85123333Y-155848952D01*
X85694761Y-156420380D01*
X85075714Y-156420380D01*
G04 #@! TO.C,RV1*
X130721238Y-73084380D02*
X131054571Y-72608190D01*
X131292666Y-73084380D02*
X131292666Y-72084380D01*
X130911714Y-72084380D01*
X130816476Y-72132000D01*
X130768857Y-72179619D01*
X130721238Y-72274857D01*
X130721238Y-72417714D01*
X130768857Y-72512952D01*
X130816476Y-72560571D01*
X130911714Y-72608190D01*
X131292666Y-72608190D01*
X130435523Y-72084380D02*
X130102190Y-73084380D01*
X129768857Y-72084380D01*
X128911714Y-73084380D02*
X129483142Y-73084380D01*
X129197428Y-73084380D02*
X129197428Y-72084380D01*
X129292666Y-72227238D01*
X129387904Y-72322476D01*
X129483142Y-72370095D01*
X131254380Y-63952380D02*
X131587714Y-63476190D01*
X131825809Y-63952380D02*
X131825809Y-62952380D01*
X131444857Y-62952380D01*
X131349619Y-63000000D01*
X131302000Y-63047619D01*
X131254380Y-63142857D01*
X131254380Y-63285714D01*
X131302000Y-63380952D01*
X131349619Y-63428571D01*
X131444857Y-63476190D01*
X131825809Y-63476190D01*
X130873428Y-63666666D02*
X130397238Y-63666666D01*
X130968666Y-63952380D02*
X130635333Y-62952380D01*
X130302000Y-63952380D01*
X130111523Y-62952380D02*
X129540095Y-62952380D01*
X129825809Y-63952380D02*
X129825809Y-62952380D01*
X129206761Y-63428571D02*
X128873428Y-63428571D01*
X128730571Y-63952380D02*
X129206761Y-63952380D01*
X129206761Y-62952380D01*
X128730571Y-62952380D01*
G04 #@! TO.C,RV2*
X147231238Y-73592380D02*
X147564571Y-73116190D01*
X147802666Y-73592380D02*
X147802666Y-72592380D01*
X147421714Y-72592380D01*
X147326476Y-72640000D01*
X147278857Y-72687619D01*
X147231238Y-72782857D01*
X147231238Y-72925714D01*
X147278857Y-73020952D01*
X147326476Y-73068571D01*
X147421714Y-73116190D01*
X147802666Y-73116190D01*
X146945523Y-72592380D02*
X146612190Y-73592380D01*
X146278857Y-72592380D01*
X145993142Y-72687619D02*
X145945523Y-72640000D01*
X145850285Y-72592380D01*
X145612190Y-72592380D01*
X145516952Y-72640000D01*
X145469333Y-72687619D01*
X145421714Y-72782857D01*
X145421714Y-72878095D01*
X145469333Y-73020952D01*
X146040761Y-73592380D01*
X145421714Y-73592380D01*
X148707428Y-63194380D02*
X148469333Y-64194380D01*
X148278857Y-63480095D01*
X148088380Y-64194380D01*
X147850285Y-63194380D01*
X147469333Y-64194380D02*
X147469333Y-63194380D01*
X146993142Y-64194380D02*
X146993142Y-63194380D01*
X146755047Y-63194380D01*
X146612190Y-63242000D01*
X146516952Y-63337238D01*
X146469333Y-63432476D01*
X146421714Y-63622952D01*
X146421714Y-63765809D01*
X146469333Y-63956285D01*
X146516952Y-64051523D01*
X146612190Y-64146761D01*
X146755047Y-64194380D01*
X146993142Y-64194380D01*
X146136000Y-63194380D02*
X145564571Y-63194380D01*
X145850285Y-64194380D02*
X145850285Y-63194380D01*
X145231238Y-64194380D02*
X145231238Y-63194380D01*
X145231238Y-63670571D02*
X144659809Y-63670571D01*
X144659809Y-64194380D02*
X144659809Y-63194380D01*
G04 #@! TO.C,SW1*
X119911761Y-62674666D02*
X119959380Y-62817523D01*
X119959380Y-63055619D01*
X119911761Y-63150857D01*
X119864142Y-63198476D01*
X119768904Y-63246095D01*
X119673666Y-63246095D01*
X119578428Y-63198476D01*
X119530809Y-63150857D01*
X119483190Y-63055619D01*
X119435571Y-62865142D01*
X119387952Y-62769904D01*
X119340333Y-62722285D01*
X119245095Y-62674666D01*
X119149857Y-62674666D01*
X119054619Y-62722285D01*
X119007000Y-62769904D01*
X118959380Y-62865142D01*
X118959380Y-63103238D01*
X119007000Y-63246095D01*
X118959380Y-63579428D02*
X119959380Y-63817523D01*
X119245095Y-64008000D01*
X119959380Y-64198476D01*
X118959380Y-64436571D01*
X119959380Y-65341333D02*
X119959380Y-64769904D01*
X119959380Y-65055619D02*
X118959380Y-65055619D01*
X119102238Y-64960380D01*
X119197476Y-64865142D01*
X119245095Y-64769904D01*
G04 #@! TO.C,SW2*
X120038761Y-72961666D02*
X120086380Y-73104523D01*
X120086380Y-73342619D01*
X120038761Y-73437857D01*
X119991142Y-73485476D01*
X119895904Y-73533095D01*
X119800666Y-73533095D01*
X119705428Y-73485476D01*
X119657809Y-73437857D01*
X119610190Y-73342619D01*
X119562571Y-73152142D01*
X119514952Y-73056904D01*
X119467333Y-73009285D01*
X119372095Y-72961666D01*
X119276857Y-72961666D01*
X119181619Y-73009285D01*
X119134000Y-73056904D01*
X119086380Y-73152142D01*
X119086380Y-73390238D01*
X119134000Y-73533095D01*
X119086380Y-73866428D02*
X120086380Y-74104523D01*
X119372095Y-74295000D01*
X120086380Y-74485476D01*
X119086380Y-74723571D01*
X119181619Y-75056904D02*
X119134000Y-75104523D01*
X119086380Y-75199761D01*
X119086380Y-75437857D01*
X119134000Y-75533095D01*
X119181619Y-75580714D01*
X119276857Y-75628333D01*
X119372095Y-75628333D01*
X119514952Y-75580714D01*
X120086380Y-75009285D01*
X120086380Y-75628333D01*
G04 #@! TO.C,SW3*
X120038761Y-82994666D02*
X120086380Y-83137523D01*
X120086380Y-83375619D01*
X120038761Y-83470857D01*
X119991142Y-83518476D01*
X119895904Y-83566095D01*
X119800666Y-83566095D01*
X119705428Y-83518476D01*
X119657809Y-83470857D01*
X119610190Y-83375619D01*
X119562571Y-83185142D01*
X119514952Y-83089904D01*
X119467333Y-83042285D01*
X119372095Y-82994666D01*
X119276857Y-82994666D01*
X119181619Y-83042285D01*
X119134000Y-83089904D01*
X119086380Y-83185142D01*
X119086380Y-83423238D01*
X119134000Y-83566095D01*
X119086380Y-83899428D02*
X120086380Y-84137523D01*
X119372095Y-84328000D01*
X120086380Y-84518476D01*
X119086380Y-84756571D01*
X119086380Y-85042285D02*
X119086380Y-85661333D01*
X119467333Y-85328000D01*
X119467333Y-85470857D01*
X119514952Y-85566095D01*
X119562571Y-85613714D01*
X119657809Y-85661333D01*
X119895904Y-85661333D01*
X119991142Y-85613714D01*
X120038761Y-85566095D01*
X120086380Y-85470857D01*
X120086380Y-85185142D01*
X120038761Y-85089904D01*
X119991142Y-85042285D01*
G04 #@! TO.C,SW4*
X120038761Y-93281666D02*
X120086380Y-93424523D01*
X120086380Y-93662619D01*
X120038761Y-93757857D01*
X119991142Y-93805476D01*
X119895904Y-93853095D01*
X119800666Y-93853095D01*
X119705428Y-93805476D01*
X119657809Y-93757857D01*
X119610190Y-93662619D01*
X119562571Y-93472142D01*
X119514952Y-93376904D01*
X119467333Y-93329285D01*
X119372095Y-93281666D01*
X119276857Y-93281666D01*
X119181619Y-93329285D01*
X119134000Y-93376904D01*
X119086380Y-93472142D01*
X119086380Y-93710238D01*
X119134000Y-93853095D01*
X119086380Y-94186428D02*
X120086380Y-94424523D01*
X119372095Y-94615000D01*
X120086380Y-94805476D01*
X119086380Y-95043571D01*
X119419714Y-95853095D02*
X120086380Y-95853095D01*
X119038761Y-95615000D02*
X119753047Y-95376904D01*
X119753047Y-95995952D01*
G04 #@! TO.C,SW5*
X120038761Y-103441666D02*
X120086380Y-103584523D01*
X120086380Y-103822619D01*
X120038761Y-103917857D01*
X119991142Y-103965476D01*
X119895904Y-104013095D01*
X119800666Y-104013095D01*
X119705428Y-103965476D01*
X119657809Y-103917857D01*
X119610190Y-103822619D01*
X119562571Y-103632142D01*
X119514952Y-103536904D01*
X119467333Y-103489285D01*
X119372095Y-103441666D01*
X119276857Y-103441666D01*
X119181619Y-103489285D01*
X119134000Y-103536904D01*
X119086380Y-103632142D01*
X119086380Y-103870238D01*
X119134000Y-104013095D01*
X119086380Y-104346428D02*
X120086380Y-104584523D01*
X119372095Y-104775000D01*
X120086380Y-104965476D01*
X119086380Y-105203571D01*
X119086380Y-106060714D02*
X119086380Y-105584523D01*
X119562571Y-105536904D01*
X119514952Y-105584523D01*
X119467333Y-105679761D01*
X119467333Y-105917857D01*
X119514952Y-106013095D01*
X119562571Y-106060714D01*
X119657809Y-106108333D01*
X119895904Y-106108333D01*
X119991142Y-106060714D01*
X120038761Y-106013095D01*
X120086380Y-105917857D01*
X120086380Y-105679761D01*
X120038761Y-105584523D01*
X119991142Y-105536904D01*
G04 #@! TO.C,SW6*
X120038761Y-113474666D02*
X120086380Y-113617523D01*
X120086380Y-113855619D01*
X120038761Y-113950857D01*
X119991142Y-113998476D01*
X119895904Y-114046095D01*
X119800666Y-114046095D01*
X119705428Y-113998476D01*
X119657809Y-113950857D01*
X119610190Y-113855619D01*
X119562571Y-113665142D01*
X119514952Y-113569904D01*
X119467333Y-113522285D01*
X119372095Y-113474666D01*
X119276857Y-113474666D01*
X119181619Y-113522285D01*
X119134000Y-113569904D01*
X119086380Y-113665142D01*
X119086380Y-113903238D01*
X119134000Y-114046095D01*
X119086380Y-114379428D02*
X120086380Y-114617523D01*
X119372095Y-114808000D01*
X120086380Y-114998476D01*
X119086380Y-115236571D01*
X119086380Y-116046095D02*
X119086380Y-115855619D01*
X119134000Y-115760380D01*
X119181619Y-115712761D01*
X119324476Y-115617523D01*
X119514952Y-115569904D01*
X119895904Y-115569904D01*
X119991142Y-115617523D01*
X120038761Y-115665142D01*
X120086380Y-115760380D01*
X120086380Y-115950857D01*
X120038761Y-116046095D01*
X119991142Y-116093714D01*
X119895904Y-116141333D01*
X119657809Y-116141333D01*
X119562571Y-116093714D01*
X119514952Y-116046095D01*
X119467333Y-115950857D01*
X119467333Y-115760380D01*
X119514952Y-115665142D01*
X119562571Y-115617523D01*
X119657809Y-115569904D01*
G04 #@! TO.C,SW7*
X120165761Y-123507666D02*
X120213380Y-123650523D01*
X120213380Y-123888619D01*
X120165761Y-123983857D01*
X120118142Y-124031476D01*
X120022904Y-124079095D01*
X119927666Y-124079095D01*
X119832428Y-124031476D01*
X119784809Y-123983857D01*
X119737190Y-123888619D01*
X119689571Y-123698142D01*
X119641952Y-123602904D01*
X119594333Y-123555285D01*
X119499095Y-123507666D01*
X119403857Y-123507666D01*
X119308619Y-123555285D01*
X119261000Y-123602904D01*
X119213380Y-123698142D01*
X119213380Y-123936238D01*
X119261000Y-124079095D01*
X119213380Y-124412428D02*
X120213380Y-124650523D01*
X119499095Y-124841000D01*
X120213380Y-125031476D01*
X119213380Y-125269571D01*
X119213380Y-125555285D02*
X119213380Y-126221952D01*
X120213380Y-125793380D01*
G04 #@! TO.C,SW8*
X119784761Y-133921666D02*
X119832380Y-134064523D01*
X119832380Y-134302619D01*
X119784761Y-134397857D01*
X119737142Y-134445476D01*
X119641904Y-134493095D01*
X119546666Y-134493095D01*
X119451428Y-134445476D01*
X119403809Y-134397857D01*
X119356190Y-134302619D01*
X119308571Y-134112142D01*
X119260952Y-134016904D01*
X119213333Y-133969285D01*
X119118095Y-133921666D01*
X119022857Y-133921666D01*
X118927619Y-133969285D01*
X118880000Y-134016904D01*
X118832380Y-134112142D01*
X118832380Y-134350238D01*
X118880000Y-134493095D01*
X118832380Y-134826428D02*
X119832380Y-135064523D01*
X119118095Y-135255000D01*
X119832380Y-135445476D01*
X118832380Y-135683571D01*
X119260952Y-136207380D02*
X119213333Y-136112142D01*
X119165714Y-136064523D01*
X119070476Y-136016904D01*
X119022857Y-136016904D01*
X118927619Y-136064523D01*
X118880000Y-136112142D01*
X118832380Y-136207380D01*
X118832380Y-136397857D01*
X118880000Y-136493095D01*
X118927619Y-136540714D01*
X119022857Y-136588333D01*
X119070476Y-136588333D01*
X119165714Y-136540714D01*
X119213333Y-136493095D01*
X119260952Y-136397857D01*
X119260952Y-136207380D01*
X119308571Y-136112142D01*
X119356190Y-136064523D01*
X119451428Y-136016904D01*
X119641904Y-136016904D01*
X119737142Y-136064523D01*
X119784761Y-136112142D01*
X119832380Y-136207380D01*
X119832380Y-136397857D01*
X119784761Y-136493095D01*
X119737142Y-136540714D01*
X119641904Y-136588333D01*
X119451428Y-136588333D01*
X119356190Y-136540714D01*
X119308571Y-136493095D01*
X119260952Y-136397857D01*
G04 #@! TO.C,SW10*
X92352761Y-62198476D02*
X92400380Y-62341333D01*
X92400380Y-62579428D01*
X92352761Y-62674666D01*
X92305142Y-62722285D01*
X92209904Y-62769904D01*
X92114666Y-62769904D01*
X92019428Y-62722285D01*
X91971809Y-62674666D01*
X91924190Y-62579428D01*
X91876571Y-62388952D01*
X91828952Y-62293714D01*
X91781333Y-62246095D01*
X91686095Y-62198476D01*
X91590857Y-62198476D01*
X91495619Y-62246095D01*
X91448000Y-62293714D01*
X91400380Y-62388952D01*
X91400380Y-62627047D01*
X91448000Y-62769904D01*
X91400380Y-63103238D02*
X92400380Y-63341333D01*
X91686095Y-63531809D01*
X92400380Y-63722285D01*
X91400380Y-63960380D01*
X92400380Y-64865142D02*
X92400380Y-64293714D01*
X92400380Y-64579428D02*
X91400380Y-64579428D01*
X91543238Y-64484190D01*
X91638476Y-64388952D01*
X91686095Y-64293714D01*
X91400380Y-65484190D02*
X91400380Y-65579428D01*
X91448000Y-65674666D01*
X91495619Y-65722285D01*
X91590857Y-65769904D01*
X91781333Y-65817523D01*
X92019428Y-65817523D01*
X92209904Y-65769904D01*
X92305142Y-65722285D01*
X92352761Y-65674666D01*
X92400380Y-65579428D01*
X92400380Y-65484190D01*
X92352761Y-65388952D01*
X92305142Y-65341333D01*
X92209904Y-65293714D01*
X92019428Y-65246095D01*
X91781333Y-65246095D01*
X91590857Y-65293714D01*
X91495619Y-65341333D01*
X91448000Y-65388952D01*
X91400380Y-65484190D01*
G04 #@! TO.C,SW11*
X92352761Y-72358476D02*
X92400380Y-72501333D01*
X92400380Y-72739428D01*
X92352761Y-72834666D01*
X92305142Y-72882285D01*
X92209904Y-72929904D01*
X92114666Y-72929904D01*
X92019428Y-72882285D01*
X91971809Y-72834666D01*
X91924190Y-72739428D01*
X91876571Y-72548952D01*
X91828952Y-72453714D01*
X91781333Y-72406095D01*
X91686095Y-72358476D01*
X91590857Y-72358476D01*
X91495619Y-72406095D01*
X91448000Y-72453714D01*
X91400380Y-72548952D01*
X91400380Y-72787047D01*
X91448000Y-72929904D01*
X91400380Y-73263238D02*
X92400380Y-73501333D01*
X91686095Y-73691809D01*
X92400380Y-73882285D01*
X91400380Y-74120380D01*
X92400380Y-75025142D02*
X92400380Y-74453714D01*
X92400380Y-74739428D02*
X91400380Y-74739428D01*
X91543238Y-74644190D01*
X91638476Y-74548952D01*
X91686095Y-74453714D01*
X92400380Y-75977523D02*
X92400380Y-75406095D01*
X92400380Y-75691809D02*
X91400380Y-75691809D01*
X91543238Y-75596571D01*
X91638476Y-75501333D01*
X91686095Y-75406095D01*
G04 #@! TO.C,SW12*
X92352761Y-82645476D02*
X92400380Y-82788333D01*
X92400380Y-83026428D01*
X92352761Y-83121666D01*
X92305142Y-83169285D01*
X92209904Y-83216904D01*
X92114666Y-83216904D01*
X92019428Y-83169285D01*
X91971809Y-83121666D01*
X91924190Y-83026428D01*
X91876571Y-82835952D01*
X91828952Y-82740714D01*
X91781333Y-82693095D01*
X91686095Y-82645476D01*
X91590857Y-82645476D01*
X91495619Y-82693095D01*
X91448000Y-82740714D01*
X91400380Y-82835952D01*
X91400380Y-83074047D01*
X91448000Y-83216904D01*
X91400380Y-83550238D02*
X92400380Y-83788333D01*
X91686095Y-83978809D01*
X92400380Y-84169285D01*
X91400380Y-84407380D01*
X92400380Y-85312142D02*
X92400380Y-84740714D01*
X92400380Y-85026428D02*
X91400380Y-85026428D01*
X91543238Y-84931190D01*
X91638476Y-84835952D01*
X91686095Y-84740714D01*
X91495619Y-85693095D02*
X91448000Y-85740714D01*
X91400380Y-85835952D01*
X91400380Y-86074047D01*
X91448000Y-86169285D01*
X91495619Y-86216904D01*
X91590857Y-86264523D01*
X91686095Y-86264523D01*
X91828952Y-86216904D01*
X92400380Y-85645476D01*
X92400380Y-86264523D01*
G04 #@! TO.C,SW13*
X92352761Y-92805476D02*
X92400380Y-92948333D01*
X92400380Y-93186428D01*
X92352761Y-93281666D01*
X92305142Y-93329285D01*
X92209904Y-93376904D01*
X92114666Y-93376904D01*
X92019428Y-93329285D01*
X91971809Y-93281666D01*
X91924190Y-93186428D01*
X91876571Y-92995952D01*
X91828952Y-92900714D01*
X91781333Y-92853095D01*
X91686095Y-92805476D01*
X91590857Y-92805476D01*
X91495619Y-92853095D01*
X91448000Y-92900714D01*
X91400380Y-92995952D01*
X91400380Y-93234047D01*
X91448000Y-93376904D01*
X91400380Y-93710238D02*
X92400380Y-93948333D01*
X91686095Y-94138809D01*
X92400380Y-94329285D01*
X91400380Y-94567380D01*
X92400380Y-95472142D02*
X92400380Y-94900714D01*
X92400380Y-95186428D02*
X91400380Y-95186428D01*
X91543238Y-95091190D01*
X91638476Y-94995952D01*
X91686095Y-94900714D01*
X91400380Y-95805476D02*
X91400380Y-96424523D01*
X91781333Y-96091190D01*
X91781333Y-96234047D01*
X91828952Y-96329285D01*
X91876571Y-96376904D01*
X91971809Y-96424523D01*
X92209904Y-96424523D01*
X92305142Y-96376904D01*
X92352761Y-96329285D01*
X92400380Y-96234047D01*
X92400380Y-95948333D01*
X92352761Y-95853095D01*
X92305142Y-95805476D01*
G04 #@! TO.C,SW14*
X92225761Y-102965476D02*
X92273380Y-103108333D01*
X92273380Y-103346428D01*
X92225761Y-103441666D01*
X92178142Y-103489285D01*
X92082904Y-103536904D01*
X91987666Y-103536904D01*
X91892428Y-103489285D01*
X91844809Y-103441666D01*
X91797190Y-103346428D01*
X91749571Y-103155952D01*
X91701952Y-103060714D01*
X91654333Y-103013095D01*
X91559095Y-102965476D01*
X91463857Y-102965476D01*
X91368619Y-103013095D01*
X91321000Y-103060714D01*
X91273380Y-103155952D01*
X91273380Y-103394047D01*
X91321000Y-103536904D01*
X91273380Y-103870238D02*
X92273380Y-104108333D01*
X91559095Y-104298809D01*
X92273380Y-104489285D01*
X91273380Y-104727380D01*
X92273380Y-105632142D02*
X92273380Y-105060714D01*
X92273380Y-105346428D02*
X91273380Y-105346428D01*
X91416238Y-105251190D01*
X91511476Y-105155952D01*
X91559095Y-105060714D01*
X91606714Y-106489285D02*
X92273380Y-106489285D01*
X91225761Y-106251190D02*
X91940047Y-106013095D01*
X91940047Y-106632142D01*
G04 #@! TO.C,SW15*
X92479761Y-113252476D02*
X92527380Y-113395333D01*
X92527380Y-113633428D01*
X92479761Y-113728666D01*
X92432142Y-113776285D01*
X92336904Y-113823904D01*
X92241666Y-113823904D01*
X92146428Y-113776285D01*
X92098809Y-113728666D01*
X92051190Y-113633428D01*
X92003571Y-113442952D01*
X91955952Y-113347714D01*
X91908333Y-113300095D01*
X91813095Y-113252476D01*
X91717857Y-113252476D01*
X91622619Y-113300095D01*
X91575000Y-113347714D01*
X91527380Y-113442952D01*
X91527380Y-113681047D01*
X91575000Y-113823904D01*
X91527380Y-114157238D02*
X92527380Y-114395333D01*
X91813095Y-114585809D01*
X92527380Y-114776285D01*
X91527380Y-115014380D01*
X92527380Y-115919142D02*
X92527380Y-115347714D01*
X92527380Y-115633428D02*
X91527380Y-115633428D01*
X91670238Y-115538190D01*
X91765476Y-115442952D01*
X91813095Y-115347714D01*
X91527380Y-116823904D02*
X91527380Y-116347714D01*
X92003571Y-116300095D01*
X91955952Y-116347714D01*
X91908333Y-116442952D01*
X91908333Y-116681047D01*
X91955952Y-116776285D01*
X92003571Y-116823904D01*
X92098809Y-116871523D01*
X92336904Y-116871523D01*
X92432142Y-116823904D01*
X92479761Y-116776285D01*
X92527380Y-116681047D01*
X92527380Y-116442952D01*
X92479761Y-116347714D01*
X92432142Y-116300095D01*
G04 #@! TO.C,SW16*
X92354561Y-123273476D02*
X92402180Y-123416333D01*
X92402180Y-123654428D01*
X92354561Y-123749666D01*
X92306942Y-123797285D01*
X92211704Y-123844904D01*
X92116466Y-123844904D01*
X92021228Y-123797285D01*
X91973609Y-123749666D01*
X91925990Y-123654428D01*
X91878371Y-123463952D01*
X91830752Y-123368714D01*
X91783133Y-123321095D01*
X91687895Y-123273476D01*
X91592657Y-123273476D01*
X91497419Y-123321095D01*
X91449800Y-123368714D01*
X91402180Y-123463952D01*
X91402180Y-123702047D01*
X91449800Y-123844904D01*
X91402180Y-124178238D02*
X92402180Y-124416333D01*
X91687895Y-124606809D01*
X92402180Y-124797285D01*
X91402180Y-125035380D01*
X92402180Y-125940142D02*
X92402180Y-125368714D01*
X92402180Y-125654428D02*
X91402180Y-125654428D01*
X91545038Y-125559190D01*
X91640276Y-125463952D01*
X91687895Y-125368714D01*
X91402180Y-126797285D02*
X91402180Y-126606809D01*
X91449800Y-126511571D01*
X91497419Y-126463952D01*
X91640276Y-126368714D01*
X91830752Y-126321095D01*
X92211704Y-126321095D01*
X92306942Y-126368714D01*
X92354561Y-126416333D01*
X92402180Y-126511571D01*
X92402180Y-126702047D01*
X92354561Y-126797285D01*
X92306942Y-126844904D01*
X92211704Y-126892523D01*
X91973609Y-126892523D01*
X91878371Y-126844904D01*
X91830752Y-126797285D01*
X91783133Y-126702047D01*
X91783133Y-126511571D01*
X91830752Y-126416333D01*
X91878371Y-126368714D01*
X91973609Y-126321095D01*
G04 #@! TO.C,SW17*
X92479761Y-133445476D02*
X92527380Y-133588333D01*
X92527380Y-133826428D01*
X92479761Y-133921666D01*
X92432142Y-133969285D01*
X92336904Y-134016904D01*
X92241666Y-134016904D01*
X92146428Y-133969285D01*
X92098809Y-133921666D01*
X92051190Y-133826428D01*
X92003571Y-133635952D01*
X91955952Y-133540714D01*
X91908333Y-133493095D01*
X91813095Y-133445476D01*
X91717857Y-133445476D01*
X91622619Y-133493095D01*
X91575000Y-133540714D01*
X91527380Y-133635952D01*
X91527380Y-133874047D01*
X91575000Y-134016904D01*
X91527380Y-134350238D02*
X92527380Y-134588333D01*
X91813095Y-134778809D01*
X92527380Y-134969285D01*
X91527380Y-135207380D01*
X92527380Y-136112142D02*
X92527380Y-135540714D01*
X92527380Y-135826428D02*
X91527380Y-135826428D01*
X91670238Y-135731190D01*
X91765476Y-135635952D01*
X91813095Y-135540714D01*
X91527380Y-136445476D02*
X91527380Y-137112142D01*
X92527380Y-136683571D01*
G04 #@! TO.C,J7*
X133175333Y-146264380D02*
X133175333Y-146978666D01*
X133222952Y-147121523D01*
X133318190Y-147216761D01*
X133461047Y-147264380D01*
X133556285Y-147264380D01*
X132794380Y-146264380D02*
X132127714Y-146264380D01*
X132556285Y-147264380D01*
X142493571Y-156186142D02*
X142541190Y-156233761D01*
X142684047Y-156281380D01*
X142779285Y-156281380D01*
X142922142Y-156233761D01*
X143017380Y-156138523D01*
X143065000Y-156043285D01*
X143112619Y-155852809D01*
X143112619Y-155709952D01*
X143065000Y-155519476D01*
X143017380Y-155424238D01*
X142922142Y-155329000D01*
X142779285Y-155281380D01*
X142684047Y-155281380D01*
X142541190Y-155329000D01*
X142493571Y-155376619D01*
X141588809Y-156281380D02*
X142065000Y-156281380D01*
X142065000Y-155281380D01*
X141065000Y-155281380D02*
X140874523Y-155281380D01*
X140779285Y-155329000D01*
X140684047Y-155424238D01*
X140636428Y-155614714D01*
X140636428Y-155948047D01*
X140684047Y-156138523D01*
X140779285Y-156233761D01*
X140874523Y-156281380D01*
X141065000Y-156281380D01*
X141160238Y-156233761D01*
X141255476Y-156138523D01*
X141303095Y-155948047D01*
X141303095Y-155614714D01*
X141255476Y-155424238D01*
X141160238Y-155329000D01*
X141065000Y-155281380D01*
X139636428Y-156186142D02*
X139684047Y-156233761D01*
X139826904Y-156281380D01*
X139922142Y-156281380D01*
X140065000Y-156233761D01*
X140160238Y-156138523D01*
X140207857Y-156043285D01*
X140255476Y-155852809D01*
X140255476Y-155709952D01*
X140207857Y-155519476D01*
X140160238Y-155424238D01*
X140065000Y-155329000D01*
X139922142Y-155281380D01*
X139826904Y-155281380D01*
X139684047Y-155329000D01*
X139636428Y-155376619D01*
X139207857Y-156281380D02*
X139207857Y-155281380D01*
X138636428Y-156281380D02*
X139065000Y-155709952D01*
X138636428Y-155281380D02*
X139207857Y-155852809D01*
X138445952Y-156376619D02*
X137684047Y-156376619D01*
X137255476Y-155281380D02*
X137065000Y-155281380D01*
X136969761Y-155329000D01*
X136874523Y-155424238D01*
X136826904Y-155614714D01*
X136826904Y-155948047D01*
X136874523Y-156138523D01*
X136969761Y-156233761D01*
X137065000Y-156281380D01*
X137255476Y-156281380D01*
X137350714Y-156233761D01*
X137445952Y-156138523D01*
X137493571Y-155948047D01*
X137493571Y-155614714D01*
X137445952Y-155424238D01*
X137350714Y-155329000D01*
X137255476Y-155281380D01*
X136398333Y-155281380D02*
X136398333Y-156090904D01*
X136350714Y-156186142D01*
X136303095Y-156233761D01*
X136207857Y-156281380D01*
X136017380Y-156281380D01*
X135922142Y-156233761D01*
X135874523Y-156186142D01*
X135826904Y-156090904D01*
X135826904Y-155281380D01*
X135493571Y-155281380D02*
X134922142Y-155281380D01*
X135207857Y-156281380D02*
X135207857Y-155281380D01*
G04 #@! TO.C,SW9*
X136294761Y-77660666D02*
X136342380Y-77803523D01*
X136342380Y-78041619D01*
X136294761Y-78136857D01*
X136247142Y-78184476D01*
X136151904Y-78232095D01*
X136056666Y-78232095D01*
X135961428Y-78184476D01*
X135913809Y-78136857D01*
X135866190Y-78041619D01*
X135818571Y-77851142D01*
X135770952Y-77755904D01*
X135723333Y-77708285D01*
X135628095Y-77660666D01*
X135532857Y-77660666D01*
X135437619Y-77708285D01*
X135390000Y-77755904D01*
X135342380Y-77851142D01*
X135342380Y-78089238D01*
X135390000Y-78232095D01*
X135342380Y-78565428D02*
X136342380Y-78803523D01*
X135628095Y-78994000D01*
X136342380Y-79184476D01*
X135342380Y-79422571D01*
X136342380Y-79851142D02*
X136342380Y-80041619D01*
X136294761Y-80136857D01*
X136247142Y-80184476D01*
X136104285Y-80279714D01*
X135913809Y-80327333D01*
X135532857Y-80327333D01*
X135437619Y-80279714D01*
X135390000Y-80232095D01*
X135342380Y-80136857D01*
X135342380Y-79946380D01*
X135390000Y-79851142D01*
X135437619Y-79803523D01*
X135532857Y-79755904D01*
X135770952Y-79755904D01*
X135866190Y-79803523D01*
X135913809Y-79851142D01*
X135961428Y-79946380D01*
X135961428Y-80136857D01*
X135913809Y-80232095D01*
X135866190Y-80279714D01*
X135770952Y-80327333D01*
G04 #@! TO.C,SW18*
X134262761Y-107283476D02*
X134310380Y-107426333D01*
X134310380Y-107664428D01*
X134262761Y-107759666D01*
X134215142Y-107807285D01*
X134119904Y-107854904D01*
X134024666Y-107854904D01*
X133929428Y-107807285D01*
X133881809Y-107759666D01*
X133834190Y-107664428D01*
X133786571Y-107473952D01*
X133738952Y-107378714D01*
X133691333Y-107331095D01*
X133596095Y-107283476D01*
X133500857Y-107283476D01*
X133405619Y-107331095D01*
X133358000Y-107378714D01*
X133310380Y-107473952D01*
X133310380Y-107712047D01*
X133358000Y-107854904D01*
X133310380Y-108188238D02*
X134310380Y-108426333D01*
X133596095Y-108616809D01*
X134310380Y-108807285D01*
X133310380Y-109045380D01*
X134310380Y-109950142D02*
X134310380Y-109378714D01*
X134310380Y-109664428D02*
X133310380Y-109664428D01*
X133453238Y-109569190D01*
X133548476Y-109473952D01*
X133596095Y-109378714D01*
X133738952Y-110521571D02*
X133691333Y-110426333D01*
X133643714Y-110378714D01*
X133548476Y-110331095D01*
X133500857Y-110331095D01*
X133405619Y-110378714D01*
X133358000Y-110426333D01*
X133310380Y-110521571D01*
X133310380Y-110712047D01*
X133358000Y-110807285D01*
X133405619Y-110854904D01*
X133500857Y-110902523D01*
X133548476Y-110902523D01*
X133643714Y-110854904D01*
X133691333Y-110807285D01*
X133738952Y-110712047D01*
X133738952Y-110521571D01*
X133786571Y-110426333D01*
X133834190Y-110378714D01*
X133929428Y-110331095D01*
X134119904Y-110331095D01*
X134215142Y-110378714D01*
X134262761Y-110426333D01*
X134310380Y-110521571D01*
X134310380Y-110712047D01*
X134262761Y-110807285D01*
X134215142Y-110854904D01*
X134119904Y-110902523D01*
X133929428Y-110902523D01*
X133834190Y-110854904D01*
X133786571Y-110807285D01*
X133738952Y-110712047D01*
X127071380Y-106561285D02*
X126595190Y-106227952D01*
X127071380Y-105989857D02*
X126071380Y-105989857D01*
X126071380Y-106370809D01*
X126119000Y-106466047D01*
X126166619Y-106513666D01*
X126261857Y-106561285D01*
X126404714Y-106561285D01*
X126499952Y-106513666D01*
X126547571Y-106466047D01*
X126595190Y-106370809D01*
X126595190Y-105989857D01*
X126404714Y-107418428D02*
X127071380Y-107418428D01*
X126404714Y-106989857D02*
X126928523Y-106989857D01*
X127023761Y-107037476D01*
X127071380Y-107132714D01*
X127071380Y-107275571D01*
X127023761Y-107370809D01*
X126976142Y-107418428D01*
X126404714Y-107894619D02*
X127071380Y-107894619D01*
X126499952Y-107894619D02*
X126452333Y-107942238D01*
X126404714Y-108037476D01*
X126404714Y-108180333D01*
X126452333Y-108275571D01*
X126547571Y-108323190D01*
X127071380Y-108323190D01*
X126023761Y-109513666D02*
X127309476Y-108656523D01*
X127023761Y-109799380D02*
X127071380Y-109942238D01*
X127071380Y-110180333D01*
X127023761Y-110275571D01*
X126976142Y-110323190D01*
X126880904Y-110370809D01*
X126785666Y-110370809D01*
X126690428Y-110323190D01*
X126642809Y-110275571D01*
X126595190Y-110180333D01*
X126547571Y-109989857D01*
X126499952Y-109894619D01*
X126452333Y-109847000D01*
X126357095Y-109799380D01*
X126261857Y-109799380D01*
X126166619Y-109847000D01*
X126119000Y-109894619D01*
X126071380Y-109989857D01*
X126071380Y-110227952D01*
X126119000Y-110370809D01*
X126404714Y-110656523D02*
X126404714Y-111037476D01*
X126071380Y-110799380D02*
X126928523Y-110799380D01*
X127023761Y-110847000D01*
X127071380Y-110942238D01*
X127071380Y-111037476D01*
X127071380Y-111513666D02*
X127023761Y-111418428D01*
X126976142Y-111370809D01*
X126880904Y-111323190D01*
X126595190Y-111323190D01*
X126499952Y-111370809D01*
X126452333Y-111418428D01*
X126404714Y-111513666D01*
X126404714Y-111656523D01*
X126452333Y-111751761D01*
X126499952Y-111799380D01*
X126595190Y-111847000D01*
X126880904Y-111847000D01*
X126976142Y-111799380D01*
X127023761Y-111751761D01*
X127071380Y-111656523D01*
X127071380Y-111513666D01*
X126404714Y-112275571D02*
X127404714Y-112275571D01*
X126452333Y-112275571D02*
X126404714Y-112370809D01*
X126404714Y-112561285D01*
X126452333Y-112656523D01*
X126499952Y-112704142D01*
X126595190Y-112751761D01*
X126880904Y-112751761D01*
X126976142Y-112704142D01*
X127023761Y-112656523D01*
X127071380Y-112561285D01*
X127071380Y-112370809D01*
X127023761Y-112275571D01*
G04 #@! TO.C,SW19*
X134262761Y-120364476D02*
X134310380Y-120507333D01*
X134310380Y-120745428D01*
X134262761Y-120840666D01*
X134215142Y-120888285D01*
X134119904Y-120935904D01*
X134024666Y-120935904D01*
X133929428Y-120888285D01*
X133881809Y-120840666D01*
X133834190Y-120745428D01*
X133786571Y-120554952D01*
X133738952Y-120459714D01*
X133691333Y-120412095D01*
X133596095Y-120364476D01*
X133500857Y-120364476D01*
X133405619Y-120412095D01*
X133358000Y-120459714D01*
X133310380Y-120554952D01*
X133310380Y-120793047D01*
X133358000Y-120935904D01*
X133310380Y-121269238D02*
X134310380Y-121507333D01*
X133596095Y-121697809D01*
X134310380Y-121888285D01*
X133310380Y-122126380D01*
X134310380Y-123031142D02*
X134310380Y-122459714D01*
X134310380Y-122745428D02*
X133310380Y-122745428D01*
X133453238Y-122650190D01*
X133548476Y-122554952D01*
X133596095Y-122459714D01*
X134310380Y-123507333D02*
X134310380Y-123697809D01*
X134262761Y-123793047D01*
X134215142Y-123840666D01*
X134072285Y-123935904D01*
X133881809Y-123983523D01*
X133500857Y-123983523D01*
X133405619Y-123935904D01*
X133358000Y-123888285D01*
X133310380Y-123793047D01*
X133310380Y-123602571D01*
X133358000Y-123507333D01*
X133405619Y-123459714D01*
X133500857Y-123412095D01*
X133738952Y-123412095D01*
X133834190Y-123459714D01*
X133881809Y-123507333D01*
X133929428Y-123602571D01*
X133929428Y-123793047D01*
X133881809Y-123888285D01*
X133834190Y-123935904D01*
X133738952Y-123983523D01*
X126198380Y-119745523D02*
X127007904Y-119745523D01*
X127103142Y-119793142D01*
X127150761Y-119840761D01*
X127198380Y-119936000D01*
X127198380Y-120126476D01*
X127150761Y-120221714D01*
X127103142Y-120269333D01*
X127007904Y-120316952D01*
X126198380Y-120316952D01*
X126531714Y-120793142D02*
X127531714Y-120793142D01*
X126579333Y-120793142D02*
X126531714Y-120888380D01*
X126531714Y-121078857D01*
X126579333Y-121174095D01*
X126626952Y-121221714D01*
X126722190Y-121269333D01*
X127007904Y-121269333D01*
X127103142Y-121221714D01*
X127150761Y-121174095D01*
X127198380Y-121078857D01*
X127198380Y-120888380D01*
X127150761Y-120793142D01*
X126150761Y-122412190D02*
X127436476Y-121555047D01*
X127198380Y-122745523D02*
X126198380Y-122745523D01*
X126198380Y-122983619D01*
X126246000Y-123126476D01*
X126341238Y-123221714D01*
X126436476Y-123269333D01*
X126626952Y-123316952D01*
X126769809Y-123316952D01*
X126960285Y-123269333D01*
X127055523Y-123221714D01*
X127150761Y-123126476D01*
X127198380Y-122983619D01*
X127198380Y-122745523D01*
X127198380Y-123888380D02*
X127150761Y-123793142D01*
X127103142Y-123745523D01*
X127007904Y-123697904D01*
X126722190Y-123697904D01*
X126626952Y-123745523D01*
X126579333Y-123793142D01*
X126531714Y-123888380D01*
X126531714Y-124031238D01*
X126579333Y-124126476D01*
X126626952Y-124174095D01*
X126722190Y-124221714D01*
X127007904Y-124221714D01*
X127103142Y-124174095D01*
X127150761Y-124126476D01*
X127198380Y-124031238D01*
X127198380Y-123888380D01*
X126531714Y-124555047D02*
X127198380Y-124745523D01*
X126722190Y-124936000D01*
X127198380Y-125126476D01*
X126531714Y-125316952D01*
X126531714Y-125697904D02*
X127198380Y-125697904D01*
X126626952Y-125697904D02*
X126579333Y-125745523D01*
X126531714Y-125840761D01*
X126531714Y-125983619D01*
X126579333Y-126078857D01*
X126674571Y-126126476D01*
X127198380Y-126126476D01*
G04 #@! TO.C,SW20*
X132111523Y-130071761D02*
X131968666Y-130119380D01*
X131730571Y-130119380D01*
X131635333Y-130071761D01*
X131587714Y-130024142D01*
X131540095Y-129928904D01*
X131540095Y-129833666D01*
X131587714Y-129738428D01*
X131635333Y-129690809D01*
X131730571Y-129643190D01*
X131921047Y-129595571D01*
X132016285Y-129547952D01*
X132063904Y-129500333D01*
X132111523Y-129405095D01*
X132111523Y-129309857D01*
X132063904Y-129214619D01*
X132016285Y-129167000D01*
X131921047Y-129119380D01*
X131682952Y-129119380D01*
X131540095Y-129167000D01*
X131206761Y-129119380D02*
X130968666Y-130119380D01*
X130778190Y-129405095D01*
X130587714Y-130119380D01*
X130349619Y-129119380D01*
X130016285Y-129214619D02*
X129968666Y-129167000D01*
X129873428Y-129119380D01*
X129635333Y-129119380D01*
X129540095Y-129167000D01*
X129492476Y-129214619D01*
X129444857Y-129309857D01*
X129444857Y-129405095D01*
X129492476Y-129547952D01*
X130063904Y-130119380D01*
X129444857Y-130119380D01*
X128825809Y-129119380D02*
X128730571Y-129119380D01*
X128635333Y-129167000D01*
X128587714Y-129214619D01*
X128540095Y-129309857D01*
X128492476Y-129500333D01*
X128492476Y-129738428D01*
X128540095Y-129928904D01*
X128587714Y-130024142D01*
X128635333Y-130071761D01*
X128730571Y-130119380D01*
X128825809Y-130119380D01*
X128921047Y-130071761D01*
X128968666Y-130024142D01*
X129016285Y-129928904D01*
X129063904Y-129738428D01*
X129063904Y-129500333D01*
X129016285Y-129309857D01*
X128968666Y-129214619D01*
X128921047Y-129167000D01*
X128825809Y-129119380D01*
X130738380Y-144089380D02*
X131071714Y-143613190D01*
X131309809Y-144089380D02*
X131309809Y-143089380D01*
X130928857Y-143089380D01*
X130833619Y-143137000D01*
X130786000Y-143184619D01*
X130738380Y-143279857D01*
X130738380Y-143422714D01*
X130786000Y-143517952D01*
X130833619Y-143565571D01*
X130928857Y-143613190D01*
X131309809Y-143613190D01*
X130309809Y-143565571D02*
X129976476Y-143565571D01*
X129833619Y-144089380D02*
X130309809Y-144089380D01*
X130309809Y-143089380D01*
X129833619Y-143089380D01*
X129452666Y-144041761D02*
X129309809Y-144089380D01*
X129071714Y-144089380D01*
X128976476Y-144041761D01*
X128928857Y-143994142D01*
X128881238Y-143898904D01*
X128881238Y-143803666D01*
X128928857Y-143708428D01*
X128976476Y-143660809D01*
X129071714Y-143613190D01*
X129262190Y-143565571D01*
X129357428Y-143517952D01*
X129405047Y-143470333D01*
X129452666Y-143375095D01*
X129452666Y-143279857D01*
X129405047Y-143184619D01*
X129357428Y-143137000D01*
X129262190Y-143089380D01*
X129024095Y-143089380D01*
X128881238Y-143137000D01*
X128452666Y-143565571D02*
X128119333Y-143565571D01*
X127976476Y-144089380D02*
X128452666Y-144089380D01*
X128452666Y-143089380D01*
X127976476Y-143089380D01*
X127690761Y-143089380D02*
X127119333Y-143089380D01*
X127405047Y-144089380D02*
X127405047Y-143089380D01*
G04 #@! TO.C,D3*
X105694095Y-61412380D02*
X105694095Y-60412380D01*
X105456000Y-60412380D01*
X105313142Y-60460000D01*
X105217904Y-60555238D01*
X105170285Y-60650476D01*
X105122666Y-60840952D01*
X105122666Y-60983809D01*
X105170285Y-61174285D01*
X105217904Y-61269523D01*
X105313142Y-61364761D01*
X105456000Y-61412380D01*
X105694095Y-61412380D01*
X104789333Y-60412380D02*
X104170285Y-60412380D01*
X104503619Y-60793333D01*
X104360761Y-60793333D01*
X104265523Y-60840952D01*
X104217904Y-60888571D01*
X104170285Y-60983809D01*
X104170285Y-61221904D01*
X104217904Y-61317142D01*
X104265523Y-61364761D01*
X104360761Y-61412380D01*
X104646476Y-61412380D01*
X104741714Y-61364761D01*
X104789333Y-61317142D01*
X108711904Y-64158761D02*
X108569047Y-64206380D01*
X108330952Y-64206380D01*
X108235714Y-64158761D01*
X108188095Y-64111142D01*
X108140476Y-64015904D01*
X108140476Y-63920666D01*
X108188095Y-63825428D01*
X108235714Y-63777809D01*
X108330952Y-63730190D01*
X108521428Y-63682571D01*
X108616666Y-63634952D01*
X108664285Y-63587333D01*
X108711904Y-63492095D01*
X108711904Y-63396857D01*
X108664285Y-63301619D01*
X108616666Y-63254000D01*
X108521428Y-63206380D01*
X108283333Y-63206380D01*
X108140476Y-63254000D01*
X107188095Y-64206380D02*
X107759523Y-64206380D01*
X107473809Y-64206380D02*
X107473809Y-63206380D01*
X107569047Y-63349238D01*
X107664285Y-63444476D01*
X107759523Y-63492095D01*
X101617904Y-62732380D02*
X101617904Y-61732380D01*
X101046476Y-62732380D02*
X101475047Y-62160952D01*
X101046476Y-61732380D02*
X101617904Y-62303809D01*
G04 #@! TO.C,D4*
X105694095Y-71572380D02*
X105694095Y-70572380D01*
X105456000Y-70572380D01*
X105313142Y-70620000D01*
X105217904Y-70715238D01*
X105170285Y-70810476D01*
X105122666Y-71000952D01*
X105122666Y-71143809D01*
X105170285Y-71334285D01*
X105217904Y-71429523D01*
X105313142Y-71524761D01*
X105456000Y-71572380D01*
X105694095Y-71572380D01*
X104265523Y-70905714D02*
X104265523Y-71572380D01*
X104503619Y-70524761D02*
X104741714Y-71239047D01*
X104122666Y-71239047D01*
X108711904Y-74458461D02*
X108569047Y-74506080D01*
X108330952Y-74506080D01*
X108235714Y-74458461D01*
X108188095Y-74410842D01*
X108140476Y-74315604D01*
X108140476Y-74220366D01*
X108188095Y-74125128D01*
X108235714Y-74077509D01*
X108330952Y-74029890D01*
X108521428Y-73982271D01*
X108616666Y-73934652D01*
X108664285Y-73887033D01*
X108711904Y-73791795D01*
X108711904Y-73696557D01*
X108664285Y-73601319D01*
X108616666Y-73553700D01*
X108521428Y-73506080D01*
X108283333Y-73506080D01*
X108140476Y-73553700D01*
X107759523Y-73601319D02*
X107711904Y-73553700D01*
X107616666Y-73506080D01*
X107378571Y-73506080D01*
X107283333Y-73553700D01*
X107235714Y-73601319D01*
X107188095Y-73696557D01*
X107188095Y-73791795D01*
X107235714Y-73934652D01*
X107807142Y-74506080D01*
X107188095Y-74506080D01*
X101617904Y-72892380D02*
X101617904Y-71892380D01*
X101046476Y-72892380D02*
X101475047Y-72320952D01*
X101046476Y-71892380D02*
X101617904Y-72463809D01*
G04 #@! TO.C,D5*
X105694095Y-81732380D02*
X105694095Y-80732380D01*
X105456000Y-80732380D01*
X105313142Y-80780000D01*
X105217904Y-80875238D01*
X105170285Y-80970476D01*
X105122666Y-81160952D01*
X105122666Y-81303809D01*
X105170285Y-81494285D01*
X105217904Y-81589523D01*
X105313142Y-81684761D01*
X105456000Y-81732380D01*
X105694095Y-81732380D01*
X104217904Y-80732380D02*
X104694095Y-80732380D01*
X104741714Y-81208571D01*
X104694095Y-81160952D01*
X104598857Y-81113333D01*
X104360761Y-81113333D01*
X104265523Y-81160952D01*
X104217904Y-81208571D01*
X104170285Y-81303809D01*
X104170285Y-81541904D01*
X104217904Y-81637142D01*
X104265523Y-81684761D01*
X104360761Y-81732380D01*
X104598857Y-81732380D01*
X104694095Y-81684761D01*
X104741714Y-81637142D01*
X108775404Y-84758161D02*
X108632547Y-84805780D01*
X108394452Y-84805780D01*
X108299214Y-84758161D01*
X108251595Y-84710542D01*
X108203976Y-84615304D01*
X108203976Y-84520066D01*
X108251595Y-84424828D01*
X108299214Y-84377209D01*
X108394452Y-84329590D01*
X108584928Y-84281971D01*
X108680166Y-84234352D01*
X108727785Y-84186733D01*
X108775404Y-84091495D01*
X108775404Y-83996257D01*
X108727785Y-83901019D01*
X108680166Y-83853400D01*
X108584928Y-83805780D01*
X108346833Y-83805780D01*
X108203976Y-83853400D01*
X107870642Y-83805780D02*
X107251595Y-83805780D01*
X107584928Y-84186733D01*
X107442071Y-84186733D01*
X107346833Y-84234352D01*
X107299214Y-84281971D01*
X107251595Y-84377209D01*
X107251595Y-84615304D01*
X107299214Y-84710542D01*
X107346833Y-84758161D01*
X107442071Y-84805780D01*
X107727785Y-84805780D01*
X107823023Y-84758161D01*
X107870642Y-84710542D01*
X101617904Y-83052380D02*
X101617904Y-82052380D01*
X101046476Y-83052380D02*
X101475047Y-82480952D01*
X101046476Y-82052380D02*
X101617904Y-82623809D01*
G04 #@! TO.C,D6*
X105694095Y-91892380D02*
X105694095Y-90892380D01*
X105456000Y-90892380D01*
X105313142Y-90940000D01*
X105217904Y-91035238D01*
X105170285Y-91130476D01*
X105122666Y-91320952D01*
X105122666Y-91463809D01*
X105170285Y-91654285D01*
X105217904Y-91749523D01*
X105313142Y-91844761D01*
X105456000Y-91892380D01*
X105694095Y-91892380D01*
X104265523Y-90892380D02*
X104456000Y-90892380D01*
X104551238Y-90940000D01*
X104598857Y-90987619D01*
X104694095Y-91130476D01*
X104741714Y-91320952D01*
X104741714Y-91701904D01*
X104694095Y-91797142D01*
X104646476Y-91844761D01*
X104551238Y-91892380D01*
X104360761Y-91892380D01*
X104265523Y-91844761D01*
X104217904Y-91797142D01*
X104170285Y-91701904D01*
X104170285Y-91463809D01*
X104217904Y-91368571D01*
X104265523Y-91320952D01*
X104360761Y-91273333D01*
X104551238Y-91273333D01*
X104646476Y-91320952D01*
X104694095Y-91368571D01*
X104741714Y-91463809D01*
X108623004Y-94816561D02*
X108480147Y-94864180D01*
X108242052Y-94864180D01*
X108146814Y-94816561D01*
X108099195Y-94768942D01*
X108051576Y-94673704D01*
X108051576Y-94578466D01*
X108099195Y-94483228D01*
X108146814Y-94435609D01*
X108242052Y-94387990D01*
X108432528Y-94340371D01*
X108527766Y-94292752D01*
X108575385Y-94245133D01*
X108623004Y-94149895D01*
X108623004Y-94054657D01*
X108575385Y-93959419D01*
X108527766Y-93911800D01*
X108432528Y-93864180D01*
X108194433Y-93864180D01*
X108051576Y-93911800D01*
X107194433Y-94197514D02*
X107194433Y-94864180D01*
X107432528Y-93816561D02*
X107670623Y-94530847D01*
X107051576Y-94530847D01*
X101617904Y-93212380D02*
X101617904Y-92212380D01*
X101046476Y-93212380D02*
X101475047Y-92640952D01*
X101046476Y-92212380D02*
X101617904Y-92783809D01*
G04 #@! TO.C,D7*
X105694095Y-102052380D02*
X105694095Y-101052380D01*
X105456000Y-101052380D01*
X105313142Y-101100000D01*
X105217904Y-101195238D01*
X105170285Y-101290476D01*
X105122666Y-101480952D01*
X105122666Y-101623809D01*
X105170285Y-101814285D01*
X105217904Y-101909523D01*
X105313142Y-102004761D01*
X105456000Y-102052380D01*
X105694095Y-102052380D01*
X104789333Y-101052380D02*
X104122666Y-101052380D01*
X104551238Y-102052380D01*
X108635704Y-105040061D02*
X108492847Y-105087680D01*
X108254752Y-105087680D01*
X108159514Y-105040061D01*
X108111895Y-104992442D01*
X108064276Y-104897204D01*
X108064276Y-104801966D01*
X108111895Y-104706728D01*
X108159514Y-104659109D01*
X108254752Y-104611490D01*
X108445228Y-104563871D01*
X108540466Y-104516252D01*
X108588085Y-104468633D01*
X108635704Y-104373395D01*
X108635704Y-104278157D01*
X108588085Y-104182919D01*
X108540466Y-104135300D01*
X108445228Y-104087680D01*
X108207133Y-104087680D01*
X108064276Y-104135300D01*
X107159514Y-104087680D02*
X107635704Y-104087680D01*
X107683323Y-104563871D01*
X107635704Y-104516252D01*
X107540466Y-104468633D01*
X107302371Y-104468633D01*
X107207133Y-104516252D01*
X107159514Y-104563871D01*
X107111895Y-104659109D01*
X107111895Y-104897204D01*
X107159514Y-104992442D01*
X107207133Y-105040061D01*
X107302371Y-105087680D01*
X107540466Y-105087680D01*
X107635704Y-105040061D01*
X107683323Y-104992442D01*
X101617904Y-103372380D02*
X101617904Y-102372380D01*
X101046476Y-103372380D02*
X101475047Y-102800952D01*
X101046476Y-102372380D02*
X101617904Y-102943809D01*
G04 #@! TO.C,D8*
X105694095Y-112212380D02*
X105694095Y-111212380D01*
X105456000Y-111212380D01*
X105313142Y-111260000D01*
X105217904Y-111355238D01*
X105170285Y-111450476D01*
X105122666Y-111640952D01*
X105122666Y-111783809D01*
X105170285Y-111974285D01*
X105217904Y-112069523D01*
X105313142Y-112164761D01*
X105456000Y-112212380D01*
X105694095Y-112212380D01*
X104551238Y-111640952D02*
X104646476Y-111593333D01*
X104694095Y-111545714D01*
X104741714Y-111450476D01*
X104741714Y-111402857D01*
X104694095Y-111307619D01*
X104646476Y-111260000D01*
X104551238Y-111212380D01*
X104360761Y-111212380D01*
X104265523Y-111260000D01*
X104217904Y-111307619D01*
X104170285Y-111402857D01*
X104170285Y-111450476D01*
X104217904Y-111545714D01*
X104265523Y-111593333D01*
X104360761Y-111640952D01*
X104551238Y-111640952D01*
X104646476Y-111688571D01*
X104694095Y-111736190D01*
X104741714Y-111831428D01*
X104741714Y-112021904D01*
X104694095Y-112117142D01*
X104646476Y-112164761D01*
X104551238Y-112212380D01*
X104360761Y-112212380D01*
X104265523Y-112164761D01*
X104217904Y-112117142D01*
X104170285Y-112021904D01*
X104170285Y-111831428D01*
X104217904Y-111736190D01*
X104265523Y-111688571D01*
X104360761Y-111640952D01*
X108686504Y-115174661D02*
X108543647Y-115222280D01*
X108305552Y-115222280D01*
X108210314Y-115174661D01*
X108162695Y-115127042D01*
X108115076Y-115031804D01*
X108115076Y-114936566D01*
X108162695Y-114841328D01*
X108210314Y-114793709D01*
X108305552Y-114746090D01*
X108496028Y-114698471D01*
X108591266Y-114650852D01*
X108638885Y-114603233D01*
X108686504Y-114507995D01*
X108686504Y-114412757D01*
X108638885Y-114317519D01*
X108591266Y-114269900D01*
X108496028Y-114222280D01*
X108257933Y-114222280D01*
X108115076Y-114269900D01*
X107257933Y-114222280D02*
X107448409Y-114222280D01*
X107543647Y-114269900D01*
X107591266Y-114317519D01*
X107686504Y-114460376D01*
X107734123Y-114650852D01*
X107734123Y-115031804D01*
X107686504Y-115127042D01*
X107638885Y-115174661D01*
X107543647Y-115222280D01*
X107353171Y-115222280D01*
X107257933Y-115174661D01*
X107210314Y-115127042D01*
X107162695Y-115031804D01*
X107162695Y-114793709D01*
X107210314Y-114698471D01*
X107257933Y-114650852D01*
X107353171Y-114603233D01*
X107543647Y-114603233D01*
X107638885Y-114650852D01*
X107686504Y-114698471D01*
X107734123Y-114793709D01*
X101617904Y-113532380D02*
X101617904Y-112532380D01*
X101046476Y-113532380D02*
X101475047Y-112960952D01*
X101046476Y-112532380D02*
X101617904Y-113103809D01*
G04 #@! TO.C,D9*
X105694095Y-122372380D02*
X105694095Y-121372380D01*
X105456000Y-121372380D01*
X105313142Y-121420000D01*
X105217904Y-121515238D01*
X105170285Y-121610476D01*
X105122666Y-121800952D01*
X105122666Y-121943809D01*
X105170285Y-122134285D01*
X105217904Y-122229523D01*
X105313142Y-122324761D01*
X105456000Y-122372380D01*
X105694095Y-122372380D01*
X104646476Y-122372380D02*
X104456000Y-122372380D01*
X104360761Y-122324761D01*
X104313142Y-122277142D01*
X104217904Y-122134285D01*
X104170285Y-121943809D01*
X104170285Y-121562857D01*
X104217904Y-121467619D01*
X104265523Y-121420000D01*
X104360761Y-121372380D01*
X104551238Y-121372380D01*
X104646476Y-121420000D01*
X104694095Y-121467619D01*
X104741714Y-121562857D01*
X104741714Y-121800952D01*
X104694095Y-121896190D01*
X104646476Y-121943809D01*
X104551238Y-121991428D01*
X104360761Y-121991428D01*
X104265523Y-121943809D01*
X104217904Y-121896190D01*
X104170285Y-121800952D01*
X108927804Y-125461661D02*
X108784947Y-125509280D01*
X108546852Y-125509280D01*
X108451614Y-125461661D01*
X108403995Y-125414042D01*
X108356376Y-125318804D01*
X108356376Y-125223566D01*
X108403995Y-125128328D01*
X108451614Y-125080709D01*
X108546852Y-125033090D01*
X108737328Y-124985471D01*
X108832566Y-124937852D01*
X108880185Y-124890233D01*
X108927804Y-124794995D01*
X108927804Y-124699757D01*
X108880185Y-124604519D01*
X108832566Y-124556900D01*
X108737328Y-124509280D01*
X108499233Y-124509280D01*
X108356376Y-124556900D01*
X108023042Y-124509280D02*
X107356376Y-124509280D01*
X107784947Y-125509280D01*
X101617904Y-123692380D02*
X101617904Y-122692380D01*
X101046476Y-123692380D02*
X101475047Y-123120952D01*
X101046476Y-122692380D02*
X101617904Y-123263809D01*
G04 #@! TO.C,D10*
X106170285Y-132532380D02*
X106170285Y-131532380D01*
X105932190Y-131532380D01*
X105789333Y-131580000D01*
X105694095Y-131675238D01*
X105646476Y-131770476D01*
X105598857Y-131960952D01*
X105598857Y-132103809D01*
X105646476Y-132294285D01*
X105694095Y-132389523D01*
X105789333Y-132484761D01*
X105932190Y-132532380D01*
X106170285Y-132532380D01*
X104646476Y-132532380D02*
X105217904Y-132532380D01*
X104932190Y-132532380D02*
X104932190Y-131532380D01*
X105027428Y-131675238D01*
X105122666Y-131770476D01*
X105217904Y-131818095D01*
X104027428Y-131532380D02*
X103932190Y-131532380D01*
X103836952Y-131580000D01*
X103789333Y-131627619D01*
X103741714Y-131722857D01*
X103694095Y-131913333D01*
X103694095Y-132151428D01*
X103741714Y-132341904D01*
X103789333Y-132437142D01*
X103836952Y-132484761D01*
X103932190Y-132532380D01*
X104027428Y-132532380D01*
X104122666Y-132484761D01*
X104170285Y-132437142D01*
X104217904Y-132341904D01*
X104265523Y-132151428D01*
X104265523Y-131913333D01*
X104217904Y-131722857D01*
X104170285Y-131627619D01*
X104122666Y-131580000D01*
X104027428Y-131532380D01*
X108978604Y-135494661D02*
X108835747Y-135542280D01*
X108597652Y-135542280D01*
X108502414Y-135494661D01*
X108454795Y-135447042D01*
X108407176Y-135351804D01*
X108407176Y-135256566D01*
X108454795Y-135161328D01*
X108502414Y-135113709D01*
X108597652Y-135066090D01*
X108788128Y-135018471D01*
X108883366Y-134970852D01*
X108930985Y-134923233D01*
X108978604Y-134827995D01*
X108978604Y-134732757D01*
X108930985Y-134637519D01*
X108883366Y-134589900D01*
X108788128Y-134542280D01*
X108550033Y-134542280D01*
X108407176Y-134589900D01*
X107835747Y-134970852D02*
X107930985Y-134923233D01*
X107978604Y-134875614D01*
X108026223Y-134780376D01*
X108026223Y-134732757D01*
X107978604Y-134637519D01*
X107930985Y-134589900D01*
X107835747Y-134542280D01*
X107645271Y-134542280D01*
X107550033Y-134589900D01*
X107502414Y-134637519D01*
X107454795Y-134732757D01*
X107454795Y-134780376D01*
X107502414Y-134875614D01*
X107550033Y-134923233D01*
X107645271Y-134970852D01*
X107835747Y-134970852D01*
X107930985Y-135018471D01*
X107978604Y-135066090D01*
X108026223Y-135161328D01*
X108026223Y-135351804D01*
X107978604Y-135447042D01*
X107930985Y-135494661D01*
X107835747Y-135542280D01*
X107645271Y-135542280D01*
X107550033Y-135494661D01*
X107502414Y-135447042D01*
X107454795Y-135351804D01*
X107454795Y-135161328D01*
X107502414Y-135066090D01*
X107550033Y-135018471D01*
X107645271Y-134970852D01*
X101617904Y-133852380D02*
X101617904Y-132852380D01*
X101046476Y-133852380D02*
X101475047Y-133280952D01*
X101046476Y-132852380D02*
X101617904Y-133423809D01*
G04 #@! TO.C,D19*
X78484285Y-61412380D02*
X78484285Y-60412380D01*
X78246190Y-60412380D01*
X78103333Y-60460000D01*
X78008095Y-60555238D01*
X77960476Y-60650476D01*
X77912857Y-60840952D01*
X77912857Y-60983809D01*
X77960476Y-61174285D01*
X78008095Y-61269523D01*
X78103333Y-61364761D01*
X78246190Y-61412380D01*
X78484285Y-61412380D01*
X76960476Y-61412380D02*
X77531904Y-61412380D01*
X77246190Y-61412380D02*
X77246190Y-60412380D01*
X77341428Y-60555238D01*
X77436666Y-60650476D01*
X77531904Y-60698095D01*
X76484285Y-61412380D02*
X76293809Y-61412380D01*
X76198571Y-61364761D01*
X76150952Y-61317142D01*
X76055714Y-61174285D01*
X76008095Y-60983809D01*
X76008095Y-60602857D01*
X76055714Y-60507619D01*
X76103333Y-60460000D01*
X76198571Y-60412380D01*
X76389047Y-60412380D01*
X76484285Y-60460000D01*
X76531904Y-60507619D01*
X76579523Y-60602857D01*
X76579523Y-60840952D01*
X76531904Y-60936190D01*
X76484285Y-60983809D01*
X76389047Y-61031428D01*
X76198571Y-61031428D01*
X76103333Y-60983809D01*
X76055714Y-60936190D01*
X76008095Y-60840952D01*
X81152904Y-64285761D02*
X81010047Y-64333380D01*
X80771952Y-64333380D01*
X80676714Y-64285761D01*
X80629095Y-64238142D01*
X80581476Y-64142904D01*
X80581476Y-64047666D01*
X80629095Y-63952428D01*
X80676714Y-63904809D01*
X80771952Y-63857190D01*
X80962428Y-63809571D01*
X81057666Y-63761952D01*
X81105285Y-63714333D01*
X81152904Y-63619095D01*
X81152904Y-63523857D01*
X81105285Y-63428619D01*
X81057666Y-63381000D01*
X80962428Y-63333380D01*
X80724333Y-63333380D01*
X80581476Y-63381000D01*
X80105285Y-64333380D02*
X79914809Y-64333380D01*
X79819571Y-64285761D01*
X79771952Y-64238142D01*
X79676714Y-64095285D01*
X79629095Y-63904809D01*
X79629095Y-63523857D01*
X79676714Y-63428619D01*
X79724333Y-63381000D01*
X79819571Y-63333380D01*
X80010047Y-63333380D01*
X80105285Y-63381000D01*
X80152904Y-63428619D01*
X80200523Y-63523857D01*
X80200523Y-63761952D01*
X80152904Y-63857190D01*
X80105285Y-63904809D01*
X80010047Y-63952428D01*
X79819571Y-63952428D01*
X79724333Y-63904809D01*
X79676714Y-63857190D01*
X79629095Y-63761952D01*
X73931904Y-62732380D02*
X73931904Y-61732380D01*
X73360476Y-62732380D02*
X73789047Y-62160952D01*
X73360476Y-61732380D02*
X73931904Y-62303809D01*
G04 #@! TO.C,D20*
X78484285Y-71572380D02*
X78484285Y-70572380D01*
X78246190Y-70572380D01*
X78103333Y-70620000D01*
X78008095Y-70715238D01*
X77960476Y-70810476D01*
X77912857Y-71000952D01*
X77912857Y-71143809D01*
X77960476Y-71334285D01*
X78008095Y-71429523D01*
X78103333Y-71524761D01*
X78246190Y-71572380D01*
X78484285Y-71572380D01*
X77531904Y-70667619D02*
X77484285Y-70620000D01*
X77389047Y-70572380D01*
X77150952Y-70572380D01*
X77055714Y-70620000D01*
X77008095Y-70667619D01*
X76960476Y-70762857D01*
X76960476Y-70858095D01*
X77008095Y-71000952D01*
X77579523Y-71572380D01*
X76960476Y-71572380D01*
X76341428Y-70572380D02*
X76246190Y-70572380D01*
X76150952Y-70620000D01*
X76103333Y-70667619D01*
X76055714Y-70762857D01*
X76008095Y-70953333D01*
X76008095Y-71191428D01*
X76055714Y-71381904D01*
X76103333Y-71477142D01*
X76150952Y-71524761D01*
X76246190Y-71572380D01*
X76341428Y-71572380D01*
X76436666Y-71524761D01*
X76484285Y-71477142D01*
X76531904Y-71381904D01*
X76579523Y-71191428D01*
X76579523Y-70953333D01*
X76531904Y-70762857D01*
X76484285Y-70667619D01*
X76436666Y-70620000D01*
X76341428Y-70572380D01*
X82010095Y-74572761D02*
X81867238Y-74620380D01*
X81629142Y-74620380D01*
X81533904Y-74572761D01*
X81486285Y-74525142D01*
X81438666Y-74429904D01*
X81438666Y-74334666D01*
X81486285Y-74239428D01*
X81533904Y-74191809D01*
X81629142Y-74144190D01*
X81819619Y-74096571D01*
X81914857Y-74048952D01*
X81962476Y-74001333D01*
X82010095Y-73906095D01*
X82010095Y-73810857D01*
X81962476Y-73715619D01*
X81914857Y-73668000D01*
X81819619Y-73620380D01*
X81581523Y-73620380D01*
X81438666Y-73668000D01*
X80486285Y-74620380D02*
X81057714Y-74620380D01*
X80772000Y-74620380D02*
X80772000Y-73620380D01*
X80867238Y-73763238D01*
X80962476Y-73858476D01*
X81057714Y-73906095D01*
X79867238Y-73620380D02*
X79772000Y-73620380D01*
X79676761Y-73668000D01*
X79629142Y-73715619D01*
X79581523Y-73810857D01*
X79533904Y-74001333D01*
X79533904Y-74239428D01*
X79581523Y-74429904D01*
X79629142Y-74525142D01*
X79676761Y-74572761D01*
X79772000Y-74620380D01*
X79867238Y-74620380D01*
X79962476Y-74572761D01*
X80010095Y-74525142D01*
X80057714Y-74429904D01*
X80105333Y-74239428D01*
X80105333Y-74001333D01*
X80057714Y-73810857D01*
X80010095Y-73715619D01*
X79962476Y-73668000D01*
X79867238Y-73620380D01*
X73931904Y-72892380D02*
X73931904Y-71892380D01*
X73360476Y-72892380D02*
X73789047Y-72320952D01*
X73360476Y-71892380D02*
X73931904Y-72463809D01*
G04 #@! TO.C,D21*
X78484285Y-81732380D02*
X78484285Y-80732380D01*
X78246190Y-80732380D01*
X78103333Y-80780000D01*
X78008095Y-80875238D01*
X77960476Y-80970476D01*
X77912857Y-81160952D01*
X77912857Y-81303809D01*
X77960476Y-81494285D01*
X78008095Y-81589523D01*
X78103333Y-81684761D01*
X78246190Y-81732380D01*
X78484285Y-81732380D01*
X77531904Y-80827619D02*
X77484285Y-80780000D01*
X77389047Y-80732380D01*
X77150952Y-80732380D01*
X77055714Y-80780000D01*
X77008095Y-80827619D01*
X76960476Y-80922857D01*
X76960476Y-81018095D01*
X77008095Y-81160952D01*
X77579523Y-81732380D01*
X76960476Y-81732380D01*
X76008095Y-81732380D02*
X76579523Y-81732380D01*
X76293809Y-81732380D02*
X76293809Y-80732380D01*
X76389047Y-80875238D01*
X76484285Y-80970476D01*
X76579523Y-81018095D01*
X81895795Y-84720061D02*
X81752938Y-84767680D01*
X81514842Y-84767680D01*
X81419604Y-84720061D01*
X81371985Y-84672442D01*
X81324366Y-84577204D01*
X81324366Y-84481966D01*
X81371985Y-84386728D01*
X81419604Y-84339109D01*
X81514842Y-84291490D01*
X81705319Y-84243871D01*
X81800557Y-84196252D01*
X81848176Y-84148633D01*
X81895795Y-84053395D01*
X81895795Y-83958157D01*
X81848176Y-83862919D01*
X81800557Y-83815300D01*
X81705319Y-83767680D01*
X81467223Y-83767680D01*
X81324366Y-83815300D01*
X80371985Y-84767680D02*
X80943414Y-84767680D01*
X80657700Y-84767680D02*
X80657700Y-83767680D01*
X80752938Y-83910538D01*
X80848176Y-84005776D01*
X80943414Y-84053395D01*
X79419604Y-84767680D02*
X79991033Y-84767680D01*
X79705319Y-84767680D02*
X79705319Y-83767680D01*
X79800557Y-83910538D01*
X79895795Y-84005776D01*
X79991033Y-84053395D01*
X73931904Y-83052380D02*
X73931904Y-82052380D01*
X73360476Y-83052380D02*
X73789047Y-82480952D01*
X73360476Y-82052380D02*
X73931904Y-82623809D01*
G04 #@! TO.C,D22*
X78484285Y-91892380D02*
X78484285Y-90892380D01*
X78246190Y-90892380D01*
X78103333Y-90940000D01*
X78008095Y-91035238D01*
X77960476Y-91130476D01*
X77912857Y-91320952D01*
X77912857Y-91463809D01*
X77960476Y-91654285D01*
X78008095Y-91749523D01*
X78103333Y-91844761D01*
X78246190Y-91892380D01*
X78484285Y-91892380D01*
X77531904Y-90987619D02*
X77484285Y-90940000D01*
X77389047Y-90892380D01*
X77150952Y-90892380D01*
X77055714Y-90940000D01*
X77008095Y-90987619D01*
X76960476Y-91082857D01*
X76960476Y-91178095D01*
X77008095Y-91320952D01*
X77579523Y-91892380D01*
X76960476Y-91892380D01*
X76579523Y-90987619D02*
X76531904Y-90940000D01*
X76436666Y-90892380D01*
X76198571Y-90892380D01*
X76103333Y-90940000D01*
X76055714Y-90987619D01*
X76008095Y-91082857D01*
X76008095Y-91178095D01*
X76055714Y-91320952D01*
X76627142Y-91892380D01*
X76008095Y-91892380D01*
X82035495Y-94981661D02*
X81892638Y-95029280D01*
X81654542Y-95029280D01*
X81559304Y-94981661D01*
X81511685Y-94934042D01*
X81464066Y-94838804D01*
X81464066Y-94743566D01*
X81511685Y-94648328D01*
X81559304Y-94600709D01*
X81654542Y-94553090D01*
X81845019Y-94505471D01*
X81940257Y-94457852D01*
X81987876Y-94410233D01*
X82035495Y-94314995D01*
X82035495Y-94219757D01*
X81987876Y-94124519D01*
X81940257Y-94076900D01*
X81845019Y-94029280D01*
X81606923Y-94029280D01*
X81464066Y-94076900D01*
X80511685Y-95029280D02*
X81083114Y-95029280D01*
X80797400Y-95029280D02*
X80797400Y-94029280D01*
X80892638Y-94172138D01*
X80987876Y-94267376D01*
X81083114Y-94314995D01*
X80130733Y-94124519D02*
X80083114Y-94076900D01*
X79987876Y-94029280D01*
X79749780Y-94029280D01*
X79654542Y-94076900D01*
X79606923Y-94124519D01*
X79559304Y-94219757D01*
X79559304Y-94314995D01*
X79606923Y-94457852D01*
X80178352Y-95029280D01*
X79559304Y-95029280D01*
X73931904Y-93212380D02*
X73931904Y-92212380D01*
X73360476Y-93212380D02*
X73789047Y-92640952D01*
X73360476Y-92212380D02*
X73931904Y-92783809D01*
G04 #@! TO.C,D23*
X78435285Y-102040380D02*
X78435285Y-101040380D01*
X78197190Y-101040380D01*
X78054333Y-101088000D01*
X77959095Y-101183238D01*
X77911476Y-101278476D01*
X77863857Y-101468952D01*
X77863857Y-101611809D01*
X77911476Y-101802285D01*
X77959095Y-101897523D01*
X78054333Y-101992761D01*
X78197190Y-102040380D01*
X78435285Y-102040380D01*
X77482904Y-101135619D02*
X77435285Y-101088000D01*
X77340047Y-101040380D01*
X77101952Y-101040380D01*
X77006714Y-101088000D01*
X76959095Y-101135619D01*
X76911476Y-101230857D01*
X76911476Y-101326095D01*
X76959095Y-101468952D01*
X77530523Y-102040380D01*
X76911476Y-102040380D01*
X76578142Y-101040380D02*
X75959095Y-101040380D01*
X76292428Y-101421333D01*
X76149571Y-101421333D01*
X76054333Y-101468952D01*
X76006714Y-101516571D01*
X75959095Y-101611809D01*
X75959095Y-101849904D01*
X76006714Y-101945142D01*
X76054333Y-101992761D01*
X76149571Y-102040380D01*
X76435285Y-102040380D01*
X76530523Y-101992761D01*
X76578142Y-101945142D01*
X82035495Y-105078161D02*
X81892638Y-105125780D01*
X81654542Y-105125780D01*
X81559304Y-105078161D01*
X81511685Y-105030542D01*
X81464066Y-104935304D01*
X81464066Y-104840066D01*
X81511685Y-104744828D01*
X81559304Y-104697209D01*
X81654542Y-104649590D01*
X81845019Y-104601971D01*
X81940257Y-104554352D01*
X81987876Y-104506733D01*
X82035495Y-104411495D01*
X82035495Y-104316257D01*
X81987876Y-104221019D01*
X81940257Y-104173400D01*
X81845019Y-104125780D01*
X81606923Y-104125780D01*
X81464066Y-104173400D01*
X80511685Y-105125780D02*
X81083114Y-105125780D01*
X80797400Y-105125780D02*
X80797400Y-104125780D01*
X80892638Y-104268638D01*
X80987876Y-104363876D01*
X81083114Y-104411495D01*
X80178352Y-104125780D02*
X79559304Y-104125780D01*
X79892638Y-104506733D01*
X79749780Y-104506733D01*
X79654542Y-104554352D01*
X79606923Y-104601971D01*
X79559304Y-104697209D01*
X79559304Y-104935304D01*
X79606923Y-105030542D01*
X79654542Y-105078161D01*
X79749780Y-105125780D01*
X80035495Y-105125780D01*
X80130733Y-105078161D01*
X80178352Y-105030542D01*
X73882904Y-103360380D02*
X73882904Y-102360380D01*
X73311476Y-103360380D02*
X73740047Y-102788952D01*
X73311476Y-102360380D02*
X73882904Y-102931809D01*
G04 #@! TO.C,D24*
X78484285Y-112212380D02*
X78484285Y-111212380D01*
X78246190Y-111212380D01*
X78103333Y-111260000D01*
X78008095Y-111355238D01*
X77960476Y-111450476D01*
X77912857Y-111640952D01*
X77912857Y-111783809D01*
X77960476Y-111974285D01*
X78008095Y-112069523D01*
X78103333Y-112164761D01*
X78246190Y-112212380D01*
X78484285Y-112212380D01*
X77531904Y-111307619D02*
X77484285Y-111260000D01*
X77389047Y-111212380D01*
X77150952Y-111212380D01*
X77055714Y-111260000D01*
X77008095Y-111307619D01*
X76960476Y-111402857D01*
X76960476Y-111498095D01*
X77008095Y-111640952D01*
X77579523Y-112212380D01*
X76960476Y-112212380D01*
X76103333Y-111545714D02*
X76103333Y-112212380D01*
X76341428Y-111164761D02*
X76579523Y-111879047D01*
X75960476Y-111879047D01*
X82022795Y-115085761D02*
X81879938Y-115133380D01*
X81641842Y-115133380D01*
X81546604Y-115085761D01*
X81498985Y-115038142D01*
X81451366Y-114942904D01*
X81451366Y-114847666D01*
X81498985Y-114752428D01*
X81546604Y-114704809D01*
X81641842Y-114657190D01*
X81832319Y-114609571D01*
X81927557Y-114561952D01*
X81975176Y-114514333D01*
X82022795Y-114419095D01*
X82022795Y-114323857D01*
X81975176Y-114228619D01*
X81927557Y-114181000D01*
X81832319Y-114133380D01*
X81594223Y-114133380D01*
X81451366Y-114181000D01*
X80498985Y-115133380D02*
X81070414Y-115133380D01*
X80784700Y-115133380D02*
X80784700Y-114133380D01*
X80879938Y-114276238D01*
X80975176Y-114371476D01*
X81070414Y-114419095D01*
X79641842Y-114466714D02*
X79641842Y-115133380D01*
X79879938Y-114085761D02*
X80118033Y-114800047D01*
X79498985Y-114800047D01*
X73931904Y-113532380D02*
X73931904Y-112532380D01*
X73360476Y-113532380D02*
X73789047Y-112960952D01*
X73360476Y-112532380D02*
X73931904Y-113103809D01*
G04 #@! TO.C,D25*
X78486085Y-122372380D02*
X78486085Y-121372380D01*
X78247990Y-121372380D01*
X78105133Y-121420000D01*
X78009895Y-121515238D01*
X77962276Y-121610476D01*
X77914657Y-121800952D01*
X77914657Y-121943809D01*
X77962276Y-122134285D01*
X78009895Y-122229523D01*
X78105133Y-122324761D01*
X78247990Y-122372380D01*
X78486085Y-122372380D01*
X77533704Y-121467619D02*
X77486085Y-121420000D01*
X77390847Y-121372380D01*
X77152752Y-121372380D01*
X77057514Y-121420000D01*
X77009895Y-121467619D01*
X76962276Y-121562857D01*
X76962276Y-121658095D01*
X77009895Y-121800952D01*
X77581323Y-122372380D01*
X76962276Y-122372380D01*
X76057514Y-121372380D02*
X76533704Y-121372380D01*
X76581323Y-121848571D01*
X76533704Y-121800952D01*
X76438466Y-121753333D01*
X76200371Y-121753333D01*
X76105133Y-121800952D01*
X76057514Y-121848571D01*
X76009895Y-121943809D01*
X76009895Y-122181904D01*
X76057514Y-122277142D01*
X76105133Y-122324761D01*
X76200371Y-122372380D01*
X76438466Y-122372380D01*
X76533704Y-122324761D01*
X76581323Y-122277142D01*
X82215095Y-125487061D02*
X82072238Y-125534680D01*
X81834142Y-125534680D01*
X81738904Y-125487061D01*
X81691285Y-125439442D01*
X81643666Y-125344204D01*
X81643666Y-125248966D01*
X81691285Y-125153728D01*
X81738904Y-125106109D01*
X81834142Y-125058490D01*
X82024619Y-125010871D01*
X82119857Y-124963252D01*
X82167476Y-124915633D01*
X82215095Y-124820395D01*
X82215095Y-124725157D01*
X82167476Y-124629919D01*
X82119857Y-124582300D01*
X82024619Y-124534680D01*
X81786523Y-124534680D01*
X81643666Y-124582300D01*
X80691285Y-125534680D02*
X81262714Y-125534680D01*
X80977000Y-125534680D02*
X80977000Y-124534680D01*
X81072238Y-124677538D01*
X81167476Y-124772776D01*
X81262714Y-124820395D01*
X79786523Y-124534680D02*
X80262714Y-124534680D01*
X80310333Y-125010871D01*
X80262714Y-124963252D01*
X80167476Y-124915633D01*
X79929380Y-124915633D01*
X79834142Y-124963252D01*
X79786523Y-125010871D01*
X79738904Y-125106109D01*
X79738904Y-125344204D01*
X79786523Y-125439442D01*
X79834142Y-125487061D01*
X79929380Y-125534680D01*
X80167476Y-125534680D01*
X80262714Y-125487061D01*
X80310333Y-125439442D01*
X73933704Y-123692380D02*
X73933704Y-122692380D01*
X73362276Y-123692380D02*
X73790847Y-123120952D01*
X73362276Y-122692380D02*
X73933704Y-123263809D01*
G04 #@! TO.C,D26*
X78484285Y-132532380D02*
X78484285Y-131532380D01*
X78246190Y-131532380D01*
X78103333Y-131580000D01*
X78008095Y-131675238D01*
X77960476Y-131770476D01*
X77912857Y-131960952D01*
X77912857Y-132103809D01*
X77960476Y-132294285D01*
X78008095Y-132389523D01*
X78103333Y-132484761D01*
X78246190Y-132532380D01*
X78484285Y-132532380D01*
X77531904Y-131627619D02*
X77484285Y-131580000D01*
X77389047Y-131532380D01*
X77150952Y-131532380D01*
X77055714Y-131580000D01*
X77008095Y-131627619D01*
X76960476Y-131722857D01*
X76960476Y-131818095D01*
X77008095Y-131960952D01*
X77579523Y-132532380D01*
X76960476Y-132532380D01*
X76103333Y-131532380D02*
X76293809Y-131532380D01*
X76389047Y-131580000D01*
X76436666Y-131627619D01*
X76531904Y-131770476D01*
X76579523Y-131960952D01*
X76579523Y-132341904D01*
X76531904Y-132437142D01*
X76484285Y-132484761D01*
X76389047Y-132532380D01*
X76198571Y-132532380D01*
X76103333Y-132484761D01*
X76055714Y-132437142D01*
X76008095Y-132341904D01*
X76008095Y-132103809D01*
X76055714Y-132008571D01*
X76103333Y-131960952D01*
X76198571Y-131913333D01*
X76389047Y-131913333D01*
X76484285Y-131960952D01*
X76531904Y-132008571D01*
X76579523Y-132103809D01*
X81959295Y-135621661D02*
X81816438Y-135669280D01*
X81578342Y-135669280D01*
X81483104Y-135621661D01*
X81435485Y-135574042D01*
X81387866Y-135478804D01*
X81387866Y-135383566D01*
X81435485Y-135288328D01*
X81483104Y-135240709D01*
X81578342Y-135193090D01*
X81768819Y-135145471D01*
X81864057Y-135097852D01*
X81911676Y-135050233D01*
X81959295Y-134954995D01*
X81959295Y-134859757D01*
X81911676Y-134764519D01*
X81864057Y-134716900D01*
X81768819Y-134669280D01*
X81530723Y-134669280D01*
X81387866Y-134716900D01*
X80435485Y-135669280D02*
X81006914Y-135669280D01*
X80721200Y-135669280D02*
X80721200Y-134669280D01*
X80816438Y-134812138D01*
X80911676Y-134907376D01*
X81006914Y-134954995D01*
X79578342Y-134669280D02*
X79768819Y-134669280D01*
X79864057Y-134716900D01*
X79911676Y-134764519D01*
X80006914Y-134907376D01*
X80054533Y-135097852D01*
X80054533Y-135478804D01*
X80006914Y-135574042D01*
X79959295Y-135621661D01*
X79864057Y-135669280D01*
X79673580Y-135669280D01*
X79578342Y-135621661D01*
X79530723Y-135574042D01*
X79483104Y-135478804D01*
X79483104Y-135240709D01*
X79530723Y-135145471D01*
X79578342Y-135097852D01*
X79673580Y-135050233D01*
X79864057Y-135050233D01*
X79959295Y-135097852D01*
X80006914Y-135145471D01*
X80054533Y-135240709D01*
X73931904Y-133852380D02*
X73931904Y-132852380D01*
X73360476Y-133852380D02*
X73789047Y-133280952D01*
X73360476Y-132852380D02*
X73931904Y-133423809D01*
G04 #@! TD*
M02*
