G04 #@! TF.FileFunction,Soldermask,Top*
%FSLAX46Y46*%
G04 Gerber Fmt 4.6, Leading zero omitted, Abs format (unit mm)*
G04 Created by KiCad (PCBNEW 4.0.5) date Monday, May 22, 2017 'PMt' 05:48:01 PM*
%MOMM*%
%LPD*%
G01*
G04 APERTURE LIST*
%ADD10C,0.100000*%
%ADD11R,2.000000X2.700000*%
%ADD12O,2.000000X2.700000*%
%ADD13R,2.700000X2.000000*%
%ADD14O,2.700000X2.000000*%
%ADD15R,2.127200X2.127200*%
%ADD16O,2.127200X2.127200*%
%ADD17R,1.700000X1.700000*%
%ADD18C,1.700000*%
%ADD19C,2.398980*%
%ADD20R,2.398980X2.398980*%
%ADD21R,1.800000X1.800000*%
%ADD22C,1.800000*%
%ADD23C,1.906220*%
%ADD24C,3.575000*%
%ADD25C,1.924000*%
G04 APERTURE END LIST*
D10*
D11*
X119253000Y-113919000D03*
D12*
X121793000Y-113919000D03*
X124333000Y-113919000D03*
X126873000Y-113919000D03*
X129413000Y-113919000D03*
X131953000Y-113919000D03*
X134493000Y-113919000D03*
X137033000Y-113919000D03*
X137033000Y-106299000D03*
X134493000Y-106299000D03*
X131953000Y-106299000D03*
X129413000Y-106299000D03*
X126873000Y-106299000D03*
X124333000Y-106299000D03*
X121793000Y-106299000D03*
X119253000Y-106299000D03*
D13*
X91973400Y-66116200D03*
D14*
X91973400Y-68656200D03*
X91973400Y-71196200D03*
X91973400Y-73736200D03*
X91973400Y-76276200D03*
X91973400Y-78816200D03*
X91973400Y-81356200D03*
X91973400Y-83896200D03*
X99593400Y-83896200D03*
X99593400Y-81356200D03*
X99593400Y-78816200D03*
X99593400Y-76276200D03*
X99593400Y-73736200D03*
X99593400Y-71196200D03*
X99593400Y-68656200D03*
X99593400Y-66116200D03*
D15*
X107569000Y-102108000D03*
D16*
X105029000Y-102108000D03*
X107569000Y-104648000D03*
X105029000Y-104648000D03*
X107569000Y-107188000D03*
X105029000Y-107188000D03*
X107569000Y-109728000D03*
X105029000Y-109728000D03*
X107569000Y-112268000D03*
X105029000Y-112268000D03*
X107569000Y-114808000D03*
X105029000Y-114808000D03*
X107569000Y-117348000D03*
X105029000Y-117348000D03*
X107569000Y-119888000D03*
X105029000Y-119888000D03*
D17*
X92837000Y-120205500D03*
D18*
X95337000Y-120205500D03*
D17*
X95885000Y-146113500D03*
D18*
X93385000Y-146113500D03*
D17*
X150393400Y-73863200D03*
D18*
X145393400Y-73863200D03*
D17*
X98323400Y-62306200D03*
D18*
X93323400Y-62306200D03*
D17*
X115189000Y-107315000D03*
D18*
X115189000Y-112315000D03*
D17*
X88544400Y-115138200D03*
D18*
X93544400Y-115138200D03*
D17*
X150393400Y-58750200D03*
D18*
X145393400Y-58750200D03*
D17*
X157480000Y-79502000D03*
D18*
X157480000Y-82002000D03*
D17*
X136931400Y-58496200D03*
D18*
X131931400Y-58496200D03*
D17*
X131724400Y-73609200D03*
D18*
X136724400Y-73609200D03*
D17*
X153060400Y-133553200D03*
D18*
X158060400Y-133553200D03*
D17*
X146329400Y-78943200D03*
D18*
X151329400Y-78943200D03*
D17*
X98323400Y-59639200D03*
D18*
X93323400Y-59639200D03*
D19*
X96141540Y-138493500D03*
D20*
X96141540Y-128333500D03*
D19*
X92839540Y-139001500D03*
D20*
X92839540Y-128841500D03*
D21*
X83947000Y-120205500D03*
D22*
X88947000Y-120205500D03*
D21*
X83439000Y-146113500D03*
D22*
X88439000Y-146113500D03*
D15*
X138049000Y-84328000D03*
D16*
X135509000Y-84328000D03*
X138049000Y-86868000D03*
X135509000Y-86868000D03*
D19*
X155727400Y-75260200D03*
X155727400Y-65100200D03*
X158521400Y-65100200D03*
X158521400Y-75260200D03*
X114706400Y-92786200D03*
X124866400Y-92786200D03*
X84226400Y-84658200D03*
X84226400Y-74498200D03*
X101117400Y-56591200D03*
X90957400Y-56591200D03*
D13*
X144018000Y-62484000D03*
D14*
X144018000Y-65024000D03*
X144018000Y-67564000D03*
X144018000Y-70104000D03*
X151638000Y-70104000D03*
X151638000Y-67564000D03*
X151638000Y-65024000D03*
X151638000Y-62484000D03*
D13*
X94894400Y-111328200D03*
D14*
X94894400Y-108788200D03*
X94894400Y-106248200D03*
X94894400Y-103708200D03*
X94894400Y-101168200D03*
X94894400Y-98628200D03*
X94894400Y-96088200D03*
X94894400Y-93548200D03*
X87274400Y-93548200D03*
X87274400Y-96088200D03*
X87274400Y-98628200D03*
X87274400Y-101168200D03*
X87274400Y-103708200D03*
X87274400Y-106248200D03*
X87274400Y-108788200D03*
X87274400Y-111328200D03*
D23*
X87503000Y-138239500D03*
X84963000Y-138239500D03*
X87503000Y-135699500D03*
X84963000Y-135699500D03*
X87503000Y-133159500D03*
X84963000Y-133159500D03*
X87503000Y-130619500D03*
X84963000Y-130619500D03*
X87503000Y-128079500D03*
X84963000Y-128079500D03*
D24*
X86207600Y-139179300D03*
X86207600Y-135216900D03*
X86207600Y-131254500D03*
X86207600Y-127292100D03*
D15*
X138049000Y-89408000D03*
D16*
X135509000Y-89408000D03*
X138049000Y-91948000D03*
X135509000Y-91948000D03*
X138049000Y-94488000D03*
X135509000Y-94488000D03*
D15*
X138074400Y-97104200D03*
D16*
X135534400Y-97104200D03*
X138074400Y-99644200D03*
X135534400Y-99644200D03*
D25*
X111277400Y-92151200D03*
X111277400Y-89611200D03*
X111277400Y-94691200D03*
X85496400Y-67640200D03*
X85496400Y-65100200D03*
X85496400Y-70180200D03*
X145694400Y-115519200D03*
X143154400Y-115519200D03*
X148234400Y-115519200D03*
X111023400Y-67767200D03*
X111023400Y-65227200D03*
X111023400Y-70307200D03*
X111023400Y-60528200D03*
X111023400Y-57988200D03*
X111023400Y-63068200D03*
X111150400Y-83515200D03*
X111150400Y-80975200D03*
X111150400Y-86055200D03*
X111150400Y-75895200D03*
X111150400Y-73355200D03*
X111150400Y-78435200D03*
D19*
X114706400Y-89738200D03*
X124866400Y-89738200D03*
X87401400Y-74498200D03*
X87401400Y-84658200D03*
X147218400Y-101803200D03*
X147218400Y-111963200D03*
X144170400Y-111963200D03*
X144170400Y-101803200D03*
X124612400Y-66624200D03*
X114452400Y-66624200D03*
X124612400Y-60655200D03*
X114452400Y-60655200D03*
X114452400Y-63576200D03*
X124612400Y-63576200D03*
X105308400Y-59385200D03*
X105308400Y-69545200D03*
X124612400Y-82118200D03*
X114452400Y-82118200D03*
X124612400Y-76276200D03*
X114452400Y-76276200D03*
X114452400Y-79197200D03*
X124612400Y-79197200D03*
X105181400Y-84658200D03*
X105181400Y-74498200D03*
D13*
X138201400Y-69926200D03*
D14*
X138201400Y-67386200D03*
X138201400Y-64846200D03*
X138201400Y-62306200D03*
X130581400Y-62306200D03*
X130581400Y-64846200D03*
X130581400Y-67386200D03*
X130581400Y-69926200D03*
D13*
X144932400Y-82626200D03*
D14*
X144932400Y-85166200D03*
X144932400Y-87706200D03*
X144932400Y-90246200D03*
X152552400Y-90246200D03*
X152552400Y-87706200D03*
X152552400Y-85166200D03*
X152552400Y-82626200D03*
D13*
X151663400Y-99009200D03*
D14*
X151663400Y-101549200D03*
X151663400Y-104089200D03*
X151663400Y-106629200D03*
X151663400Y-109169200D03*
X151663400Y-111709200D03*
X151663400Y-114249200D03*
X159283400Y-114249200D03*
X159283400Y-111709200D03*
X159283400Y-109169200D03*
X159283400Y-106629200D03*
X159283400Y-104089200D03*
X159283400Y-101549200D03*
X159283400Y-99009200D03*
D13*
X159410400Y-129743200D03*
D14*
X159410400Y-127203200D03*
X159410400Y-124663200D03*
X159410400Y-122123200D03*
X151790400Y-122123200D03*
X151790400Y-124663200D03*
X151790400Y-127203200D03*
X151790400Y-129743200D03*
D17*
X158013400Y-95326200D03*
D18*
X153013400Y-95326200D03*
D17*
X153060400Y-118059200D03*
D18*
X158060400Y-118059200D03*
M02*
