G04 #@! TF.FileFunction,Copper,L2,Bot,Signal*
%FSLAX46Y46*%
G04 Gerber Fmt 4.6, Leading zero omitted, Abs format (unit mm)*
G04 Created by KiCad (PCBNEW 4.0.5) date Monday, May 22, 2017 'PMt' 05:48:01 PM*
%MOMM*%
%LPD*%
G01*
G04 APERTURE LIST*
%ADD10C,0.100000*%
%ADD11C,0.600000*%
%ADD12R,1.600000X2.300000*%
%ADD13O,1.600000X2.300000*%
%ADD14R,2.300000X1.600000*%
%ADD15O,2.300000X1.600000*%
%ADD16R,1.727200X1.727200*%
%ADD17O,1.727200X1.727200*%
%ADD18R,1.300000X1.300000*%
%ADD19C,1.300000*%
%ADD20C,1.998980*%
%ADD21R,1.998980X1.998980*%
%ADD22R,1.400000X1.400000*%
%ADD23C,1.400000*%
%ADD24C,1.506220*%
%ADD25C,3.175000*%
%ADD26C,1.524000*%
%ADD27C,0.406400*%
%ADD28C,0.250000*%
%ADD29C,0.254000*%
G04 APERTURE END LIST*
D10*
D11*
X129565400Y-75577700D03*
X97370900Y-86817200D03*
D12*
X119253000Y-113919000D03*
D13*
X121793000Y-113919000D03*
X124333000Y-113919000D03*
X126873000Y-113919000D03*
X129413000Y-113919000D03*
X131953000Y-113919000D03*
X134493000Y-113919000D03*
X137033000Y-113919000D03*
X137033000Y-106299000D03*
X134493000Y-106299000D03*
X131953000Y-106299000D03*
X129413000Y-106299000D03*
X126873000Y-106299000D03*
X124333000Y-106299000D03*
X121793000Y-106299000D03*
X119253000Y-106299000D03*
D14*
X91973400Y-66116200D03*
D15*
X91973400Y-68656200D03*
X91973400Y-71196200D03*
X91973400Y-73736200D03*
X91973400Y-76276200D03*
X91973400Y-78816200D03*
X91973400Y-81356200D03*
X91973400Y-83896200D03*
X99593400Y-83896200D03*
X99593400Y-81356200D03*
X99593400Y-78816200D03*
X99593400Y-76276200D03*
X99593400Y-73736200D03*
X99593400Y-71196200D03*
X99593400Y-68656200D03*
X99593400Y-66116200D03*
D16*
X107569000Y-102108000D03*
D17*
X105029000Y-102108000D03*
X107569000Y-104648000D03*
X105029000Y-104648000D03*
X107569000Y-107188000D03*
X105029000Y-107188000D03*
X107569000Y-109728000D03*
X105029000Y-109728000D03*
X107569000Y-112268000D03*
X105029000Y-112268000D03*
X107569000Y-114808000D03*
X105029000Y-114808000D03*
X107569000Y-117348000D03*
X105029000Y-117348000D03*
X107569000Y-119888000D03*
X105029000Y-119888000D03*
D18*
X92837000Y-120205500D03*
D19*
X95337000Y-120205500D03*
D18*
X95885000Y-146113500D03*
D19*
X93385000Y-146113500D03*
D18*
X150393400Y-73863200D03*
D19*
X145393400Y-73863200D03*
D18*
X98323400Y-62306200D03*
D19*
X93323400Y-62306200D03*
D18*
X115189000Y-107315000D03*
D19*
X115189000Y-112315000D03*
D18*
X88544400Y-115138200D03*
D19*
X93544400Y-115138200D03*
D18*
X150393400Y-58750200D03*
D19*
X145393400Y-58750200D03*
D18*
X157480000Y-79502000D03*
D19*
X157480000Y-82002000D03*
D18*
X136931400Y-58496200D03*
D19*
X131931400Y-58496200D03*
D18*
X131724400Y-73609200D03*
D19*
X136724400Y-73609200D03*
D18*
X153060400Y-133553200D03*
D19*
X158060400Y-133553200D03*
D18*
X146329400Y-78943200D03*
D19*
X151329400Y-78943200D03*
D18*
X98323400Y-59639200D03*
D19*
X93323400Y-59639200D03*
D20*
X96141540Y-138493500D03*
D21*
X96141540Y-128333500D03*
D20*
X92839540Y-139001500D03*
D21*
X92839540Y-128841500D03*
D22*
X83947000Y-120205500D03*
D23*
X88947000Y-120205500D03*
D22*
X83439000Y-146113500D03*
D23*
X88439000Y-146113500D03*
D16*
X138049000Y-84328000D03*
D17*
X135509000Y-84328000D03*
X138049000Y-86868000D03*
X135509000Y-86868000D03*
D20*
X155727400Y-75260200D03*
X155727400Y-65100200D03*
X158521400Y-65100200D03*
X158521400Y-75260200D03*
X114706400Y-92786200D03*
X124866400Y-92786200D03*
X84226400Y-84658200D03*
X84226400Y-74498200D03*
X101117400Y-56591200D03*
X90957400Y-56591200D03*
D14*
X144018000Y-62484000D03*
D15*
X144018000Y-65024000D03*
X144018000Y-67564000D03*
X144018000Y-70104000D03*
X151638000Y-70104000D03*
X151638000Y-67564000D03*
X151638000Y-65024000D03*
X151638000Y-62484000D03*
D14*
X94894400Y-111328200D03*
D15*
X94894400Y-108788200D03*
X94894400Y-106248200D03*
X94894400Y-103708200D03*
X94894400Y-101168200D03*
X94894400Y-98628200D03*
X94894400Y-96088200D03*
X94894400Y-93548200D03*
X87274400Y-93548200D03*
X87274400Y-96088200D03*
X87274400Y-98628200D03*
X87274400Y-101168200D03*
X87274400Y-103708200D03*
X87274400Y-106248200D03*
X87274400Y-108788200D03*
X87274400Y-111328200D03*
D24*
X87503000Y-138239500D03*
X84963000Y-138239500D03*
X87503000Y-135699500D03*
X84963000Y-135699500D03*
X87503000Y-133159500D03*
X84963000Y-133159500D03*
X87503000Y-130619500D03*
X84963000Y-130619500D03*
X87503000Y-128079500D03*
X84963000Y-128079500D03*
D25*
X86207600Y-139179300D03*
X86207600Y-135216900D03*
X86207600Y-131254500D03*
X86207600Y-127292100D03*
D16*
X138049000Y-89408000D03*
D17*
X135509000Y-89408000D03*
X138049000Y-91948000D03*
X135509000Y-91948000D03*
X138049000Y-94488000D03*
X135509000Y-94488000D03*
D16*
X138074400Y-97104200D03*
D17*
X135534400Y-97104200D03*
X138074400Y-99644200D03*
X135534400Y-99644200D03*
D26*
X111277400Y-92151200D03*
X111277400Y-89611200D03*
X111277400Y-94691200D03*
X85496400Y-67640200D03*
X85496400Y-65100200D03*
X85496400Y-70180200D03*
X145694400Y-115519200D03*
X143154400Y-115519200D03*
X148234400Y-115519200D03*
X111023400Y-67767200D03*
X111023400Y-65227200D03*
X111023400Y-70307200D03*
X111023400Y-60528200D03*
X111023400Y-57988200D03*
X111023400Y-63068200D03*
X111150400Y-83515200D03*
X111150400Y-80975200D03*
X111150400Y-86055200D03*
X111150400Y-75895200D03*
X111150400Y-73355200D03*
X111150400Y-78435200D03*
D20*
X114706400Y-89738200D03*
X124866400Y-89738200D03*
X87401400Y-74498200D03*
X87401400Y-84658200D03*
X147218400Y-101803200D03*
X147218400Y-111963200D03*
X144170400Y-111963200D03*
X144170400Y-101803200D03*
X124612400Y-66624200D03*
X114452400Y-66624200D03*
X124612400Y-60655200D03*
X114452400Y-60655200D03*
X114452400Y-63576200D03*
X124612400Y-63576200D03*
X105308400Y-59385200D03*
X105308400Y-69545200D03*
X124612400Y-82118200D03*
X114452400Y-82118200D03*
X124612400Y-76276200D03*
X114452400Y-76276200D03*
X114452400Y-79197200D03*
X124612400Y-79197200D03*
X105181400Y-84658200D03*
X105181400Y-74498200D03*
D14*
X138201400Y-69926200D03*
D15*
X138201400Y-67386200D03*
X138201400Y-64846200D03*
X138201400Y-62306200D03*
X130581400Y-62306200D03*
X130581400Y-64846200D03*
X130581400Y-67386200D03*
X130581400Y-69926200D03*
D14*
X144932400Y-82626200D03*
D15*
X144932400Y-85166200D03*
X144932400Y-87706200D03*
X144932400Y-90246200D03*
X152552400Y-90246200D03*
X152552400Y-87706200D03*
X152552400Y-85166200D03*
X152552400Y-82626200D03*
D14*
X151663400Y-99009200D03*
D15*
X151663400Y-101549200D03*
X151663400Y-104089200D03*
X151663400Y-106629200D03*
X151663400Y-109169200D03*
X151663400Y-111709200D03*
X151663400Y-114249200D03*
X159283400Y-114249200D03*
X159283400Y-111709200D03*
X159283400Y-109169200D03*
X159283400Y-106629200D03*
X159283400Y-104089200D03*
X159283400Y-101549200D03*
X159283400Y-99009200D03*
D14*
X159410400Y-129743200D03*
D15*
X159410400Y-127203200D03*
X159410400Y-124663200D03*
X159410400Y-122123200D03*
X151790400Y-122123200D03*
X151790400Y-124663200D03*
X151790400Y-127203200D03*
X151790400Y-129743200D03*
D18*
X158013400Y-95326200D03*
D19*
X153013400Y-95326200D03*
D18*
X153060400Y-118059200D03*
D19*
X158060400Y-118059200D03*
D11*
X140995400Y-92786200D03*
X127787400Y-88214200D03*
X126263400Y-86690200D03*
X155473400Y-111201200D03*
X130962400Y-90563700D03*
X124485400Y-84023200D03*
X139852400Y-107391200D03*
X118389400Y-98628200D03*
X144932400Y-98755200D03*
D27*
X119253000Y-106299000D02*
X119253000Y-108839000D01*
X119253000Y-108839000D02*
X124333000Y-113919000D01*
X115189000Y-107315000D02*
X118237000Y-107315000D01*
X118237000Y-107315000D02*
X119253000Y-106299000D01*
X119532400Y-106019600D02*
X119253000Y-106299000D01*
X99593400Y-83896200D02*
X99974400Y-83896200D01*
X99974400Y-83896200D02*
X105435400Y-78435200D01*
X105435400Y-78435200D02*
X111150400Y-78435200D01*
X146329400Y-78943200D02*
X148869400Y-78943200D01*
X148869400Y-78943200D02*
X152552400Y-82626200D01*
X144018000Y-70104000D02*
X144018000Y-76631800D01*
X144018000Y-76631800D02*
X146329400Y-78943200D01*
X144018000Y-70104000D02*
X151638000Y-62484000D01*
D28*
X126873000Y-106299000D02*
X126873000Y-105968800D01*
X126873000Y-105968800D02*
X123012200Y-102108000D01*
X123012200Y-102108000D02*
X107569000Y-102108000D01*
X107569000Y-104648000D02*
X122682000Y-104648000D01*
X122682000Y-104648000D02*
X124333000Y-106299000D01*
X107569000Y-112268000D02*
X107772200Y-112268000D01*
X107772200Y-112268000D02*
X109423200Y-113919000D01*
X109423200Y-113919000D02*
X119253000Y-113919000D01*
X107569000Y-117348000D02*
X118364000Y-117348000D01*
X118364000Y-117348000D02*
X121793000Y-113919000D01*
X107569000Y-119888000D02*
X120904000Y-119888000D01*
X120904000Y-119888000D02*
X126873000Y-113919000D01*
X87274400Y-101168200D02*
X92862400Y-101168200D01*
X96926400Y-101625400D02*
X105029000Y-109728000D01*
X96926400Y-101168200D02*
X96926400Y-101625400D01*
X95656400Y-99898200D02*
X96926400Y-101168200D01*
X94132400Y-99898200D02*
X95656400Y-99898200D01*
X92862400Y-101168200D02*
X94132400Y-99898200D01*
X94894400Y-101168200D02*
X97688400Y-103962200D01*
X103454200Y-114808000D02*
X105029000Y-114808000D01*
X97688400Y-109042200D02*
X103454200Y-114808000D01*
X97688400Y-103962200D02*
X97688400Y-109042200D01*
X94894400Y-108788200D02*
X96469200Y-108788200D01*
X96469200Y-108788200D02*
X105029000Y-117348000D01*
X94894400Y-103708200D02*
X92608400Y-105994200D01*
X100914200Y-119888000D02*
X105029000Y-119888000D01*
X92608400Y-111582200D02*
X100914200Y-119888000D01*
X92608400Y-111328200D02*
X92608400Y-111582200D01*
X92608400Y-105994200D02*
X92608400Y-111328200D01*
X111277400Y-92151200D02*
X111404400Y-92151200D01*
X111404400Y-92151200D02*
X112166400Y-91389200D01*
X112166400Y-91389200D02*
X123469400Y-91389200D01*
X123469400Y-91389200D02*
X124866400Y-92786200D01*
X127787400Y-88214200D02*
X126263400Y-86690200D01*
X87274400Y-98628200D02*
X92354400Y-98628200D01*
X127203200Y-101549200D02*
X131953000Y-106299000D01*
X110515400Y-101549200D02*
X127203200Y-101549200D01*
X106324400Y-97358200D02*
X110515400Y-101549200D01*
X93624400Y-97358200D02*
X106324400Y-97358200D01*
X92354400Y-98628200D02*
X93624400Y-97358200D01*
X87274400Y-96088200D02*
X92354400Y-96088200D01*
X129235200Y-101041200D02*
X134493000Y-106299000D01*
X110769400Y-101041200D02*
X129235200Y-101041200D01*
X104546400Y-94818200D02*
X110769400Y-101041200D01*
X93624400Y-94818200D02*
X104546400Y-94818200D01*
X92354400Y-96088200D02*
X93624400Y-94818200D01*
X87274400Y-93548200D02*
X88290400Y-93548200D01*
X88290400Y-93548200D02*
X97180400Y-84658200D01*
X97180400Y-73609200D02*
X99593400Y-71196200D01*
X97180400Y-84658200D02*
X97180400Y-73609200D01*
X87274400Y-93548200D02*
X92608400Y-93548200D01*
X131267200Y-100533200D02*
X137033000Y-106299000D01*
X111023400Y-100533200D02*
X131267200Y-100533200D01*
X102768400Y-92278200D02*
X111023400Y-100533200D01*
X93878400Y-92278200D02*
X102768400Y-92278200D01*
X92608400Y-93548200D02*
X93878400Y-92278200D01*
X114452400Y-82118200D02*
X115214400Y-82118200D01*
X115214400Y-82118200D02*
X124358400Y-91262200D01*
X124358400Y-91262200D02*
X134823200Y-91262200D01*
X134823200Y-91262200D02*
X135509000Y-91948000D01*
X138074400Y-97104200D02*
X138074400Y-97612200D01*
X138074400Y-97612200D02*
X150901400Y-110439200D01*
X150901400Y-110439200D02*
X154711400Y-110439200D01*
X154711400Y-110439200D02*
X155473400Y-111201200D01*
X135534400Y-97104200D02*
X136804400Y-95834200D01*
X151155400Y-95961200D02*
X159283400Y-104089200D01*
X139471400Y-95961200D02*
X151155400Y-95961200D01*
X139344400Y-95834200D02*
X139471400Y-95961200D01*
X136804400Y-95834200D02*
X139344400Y-95834200D01*
X138074400Y-99644200D02*
X138074400Y-103708200D01*
X155600400Y-123393200D02*
X159410400Y-127203200D01*
X145441798Y-123393200D02*
X155600400Y-123393200D01*
X141249400Y-119200802D02*
X145441798Y-123393200D01*
X141249400Y-106883200D02*
X141249400Y-119200802D01*
X138074400Y-103708200D02*
X141249400Y-106883200D01*
X159410400Y-129743200D02*
X159410400Y-127203200D01*
X135534400Y-99644200D02*
X135534400Y-101930200D01*
X146075400Y-124663200D02*
X151790400Y-124663200D01*
X140741400Y-119329200D02*
X146075400Y-124663200D01*
X140741400Y-107137200D02*
X140741400Y-119329200D01*
X135534400Y-101930200D02*
X140741400Y-107137200D01*
X151790400Y-127203200D02*
X151790400Y-124663200D01*
X99593400Y-81356200D02*
X99466400Y-81356200D01*
X99466400Y-81356200D02*
X97688400Y-83134200D01*
X102387400Y-89611200D02*
X111277400Y-89611200D01*
X97688400Y-84912200D02*
X102387400Y-89611200D01*
X97688400Y-83134200D02*
X97688400Y-84912200D01*
X99593400Y-81356200D02*
X99593400Y-81483200D01*
X111023400Y-57988200D02*
X111023400Y-58115200D01*
X111023400Y-58115200D02*
X105308400Y-63830200D01*
X105308400Y-63830200D02*
X105308400Y-69545200D01*
X111150400Y-75895200D02*
X111531400Y-75895200D01*
X111531400Y-75895200D02*
X113182400Y-74244200D01*
X113182400Y-74244200D02*
X122834400Y-74244200D01*
X122834400Y-74244200D02*
X124485400Y-75895200D01*
X130962400Y-90500200D02*
X130962400Y-90563700D01*
X124485400Y-84023200D02*
X130962400Y-90500200D01*
X139852400Y-107138598D02*
X139852400Y-107391200D01*
X132739002Y-100025200D02*
X139852400Y-107138598D01*
X119786400Y-100025200D02*
X132739002Y-100025200D01*
X118389400Y-98628200D02*
X119786400Y-100025200D01*
X138201400Y-67386200D02*
X138836400Y-67386200D01*
X138836400Y-67386200D02*
X140233400Y-68783200D01*
X140233400Y-83007200D02*
X144932400Y-87706200D01*
X140233400Y-68783200D02*
X140233400Y-83007200D01*
X152552400Y-85166200D02*
X152552400Y-87706200D01*
X159410400Y-124663200D02*
X159283400Y-124663200D01*
X159283400Y-124663200D02*
X156743400Y-122123200D01*
X156743400Y-122123200D02*
X156743400Y-112217200D01*
X156743400Y-112217200D02*
X159537400Y-109423200D01*
X151790400Y-122123200D02*
X151790400Y-116154200D01*
X157632400Y-108280200D02*
X159283400Y-106629200D01*
X157632400Y-110312200D02*
X157632400Y-108280200D01*
X151790400Y-116154200D02*
X157632400Y-110312200D01*
X144932400Y-98755200D02*
X145186400Y-99009200D01*
X145186400Y-99009200D02*
X151663400Y-99009200D01*
X151663400Y-99009200D02*
X151028400Y-99009200D01*
X151028400Y-99009200D02*
X149631400Y-100406200D01*
X149631400Y-100406200D02*
X149631400Y-107137200D01*
X149631400Y-107137200D02*
X151663400Y-109169200D01*
X114452400Y-66624200D02*
X117754400Y-66624200D01*
X134010400Y-87909400D02*
X135509000Y-89408000D01*
X134010400Y-82880200D02*
X134010400Y-87909400D01*
X117754400Y-66624200D02*
X134010400Y-82880200D01*
X135509000Y-89408000D02*
X135509000Y-89077800D01*
X135509000Y-89077800D02*
X137058400Y-90627200D01*
X137058400Y-90627200D02*
X142773400Y-90627200D01*
X142773400Y-90627200D02*
X145948400Y-93802200D01*
X145948400Y-93802200D02*
X153187400Y-93802200D01*
X153187400Y-93802200D02*
X157378400Y-97993200D01*
X157378400Y-97993200D02*
X157378400Y-99644200D01*
X157378400Y-99644200D02*
X159283400Y-101549200D01*
D29*
G36*
X160961000Y-98410456D02*
X160683068Y-97994502D01*
X160217521Y-97683433D01*
X159668370Y-97574200D01*
X158898430Y-97574200D01*
X158349279Y-97683433D01*
X158108752Y-97844149D01*
X158080548Y-97702361D01*
X157915801Y-97455799D01*
X155136202Y-94676200D01*
X156715960Y-94676200D01*
X156715960Y-95976200D01*
X156760238Y-96211517D01*
X156899310Y-96427641D01*
X157111510Y-96572631D01*
X157363400Y-96623640D01*
X158663400Y-96623640D01*
X158898717Y-96579362D01*
X159114841Y-96440290D01*
X159259831Y-96228090D01*
X159310840Y-95976200D01*
X159310840Y-94676200D01*
X159266562Y-94440883D01*
X159127490Y-94224759D01*
X158915290Y-94079769D01*
X158663400Y-94028760D01*
X157363400Y-94028760D01*
X157128083Y-94073038D01*
X156911959Y-94212110D01*
X156766969Y-94424310D01*
X156715960Y-94676200D01*
X155136202Y-94676200D01*
X153724801Y-93264799D01*
X153478239Y-93100052D01*
X153187400Y-93042200D01*
X146263202Y-93042200D01*
X144805400Y-91584398D01*
X144805400Y-90373200D01*
X145059400Y-90373200D01*
X145059400Y-91681200D01*
X145409400Y-91681200D01*
X145948883Y-91523366D01*
X146386900Y-91171096D01*
X146656767Y-90678019D01*
X146674304Y-90595239D01*
X150810496Y-90595239D01*
X150828033Y-90678019D01*
X151097900Y-91171096D01*
X151535917Y-91523366D01*
X152075400Y-91681200D01*
X152425400Y-91681200D01*
X152425400Y-90373200D01*
X152679400Y-90373200D01*
X152679400Y-91681200D01*
X153029400Y-91681200D01*
X153568883Y-91523366D01*
X154006900Y-91171096D01*
X154276767Y-90678019D01*
X154294304Y-90595239D01*
X154172315Y-90373200D01*
X152679400Y-90373200D01*
X152425400Y-90373200D01*
X150932485Y-90373200D01*
X150810496Y-90595239D01*
X146674304Y-90595239D01*
X146552315Y-90373200D01*
X145059400Y-90373200D01*
X144805400Y-90373200D01*
X144785400Y-90373200D01*
X144785400Y-90119200D01*
X144805400Y-90119200D01*
X144805400Y-90099200D01*
X145059400Y-90099200D01*
X145059400Y-90119200D01*
X146552315Y-90119200D01*
X146674304Y-89897161D01*
X146656767Y-89814381D01*
X146386900Y-89321304D01*
X145954249Y-88973349D01*
X146332068Y-88720898D01*
X146643137Y-88255351D01*
X146752370Y-87706200D01*
X146643137Y-87157049D01*
X146332068Y-86691502D01*
X145949982Y-86436200D01*
X146332068Y-86180898D01*
X146643137Y-85715351D01*
X146752370Y-85166200D01*
X146643137Y-84617049D01*
X146332068Y-84151502D01*
X146186285Y-84054093D01*
X146317717Y-84029362D01*
X146533841Y-83890290D01*
X146678831Y-83678090D01*
X146729840Y-83426200D01*
X146729840Y-81826200D01*
X146685562Y-81590883D01*
X146546490Y-81374759D01*
X146334290Y-81229769D01*
X146082400Y-81178760D01*
X143782400Y-81178760D01*
X143547083Y-81223038D01*
X143330959Y-81362110D01*
X143185969Y-81574310D01*
X143134960Y-81826200D01*
X143134960Y-83426200D01*
X143179238Y-83661517D01*
X143318310Y-83877641D01*
X143530510Y-84022631D01*
X143680226Y-84052949D01*
X143532732Y-84151502D01*
X143221663Y-84617049D01*
X143171290Y-84870288D01*
X140993400Y-82692398D01*
X140993400Y-68783200D01*
X140970684Y-68669000D01*
X140935548Y-68492360D01*
X140770801Y-68245799D01*
X140003092Y-67478090D01*
X140021370Y-67386200D01*
X139912137Y-66837049D01*
X139601068Y-66371502D01*
X139218982Y-66116200D01*
X139601068Y-65860898D01*
X139912137Y-65395351D01*
X139986003Y-65024000D01*
X142198030Y-65024000D01*
X142307263Y-65573151D01*
X142618332Y-66038698D01*
X143000418Y-66294000D01*
X142618332Y-66549302D01*
X142307263Y-67014849D01*
X142198030Y-67564000D01*
X142307263Y-68113151D01*
X142618332Y-68578698D01*
X143000418Y-68834000D01*
X142618332Y-69089302D01*
X142307263Y-69554849D01*
X142198030Y-70104000D01*
X142307263Y-70653151D01*
X142618332Y-71118698D01*
X143083879Y-71429767D01*
X143179800Y-71448847D01*
X143179800Y-76631800D01*
X143243604Y-76952566D01*
X143425303Y-77224497D01*
X145031960Y-78831154D01*
X145031960Y-79593200D01*
X145076238Y-79828517D01*
X145215310Y-80044641D01*
X145427510Y-80189631D01*
X145679400Y-80240640D01*
X146979400Y-80240640D01*
X147214717Y-80196362D01*
X147430841Y-80057290D01*
X147575831Y-79845090D01*
X147588729Y-79781400D01*
X148522206Y-79781400D01*
X150837713Y-82096907D01*
X150732430Y-82626200D01*
X150841663Y-83175351D01*
X151152732Y-83640898D01*
X151534818Y-83896200D01*
X151152732Y-84151502D01*
X150841663Y-84617049D01*
X150732430Y-85166200D01*
X150841663Y-85715351D01*
X151152732Y-86180898D01*
X151534818Y-86436200D01*
X151152732Y-86691502D01*
X150841663Y-87157049D01*
X150732430Y-87706200D01*
X150841663Y-88255351D01*
X151152732Y-88720898D01*
X151530551Y-88973349D01*
X151097900Y-89321304D01*
X150828033Y-89814381D01*
X150810496Y-89897161D01*
X150932485Y-90119200D01*
X152425400Y-90119200D01*
X152425400Y-90099200D01*
X152679400Y-90099200D01*
X152679400Y-90119200D01*
X154172315Y-90119200D01*
X154294304Y-89897161D01*
X154276767Y-89814381D01*
X154006900Y-89321304D01*
X153574249Y-88973349D01*
X153952068Y-88720898D01*
X154263137Y-88255351D01*
X154372370Y-87706200D01*
X154263137Y-87157049D01*
X153952068Y-86691502D01*
X153569982Y-86436200D01*
X153952068Y-86180898D01*
X154263137Y-85715351D01*
X154372370Y-85166200D01*
X154263137Y-84617049D01*
X153952068Y-84151502D01*
X153569982Y-83896200D01*
X153952068Y-83640898D01*
X154263137Y-83175351D01*
X154317705Y-82901016D01*
X156760590Y-82901016D01*
X156816271Y-83131611D01*
X157299078Y-83299622D01*
X157809428Y-83270083D01*
X158143729Y-83131611D01*
X158199410Y-82901016D01*
X157480000Y-82181605D01*
X156760590Y-82901016D01*
X154317705Y-82901016D01*
X154372370Y-82626200D01*
X154263137Y-82077049D01*
X154092103Y-81821078D01*
X156182378Y-81821078D01*
X156211917Y-82331428D01*
X156350389Y-82665729D01*
X156580984Y-82721410D01*
X157300395Y-82002000D01*
X157659605Y-82002000D01*
X158379016Y-82721410D01*
X158609611Y-82665729D01*
X158777622Y-82182922D01*
X158748083Y-81672572D01*
X158609611Y-81338271D01*
X158379016Y-81282590D01*
X157659605Y-82002000D01*
X157300395Y-82002000D01*
X156580984Y-81282590D01*
X156350389Y-81338271D01*
X156182378Y-81821078D01*
X154092103Y-81821078D01*
X153952068Y-81611502D01*
X153486521Y-81300433D01*
X152937370Y-81191200D01*
X152302794Y-81191200D01*
X151341258Y-80229664D01*
X151658828Y-80211283D01*
X151993129Y-80072811D01*
X152048810Y-79842216D01*
X151329400Y-79122805D01*
X151315258Y-79136948D01*
X151135652Y-78957342D01*
X151149795Y-78943200D01*
X151509005Y-78943200D01*
X152228416Y-79662610D01*
X152459011Y-79606929D01*
X152627022Y-79124122D01*
X152611272Y-78852000D01*
X156182560Y-78852000D01*
X156182560Y-80152000D01*
X156226838Y-80387317D01*
X156365910Y-80603441D01*
X156578110Y-80748431D01*
X156830000Y-80799440D01*
X156992385Y-80799440D01*
X156816271Y-80872389D01*
X156760590Y-81102984D01*
X157480000Y-81822395D01*
X158199410Y-81102984D01*
X158143729Y-80872389D01*
X157934098Y-80799440D01*
X158130000Y-80799440D01*
X158365317Y-80755162D01*
X158581441Y-80616090D01*
X158726431Y-80403890D01*
X158777440Y-80152000D01*
X158777440Y-78852000D01*
X158733162Y-78616683D01*
X158594090Y-78400559D01*
X158381890Y-78255569D01*
X158130000Y-78204560D01*
X156830000Y-78204560D01*
X156594683Y-78248838D01*
X156378559Y-78387910D01*
X156233569Y-78600110D01*
X156182560Y-78852000D01*
X152611272Y-78852000D01*
X152597483Y-78613772D01*
X152459011Y-78279471D01*
X152228416Y-78223790D01*
X151509005Y-78943200D01*
X151149795Y-78943200D01*
X150430384Y-78223790D01*
X150199789Y-78279471D01*
X150031778Y-78762278D01*
X150041479Y-78929885D01*
X149462097Y-78350503D01*
X149190166Y-78168804D01*
X148869400Y-78105000D01*
X147591428Y-78105000D01*
X147582562Y-78057883D01*
X147573747Y-78044184D01*
X150609990Y-78044184D01*
X151329400Y-78763595D01*
X152048810Y-78044184D01*
X151993129Y-77813589D01*
X151510322Y-77645578D01*
X150999972Y-77675117D01*
X150665671Y-77813589D01*
X150609990Y-78044184D01*
X147573747Y-78044184D01*
X147443490Y-77841759D01*
X147231290Y-77696769D01*
X146979400Y-77645760D01*
X146217354Y-77645760D01*
X144856200Y-76284606D01*
X144856200Y-75583894D01*
X154092626Y-75583894D01*
X154340938Y-76184855D01*
X154800327Y-76645046D01*
X155400853Y-76894406D01*
X156051094Y-76894974D01*
X156652055Y-76646662D01*
X157112246Y-76187273D01*
X157124121Y-76158675D01*
X157134938Y-76184855D01*
X157594327Y-76645046D01*
X158194853Y-76894406D01*
X158845094Y-76894974D01*
X159446055Y-76646662D01*
X159906246Y-76187273D01*
X160155606Y-75586747D01*
X160156174Y-74936506D01*
X159907862Y-74335545D01*
X159448473Y-73875354D01*
X158847947Y-73625994D01*
X158197706Y-73625426D01*
X157596745Y-73873738D01*
X157136554Y-74333127D01*
X157124679Y-74361725D01*
X157113862Y-74335545D01*
X156654473Y-73875354D01*
X156053947Y-73625994D01*
X155403706Y-73625426D01*
X154802745Y-73873738D01*
X154342554Y-74333127D01*
X154093194Y-74933653D01*
X154092626Y-75583894D01*
X144856200Y-75583894D01*
X144856200Y-75036842D01*
X145212478Y-75160822D01*
X145722828Y-75131283D01*
X146057129Y-74992811D01*
X146112810Y-74762216D01*
X145393400Y-74042805D01*
X145379258Y-74056948D01*
X145199653Y-73877343D01*
X145213795Y-73863200D01*
X145573005Y-73863200D01*
X146292416Y-74582610D01*
X146523011Y-74526929D01*
X146691022Y-74044122D01*
X146661483Y-73533772D01*
X146528698Y-73213200D01*
X149095960Y-73213200D01*
X149095960Y-74513200D01*
X149140238Y-74748517D01*
X149279310Y-74964641D01*
X149491510Y-75109631D01*
X149743400Y-75160640D01*
X151043400Y-75160640D01*
X151278717Y-75116362D01*
X151494841Y-74977290D01*
X151639831Y-74765090D01*
X151690840Y-74513200D01*
X151690840Y-73213200D01*
X151646562Y-72977883D01*
X151507490Y-72761759D01*
X151295290Y-72616769D01*
X151043400Y-72565760D01*
X149743400Y-72565760D01*
X149508083Y-72610038D01*
X149291959Y-72749110D01*
X149146969Y-72961310D01*
X149095960Y-73213200D01*
X146528698Y-73213200D01*
X146523011Y-73199471D01*
X146292416Y-73143790D01*
X145573005Y-73863200D01*
X145213795Y-73863200D01*
X145199653Y-73849058D01*
X145379258Y-73669452D01*
X145393400Y-73683595D01*
X146112810Y-72964184D01*
X146057129Y-72733589D01*
X145574322Y-72565578D01*
X145063972Y-72595117D01*
X144856200Y-72681179D01*
X144856200Y-71448847D01*
X144952121Y-71429767D01*
X145417668Y-71118698D01*
X145728737Y-70653151D01*
X145837970Y-70104000D01*
X145732687Y-69574707D01*
X149895239Y-65412155D01*
X149927263Y-65573151D01*
X150238332Y-66038698D01*
X150620418Y-66294000D01*
X150238332Y-66549302D01*
X149927263Y-67014849D01*
X149818030Y-67564000D01*
X149927263Y-68113151D01*
X150238332Y-68578698D01*
X150620418Y-68834000D01*
X150238332Y-69089302D01*
X149927263Y-69554849D01*
X149818030Y-70104000D01*
X149927263Y-70653151D01*
X150238332Y-71118698D01*
X150703879Y-71429767D01*
X151253030Y-71539000D01*
X152022970Y-71539000D01*
X152572121Y-71429767D01*
X153037668Y-71118698D01*
X153348737Y-70653151D01*
X153457970Y-70104000D01*
X153348737Y-69554849D01*
X153037668Y-69089302D01*
X152655582Y-68834000D01*
X153037668Y-68578698D01*
X153348737Y-68113151D01*
X153457970Y-67564000D01*
X153348737Y-67014849D01*
X153037668Y-66549302D01*
X152655582Y-66294000D01*
X153037668Y-66038698D01*
X153348737Y-65573151D01*
X153378426Y-65423894D01*
X154092626Y-65423894D01*
X154340938Y-66024855D01*
X154800327Y-66485046D01*
X155400853Y-66734406D01*
X156051094Y-66734974D01*
X156652055Y-66486662D01*
X157112246Y-66027273D01*
X157124121Y-65998675D01*
X157134938Y-66024855D01*
X157594327Y-66485046D01*
X158194853Y-66734406D01*
X158845094Y-66734974D01*
X159446055Y-66486662D01*
X159906246Y-66027273D01*
X160155606Y-65426747D01*
X160156174Y-64776506D01*
X159907862Y-64175545D01*
X159448473Y-63715354D01*
X158847947Y-63465994D01*
X158197706Y-63465426D01*
X157596745Y-63713738D01*
X157136554Y-64173127D01*
X157124679Y-64201725D01*
X157113862Y-64175545D01*
X156654473Y-63715354D01*
X156053947Y-63465994D01*
X155403706Y-63465426D01*
X154802745Y-63713738D01*
X154342554Y-64173127D01*
X154093194Y-64773653D01*
X154092626Y-65423894D01*
X153378426Y-65423894D01*
X153457970Y-65024000D01*
X153348737Y-64474849D01*
X153037668Y-64009302D01*
X152655582Y-63754000D01*
X153037668Y-63498698D01*
X153348737Y-63033151D01*
X153457970Y-62484000D01*
X153348737Y-61934849D01*
X153037668Y-61469302D01*
X152572121Y-61158233D01*
X152022970Y-61049000D01*
X151253030Y-61049000D01*
X150703879Y-61158233D01*
X150238332Y-61469302D01*
X149927263Y-61934849D01*
X149818030Y-62484000D01*
X149923313Y-63013293D01*
X145760761Y-67175845D01*
X145728737Y-67014849D01*
X145417668Y-66549302D01*
X145035582Y-66294000D01*
X145417668Y-66038698D01*
X145728737Y-65573151D01*
X145837970Y-65024000D01*
X145728737Y-64474849D01*
X145417668Y-64009302D01*
X145282522Y-63919000D01*
X145294309Y-63919000D01*
X145527698Y-63822327D01*
X145706327Y-63643699D01*
X145803000Y-63410310D01*
X145803000Y-62769750D01*
X145644250Y-62611000D01*
X144145000Y-62611000D01*
X144145000Y-62631000D01*
X143891000Y-62631000D01*
X143891000Y-62611000D01*
X142391750Y-62611000D01*
X142233000Y-62769750D01*
X142233000Y-63410310D01*
X142329673Y-63643699D01*
X142508302Y-63822327D01*
X142741691Y-63919000D01*
X142753478Y-63919000D01*
X142618332Y-64009302D01*
X142307263Y-64474849D01*
X142198030Y-65024000D01*
X139986003Y-65024000D01*
X140021370Y-64846200D01*
X139912137Y-64297049D01*
X139601068Y-63831502D01*
X139218982Y-63576200D01*
X139601068Y-63320898D01*
X139912137Y-62855351D01*
X140021370Y-62306200D01*
X139912137Y-61757049D01*
X139778930Y-61557690D01*
X142233000Y-61557690D01*
X142233000Y-62198250D01*
X142391750Y-62357000D01*
X143891000Y-62357000D01*
X143891000Y-61207750D01*
X144145000Y-61207750D01*
X144145000Y-62357000D01*
X145644250Y-62357000D01*
X145803000Y-62198250D01*
X145803000Y-61557690D01*
X145706327Y-61324301D01*
X145527698Y-61145673D01*
X145294309Y-61049000D01*
X144303750Y-61049000D01*
X144145000Y-61207750D01*
X143891000Y-61207750D01*
X143732250Y-61049000D01*
X142741691Y-61049000D01*
X142508302Y-61145673D01*
X142329673Y-61324301D01*
X142233000Y-61557690D01*
X139778930Y-61557690D01*
X139601068Y-61291502D01*
X139135521Y-60980433D01*
X138586370Y-60871200D01*
X137816430Y-60871200D01*
X137267279Y-60980433D01*
X136801732Y-61291502D01*
X136490663Y-61757049D01*
X136381430Y-62306200D01*
X136490663Y-62855351D01*
X136801732Y-63320898D01*
X137183818Y-63576200D01*
X136801732Y-63831502D01*
X136490663Y-64297049D01*
X136381430Y-64846200D01*
X136490663Y-65395351D01*
X136801732Y-65860898D01*
X137183818Y-66116200D01*
X136801732Y-66371502D01*
X136490663Y-66837049D01*
X136381430Y-67386200D01*
X136490663Y-67935351D01*
X136801732Y-68400898D01*
X136947515Y-68498307D01*
X136816083Y-68523038D01*
X136599959Y-68662110D01*
X136454969Y-68874310D01*
X136403960Y-69126200D01*
X136403960Y-70726200D01*
X136448238Y-70961517D01*
X136587310Y-71177641D01*
X136799510Y-71322631D01*
X137051400Y-71373640D01*
X139351400Y-71373640D01*
X139473400Y-71350684D01*
X139473400Y-83007200D01*
X139531252Y-83298039D01*
X139695999Y-83544601D01*
X143256424Y-87105026D01*
X143221663Y-87157049D01*
X143112430Y-87706200D01*
X143221663Y-88255351D01*
X143532732Y-88720898D01*
X143910551Y-88973349D01*
X143477900Y-89321304D01*
X143208033Y-89814381D01*
X143190496Y-89897161D01*
X143287940Y-90074524D01*
X143064239Y-89925052D01*
X142773400Y-89867200D01*
X139560040Y-89867200D01*
X139560040Y-88544400D01*
X139515762Y-88309083D01*
X139376690Y-88092959D01*
X139164490Y-87947969D01*
X139120869Y-87939136D01*
X139138029Y-87927670D01*
X139462885Y-87441489D01*
X139576959Y-86868000D01*
X139462885Y-86294511D01*
X139138029Y-85808330D01*
X139124358Y-85799195D01*
X139147917Y-85794762D01*
X139364041Y-85655690D01*
X139509031Y-85443490D01*
X139560040Y-85191600D01*
X139560040Y-83464400D01*
X139515762Y-83229083D01*
X139376690Y-83012959D01*
X139164490Y-82867969D01*
X138912600Y-82816960D01*
X137185400Y-82816960D01*
X136950083Y-82861238D01*
X136733959Y-83000310D01*
X136588969Y-83212510D01*
X136580092Y-83256345D01*
X136111848Y-82943474D01*
X135538359Y-82829400D01*
X135479641Y-82829400D01*
X134906152Y-82943474D01*
X134770400Y-83034181D01*
X134770400Y-82880200D01*
X134712548Y-82589361D01*
X134547801Y-82342799D01*
X125164202Y-72959200D01*
X130426960Y-72959200D01*
X130426960Y-74259200D01*
X130471238Y-74494517D01*
X130610310Y-74710641D01*
X130822510Y-74855631D01*
X131074400Y-74906640D01*
X132374400Y-74906640D01*
X132609717Y-74862362D01*
X132825841Y-74723290D01*
X132970831Y-74511090D01*
X132971412Y-74508216D01*
X136004990Y-74508216D01*
X136060671Y-74738811D01*
X136543478Y-74906822D01*
X137053828Y-74877283D01*
X137388129Y-74738811D01*
X137443810Y-74508216D01*
X136724400Y-73788805D01*
X136004990Y-74508216D01*
X132971412Y-74508216D01*
X133021840Y-74259200D01*
X133021840Y-73428278D01*
X135426778Y-73428278D01*
X135456317Y-73938628D01*
X135594789Y-74272929D01*
X135825384Y-74328610D01*
X136544795Y-73609200D01*
X136904005Y-73609200D01*
X137623416Y-74328610D01*
X137854011Y-74272929D01*
X138022022Y-73790122D01*
X137992483Y-73279772D01*
X137854011Y-72945471D01*
X137623416Y-72889790D01*
X136904005Y-73609200D01*
X136544795Y-73609200D01*
X135825384Y-72889790D01*
X135594789Y-72945471D01*
X135426778Y-73428278D01*
X133021840Y-73428278D01*
X133021840Y-72959200D01*
X132977562Y-72723883D01*
X132968747Y-72710184D01*
X136004990Y-72710184D01*
X136724400Y-73429595D01*
X137443810Y-72710184D01*
X137388129Y-72479589D01*
X136905322Y-72311578D01*
X136394972Y-72341117D01*
X136060671Y-72479589D01*
X136004990Y-72710184D01*
X132968747Y-72710184D01*
X132838490Y-72507759D01*
X132626290Y-72362769D01*
X132374400Y-72311760D01*
X131074400Y-72311760D01*
X130839083Y-72356038D01*
X130622959Y-72495110D01*
X130477969Y-72707310D01*
X130426960Y-72959200D01*
X125164202Y-72959200D01*
X119981365Y-67776363D01*
X123639843Y-67776363D01*
X123738442Y-68043165D01*
X124347982Y-68269601D01*
X124997777Y-68245541D01*
X125486358Y-68043165D01*
X125584957Y-67776363D01*
X124612400Y-66803805D01*
X123639843Y-67776363D01*
X119981365Y-67776363D01*
X118564784Y-66359782D01*
X122966999Y-66359782D01*
X122991059Y-67009577D01*
X123193435Y-67498158D01*
X123460237Y-67596757D01*
X124432795Y-66624200D01*
X124792005Y-66624200D01*
X125764563Y-67596757D01*
X126031365Y-67498158D01*
X126257801Y-66888618D01*
X126233741Y-66238823D01*
X126031365Y-65750242D01*
X125764563Y-65651643D01*
X124792005Y-66624200D01*
X124432795Y-66624200D01*
X123460237Y-65651643D01*
X123193435Y-65750242D01*
X122966999Y-66359782D01*
X118564784Y-66359782D01*
X118291801Y-66086799D01*
X118045239Y-65922052D01*
X117754400Y-65864200D01*
X115906896Y-65864200D01*
X115838862Y-65699545D01*
X115379473Y-65239354D01*
X115044270Y-65100166D01*
X115377055Y-64962662D01*
X115837246Y-64503273D01*
X116086606Y-63902747D01*
X116087174Y-63252506D01*
X115838862Y-62651545D01*
X115379473Y-62191354D01*
X115197573Y-62115823D01*
X115377055Y-62041662D01*
X115837246Y-61582273D01*
X116086606Y-60981747D01*
X116086608Y-60978894D01*
X122977626Y-60978894D01*
X123225938Y-61579855D01*
X123685327Y-62040046D01*
X123867227Y-62115577D01*
X123687745Y-62189738D01*
X123227554Y-62649127D01*
X122978194Y-63249653D01*
X122977626Y-63899894D01*
X123225938Y-64500855D01*
X123685327Y-64961046D01*
X124006251Y-65094305D01*
X123738442Y-65205235D01*
X123639843Y-65472037D01*
X124612400Y-66444595D01*
X125584957Y-65472037D01*
X125486358Y-65205235D01*
X125203917Y-65100312D01*
X125537055Y-64962662D01*
X125997246Y-64503273D01*
X126246606Y-63902747D01*
X126247174Y-63252506D01*
X125998862Y-62651545D01*
X125654119Y-62306200D01*
X128761430Y-62306200D01*
X128870663Y-62855351D01*
X129181732Y-63320898D01*
X129563818Y-63576200D01*
X129181732Y-63831502D01*
X128870663Y-64297049D01*
X128761430Y-64846200D01*
X128870663Y-65395351D01*
X129181732Y-65860898D01*
X129563818Y-66116200D01*
X129181732Y-66371502D01*
X128870663Y-66837049D01*
X128761430Y-67386200D01*
X128870663Y-67935351D01*
X129181732Y-68400898D01*
X129563818Y-68656200D01*
X129181732Y-68911502D01*
X128870663Y-69377049D01*
X128761430Y-69926200D01*
X128870663Y-70475351D01*
X129181732Y-70940898D01*
X129647279Y-71251967D01*
X130196430Y-71361200D01*
X130966370Y-71361200D01*
X131515521Y-71251967D01*
X131981068Y-70940898D01*
X132292137Y-70475351D01*
X132401370Y-69926200D01*
X132292137Y-69377049D01*
X131981068Y-68911502D01*
X131598982Y-68656200D01*
X131981068Y-68400898D01*
X132292137Y-67935351D01*
X132401370Y-67386200D01*
X132292137Y-66837049D01*
X131981068Y-66371502D01*
X131598982Y-66116200D01*
X131981068Y-65860898D01*
X132292137Y-65395351D01*
X132401370Y-64846200D01*
X132292137Y-64297049D01*
X131981068Y-63831502D01*
X131598982Y-63576200D01*
X131981068Y-63320898D01*
X132292137Y-62855351D01*
X132401370Y-62306200D01*
X132292137Y-61757049D01*
X131981068Y-61291502D01*
X131515521Y-60980433D01*
X130966370Y-60871200D01*
X130196430Y-60871200D01*
X129647279Y-60980433D01*
X129181732Y-61291502D01*
X128870663Y-61757049D01*
X128761430Y-62306200D01*
X125654119Y-62306200D01*
X125539473Y-62191354D01*
X125357573Y-62115823D01*
X125537055Y-62041662D01*
X125997246Y-61582273D01*
X126246606Y-60981747D01*
X126247174Y-60331506D01*
X125998862Y-59730545D01*
X125664118Y-59395216D01*
X131211990Y-59395216D01*
X131267671Y-59625811D01*
X131750478Y-59793822D01*
X132260828Y-59764283D01*
X132595129Y-59625811D01*
X132650810Y-59395216D01*
X131931400Y-58675805D01*
X131211990Y-59395216D01*
X125664118Y-59395216D01*
X125539473Y-59270354D01*
X124938947Y-59020994D01*
X124288706Y-59020426D01*
X123687745Y-59268738D01*
X123227554Y-59728127D01*
X122978194Y-60328653D01*
X122977626Y-60978894D01*
X116086608Y-60978894D01*
X116087174Y-60331506D01*
X115838862Y-59730545D01*
X115379473Y-59270354D01*
X114778947Y-59020994D01*
X114128706Y-59020426D01*
X113527745Y-59268738D01*
X113067554Y-59728127D01*
X112818194Y-60328653D01*
X112817626Y-60978894D01*
X113065938Y-61579855D01*
X113525327Y-62040046D01*
X113707227Y-62115577D01*
X113527745Y-62189738D01*
X113067554Y-62649127D01*
X112818194Y-63249653D01*
X112817626Y-63899894D01*
X113065938Y-64500855D01*
X113525327Y-64961046D01*
X113860530Y-65100234D01*
X113527745Y-65237738D01*
X113067554Y-65697127D01*
X112818194Y-66297653D01*
X112817626Y-66947894D01*
X113065938Y-67548855D01*
X113525327Y-68009046D01*
X114125853Y-68258406D01*
X114776094Y-68258974D01*
X115377055Y-68010662D01*
X115837246Y-67551273D01*
X115906621Y-67384200D01*
X117439598Y-67384200D01*
X124697181Y-74641783D01*
X124306443Y-74641441D01*
X123371801Y-73706799D01*
X123125239Y-73542052D01*
X122834400Y-73484200D01*
X113182400Y-73484200D01*
X112891561Y-73542052D01*
X112644999Y-73706799D01*
X112426199Y-73925599D01*
X112547157Y-73634300D01*
X112547642Y-73078539D01*
X112335410Y-72564897D01*
X111942770Y-72171571D01*
X111429500Y-71958443D01*
X110873739Y-71957958D01*
X110360097Y-72170190D01*
X109966771Y-72562830D01*
X109753643Y-73076100D01*
X109753158Y-73631861D01*
X109965390Y-74145503D01*
X110358030Y-74538829D01*
X110565912Y-74625149D01*
X110360097Y-74710190D01*
X109966771Y-75102830D01*
X109753643Y-75616100D01*
X109753158Y-76171861D01*
X109965390Y-76685503D01*
X110358030Y-77078829D01*
X110565912Y-77165149D01*
X110360097Y-77250190D01*
X110012681Y-77597000D01*
X105435400Y-77597000D01*
X105114634Y-77660804D01*
X104842703Y-77842503D01*
X101399373Y-81285833D01*
X101304137Y-80807049D01*
X100993068Y-80341502D01*
X100610982Y-80086200D01*
X100993068Y-79830898D01*
X101304137Y-79365351D01*
X101413370Y-78816200D01*
X101304137Y-78267049D01*
X100993068Y-77801502D01*
X100615249Y-77549051D01*
X101047900Y-77201096D01*
X101317767Y-76708019D01*
X101335304Y-76625239D01*
X101213315Y-76403200D01*
X99720400Y-76403200D01*
X99720400Y-76423200D01*
X99466400Y-76423200D01*
X99466400Y-76403200D01*
X99446400Y-76403200D01*
X99446400Y-76149200D01*
X99466400Y-76149200D01*
X99466400Y-73863200D01*
X99720400Y-73863200D01*
X99720400Y-76149200D01*
X101213315Y-76149200D01*
X101335304Y-75927161D01*
X101317767Y-75844381D01*
X101047900Y-75351304D01*
X100618793Y-75006200D01*
X100847961Y-74821894D01*
X103546626Y-74821894D01*
X103794938Y-75422855D01*
X104254327Y-75883046D01*
X104854853Y-76132406D01*
X105505094Y-76132974D01*
X106106055Y-75884662D01*
X106566246Y-75425273D01*
X106815606Y-74824747D01*
X106816174Y-74174506D01*
X106567862Y-73573545D01*
X106108473Y-73113354D01*
X105507947Y-72863994D01*
X104857706Y-72863426D01*
X104256745Y-73111738D01*
X103796554Y-73571127D01*
X103547194Y-74171653D01*
X103546626Y-74821894D01*
X100847961Y-74821894D01*
X101047900Y-74661096D01*
X101317767Y-74168019D01*
X101335304Y-74085239D01*
X101213315Y-73863200D01*
X99720400Y-73863200D01*
X99466400Y-73863200D01*
X99446400Y-73863200D01*
X99446400Y-73609200D01*
X99466400Y-73609200D01*
X99466400Y-73589200D01*
X99720400Y-73589200D01*
X99720400Y-73609200D01*
X101213315Y-73609200D01*
X101335304Y-73387161D01*
X101317767Y-73304381D01*
X101047900Y-72811304D01*
X100615249Y-72463349D01*
X100993068Y-72210898D01*
X101304137Y-71745351D01*
X101395226Y-71287413D01*
X110222792Y-71287413D01*
X110292257Y-71529597D01*
X110815702Y-71716344D01*
X111370768Y-71688562D01*
X111754543Y-71529597D01*
X111824008Y-71287413D01*
X111023400Y-70486805D01*
X110222792Y-71287413D01*
X101395226Y-71287413D01*
X101413370Y-71196200D01*
X101304137Y-70647049D01*
X100993068Y-70181502D01*
X100610982Y-69926200D01*
X100696746Y-69868894D01*
X103673626Y-69868894D01*
X103921938Y-70469855D01*
X104381327Y-70930046D01*
X104981853Y-71179406D01*
X105632094Y-71179974D01*
X106233055Y-70931662D01*
X106693246Y-70472273D01*
X106848033Y-70099502D01*
X109614256Y-70099502D01*
X109642038Y-70654568D01*
X109801003Y-71038343D01*
X110043187Y-71107808D01*
X110843795Y-70307200D01*
X111203005Y-70307200D01*
X112003613Y-71107808D01*
X112245797Y-71038343D01*
X112432544Y-70514898D01*
X112404762Y-69959832D01*
X112245797Y-69576057D01*
X112003613Y-69506592D01*
X111203005Y-70307200D01*
X110843795Y-70307200D01*
X110043187Y-69506592D01*
X109801003Y-69576057D01*
X109614256Y-70099502D01*
X106848033Y-70099502D01*
X106942606Y-69871747D01*
X106943174Y-69221506D01*
X106694862Y-68620545D01*
X106235473Y-68160354D01*
X106068400Y-68090979D01*
X106068400Y-64145002D01*
X109626348Y-60587055D01*
X109626158Y-60804861D01*
X109838390Y-61318503D01*
X110231030Y-61711829D01*
X110438912Y-61798149D01*
X110233097Y-61883190D01*
X109839771Y-62275830D01*
X109626643Y-62789100D01*
X109626158Y-63344861D01*
X109838390Y-63858503D01*
X110127242Y-64147860D01*
X109839771Y-64434830D01*
X109626643Y-64948100D01*
X109626158Y-65503861D01*
X109838390Y-66017503D01*
X110231030Y-66410829D01*
X110438912Y-66497149D01*
X110233097Y-66582190D01*
X109839771Y-66974830D01*
X109626643Y-67488100D01*
X109626158Y-68043861D01*
X109838390Y-68557503D01*
X110231030Y-68950829D01*
X110423127Y-69030595D01*
X110292257Y-69084803D01*
X110222792Y-69326987D01*
X111023400Y-70127595D01*
X111824008Y-69326987D01*
X111754543Y-69084803D01*
X111614082Y-69034691D01*
X111813703Y-68952210D01*
X112207029Y-68559570D01*
X112420157Y-68046300D01*
X112420642Y-67490539D01*
X112208410Y-66976897D01*
X111815770Y-66583571D01*
X111607888Y-66497251D01*
X111813703Y-66412210D01*
X112207029Y-66019570D01*
X112420157Y-65506300D01*
X112420642Y-64950539D01*
X112208410Y-64436897D01*
X111919558Y-64147540D01*
X112207029Y-63860570D01*
X112420157Y-63347300D01*
X112420642Y-62791539D01*
X112208410Y-62277897D01*
X111815770Y-61884571D01*
X111607888Y-61798251D01*
X111813703Y-61713210D01*
X112207029Y-61320570D01*
X112420157Y-60807300D01*
X112420642Y-60251539D01*
X112208410Y-59737897D01*
X111815770Y-59344571D01*
X111607888Y-59258251D01*
X111813703Y-59173210D01*
X112207029Y-58780570D01*
X112400234Y-58315278D01*
X130633778Y-58315278D01*
X130663317Y-58825628D01*
X130801789Y-59159929D01*
X131032384Y-59215610D01*
X131751795Y-58496200D01*
X132111005Y-58496200D01*
X132830416Y-59215610D01*
X133061011Y-59159929D01*
X133229022Y-58677122D01*
X133199483Y-58166772D01*
X133066698Y-57846200D01*
X135633960Y-57846200D01*
X135633960Y-59146200D01*
X135678238Y-59381517D01*
X135817310Y-59597641D01*
X136029510Y-59742631D01*
X136281400Y-59793640D01*
X137581400Y-59793640D01*
X137816717Y-59749362D01*
X137972348Y-59649216D01*
X144673990Y-59649216D01*
X144729671Y-59879811D01*
X145212478Y-60047822D01*
X145722828Y-60018283D01*
X146057129Y-59879811D01*
X146112810Y-59649216D01*
X145393400Y-58929805D01*
X144673990Y-59649216D01*
X137972348Y-59649216D01*
X138032841Y-59610290D01*
X138177831Y-59398090D01*
X138228840Y-59146200D01*
X138228840Y-58569278D01*
X144095778Y-58569278D01*
X144125317Y-59079628D01*
X144263789Y-59413929D01*
X144494384Y-59469610D01*
X145213795Y-58750200D01*
X145573005Y-58750200D01*
X146292416Y-59469610D01*
X146523011Y-59413929D01*
X146691022Y-58931122D01*
X146661483Y-58420772D01*
X146528698Y-58100200D01*
X149095960Y-58100200D01*
X149095960Y-59400200D01*
X149140238Y-59635517D01*
X149279310Y-59851641D01*
X149491510Y-59996631D01*
X149743400Y-60047640D01*
X151043400Y-60047640D01*
X151278717Y-60003362D01*
X151494841Y-59864290D01*
X151639831Y-59652090D01*
X151690840Y-59400200D01*
X151690840Y-58100200D01*
X151646562Y-57864883D01*
X151507490Y-57648759D01*
X151295290Y-57503769D01*
X151043400Y-57452760D01*
X149743400Y-57452760D01*
X149508083Y-57497038D01*
X149291959Y-57636110D01*
X149146969Y-57848310D01*
X149095960Y-58100200D01*
X146528698Y-58100200D01*
X146523011Y-58086471D01*
X146292416Y-58030790D01*
X145573005Y-58750200D01*
X145213795Y-58750200D01*
X144494384Y-58030790D01*
X144263789Y-58086471D01*
X144095778Y-58569278D01*
X138228840Y-58569278D01*
X138228840Y-57851184D01*
X144673990Y-57851184D01*
X145393400Y-58570595D01*
X146112810Y-57851184D01*
X146057129Y-57620589D01*
X145574322Y-57452578D01*
X145063972Y-57482117D01*
X144729671Y-57620589D01*
X144673990Y-57851184D01*
X138228840Y-57851184D01*
X138228840Y-57846200D01*
X138184562Y-57610883D01*
X138045490Y-57394759D01*
X137833290Y-57249769D01*
X137581400Y-57198760D01*
X136281400Y-57198760D01*
X136046083Y-57243038D01*
X135829959Y-57382110D01*
X135684969Y-57594310D01*
X135633960Y-57846200D01*
X133066698Y-57846200D01*
X133061011Y-57832471D01*
X132830416Y-57776790D01*
X132111005Y-58496200D01*
X131751795Y-58496200D01*
X131032384Y-57776790D01*
X130801789Y-57832471D01*
X130633778Y-58315278D01*
X112400234Y-58315278D01*
X112420157Y-58267300D01*
X112420642Y-57711539D01*
X112373392Y-57597184D01*
X131211990Y-57597184D01*
X131931400Y-58316595D01*
X132650810Y-57597184D01*
X132595129Y-57366589D01*
X132112322Y-57198578D01*
X131601972Y-57228117D01*
X131267671Y-57366589D01*
X131211990Y-57597184D01*
X112373392Y-57597184D01*
X112208410Y-57197897D01*
X111815770Y-56804571D01*
X111302500Y-56591443D01*
X110746739Y-56590958D01*
X110233097Y-56803190D01*
X109839771Y-57195830D01*
X109626643Y-57709100D01*
X109626158Y-58264861D01*
X109676675Y-58387122D01*
X104770999Y-63292799D01*
X104606252Y-63539361D01*
X104548400Y-63830200D01*
X104548400Y-68090704D01*
X104383745Y-68158738D01*
X103923554Y-68618127D01*
X103674194Y-69218653D01*
X103673626Y-69868894D01*
X100696746Y-69868894D01*
X100993068Y-69670898D01*
X101304137Y-69205351D01*
X101413370Y-68656200D01*
X101304137Y-68107049D01*
X100993068Y-67641502D01*
X100610982Y-67386200D01*
X100993068Y-67130898D01*
X101304137Y-66665351D01*
X101413370Y-66116200D01*
X101304137Y-65567049D01*
X100993068Y-65101502D01*
X100527521Y-64790433D01*
X99978370Y-64681200D01*
X99208430Y-64681200D01*
X98659279Y-64790433D01*
X98193732Y-65101502D01*
X97882663Y-65567049D01*
X97773430Y-66116200D01*
X97882663Y-66665351D01*
X98193732Y-67130898D01*
X98575818Y-67386200D01*
X98193732Y-67641502D01*
X97882663Y-68107049D01*
X97773430Y-68656200D01*
X97882663Y-69205351D01*
X98193732Y-69670898D01*
X98575818Y-69926200D01*
X98193732Y-70181502D01*
X97882663Y-70647049D01*
X97773430Y-71196200D01*
X97882663Y-71745351D01*
X97917424Y-71797374D01*
X96642999Y-73071799D01*
X96478252Y-73318361D01*
X96420400Y-73609200D01*
X96420400Y-84343398D01*
X88408046Y-92355752D01*
X88208521Y-92222433D01*
X87659370Y-92113200D01*
X86889430Y-92113200D01*
X86340279Y-92222433D01*
X85874732Y-92533502D01*
X85563663Y-92999049D01*
X85454430Y-93548200D01*
X85563663Y-94097351D01*
X85874732Y-94562898D01*
X86256818Y-94818200D01*
X85874732Y-95073502D01*
X85563663Y-95539049D01*
X85454430Y-96088200D01*
X85563663Y-96637351D01*
X85874732Y-97102898D01*
X86256818Y-97358200D01*
X85874732Y-97613502D01*
X85563663Y-98079049D01*
X85454430Y-98628200D01*
X85563663Y-99177351D01*
X85874732Y-99642898D01*
X86256818Y-99898200D01*
X85874732Y-100153502D01*
X85563663Y-100619049D01*
X85454430Y-101168200D01*
X85563663Y-101717351D01*
X85874732Y-102182898D01*
X86256818Y-102438200D01*
X85874732Y-102693502D01*
X85563663Y-103159049D01*
X85454430Y-103708200D01*
X85563663Y-104257351D01*
X85874732Y-104722898D01*
X86256818Y-104978200D01*
X85874732Y-105233502D01*
X85563663Y-105699049D01*
X85454430Y-106248200D01*
X85563663Y-106797351D01*
X85874732Y-107262898D01*
X86256818Y-107518200D01*
X85874732Y-107773502D01*
X85563663Y-108239049D01*
X85454430Y-108788200D01*
X85563663Y-109337351D01*
X85874732Y-109802898D01*
X86256818Y-110058200D01*
X85874732Y-110313502D01*
X85563663Y-110779049D01*
X85454430Y-111328200D01*
X85563663Y-111877351D01*
X85874732Y-112342898D01*
X86340279Y-112653967D01*
X86889430Y-112763200D01*
X87659370Y-112763200D01*
X88208521Y-112653967D01*
X88674068Y-112342898D01*
X88985137Y-111877351D01*
X89094370Y-111328200D01*
X88985137Y-110779049D01*
X88674068Y-110313502D01*
X88291982Y-110058200D01*
X88674068Y-109802898D01*
X88985137Y-109337351D01*
X89094370Y-108788200D01*
X88985137Y-108239049D01*
X88674068Y-107773502D01*
X88291982Y-107518200D01*
X88674068Y-107262898D01*
X88985137Y-106797351D01*
X89094370Y-106248200D01*
X88985137Y-105699049D01*
X88674068Y-105233502D01*
X88291982Y-104978200D01*
X88674068Y-104722898D01*
X88985137Y-104257351D01*
X89094370Y-103708200D01*
X88985137Y-103159049D01*
X88674068Y-102693502D01*
X88291982Y-102438200D01*
X88674068Y-102182898D01*
X88844252Y-101928200D01*
X92862400Y-101928200D01*
X93153239Y-101870348D01*
X93244948Y-101809070D01*
X93494732Y-102182898D01*
X93876818Y-102438200D01*
X93494732Y-102693502D01*
X93183663Y-103159049D01*
X93074430Y-103708200D01*
X93183663Y-104257351D01*
X93218424Y-104309374D01*
X92070999Y-105456799D01*
X91906252Y-105703361D01*
X91848400Y-105994200D01*
X91848400Y-111582200D01*
X91906252Y-111873039D01*
X92070999Y-112119601D01*
X93827550Y-113876152D01*
X93725322Y-113840578D01*
X93214972Y-113870117D01*
X92880671Y-114008589D01*
X92824990Y-114239184D01*
X93544400Y-114958595D01*
X93558542Y-114944452D01*
X93738148Y-115124058D01*
X93724005Y-115138200D01*
X94443416Y-115857610D01*
X94674011Y-115801929D01*
X94842022Y-115319122D01*
X94815697Y-114864299D01*
X100376799Y-120425401D01*
X100623361Y-120590148D01*
X100914200Y-120648000D01*
X103739738Y-120648000D01*
X103939971Y-120947670D01*
X104426152Y-121272526D01*
X104999641Y-121386600D01*
X105058359Y-121386600D01*
X105631848Y-121272526D01*
X106118029Y-120947670D01*
X106299000Y-120676828D01*
X106479971Y-120947670D01*
X106966152Y-121272526D01*
X107539641Y-121386600D01*
X107598359Y-121386600D01*
X108171848Y-121272526D01*
X108658029Y-120947670D01*
X108858262Y-120648000D01*
X120904000Y-120648000D01*
X121194839Y-120590148D01*
X121441401Y-120425401D01*
X126271826Y-115594976D01*
X126323849Y-115629737D01*
X126873000Y-115738970D01*
X127422151Y-115629737D01*
X127887698Y-115318668D01*
X128143000Y-114936582D01*
X128398302Y-115318668D01*
X128863849Y-115629737D01*
X129413000Y-115738970D01*
X129962151Y-115629737D01*
X130427698Y-115318668D01*
X130683000Y-114936582D01*
X130938302Y-115318668D01*
X131403849Y-115629737D01*
X131953000Y-115738970D01*
X132502151Y-115629737D01*
X132967698Y-115318668D01*
X133220149Y-114940849D01*
X133568104Y-115373500D01*
X134061181Y-115643367D01*
X134143961Y-115660904D01*
X134366000Y-115538915D01*
X134366000Y-114046000D01*
X134620000Y-114046000D01*
X134620000Y-115538915D01*
X134842039Y-115660904D01*
X134924819Y-115643367D01*
X135417896Y-115373500D01*
X135763000Y-114944393D01*
X136108104Y-115373500D01*
X136601181Y-115643367D01*
X136683961Y-115660904D01*
X136906000Y-115538915D01*
X136906000Y-114046000D01*
X137160000Y-114046000D01*
X137160000Y-115538915D01*
X137382039Y-115660904D01*
X137464819Y-115643367D01*
X137957896Y-115373500D01*
X138310166Y-114935483D01*
X138468000Y-114396000D01*
X138468000Y-114046000D01*
X137160000Y-114046000D01*
X136906000Y-114046000D01*
X134620000Y-114046000D01*
X134366000Y-114046000D01*
X134346000Y-114046000D01*
X134346000Y-113792000D01*
X134366000Y-113792000D01*
X134366000Y-112299085D01*
X134620000Y-112299085D01*
X134620000Y-113792000D01*
X136906000Y-113792000D01*
X136906000Y-112299085D01*
X137160000Y-112299085D01*
X137160000Y-113792000D01*
X138468000Y-113792000D01*
X138468000Y-113442000D01*
X138310166Y-112902517D01*
X137957896Y-112464500D01*
X137464819Y-112194633D01*
X137382039Y-112177096D01*
X137160000Y-112299085D01*
X136906000Y-112299085D01*
X136683961Y-112177096D01*
X136601181Y-112194633D01*
X136108104Y-112464500D01*
X135763000Y-112893607D01*
X135417896Y-112464500D01*
X134924819Y-112194633D01*
X134842039Y-112177096D01*
X134620000Y-112299085D01*
X134366000Y-112299085D01*
X134143961Y-112177096D01*
X134061181Y-112194633D01*
X133568104Y-112464500D01*
X133220149Y-112897151D01*
X132967698Y-112519332D01*
X132502151Y-112208263D01*
X131953000Y-112099030D01*
X131403849Y-112208263D01*
X130938302Y-112519332D01*
X130683000Y-112901418D01*
X130427698Y-112519332D01*
X129962151Y-112208263D01*
X129413000Y-112099030D01*
X128863849Y-112208263D01*
X128398302Y-112519332D01*
X128143000Y-112901418D01*
X127887698Y-112519332D01*
X127422151Y-112208263D01*
X126873000Y-112099030D01*
X126323849Y-112208263D01*
X125858302Y-112519332D01*
X125603000Y-112901418D01*
X125347698Y-112519332D01*
X124882151Y-112208263D01*
X124333000Y-112099030D01*
X123803707Y-112204313D01*
X120091200Y-108491806D01*
X120091200Y-107816600D01*
X120267698Y-107698668D01*
X120523000Y-107316582D01*
X120778302Y-107698668D01*
X121243849Y-108009737D01*
X121793000Y-108118970D01*
X122342151Y-108009737D01*
X122807698Y-107698668D01*
X123063000Y-107316582D01*
X123318302Y-107698668D01*
X123783849Y-108009737D01*
X124333000Y-108118970D01*
X124882151Y-108009737D01*
X125347698Y-107698668D01*
X125603000Y-107316582D01*
X125858302Y-107698668D01*
X126323849Y-108009737D01*
X126873000Y-108118970D01*
X127422151Y-108009737D01*
X127887698Y-107698668D01*
X128143000Y-107316582D01*
X128398302Y-107698668D01*
X128863849Y-108009737D01*
X129413000Y-108118970D01*
X129962151Y-108009737D01*
X130427698Y-107698668D01*
X130683000Y-107316582D01*
X130938302Y-107698668D01*
X131403849Y-108009737D01*
X131953000Y-108118970D01*
X132502151Y-108009737D01*
X132967698Y-107698668D01*
X133223000Y-107316582D01*
X133478302Y-107698668D01*
X133943849Y-108009737D01*
X134493000Y-108118970D01*
X135042151Y-108009737D01*
X135507698Y-107698668D01*
X135763000Y-107316582D01*
X136018302Y-107698668D01*
X136483849Y-108009737D01*
X137033000Y-108118970D01*
X137582151Y-108009737D01*
X138047698Y-107698668D01*
X138358767Y-107233121D01*
X138443938Y-106804938D01*
X138917497Y-107278497D01*
X138917238Y-107576367D01*
X139059283Y-107920143D01*
X139322073Y-108183392D01*
X139665601Y-108326038D01*
X139981400Y-108326313D01*
X139981400Y-119329200D01*
X140039252Y-119620039D01*
X140203999Y-119866601D01*
X145537999Y-125200601D01*
X145784561Y-125365348D01*
X146075400Y-125423200D01*
X150220548Y-125423200D01*
X150390732Y-125677898D01*
X150772818Y-125933200D01*
X150390732Y-126188502D01*
X150079663Y-126654049D01*
X149970430Y-127203200D01*
X150079663Y-127752351D01*
X150390732Y-128217898D01*
X150772818Y-128473200D01*
X150390732Y-128728502D01*
X150079663Y-129194049D01*
X149970430Y-129743200D01*
X150079663Y-130292351D01*
X150390732Y-130757898D01*
X150856279Y-131068967D01*
X151405430Y-131178200D01*
X152175370Y-131178200D01*
X152724521Y-131068967D01*
X153190068Y-130757898D01*
X153501137Y-130292351D01*
X153610370Y-129743200D01*
X153501137Y-129194049D01*
X153190068Y-128728502D01*
X152807982Y-128473200D01*
X153190068Y-128217898D01*
X153501137Y-127752351D01*
X153610370Y-127203200D01*
X153501137Y-126654049D01*
X153190068Y-126188502D01*
X152807982Y-125933200D01*
X153190068Y-125677898D01*
X153501137Y-125212351D01*
X153610370Y-124663200D01*
X153508925Y-124153200D01*
X155285598Y-124153200D01*
X157734424Y-126602026D01*
X157699663Y-126654049D01*
X157590430Y-127203200D01*
X157699663Y-127752351D01*
X158010732Y-128217898D01*
X158156515Y-128315307D01*
X158025083Y-128340038D01*
X157808959Y-128479110D01*
X157663969Y-128691310D01*
X157612960Y-128943200D01*
X157612960Y-130543200D01*
X157657238Y-130778517D01*
X157796310Y-130994641D01*
X158008510Y-131139631D01*
X158260400Y-131190640D01*
X160560400Y-131190640D01*
X160795717Y-131146362D01*
X160961000Y-131040005D01*
X160961000Y-155246000D01*
X81609000Y-155246000D01*
X81609000Y-152073515D01*
X83107030Y-152073515D01*
X83431380Y-152858500D01*
X84031441Y-153459609D01*
X84815859Y-153785328D01*
X85665215Y-153786070D01*
X86450200Y-153461720D01*
X87051309Y-152861659D01*
X87377028Y-152077241D01*
X87377031Y-152073515D01*
X155243030Y-152073515D01*
X155567380Y-152858500D01*
X156167441Y-153459609D01*
X156951859Y-153785328D01*
X157801215Y-153786070D01*
X158586200Y-153461720D01*
X159187309Y-152861659D01*
X159513028Y-152077241D01*
X159513770Y-151227885D01*
X159189420Y-150442900D01*
X158589359Y-149841791D01*
X157804941Y-149516072D01*
X156955585Y-149515330D01*
X156170600Y-149839680D01*
X155569491Y-150439741D01*
X155243772Y-151224159D01*
X155243030Y-152073515D01*
X87377031Y-152073515D01*
X87377770Y-151227885D01*
X87053420Y-150442900D01*
X86453359Y-149841791D01*
X85668941Y-149516072D01*
X84819585Y-149515330D01*
X84034600Y-149839680D01*
X83433491Y-150439741D01*
X83107772Y-151224159D01*
X83107030Y-152073515D01*
X81609000Y-152073515D01*
X81609000Y-145413500D01*
X82091560Y-145413500D01*
X82091560Y-146813500D01*
X82135838Y-147048817D01*
X82274910Y-147264941D01*
X82487110Y-147409931D01*
X82739000Y-147460940D01*
X84139000Y-147460940D01*
X84374317Y-147416662D01*
X84590441Y-147277590D01*
X84735431Y-147065390D01*
X84786440Y-146813500D01*
X84786440Y-146377883D01*
X87103769Y-146377883D01*
X87306582Y-146868729D01*
X87681796Y-147244598D01*
X88172287Y-147448268D01*
X88703383Y-147448731D01*
X89194229Y-147245918D01*
X89570098Y-146870704D01*
X89773768Y-146380213D01*
X89773778Y-146367981D01*
X92099777Y-146367981D01*
X92294995Y-146840443D01*
X92656155Y-147202235D01*
X93128276Y-147398277D01*
X93639481Y-147398723D01*
X94111943Y-147203505D01*
X94473735Y-146842345D01*
X94600000Y-146538265D01*
X94600000Y-146889810D01*
X94696673Y-147123199D01*
X94875302Y-147301827D01*
X95108691Y-147398500D01*
X95599250Y-147398500D01*
X95758000Y-147239750D01*
X95758000Y-146240500D01*
X96012000Y-146240500D01*
X96012000Y-147239750D01*
X96170750Y-147398500D01*
X96661309Y-147398500D01*
X96894698Y-147301827D01*
X97073327Y-147123199D01*
X97170000Y-146889810D01*
X97170000Y-146399250D01*
X97011250Y-146240500D01*
X96012000Y-146240500D01*
X95758000Y-146240500D01*
X95738000Y-146240500D01*
X95738000Y-145986500D01*
X95758000Y-145986500D01*
X95758000Y-144987250D01*
X96012000Y-144987250D01*
X96012000Y-145986500D01*
X97011250Y-145986500D01*
X97170000Y-145827750D01*
X97170000Y-145337190D01*
X97073327Y-145103801D01*
X96894698Y-144925173D01*
X96661309Y-144828500D01*
X96170750Y-144828500D01*
X96012000Y-144987250D01*
X95758000Y-144987250D01*
X95599250Y-144828500D01*
X95108691Y-144828500D01*
X94875302Y-144925173D01*
X94696673Y-145103801D01*
X94600000Y-145337190D01*
X94600000Y-145689067D01*
X94475005Y-145386557D01*
X94113845Y-145024765D01*
X93641724Y-144828723D01*
X93130519Y-144828277D01*
X92658057Y-145023495D01*
X92296265Y-145384655D01*
X92100223Y-145856776D01*
X92099777Y-146367981D01*
X89773778Y-146367981D01*
X89774231Y-145849117D01*
X89571418Y-145358271D01*
X89196204Y-144982402D01*
X88705713Y-144778732D01*
X88174617Y-144778269D01*
X87683771Y-144981082D01*
X87307902Y-145356296D01*
X87104232Y-145846787D01*
X87103769Y-146377883D01*
X84786440Y-146377883D01*
X84786440Y-145413500D01*
X84742162Y-145178183D01*
X84603090Y-144962059D01*
X84390890Y-144817069D01*
X84139000Y-144766060D01*
X82739000Y-144766060D01*
X82503683Y-144810338D01*
X82287559Y-144949410D01*
X82142569Y-145161610D01*
X82091560Y-145413500D01*
X81609000Y-145413500D01*
X81609000Y-132953928D01*
X83562704Y-132953928D01*
X83590627Y-133505446D01*
X83747965Y-133885293D01*
X83989228Y-133953666D01*
X84783395Y-133159500D01*
X83989228Y-132365334D01*
X83747965Y-132433707D01*
X83562704Y-132953928D01*
X81609000Y-132953928D01*
X81609000Y-130413928D01*
X83562704Y-130413928D01*
X83590627Y-130965446D01*
X83747965Y-131345293D01*
X83987453Y-131413163D01*
X83992843Y-131733865D01*
X84173374Y-132169707D01*
X84168834Y-132185728D01*
X84187913Y-132204807D01*
X84302567Y-132481607D01*
X84630426Y-132652069D01*
X84632800Y-132649695D01*
X84812405Y-132829300D01*
X84810031Y-132831674D01*
X84980493Y-133159533D01*
X85116988Y-133213402D01*
X85045414Y-133284976D01*
X84980493Y-133311867D01*
X84965192Y-133341297D01*
X84963000Y-133339105D01*
X84322868Y-133979238D01*
X84302567Y-133989793D01*
X84296213Y-134005893D01*
X84168834Y-134133272D01*
X84201061Y-134246991D01*
X83977986Y-134812226D01*
X83979597Y-134908063D01*
X83747965Y-134973707D01*
X83562704Y-135493928D01*
X83590627Y-136045446D01*
X83747965Y-136425293D01*
X83989228Y-136493666D01*
X84225337Y-136257557D01*
X84302567Y-136444007D01*
X84365420Y-136476686D01*
X84168834Y-136673272D01*
X84237207Y-136914535D01*
X84396985Y-136971435D01*
X84177726Y-137062031D01*
X83786904Y-137452172D01*
X83575131Y-137962176D01*
X83574649Y-138514401D01*
X83785531Y-139024774D01*
X83985060Y-139224651D01*
X83984715Y-139619443D01*
X84322358Y-140436600D01*
X84947011Y-141062345D01*
X85763578Y-141401413D01*
X86647743Y-141402185D01*
X87464900Y-141064542D01*
X88090645Y-140439889D01*
X88429713Y-139623322D01*
X88429973Y-139325194D01*
X91204766Y-139325194D01*
X91453078Y-139926155D01*
X91912467Y-140386346D01*
X92512993Y-140635706D01*
X93163234Y-140636274D01*
X93764195Y-140387962D01*
X94224386Y-139928573D01*
X94341860Y-139645663D01*
X95168983Y-139645663D01*
X95267582Y-139912465D01*
X95877122Y-140138901D01*
X96526917Y-140114841D01*
X97015498Y-139912465D01*
X97114097Y-139645663D01*
X96141540Y-138673105D01*
X95168983Y-139645663D01*
X94341860Y-139645663D01*
X94473746Y-139328047D01*
X94474314Y-138677806D01*
X94288906Y-138229082D01*
X94496139Y-138229082D01*
X94520199Y-138878877D01*
X94722575Y-139367458D01*
X94989377Y-139466057D01*
X95961935Y-138493500D01*
X96321145Y-138493500D01*
X97293703Y-139466057D01*
X97560505Y-139367458D01*
X97786941Y-138757918D01*
X97762881Y-138108123D01*
X97560505Y-137619542D01*
X97293703Y-137520943D01*
X96321145Y-138493500D01*
X95961935Y-138493500D01*
X94989377Y-137520943D01*
X94722575Y-137619542D01*
X94496139Y-138229082D01*
X94288906Y-138229082D01*
X94226002Y-138076845D01*
X93766613Y-137616654D01*
X93166087Y-137367294D01*
X92515846Y-137366726D01*
X91914885Y-137615038D01*
X91454694Y-138074427D01*
X91205334Y-138674953D01*
X91204766Y-139325194D01*
X88429973Y-139325194D01*
X88430017Y-139275473D01*
X88679096Y-139026828D01*
X88890869Y-138516824D01*
X88891351Y-137964599D01*
X88680469Y-137454226D01*
X88567777Y-137341337D01*
X95168983Y-137341337D01*
X96141540Y-138313895D01*
X97114097Y-137341337D01*
X97015498Y-137074535D01*
X96405958Y-136848099D01*
X95756163Y-136872159D01*
X95267582Y-137074535D01*
X95168983Y-137341337D01*
X88567777Y-137341337D01*
X88290328Y-137063404D01*
X88080120Y-136976118D01*
X88228793Y-136914535D01*
X88297166Y-136673272D01*
X88083203Y-136459309D01*
X88112633Y-136444007D01*
X88201624Y-136218519D01*
X88476772Y-136493666D01*
X88718035Y-136425293D01*
X88903296Y-135905072D01*
X88875373Y-135353554D01*
X88718035Y-134973707D01*
X88476772Y-134905334D01*
X88426030Y-134956076D01*
X88422357Y-134737535D01*
X88246345Y-134312602D01*
X88297166Y-134133272D01*
X87503000Y-133339105D01*
X87488858Y-133353248D01*
X87336020Y-133200410D01*
X87434707Y-133159533D01*
X87434724Y-133159500D01*
X87682605Y-133159500D01*
X88476772Y-133953666D01*
X88718035Y-133885293D01*
X88903296Y-133365072D01*
X88879912Y-132903200D01*
X151762960Y-132903200D01*
X151762960Y-134203200D01*
X151807238Y-134438517D01*
X151946310Y-134654641D01*
X152158510Y-134799631D01*
X152410400Y-134850640D01*
X153710400Y-134850640D01*
X153945717Y-134806362D01*
X154161841Y-134667290D01*
X154306831Y-134455090D01*
X154307412Y-134452216D01*
X157340990Y-134452216D01*
X157396671Y-134682811D01*
X157879478Y-134850822D01*
X158389828Y-134821283D01*
X158724129Y-134682811D01*
X158779810Y-134452216D01*
X158060400Y-133732805D01*
X157340990Y-134452216D01*
X154307412Y-134452216D01*
X154357840Y-134203200D01*
X154357840Y-133372278D01*
X156762778Y-133372278D01*
X156792317Y-133882628D01*
X156930789Y-134216929D01*
X157161384Y-134272610D01*
X157880795Y-133553200D01*
X158240005Y-133553200D01*
X158959416Y-134272610D01*
X159190011Y-134216929D01*
X159358022Y-133734122D01*
X159328483Y-133223772D01*
X159190011Y-132889471D01*
X158959416Y-132833790D01*
X158240005Y-133553200D01*
X157880795Y-133553200D01*
X157161384Y-132833790D01*
X156930789Y-132889471D01*
X156762778Y-133372278D01*
X154357840Y-133372278D01*
X154357840Y-132903200D01*
X154313562Y-132667883D01*
X154304747Y-132654184D01*
X157340990Y-132654184D01*
X158060400Y-133373595D01*
X158779810Y-132654184D01*
X158724129Y-132423589D01*
X158241322Y-132255578D01*
X157730972Y-132285117D01*
X157396671Y-132423589D01*
X157340990Y-132654184D01*
X154304747Y-132654184D01*
X154174490Y-132451759D01*
X153962290Y-132306769D01*
X153710400Y-132255760D01*
X152410400Y-132255760D01*
X152175083Y-132300038D01*
X151958959Y-132439110D01*
X151813969Y-132651310D01*
X151762960Y-132903200D01*
X88879912Y-132903200D01*
X88875373Y-132813554D01*
X88718035Y-132433707D01*
X88476772Y-132365334D01*
X87682605Y-133159500D01*
X87434724Y-133159500D01*
X87555294Y-132927600D01*
X87880700Y-132602195D01*
X88112633Y-132481607D01*
X88185226Y-132297668D01*
X88297166Y-132185728D01*
X88268845Y-132085793D01*
X88437214Y-131659174D01*
X88432341Y-131369235D01*
X88476772Y-131413666D01*
X88718035Y-131345293D01*
X88903296Y-130825072D01*
X88875373Y-130273554D01*
X88718035Y-129893707D01*
X88476772Y-129825334D01*
X88160105Y-130142001D01*
X88112633Y-130027393D01*
X87982935Y-129959960D01*
X88297166Y-129645728D01*
X88228793Y-129404465D01*
X88069015Y-129347565D01*
X88288274Y-129256969D01*
X88418219Y-129127250D01*
X91205050Y-129127250D01*
X91205050Y-129967299D01*
X91301723Y-130200688D01*
X91480351Y-130379317D01*
X91713740Y-130475990D01*
X92553790Y-130475990D01*
X92712540Y-130317240D01*
X92712540Y-128968500D01*
X92966540Y-128968500D01*
X92966540Y-130317240D01*
X93125290Y-130475990D01*
X93965340Y-130475990D01*
X94198729Y-130379317D01*
X94377357Y-130200688D01*
X94474030Y-129967299D01*
X94474030Y-129127250D01*
X94315280Y-128968500D01*
X92966540Y-128968500D01*
X92712540Y-128968500D01*
X91363800Y-128968500D01*
X91205050Y-129127250D01*
X88418219Y-129127250D01*
X88679096Y-128866828D01*
X88890869Y-128356824D01*
X88891351Y-127804599D01*
X88854620Y-127715701D01*
X91205050Y-127715701D01*
X91205050Y-128555750D01*
X91363800Y-128714500D01*
X92712540Y-128714500D01*
X92712540Y-127365760D01*
X92966540Y-127365760D01*
X92966540Y-128714500D01*
X94315280Y-128714500D01*
X94474030Y-128555750D01*
X94474030Y-127715701D01*
X94377357Y-127482312D01*
X94229056Y-127334010D01*
X94494610Y-127334010D01*
X94494610Y-129332990D01*
X94538888Y-129568307D01*
X94677960Y-129784431D01*
X94890160Y-129929421D01*
X95142050Y-129980430D01*
X97141030Y-129980430D01*
X97376347Y-129936152D01*
X97592471Y-129797080D01*
X97737461Y-129584880D01*
X97788470Y-129332990D01*
X97788470Y-127334010D01*
X97744192Y-127098693D01*
X97605120Y-126882569D01*
X97392920Y-126737579D01*
X97141030Y-126686570D01*
X95142050Y-126686570D01*
X94906733Y-126730848D01*
X94690609Y-126869920D01*
X94545619Y-127082120D01*
X94494610Y-127334010D01*
X94229056Y-127334010D01*
X94198729Y-127303683D01*
X93965340Y-127207010D01*
X93125290Y-127207010D01*
X92966540Y-127365760D01*
X92712540Y-127365760D01*
X92553790Y-127207010D01*
X91713740Y-127207010D01*
X91480351Y-127303683D01*
X91301723Y-127482312D01*
X91205050Y-127715701D01*
X88854620Y-127715701D01*
X88680469Y-127294226D01*
X88430318Y-127043638D01*
X88430485Y-126851957D01*
X88092842Y-126034800D01*
X87468189Y-125409055D01*
X86651622Y-125069987D01*
X85767457Y-125069215D01*
X84950300Y-125406858D01*
X84324555Y-126031511D01*
X83985487Y-126848078D01*
X83985272Y-127094150D01*
X83786904Y-127292172D01*
X83575131Y-127802176D01*
X83574649Y-128354401D01*
X83785531Y-128864774D01*
X84175672Y-129255596D01*
X84385880Y-129342882D01*
X84237207Y-129404465D01*
X84168834Y-129645728D01*
X84465688Y-129942582D01*
X84302567Y-130027393D01*
X84271077Y-130107183D01*
X83989228Y-129825334D01*
X83747965Y-129893707D01*
X83562704Y-130413928D01*
X81609000Y-130413928D01*
X81609000Y-119505500D01*
X82599560Y-119505500D01*
X82599560Y-120905500D01*
X82643838Y-121140817D01*
X82782910Y-121356941D01*
X82995110Y-121501931D01*
X83247000Y-121552940D01*
X84647000Y-121552940D01*
X84882317Y-121508662D01*
X85098441Y-121369590D01*
X85243431Y-121157390D01*
X85294440Y-120905500D01*
X85294440Y-120469883D01*
X87611769Y-120469883D01*
X87814582Y-120960729D01*
X88189796Y-121336598D01*
X88680287Y-121540268D01*
X89211383Y-121540731D01*
X89702229Y-121337918D01*
X90078098Y-120962704D01*
X90281768Y-120472213D01*
X90282231Y-119941117D01*
X90122898Y-119555500D01*
X91539560Y-119555500D01*
X91539560Y-120855500D01*
X91583838Y-121090817D01*
X91722910Y-121306941D01*
X91935110Y-121451931D01*
X92187000Y-121502940D01*
X93487000Y-121502940D01*
X93722317Y-121458662D01*
X93938441Y-121319590D01*
X94083431Y-121107390D01*
X94084012Y-121104516D01*
X94617590Y-121104516D01*
X94673271Y-121335111D01*
X95156078Y-121503122D01*
X95666428Y-121473583D01*
X96000729Y-121335111D01*
X96056410Y-121104516D01*
X95337000Y-120385105D01*
X94617590Y-121104516D01*
X94084012Y-121104516D01*
X94134440Y-120855500D01*
X94134440Y-120693115D01*
X94207389Y-120869229D01*
X94437984Y-120924910D01*
X95157395Y-120205500D01*
X95516605Y-120205500D01*
X96236016Y-120924910D01*
X96466611Y-120869229D01*
X96634622Y-120386422D01*
X96605083Y-119876072D01*
X96466611Y-119541771D01*
X96236016Y-119486090D01*
X95516605Y-120205500D01*
X95157395Y-120205500D01*
X94437984Y-119486090D01*
X94207389Y-119541771D01*
X94134440Y-119751402D01*
X94134440Y-119555500D01*
X94090162Y-119320183D01*
X94081347Y-119306484D01*
X94617590Y-119306484D01*
X95337000Y-120025895D01*
X96056410Y-119306484D01*
X96000729Y-119075889D01*
X95517922Y-118907878D01*
X95007572Y-118937417D01*
X94673271Y-119075889D01*
X94617590Y-119306484D01*
X94081347Y-119306484D01*
X93951090Y-119104059D01*
X93738890Y-118959069D01*
X93487000Y-118908060D01*
X92187000Y-118908060D01*
X91951683Y-118952338D01*
X91735559Y-119091410D01*
X91590569Y-119303610D01*
X91539560Y-119555500D01*
X90122898Y-119555500D01*
X90079418Y-119450271D01*
X89704204Y-119074402D01*
X89213713Y-118870732D01*
X88682617Y-118870269D01*
X88191771Y-119073082D01*
X87815902Y-119448296D01*
X87612232Y-119938787D01*
X87611769Y-120469883D01*
X85294440Y-120469883D01*
X85294440Y-119505500D01*
X85250162Y-119270183D01*
X85111090Y-119054059D01*
X84898890Y-118909069D01*
X84647000Y-118858060D01*
X83247000Y-118858060D01*
X83011683Y-118902338D01*
X82795559Y-119041410D01*
X82650569Y-119253610D01*
X82599560Y-119505500D01*
X81609000Y-119505500D01*
X81609000Y-114488200D01*
X87246960Y-114488200D01*
X87246960Y-115788200D01*
X87291238Y-116023517D01*
X87430310Y-116239641D01*
X87642510Y-116384631D01*
X87894400Y-116435640D01*
X89194400Y-116435640D01*
X89429717Y-116391362D01*
X89645841Y-116252290D01*
X89790831Y-116040090D01*
X89791412Y-116037216D01*
X92824990Y-116037216D01*
X92880671Y-116267811D01*
X93363478Y-116435822D01*
X93873828Y-116406283D01*
X94208129Y-116267811D01*
X94263810Y-116037216D01*
X93544400Y-115317805D01*
X92824990Y-116037216D01*
X89791412Y-116037216D01*
X89841840Y-115788200D01*
X89841840Y-114957278D01*
X92246778Y-114957278D01*
X92276317Y-115467628D01*
X92414789Y-115801929D01*
X92645384Y-115857610D01*
X93364795Y-115138200D01*
X92645384Y-114418790D01*
X92414789Y-114474471D01*
X92246778Y-114957278D01*
X89841840Y-114957278D01*
X89841840Y-114488200D01*
X89797562Y-114252883D01*
X89658490Y-114036759D01*
X89446290Y-113891769D01*
X89194400Y-113840760D01*
X87894400Y-113840760D01*
X87659083Y-113885038D01*
X87442959Y-114024110D01*
X87297969Y-114236310D01*
X87246960Y-114488200D01*
X81609000Y-114488200D01*
X81609000Y-85810363D01*
X83253843Y-85810363D01*
X83352442Y-86077165D01*
X83961982Y-86303601D01*
X84611777Y-86279541D01*
X85100358Y-86077165D01*
X85198957Y-85810363D01*
X84226400Y-84837805D01*
X83253843Y-85810363D01*
X81609000Y-85810363D01*
X81609000Y-84393782D01*
X82580999Y-84393782D01*
X82605059Y-85043577D01*
X82807435Y-85532158D01*
X83074237Y-85630757D01*
X84046795Y-84658200D01*
X84406005Y-84658200D01*
X85378563Y-85630757D01*
X85645365Y-85532158D01*
X85810413Y-85087867D01*
X86014938Y-85582855D01*
X86474327Y-86043046D01*
X87074853Y-86292406D01*
X87725094Y-86292974D01*
X88326055Y-86044662D01*
X88786246Y-85585273D01*
X89035606Y-84984747D01*
X89036174Y-84334506D01*
X88999290Y-84245239D01*
X90231496Y-84245239D01*
X90249033Y-84328019D01*
X90518900Y-84821096D01*
X90956917Y-85173366D01*
X91496400Y-85331200D01*
X91846400Y-85331200D01*
X91846400Y-84023200D01*
X92100400Y-84023200D01*
X92100400Y-85331200D01*
X92450400Y-85331200D01*
X92989883Y-85173366D01*
X93427900Y-84821096D01*
X93697767Y-84328019D01*
X93715304Y-84245239D01*
X93593315Y-84023200D01*
X92100400Y-84023200D01*
X91846400Y-84023200D01*
X90353485Y-84023200D01*
X90231496Y-84245239D01*
X88999290Y-84245239D01*
X88787862Y-83733545D01*
X88328473Y-83273354D01*
X87727947Y-83023994D01*
X87077706Y-83023426D01*
X86476745Y-83271738D01*
X86016554Y-83731127D01*
X85819716Y-84205165D01*
X85645365Y-83784242D01*
X85378563Y-83685643D01*
X84406005Y-84658200D01*
X84046795Y-84658200D01*
X83074237Y-83685643D01*
X82807435Y-83784242D01*
X82580999Y-84393782D01*
X81609000Y-84393782D01*
X81609000Y-83506037D01*
X83253843Y-83506037D01*
X84226400Y-84478595D01*
X85198957Y-83506037D01*
X85100358Y-83239235D01*
X84490818Y-83012799D01*
X83841023Y-83036859D01*
X83352442Y-83239235D01*
X83253843Y-83506037D01*
X81609000Y-83506037D01*
X81609000Y-76276200D01*
X90153430Y-76276200D01*
X90262663Y-76825351D01*
X90573732Y-77290898D01*
X90955818Y-77546200D01*
X90573732Y-77801502D01*
X90262663Y-78267049D01*
X90153430Y-78816200D01*
X90262663Y-79365351D01*
X90573732Y-79830898D01*
X90955818Y-80086200D01*
X90573732Y-80341502D01*
X90262663Y-80807049D01*
X90153430Y-81356200D01*
X90262663Y-81905351D01*
X90573732Y-82370898D01*
X90951551Y-82623349D01*
X90518900Y-82971304D01*
X90249033Y-83464381D01*
X90231496Y-83547161D01*
X90353485Y-83769200D01*
X91846400Y-83769200D01*
X91846400Y-83749200D01*
X92100400Y-83749200D01*
X92100400Y-83769200D01*
X93593315Y-83769200D01*
X93715304Y-83547161D01*
X93697767Y-83464381D01*
X93427900Y-82971304D01*
X92995249Y-82623349D01*
X93373068Y-82370898D01*
X93684137Y-81905351D01*
X93793370Y-81356200D01*
X93684137Y-80807049D01*
X93373068Y-80341502D01*
X92990982Y-80086200D01*
X93373068Y-79830898D01*
X93684137Y-79365351D01*
X93793370Y-78816200D01*
X93684137Y-78267049D01*
X93373068Y-77801502D01*
X92990982Y-77546200D01*
X93373068Y-77290898D01*
X93684137Y-76825351D01*
X93793370Y-76276200D01*
X93684137Y-75727049D01*
X93373068Y-75261502D01*
X92995249Y-75009051D01*
X93427900Y-74661096D01*
X93697767Y-74168019D01*
X93715304Y-74085239D01*
X93593315Y-73863200D01*
X92100400Y-73863200D01*
X92100400Y-73883200D01*
X91846400Y-73883200D01*
X91846400Y-73863200D01*
X90353485Y-73863200D01*
X90231496Y-74085239D01*
X90249033Y-74168019D01*
X90518900Y-74661096D01*
X90951551Y-75009051D01*
X90573732Y-75261502D01*
X90262663Y-75727049D01*
X90153430Y-76276200D01*
X81609000Y-76276200D01*
X81609000Y-74821894D01*
X82591626Y-74821894D01*
X82839938Y-75422855D01*
X83299327Y-75883046D01*
X83899853Y-76132406D01*
X84550094Y-76132974D01*
X85151055Y-75884662D01*
X85611246Y-75425273D01*
X85814091Y-74936768D01*
X86014938Y-75422855D01*
X86474327Y-75883046D01*
X87074853Y-76132406D01*
X87725094Y-76132974D01*
X88326055Y-75884662D01*
X88786246Y-75425273D01*
X89035606Y-74824747D01*
X89036174Y-74174506D01*
X88787862Y-73573545D01*
X88328473Y-73113354D01*
X87727947Y-72863994D01*
X87077706Y-72863426D01*
X86476745Y-73111738D01*
X86016554Y-73571127D01*
X85813709Y-74059632D01*
X85612862Y-73573545D01*
X85153473Y-73113354D01*
X84552947Y-72863994D01*
X83902706Y-72863426D01*
X83301745Y-73111738D01*
X82841554Y-73571127D01*
X82592194Y-74171653D01*
X82591626Y-74821894D01*
X81609000Y-74821894D01*
X81609000Y-71160413D01*
X84695792Y-71160413D01*
X84765257Y-71402597D01*
X85288702Y-71589344D01*
X85843768Y-71561562D01*
X85883175Y-71545239D01*
X90231496Y-71545239D01*
X90249033Y-71628019D01*
X90518900Y-72121096D01*
X90948007Y-72466200D01*
X90518900Y-72811304D01*
X90249033Y-73304381D01*
X90231496Y-73387161D01*
X90353485Y-73609200D01*
X91846400Y-73609200D01*
X91846400Y-71323200D01*
X92100400Y-71323200D01*
X92100400Y-73609200D01*
X93593315Y-73609200D01*
X93715304Y-73387161D01*
X93697767Y-73304381D01*
X93427900Y-72811304D01*
X92998793Y-72466200D01*
X93427900Y-72121096D01*
X93697767Y-71628019D01*
X93715304Y-71545239D01*
X93593315Y-71323200D01*
X92100400Y-71323200D01*
X91846400Y-71323200D01*
X90353485Y-71323200D01*
X90231496Y-71545239D01*
X85883175Y-71545239D01*
X86227543Y-71402597D01*
X86297008Y-71160413D01*
X85496400Y-70359805D01*
X84695792Y-71160413D01*
X81609000Y-71160413D01*
X81609000Y-69972502D01*
X84087256Y-69972502D01*
X84115038Y-70527568D01*
X84274003Y-70911343D01*
X84516187Y-70980808D01*
X85316795Y-70180200D01*
X85676005Y-70180200D01*
X86476613Y-70980808D01*
X86718797Y-70911343D01*
X86905544Y-70387898D01*
X86877762Y-69832832D01*
X86718797Y-69449057D01*
X86476613Y-69379592D01*
X85676005Y-70180200D01*
X85316795Y-70180200D01*
X84516187Y-69379592D01*
X84274003Y-69449057D01*
X84087256Y-69972502D01*
X81609000Y-69972502D01*
X81609000Y-65376861D01*
X84099158Y-65376861D01*
X84311390Y-65890503D01*
X84704030Y-66283829D01*
X84911912Y-66370149D01*
X84706097Y-66455190D01*
X84312771Y-66847830D01*
X84099643Y-67361100D01*
X84099158Y-67916861D01*
X84311390Y-68430503D01*
X84704030Y-68823829D01*
X84896127Y-68903595D01*
X84765257Y-68957803D01*
X84695792Y-69199987D01*
X85496400Y-70000595D01*
X86297008Y-69199987D01*
X86227543Y-68957803D01*
X86087082Y-68907691D01*
X86286703Y-68825210D01*
X86456008Y-68656200D01*
X90153430Y-68656200D01*
X90262663Y-69205351D01*
X90573732Y-69670898D01*
X90951551Y-69923349D01*
X90518900Y-70271304D01*
X90249033Y-70764381D01*
X90231496Y-70847161D01*
X90353485Y-71069200D01*
X91846400Y-71069200D01*
X91846400Y-71049200D01*
X92100400Y-71049200D01*
X92100400Y-71069200D01*
X93593315Y-71069200D01*
X93715304Y-70847161D01*
X93697767Y-70764381D01*
X93427900Y-70271304D01*
X92995249Y-69923349D01*
X93373068Y-69670898D01*
X93684137Y-69205351D01*
X93793370Y-68656200D01*
X93684137Y-68107049D01*
X93373068Y-67641502D01*
X93227285Y-67544093D01*
X93358717Y-67519362D01*
X93574841Y-67380290D01*
X93719831Y-67168090D01*
X93770840Y-66916200D01*
X93770840Y-65316200D01*
X93726562Y-65080883D01*
X93587490Y-64864759D01*
X93375290Y-64719769D01*
X93123400Y-64668760D01*
X90823400Y-64668760D01*
X90588083Y-64713038D01*
X90371959Y-64852110D01*
X90226969Y-65064310D01*
X90175960Y-65316200D01*
X90175960Y-66916200D01*
X90220238Y-67151517D01*
X90359310Y-67367641D01*
X90571510Y-67512631D01*
X90721226Y-67542949D01*
X90573732Y-67641502D01*
X90262663Y-68107049D01*
X90153430Y-68656200D01*
X86456008Y-68656200D01*
X86680029Y-68432570D01*
X86893157Y-67919300D01*
X86893642Y-67363539D01*
X86681410Y-66849897D01*
X86288770Y-66456571D01*
X86080888Y-66370251D01*
X86286703Y-66285210D01*
X86680029Y-65892570D01*
X86893157Y-65379300D01*
X86893642Y-64823539D01*
X86681410Y-64309897D01*
X86288770Y-63916571D01*
X85775500Y-63703443D01*
X85219739Y-63702958D01*
X84706097Y-63915190D01*
X84312771Y-64307830D01*
X84099643Y-64821100D01*
X84099158Y-65376861D01*
X81609000Y-65376861D01*
X81609000Y-63205216D01*
X92603990Y-63205216D01*
X92659671Y-63435811D01*
X93142478Y-63603822D01*
X93652828Y-63574283D01*
X93987129Y-63435811D01*
X94042810Y-63205216D01*
X93323400Y-62485805D01*
X92603990Y-63205216D01*
X81609000Y-63205216D01*
X81609000Y-62125278D01*
X92025778Y-62125278D01*
X92055317Y-62635628D01*
X92193789Y-62969929D01*
X92424384Y-63025610D01*
X93143795Y-62306200D01*
X93503005Y-62306200D01*
X94222416Y-63025610D01*
X94453011Y-62969929D01*
X94621022Y-62487122D01*
X94591483Y-61976772D01*
X94458698Y-61656200D01*
X97025960Y-61656200D01*
X97025960Y-62956200D01*
X97070238Y-63191517D01*
X97209310Y-63407641D01*
X97421510Y-63552631D01*
X97673400Y-63603640D01*
X98973400Y-63603640D01*
X99208717Y-63559362D01*
X99424841Y-63420290D01*
X99569831Y-63208090D01*
X99620840Y-62956200D01*
X99620840Y-61656200D01*
X99576562Y-61420883D01*
X99437490Y-61204759D01*
X99225290Y-61059769D01*
X98973400Y-61008760D01*
X97673400Y-61008760D01*
X97438083Y-61053038D01*
X97221959Y-61192110D01*
X97076969Y-61404310D01*
X97025960Y-61656200D01*
X94458698Y-61656200D01*
X94453011Y-61642471D01*
X94222416Y-61586790D01*
X93503005Y-62306200D01*
X93143795Y-62306200D01*
X92424384Y-61586790D01*
X92193789Y-61642471D01*
X92025778Y-62125278D01*
X81609000Y-62125278D01*
X81609000Y-61407184D01*
X92603990Y-61407184D01*
X93323400Y-62126595D01*
X94042810Y-61407184D01*
X93987129Y-61176589D01*
X93504322Y-61008578D01*
X92993972Y-61038117D01*
X92659671Y-61176589D01*
X92603990Y-61407184D01*
X81609000Y-61407184D01*
X81609000Y-59893681D01*
X92038177Y-59893681D01*
X92233395Y-60366143D01*
X92594555Y-60727935D01*
X93066676Y-60923977D01*
X93577881Y-60924423D01*
X94050343Y-60729205D01*
X94412135Y-60368045D01*
X94608177Y-59895924D01*
X94608623Y-59384719D01*
X94445198Y-58989200D01*
X97025960Y-58989200D01*
X97025960Y-60289200D01*
X97070238Y-60524517D01*
X97209310Y-60740641D01*
X97421510Y-60885631D01*
X97673400Y-60936640D01*
X98973400Y-60936640D01*
X99208717Y-60892362D01*
X99424841Y-60753290D01*
X99569831Y-60541090D01*
X99570585Y-60537363D01*
X104335843Y-60537363D01*
X104434442Y-60804165D01*
X105043982Y-61030601D01*
X105693777Y-61006541D01*
X106182358Y-60804165D01*
X106280957Y-60537363D01*
X105308400Y-59564805D01*
X104335843Y-60537363D01*
X99570585Y-60537363D01*
X99620840Y-60289200D01*
X99620840Y-59120782D01*
X103662999Y-59120782D01*
X103687059Y-59770577D01*
X103889435Y-60259158D01*
X104156237Y-60357757D01*
X105128795Y-59385200D01*
X105488005Y-59385200D01*
X106460563Y-60357757D01*
X106727365Y-60259158D01*
X106953801Y-59649618D01*
X106929741Y-58999823D01*
X106727365Y-58511242D01*
X106460563Y-58412643D01*
X105488005Y-59385200D01*
X105128795Y-59385200D01*
X104156237Y-58412643D01*
X103889435Y-58511242D01*
X103662999Y-59120782D01*
X99620840Y-59120782D01*
X99620840Y-58989200D01*
X99576562Y-58753883D01*
X99437490Y-58537759D01*
X99225290Y-58392769D01*
X98973400Y-58341760D01*
X97673400Y-58341760D01*
X97438083Y-58386038D01*
X97221959Y-58525110D01*
X97076969Y-58737310D01*
X97025960Y-58989200D01*
X94445198Y-58989200D01*
X94413405Y-58912257D01*
X94052245Y-58550465D01*
X93580124Y-58354423D01*
X93068919Y-58353977D01*
X92596457Y-58549195D01*
X92234665Y-58910355D01*
X92038623Y-59382476D01*
X92038177Y-59893681D01*
X81609000Y-59893681D01*
X81609000Y-56061515D01*
X83107030Y-56061515D01*
X83431380Y-56846500D01*
X84031441Y-57447609D01*
X84815859Y-57773328D01*
X85665215Y-57774070D01*
X86450200Y-57449720D01*
X86985960Y-56914894D01*
X89322626Y-56914894D01*
X89570938Y-57515855D01*
X90030327Y-57976046D01*
X90630853Y-58225406D01*
X91281094Y-58225974D01*
X91882055Y-57977662D01*
X92116763Y-57743363D01*
X100144843Y-57743363D01*
X100243442Y-58010165D01*
X100852982Y-58236601D01*
X100949235Y-58233037D01*
X104335843Y-58233037D01*
X105308400Y-59205595D01*
X106280957Y-58233037D01*
X106182358Y-57966235D01*
X105572818Y-57739799D01*
X104923023Y-57763859D01*
X104434442Y-57966235D01*
X104335843Y-58233037D01*
X100949235Y-58233037D01*
X101502777Y-58212541D01*
X101991358Y-58010165D01*
X102089957Y-57743363D01*
X101117400Y-56770805D01*
X100144843Y-57743363D01*
X92116763Y-57743363D01*
X92342246Y-57518273D01*
X92591606Y-56917747D01*
X92592122Y-56326782D01*
X99471999Y-56326782D01*
X99496059Y-56976577D01*
X99698435Y-57465158D01*
X99965237Y-57563757D01*
X100937795Y-56591200D01*
X101297005Y-56591200D01*
X102269563Y-57563757D01*
X102536365Y-57465158D01*
X102762801Y-56855618D01*
X102738741Y-56205823D01*
X102678967Y-56061515D01*
X155243030Y-56061515D01*
X155567380Y-56846500D01*
X156167441Y-57447609D01*
X156951859Y-57773328D01*
X157801215Y-57774070D01*
X158586200Y-57449720D01*
X159187309Y-56849659D01*
X159513028Y-56065241D01*
X159513770Y-55215885D01*
X159189420Y-54430900D01*
X158589359Y-53829791D01*
X157804941Y-53504072D01*
X156955585Y-53503330D01*
X156170600Y-53827680D01*
X155569491Y-54427741D01*
X155243772Y-55212159D01*
X155243030Y-56061515D01*
X102678967Y-56061515D01*
X102536365Y-55717242D01*
X102269563Y-55618643D01*
X101297005Y-56591200D01*
X100937795Y-56591200D01*
X99965237Y-55618643D01*
X99698435Y-55717242D01*
X99471999Y-56326782D01*
X92592122Y-56326782D01*
X92592174Y-56267506D01*
X92343862Y-55666545D01*
X92116751Y-55439037D01*
X100144843Y-55439037D01*
X101117400Y-56411595D01*
X102089957Y-55439037D01*
X101991358Y-55172235D01*
X101381818Y-54945799D01*
X100732023Y-54969859D01*
X100243442Y-55172235D01*
X100144843Y-55439037D01*
X92116751Y-55439037D01*
X91884473Y-55206354D01*
X91283947Y-54956994D01*
X90633706Y-54956426D01*
X90032745Y-55204738D01*
X89572554Y-55664127D01*
X89323194Y-56264653D01*
X89322626Y-56914894D01*
X86985960Y-56914894D01*
X87051309Y-56849659D01*
X87377028Y-56065241D01*
X87377770Y-55215885D01*
X87053420Y-54430900D01*
X86453359Y-53829791D01*
X85668941Y-53504072D01*
X84819585Y-53503330D01*
X84034600Y-53827680D01*
X83433491Y-54427741D01*
X83107772Y-55212159D01*
X83107030Y-56061515D01*
X81609000Y-56061515D01*
X81609000Y-52081500D01*
X160961000Y-52081500D01*
X160961000Y-98410456D01*
X160961000Y-98410456D01*
G37*
X160961000Y-98410456D02*
X160683068Y-97994502D01*
X160217521Y-97683433D01*
X159668370Y-97574200D01*
X158898430Y-97574200D01*
X158349279Y-97683433D01*
X158108752Y-97844149D01*
X158080548Y-97702361D01*
X157915801Y-97455799D01*
X155136202Y-94676200D01*
X156715960Y-94676200D01*
X156715960Y-95976200D01*
X156760238Y-96211517D01*
X156899310Y-96427641D01*
X157111510Y-96572631D01*
X157363400Y-96623640D01*
X158663400Y-96623640D01*
X158898717Y-96579362D01*
X159114841Y-96440290D01*
X159259831Y-96228090D01*
X159310840Y-95976200D01*
X159310840Y-94676200D01*
X159266562Y-94440883D01*
X159127490Y-94224759D01*
X158915290Y-94079769D01*
X158663400Y-94028760D01*
X157363400Y-94028760D01*
X157128083Y-94073038D01*
X156911959Y-94212110D01*
X156766969Y-94424310D01*
X156715960Y-94676200D01*
X155136202Y-94676200D01*
X153724801Y-93264799D01*
X153478239Y-93100052D01*
X153187400Y-93042200D01*
X146263202Y-93042200D01*
X144805400Y-91584398D01*
X144805400Y-90373200D01*
X145059400Y-90373200D01*
X145059400Y-91681200D01*
X145409400Y-91681200D01*
X145948883Y-91523366D01*
X146386900Y-91171096D01*
X146656767Y-90678019D01*
X146674304Y-90595239D01*
X150810496Y-90595239D01*
X150828033Y-90678019D01*
X151097900Y-91171096D01*
X151535917Y-91523366D01*
X152075400Y-91681200D01*
X152425400Y-91681200D01*
X152425400Y-90373200D01*
X152679400Y-90373200D01*
X152679400Y-91681200D01*
X153029400Y-91681200D01*
X153568883Y-91523366D01*
X154006900Y-91171096D01*
X154276767Y-90678019D01*
X154294304Y-90595239D01*
X154172315Y-90373200D01*
X152679400Y-90373200D01*
X152425400Y-90373200D01*
X150932485Y-90373200D01*
X150810496Y-90595239D01*
X146674304Y-90595239D01*
X146552315Y-90373200D01*
X145059400Y-90373200D01*
X144805400Y-90373200D01*
X144785400Y-90373200D01*
X144785400Y-90119200D01*
X144805400Y-90119200D01*
X144805400Y-90099200D01*
X145059400Y-90099200D01*
X145059400Y-90119200D01*
X146552315Y-90119200D01*
X146674304Y-89897161D01*
X146656767Y-89814381D01*
X146386900Y-89321304D01*
X145954249Y-88973349D01*
X146332068Y-88720898D01*
X146643137Y-88255351D01*
X146752370Y-87706200D01*
X146643137Y-87157049D01*
X146332068Y-86691502D01*
X145949982Y-86436200D01*
X146332068Y-86180898D01*
X146643137Y-85715351D01*
X146752370Y-85166200D01*
X146643137Y-84617049D01*
X146332068Y-84151502D01*
X146186285Y-84054093D01*
X146317717Y-84029362D01*
X146533841Y-83890290D01*
X146678831Y-83678090D01*
X146729840Y-83426200D01*
X146729840Y-81826200D01*
X146685562Y-81590883D01*
X146546490Y-81374759D01*
X146334290Y-81229769D01*
X146082400Y-81178760D01*
X143782400Y-81178760D01*
X143547083Y-81223038D01*
X143330959Y-81362110D01*
X143185969Y-81574310D01*
X143134960Y-81826200D01*
X143134960Y-83426200D01*
X143179238Y-83661517D01*
X143318310Y-83877641D01*
X143530510Y-84022631D01*
X143680226Y-84052949D01*
X143532732Y-84151502D01*
X143221663Y-84617049D01*
X143171290Y-84870288D01*
X140993400Y-82692398D01*
X140993400Y-68783200D01*
X140970684Y-68669000D01*
X140935548Y-68492360D01*
X140770801Y-68245799D01*
X140003092Y-67478090D01*
X140021370Y-67386200D01*
X139912137Y-66837049D01*
X139601068Y-66371502D01*
X139218982Y-66116200D01*
X139601068Y-65860898D01*
X139912137Y-65395351D01*
X139986003Y-65024000D01*
X142198030Y-65024000D01*
X142307263Y-65573151D01*
X142618332Y-66038698D01*
X143000418Y-66294000D01*
X142618332Y-66549302D01*
X142307263Y-67014849D01*
X142198030Y-67564000D01*
X142307263Y-68113151D01*
X142618332Y-68578698D01*
X143000418Y-68834000D01*
X142618332Y-69089302D01*
X142307263Y-69554849D01*
X142198030Y-70104000D01*
X142307263Y-70653151D01*
X142618332Y-71118698D01*
X143083879Y-71429767D01*
X143179800Y-71448847D01*
X143179800Y-76631800D01*
X143243604Y-76952566D01*
X143425303Y-77224497D01*
X145031960Y-78831154D01*
X145031960Y-79593200D01*
X145076238Y-79828517D01*
X145215310Y-80044641D01*
X145427510Y-80189631D01*
X145679400Y-80240640D01*
X146979400Y-80240640D01*
X147214717Y-80196362D01*
X147430841Y-80057290D01*
X147575831Y-79845090D01*
X147588729Y-79781400D01*
X148522206Y-79781400D01*
X150837713Y-82096907D01*
X150732430Y-82626200D01*
X150841663Y-83175351D01*
X151152732Y-83640898D01*
X151534818Y-83896200D01*
X151152732Y-84151502D01*
X150841663Y-84617049D01*
X150732430Y-85166200D01*
X150841663Y-85715351D01*
X151152732Y-86180898D01*
X151534818Y-86436200D01*
X151152732Y-86691502D01*
X150841663Y-87157049D01*
X150732430Y-87706200D01*
X150841663Y-88255351D01*
X151152732Y-88720898D01*
X151530551Y-88973349D01*
X151097900Y-89321304D01*
X150828033Y-89814381D01*
X150810496Y-89897161D01*
X150932485Y-90119200D01*
X152425400Y-90119200D01*
X152425400Y-90099200D01*
X152679400Y-90099200D01*
X152679400Y-90119200D01*
X154172315Y-90119200D01*
X154294304Y-89897161D01*
X154276767Y-89814381D01*
X154006900Y-89321304D01*
X153574249Y-88973349D01*
X153952068Y-88720898D01*
X154263137Y-88255351D01*
X154372370Y-87706200D01*
X154263137Y-87157049D01*
X153952068Y-86691502D01*
X153569982Y-86436200D01*
X153952068Y-86180898D01*
X154263137Y-85715351D01*
X154372370Y-85166200D01*
X154263137Y-84617049D01*
X153952068Y-84151502D01*
X153569982Y-83896200D01*
X153952068Y-83640898D01*
X154263137Y-83175351D01*
X154317705Y-82901016D01*
X156760590Y-82901016D01*
X156816271Y-83131611D01*
X157299078Y-83299622D01*
X157809428Y-83270083D01*
X158143729Y-83131611D01*
X158199410Y-82901016D01*
X157480000Y-82181605D01*
X156760590Y-82901016D01*
X154317705Y-82901016D01*
X154372370Y-82626200D01*
X154263137Y-82077049D01*
X154092103Y-81821078D01*
X156182378Y-81821078D01*
X156211917Y-82331428D01*
X156350389Y-82665729D01*
X156580984Y-82721410D01*
X157300395Y-82002000D01*
X157659605Y-82002000D01*
X158379016Y-82721410D01*
X158609611Y-82665729D01*
X158777622Y-82182922D01*
X158748083Y-81672572D01*
X158609611Y-81338271D01*
X158379016Y-81282590D01*
X157659605Y-82002000D01*
X157300395Y-82002000D01*
X156580984Y-81282590D01*
X156350389Y-81338271D01*
X156182378Y-81821078D01*
X154092103Y-81821078D01*
X153952068Y-81611502D01*
X153486521Y-81300433D01*
X152937370Y-81191200D01*
X152302794Y-81191200D01*
X151341258Y-80229664D01*
X151658828Y-80211283D01*
X151993129Y-80072811D01*
X152048810Y-79842216D01*
X151329400Y-79122805D01*
X151315258Y-79136948D01*
X151135652Y-78957342D01*
X151149795Y-78943200D01*
X151509005Y-78943200D01*
X152228416Y-79662610D01*
X152459011Y-79606929D01*
X152627022Y-79124122D01*
X152611272Y-78852000D01*
X156182560Y-78852000D01*
X156182560Y-80152000D01*
X156226838Y-80387317D01*
X156365910Y-80603441D01*
X156578110Y-80748431D01*
X156830000Y-80799440D01*
X156992385Y-80799440D01*
X156816271Y-80872389D01*
X156760590Y-81102984D01*
X157480000Y-81822395D01*
X158199410Y-81102984D01*
X158143729Y-80872389D01*
X157934098Y-80799440D01*
X158130000Y-80799440D01*
X158365317Y-80755162D01*
X158581441Y-80616090D01*
X158726431Y-80403890D01*
X158777440Y-80152000D01*
X158777440Y-78852000D01*
X158733162Y-78616683D01*
X158594090Y-78400559D01*
X158381890Y-78255569D01*
X158130000Y-78204560D01*
X156830000Y-78204560D01*
X156594683Y-78248838D01*
X156378559Y-78387910D01*
X156233569Y-78600110D01*
X156182560Y-78852000D01*
X152611272Y-78852000D01*
X152597483Y-78613772D01*
X152459011Y-78279471D01*
X152228416Y-78223790D01*
X151509005Y-78943200D01*
X151149795Y-78943200D01*
X150430384Y-78223790D01*
X150199789Y-78279471D01*
X150031778Y-78762278D01*
X150041479Y-78929885D01*
X149462097Y-78350503D01*
X149190166Y-78168804D01*
X148869400Y-78105000D01*
X147591428Y-78105000D01*
X147582562Y-78057883D01*
X147573747Y-78044184D01*
X150609990Y-78044184D01*
X151329400Y-78763595D01*
X152048810Y-78044184D01*
X151993129Y-77813589D01*
X151510322Y-77645578D01*
X150999972Y-77675117D01*
X150665671Y-77813589D01*
X150609990Y-78044184D01*
X147573747Y-78044184D01*
X147443490Y-77841759D01*
X147231290Y-77696769D01*
X146979400Y-77645760D01*
X146217354Y-77645760D01*
X144856200Y-76284606D01*
X144856200Y-75583894D01*
X154092626Y-75583894D01*
X154340938Y-76184855D01*
X154800327Y-76645046D01*
X155400853Y-76894406D01*
X156051094Y-76894974D01*
X156652055Y-76646662D01*
X157112246Y-76187273D01*
X157124121Y-76158675D01*
X157134938Y-76184855D01*
X157594327Y-76645046D01*
X158194853Y-76894406D01*
X158845094Y-76894974D01*
X159446055Y-76646662D01*
X159906246Y-76187273D01*
X160155606Y-75586747D01*
X160156174Y-74936506D01*
X159907862Y-74335545D01*
X159448473Y-73875354D01*
X158847947Y-73625994D01*
X158197706Y-73625426D01*
X157596745Y-73873738D01*
X157136554Y-74333127D01*
X157124679Y-74361725D01*
X157113862Y-74335545D01*
X156654473Y-73875354D01*
X156053947Y-73625994D01*
X155403706Y-73625426D01*
X154802745Y-73873738D01*
X154342554Y-74333127D01*
X154093194Y-74933653D01*
X154092626Y-75583894D01*
X144856200Y-75583894D01*
X144856200Y-75036842D01*
X145212478Y-75160822D01*
X145722828Y-75131283D01*
X146057129Y-74992811D01*
X146112810Y-74762216D01*
X145393400Y-74042805D01*
X145379258Y-74056948D01*
X145199653Y-73877343D01*
X145213795Y-73863200D01*
X145573005Y-73863200D01*
X146292416Y-74582610D01*
X146523011Y-74526929D01*
X146691022Y-74044122D01*
X146661483Y-73533772D01*
X146528698Y-73213200D01*
X149095960Y-73213200D01*
X149095960Y-74513200D01*
X149140238Y-74748517D01*
X149279310Y-74964641D01*
X149491510Y-75109631D01*
X149743400Y-75160640D01*
X151043400Y-75160640D01*
X151278717Y-75116362D01*
X151494841Y-74977290D01*
X151639831Y-74765090D01*
X151690840Y-74513200D01*
X151690840Y-73213200D01*
X151646562Y-72977883D01*
X151507490Y-72761759D01*
X151295290Y-72616769D01*
X151043400Y-72565760D01*
X149743400Y-72565760D01*
X149508083Y-72610038D01*
X149291959Y-72749110D01*
X149146969Y-72961310D01*
X149095960Y-73213200D01*
X146528698Y-73213200D01*
X146523011Y-73199471D01*
X146292416Y-73143790D01*
X145573005Y-73863200D01*
X145213795Y-73863200D01*
X145199653Y-73849058D01*
X145379258Y-73669452D01*
X145393400Y-73683595D01*
X146112810Y-72964184D01*
X146057129Y-72733589D01*
X145574322Y-72565578D01*
X145063972Y-72595117D01*
X144856200Y-72681179D01*
X144856200Y-71448847D01*
X144952121Y-71429767D01*
X145417668Y-71118698D01*
X145728737Y-70653151D01*
X145837970Y-70104000D01*
X145732687Y-69574707D01*
X149895239Y-65412155D01*
X149927263Y-65573151D01*
X150238332Y-66038698D01*
X150620418Y-66294000D01*
X150238332Y-66549302D01*
X149927263Y-67014849D01*
X149818030Y-67564000D01*
X149927263Y-68113151D01*
X150238332Y-68578698D01*
X150620418Y-68834000D01*
X150238332Y-69089302D01*
X149927263Y-69554849D01*
X149818030Y-70104000D01*
X149927263Y-70653151D01*
X150238332Y-71118698D01*
X150703879Y-71429767D01*
X151253030Y-71539000D01*
X152022970Y-71539000D01*
X152572121Y-71429767D01*
X153037668Y-71118698D01*
X153348737Y-70653151D01*
X153457970Y-70104000D01*
X153348737Y-69554849D01*
X153037668Y-69089302D01*
X152655582Y-68834000D01*
X153037668Y-68578698D01*
X153348737Y-68113151D01*
X153457970Y-67564000D01*
X153348737Y-67014849D01*
X153037668Y-66549302D01*
X152655582Y-66294000D01*
X153037668Y-66038698D01*
X153348737Y-65573151D01*
X153378426Y-65423894D01*
X154092626Y-65423894D01*
X154340938Y-66024855D01*
X154800327Y-66485046D01*
X155400853Y-66734406D01*
X156051094Y-66734974D01*
X156652055Y-66486662D01*
X157112246Y-66027273D01*
X157124121Y-65998675D01*
X157134938Y-66024855D01*
X157594327Y-66485046D01*
X158194853Y-66734406D01*
X158845094Y-66734974D01*
X159446055Y-66486662D01*
X159906246Y-66027273D01*
X160155606Y-65426747D01*
X160156174Y-64776506D01*
X159907862Y-64175545D01*
X159448473Y-63715354D01*
X158847947Y-63465994D01*
X158197706Y-63465426D01*
X157596745Y-63713738D01*
X157136554Y-64173127D01*
X157124679Y-64201725D01*
X157113862Y-64175545D01*
X156654473Y-63715354D01*
X156053947Y-63465994D01*
X155403706Y-63465426D01*
X154802745Y-63713738D01*
X154342554Y-64173127D01*
X154093194Y-64773653D01*
X154092626Y-65423894D01*
X153378426Y-65423894D01*
X153457970Y-65024000D01*
X153348737Y-64474849D01*
X153037668Y-64009302D01*
X152655582Y-63754000D01*
X153037668Y-63498698D01*
X153348737Y-63033151D01*
X153457970Y-62484000D01*
X153348737Y-61934849D01*
X153037668Y-61469302D01*
X152572121Y-61158233D01*
X152022970Y-61049000D01*
X151253030Y-61049000D01*
X150703879Y-61158233D01*
X150238332Y-61469302D01*
X149927263Y-61934849D01*
X149818030Y-62484000D01*
X149923313Y-63013293D01*
X145760761Y-67175845D01*
X145728737Y-67014849D01*
X145417668Y-66549302D01*
X145035582Y-66294000D01*
X145417668Y-66038698D01*
X145728737Y-65573151D01*
X145837970Y-65024000D01*
X145728737Y-64474849D01*
X145417668Y-64009302D01*
X145282522Y-63919000D01*
X145294309Y-63919000D01*
X145527698Y-63822327D01*
X145706327Y-63643699D01*
X145803000Y-63410310D01*
X145803000Y-62769750D01*
X145644250Y-62611000D01*
X144145000Y-62611000D01*
X144145000Y-62631000D01*
X143891000Y-62631000D01*
X143891000Y-62611000D01*
X142391750Y-62611000D01*
X142233000Y-62769750D01*
X142233000Y-63410310D01*
X142329673Y-63643699D01*
X142508302Y-63822327D01*
X142741691Y-63919000D01*
X142753478Y-63919000D01*
X142618332Y-64009302D01*
X142307263Y-64474849D01*
X142198030Y-65024000D01*
X139986003Y-65024000D01*
X140021370Y-64846200D01*
X139912137Y-64297049D01*
X139601068Y-63831502D01*
X139218982Y-63576200D01*
X139601068Y-63320898D01*
X139912137Y-62855351D01*
X140021370Y-62306200D01*
X139912137Y-61757049D01*
X139778930Y-61557690D01*
X142233000Y-61557690D01*
X142233000Y-62198250D01*
X142391750Y-62357000D01*
X143891000Y-62357000D01*
X143891000Y-61207750D01*
X144145000Y-61207750D01*
X144145000Y-62357000D01*
X145644250Y-62357000D01*
X145803000Y-62198250D01*
X145803000Y-61557690D01*
X145706327Y-61324301D01*
X145527698Y-61145673D01*
X145294309Y-61049000D01*
X144303750Y-61049000D01*
X144145000Y-61207750D01*
X143891000Y-61207750D01*
X143732250Y-61049000D01*
X142741691Y-61049000D01*
X142508302Y-61145673D01*
X142329673Y-61324301D01*
X142233000Y-61557690D01*
X139778930Y-61557690D01*
X139601068Y-61291502D01*
X139135521Y-60980433D01*
X138586370Y-60871200D01*
X137816430Y-60871200D01*
X137267279Y-60980433D01*
X136801732Y-61291502D01*
X136490663Y-61757049D01*
X136381430Y-62306200D01*
X136490663Y-62855351D01*
X136801732Y-63320898D01*
X137183818Y-63576200D01*
X136801732Y-63831502D01*
X136490663Y-64297049D01*
X136381430Y-64846200D01*
X136490663Y-65395351D01*
X136801732Y-65860898D01*
X137183818Y-66116200D01*
X136801732Y-66371502D01*
X136490663Y-66837049D01*
X136381430Y-67386200D01*
X136490663Y-67935351D01*
X136801732Y-68400898D01*
X136947515Y-68498307D01*
X136816083Y-68523038D01*
X136599959Y-68662110D01*
X136454969Y-68874310D01*
X136403960Y-69126200D01*
X136403960Y-70726200D01*
X136448238Y-70961517D01*
X136587310Y-71177641D01*
X136799510Y-71322631D01*
X137051400Y-71373640D01*
X139351400Y-71373640D01*
X139473400Y-71350684D01*
X139473400Y-83007200D01*
X139531252Y-83298039D01*
X139695999Y-83544601D01*
X143256424Y-87105026D01*
X143221663Y-87157049D01*
X143112430Y-87706200D01*
X143221663Y-88255351D01*
X143532732Y-88720898D01*
X143910551Y-88973349D01*
X143477900Y-89321304D01*
X143208033Y-89814381D01*
X143190496Y-89897161D01*
X143287940Y-90074524D01*
X143064239Y-89925052D01*
X142773400Y-89867200D01*
X139560040Y-89867200D01*
X139560040Y-88544400D01*
X139515762Y-88309083D01*
X139376690Y-88092959D01*
X139164490Y-87947969D01*
X139120869Y-87939136D01*
X139138029Y-87927670D01*
X139462885Y-87441489D01*
X139576959Y-86868000D01*
X139462885Y-86294511D01*
X139138029Y-85808330D01*
X139124358Y-85799195D01*
X139147917Y-85794762D01*
X139364041Y-85655690D01*
X139509031Y-85443490D01*
X139560040Y-85191600D01*
X139560040Y-83464400D01*
X139515762Y-83229083D01*
X139376690Y-83012959D01*
X139164490Y-82867969D01*
X138912600Y-82816960D01*
X137185400Y-82816960D01*
X136950083Y-82861238D01*
X136733959Y-83000310D01*
X136588969Y-83212510D01*
X136580092Y-83256345D01*
X136111848Y-82943474D01*
X135538359Y-82829400D01*
X135479641Y-82829400D01*
X134906152Y-82943474D01*
X134770400Y-83034181D01*
X134770400Y-82880200D01*
X134712548Y-82589361D01*
X134547801Y-82342799D01*
X125164202Y-72959200D01*
X130426960Y-72959200D01*
X130426960Y-74259200D01*
X130471238Y-74494517D01*
X130610310Y-74710641D01*
X130822510Y-74855631D01*
X131074400Y-74906640D01*
X132374400Y-74906640D01*
X132609717Y-74862362D01*
X132825841Y-74723290D01*
X132970831Y-74511090D01*
X132971412Y-74508216D01*
X136004990Y-74508216D01*
X136060671Y-74738811D01*
X136543478Y-74906822D01*
X137053828Y-74877283D01*
X137388129Y-74738811D01*
X137443810Y-74508216D01*
X136724400Y-73788805D01*
X136004990Y-74508216D01*
X132971412Y-74508216D01*
X133021840Y-74259200D01*
X133021840Y-73428278D01*
X135426778Y-73428278D01*
X135456317Y-73938628D01*
X135594789Y-74272929D01*
X135825384Y-74328610D01*
X136544795Y-73609200D01*
X136904005Y-73609200D01*
X137623416Y-74328610D01*
X137854011Y-74272929D01*
X138022022Y-73790122D01*
X137992483Y-73279772D01*
X137854011Y-72945471D01*
X137623416Y-72889790D01*
X136904005Y-73609200D01*
X136544795Y-73609200D01*
X135825384Y-72889790D01*
X135594789Y-72945471D01*
X135426778Y-73428278D01*
X133021840Y-73428278D01*
X133021840Y-72959200D01*
X132977562Y-72723883D01*
X132968747Y-72710184D01*
X136004990Y-72710184D01*
X136724400Y-73429595D01*
X137443810Y-72710184D01*
X137388129Y-72479589D01*
X136905322Y-72311578D01*
X136394972Y-72341117D01*
X136060671Y-72479589D01*
X136004990Y-72710184D01*
X132968747Y-72710184D01*
X132838490Y-72507759D01*
X132626290Y-72362769D01*
X132374400Y-72311760D01*
X131074400Y-72311760D01*
X130839083Y-72356038D01*
X130622959Y-72495110D01*
X130477969Y-72707310D01*
X130426960Y-72959200D01*
X125164202Y-72959200D01*
X119981365Y-67776363D01*
X123639843Y-67776363D01*
X123738442Y-68043165D01*
X124347982Y-68269601D01*
X124997777Y-68245541D01*
X125486358Y-68043165D01*
X125584957Y-67776363D01*
X124612400Y-66803805D01*
X123639843Y-67776363D01*
X119981365Y-67776363D01*
X118564784Y-66359782D01*
X122966999Y-66359782D01*
X122991059Y-67009577D01*
X123193435Y-67498158D01*
X123460237Y-67596757D01*
X124432795Y-66624200D01*
X124792005Y-66624200D01*
X125764563Y-67596757D01*
X126031365Y-67498158D01*
X126257801Y-66888618D01*
X126233741Y-66238823D01*
X126031365Y-65750242D01*
X125764563Y-65651643D01*
X124792005Y-66624200D01*
X124432795Y-66624200D01*
X123460237Y-65651643D01*
X123193435Y-65750242D01*
X122966999Y-66359782D01*
X118564784Y-66359782D01*
X118291801Y-66086799D01*
X118045239Y-65922052D01*
X117754400Y-65864200D01*
X115906896Y-65864200D01*
X115838862Y-65699545D01*
X115379473Y-65239354D01*
X115044270Y-65100166D01*
X115377055Y-64962662D01*
X115837246Y-64503273D01*
X116086606Y-63902747D01*
X116087174Y-63252506D01*
X115838862Y-62651545D01*
X115379473Y-62191354D01*
X115197573Y-62115823D01*
X115377055Y-62041662D01*
X115837246Y-61582273D01*
X116086606Y-60981747D01*
X116086608Y-60978894D01*
X122977626Y-60978894D01*
X123225938Y-61579855D01*
X123685327Y-62040046D01*
X123867227Y-62115577D01*
X123687745Y-62189738D01*
X123227554Y-62649127D01*
X122978194Y-63249653D01*
X122977626Y-63899894D01*
X123225938Y-64500855D01*
X123685327Y-64961046D01*
X124006251Y-65094305D01*
X123738442Y-65205235D01*
X123639843Y-65472037D01*
X124612400Y-66444595D01*
X125584957Y-65472037D01*
X125486358Y-65205235D01*
X125203917Y-65100312D01*
X125537055Y-64962662D01*
X125997246Y-64503273D01*
X126246606Y-63902747D01*
X126247174Y-63252506D01*
X125998862Y-62651545D01*
X125654119Y-62306200D01*
X128761430Y-62306200D01*
X128870663Y-62855351D01*
X129181732Y-63320898D01*
X129563818Y-63576200D01*
X129181732Y-63831502D01*
X128870663Y-64297049D01*
X128761430Y-64846200D01*
X128870663Y-65395351D01*
X129181732Y-65860898D01*
X129563818Y-66116200D01*
X129181732Y-66371502D01*
X128870663Y-66837049D01*
X128761430Y-67386200D01*
X128870663Y-67935351D01*
X129181732Y-68400898D01*
X129563818Y-68656200D01*
X129181732Y-68911502D01*
X128870663Y-69377049D01*
X128761430Y-69926200D01*
X128870663Y-70475351D01*
X129181732Y-70940898D01*
X129647279Y-71251967D01*
X130196430Y-71361200D01*
X130966370Y-71361200D01*
X131515521Y-71251967D01*
X131981068Y-70940898D01*
X132292137Y-70475351D01*
X132401370Y-69926200D01*
X132292137Y-69377049D01*
X131981068Y-68911502D01*
X131598982Y-68656200D01*
X131981068Y-68400898D01*
X132292137Y-67935351D01*
X132401370Y-67386200D01*
X132292137Y-66837049D01*
X131981068Y-66371502D01*
X131598982Y-66116200D01*
X131981068Y-65860898D01*
X132292137Y-65395351D01*
X132401370Y-64846200D01*
X132292137Y-64297049D01*
X131981068Y-63831502D01*
X131598982Y-63576200D01*
X131981068Y-63320898D01*
X132292137Y-62855351D01*
X132401370Y-62306200D01*
X132292137Y-61757049D01*
X131981068Y-61291502D01*
X131515521Y-60980433D01*
X130966370Y-60871200D01*
X130196430Y-60871200D01*
X129647279Y-60980433D01*
X129181732Y-61291502D01*
X128870663Y-61757049D01*
X128761430Y-62306200D01*
X125654119Y-62306200D01*
X125539473Y-62191354D01*
X125357573Y-62115823D01*
X125537055Y-62041662D01*
X125997246Y-61582273D01*
X126246606Y-60981747D01*
X126247174Y-60331506D01*
X125998862Y-59730545D01*
X125664118Y-59395216D01*
X131211990Y-59395216D01*
X131267671Y-59625811D01*
X131750478Y-59793822D01*
X132260828Y-59764283D01*
X132595129Y-59625811D01*
X132650810Y-59395216D01*
X131931400Y-58675805D01*
X131211990Y-59395216D01*
X125664118Y-59395216D01*
X125539473Y-59270354D01*
X124938947Y-59020994D01*
X124288706Y-59020426D01*
X123687745Y-59268738D01*
X123227554Y-59728127D01*
X122978194Y-60328653D01*
X122977626Y-60978894D01*
X116086608Y-60978894D01*
X116087174Y-60331506D01*
X115838862Y-59730545D01*
X115379473Y-59270354D01*
X114778947Y-59020994D01*
X114128706Y-59020426D01*
X113527745Y-59268738D01*
X113067554Y-59728127D01*
X112818194Y-60328653D01*
X112817626Y-60978894D01*
X113065938Y-61579855D01*
X113525327Y-62040046D01*
X113707227Y-62115577D01*
X113527745Y-62189738D01*
X113067554Y-62649127D01*
X112818194Y-63249653D01*
X112817626Y-63899894D01*
X113065938Y-64500855D01*
X113525327Y-64961046D01*
X113860530Y-65100234D01*
X113527745Y-65237738D01*
X113067554Y-65697127D01*
X112818194Y-66297653D01*
X112817626Y-66947894D01*
X113065938Y-67548855D01*
X113525327Y-68009046D01*
X114125853Y-68258406D01*
X114776094Y-68258974D01*
X115377055Y-68010662D01*
X115837246Y-67551273D01*
X115906621Y-67384200D01*
X117439598Y-67384200D01*
X124697181Y-74641783D01*
X124306443Y-74641441D01*
X123371801Y-73706799D01*
X123125239Y-73542052D01*
X122834400Y-73484200D01*
X113182400Y-73484200D01*
X112891561Y-73542052D01*
X112644999Y-73706799D01*
X112426199Y-73925599D01*
X112547157Y-73634300D01*
X112547642Y-73078539D01*
X112335410Y-72564897D01*
X111942770Y-72171571D01*
X111429500Y-71958443D01*
X110873739Y-71957958D01*
X110360097Y-72170190D01*
X109966771Y-72562830D01*
X109753643Y-73076100D01*
X109753158Y-73631861D01*
X109965390Y-74145503D01*
X110358030Y-74538829D01*
X110565912Y-74625149D01*
X110360097Y-74710190D01*
X109966771Y-75102830D01*
X109753643Y-75616100D01*
X109753158Y-76171861D01*
X109965390Y-76685503D01*
X110358030Y-77078829D01*
X110565912Y-77165149D01*
X110360097Y-77250190D01*
X110012681Y-77597000D01*
X105435400Y-77597000D01*
X105114634Y-77660804D01*
X104842703Y-77842503D01*
X101399373Y-81285833D01*
X101304137Y-80807049D01*
X100993068Y-80341502D01*
X100610982Y-80086200D01*
X100993068Y-79830898D01*
X101304137Y-79365351D01*
X101413370Y-78816200D01*
X101304137Y-78267049D01*
X100993068Y-77801502D01*
X100615249Y-77549051D01*
X101047900Y-77201096D01*
X101317767Y-76708019D01*
X101335304Y-76625239D01*
X101213315Y-76403200D01*
X99720400Y-76403200D01*
X99720400Y-76423200D01*
X99466400Y-76423200D01*
X99466400Y-76403200D01*
X99446400Y-76403200D01*
X99446400Y-76149200D01*
X99466400Y-76149200D01*
X99466400Y-73863200D01*
X99720400Y-73863200D01*
X99720400Y-76149200D01*
X101213315Y-76149200D01*
X101335304Y-75927161D01*
X101317767Y-75844381D01*
X101047900Y-75351304D01*
X100618793Y-75006200D01*
X100847961Y-74821894D01*
X103546626Y-74821894D01*
X103794938Y-75422855D01*
X104254327Y-75883046D01*
X104854853Y-76132406D01*
X105505094Y-76132974D01*
X106106055Y-75884662D01*
X106566246Y-75425273D01*
X106815606Y-74824747D01*
X106816174Y-74174506D01*
X106567862Y-73573545D01*
X106108473Y-73113354D01*
X105507947Y-72863994D01*
X104857706Y-72863426D01*
X104256745Y-73111738D01*
X103796554Y-73571127D01*
X103547194Y-74171653D01*
X103546626Y-74821894D01*
X100847961Y-74821894D01*
X101047900Y-74661096D01*
X101317767Y-74168019D01*
X101335304Y-74085239D01*
X101213315Y-73863200D01*
X99720400Y-73863200D01*
X99466400Y-73863200D01*
X99446400Y-73863200D01*
X99446400Y-73609200D01*
X99466400Y-73609200D01*
X99466400Y-73589200D01*
X99720400Y-73589200D01*
X99720400Y-73609200D01*
X101213315Y-73609200D01*
X101335304Y-73387161D01*
X101317767Y-73304381D01*
X101047900Y-72811304D01*
X100615249Y-72463349D01*
X100993068Y-72210898D01*
X101304137Y-71745351D01*
X101395226Y-71287413D01*
X110222792Y-71287413D01*
X110292257Y-71529597D01*
X110815702Y-71716344D01*
X111370768Y-71688562D01*
X111754543Y-71529597D01*
X111824008Y-71287413D01*
X111023400Y-70486805D01*
X110222792Y-71287413D01*
X101395226Y-71287413D01*
X101413370Y-71196200D01*
X101304137Y-70647049D01*
X100993068Y-70181502D01*
X100610982Y-69926200D01*
X100696746Y-69868894D01*
X103673626Y-69868894D01*
X103921938Y-70469855D01*
X104381327Y-70930046D01*
X104981853Y-71179406D01*
X105632094Y-71179974D01*
X106233055Y-70931662D01*
X106693246Y-70472273D01*
X106848033Y-70099502D01*
X109614256Y-70099502D01*
X109642038Y-70654568D01*
X109801003Y-71038343D01*
X110043187Y-71107808D01*
X110843795Y-70307200D01*
X111203005Y-70307200D01*
X112003613Y-71107808D01*
X112245797Y-71038343D01*
X112432544Y-70514898D01*
X112404762Y-69959832D01*
X112245797Y-69576057D01*
X112003613Y-69506592D01*
X111203005Y-70307200D01*
X110843795Y-70307200D01*
X110043187Y-69506592D01*
X109801003Y-69576057D01*
X109614256Y-70099502D01*
X106848033Y-70099502D01*
X106942606Y-69871747D01*
X106943174Y-69221506D01*
X106694862Y-68620545D01*
X106235473Y-68160354D01*
X106068400Y-68090979D01*
X106068400Y-64145002D01*
X109626348Y-60587055D01*
X109626158Y-60804861D01*
X109838390Y-61318503D01*
X110231030Y-61711829D01*
X110438912Y-61798149D01*
X110233097Y-61883190D01*
X109839771Y-62275830D01*
X109626643Y-62789100D01*
X109626158Y-63344861D01*
X109838390Y-63858503D01*
X110127242Y-64147860D01*
X109839771Y-64434830D01*
X109626643Y-64948100D01*
X109626158Y-65503861D01*
X109838390Y-66017503D01*
X110231030Y-66410829D01*
X110438912Y-66497149D01*
X110233097Y-66582190D01*
X109839771Y-66974830D01*
X109626643Y-67488100D01*
X109626158Y-68043861D01*
X109838390Y-68557503D01*
X110231030Y-68950829D01*
X110423127Y-69030595D01*
X110292257Y-69084803D01*
X110222792Y-69326987D01*
X111023400Y-70127595D01*
X111824008Y-69326987D01*
X111754543Y-69084803D01*
X111614082Y-69034691D01*
X111813703Y-68952210D01*
X112207029Y-68559570D01*
X112420157Y-68046300D01*
X112420642Y-67490539D01*
X112208410Y-66976897D01*
X111815770Y-66583571D01*
X111607888Y-66497251D01*
X111813703Y-66412210D01*
X112207029Y-66019570D01*
X112420157Y-65506300D01*
X112420642Y-64950539D01*
X112208410Y-64436897D01*
X111919558Y-64147540D01*
X112207029Y-63860570D01*
X112420157Y-63347300D01*
X112420642Y-62791539D01*
X112208410Y-62277897D01*
X111815770Y-61884571D01*
X111607888Y-61798251D01*
X111813703Y-61713210D01*
X112207029Y-61320570D01*
X112420157Y-60807300D01*
X112420642Y-60251539D01*
X112208410Y-59737897D01*
X111815770Y-59344571D01*
X111607888Y-59258251D01*
X111813703Y-59173210D01*
X112207029Y-58780570D01*
X112400234Y-58315278D01*
X130633778Y-58315278D01*
X130663317Y-58825628D01*
X130801789Y-59159929D01*
X131032384Y-59215610D01*
X131751795Y-58496200D01*
X132111005Y-58496200D01*
X132830416Y-59215610D01*
X133061011Y-59159929D01*
X133229022Y-58677122D01*
X133199483Y-58166772D01*
X133066698Y-57846200D01*
X135633960Y-57846200D01*
X135633960Y-59146200D01*
X135678238Y-59381517D01*
X135817310Y-59597641D01*
X136029510Y-59742631D01*
X136281400Y-59793640D01*
X137581400Y-59793640D01*
X137816717Y-59749362D01*
X137972348Y-59649216D01*
X144673990Y-59649216D01*
X144729671Y-59879811D01*
X145212478Y-60047822D01*
X145722828Y-60018283D01*
X146057129Y-59879811D01*
X146112810Y-59649216D01*
X145393400Y-58929805D01*
X144673990Y-59649216D01*
X137972348Y-59649216D01*
X138032841Y-59610290D01*
X138177831Y-59398090D01*
X138228840Y-59146200D01*
X138228840Y-58569278D01*
X144095778Y-58569278D01*
X144125317Y-59079628D01*
X144263789Y-59413929D01*
X144494384Y-59469610D01*
X145213795Y-58750200D01*
X145573005Y-58750200D01*
X146292416Y-59469610D01*
X146523011Y-59413929D01*
X146691022Y-58931122D01*
X146661483Y-58420772D01*
X146528698Y-58100200D01*
X149095960Y-58100200D01*
X149095960Y-59400200D01*
X149140238Y-59635517D01*
X149279310Y-59851641D01*
X149491510Y-59996631D01*
X149743400Y-60047640D01*
X151043400Y-60047640D01*
X151278717Y-60003362D01*
X151494841Y-59864290D01*
X151639831Y-59652090D01*
X151690840Y-59400200D01*
X151690840Y-58100200D01*
X151646562Y-57864883D01*
X151507490Y-57648759D01*
X151295290Y-57503769D01*
X151043400Y-57452760D01*
X149743400Y-57452760D01*
X149508083Y-57497038D01*
X149291959Y-57636110D01*
X149146969Y-57848310D01*
X149095960Y-58100200D01*
X146528698Y-58100200D01*
X146523011Y-58086471D01*
X146292416Y-58030790D01*
X145573005Y-58750200D01*
X145213795Y-58750200D01*
X144494384Y-58030790D01*
X144263789Y-58086471D01*
X144095778Y-58569278D01*
X138228840Y-58569278D01*
X138228840Y-57851184D01*
X144673990Y-57851184D01*
X145393400Y-58570595D01*
X146112810Y-57851184D01*
X146057129Y-57620589D01*
X145574322Y-57452578D01*
X145063972Y-57482117D01*
X144729671Y-57620589D01*
X144673990Y-57851184D01*
X138228840Y-57851184D01*
X138228840Y-57846200D01*
X138184562Y-57610883D01*
X138045490Y-57394759D01*
X137833290Y-57249769D01*
X137581400Y-57198760D01*
X136281400Y-57198760D01*
X136046083Y-57243038D01*
X135829959Y-57382110D01*
X135684969Y-57594310D01*
X135633960Y-57846200D01*
X133066698Y-57846200D01*
X133061011Y-57832471D01*
X132830416Y-57776790D01*
X132111005Y-58496200D01*
X131751795Y-58496200D01*
X131032384Y-57776790D01*
X130801789Y-57832471D01*
X130633778Y-58315278D01*
X112400234Y-58315278D01*
X112420157Y-58267300D01*
X112420642Y-57711539D01*
X112373392Y-57597184D01*
X131211990Y-57597184D01*
X131931400Y-58316595D01*
X132650810Y-57597184D01*
X132595129Y-57366589D01*
X132112322Y-57198578D01*
X131601972Y-57228117D01*
X131267671Y-57366589D01*
X131211990Y-57597184D01*
X112373392Y-57597184D01*
X112208410Y-57197897D01*
X111815770Y-56804571D01*
X111302500Y-56591443D01*
X110746739Y-56590958D01*
X110233097Y-56803190D01*
X109839771Y-57195830D01*
X109626643Y-57709100D01*
X109626158Y-58264861D01*
X109676675Y-58387122D01*
X104770999Y-63292799D01*
X104606252Y-63539361D01*
X104548400Y-63830200D01*
X104548400Y-68090704D01*
X104383745Y-68158738D01*
X103923554Y-68618127D01*
X103674194Y-69218653D01*
X103673626Y-69868894D01*
X100696746Y-69868894D01*
X100993068Y-69670898D01*
X101304137Y-69205351D01*
X101413370Y-68656200D01*
X101304137Y-68107049D01*
X100993068Y-67641502D01*
X100610982Y-67386200D01*
X100993068Y-67130898D01*
X101304137Y-66665351D01*
X101413370Y-66116200D01*
X101304137Y-65567049D01*
X100993068Y-65101502D01*
X100527521Y-64790433D01*
X99978370Y-64681200D01*
X99208430Y-64681200D01*
X98659279Y-64790433D01*
X98193732Y-65101502D01*
X97882663Y-65567049D01*
X97773430Y-66116200D01*
X97882663Y-66665351D01*
X98193732Y-67130898D01*
X98575818Y-67386200D01*
X98193732Y-67641502D01*
X97882663Y-68107049D01*
X97773430Y-68656200D01*
X97882663Y-69205351D01*
X98193732Y-69670898D01*
X98575818Y-69926200D01*
X98193732Y-70181502D01*
X97882663Y-70647049D01*
X97773430Y-71196200D01*
X97882663Y-71745351D01*
X97917424Y-71797374D01*
X96642999Y-73071799D01*
X96478252Y-73318361D01*
X96420400Y-73609200D01*
X96420400Y-84343398D01*
X88408046Y-92355752D01*
X88208521Y-92222433D01*
X87659370Y-92113200D01*
X86889430Y-92113200D01*
X86340279Y-92222433D01*
X85874732Y-92533502D01*
X85563663Y-92999049D01*
X85454430Y-93548200D01*
X85563663Y-94097351D01*
X85874732Y-94562898D01*
X86256818Y-94818200D01*
X85874732Y-95073502D01*
X85563663Y-95539049D01*
X85454430Y-96088200D01*
X85563663Y-96637351D01*
X85874732Y-97102898D01*
X86256818Y-97358200D01*
X85874732Y-97613502D01*
X85563663Y-98079049D01*
X85454430Y-98628200D01*
X85563663Y-99177351D01*
X85874732Y-99642898D01*
X86256818Y-99898200D01*
X85874732Y-100153502D01*
X85563663Y-100619049D01*
X85454430Y-101168200D01*
X85563663Y-101717351D01*
X85874732Y-102182898D01*
X86256818Y-102438200D01*
X85874732Y-102693502D01*
X85563663Y-103159049D01*
X85454430Y-103708200D01*
X85563663Y-104257351D01*
X85874732Y-104722898D01*
X86256818Y-104978200D01*
X85874732Y-105233502D01*
X85563663Y-105699049D01*
X85454430Y-106248200D01*
X85563663Y-106797351D01*
X85874732Y-107262898D01*
X86256818Y-107518200D01*
X85874732Y-107773502D01*
X85563663Y-108239049D01*
X85454430Y-108788200D01*
X85563663Y-109337351D01*
X85874732Y-109802898D01*
X86256818Y-110058200D01*
X85874732Y-110313502D01*
X85563663Y-110779049D01*
X85454430Y-111328200D01*
X85563663Y-111877351D01*
X85874732Y-112342898D01*
X86340279Y-112653967D01*
X86889430Y-112763200D01*
X87659370Y-112763200D01*
X88208521Y-112653967D01*
X88674068Y-112342898D01*
X88985137Y-111877351D01*
X89094370Y-111328200D01*
X88985137Y-110779049D01*
X88674068Y-110313502D01*
X88291982Y-110058200D01*
X88674068Y-109802898D01*
X88985137Y-109337351D01*
X89094370Y-108788200D01*
X88985137Y-108239049D01*
X88674068Y-107773502D01*
X88291982Y-107518200D01*
X88674068Y-107262898D01*
X88985137Y-106797351D01*
X89094370Y-106248200D01*
X88985137Y-105699049D01*
X88674068Y-105233502D01*
X88291982Y-104978200D01*
X88674068Y-104722898D01*
X88985137Y-104257351D01*
X89094370Y-103708200D01*
X88985137Y-103159049D01*
X88674068Y-102693502D01*
X88291982Y-102438200D01*
X88674068Y-102182898D01*
X88844252Y-101928200D01*
X92862400Y-101928200D01*
X93153239Y-101870348D01*
X93244948Y-101809070D01*
X93494732Y-102182898D01*
X93876818Y-102438200D01*
X93494732Y-102693502D01*
X93183663Y-103159049D01*
X93074430Y-103708200D01*
X93183663Y-104257351D01*
X93218424Y-104309374D01*
X92070999Y-105456799D01*
X91906252Y-105703361D01*
X91848400Y-105994200D01*
X91848400Y-111582200D01*
X91906252Y-111873039D01*
X92070999Y-112119601D01*
X93827550Y-113876152D01*
X93725322Y-113840578D01*
X93214972Y-113870117D01*
X92880671Y-114008589D01*
X92824990Y-114239184D01*
X93544400Y-114958595D01*
X93558542Y-114944452D01*
X93738148Y-115124058D01*
X93724005Y-115138200D01*
X94443416Y-115857610D01*
X94674011Y-115801929D01*
X94842022Y-115319122D01*
X94815697Y-114864299D01*
X100376799Y-120425401D01*
X100623361Y-120590148D01*
X100914200Y-120648000D01*
X103739738Y-120648000D01*
X103939971Y-120947670D01*
X104426152Y-121272526D01*
X104999641Y-121386600D01*
X105058359Y-121386600D01*
X105631848Y-121272526D01*
X106118029Y-120947670D01*
X106299000Y-120676828D01*
X106479971Y-120947670D01*
X106966152Y-121272526D01*
X107539641Y-121386600D01*
X107598359Y-121386600D01*
X108171848Y-121272526D01*
X108658029Y-120947670D01*
X108858262Y-120648000D01*
X120904000Y-120648000D01*
X121194839Y-120590148D01*
X121441401Y-120425401D01*
X126271826Y-115594976D01*
X126323849Y-115629737D01*
X126873000Y-115738970D01*
X127422151Y-115629737D01*
X127887698Y-115318668D01*
X128143000Y-114936582D01*
X128398302Y-115318668D01*
X128863849Y-115629737D01*
X129413000Y-115738970D01*
X129962151Y-115629737D01*
X130427698Y-115318668D01*
X130683000Y-114936582D01*
X130938302Y-115318668D01*
X131403849Y-115629737D01*
X131953000Y-115738970D01*
X132502151Y-115629737D01*
X132967698Y-115318668D01*
X133220149Y-114940849D01*
X133568104Y-115373500D01*
X134061181Y-115643367D01*
X134143961Y-115660904D01*
X134366000Y-115538915D01*
X134366000Y-114046000D01*
X134620000Y-114046000D01*
X134620000Y-115538915D01*
X134842039Y-115660904D01*
X134924819Y-115643367D01*
X135417896Y-115373500D01*
X135763000Y-114944393D01*
X136108104Y-115373500D01*
X136601181Y-115643367D01*
X136683961Y-115660904D01*
X136906000Y-115538915D01*
X136906000Y-114046000D01*
X137160000Y-114046000D01*
X137160000Y-115538915D01*
X137382039Y-115660904D01*
X137464819Y-115643367D01*
X137957896Y-115373500D01*
X138310166Y-114935483D01*
X138468000Y-114396000D01*
X138468000Y-114046000D01*
X137160000Y-114046000D01*
X136906000Y-114046000D01*
X134620000Y-114046000D01*
X134366000Y-114046000D01*
X134346000Y-114046000D01*
X134346000Y-113792000D01*
X134366000Y-113792000D01*
X134366000Y-112299085D01*
X134620000Y-112299085D01*
X134620000Y-113792000D01*
X136906000Y-113792000D01*
X136906000Y-112299085D01*
X137160000Y-112299085D01*
X137160000Y-113792000D01*
X138468000Y-113792000D01*
X138468000Y-113442000D01*
X138310166Y-112902517D01*
X137957896Y-112464500D01*
X137464819Y-112194633D01*
X137382039Y-112177096D01*
X137160000Y-112299085D01*
X136906000Y-112299085D01*
X136683961Y-112177096D01*
X136601181Y-112194633D01*
X136108104Y-112464500D01*
X135763000Y-112893607D01*
X135417896Y-112464500D01*
X134924819Y-112194633D01*
X134842039Y-112177096D01*
X134620000Y-112299085D01*
X134366000Y-112299085D01*
X134143961Y-112177096D01*
X134061181Y-112194633D01*
X133568104Y-112464500D01*
X133220149Y-112897151D01*
X132967698Y-112519332D01*
X132502151Y-112208263D01*
X131953000Y-112099030D01*
X131403849Y-112208263D01*
X130938302Y-112519332D01*
X130683000Y-112901418D01*
X130427698Y-112519332D01*
X129962151Y-112208263D01*
X129413000Y-112099030D01*
X128863849Y-112208263D01*
X128398302Y-112519332D01*
X128143000Y-112901418D01*
X127887698Y-112519332D01*
X127422151Y-112208263D01*
X126873000Y-112099030D01*
X126323849Y-112208263D01*
X125858302Y-112519332D01*
X125603000Y-112901418D01*
X125347698Y-112519332D01*
X124882151Y-112208263D01*
X124333000Y-112099030D01*
X123803707Y-112204313D01*
X120091200Y-108491806D01*
X120091200Y-107816600D01*
X120267698Y-107698668D01*
X120523000Y-107316582D01*
X120778302Y-107698668D01*
X121243849Y-108009737D01*
X121793000Y-108118970D01*
X122342151Y-108009737D01*
X122807698Y-107698668D01*
X123063000Y-107316582D01*
X123318302Y-107698668D01*
X123783849Y-108009737D01*
X124333000Y-108118970D01*
X124882151Y-108009737D01*
X125347698Y-107698668D01*
X125603000Y-107316582D01*
X125858302Y-107698668D01*
X126323849Y-108009737D01*
X126873000Y-108118970D01*
X127422151Y-108009737D01*
X127887698Y-107698668D01*
X128143000Y-107316582D01*
X128398302Y-107698668D01*
X128863849Y-108009737D01*
X129413000Y-108118970D01*
X129962151Y-108009737D01*
X130427698Y-107698668D01*
X130683000Y-107316582D01*
X130938302Y-107698668D01*
X131403849Y-108009737D01*
X131953000Y-108118970D01*
X132502151Y-108009737D01*
X132967698Y-107698668D01*
X133223000Y-107316582D01*
X133478302Y-107698668D01*
X133943849Y-108009737D01*
X134493000Y-108118970D01*
X135042151Y-108009737D01*
X135507698Y-107698668D01*
X135763000Y-107316582D01*
X136018302Y-107698668D01*
X136483849Y-108009737D01*
X137033000Y-108118970D01*
X137582151Y-108009737D01*
X138047698Y-107698668D01*
X138358767Y-107233121D01*
X138443938Y-106804938D01*
X138917497Y-107278497D01*
X138917238Y-107576367D01*
X139059283Y-107920143D01*
X139322073Y-108183392D01*
X139665601Y-108326038D01*
X139981400Y-108326313D01*
X139981400Y-119329200D01*
X140039252Y-119620039D01*
X140203999Y-119866601D01*
X145537999Y-125200601D01*
X145784561Y-125365348D01*
X146075400Y-125423200D01*
X150220548Y-125423200D01*
X150390732Y-125677898D01*
X150772818Y-125933200D01*
X150390732Y-126188502D01*
X150079663Y-126654049D01*
X149970430Y-127203200D01*
X150079663Y-127752351D01*
X150390732Y-128217898D01*
X150772818Y-128473200D01*
X150390732Y-128728502D01*
X150079663Y-129194049D01*
X149970430Y-129743200D01*
X150079663Y-130292351D01*
X150390732Y-130757898D01*
X150856279Y-131068967D01*
X151405430Y-131178200D01*
X152175370Y-131178200D01*
X152724521Y-131068967D01*
X153190068Y-130757898D01*
X153501137Y-130292351D01*
X153610370Y-129743200D01*
X153501137Y-129194049D01*
X153190068Y-128728502D01*
X152807982Y-128473200D01*
X153190068Y-128217898D01*
X153501137Y-127752351D01*
X153610370Y-127203200D01*
X153501137Y-126654049D01*
X153190068Y-126188502D01*
X152807982Y-125933200D01*
X153190068Y-125677898D01*
X153501137Y-125212351D01*
X153610370Y-124663200D01*
X153508925Y-124153200D01*
X155285598Y-124153200D01*
X157734424Y-126602026D01*
X157699663Y-126654049D01*
X157590430Y-127203200D01*
X157699663Y-127752351D01*
X158010732Y-128217898D01*
X158156515Y-128315307D01*
X158025083Y-128340038D01*
X157808959Y-128479110D01*
X157663969Y-128691310D01*
X157612960Y-128943200D01*
X157612960Y-130543200D01*
X157657238Y-130778517D01*
X157796310Y-130994641D01*
X158008510Y-131139631D01*
X158260400Y-131190640D01*
X160560400Y-131190640D01*
X160795717Y-131146362D01*
X160961000Y-131040005D01*
X160961000Y-155246000D01*
X81609000Y-155246000D01*
X81609000Y-152073515D01*
X83107030Y-152073515D01*
X83431380Y-152858500D01*
X84031441Y-153459609D01*
X84815859Y-153785328D01*
X85665215Y-153786070D01*
X86450200Y-153461720D01*
X87051309Y-152861659D01*
X87377028Y-152077241D01*
X87377031Y-152073515D01*
X155243030Y-152073515D01*
X155567380Y-152858500D01*
X156167441Y-153459609D01*
X156951859Y-153785328D01*
X157801215Y-153786070D01*
X158586200Y-153461720D01*
X159187309Y-152861659D01*
X159513028Y-152077241D01*
X159513770Y-151227885D01*
X159189420Y-150442900D01*
X158589359Y-149841791D01*
X157804941Y-149516072D01*
X156955585Y-149515330D01*
X156170600Y-149839680D01*
X155569491Y-150439741D01*
X155243772Y-151224159D01*
X155243030Y-152073515D01*
X87377031Y-152073515D01*
X87377770Y-151227885D01*
X87053420Y-150442900D01*
X86453359Y-149841791D01*
X85668941Y-149516072D01*
X84819585Y-149515330D01*
X84034600Y-149839680D01*
X83433491Y-150439741D01*
X83107772Y-151224159D01*
X83107030Y-152073515D01*
X81609000Y-152073515D01*
X81609000Y-145413500D01*
X82091560Y-145413500D01*
X82091560Y-146813500D01*
X82135838Y-147048817D01*
X82274910Y-147264941D01*
X82487110Y-147409931D01*
X82739000Y-147460940D01*
X84139000Y-147460940D01*
X84374317Y-147416662D01*
X84590441Y-147277590D01*
X84735431Y-147065390D01*
X84786440Y-146813500D01*
X84786440Y-146377883D01*
X87103769Y-146377883D01*
X87306582Y-146868729D01*
X87681796Y-147244598D01*
X88172287Y-147448268D01*
X88703383Y-147448731D01*
X89194229Y-147245918D01*
X89570098Y-146870704D01*
X89773768Y-146380213D01*
X89773778Y-146367981D01*
X92099777Y-146367981D01*
X92294995Y-146840443D01*
X92656155Y-147202235D01*
X93128276Y-147398277D01*
X93639481Y-147398723D01*
X94111943Y-147203505D01*
X94473735Y-146842345D01*
X94600000Y-146538265D01*
X94600000Y-146889810D01*
X94696673Y-147123199D01*
X94875302Y-147301827D01*
X95108691Y-147398500D01*
X95599250Y-147398500D01*
X95758000Y-147239750D01*
X95758000Y-146240500D01*
X96012000Y-146240500D01*
X96012000Y-147239750D01*
X96170750Y-147398500D01*
X96661309Y-147398500D01*
X96894698Y-147301827D01*
X97073327Y-147123199D01*
X97170000Y-146889810D01*
X97170000Y-146399250D01*
X97011250Y-146240500D01*
X96012000Y-146240500D01*
X95758000Y-146240500D01*
X95738000Y-146240500D01*
X95738000Y-145986500D01*
X95758000Y-145986500D01*
X95758000Y-144987250D01*
X96012000Y-144987250D01*
X96012000Y-145986500D01*
X97011250Y-145986500D01*
X97170000Y-145827750D01*
X97170000Y-145337190D01*
X97073327Y-145103801D01*
X96894698Y-144925173D01*
X96661309Y-144828500D01*
X96170750Y-144828500D01*
X96012000Y-144987250D01*
X95758000Y-144987250D01*
X95599250Y-144828500D01*
X95108691Y-144828500D01*
X94875302Y-144925173D01*
X94696673Y-145103801D01*
X94600000Y-145337190D01*
X94600000Y-145689067D01*
X94475005Y-145386557D01*
X94113845Y-145024765D01*
X93641724Y-144828723D01*
X93130519Y-144828277D01*
X92658057Y-145023495D01*
X92296265Y-145384655D01*
X92100223Y-145856776D01*
X92099777Y-146367981D01*
X89773778Y-146367981D01*
X89774231Y-145849117D01*
X89571418Y-145358271D01*
X89196204Y-144982402D01*
X88705713Y-144778732D01*
X88174617Y-144778269D01*
X87683771Y-144981082D01*
X87307902Y-145356296D01*
X87104232Y-145846787D01*
X87103769Y-146377883D01*
X84786440Y-146377883D01*
X84786440Y-145413500D01*
X84742162Y-145178183D01*
X84603090Y-144962059D01*
X84390890Y-144817069D01*
X84139000Y-144766060D01*
X82739000Y-144766060D01*
X82503683Y-144810338D01*
X82287559Y-144949410D01*
X82142569Y-145161610D01*
X82091560Y-145413500D01*
X81609000Y-145413500D01*
X81609000Y-132953928D01*
X83562704Y-132953928D01*
X83590627Y-133505446D01*
X83747965Y-133885293D01*
X83989228Y-133953666D01*
X84783395Y-133159500D01*
X83989228Y-132365334D01*
X83747965Y-132433707D01*
X83562704Y-132953928D01*
X81609000Y-132953928D01*
X81609000Y-130413928D01*
X83562704Y-130413928D01*
X83590627Y-130965446D01*
X83747965Y-131345293D01*
X83987453Y-131413163D01*
X83992843Y-131733865D01*
X84173374Y-132169707D01*
X84168834Y-132185728D01*
X84187913Y-132204807D01*
X84302567Y-132481607D01*
X84630426Y-132652069D01*
X84632800Y-132649695D01*
X84812405Y-132829300D01*
X84810031Y-132831674D01*
X84980493Y-133159533D01*
X85116988Y-133213402D01*
X85045414Y-133284976D01*
X84980493Y-133311867D01*
X84965192Y-133341297D01*
X84963000Y-133339105D01*
X84322868Y-133979238D01*
X84302567Y-133989793D01*
X84296213Y-134005893D01*
X84168834Y-134133272D01*
X84201061Y-134246991D01*
X83977986Y-134812226D01*
X83979597Y-134908063D01*
X83747965Y-134973707D01*
X83562704Y-135493928D01*
X83590627Y-136045446D01*
X83747965Y-136425293D01*
X83989228Y-136493666D01*
X84225337Y-136257557D01*
X84302567Y-136444007D01*
X84365420Y-136476686D01*
X84168834Y-136673272D01*
X84237207Y-136914535D01*
X84396985Y-136971435D01*
X84177726Y-137062031D01*
X83786904Y-137452172D01*
X83575131Y-137962176D01*
X83574649Y-138514401D01*
X83785531Y-139024774D01*
X83985060Y-139224651D01*
X83984715Y-139619443D01*
X84322358Y-140436600D01*
X84947011Y-141062345D01*
X85763578Y-141401413D01*
X86647743Y-141402185D01*
X87464900Y-141064542D01*
X88090645Y-140439889D01*
X88429713Y-139623322D01*
X88429973Y-139325194D01*
X91204766Y-139325194D01*
X91453078Y-139926155D01*
X91912467Y-140386346D01*
X92512993Y-140635706D01*
X93163234Y-140636274D01*
X93764195Y-140387962D01*
X94224386Y-139928573D01*
X94341860Y-139645663D01*
X95168983Y-139645663D01*
X95267582Y-139912465D01*
X95877122Y-140138901D01*
X96526917Y-140114841D01*
X97015498Y-139912465D01*
X97114097Y-139645663D01*
X96141540Y-138673105D01*
X95168983Y-139645663D01*
X94341860Y-139645663D01*
X94473746Y-139328047D01*
X94474314Y-138677806D01*
X94288906Y-138229082D01*
X94496139Y-138229082D01*
X94520199Y-138878877D01*
X94722575Y-139367458D01*
X94989377Y-139466057D01*
X95961935Y-138493500D01*
X96321145Y-138493500D01*
X97293703Y-139466057D01*
X97560505Y-139367458D01*
X97786941Y-138757918D01*
X97762881Y-138108123D01*
X97560505Y-137619542D01*
X97293703Y-137520943D01*
X96321145Y-138493500D01*
X95961935Y-138493500D01*
X94989377Y-137520943D01*
X94722575Y-137619542D01*
X94496139Y-138229082D01*
X94288906Y-138229082D01*
X94226002Y-138076845D01*
X93766613Y-137616654D01*
X93166087Y-137367294D01*
X92515846Y-137366726D01*
X91914885Y-137615038D01*
X91454694Y-138074427D01*
X91205334Y-138674953D01*
X91204766Y-139325194D01*
X88429973Y-139325194D01*
X88430017Y-139275473D01*
X88679096Y-139026828D01*
X88890869Y-138516824D01*
X88891351Y-137964599D01*
X88680469Y-137454226D01*
X88567777Y-137341337D01*
X95168983Y-137341337D01*
X96141540Y-138313895D01*
X97114097Y-137341337D01*
X97015498Y-137074535D01*
X96405958Y-136848099D01*
X95756163Y-136872159D01*
X95267582Y-137074535D01*
X95168983Y-137341337D01*
X88567777Y-137341337D01*
X88290328Y-137063404D01*
X88080120Y-136976118D01*
X88228793Y-136914535D01*
X88297166Y-136673272D01*
X88083203Y-136459309D01*
X88112633Y-136444007D01*
X88201624Y-136218519D01*
X88476772Y-136493666D01*
X88718035Y-136425293D01*
X88903296Y-135905072D01*
X88875373Y-135353554D01*
X88718035Y-134973707D01*
X88476772Y-134905334D01*
X88426030Y-134956076D01*
X88422357Y-134737535D01*
X88246345Y-134312602D01*
X88297166Y-134133272D01*
X87503000Y-133339105D01*
X87488858Y-133353248D01*
X87336020Y-133200410D01*
X87434707Y-133159533D01*
X87434724Y-133159500D01*
X87682605Y-133159500D01*
X88476772Y-133953666D01*
X88718035Y-133885293D01*
X88903296Y-133365072D01*
X88879912Y-132903200D01*
X151762960Y-132903200D01*
X151762960Y-134203200D01*
X151807238Y-134438517D01*
X151946310Y-134654641D01*
X152158510Y-134799631D01*
X152410400Y-134850640D01*
X153710400Y-134850640D01*
X153945717Y-134806362D01*
X154161841Y-134667290D01*
X154306831Y-134455090D01*
X154307412Y-134452216D01*
X157340990Y-134452216D01*
X157396671Y-134682811D01*
X157879478Y-134850822D01*
X158389828Y-134821283D01*
X158724129Y-134682811D01*
X158779810Y-134452216D01*
X158060400Y-133732805D01*
X157340990Y-134452216D01*
X154307412Y-134452216D01*
X154357840Y-134203200D01*
X154357840Y-133372278D01*
X156762778Y-133372278D01*
X156792317Y-133882628D01*
X156930789Y-134216929D01*
X157161384Y-134272610D01*
X157880795Y-133553200D01*
X158240005Y-133553200D01*
X158959416Y-134272610D01*
X159190011Y-134216929D01*
X159358022Y-133734122D01*
X159328483Y-133223772D01*
X159190011Y-132889471D01*
X158959416Y-132833790D01*
X158240005Y-133553200D01*
X157880795Y-133553200D01*
X157161384Y-132833790D01*
X156930789Y-132889471D01*
X156762778Y-133372278D01*
X154357840Y-133372278D01*
X154357840Y-132903200D01*
X154313562Y-132667883D01*
X154304747Y-132654184D01*
X157340990Y-132654184D01*
X158060400Y-133373595D01*
X158779810Y-132654184D01*
X158724129Y-132423589D01*
X158241322Y-132255578D01*
X157730972Y-132285117D01*
X157396671Y-132423589D01*
X157340990Y-132654184D01*
X154304747Y-132654184D01*
X154174490Y-132451759D01*
X153962290Y-132306769D01*
X153710400Y-132255760D01*
X152410400Y-132255760D01*
X152175083Y-132300038D01*
X151958959Y-132439110D01*
X151813969Y-132651310D01*
X151762960Y-132903200D01*
X88879912Y-132903200D01*
X88875373Y-132813554D01*
X88718035Y-132433707D01*
X88476772Y-132365334D01*
X87682605Y-133159500D01*
X87434724Y-133159500D01*
X87555294Y-132927600D01*
X87880700Y-132602195D01*
X88112633Y-132481607D01*
X88185226Y-132297668D01*
X88297166Y-132185728D01*
X88268845Y-132085793D01*
X88437214Y-131659174D01*
X88432341Y-131369235D01*
X88476772Y-131413666D01*
X88718035Y-131345293D01*
X88903296Y-130825072D01*
X88875373Y-130273554D01*
X88718035Y-129893707D01*
X88476772Y-129825334D01*
X88160105Y-130142001D01*
X88112633Y-130027393D01*
X87982935Y-129959960D01*
X88297166Y-129645728D01*
X88228793Y-129404465D01*
X88069015Y-129347565D01*
X88288274Y-129256969D01*
X88418219Y-129127250D01*
X91205050Y-129127250D01*
X91205050Y-129967299D01*
X91301723Y-130200688D01*
X91480351Y-130379317D01*
X91713740Y-130475990D01*
X92553790Y-130475990D01*
X92712540Y-130317240D01*
X92712540Y-128968500D01*
X92966540Y-128968500D01*
X92966540Y-130317240D01*
X93125290Y-130475990D01*
X93965340Y-130475990D01*
X94198729Y-130379317D01*
X94377357Y-130200688D01*
X94474030Y-129967299D01*
X94474030Y-129127250D01*
X94315280Y-128968500D01*
X92966540Y-128968500D01*
X92712540Y-128968500D01*
X91363800Y-128968500D01*
X91205050Y-129127250D01*
X88418219Y-129127250D01*
X88679096Y-128866828D01*
X88890869Y-128356824D01*
X88891351Y-127804599D01*
X88854620Y-127715701D01*
X91205050Y-127715701D01*
X91205050Y-128555750D01*
X91363800Y-128714500D01*
X92712540Y-128714500D01*
X92712540Y-127365760D01*
X92966540Y-127365760D01*
X92966540Y-128714500D01*
X94315280Y-128714500D01*
X94474030Y-128555750D01*
X94474030Y-127715701D01*
X94377357Y-127482312D01*
X94229056Y-127334010D01*
X94494610Y-127334010D01*
X94494610Y-129332990D01*
X94538888Y-129568307D01*
X94677960Y-129784431D01*
X94890160Y-129929421D01*
X95142050Y-129980430D01*
X97141030Y-129980430D01*
X97376347Y-129936152D01*
X97592471Y-129797080D01*
X97737461Y-129584880D01*
X97788470Y-129332990D01*
X97788470Y-127334010D01*
X97744192Y-127098693D01*
X97605120Y-126882569D01*
X97392920Y-126737579D01*
X97141030Y-126686570D01*
X95142050Y-126686570D01*
X94906733Y-126730848D01*
X94690609Y-126869920D01*
X94545619Y-127082120D01*
X94494610Y-127334010D01*
X94229056Y-127334010D01*
X94198729Y-127303683D01*
X93965340Y-127207010D01*
X93125290Y-127207010D01*
X92966540Y-127365760D01*
X92712540Y-127365760D01*
X92553790Y-127207010D01*
X91713740Y-127207010D01*
X91480351Y-127303683D01*
X91301723Y-127482312D01*
X91205050Y-127715701D01*
X88854620Y-127715701D01*
X88680469Y-127294226D01*
X88430318Y-127043638D01*
X88430485Y-126851957D01*
X88092842Y-126034800D01*
X87468189Y-125409055D01*
X86651622Y-125069987D01*
X85767457Y-125069215D01*
X84950300Y-125406858D01*
X84324555Y-126031511D01*
X83985487Y-126848078D01*
X83985272Y-127094150D01*
X83786904Y-127292172D01*
X83575131Y-127802176D01*
X83574649Y-128354401D01*
X83785531Y-128864774D01*
X84175672Y-129255596D01*
X84385880Y-129342882D01*
X84237207Y-129404465D01*
X84168834Y-129645728D01*
X84465688Y-129942582D01*
X84302567Y-130027393D01*
X84271077Y-130107183D01*
X83989228Y-129825334D01*
X83747965Y-129893707D01*
X83562704Y-130413928D01*
X81609000Y-130413928D01*
X81609000Y-119505500D01*
X82599560Y-119505500D01*
X82599560Y-120905500D01*
X82643838Y-121140817D01*
X82782910Y-121356941D01*
X82995110Y-121501931D01*
X83247000Y-121552940D01*
X84647000Y-121552940D01*
X84882317Y-121508662D01*
X85098441Y-121369590D01*
X85243431Y-121157390D01*
X85294440Y-120905500D01*
X85294440Y-120469883D01*
X87611769Y-120469883D01*
X87814582Y-120960729D01*
X88189796Y-121336598D01*
X88680287Y-121540268D01*
X89211383Y-121540731D01*
X89702229Y-121337918D01*
X90078098Y-120962704D01*
X90281768Y-120472213D01*
X90282231Y-119941117D01*
X90122898Y-119555500D01*
X91539560Y-119555500D01*
X91539560Y-120855500D01*
X91583838Y-121090817D01*
X91722910Y-121306941D01*
X91935110Y-121451931D01*
X92187000Y-121502940D01*
X93487000Y-121502940D01*
X93722317Y-121458662D01*
X93938441Y-121319590D01*
X94083431Y-121107390D01*
X94084012Y-121104516D01*
X94617590Y-121104516D01*
X94673271Y-121335111D01*
X95156078Y-121503122D01*
X95666428Y-121473583D01*
X96000729Y-121335111D01*
X96056410Y-121104516D01*
X95337000Y-120385105D01*
X94617590Y-121104516D01*
X94084012Y-121104516D01*
X94134440Y-120855500D01*
X94134440Y-120693115D01*
X94207389Y-120869229D01*
X94437984Y-120924910D01*
X95157395Y-120205500D01*
X95516605Y-120205500D01*
X96236016Y-120924910D01*
X96466611Y-120869229D01*
X96634622Y-120386422D01*
X96605083Y-119876072D01*
X96466611Y-119541771D01*
X96236016Y-119486090D01*
X95516605Y-120205500D01*
X95157395Y-120205500D01*
X94437984Y-119486090D01*
X94207389Y-119541771D01*
X94134440Y-119751402D01*
X94134440Y-119555500D01*
X94090162Y-119320183D01*
X94081347Y-119306484D01*
X94617590Y-119306484D01*
X95337000Y-120025895D01*
X96056410Y-119306484D01*
X96000729Y-119075889D01*
X95517922Y-118907878D01*
X95007572Y-118937417D01*
X94673271Y-119075889D01*
X94617590Y-119306484D01*
X94081347Y-119306484D01*
X93951090Y-119104059D01*
X93738890Y-118959069D01*
X93487000Y-118908060D01*
X92187000Y-118908060D01*
X91951683Y-118952338D01*
X91735559Y-119091410D01*
X91590569Y-119303610D01*
X91539560Y-119555500D01*
X90122898Y-119555500D01*
X90079418Y-119450271D01*
X89704204Y-119074402D01*
X89213713Y-118870732D01*
X88682617Y-118870269D01*
X88191771Y-119073082D01*
X87815902Y-119448296D01*
X87612232Y-119938787D01*
X87611769Y-120469883D01*
X85294440Y-120469883D01*
X85294440Y-119505500D01*
X85250162Y-119270183D01*
X85111090Y-119054059D01*
X84898890Y-118909069D01*
X84647000Y-118858060D01*
X83247000Y-118858060D01*
X83011683Y-118902338D01*
X82795559Y-119041410D01*
X82650569Y-119253610D01*
X82599560Y-119505500D01*
X81609000Y-119505500D01*
X81609000Y-114488200D01*
X87246960Y-114488200D01*
X87246960Y-115788200D01*
X87291238Y-116023517D01*
X87430310Y-116239641D01*
X87642510Y-116384631D01*
X87894400Y-116435640D01*
X89194400Y-116435640D01*
X89429717Y-116391362D01*
X89645841Y-116252290D01*
X89790831Y-116040090D01*
X89791412Y-116037216D01*
X92824990Y-116037216D01*
X92880671Y-116267811D01*
X93363478Y-116435822D01*
X93873828Y-116406283D01*
X94208129Y-116267811D01*
X94263810Y-116037216D01*
X93544400Y-115317805D01*
X92824990Y-116037216D01*
X89791412Y-116037216D01*
X89841840Y-115788200D01*
X89841840Y-114957278D01*
X92246778Y-114957278D01*
X92276317Y-115467628D01*
X92414789Y-115801929D01*
X92645384Y-115857610D01*
X93364795Y-115138200D01*
X92645384Y-114418790D01*
X92414789Y-114474471D01*
X92246778Y-114957278D01*
X89841840Y-114957278D01*
X89841840Y-114488200D01*
X89797562Y-114252883D01*
X89658490Y-114036759D01*
X89446290Y-113891769D01*
X89194400Y-113840760D01*
X87894400Y-113840760D01*
X87659083Y-113885038D01*
X87442959Y-114024110D01*
X87297969Y-114236310D01*
X87246960Y-114488200D01*
X81609000Y-114488200D01*
X81609000Y-85810363D01*
X83253843Y-85810363D01*
X83352442Y-86077165D01*
X83961982Y-86303601D01*
X84611777Y-86279541D01*
X85100358Y-86077165D01*
X85198957Y-85810363D01*
X84226400Y-84837805D01*
X83253843Y-85810363D01*
X81609000Y-85810363D01*
X81609000Y-84393782D01*
X82580999Y-84393782D01*
X82605059Y-85043577D01*
X82807435Y-85532158D01*
X83074237Y-85630757D01*
X84046795Y-84658200D01*
X84406005Y-84658200D01*
X85378563Y-85630757D01*
X85645365Y-85532158D01*
X85810413Y-85087867D01*
X86014938Y-85582855D01*
X86474327Y-86043046D01*
X87074853Y-86292406D01*
X87725094Y-86292974D01*
X88326055Y-86044662D01*
X88786246Y-85585273D01*
X89035606Y-84984747D01*
X89036174Y-84334506D01*
X88999290Y-84245239D01*
X90231496Y-84245239D01*
X90249033Y-84328019D01*
X90518900Y-84821096D01*
X90956917Y-85173366D01*
X91496400Y-85331200D01*
X91846400Y-85331200D01*
X91846400Y-84023200D01*
X92100400Y-84023200D01*
X92100400Y-85331200D01*
X92450400Y-85331200D01*
X92989883Y-85173366D01*
X93427900Y-84821096D01*
X93697767Y-84328019D01*
X93715304Y-84245239D01*
X93593315Y-84023200D01*
X92100400Y-84023200D01*
X91846400Y-84023200D01*
X90353485Y-84023200D01*
X90231496Y-84245239D01*
X88999290Y-84245239D01*
X88787862Y-83733545D01*
X88328473Y-83273354D01*
X87727947Y-83023994D01*
X87077706Y-83023426D01*
X86476745Y-83271738D01*
X86016554Y-83731127D01*
X85819716Y-84205165D01*
X85645365Y-83784242D01*
X85378563Y-83685643D01*
X84406005Y-84658200D01*
X84046795Y-84658200D01*
X83074237Y-83685643D01*
X82807435Y-83784242D01*
X82580999Y-84393782D01*
X81609000Y-84393782D01*
X81609000Y-83506037D01*
X83253843Y-83506037D01*
X84226400Y-84478595D01*
X85198957Y-83506037D01*
X85100358Y-83239235D01*
X84490818Y-83012799D01*
X83841023Y-83036859D01*
X83352442Y-83239235D01*
X83253843Y-83506037D01*
X81609000Y-83506037D01*
X81609000Y-76276200D01*
X90153430Y-76276200D01*
X90262663Y-76825351D01*
X90573732Y-77290898D01*
X90955818Y-77546200D01*
X90573732Y-77801502D01*
X90262663Y-78267049D01*
X90153430Y-78816200D01*
X90262663Y-79365351D01*
X90573732Y-79830898D01*
X90955818Y-80086200D01*
X90573732Y-80341502D01*
X90262663Y-80807049D01*
X90153430Y-81356200D01*
X90262663Y-81905351D01*
X90573732Y-82370898D01*
X90951551Y-82623349D01*
X90518900Y-82971304D01*
X90249033Y-83464381D01*
X90231496Y-83547161D01*
X90353485Y-83769200D01*
X91846400Y-83769200D01*
X91846400Y-83749200D01*
X92100400Y-83749200D01*
X92100400Y-83769200D01*
X93593315Y-83769200D01*
X93715304Y-83547161D01*
X93697767Y-83464381D01*
X93427900Y-82971304D01*
X92995249Y-82623349D01*
X93373068Y-82370898D01*
X93684137Y-81905351D01*
X93793370Y-81356200D01*
X93684137Y-80807049D01*
X93373068Y-80341502D01*
X92990982Y-80086200D01*
X93373068Y-79830898D01*
X93684137Y-79365351D01*
X93793370Y-78816200D01*
X93684137Y-78267049D01*
X93373068Y-77801502D01*
X92990982Y-77546200D01*
X93373068Y-77290898D01*
X93684137Y-76825351D01*
X93793370Y-76276200D01*
X93684137Y-75727049D01*
X93373068Y-75261502D01*
X92995249Y-75009051D01*
X93427900Y-74661096D01*
X93697767Y-74168019D01*
X93715304Y-74085239D01*
X93593315Y-73863200D01*
X92100400Y-73863200D01*
X92100400Y-73883200D01*
X91846400Y-73883200D01*
X91846400Y-73863200D01*
X90353485Y-73863200D01*
X90231496Y-74085239D01*
X90249033Y-74168019D01*
X90518900Y-74661096D01*
X90951551Y-75009051D01*
X90573732Y-75261502D01*
X90262663Y-75727049D01*
X90153430Y-76276200D01*
X81609000Y-76276200D01*
X81609000Y-74821894D01*
X82591626Y-74821894D01*
X82839938Y-75422855D01*
X83299327Y-75883046D01*
X83899853Y-76132406D01*
X84550094Y-76132974D01*
X85151055Y-75884662D01*
X85611246Y-75425273D01*
X85814091Y-74936768D01*
X86014938Y-75422855D01*
X86474327Y-75883046D01*
X87074853Y-76132406D01*
X87725094Y-76132974D01*
X88326055Y-75884662D01*
X88786246Y-75425273D01*
X89035606Y-74824747D01*
X89036174Y-74174506D01*
X88787862Y-73573545D01*
X88328473Y-73113354D01*
X87727947Y-72863994D01*
X87077706Y-72863426D01*
X86476745Y-73111738D01*
X86016554Y-73571127D01*
X85813709Y-74059632D01*
X85612862Y-73573545D01*
X85153473Y-73113354D01*
X84552947Y-72863994D01*
X83902706Y-72863426D01*
X83301745Y-73111738D01*
X82841554Y-73571127D01*
X82592194Y-74171653D01*
X82591626Y-74821894D01*
X81609000Y-74821894D01*
X81609000Y-71160413D01*
X84695792Y-71160413D01*
X84765257Y-71402597D01*
X85288702Y-71589344D01*
X85843768Y-71561562D01*
X85883175Y-71545239D01*
X90231496Y-71545239D01*
X90249033Y-71628019D01*
X90518900Y-72121096D01*
X90948007Y-72466200D01*
X90518900Y-72811304D01*
X90249033Y-73304381D01*
X90231496Y-73387161D01*
X90353485Y-73609200D01*
X91846400Y-73609200D01*
X91846400Y-71323200D01*
X92100400Y-71323200D01*
X92100400Y-73609200D01*
X93593315Y-73609200D01*
X93715304Y-73387161D01*
X93697767Y-73304381D01*
X93427900Y-72811304D01*
X92998793Y-72466200D01*
X93427900Y-72121096D01*
X93697767Y-71628019D01*
X93715304Y-71545239D01*
X93593315Y-71323200D01*
X92100400Y-71323200D01*
X91846400Y-71323200D01*
X90353485Y-71323200D01*
X90231496Y-71545239D01*
X85883175Y-71545239D01*
X86227543Y-71402597D01*
X86297008Y-71160413D01*
X85496400Y-70359805D01*
X84695792Y-71160413D01*
X81609000Y-71160413D01*
X81609000Y-69972502D01*
X84087256Y-69972502D01*
X84115038Y-70527568D01*
X84274003Y-70911343D01*
X84516187Y-70980808D01*
X85316795Y-70180200D01*
X85676005Y-70180200D01*
X86476613Y-70980808D01*
X86718797Y-70911343D01*
X86905544Y-70387898D01*
X86877762Y-69832832D01*
X86718797Y-69449057D01*
X86476613Y-69379592D01*
X85676005Y-70180200D01*
X85316795Y-70180200D01*
X84516187Y-69379592D01*
X84274003Y-69449057D01*
X84087256Y-69972502D01*
X81609000Y-69972502D01*
X81609000Y-65376861D01*
X84099158Y-65376861D01*
X84311390Y-65890503D01*
X84704030Y-66283829D01*
X84911912Y-66370149D01*
X84706097Y-66455190D01*
X84312771Y-66847830D01*
X84099643Y-67361100D01*
X84099158Y-67916861D01*
X84311390Y-68430503D01*
X84704030Y-68823829D01*
X84896127Y-68903595D01*
X84765257Y-68957803D01*
X84695792Y-69199987D01*
X85496400Y-70000595D01*
X86297008Y-69199987D01*
X86227543Y-68957803D01*
X86087082Y-68907691D01*
X86286703Y-68825210D01*
X86456008Y-68656200D01*
X90153430Y-68656200D01*
X90262663Y-69205351D01*
X90573732Y-69670898D01*
X90951551Y-69923349D01*
X90518900Y-70271304D01*
X90249033Y-70764381D01*
X90231496Y-70847161D01*
X90353485Y-71069200D01*
X91846400Y-71069200D01*
X91846400Y-71049200D01*
X92100400Y-71049200D01*
X92100400Y-71069200D01*
X93593315Y-71069200D01*
X93715304Y-70847161D01*
X93697767Y-70764381D01*
X93427900Y-70271304D01*
X92995249Y-69923349D01*
X93373068Y-69670898D01*
X93684137Y-69205351D01*
X93793370Y-68656200D01*
X93684137Y-68107049D01*
X93373068Y-67641502D01*
X93227285Y-67544093D01*
X93358717Y-67519362D01*
X93574841Y-67380290D01*
X93719831Y-67168090D01*
X93770840Y-66916200D01*
X93770840Y-65316200D01*
X93726562Y-65080883D01*
X93587490Y-64864759D01*
X93375290Y-64719769D01*
X93123400Y-64668760D01*
X90823400Y-64668760D01*
X90588083Y-64713038D01*
X90371959Y-64852110D01*
X90226969Y-65064310D01*
X90175960Y-65316200D01*
X90175960Y-66916200D01*
X90220238Y-67151517D01*
X90359310Y-67367641D01*
X90571510Y-67512631D01*
X90721226Y-67542949D01*
X90573732Y-67641502D01*
X90262663Y-68107049D01*
X90153430Y-68656200D01*
X86456008Y-68656200D01*
X86680029Y-68432570D01*
X86893157Y-67919300D01*
X86893642Y-67363539D01*
X86681410Y-66849897D01*
X86288770Y-66456571D01*
X86080888Y-66370251D01*
X86286703Y-66285210D01*
X86680029Y-65892570D01*
X86893157Y-65379300D01*
X86893642Y-64823539D01*
X86681410Y-64309897D01*
X86288770Y-63916571D01*
X85775500Y-63703443D01*
X85219739Y-63702958D01*
X84706097Y-63915190D01*
X84312771Y-64307830D01*
X84099643Y-64821100D01*
X84099158Y-65376861D01*
X81609000Y-65376861D01*
X81609000Y-63205216D01*
X92603990Y-63205216D01*
X92659671Y-63435811D01*
X93142478Y-63603822D01*
X93652828Y-63574283D01*
X93987129Y-63435811D01*
X94042810Y-63205216D01*
X93323400Y-62485805D01*
X92603990Y-63205216D01*
X81609000Y-63205216D01*
X81609000Y-62125278D01*
X92025778Y-62125278D01*
X92055317Y-62635628D01*
X92193789Y-62969929D01*
X92424384Y-63025610D01*
X93143795Y-62306200D01*
X93503005Y-62306200D01*
X94222416Y-63025610D01*
X94453011Y-62969929D01*
X94621022Y-62487122D01*
X94591483Y-61976772D01*
X94458698Y-61656200D01*
X97025960Y-61656200D01*
X97025960Y-62956200D01*
X97070238Y-63191517D01*
X97209310Y-63407641D01*
X97421510Y-63552631D01*
X97673400Y-63603640D01*
X98973400Y-63603640D01*
X99208717Y-63559362D01*
X99424841Y-63420290D01*
X99569831Y-63208090D01*
X99620840Y-62956200D01*
X99620840Y-61656200D01*
X99576562Y-61420883D01*
X99437490Y-61204759D01*
X99225290Y-61059769D01*
X98973400Y-61008760D01*
X97673400Y-61008760D01*
X97438083Y-61053038D01*
X97221959Y-61192110D01*
X97076969Y-61404310D01*
X97025960Y-61656200D01*
X94458698Y-61656200D01*
X94453011Y-61642471D01*
X94222416Y-61586790D01*
X93503005Y-62306200D01*
X93143795Y-62306200D01*
X92424384Y-61586790D01*
X92193789Y-61642471D01*
X92025778Y-62125278D01*
X81609000Y-62125278D01*
X81609000Y-61407184D01*
X92603990Y-61407184D01*
X93323400Y-62126595D01*
X94042810Y-61407184D01*
X93987129Y-61176589D01*
X93504322Y-61008578D01*
X92993972Y-61038117D01*
X92659671Y-61176589D01*
X92603990Y-61407184D01*
X81609000Y-61407184D01*
X81609000Y-59893681D01*
X92038177Y-59893681D01*
X92233395Y-60366143D01*
X92594555Y-60727935D01*
X93066676Y-60923977D01*
X93577881Y-60924423D01*
X94050343Y-60729205D01*
X94412135Y-60368045D01*
X94608177Y-59895924D01*
X94608623Y-59384719D01*
X94445198Y-58989200D01*
X97025960Y-58989200D01*
X97025960Y-60289200D01*
X97070238Y-60524517D01*
X97209310Y-60740641D01*
X97421510Y-60885631D01*
X97673400Y-60936640D01*
X98973400Y-60936640D01*
X99208717Y-60892362D01*
X99424841Y-60753290D01*
X99569831Y-60541090D01*
X99570585Y-60537363D01*
X104335843Y-60537363D01*
X104434442Y-60804165D01*
X105043982Y-61030601D01*
X105693777Y-61006541D01*
X106182358Y-60804165D01*
X106280957Y-60537363D01*
X105308400Y-59564805D01*
X104335843Y-60537363D01*
X99570585Y-60537363D01*
X99620840Y-60289200D01*
X99620840Y-59120782D01*
X103662999Y-59120782D01*
X103687059Y-59770577D01*
X103889435Y-60259158D01*
X104156237Y-60357757D01*
X105128795Y-59385200D01*
X105488005Y-59385200D01*
X106460563Y-60357757D01*
X106727365Y-60259158D01*
X106953801Y-59649618D01*
X106929741Y-58999823D01*
X106727365Y-58511242D01*
X106460563Y-58412643D01*
X105488005Y-59385200D01*
X105128795Y-59385200D01*
X104156237Y-58412643D01*
X103889435Y-58511242D01*
X103662999Y-59120782D01*
X99620840Y-59120782D01*
X99620840Y-58989200D01*
X99576562Y-58753883D01*
X99437490Y-58537759D01*
X99225290Y-58392769D01*
X98973400Y-58341760D01*
X97673400Y-58341760D01*
X97438083Y-58386038D01*
X97221959Y-58525110D01*
X97076969Y-58737310D01*
X97025960Y-58989200D01*
X94445198Y-58989200D01*
X94413405Y-58912257D01*
X94052245Y-58550465D01*
X93580124Y-58354423D01*
X93068919Y-58353977D01*
X92596457Y-58549195D01*
X92234665Y-58910355D01*
X92038623Y-59382476D01*
X92038177Y-59893681D01*
X81609000Y-59893681D01*
X81609000Y-56061515D01*
X83107030Y-56061515D01*
X83431380Y-56846500D01*
X84031441Y-57447609D01*
X84815859Y-57773328D01*
X85665215Y-57774070D01*
X86450200Y-57449720D01*
X86985960Y-56914894D01*
X89322626Y-56914894D01*
X89570938Y-57515855D01*
X90030327Y-57976046D01*
X90630853Y-58225406D01*
X91281094Y-58225974D01*
X91882055Y-57977662D01*
X92116763Y-57743363D01*
X100144843Y-57743363D01*
X100243442Y-58010165D01*
X100852982Y-58236601D01*
X100949235Y-58233037D01*
X104335843Y-58233037D01*
X105308400Y-59205595D01*
X106280957Y-58233037D01*
X106182358Y-57966235D01*
X105572818Y-57739799D01*
X104923023Y-57763859D01*
X104434442Y-57966235D01*
X104335843Y-58233037D01*
X100949235Y-58233037D01*
X101502777Y-58212541D01*
X101991358Y-58010165D01*
X102089957Y-57743363D01*
X101117400Y-56770805D01*
X100144843Y-57743363D01*
X92116763Y-57743363D01*
X92342246Y-57518273D01*
X92591606Y-56917747D01*
X92592122Y-56326782D01*
X99471999Y-56326782D01*
X99496059Y-56976577D01*
X99698435Y-57465158D01*
X99965237Y-57563757D01*
X100937795Y-56591200D01*
X101297005Y-56591200D01*
X102269563Y-57563757D01*
X102536365Y-57465158D01*
X102762801Y-56855618D01*
X102738741Y-56205823D01*
X102678967Y-56061515D01*
X155243030Y-56061515D01*
X155567380Y-56846500D01*
X156167441Y-57447609D01*
X156951859Y-57773328D01*
X157801215Y-57774070D01*
X158586200Y-57449720D01*
X159187309Y-56849659D01*
X159513028Y-56065241D01*
X159513770Y-55215885D01*
X159189420Y-54430900D01*
X158589359Y-53829791D01*
X157804941Y-53504072D01*
X156955585Y-53503330D01*
X156170600Y-53827680D01*
X155569491Y-54427741D01*
X155243772Y-55212159D01*
X155243030Y-56061515D01*
X102678967Y-56061515D01*
X102536365Y-55717242D01*
X102269563Y-55618643D01*
X101297005Y-56591200D01*
X100937795Y-56591200D01*
X99965237Y-55618643D01*
X99698435Y-55717242D01*
X99471999Y-56326782D01*
X92592122Y-56326782D01*
X92592174Y-56267506D01*
X92343862Y-55666545D01*
X92116751Y-55439037D01*
X100144843Y-55439037D01*
X101117400Y-56411595D01*
X102089957Y-55439037D01*
X101991358Y-55172235D01*
X101381818Y-54945799D01*
X100732023Y-54969859D01*
X100243442Y-55172235D01*
X100144843Y-55439037D01*
X92116751Y-55439037D01*
X91884473Y-55206354D01*
X91283947Y-54956994D01*
X90633706Y-54956426D01*
X90032745Y-55204738D01*
X89572554Y-55664127D01*
X89323194Y-56264653D01*
X89322626Y-56914894D01*
X86985960Y-56914894D01*
X87051309Y-56849659D01*
X87377028Y-56065241D01*
X87377770Y-55215885D01*
X87053420Y-54430900D01*
X86453359Y-53829791D01*
X85668941Y-53504072D01*
X84819585Y-53503330D01*
X84034600Y-53827680D01*
X83433491Y-54427741D01*
X83107772Y-55212159D01*
X83107030Y-56061515D01*
X81609000Y-56061515D01*
X81609000Y-52081500D01*
X160961000Y-52081500D01*
X160961000Y-98410456D01*
G36*
X155983400Y-122123200D02*
X156041252Y-122414039D01*
X156205999Y-122660601D01*
X157692991Y-124147593D01*
X157649290Y-124367288D01*
X156137801Y-122855799D01*
X155891239Y-122691052D01*
X155600400Y-122633200D01*
X153508925Y-122633200D01*
X153610370Y-122123200D01*
X153501137Y-121574049D01*
X153190068Y-121108502D01*
X152724521Y-120797433D01*
X152550400Y-120762798D01*
X152550400Y-119344200D01*
X152774650Y-119344200D01*
X152933400Y-119185450D01*
X152933400Y-118186200D01*
X153187400Y-118186200D01*
X153187400Y-119185450D01*
X153346150Y-119344200D01*
X153836709Y-119344200D01*
X154070098Y-119247527D01*
X154248727Y-119068899D01*
X154345400Y-118835510D01*
X154345400Y-118344950D01*
X154186650Y-118186200D01*
X153187400Y-118186200D01*
X152933400Y-118186200D01*
X152913400Y-118186200D01*
X152913400Y-117932200D01*
X152933400Y-117932200D01*
X152933400Y-116932950D01*
X153187400Y-116932950D01*
X153187400Y-117932200D01*
X154186650Y-117932200D01*
X154345400Y-117773450D01*
X154345400Y-117282890D01*
X154248727Y-117049501D01*
X154070098Y-116870873D01*
X153836709Y-116774200D01*
X153346150Y-116774200D01*
X153187400Y-116932950D01*
X152933400Y-116932950D01*
X152774650Y-116774200D01*
X152550400Y-116774200D01*
X152550400Y-116469002D01*
X155983400Y-113036002D01*
X155983400Y-122123200D01*
X155983400Y-122123200D01*
G37*
X155983400Y-122123200D02*
X156041252Y-122414039D01*
X156205999Y-122660601D01*
X157692991Y-124147593D01*
X157649290Y-124367288D01*
X156137801Y-122855799D01*
X155891239Y-122691052D01*
X155600400Y-122633200D01*
X153508925Y-122633200D01*
X153610370Y-122123200D01*
X153501137Y-121574049D01*
X153190068Y-121108502D01*
X152724521Y-120797433D01*
X152550400Y-120762798D01*
X152550400Y-119344200D01*
X152774650Y-119344200D01*
X152933400Y-119185450D01*
X152933400Y-118186200D01*
X153187400Y-118186200D01*
X153187400Y-119185450D01*
X153346150Y-119344200D01*
X153836709Y-119344200D01*
X154070098Y-119247527D01*
X154248727Y-119068899D01*
X154345400Y-118835510D01*
X154345400Y-118344950D01*
X154186650Y-118186200D01*
X153187400Y-118186200D01*
X152933400Y-118186200D01*
X152913400Y-118186200D01*
X152913400Y-117932200D01*
X152933400Y-117932200D01*
X152933400Y-116932950D01*
X153187400Y-116932950D01*
X153187400Y-117932200D01*
X154186650Y-117932200D01*
X154345400Y-117773450D01*
X154345400Y-117282890D01*
X154248727Y-117049501D01*
X154070098Y-116870873D01*
X153836709Y-116774200D01*
X153346150Y-116774200D01*
X153187400Y-116932950D01*
X152933400Y-116932950D01*
X152774650Y-116774200D01*
X152550400Y-116774200D01*
X152550400Y-116469002D01*
X155983400Y-113036002D01*
X155983400Y-122123200D01*
G36*
X150190900Y-110803502D02*
X149952663Y-111160049D01*
X149843430Y-111709200D01*
X149952663Y-112258351D01*
X150263732Y-112723898D01*
X150641551Y-112976349D01*
X150208900Y-113324304D01*
X149939033Y-113817381D01*
X149921496Y-113900161D01*
X150043485Y-114122200D01*
X151536400Y-114122200D01*
X151536400Y-114102200D01*
X151790400Y-114102200D01*
X151790400Y-114122200D01*
X151810400Y-114122200D01*
X151810400Y-114376200D01*
X151790400Y-114376200D01*
X151790400Y-114396200D01*
X151536400Y-114396200D01*
X151536400Y-114376200D01*
X150043485Y-114376200D01*
X149921496Y-114598239D01*
X149939033Y-114681019D01*
X150208900Y-115174096D01*
X150646917Y-115526366D01*
X151186400Y-115684200D01*
X151207963Y-115684200D01*
X151088252Y-115863361D01*
X151030400Y-116154200D01*
X151030400Y-120762798D01*
X150856279Y-120797433D01*
X150390732Y-121108502D01*
X150079663Y-121574049D01*
X149970430Y-122123200D01*
X150071875Y-122633200D01*
X145756600Y-122633200D01*
X142009400Y-118886000D01*
X142009400Y-116349583D01*
X142362030Y-116702829D01*
X142875300Y-116915957D01*
X143431061Y-116916442D01*
X143944703Y-116704210D01*
X144338029Y-116311570D01*
X144424349Y-116103688D01*
X144509390Y-116309503D01*
X144902030Y-116702829D01*
X145415300Y-116915957D01*
X145971061Y-116916442D01*
X146484703Y-116704210D01*
X146689857Y-116499413D01*
X147433792Y-116499413D01*
X147503257Y-116741597D01*
X148026702Y-116928344D01*
X148581768Y-116900562D01*
X148965543Y-116741597D01*
X149035008Y-116499413D01*
X148234400Y-115698805D01*
X147433792Y-116499413D01*
X146689857Y-116499413D01*
X146878029Y-116311570D01*
X146957795Y-116119473D01*
X147012003Y-116250343D01*
X147254187Y-116319808D01*
X148054795Y-115519200D01*
X148414005Y-115519200D01*
X149214613Y-116319808D01*
X149456797Y-116250343D01*
X149643544Y-115726898D01*
X149615762Y-115171832D01*
X149456797Y-114788057D01*
X149214613Y-114718592D01*
X148414005Y-115519200D01*
X148054795Y-115519200D01*
X147254187Y-114718592D01*
X147012003Y-114788057D01*
X146961891Y-114928518D01*
X146879410Y-114728897D01*
X146689832Y-114538987D01*
X147433792Y-114538987D01*
X148234400Y-115339595D01*
X149035008Y-114538987D01*
X148965543Y-114296803D01*
X148442098Y-114110056D01*
X147887032Y-114137838D01*
X147503257Y-114296803D01*
X147433792Y-114538987D01*
X146689832Y-114538987D01*
X146486770Y-114335571D01*
X145973500Y-114122443D01*
X145417739Y-114121958D01*
X144904097Y-114334190D01*
X144510771Y-114726830D01*
X144424451Y-114934712D01*
X144339410Y-114728897D01*
X143946770Y-114335571D01*
X143433500Y-114122443D01*
X142877739Y-114121958D01*
X142364097Y-114334190D01*
X142009400Y-114688268D01*
X142009400Y-112286894D01*
X142535626Y-112286894D01*
X142783938Y-112887855D01*
X143243327Y-113348046D01*
X143843853Y-113597406D01*
X144494094Y-113597974D01*
X145095055Y-113349662D01*
X145555246Y-112890273D01*
X145694434Y-112555070D01*
X145831938Y-112887855D01*
X146291327Y-113348046D01*
X146891853Y-113597406D01*
X147542094Y-113597974D01*
X148143055Y-113349662D01*
X148603246Y-112890273D01*
X148852606Y-112289747D01*
X148853174Y-111639506D01*
X148604862Y-111038545D01*
X148145473Y-110578354D01*
X147544947Y-110328994D01*
X146894706Y-110328426D01*
X146293745Y-110576738D01*
X145833554Y-111036127D01*
X145694366Y-111371330D01*
X145556862Y-111038545D01*
X145097473Y-110578354D01*
X144496947Y-110328994D01*
X143846706Y-110328426D01*
X143245745Y-110576738D01*
X142785554Y-111036127D01*
X142536194Y-111636653D01*
X142535626Y-112286894D01*
X142009400Y-112286894D01*
X142009400Y-106883200D01*
X141951548Y-106592361D01*
X141786801Y-106345799D01*
X138834400Y-103393398D01*
X138834400Y-100923720D01*
X139163429Y-100703870D01*
X139488285Y-100217689D01*
X139507664Y-100120266D01*
X150190900Y-110803502D01*
X150190900Y-110803502D01*
G37*
X150190900Y-110803502D02*
X149952663Y-111160049D01*
X149843430Y-111709200D01*
X149952663Y-112258351D01*
X150263732Y-112723898D01*
X150641551Y-112976349D01*
X150208900Y-113324304D01*
X149939033Y-113817381D01*
X149921496Y-113900161D01*
X150043485Y-114122200D01*
X151536400Y-114122200D01*
X151536400Y-114102200D01*
X151790400Y-114102200D01*
X151790400Y-114122200D01*
X151810400Y-114122200D01*
X151810400Y-114376200D01*
X151790400Y-114376200D01*
X151790400Y-114396200D01*
X151536400Y-114396200D01*
X151536400Y-114376200D01*
X150043485Y-114376200D01*
X149921496Y-114598239D01*
X149939033Y-114681019D01*
X150208900Y-115174096D01*
X150646917Y-115526366D01*
X151186400Y-115684200D01*
X151207963Y-115684200D01*
X151088252Y-115863361D01*
X151030400Y-116154200D01*
X151030400Y-120762798D01*
X150856279Y-120797433D01*
X150390732Y-121108502D01*
X150079663Y-121574049D01*
X149970430Y-122123200D01*
X150071875Y-122633200D01*
X145756600Y-122633200D01*
X142009400Y-118886000D01*
X142009400Y-116349583D01*
X142362030Y-116702829D01*
X142875300Y-116915957D01*
X143431061Y-116916442D01*
X143944703Y-116704210D01*
X144338029Y-116311570D01*
X144424349Y-116103688D01*
X144509390Y-116309503D01*
X144902030Y-116702829D01*
X145415300Y-116915957D01*
X145971061Y-116916442D01*
X146484703Y-116704210D01*
X146689857Y-116499413D01*
X147433792Y-116499413D01*
X147503257Y-116741597D01*
X148026702Y-116928344D01*
X148581768Y-116900562D01*
X148965543Y-116741597D01*
X149035008Y-116499413D01*
X148234400Y-115698805D01*
X147433792Y-116499413D01*
X146689857Y-116499413D01*
X146878029Y-116311570D01*
X146957795Y-116119473D01*
X147012003Y-116250343D01*
X147254187Y-116319808D01*
X148054795Y-115519200D01*
X148414005Y-115519200D01*
X149214613Y-116319808D01*
X149456797Y-116250343D01*
X149643544Y-115726898D01*
X149615762Y-115171832D01*
X149456797Y-114788057D01*
X149214613Y-114718592D01*
X148414005Y-115519200D01*
X148054795Y-115519200D01*
X147254187Y-114718592D01*
X147012003Y-114788057D01*
X146961891Y-114928518D01*
X146879410Y-114728897D01*
X146689832Y-114538987D01*
X147433792Y-114538987D01*
X148234400Y-115339595D01*
X149035008Y-114538987D01*
X148965543Y-114296803D01*
X148442098Y-114110056D01*
X147887032Y-114137838D01*
X147503257Y-114296803D01*
X147433792Y-114538987D01*
X146689832Y-114538987D01*
X146486770Y-114335571D01*
X145973500Y-114122443D01*
X145417739Y-114121958D01*
X144904097Y-114334190D01*
X144510771Y-114726830D01*
X144424451Y-114934712D01*
X144339410Y-114728897D01*
X143946770Y-114335571D01*
X143433500Y-114122443D01*
X142877739Y-114121958D01*
X142364097Y-114334190D01*
X142009400Y-114688268D01*
X142009400Y-112286894D01*
X142535626Y-112286894D01*
X142783938Y-112887855D01*
X143243327Y-113348046D01*
X143843853Y-113597406D01*
X144494094Y-113597974D01*
X145095055Y-113349662D01*
X145555246Y-112890273D01*
X145694434Y-112555070D01*
X145831938Y-112887855D01*
X146291327Y-113348046D01*
X146891853Y-113597406D01*
X147542094Y-113597974D01*
X148143055Y-113349662D01*
X148603246Y-112890273D01*
X148852606Y-112289747D01*
X148853174Y-111639506D01*
X148604862Y-111038545D01*
X148145473Y-110578354D01*
X147544947Y-110328994D01*
X146894706Y-110328426D01*
X146293745Y-110576738D01*
X145833554Y-111036127D01*
X145694366Y-111371330D01*
X145556862Y-111038545D01*
X145097473Y-110578354D01*
X144496947Y-110328994D01*
X143846706Y-110328426D01*
X143245745Y-110576738D01*
X142785554Y-111036127D01*
X142536194Y-111636653D01*
X142535626Y-112286894D01*
X142009400Y-112286894D01*
X142009400Y-106883200D01*
X141951548Y-106592361D01*
X141786801Y-106345799D01*
X138834400Y-103393398D01*
X138834400Y-100923720D01*
X139163429Y-100703870D01*
X139488285Y-100217689D01*
X139507664Y-100120266D01*
X150190900Y-110803502D01*
G36*
X117818000Y-105914030D02*
X117818000Y-106476800D01*
X116451028Y-106476800D01*
X116442162Y-106429683D01*
X116303090Y-106213559D01*
X116090890Y-106068569D01*
X115839000Y-106017560D01*
X114539000Y-106017560D01*
X114303683Y-106061838D01*
X114087559Y-106200910D01*
X113942569Y-106413110D01*
X113891560Y-106665000D01*
X113891560Y-107965000D01*
X113935838Y-108200317D01*
X114074910Y-108416441D01*
X114287110Y-108561431D01*
X114539000Y-108612440D01*
X115839000Y-108612440D01*
X116074317Y-108568162D01*
X116290441Y-108429090D01*
X116435431Y-108216890D01*
X116448329Y-108153200D01*
X118237000Y-108153200D01*
X118414800Y-108117834D01*
X118414800Y-108839000D01*
X118478604Y-109159766D01*
X118660303Y-109431697D01*
X121404845Y-112176239D01*
X121243849Y-112208263D01*
X120778302Y-112519332D01*
X120680893Y-112665115D01*
X120656162Y-112533683D01*
X120517090Y-112317559D01*
X120304890Y-112172569D01*
X120053000Y-112121560D01*
X118453000Y-112121560D01*
X118217683Y-112165838D01*
X118001559Y-112304910D01*
X117856569Y-112517110D01*
X117805560Y-112769000D01*
X117805560Y-113159000D01*
X116194348Y-113159000D01*
X116203478Y-113149870D01*
X116088018Y-113034410D01*
X116318611Y-112978729D01*
X116486622Y-112495922D01*
X116457083Y-111985572D01*
X116318611Y-111651271D01*
X116088016Y-111595590D01*
X115368605Y-112315000D01*
X115382748Y-112329142D01*
X115203142Y-112508748D01*
X115189000Y-112494605D01*
X115174858Y-112508748D01*
X114995252Y-112329142D01*
X115009395Y-112315000D01*
X114289984Y-111595590D01*
X114059389Y-111651271D01*
X113891378Y-112134078D01*
X113920917Y-112644428D01*
X114059389Y-112978729D01*
X114289982Y-113034410D01*
X114174522Y-113149870D01*
X114183652Y-113159000D01*
X109738002Y-113159000D01*
X109055488Y-112476486D01*
X109096959Y-112268000D01*
X108982885Y-111694511D01*
X108796780Y-111415984D01*
X114469590Y-111415984D01*
X115189000Y-112135395D01*
X115908410Y-111415984D01*
X115852729Y-111185389D01*
X115369922Y-111017378D01*
X114859572Y-111046917D01*
X114525271Y-111185389D01*
X114469590Y-111415984D01*
X108796780Y-111415984D01*
X108658029Y-111208330D01*
X108343248Y-110998000D01*
X108658029Y-110787670D01*
X108982885Y-110301489D01*
X109096959Y-109728000D01*
X108982885Y-109154511D01*
X108658029Y-108668330D01*
X108343248Y-108458000D01*
X108658029Y-108247670D01*
X108982885Y-107761489D01*
X109096959Y-107188000D01*
X108982885Y-106614511D01*
X108658029Y-106128330D01*
X108343248Y-105918000D01*
X108658029Y-105707670D01*
X108858262Y-105408000D01*
X117918656Y-105408000D01*
X117818000Y-105914030D01*
X117818000Y-105914030D01*
G37*
X117818000Y-105914030D02*
X117818000Y-106476800D01*
X116451028Y-106476800D01*
X116442162Y-106429683D01*
X116303090Y-106213559D01*
X116090890Y-106068569D01*
X115839000Y-106017560D01*
X114539000Y-106017560D01*
X114303683Y-106061838D01*
X114087559Y-106200910D01*
X113942569Y-106413110D01*
X113891560Y-106665000D01*
X113891560Y-107965000D01*
X113935838Y-108200317D01*
X114074910Y-108416441D01*
X114287110Y-108561431D01*
X114539000Y-108612440D01*
X115839000Y-108612440D01*
X116074317Y-108568162D01*
X116290441Y-108429090D01*
X116435431Y-108216890D01*
X116448329Y-108153200D01*
X118237000Y-108153200D01*
X118414800Y-108117834D01*
X118414800Y-108839000D01*
X118478604Y-109159766D01*
X118660303Y-109431697D01*
X121404845Y-112176239D01*
X121243849Y-112208263D01*
X120778302Y-112519332D01*
X120680893Y-112665115D01*
X120656162Y-112533683D01*
X120517090Y-112317559D01*
X120304890Y-112172569D01*
X120053000Y-112121560D01*
X118453000Y-112121560D01*
X118217683Y-112165838D01*
X118001559Y-112304910D01*
X117856569Y-112517110D01*
X117805560Y-112769000D01*
X117805560Y-113159000D01*
X116194348Y-113159000D01*
X116203478Y-113149870D01*
X116088018Y-113034410D01*
X116318611Y-112978729D01*
X116486622Y-112495922D01*
X116457083Y-111985572D01*
X116318611Y-111651271D01*
X116088016Y-111595590D01*
X115368605Y-112315000D01*
X115382748Y-112329142D01*
X115203142Y-112508748D01*
X115189000Y-112494605D01*
X115174858Y-112508748D01*
X114995252Y-112329142D01*
X115009395Y-112315000D01*
X114289984Y-111595590D01*
X114059389Y-111651271D01*
X113891378Y-112134078D01*
X113920917Y-112644428D01*
X114059389Y-112978729D01*
X114289982Y-113034410D01*
X114174522Y-113149870D01*
X114183652Y-113159000D01*
X109738002Y-113159000D01*
X109055488Y-112476486D01*
X109096959Y-112268000D01*
X108982885Y-111694511D01*
X108796780Y-111415984D01*
X114469590Y-111415984D01*
X115189000Y-112135395D01*
X115908410Y-111415984D01*
X115852729Y-111185389D01*
X115369922Y-111017378D01*
X114859572Y-111046917D01*
X114525271Y-111185389D01*
X114469590Y-111415984D01*
X108796780Y-111415984D01*
X108658029Y-111208330D01*
X108343248Y-110998000D01*
X108658029Y-110787670D01*
X108982885Y-110301489D01*
X109096959Y-109728000D01*
X108982885Y-109154511D01*
X108658029Y-108668330D01*
X108343248Y-108458000D01*
X108658029Y-108247670D01*
X108982885Y-107761489D01*
X109096959Y-107188000D01*
X108982885Y-106614511D01*
X108658029Y-106128330D01*
X108343248Y-105918000D01*
X108658029Y-105707670D01*
X108858262Y-105408000D01*
X117918656Y-105408000D01*
X117818000Y-105914030D01*
G36*
X153207148Y-95312058D02*
X153193005Y-95326200D01*
X153912416Y-96045610D01*
X154143011Y-95989929D01*
X154183623Y-95873225D01*
X156618400Y-98308002D01*
X156618400Y-99644200D01*
X156676252Y-99935039D01*
X156840999Y-100181601D01*
X157607424Y-100948026D01*
X157572663Y-101000049D01*
X157522290Y-101253288D01*
X152889522Y-96620520D01*
X153342828Y-96594283D01*
X153677129Y-96455811D01*
X153732810Y-96225216D01*
X153013400Y-95505805D01*
X152999258Y-95519948D01*
X152819652Y-95340342D01*
X152833795Y-95326200D01*
X152819652Y-95312058D01*
X152999258Y-95132452D01*
X153013400Y-95146595D01*
X153027542Y-95132452D01*
X153207148Y-95312058D01*
X153207148Y-95312058D01*
G37*
X153207148Y-95312058D02*
X153193005Y-95326200D01*
X153912416Y-96045610D01*
X154143011Y-95989929D01*
X154183623Y-95873225D01*
X156618400Y-98308002D01*
X156618400Y-99644200D01*
X156676252Y-99935039D01*
X156840999Y-100181601D01*
X157607424Y-100948026D01*
X157572663Y-101000049D01*
X157522290Y-101253288D01*
X152889522Y-96620520D01*
X153342828Y-96594283D01*
X153677129Y-96455811D01*
X153732810Y-96225216D01*
X153013400Y-95505805D01*
X152999258Y-95519948D01*
X152819652Y-95340342D01*
X152833795Y-95326200D01*
X152819652Y-95312058D01*
X152999258Y-95132452D01*
X153013400Y-95146595D01*
X153027542Y-95132452D01*
X153207148Y-95312058D01*
G36*
X101849999Y-90148601D02*
X102096561Y-90313348D01*
X102387400Y-90371200D01*
X110079869Y-90371200D01*
X110092390Y-90401503D01*
X110485030Y-90794829D01*
X110692912Y-90881149D01*
X110487097Y-90966190D01*
X110093771Y-91358830D01*
X109880643Y-91872100D01*
X109880158Y-92427861D01*
X110092390Y-92941503D01*
X110485030Y-93334829D01*
X110677127Y-93414595D01*
X110546257Y-93468803D01*
X110476792Y-93710987D01*
X111277400Y-94511595D01*
X112078008Y-93710987D01*
X112008543Y-93468803D01*
X111868082Y-93418691D01*
X112067703Y-93336210D01*
X112461029Y-92943570D01*
X112674157Y-92430300D01*
X112674402Y-92149200D01*
X113199408Y-92149200D01*
X113060999Y-92521782D01*
X113085059Y-93171577D01*
X113287435Y-93660158D01*
X113554237Y-93758757D01*
X114526795Y-92786200D01*
X114512652Y-92772058D01*
X114692258Y-92592453D01*
X114706400Y-92606595D01*
X114720543Y-92592453D01*
X114900148Y-92772058D01*
X114886005Y-92786200D01*
X115858563Y-93758757D01*
X116125365Y-93660158D01*
X116351801Y-93050618D01*
X116327741Y-92400823D01*
X116223516Y-92149200D01*
X123154598Y-92149200D01*
X123300515Y-92295117D01*
X123232194Y-92459653D01*
X123231626Y-93109894D01*
X123479938Y-93710855D01*
X123939327Y-94171046D01*
X124539853Y-94420406D01*
X125190094Y-94420974D01*
X125791055Y-94172662D01*
X126251246Y-93713273D01*
X126500606Y-93112747D01*
X126501174Y-92462506D01*
X126319243Y-92022200D01*
X133995800Y-92022200D01*
X134095115Y-92521489D01*
X134419971Y-93007670D01*
X134734752Y-93218000D01*
X134419971Y-93428330D01*
X134095115Y-93914511D01*
X133981041Y-94488000D01*
X134095115Y-95061489D01*
X134419971Y-95547670D01*
X134804472Y-95804586D01*
X134445371Y-96044530D01*
X134120515Y-96530711D01*
X134006441Y-97104200D01*
X134120515Y-97677689D01*
X134445371Y-98163870D01*
X134760152Y-98374200D01*
X134445371Y-98584530D01*
X134120515Y-99070711D01*
X134006441Y-99644200D01*
X134120515Y-100217689D01*
X134350521Y-100561917D01*
X133276403Y-99487799D01*
X133029841Y-99323052D01*
X132739002Y-99265200D01*
X120101202Y-99265200D01*
X119324522Y-98488520D01*
X119324562Y-98443033D01*
X119182517Y-98099257D01*
X118919727Y-97836008D01*
X118576199Y-97693362D01*
X118204233Y-97693038D01*
X117860457Y-97835083D01*
X117597208Y-98097873D01*
X117454562Y-98441401D01*
X117454238Y-98813367D01*
X117596283Y-99157143D01*
X117859073Y-99420392D01*
X118202601Y-99563038D01*
X118249477Y-99563079D01*
X118459598Y-99773200D01*
X111338202Y-99773200D01*
X107236415Y-95671413D01*
X110476792Y-95671413D01*
X110546257Y-95913597D01*
X111069702Y-96100344D01*
X111624768Y-96072562D01*
X112008543Y-95913597D01*
X112078008Y-95671413D01*
X111277400Y-94870805D01*
X110476792Y-95671413D01*
X107236415Y-95671413D01*
X106048504Y-94483502D01*
X109868256Y-94483502D01*
X109896038Y-95038568D01*
X110055003Y-95422343D01*
X110297187Y-95491808D01*
X111097795Y-94691200D01*
X111457005Y-94691200D01*
X112257613Y-95491808D01*
X112499797Y-95422343D01*
X112686544Y-94898898D01*
X112658762Y-94343832D01*
X112499797Y-93960057D01*
X112424163Y-93938363D01*
X113733843Y-93938363D01*
X113832442Y-94205165D01*
X114441982Y-94431601D01*
X115091777Y-94407541D01*
X115580358Y-94205165D01*
X115678957Y-93938363D01*
X114706400Y-92965805D01*
X113733843Y-93938363D01*
X112424163Y-93938363D01*
X112257613Y-93890592D01*
X111457005Y-94691200D01*
X111097795Y-94691200D01*
X110297187Y-93890592D01*
X110055003Y-93960057D01*
X109868256Y-94483502D01*
X106048504Y-94483502D01*
X103305801Y-91740799D01*
X103059239Y-91576052D01*
X102768400Y-91518200D01*
X93878400Y-91518200D01*
X93587560Y-91576052D01*
X93340999Y-91740799D01*
X92293598Y-92788200D01*
X90125202Y-92788200D01*
X97307400Y-85606002D01*
X101849999Y-90148601D01*
X101849999Y-90148601D01*
G37*
X101849999Y-90148601D02*
X102096561Y-90313348D01*
X102387400Y-90371200D01*
X110079869Y-90371200D01*
X110092390Y-90401503D01*
X110485030Y-90794829D01*
X110692912Y-90881149D01*
X110487097Y-90966190D01*
X110093771Y-91358830D01*
X109880643Y-91872100D01*
X109880158Y-92427861D01*
X110092390Y-92941503D01*
X110485030Y-93334829D01*
X110677127Y-93414595D01*
X110546257Y-93468803D01*
X110476792Y-93710987D01*
X111277400Y-94511595D01*
X112078008Y-93710987D01*
X112008543Y-93468803D01*
X111868082Y-93418691D01*
X112067703Y-93336210D01*
X112461029Y-92943570D01*
X112674157Y-92430300D01*
X112674402Y-92149200D01*
X113199408Y-92149200D01*
X113060999Y-92521782D01*
X113085059Y-93171577D01*
X113287435Y-93660158D01*
X113554237Y-93758757D01*
X114526795Y-92786200D01*
X114512652Y-92772058D01*
X114692258Y-92592453D01*
X114706400Y-92606595D01*
X114720543Y-92592453D01*
X114900148Y-92772058D01*
X114886005Y-92786200D01*
X115858563Y-93758757D01*
X116125365Y-93660158D01*
X116351801Y-93050618D01*
X116327741Y-92400823D01*
X116223516Y-92149200D01*
X123154598Y-92149200D01*
X123300515Y-92295117D01*
X123232194Y-92459653D01*
X123231626Y-93109894D01*
X123479938Y-93710855D01*
X123939327Y-94171046D01*
X124539853Y-94420406D01*
X125190094Y-94420974D01*
X125791055Y-94172662D01*
X126251246Y-93713273D01*
X126500606Y-93112747D01*
X126501174Y-92462506D01*
X126319243Y-92022200D01*
X133995800Y-92022200D01*
X134095115Y-92521489D01*
X134419971Y-93007670D01*
X134734752Y-93218000D01*
X134419971Y-93428330D01*
X134095115Y-93914511D01*
X133981041Y-94488000D01*
X134095115Y-95061489D01*
X134419971Y-95547670D01*
X134804472Y-95804586D01*
X134445371Y-96044530D01*
X134120515Y-96530711D01*
X134006441Y-97104200D01*
X134120515Y-97677689D01*
X134445371Y-98163870D01*
X134760152Y-98374200D01*
X134445371Y-98584530D01*
X134120515Y-99070711D01*
X134006441Y-99644200D01*
X134120515Y-100217689D01*
X134350521Y-100561917D01*
X133276403Y-99487799D01*
X133029841Y-99323052D01*
X132739002Y-99265200D01*
X120101202Y-99265200D01*
X119324522Y-98488520D01*
X119324562Y-98443033D01*
X119182517Y-98099257D01*
X118919727Y-97836008D01*
X118576199Y-97693362D01*
X118204233Y-97693038D01*
X117860457Y-97835083D01*
X117597208Y-98097873D01*
X117454562Y-98441401D01*
X117454238Y-98813367D01*
X117596283Y-99157143D01*
X117859073Y-99420392D01*
X118202601Y-99563038D01*
X118249477Y-99563079D01*
X118459598Y-99773200D01*
X111338202Y-99773200D01*
X107236415Y-95671413D01*
X110476792Y-95671413D01*
X110546257Y-95913597D01*
X111069702Y-96100344D01*
X111624768Y-96072562D01*
X112008543Y-95913597D01*
X112078008Y-95671413D01*
X111277400Y-94870805D01*
X110476792Y-95671413D01*
X107236415Y-95671413D01*
X106048504Y-94483502D01*
X109868256Y-94483502D01*
X109896038Y-95038568D01*
X110055003Y-95422343D01*
X110297187Y-95491808D01*
X111097795Y-94691200D01*
X111457005Y-94691200D01*
X112257613Y-95491808D01*
X112499797Y-95422343D01*
X112686544Y-94898898D01*
X112658762Y-94343832D01*
X112499797Y-93960057D01*
X112424163Y-93938363D01*
X113733843Y-93938363D01*
X113832442Y-94205165D01*
X114441982Y-94431601D01*
X115091777Y-94407541D01*
X115580358Y-94205165D01*
X115678957Y-93938363D01*
X114706400Y-92965805D01*
X113733843Y-93938363D01*
X112424163Y-93938363D01*
X112257613Y-93890592D01*
X111457005Y-94691200D01*
X111097795Y-94691200D01*
X110297187Y-93890592D01*
X110055003Y-93960057D01*
X109868256Y-94483502D01*
X106048504Y-94483502D01*
X103305801Y-91740799D01*
X103059239Y-91576052D01*
X102768400Y-91518200D01*
X93878400Y-91518200D01*
X93587560Y-91576052D01*
X93340999Y-91740799D01*
X92293598Y-92788200D01*
X90125202Y-92788200D01*
X97307400Y-85606002D01*
X101849999Y-90148601D01*
G36*
X105251598Y-96598200D02*
X96575978Y-96598200D01*
X96618767Y-96520019D01*
X96636304Y-96437239D01*
X96514315Y-96215200D01*
X95021400Y-96215200D01*
X95021400Y-96235200D01*
X94767400Y-96235200D01*
X94767400Y-96215200D01*
X94747400Y-96215200D01*
X94747400Y-95961200D01*
X94767400Y-95961200D01*
X94767400Y-95941200D01*
X95021400Y-95941200D01*
X95021400Y-95961200D01*
X96514315Y-95961200D01*
X96636304Y-95739161D01*
X96618767Y-95656381D01*
X96575978Y-95578200D01*
X104231598Y-95578200D01*
X105251598Y-96598200D01*
X105251598Y-96598200D01*
G37*
X105251598Y-96598200D02*
X96575978Y-96598200D01*
X96618767Y-96520019D01*
X96636304Y-96437239D01*
X96514315Y-96215200D01*
X95021400Y-96215200D01*
X95021400Y-96235200D01*
X94767400Y-96235200D01*
X94767400Y-96215200D01*
X94747400Y-96215200D01*
X94747400Y-95961200D01*
X94767400Y-95961200D01*
X94767400Y-95941200D01*
X95021400Y-95941200D01*
X95021400Y-95961200D01*
X96514315Y-95961200D01*
X96636304Y-95739161D01*
X96618767Y-95656381D01*
X96575978Y-95578200D01*
X104231598Y-95578200D01*
X105251598Y-96598200D01*
G36*
X145410999Y-94339601D02*
X145657561Y-94504348D01*
X145948400Y-94562200D01*
X152069792Y-94562200D01*
X152114382Y-94606790D01*
X151883789Y-94662471D01*
X151715778Y-95145278D01*
X151734301Y-95465299D01*
X151692801Y-95423799D01*
X151446239Y-95259052D01*
X151155400Y-95201200D01*
X139738727Y-95201200D01*
X139635239Y-95132052D01*
X139404882Y-95086231D01*
X139503958Y-94847026D01*
X139382817Y-94615000D01*
X138176000Y-94615000D01*
X138176000Y-94635000D01*
X137922000Y-94635000D01*
X137922000Y-94615000D01*
X137902000Y-94615000D01*
X137902000Y-94361000D01*
X137922000Y-94361000D01*
X137922000Y-94341000D01*
X138176000Y-94341000D01*
X138176000Y-94361000D01*
X139382817Y-94361000D01*
X139503958Y-94128974D01*
X139331688Y-93713053D01*
X138937490Y-93281179D01*
X138814772Y-93223664D01*
X139138029Y-93007670D01*
X139462885Y-92521489D01*
X139576959Y-91948000D01*
X139465409Y-91387200D01*
X142458598Y-91387200D01*
X145410999Y-94339601D01*
X145410999Y-94339601D01*
G37*
X145410999Y-94339601D02*
X145657561Y-94504348D01*
X145948400Y-94562200D01*
X152069792Y-94562200D01*
X152114382Y-94606790D01*
X151883789Y-94662471D01*
X151715778Y-95145278D01*
X151734301Y-95465299D01*
X151692801Y-95423799D01*
X151446239Y-95259052D01*
X151155400Y-95201200D01*
X139738727Y-95201200D01*
X139635239Y-95132052D01*
X139404882Y-95086231D01*
X139503958Y-94847026D01*
X139382817Y-94615000D01*
X138176000Y-94615000D01*
X138176000Y-94635000D01*
X137922000Y-94635000D01*
X137922000Y-94615000D01*
X137902000Y-94615000D01*
X137902000Y-94361000D01*
X137922000Y-94361000D01*
X137922000Y-94341000D01*
X138176000Y-94341000D01*
X138176000Y-94361000D01*
X139382817Y-94361000D01*
X139503958Y-94128974D01*
X139331688Y-93713053D01*
X138937490Y-93281179D01*
X138814772Y-93223664D01*
X139138029Y-93007670D01*
X139462885Y-92521489D01*
X139576959Y-91948000D01*
X139465409Y-91387200D01*
X142458598Y-91387200D01*
X145410999Y-94339601D01*
G36*
X103473598Y-94058200D02*
X96575978Y-94058200D01*
X96618767Y-93980019D01*
X96636304Y-93897239D01*
X96514315Y-93675200D01*
X95021400Y-93675200D01*
X95021400Y-93695200D01*
X94767400Y-93695200D01*
X94767400Y-93675200D01*
X94747400Y-93675200D01*
X94747400Y-93421200D01*
X94767400Y-93421200D01*
X94767400Y-93401200D01*
X95021400Y-93401200D01*
X95021400Y-93421200D01*
X96514315Y-93421200D01*
X96636304Y-93199161D01*
X96618767Y-93116381D01*
X96575978Y-93038200D01*
X102453598Y-93038200D01*
X103473598Y-94058200D01*
X103473598Y-94058200D01*
G37*
X103473598Y-94058200D02*
X96575978Y-94058200D01*
X96618767Y-93980019D01*
X96636304Y-93897239D01*
X96514315Y-93675200D01*
X95021400Y-93675200D01*
X95021400Y-93695200D01*
X94767400Y-93695200D01*
X94767400Y-93675200D01*
X94747400Y-93675200D01*
X94747400Y-93421200D01*
X94767400Y-93421200D01*
X94767400Y-93401200D01*
X95021400Y-93401200D01*
X95021400Y-93421200D01*
X96514315Y-93421200D01*
X96636304Y-93199161D01*
X96618767Y-93116381D01*
X96575978Y-93038200D01*
X102453598Y-93038200D01*
X103473598Y-94058200D01*
G36*
X112818194Y-75949653D02*
X112817626Y-76599894D01*
X113065938Y-77200855D01*
X113525327Y-77661046D01*
X113707227Y-77736577D01*
X113527745Y-77810738D01*
X113067554Y-78270127D01*
X112818194Y-78870653D01*
X112817626Y-79520894D01*
X113065938Y-80121855D01*
X113525327Y-80582046D01*
X113707227Y-80657577D01*
X113527745Y-80731738D01*
X113067554Y-81191127D01*
X112818194Y-81791653D01*
X112817626Y-82441894D01*
X113065938Y-83042855D01*
X113525327Y-83503046D01*
X114125853Y-83752406D01*
X114776094Y-83752974D01*
X115377055Y-83504662D01*
X115451622Y-83430224D01*
X122650598Y-90629200D01*
X116106225Y-90629200D01*
X116340606Y-90064747D01*
X116341174Y-89414506D01*
X116092862Y-88813545D01*
X115633473Y-88353354D01*
X115032947Y-88103994D01*
X114382706Y-88103426D01*
X113781745Y-88351738D01*
X113321554Y-88811127D01*
X113072194Y-89411653D01*
X113071626Y-90061894D01*
X113306032Y-90629200D01*
X112235005Y-90629200D01*
X112461029Y-90403570D01*
X112674157Y-89890300D01*
X112674642Y-89334539D01*
X112462410Y-88820897D01*
X112069770Y-88427571D01*
X111556500Y-88214443D01*
X111000739Y-88213958D01*
X110487097Y-88426190D01*
X110093771Y-88818830D01*
X110080330Y-88851200D01*
X102702202Y-88851200D01*
X100886415Y-87035413D01*
X110349792Y-87035413D01*
X110419257Y-87277597D01*
X110942702Y-87464344D01*
X111497768Y-87436562D01*
X111881543Y-87277597D01*
X111951008Y-87035413D01*
X111150400Y-86234805D01*
X110349792Y-87035413D01*
X100886415Y-87035413D01*
X99661365Y-85810363D01*
X104208843Y-85810363D01*
X104307442Y-86077165D01*
X104916982Y-86303601D01*
X105566777Y-86279541D01*
X106055358Y-86077165D01*
X106140231Y-85847502D01*
X109741256Y-85847502D01*
X109769038Y-86402568D01*
X109928003Y-86786343D01*
X110170187Y-86855808D01*
X110970795Y-86055200D01*
X111330005Y-86055200D01*
X112130613Y-86855808D01*
X112372797Y-86786343D01*
X112559544Y-86262898D01*
X112531762Y-85707832D01*
X112372797Y-85324057D01*
X112130613Y-85254592D01*
X111330005Y-86055200D01*
X110970795Y-86055200D01*
X110170187Y-85254592D01*
X109928003Y-85324057D01*
X109741256Y-85847502D01*
X106140231Y-85847502D01*
X106153957Y-85810363D01*
X105181400Y-84837805D01*
X104208843Y-85810363D01*
X99661365Y-85810363D01*
X99175690Y-85324688D01*
X99208430Y-85331200D01*
X99978370Y-85331200D01*
X100527521Y-85221967D01*
X100993068Y-84910898D01*
X101304137Y-84445351D01*
X101314394Y-84393782D01*
X103535999Y-84393782D01*
X103560059Y-85043577D01*
X103762435Y-85532158D01*
X104029237Y-85630757D01*
X105001795Y-84658200D01*
X105361005Y-84658200D01*
X106333563Y-85630757D01*
X106600365Y-85532158D01*
X106826801Y-84922618D01*
X106802741Y-84272823D01*
X106600365Y-83784242D01*
X106333563Y-83685643D01*
X105361005Y-84658200D01*
X105001795Y-84658200D01*
X104029237Y-83685643D01*
X103762435Y-83784242D01*
X103535999Y-84393782D01*
X101314394Y-84393782D01*
X101413370Y-83896200D01*
X101371299Y-83684695D01*
X101549957Y-83506037D01*
X104208843Y-83506037D01*
X105181400Y-84478595D01*
X106153957Y-83506037D01*
X106055358Y-83239235D01*
X105445818Y-83012799D01*
X104796023Y-83036859D01*
X104307442Y-83239235D01*
X104208843Y-83506037D01*
X101549957Y-83506037D01*
X105782594Y-79273400D01*
X110013203Y-79273400D01*
X110358030Y-79618829D01*
X110565912Y-79705149D01*
X110360097Y-79790190D01*
X109966771Y-80182830D01*
X109753643Y-80696100D01*
X109753158Y-81251861D01*
X109965390Y-81765503D01*
X110358030Y-82158829D01*
X110565912Y-82245149D01*
X110360097Y-82330190D01*
X109966771Y-82722830D01*
X109753643Y-83236100D01*
X109753158Y-83791861D01*
X109965390Y-84305503D01*
X110358030Y-84698829D01*
X110550127Y-84778595D01*
X110419257Y-84832803D01*
X110349792Y-85074987D01*
X111150400Y-85875595D01*
X111951008Y-85074987D01*
X111881543Y-84832803D01*
X111741082Y-84782691D01*
X111940703Y-84700210D01*
X112334029Y-84307570D01*
X112547157Y-83794300D01*
X112547642Y-83238539D01*
X112335410Y-82724897D01*
X111942770Y-82331571D01*
X111734888Y-82245251D01*
X111940703Y-82160210D01*
X112334029Y-81767570D01*
X112547157Y-81254300D01*
X112547642Y-80698539D01*
X112335410Y-80184897D01*
X111942770Y-79791571D01*
X111734888Y-79705251D01*
X111940703Y-79620210D01*
X112334029Y-79227570D01*
X112547157Y-78714300D01*
X112547642Y-78158539D01*
X112335410Y-77644897D01*
X111942770Y-77251571D01*
X111734888Y-77165251D01*
X111940703Y-77080210D01*
X112334029Y-76687570D01*
X112547157Y-76174300D01*
X112547349Y-75954053D01*
X113007394Y-75494008D01*
X112818194Y-75949653D01*
X112818194Y-75949653D01*
G37*
X112818194Y-75949653D02*
X112817626Y-76599894D01*
X113065938Y-77200855D01*
X113525327Y-77661046D01*
X113707227Y-77736577D01*
X113527745Y-77810738D01*
X113067554Y-78270127D01*
X112818194Y-78870653D01*
X112817626Y-79520894D01*
X113065938Y-80121855D01*
X113525327Y-80582046D01*
X113707227Y-80657577D01*
X113527745Y-80731738D01*
X113067554Y-81191127D01*
X112818194Y-81791653D01*
X112817626Y-82441894D01*
X113065938Y-83042855D01*
X113525327Y-83503046D01*
X114125853Y-83752406D01*
X114776094Y-83752974D01*
X115377055Y-83504662D01*
X115451622Y-83430224D01*
X122650598Y-90629200D01*
X116106225Y-90629200D01*
X116340606Y-90064747D01*
X116341174Y-89414506D01*
X116092862Y-88813545D01*
X115633473Y-88353354D01*
X115032947Y-88103994D01*
X114382706Y-88103426D01*
X113781745Y-88351738D01*
X113321554Y-88811127D01*
X113072194Y-89411653D01*
X113071626Y-90061894D01*
X113306032Y-90629200D01*
X112235005Y-90629200D01*
X112461029Y-90403570D01*
X112674157Y-89890300D01*
X112674642Y-89334539D01*
X112462410Y-88820897D01*
X112069770Y-88427571D01*
X111556500Y-88214443D01*
X111000739Y-88213958D01*
X110487097Y-88426190D01*
X110093771Y-88818830D01*
X110080330Y-88851200D01*
X102702202Y-88851200D01*
X100886415Y-87035413D01*
X110349792Y-87035413D01*
X110419257Y-87277597D01*
X110942702Y-87464344D01*
X111497768Y-87436562D01*
X111881543Y-87277597D01*
X111951008Y-87035413D01*
X111150400Y-86234805D01*
X110349792Y-87035413D01*
X100886415Y-87035413D01*
X99661365Y-85810363D01*
X104208843Y-85810363D01*
X104307442Y-86077165D01*
X104916982Y-86303601D01*
X105566777Y-86279541D01*
X106055358Y-86077165D01*
X106140231Y-85847502D01*
X109741256Y-85847502D01*
X109769038Y-86402568D01*
X109928003Y-86786343D01*
X110170187Y-86855808D01*
X110970795Y-86055200D01*
X111330005Y-86055200D01*
X112130613Y-86855808D01*
X112372797Y-86786343D01*
X112559544Y-86262898D01*
X112531762Y-85707832D01*
X112372797Y-85324057D01*
X112130613Y-85254592D01*
X111330005Y-86055200D01*
X110970795Y-86055200D01*
X110170187Y-85254592D01*
X109928003Y-85324057D01*
X109741256Y-85847502D01*
X106140231Y-85847502D01*
X106153957Y-85810363D01*
X105181400Y-84837805D01*
X104208843Y-85810363D01*
X99661365Y-85810363D01*
X99175690Y-85324688D01*
X99208430Y-85331200D01*
X99978370Y-85331200D01*
X100527521Y-85221967D01*
X100993068Y-84910898D01*
X101304137Y-84445351D01*
X101314394Y-84393782D01*
X103535999Y-84393782D01*
X103560059Y-85043577D01*
X103762435Y-85532158D01*
X104029237Y-85630757D01*
X105001795Y-84658200D01*
X105361005Y-84658200D01*
X106333563Y-85630757D01*
X106600365Y-85532158D01*
X106826801Y-84922618D01*
X106802741Y-84272823D01*
X106600365Y-83784242D01*
X106333563Y-83685643D01*
X105361005Y-84658200D01*
X105001795Y-84658200D01*
X104029237Y-83685643D01*
X103762435Y-83784242D01*
X103535999Y-84393782D01*
X101314394Y-84393782D01*
X101413370Y-83896200D01*
X101371299Y-83684695D01*
X101549957Y-83506037D01*
X104208843Y-83506037D01*
X105181400Y-84478595D01*
X106153957Y-83506037D01*
X106055358Y-83239235D01*
X105445818Y-83012799D01*
X104796023Y-83036859D01*
X104307442Y-83239235D01*
X104208843Y-83506037D01*
X101549957Y-83506037D01*
X105782594Y-79273400D01*
X110013203Y-79273400D01*
X110358030Y-79618829D01*
X110565912Y-79705149D01*
X110360097Y-79790190D01*
X109966771Y-80182830D01*
X109753643Y-80696100D01*
X109753158Y-81251861D01*
X109965390Y-81765503D01*
X110358030Y-82158829D01*
X110565912Y-82245149D01*
X110360097Y-82330190D01*
X109966771Y-82722830D01*
X109753643Y-83236100D01*
X109753158Y-83791861D01*
X109965390Y-84305503D01*
X110358030Y-84698829D01*
X110550127Y-84778595D01*
X110419257Y-84832803D01*
X110349792Y-85074987D01*
X111150400Y-85875595D01*
X111951008Y-85074987D01*
X111881543Y-84832803D01*
X111741082Y-84782691D01*
X111940703Y-84700210D01*
X112334029Y-84307570D01*
X112547157Y-83794300D01*
X112547642Y-83238539D01*
X112335410Y-82724897D01*
X111942770Y-82331571D01*
X111734888Y-82245251D01*
X111940703Y-82160210D01*
X112334029Y-81767570D01*
X112547157Y-81254300D01*
X112547642Y-80698539D01*
X112335410Y-80184897D01*
X111942770Y-79791571D01*
X111734888Y-79705251D01*
X111940703Y-79620210D01*
X112334029Y-79227570D01*
X112547157Y-78714300D01*
X112547642Y-78158539D01*
X112335410Y-77644897D01*
X111942770Y-77251571D01*
X111734888Y-77165251D01*
X111940703Y-77080210D01*
X112334029Y-76687570D01*
X112547157Y-76174300D01*
X112547349Y-75954053D01*
X113007394Y-75494008D01*
X112818194Y-75949653D01*
G36*
X123121040Y-75605642D02*
X122978194Y-75949653D01*
X122977626Y-76599894D01*
X123225938Y-77200855D01*
X123685327Y-77661046D01*
X123867227Y-77736577D01*
X123687745Y-77810738D01*
X123227554Y-78270127D01*
X122978194Y-78870653D01*
X122977626Y-79520894D01*
X123225938Y-80121855D01*
X123685327Y-80582046D01*
X123853137Y-80651727D01*
X123738442Y-80699235D01*
X123639843Y-80966037D01*
X124612400Y-81938595D01*
X125584957Y-80966037D01*
X125486358Y-80699235D01*
X125365767Y-80654437D01*
X125537055Y-80583662D01*
X125997246Y-80124273D01*
X126246606Y-79523747D01*
X126247174Y-78873506D01*
X125998862Y-78272545D01*
X125539473Y-77812354D01*
X125357573Y-77736823D01*
X125537055Y-77662662D01*
X125997246Y-77203273D01*
X126246606Y-76602747D01*
X126246965Y-76191567D01*
X133250400Y-83195002D01*
X133250400Y-87909400D01*
X133308252Y-88200239D01*
X133472999Y-88446801D01*
X134056225Y-89030027D01*
X133981041Y-89408000D01*
X134095115Y-89981489D01*
X134419971Y-90467670D01*
X134471649Y-90502200D01*
X131897454Y-90502200D01*
X131897562Y-90378533D01*
X131755517Y-90034757D01*
X131492727Y-89771508D01*
X131177698Y-89640696D01*
X125420522Y-83883520D01*
X125420562Y-83838033D01*
X125324029Y-83604404D01*
X125486358Y-83537165D01*
X125584957Y-83270363D01*
X124612400Y-82297805D01*
X123639843Y-83270363D01*
X123714294Y-83471823D01*
X123693208Y-83492873D01*
X123550562Y-83836401D01*
X123550238Y-84208367D01*
X123692283Y-84552143D01*
X123955073Y-84815392D01*
X124298601Y-84958038D01*
X124345477Y-84958079D01*
X125509273Y-86121875D01*
X125471208Y-86159873D01*
X125328562Y-86503401D01*
X125328238Y-86875367D01*
X125470283Y-87219143D01*
X125733073Y-87482392D01*
X126076601Y-87625038D01*
X126123477Y-87625079D01*
X126852278Y-88353880D01*
X126852238Y-88399367D01*
X126994283Y-88743143D01*
X127257073Y-89006392D01*
X127600601Y-89149038D01*
X127972567Y-89149362D01*
X128316343Y-89007317D01*
X128355563Y-88968165D01*
X129889598Y-90502200D01*
X126318960Y-90502200D01*
X126500606Y-90064747D01*
X126501174Y-89414506D01*
X126252862Y-88813545D01*
X125793473Y-88353354D01*
X125192947Y-88103994D01*
X124542706Y-88103426D01*
X123941745Y-88351738D01*
X123481554Y-88811127D01*
X123335021Y-89164019D01*
X116087068Y-81916066D01*
X116087122Y-81853782D01*
X122966999Y-81853782D01*
X122991059Y-82503577D01*
X123193435Y-82992158D01*
X123460237Y-83090757D01*
X124432795Y-82118200D01*
X124792005Y-82118200D01*
X125764563Y-83090757D01*
X126031365Y-82992158D01*
X126257801Y-82382618D01*
X126233741Y-81732823D01*
X126031365Y-81244242D01*
X125764563Y-81145643D01*
X124792005Y-82118200D01*
X124432795Y-82118200D01*
X123460237Y-81145643D01*
X123193435Y-81244242D01*
X122966999Y-81853782D01*
X116087122Y-81853782D01*
X116087174Y-81794506D01*
X115838862Y-81193545D01*
X115379473Y-80733354D01*
X115197573Y-80657823D01*
X115377055Y-80583662D01*
X115837246Y-80124273D01*
X116086606Y-79523747D01*
X116087174Y-78873506D01*
X115838862Y-78272545D01*
X115379473Y-77812354D01*
X115197573Y-77736823D01*
X115377055Y-77662662D01*
X115837246Y-77203273D01*
X116086606Y-76602747D01*
X116087174Y-75952506D01*
X115838862Y-75351545D01*
X115492122Y-75004200D01*
X122519598Y-75004200D01*
X123121040Y-75605642D01*
X123121040Y-75605642D01*
G37*
X123121040Y-75605642D02*
X122978194Y-75949653D01*
X122977626Y-76599894D01*
X123225938Y-77200855D01*
X123685327Y-77661046D01*
X123867227Y-77736577D01*
X123687745Y-77810738D01*
X123227554Y-78270127D01*
X122978194Y-78870653D01*
X122977626Y-79520894D01*
X123225938Y-80121855D01*
X123685327Y-80582046D01*
X123853137Y-80651727D01*
X123738442Y-80699235D01*
X123639843Y-80966037D01*
X124612400Y-81938595D01*
X125584957Y-80966037D01*
X125486358Y-80699235D01*
X125365767Y-80654437D01*
X125537055Y-80583662D01*
X125997246Y-80124273D01*
X126246606Y-79523747D01*
X126247174Y-78873506D01*
X125998862Y-78272545D01*
X125539473Y-77812354D01*
X125357573Y-77736823D01*
X125537055Y-77662662D01*
X125997246Y-77203273D01*
X126246606Y-76602747D01*
X126246965Y-76191567D01*
X133250400Y-83195002D01*
X133250400Y-87909400D01*
X133308252Y-88200239D01*
X133472999Y-88446801D01*
X134056225Y-89030027D01*
X133981041Y-89408000D01*
X134095115Y-89981489D01*
X134419971Y-90467670D01*
X134471649Y-90502200D01*
X131897454Y-90502200D01*
X131897562Y-90378533D01*
X131755517Y-90034757D01*
X131492727Y-89771508D01*
X131177698Y-89640696D01*
X125420522Y-83883520D01*
X125420562Y-83838033D01*
X125324029Y-83604404D01*
X125486358Y-83537165D01*
X125584957Y-83270363D01*
X124612400Y-82297805D01*
X123639843Y-83270363D01*
X123714294Y-83471823D01*
X123693208Y-83492873D01*
X123550562Y-83836401D01*
X123550238Y-84208367D01*
X123692283Y-84552143D01*
X123955073Y-84815392D01*
X124298601Y-84958038D01*
X124345477Y-84958079D01*
X125509273Y-86121875D01*
X125471208Y-86159873D01*
X125328562Y-86503401D01*
X125328238Y-86875367D01*
X125470283Y-87219143D01*
X125733073Y-87482392D01*
X126076601Y-87625038D01*
X126123477Y-87625079D01*
X126852278Y-88353880D01*
X126852238Y-88399367D01*
X126994283Y-88743143D01*
X127257073Y-89006392D01*
X127600601Y-89149038D01*
X127972567Y-89149362D01*
X128316343Y-89007317D01*
X128355563Y-88968165D01*
X129889598Y-90502200D01*
X126318960Y-90502200D01*
X126500606Y-90064747D01*
X126501174Y-89414506D01*
X126252862Y-88813545D01*
X125793473Y-88353354D01*
X125192947Y-88103994D01*
X124542706Y-88103426D01*
X123941745Y-88351738D01*
X123481554Y-88811127D01*
X123335021Y-89164019D01*
X116087068Y-81916066D01*
X116087122Y-81853782D01*
X122966999Y-81853782D01*
X122991059Y-82503577D01*
X123193435Y-82992158D01*
X123460237Y-83090757D01*
X124432795Y-82118200D01*
X124792005Y-82118200D01*
X125764563Y-83090757D01*
X126031365Y-82992158D01*
X126257801Y-82382618D01*
X126233741Y-81732823D01*
X126031365Y-81244242D01*
X125764563Y-81145643D01*
X124792005Y-82118200D01*
X124432795Y-82118200D01*
X123460237Y-81145643D01*
X123193435Y-81244242D01*
X122966999Y-81853782D01*
X116087122Y-81853782D01*
X116087174Y-81794506D01*
X115838862Y-81193545D01*
X115379473Y-80733354D01*
X115197573Y-80657823D01*
X115377055Y-80583662D01*
X115837246Y-80124273D01*
X116086606Y-79523747D01*
X116087174Y-78873506D01*
X115838862Y-78272545D01*
X115379473Y-77812354D01*
X115197573Y-77736823D01*
X115377055Y-77662662D01*
X115837246Y-77203273D01*
X116086606Y-76602747D01*
X116087174Y-75952506D01*
X115838862Y-75351545D01*
X115492122Y-75004200D01*
X122519598Y-75004200D01*
X123121040Y-75605642D01*
M02*
