G04 #@! TF.GenerationSoftware,KiCad,Pcbnew,(5.1.0-0)*
G04 #@! TF.CreationDate,2019-10-10T15:59:00-05:00*
G04 #@! TF.ProjectId,trigger-seq,74726967-6765-4722-9d73-65712e6b6963,rev?*
G04 #@! TF.SameCoordinates,Original*
G04 #@! TF.FileFunction,Soldermask,Top*
G04 #@! TF.FilePolarity,Negative*
%FSLAX46Y46*%
G04 Gerber Fmt 4.6, Leading zero omitted, Abs format (unit mm)*
G04 Created by KiCad (PCBNEW (5.1.0-0)) date 2019-10-10 15:59:00*
%MOMM*%
%LPD*%
G04 APERTURE LIST*
%ADD10C,0.250000*%
%ADD11C,2.000000*%
%ADD12R,2.000000X2.000000*%
%ADD13O,2.000000X2.000000*%
%ADD14R,2.800000X2.000000*%
%ADD15O,2.800000X2.000000*%
%ADD16C,2.800000*%
%ADD17R,2.127200X2.127200*%
%ADD18O,2.127200X2.127200*%
%ADD19R,2.100000X2.100000*%
%ADD20O,2.100000X2.100000*%
%ADD21R,1.900000X1.900000*%
%ADD22C,1.900000*%
%ADD23R,2.000000X2.800000*%
%ADD24O,2.000000X2.800000*%
G04 APERTURE END LIST*
D10*
X90273619Y-155265380D02*
X90273619Y-154598714D01*
X90273619Y-154789190D02*
X90321238Y-154693952D01*
X90368857Y-154646333D01*
X90464095Y-154598714D01*
X90559333Y-154598714D01*
X91273619Y-155217761D02*
X91178380Y-155265380D01*
X90987904Y-155265380D01*
X90892666Y-155217761D01*
X90845047Y-155122523D01*
X90845047Y-154741571D01*
X90892666Y-154646333D01*
X90987904Y-154598714D01*
X91178380Y-154598714D01*
X91273619Y-154646333D01*
X91321238Y-154741571D01*
X91321238Y-154836809D01*
X90845047Y-154932047D01*
X92178380Y-155265380D02*
X92178380Y-154265380D01*
X92178380Y-155217761D02*
X92083142Y-155265380D01*
X91892666Y-155265380D01*
X91797428Y-155217761D01*
X91749809Y-155170142D01*
X91702190Y-155074904D01*
X91702190Y-154789190D01*
X91749809Y-154693952D01*
X91797428Y-154646333D01*
X91892666Y-154598714D01*
X92083142Y-154598714D01*
X92178380Y-154646333D01*
X93368857Y-155217761D02*
X93464095Y-155265380D01*
X93654571Y-155265380D01*
X93749809Y-155217761D01*
X93797428Y-155122523D01*
X93797428Y-155074904D01*
X93749809Y-154979666D01*
X93654571Y-154932047D01*
X93511714Y-154932047D01*
X93416476Y-154884428D01*
X93368857Y-154789190D01*
X93368857Y-154741571D01*
X93416476Y-154646333D01*
X93511714Y-154598714D01*
X93654571Y-154598714D01*
X93749809Y-154646333D01*
X94083142Y-154598714D02*
X94464095Y-154598714D01*
X94226000Y-154265380D02*
X94226000Y-155122523D01*
X94273619Y-155217761D01*
X94368857Y-155265380D01*
X94464095Y-155265380D01*
X94797428Y-155265380D02*
X94797428Y-154598714D01*
X94797428Y-154789190D02*
X94845047Y-154693952D01*
X94892666Y-154646333D01*
X94987904Y-154598714D01*
X95083142Y-154598714D01*
X95416476Y-155265380D02*
X95416476Y-154598714D01*
X95416476Y-154265380D02*
X95368857Y-154313000D01*
X95416476Y-154360619D01*
X95464095Y-154313000D01*
X95416476Y-154265380D01*
X95416476Y-154360619D01*
X95892666Y-154598714D02*
X95892666Y-155598714D01*
X95892666Y-154646333D02*
X95987904Y-154598714D01*
X96178380Y-154598714D01*
X96273619Y-154646333D01*
X96321238Y-154693952D01*
X96368857Y-154789190D01*
X96368857Y-155074904D01*
X96321238Y-155170142D01*
X96273619Y-155217761D01*
X96178380Y-155265380D01*
X95987904Y-155265380D01*
X95892666Y-155217761D01*
X97178380Y-155217761D02*
X97083142Y-155265380D01*
X96892666Y-155265380D01*
X96797428Y-155217761D01*
X96749809Y-155122523D01*
X96749809Y-154741571D01*
X96797428Y-154646333D01*
X96892666Y-154598714D01*
X97083142Y-154598714D01*
X97178380Y-154646333D01*
X97226000Y-154741571D01*
X97226000Y-154836809D01*
X96749809Y-154932047D01*
D11*
X83860000Y-132715000D03*
D12*
X86360000Y-132715000D03*
D13*
X87503000Y-146939000D03*
D11*
X87503000Y-136779000D03*
D14*
X129794000Y-111760000D03*
D15*
X137414000Y-119380000D03*
X129794000Y-114300000D03*
X137414000Y-116840000D03*
X129794000Y-116840000D03*
X137414000Y-114300000D03*
X129794000Y-119380000D03*
X137414000Y-111760000D03*
D11*
X143637000Y-106553000D03*
D13*
X143637000Y-116713000D03*
D12*
X108712000Y-153416000D03*
D11*
X108712000Y-150916000D03*
X119634000Y-140081000D03*
X114634000Y-140081000D03*
X114761000Y-126238000D03*
X119761000Y-126238000D03*
X124841000Y-63627000D03*
X124841000Y-68627000D03*
X106045000Y-143303000D03*
X106045000Y-138303000D03*
D12*
X109093000Y-146431000D03*
D11*
X111593000Y-146431000D03*
X119808000Y-123190000D03*
X114808000Y-123190000D03*
X88218000Y-123317000D03*
X93218000Y-123317000D03*
X130890000Y-108458000D03*
X135890000Y-108458000D03*
D12*
X83947000Y-139192000D03*
D13*
X83947000Y-146812000D03*
X104140000Y-146050000D03*
D12*
X104140000Y-153670000D03*
X131064000Y-61849000D03*
D13*
X138684000Y-61849000D03*
D12*
X141097000Y-61849000D03*
D13*
X148717000Y-61849000D03*
X138684000Y-55499000D03*
D12*
X131064000Y-55499000D03*
D13*
X148717000Y-55499000D03*
D12*
X141097000Y-55499000D03*
X131064000Y-58928000D03*
D13*
X138684000Y-58928000D03*
D12*
X141097000Y-58928000D03*
D13*
X148717000Y-58928000D03*
D12*
X122428000Y-98171000D03*
D13*
X122428000Y-90551000D03*
D16*
X93853000Y-148920200D03*
X93853000Y-144957800D03*
X93853000Y-140995400D03*
X93853000Y-137033000D03*
D17*
X95123000Y-148082000D03*
D18*
X92583000Y-148082000D03*
X95123000Y-145542000D03*
X92583000Y-145542000D03*
X95123000Y-143002000D03*
X92583000Y-143002000D03*
X95123000Y-140462000D03*
X92583000Y-140462000D03*
X95123000Y-137922000D03*
X92583000Y-137922000D03*
D19*
X131191000Y-86614000D03*
D20*
X128651000Y-86614000D03*
X131191000Y-89154000D03*
X128651000Y-89154000D03*
X131191000Y-91694000D03*
X128651000Y-91694000D03*
X131191000Y-94234000D03*
X128651000Y-94234000D03*
X131191000Y-96774000D03*
X128651000Y-96774000D03*
X131191000Y-99314000D03*
X128651000Y-99314000D03*
X131191000Y-101854000D03*
X128651000Y-101854000D03*
D19*
X113538000Y-55626000D03*
D20*
X110998000Y-55626000D03*
X108458000Y-55626000D03*
X105918000Y-55626000D03*
X103378000Y-55626000D03*
X100838000Y-55626000D03*
D19*
X105791000Y-102489000D03*
D20*
X103251000Y-102489000D03*
X105791000Y-105029000D03*
X103251000Y-105029000D03*
X105791000Y-107569000D03*
X103251000Y-107569000D03*
X105791000Y-110109000D03*
X103251000Y-110109000D03*
X105791000Y-112649000D03*
X103251000Y-112649000D03*
X105791000Y-115189000D03*
X103251000Y-115189000D03*
X105791000Y-117729000D03*
X103251000Y-117729000D03*
X105791000Y-120269000D03*
X103251000Y-120269000D03*
D21*
X102616000Y-93726000D03*
D22*
X107696000Y-93726000D03*
X105156000Y-93726000D03*
D21*
X89408000Y-81280000D03*
D22*
X94488000Y-81280000D03*
X91948000Y-81280000D03*
X104648000Y-81153000D03*
X107188000Y-81153000D03*
D21*
X102108000Y-81153000D03*
X114808000Y-81153000D03*
D22*
X119888000Y-81153000D03*
X117348000Y-81153000D03*
X92456000Y-93599000D03*
X94996000Y-93599000D03*
D21*
X89916000Y-93599000D03*
D13*
X117856000Y-55499000D03*
D11*
X128016000Y-55499000D03*
D13*
X125222000Y-133858000D03*
D11*
X125222000Y-123698000D03*
X128397000Y-123698000D03*
D13*
X128397000Y-133858000D03*
D11*
X126492000Y-106680000D03*
D13*
X126492000Y-116840000D03*
X131699000Y-78613000D03*
D11*
X131699000Y-68453000D03*
X138176000Y-68453000D03*
D13*
X138176000Y-78613000D03*
X135001000Y-78613000D03*
D11*
X135001000Y-68453000D03*
X119507000Y-98171000D03*
D13*
X119507000Y-88011000D03*
X115316000Y-89154000D03*
D11*
X105156000Y-89154000D03*
X91948000Y-76835000D03*
D13*
X102108000Y-76835000D03*
X114808000Y-76708000D03*
D11*
X104648000Y-76708000D03*
X97409000Y-97409000D03*
D13*
X107569000Y-97409000D03*
D11*
X117348000Y-76708000D03*
D13*
X127508000Y-76708000D03*
D11*
X84328000Y-84963000D03*
D13*
X94488000Y-84963000D03*
X107188000Y-84836000D03*
D11*
X97028000Y-84836000D03*
D13*
X102743000Y-89154000D03*
D11*
X92583000Y-89154000D03*
X109601000Y-84836000D03*
D13*
X119761000Y-84836000D03*
X94869000Y-97409000D03*
D11*
X84709000Y-97409000D03*
D22*
X101854000Y-136144000D03*
X101854000Y-133604000D03*
D21*
X101854000Y-138684000D03*
D23*
X121666000Y-62611000D03*
D24*
X98806000Y-70231000D03*
X119126000Y-62611000D03*
X101346000Y-70231000D03*
X116586000Y-62611000D03*
X103886000Y-70231000D03*
X114046000Y-62611000D03*
X106426000Y-70231000D03*
X111506000Y-62611000D03*
X108966000Y-70231000D03*
X108966000Y-62611000D03*
X111506000Y-70231000D03*
X106426000Y-62611000D03*
X114046000Y-70231000D03*
X103886000Y-62611000D03*
X116586000Y-70231000D03*
X101346000Y-62611000D03*
X119126000Y-70231000D03*
X98806000Y-62611000D03*
X121666000Y-70231000D03*
D15*
X113538000Y-120015000D03*
X121158000Y-102235000D03*
X113538000Y-117475000D03*
X121158000Y-104775000D03*
X113538000Y-114935000D03*
X121158000Y-107315000D03*
X113538000Y-112395000D03*
X121158000Y-109855000D03*
X113538000Y-109855000D03*
X121158000Y-112395000D03*
X113538000Y-107315000D03*
X121158000Y-114935000D03*
X113538000Y-104775000D03*
X121158000Y-117475000D03*
X113538000Y-102235000D03*
D14*
X121158000Y-120015000D03*
X94742000Y-120142000D03*
D15*
X87122000Y-102362000D03*
X94742000Y-117602000D03*
X87122000Y-104902000D03*
X94742000Y-115062000D03*
X87122000Y-107442000D03*
X94742000Y-112522000D03*
X87122000Y-109982000D03*
X94742000Y-109982000D03*
X87122000Y-112522000D03*
X94742000Y-107442000D03*
X87122000Y-115062000D03*
X94742000Y-104902000D03*
X87122000Y-117602000D03*
X94742000Y-102362000D03*
X87122000Y-120142000D03*
D14*
X121031000Y-136906000D03*
D15*
X113411000Y-129286000D03*
X121031000Y-134366000D03*
X113411000Y-131826000D03*
X121031000Y-131826000D03*
X113411000Y-134366000D03*
X121031000Y-129286000D03*
X113411000Y-136906000D03*
D11*
X100410000Y-130683000D03*
X105410000Y-130683000D03*
D13*
X149733000Y-106553000D03*
D11*
X149733000Y-116713000D03*
D13*
X146685000Y-116713000D03*
D11*
X146685000Y-106553000D03*
X140589000Y-106553000D03*
D13*
X140589000Y-116713000D03*
D11*
X101219000Y-143510000D03*
D13*
X101219000Y-153670000D03*
M02*
