G04 #@! TF.FileFunction,Legend,Bot*
%FSLAX46Y46*%
G04 Gerber Fmt 4.6, Leading zero omitted, Abs format (unit mm)*
G04 Created by KiCad (PCBNEW 4.0.5) date Monday, May 22, 2017 'PMt' 05:48:01 PM*
%MOMM*%
%LPD*%
G01*
G04 APERTURE LIST*
%ADD10C,0.100000*%
%ADD11C,0.150000*%
%ADD12C,0.152400*%
G04 APERTURE END LIST*
D10*
D11*
X103759000Y-121158000D02*
X103759000Y-100838000D01*
X108839000Y-103378000D02*
X108839000Y-121158000D01*
X103759000Y-121158000D02*
X108839000Y-121158000D01*
X103759000Y-100838000D02*
X106299000Y-100838000D01*
X107569000Y-100558000D02*
X109119000Y-100558000D01*
X106299000Y-100838000D02*
X106299000Y-103378000D01*
X106299000Y-103378000D02*
X108839000Y-103378000D01*
X109119000Y-100558000D02*
X109119000Y-102108000D01*
X139599000Y-84328000D02*
X139599000Y-82778000D01*
X138049000Y-82778000D02*
X139599000Y-82778000D01*
X139319000Y-85598000D02*
X136779000Y-85598000D01*
X136779000Y-85598000D02*
X136779000Y-83058000D01*
X136779000Y-83058000D02*
X134239000Y-83058000D01*
X134239000Y-83058000D02*
X134239000Y-88138000D01*
X134239000Y-88138000D02*
X139319000Y-88138000D01*
X139319000Y-88138000D02*
X139319000Y-85598000D01*
X139319000Y-90678000D02*
X139319000Y-95758000D01*
X139599000Y-87858000D02*
X138049000Y-87858000D01*
X136779000Y-88138000D02*
X136779000Y-90678000D01*
X136779000Y-90678000D02*
X139319000Y-90678000D01*
X139319000Y-95758000D02*
X134239000Y-95758000D01*
X134239000Y-95758000D02*
X134239000Y-90678000D01*
X139599000Y-87858000D02*
X139599000Y-89408000D01*
X134239000Y-88138000D02*
X136779000Y-88138000D01*
X134239000Y-90678000D02*
X134239000Y-88138000D01*
X139624400Y-97104200D02*
X139624400Y-95554200D01*
X138074400Y-95554200D02*
X139624400Y-95554200D01*
X139344400Y-98374200D02*
X136804400Y-98374200D01*
X136804400Y-98374200D02*
X136804400Y-95834200D01*
X136804400Y-95834200D02*
X134264400Y-95834200D01*
X134264400Y-95834200D02*
X134264400Y-100914200D01*
X134264400Y-100914200D02*
X139344400Y-100914200D01*
X139344400Y-100914200D02*
X139344400Y-98374200D01*
D12*
X107175904Y-99976819D02*
X107175904Y-98960819D01*
X106788857Y-98960819D01*
X106692095Y-99009200D01*
X106643714Y-99057581D01*
X106595333Y-99154343D01*
X106595333Y-99299486D01*
X106643714Y-99396248D01*
X106692095Y-99444629D01*
X106788857Y-99493010D01*
X107175904Y-99493010D01*
X106256666Y-98960819D02*
X105579333Y-98960819D01*
X106014761Y-99976819D01*
X111079038Y-105696657D02*
X111127419Y-105841800D01*
X111127419Y-106083704D01*
X111079038Y-106180466D01*
X111030657Y-106228847D01*
X110933895Y-106277228D01*
X110837133Y-106277228D01*
X110740371Y-106228847D01*
X110691990Y-106180466D01*
X110643610Y-106083704D01*
X110595229Y-105890181D01*
X110546848Y-105793419D01*
X110498467Y-105745038D01*
X110401705Y-105696657D01*
X110304943Y-105696657D01*
X110208181Y-105745038D01*
X110159800Y-105793419D01*
X110111419Y-105890181D01*
X110111419Y-106132085D01*
X110159800Y-106277228D01*
X110111419Y-106615895D02*
X111127419Y-106857800D01*
X110401705Y-107051323D01*
X111127419Y-107244847D01*
X110111419Y-107486752D01*
X111127419Y-107873800D02*
X110111419Y-107873800D01*
X110111419Y-108212467D02*
X110111419Y-108793038D01*
X111127419Y-108502753D02*
X110111419Y-108502753D01*
X111030657Y-109712276D02*
X111079038Y-109663895D01*
X111127419Y-109518752D01*
X111127419Y-109421990D01*
X111079038Y-109276848D01*
X110982276Y-109180086D01*
X110885514Y-109131705D01*
X110691990Y-109083324D01*
X110546848Y-109083324D01*
X110353324Y-109131705D01*
X110256562Y-109180086D01*
X110159800Y-109276848D01*
X110111419Y-109421990D01*
X110111419Y-109518752D01*
X110159800Y-109663895D01*
X110208181Y-109712276D01*
X111127419Y-110147705D02*
X110111419Y-110147705D01*
X110595229Y-110147705D02*
X110595229Y-110728276D01*
X111127419Y-110728276D02*
X110111419Y-110728276D01*
X111224181Y-110970181D02*
X111224181Y-111744276D01*
X111127419Y-111986181D02*
X110111419Y-111986181D01*
X110837133Y-112324847D01*
X110111419Y-112663514D01*
X111127419Y-112663514D01*
X110837133Y-113098943D02*
X110837133Y-113582752D01*
X111127419Y-113002181D02*
X110111419Y-113340848D01*
X111127419Y-113679514D01*
X111127419Y-114018181D02*
X110111419Y-114018181D01*
X111127419Y-114501991D02*
X110111419Y-114501991D01*
X111127419Y-115082562D01*
X110111419Y-115082562D01*
X133454019Y-83019296D02*
X132438019Y-83019296D01*
X132438019Y-83406343D01*
X132486400Y-83503105D01*
X132534781Y-83551486D01*
X132631543Y-83599867D01*
X132776686Y-83599867D01*
X132873448Y-83551486D01*
X132921829Y-83503105D01*
X132970210Y-83406343D01*
X132970210Y-83019296D01*
X132438019Y-84519105D02*
X132438019Y-84035296D01*
X132921829Y-83986915D01*
X132873448Y-84035296D01*
X132825067Y-84132058D01*
X132825067Y-84373962D01*
X132873448Y-84470724D01*
X132921829Y-84519105D01*
X133018590Y-84567486D01*
X133260495Y-84567486D01*
X133357257Y-84519105D01*
X133405638Y-84470724D01*
X133454019Y-84373962D01*
X133454019Y-84132058D01*
X133405638Y-84035296D01*
X133357257Y-83986915D01*
X141104257Y-81598105D02*
X141152638Y-81549724D01*
X141201019Y-81404581D01*
X141201019Y-81307819D01*
X141152638Y-81162677D01*
X141055876Y-81065915D01*
X140959114Y-81017534D01*
X140765590Y-80969153D01*
X140620448Y-80969153D01*
X140426924Y-81017534D01*
X140330162Y-81065915D01*
X140233400Y-81162677D01*
X140185019Y-81307819D01*
X140185019Y-81404581D01*
X140233400Y-81549724D01*
X140281781Y-81598105D01*
X141201019Y-82517343D02*
X141201019Y-82033534D01*
X140185019Y-82033534D01*
X140185019Y-83049534D02*
X140185019Y-83243057D01*
X140233400Y-83339819D01*
X140330162Y-83436581D01*
X140523686Y-83484962D01*
X140862352Y-83484962D01*
X141055876Y-83436581D01*
X141152638Y-83339819D01*
X141201019Y-83243057D01*
X141201019Y-83049534D01*
X141152638Y-82952772D01*
X141055876Y-82856010D01*
X140862352Y-82807629D01*
X140523686Y-82807629D01*
X140330162Y-82856010D01*
X140233400Y-82952772D01*
X140185019Y-83049534D01*
X141104257Y-84500962D02*
X141152638Y-84452581D01*
X141201019Y-84307438D01*
X141201019Y-84210676D01*
X141152638Y-84065534D01*
X141055876Y-83968772D01*
X140959114Y-83920391D01*
X140765590Y-83872010D01*
X140620448Y-83872010D01*
X140426924Y-83920391D01*
X140330162Y-83968772D01*
X140233400Y-84065534D01*
X140185019Y-84210676D01*
X140185019Y-84307438D01*
X140233400Y-84452581D01*
X140281781Y-84500962D01*
X141201019Y-84936391D02*
X140185019Y-84936391D01*
X141201019Y-85516962D02*
X140620448Y-85081534D01*
X140185019Y-85516962D02*
X140765590Y-84936391D01*
X141297781Y-85710486D02*
X141297781Y-86484581D01*
X141201019Y-86726486D02*
X140185019Y-86726486D01*
X140910733Y-87065152D01*
X140185019Y-87403819D01*
X141201019Y-87403819D01*
X140910733Y-87839248D02*
X140910733Y-88323057D01*
X141201019Y-87742486D02*
X140185019Y-88081153D01*
X141201019Y-88419819D01*
X141201019Y-88758486D02*
X140185019Y-88758486D01*
X141201019Y-89242296D02*
X140185019Y-89242296D01*
X141201019Y-89822867D01*
X140185019Y-89822867D01*
X141201019Y-91274296D02*
X140185019Y-91274296D01*
X140185019Y-91661343D01*
X140233400Y-91758105D01*
X140281781Y-91806486D01*
X140378543Y-91854867D01*
X140523686Y-91854867D01*
X140620448Y-91806486D01*
X140668829Y-91758105D01*
X140717210Y-91661343D01*
X140717210Y-91274296D01*
X140185019Y-92193534D02*
X140185019Y-92822486D01*
X140572067Y-92483820D01*
X140572067Y-92628962D01*
X140620448Y-92725724D01*
X140668829Y-92774105D01*
X140765590Y-92822486D01*
X141007495Y-92822486D01*
X141104257Y-92774105D01*
X141152638Y-92725724D01*
X141201019Y-92628962D01*
X141201019Y-92338677D01*
X141152638Y-92241915D01*
X141104257Y-92193534D01*
X133484257Y-88050914D02*
X133532638Y-88002533D01*
X133581019Y-87857390D01*
X133581019Y-87760628D01*
X133532638Y-87615486D01*
X133435876Y-87518724D01*
X133339114Y-87470343D01*
X133145590Y-87421962D01*
X133000448Y-87421962D01*
X132806924Y-87470343D01*
X132710162Y-87518724D01*
X132613400Y-87615486D01*
X132565019Y-87760628D01*
X132565019Y-87857390D01*
X132613400Y-88002533D01*
X132661781Y-88050914D01*
X132565019Y-88679867D02*
X132565019Y-88873390D01*
X132613400Y-88970152D01*
X132710162Y-89066914D01*
X132903686Y-89115295D01*
X133242352Y-89115295D01*
X133435876Y-89066914D01*
X133532638Y-88970152D01*
X133581019Y-88873390D01*
X133581019Y-88679867D01*
X133532638Y-88583105D01*
X133435876Y-88486343D01*
X133242352Y-88437962D01*
X132903686Y-88437962D01*
X132710162Y-88486343D01*
X132613400Y-88583105D01*
X132565019Y-88679867D01*
X132565019Y-89550724D02*
X133387495Y-89550724D01*
X133484257Y-89599105D01*
X133532638Y-89647486D01*
X133581019Y-89744248D01*
X133581019Y-89937771D01*
X133532638Y-90034533D01*
X133484257Y-90082914D01*
X133387495Y-90131295D01*
X132565019Y-90131295D01*
X133581019Y-90615105D02*
X132565019Y-90615105D01*
X133581019Y-91195676D01*
X132565019Y-91195676D01*
X132565019Y-91534343D02*
X132565019Y-92114914D01*
X133581019Y-91824629D02*
X132565019Y-91824629D01*
X133677781Y-92211676D02*
X133677781Y-92985771D01*
X133581019Y-93227676D02*
X132565019Y-93227676D01*
X133290733Y-93566342D01*
X132565019Y-93905009D01*
X133581019Y-93905009D01*
X133290733Y-94340438D02*
X133290733Y-94824247D01*
X133581019Y-94243676D02*
X132565019Y-94582343D01*
X133581019Y-94921009D01*
X133581019Y-95259676D02*
X132565019Y-95259676D01*
X133581019Y-95743486D02*
X132565019Y-95743486D01*
X133581019Y-96324057D01*
X132565019Y-96324057D01*
X133454019Y-98410486D02*
X132438019Y-98410486D01*
X132438019Y-98797533D01*
X132486400Y-98894295D01*
X132534781Y-98942676D01*
X132631543Y-98991057D01*
X132776686Y-98991057D01*
X132873448Y-98942676D01*
X132921829Y-98894295D01*
X132970210Y-98797533D01*
X132970210Y-98410486D01*
X133454019Y-99958676D02*
X133454019Y-99378105D01*
X133454019Y-99668391D02*
X132438019Y-99668391D01*
X132583162Y-99571629D01*
X132679924Y-99474867D01*
X132728305Y-99378105D01*
X132438019Y-100587629D02*
X132438019Y-100684390D01*
X132486400Y-100781152D01*
X132534781Y-100829533D01*
X132631543Y-100877914D01*
X132825067Y-100926295D01*
X133066971Y-100926295D01*
X133260495Y-100877914D01*
X133357257Y-100829533D01*
X133405638Y-100781152D01*
X133454019Y-100684390D01*
X133454019Y-100587629D01*
X133405638Y-100490867D01*
X133357257Y-100442486D01*
X133260495Y-100394105D01*
X133066971Y-100345724D01*
X132825067Y-100345724D01*
X132631543Y-100394105D01*
X132534781Y-100442486D01*
X132486400Y-100490867D01*
X132438019Y-100587629D01*
X140312019Y-94697248D02*
X140312019Y-94890771D01*
X140360400Y-94987533D01*
X140457162Y-95084295D01*
X140650686Y-95132676D01*
X140989352Y-95132676D01*
X141182876Y-95084295D01*
X141279638Y-94987533D01*
X141328019Y-94890771D01*
X141328019Y-94697248D01*
X141279638Y-94600486D01*
X141182876Y-94503724D01*
X140989352Y-94455343D01*
X140650686Y-94455343D01*
X140457162Y-94503724D01*
X140360400Y-94600486D01*
X140312019Y-94697248D01*
X140312019Y-95568105D02*
X141134495Y-95568105D01*
X141231257Y-95616486D01*
X141279638Y-95664867D01*
X141328019Y-95761629D01*
X141328019Y-95955152D01*
X141279638Y-96051914D01*
X141231257Y-96100295D01*
X141134495Y-96148676D01*
X140312019Y-96148676D01*
X140312019Y-96487343D02*
X140312019Y-97067914D01*
X141328019Y-96777629D02*
X140312019Y-96777629D01*
X141279638Y-97358200D02*
X141328019Y-97503343D01*
X141328019Y-97745247D01*
X141279638Y-97842009D01*
X141231257Y-97890390D01*
X141134495Y-97938771D01*
X141037733Y-97938771D01*
X140940971Y-97890390D01*
X140892590Y-97842009D01*
X140844210Y-97745247D01*
X140795829Y-97551724D01*
X140747448Y-97454962D01*
X140699067Y-97406581D01*
X140602305Y-97358200D01*
X140505543Y-97358200D01*
X140408781Y-97406581D01*
X140360400Y-97454962D01*
X140312019Y-97551724D01*
X140312019Y-97793628D01*
X140360400Y-97938771D01*
X141424781Y-98132295D02*
X141424781Y-98906390D01*
X141328019Y-99148295D02*
X140312019Y-99148295D01*
X141037733Y-99486961D01*
X140312019Y-99825628D01*
X141328019Y-99825628D01*
X141037733Y-100261057D02*
X141037733Y-100744866D01*
X141328019Y-100164295D02*
X140312019Y-100502962D01*
X141328019Y-100841628D01*
X141328019Y-101180295D02*
X140312019Y-101180295D01*
X141328019Y-101664105D02*
X140312019Y-101664105D01*
X141328019Y-102244676D01*
X140312019Y-102244676D01*
M02*
