G04 #@! TF.GenerationSoftware,KiCad,Pcbnew,(5.1.0-0)*
G04 #@! TF.CreationDate,2019-10-10T15:59:00-05:00*
G04 #@! TF.ProjectId,trigger-seq,74726967-6765-4722-9d73-65712e6b6963,rev?*
G04 #@! TF.SameCoordinates,Original*
G04 #@! TF.FileFunction,Legend,Bot*
G04 #@! TF.FilePolarity,Positive*
%FSLAX46Y46*%
G04 Gerber Fmt 4.6, Leading zero omitted, Abs format (unit mm)*
G04 Created by KiCad (PCBNEW (5.1.0-0)) date 2019-10-10 15:59:00*
%MOMM*%
%LPD*%
G04 APERTURE LIST*
%ADD10C,0.120000*%
%ADD11C,0.150000*%
%ADD12C,2.000000*%
%ADD13R,2.000000X2.000000*%
%ADD14O,2.000000X2.000000*%
%ADD15R,2.800000X2.000000*%
%ADD16O,2.800000X2.000000*%
%ADD17C,2.800000*%
%ADD18R,2.127200X2.127200*%
%ADD19O,2.127200X2.127200*%
%ADD20R,2.100000X2.100000*%
%ADD21O,2.100000X2.100000*%
%ADD22R,1.900000X1.900000*%
%ADD23C,1.900000*%
%ADD24R,2.000000X2.800000*%
%ADD25O,2.000000X2.800000*%
G04 APERTURE END LIST*
D10*
X132521000Y-103184000D02*
X127321000Y-103184000D01*
X132521000Y-87884000D02*
X132521000Y-103184000D01*
X127321000Y-85284000D02*
X127321000Y-103184000D01*
X132521000Y-87884000D02*
X129921000Y-87884000D01*
X129921000Y-87884000D02*
X129921000Y-85284000D01*
X129921000Y-85284000D02*
X127321000Y-85284000D01*
X132521000Y-86614000D02*
X132521000Y-85284000D01*
X132521000Y-85284000D02*
X131191000Y-85284000D01*
X107121000Y-121599000D02*
X101921000Y-121599000D01*
X107121000Y-103759000D02*
X107121000Y-121599000D01*
X101921000Y-101159000D02*
X101921000Y-121599000D01*
X107121000Y-103759000D02*
X104521000Y-103759000D01*
X104521000Y-103759000D02*
X104521000Y-101159000D01*
X104521000Y-101159000D02*
X101921000Y-101159000D01*
X107121000Y-102489000D02*
X107121000Y-101159000D01*
X107121000Y-101159000D02*
X105791000Y-101159000D01*
D11*
X130659095Y-84736380D02*
X130659095Y-83736380D01*
X130278142Y-83736380D01*
X130182904Y-83784000D01*
X130135285Y-83831619D01*
X130087666Y-83926857D01*
X130087666Y-84069714D01*
X130135285Y-84164952D01*
X130182904Y-84212571D01*
X130278142Y-84260190D01*
X130659095Y-84260190D01*
X129230523Y-84069714D02*
X129230523Y-84736380D01*
X129468619Y-83688761D02*
X129706714Y-84403047D01*
X129087666Y-84403047D01*
X133310380Y-90710238D02*
X134024666Y-90710238D01*
X134167523Y-90662619D01*
X134262761Y-90567380D01*
X134310380Y-90424523D01*
X134310380Y-90329285D01*
X134024666Y-91138809D02*
X134024666Y-91615000D01*
X134310380Y-91043571D02*
X133310380Y-91376904D01*
X134310380Y-91710238D01*
X134215142Y-92615000D02*
X134262761Y-92567380D01*
X134310380Y-92424523D01*
X134310380Y-92329285D01*
X134262761Y-92186428D01*
X134167523Y-92091190D01*
X134072285Y-92043571D01*
X133881809Y-91995952D01*
X133738952Y-91995952D01*
X133548476Y-92043571D01*
X133453238Y-92091190D01*
X133358000Y-92186428D01*
X133310380Y-92329285D01*
X133310380Y-92424523D01*
X133358000Y-92567380D01*
X133405619Y-92615000D01*
X134310380Y-93043571D02*
X133310380Y-93043571D01*
X134310380Y-93615000D02*
X133738952Y-93186428D01*
X133310380Y-93615000D02*
X133881809Y-93043571D01*
X134262761Y-93995952D02*
X134310380Y-94138809D01*
X134310380Y-94376904D01*
X134262761Y-94472142D01*
X134215142Y-94519761D01*
X134119904Y-94567380D01*
X134024666Y-94567380D01*
X133929428Y-94519761D01*
X133881809Y-94472142D01*
X133834190Y-94376904D01*
X133786571Y-94186428D01*
X133738952Y-94091190D01*
X133691333Y-94043571D01*
X133596095Y-93995952D01*
X133500857Y-93995952D01*
X133405619Y-94043571D01*
X133358000Y-94091190D01*
X133310380Y-94186428D01*
X133310380Y-94424523D01*
X133358000Y-94567380D01*
X134405619Y-94757857D02*
X134405619Y-95519761D01*
X134310380Y-95757857D02*
X133310380Y-95757857D01*
X134024666Y-96091190D01*
X133310380Y-96424523D01*
X134310380Y-96424523D01*
X134024666Y-96853095D02*
X134024666Y-97329285D01*
X134310380Y-96757857D02*
X133310380Y-97091190D01*
X134310380Y-97424523D01*
X134310380Y-97757857D02*
X133310380Y-97757857D01*
X134310380Y-98234047D02*
X133310380Y-98234047D01*
X134310380Y-98805476D01*
X133310380Y-98805476D01*
X105259095Y-100611380D02*
X105259095Y-99611380D01*
X104878142Y-99611380D01*
X104782904Y-99659000D01*
X104735285Y-99706619D01*
X104687666Y-99801857D01*
X104687666Y-99944714D01*
X104735285Y-100039952D01*
X104782904Y-100087571D01*
X104878142Y-100135190D01*
X105259095Y-100135190D01*
X104354333Y-99611380D02*
X103687666Y-99611380D01*
X104116238Y-100611380D01*
X109243761Y-106609142D02*
X109291380Y-106752000D01*
X109291380Y-106990095D01*
X109243761Y-107085333D01*
X109196142Y-107132952D01*
X109100904Y-107180571D01*
X109005666Y-107180571D01*
X108910428Y-107132952D01*
X108862809Y-107085333D01*
X108815190Y-106990095D01*
X108767571Y-106799619D01*
X108719952Y-106704380D01*
X108672333Y-106656761D01*
X108577095Y-106609142D01*
X108481857Y-106609142D01*
X108386619Y-106656761D01*
X108339000Y-106704380D01*
X108291380Y-106799619D01*
X108291380Y-107037714D01*
X108339000Y-107180571D01*
X108291380Y-107513904D02*
X109291380Y-107752000D01*
X108577095Y-107942476D01*
X109291380Y-108132952D01*
X108291380Y-108371047D01*
X109291380Y-108752000D02*
X108291380Y-108752000D01*
X108291380Y-109085333D02*
X108291380Y-109656761D01*
X109291380Y-109371047D02*
X108291380Y-109371047D01*
X109196142Y-110561523D02*
X109243761Y-110513904D01*
X109291380Y-110371047D01*
X109291380Y-110275809D01*
X109243761Y-110132952D01*
X109148523Y-110037714D01*
X109053285Y-109990095D01*
X108862809Y-109942476D01*
X108719952Y-109942476D01*
X108529476Y-109990095D01*
X108434238Y-110037714D01*
X108339000Y-110132952D01*
X108291380Y-110275809D01*
X108291380Y-110371047D01*
X108339000Y-110513904D01*
X108386619Y-110561523D01*
X109291380Y-110990095D02*
X108291380Y-110990095D01*
X108767571Y-110990095D02*
X108767571Y-111561523D01*
X109291380Y-111561523D02*
X108291380Y-111561523D01*
X109386619Y-111799619D02*
X109386619Y-112561523D01*
X109291380Y-112799619D02*
X108291380Y-112799619D01*
X109005666Y-113132952D01*
X108291380Y-113466285D01*
X109291380Y-113466285D01*
X109005666Y-113894857D02*
X109005666Y-114371047D01*
X109291380Y-113799619D02*
X108291380Y-114132952D01*
X109291380Y-114466285D01*
X109291380Y-114799619D02*
X108291380Y-114799619D01*
X109291380Y-115275809D02*
X108291380Y-115275809D01*
X109291380Y-115847238D01*
X108291380Y-115847238D01*
%LPC*%
D12*
X83860000Y-132715000D03*
D13*
X86360000Y-132715000D03*
D14*
X87503000Y-146939000D03*
D12*
X87503000Y-136779000D03*
D15*
X129794000Y-111760000D03*
D16*
X137414000Y-119380000D03*
X129794000Y-114300000D03*
X137414000Y-116840000D03*
X129794000Y-116840000D03*
X137414000Y-114300000D03*
X129794000Y-119380000D03*
X137414000Y-111760000D03*
D12*
X143637000Y-106553000D03*
D14*
X143637000Y-116713000D03*
D13*
X108712000Y-153416000D03*
D12*
X108712000Y-150916000D03*
X119634000Y-140081000D03*
X114634000Y-140081000D03*
X114761000Y-126238000D03*
X119761000Y-126238000D03*
X124841000Y-63627000D03*
X124841000Y-68627000D03*
X106045000Y-143303000D03*
X106045000Y-138303000D03*
D13*
X109093000Y-146431000D03*
D12*
X111593000Y-146431000D03*
X119808000Y-123190000D03*
X114808000Y-123190000D03*
X88218000Y-123317000D03*
X93218000Y-123317000D03*
X130890000Y-108458000D03*
X135890000Y-108458000D03*
D13*
X83947000Y-139192000D03*
D14*
X83947000Y-146812000D03*
X104140000Y-146050000D03*
D13*
X104140000Y-153670000D03*
X131064000Y-61849000D03*
D14*
X138684000Y-61849000D03*
D13*
X141097000Y-61849000D03*
D14*
X148717000Y-61849000D03*
X138684000Y-55499000D03*
D13*
X131064000Y-55499000D03*
D14*
X148717000Y-55499000D03*
D13*
X141097000Y-55499000D03*
X131064000Y-58928000D03*
D14*
X138684000Y-58928000D03*
D13*
X141097000Y-58928000D03*
D14*
X148717000Y-58928000D03*
D13*
X122428000Y-98171000D03*
D14*
X122428000Y-90551000D03*
D17*
X93853000Y-148920200D03*
X93853000Y-144957800D03*
X93853000Y-140995400D03*
X93853000Y-137033000D03*
D18*
X95123000Y-148082000D03*
D19*
X92583000Y-148082000D03*
X95123000Y-145542000D03*
X92583000Y-145542000D03*
X95123000Y-143002000D03*
X92583000Y-143002000D03*
X95123000Y-140462000D03*
X92583000Y-140462000D03*
X95123000Y-137922000D03*
X92583000Y-137922000D03*
D20*
X131191000Y-86614000D03*
D21*
X128651000Y-86614000D03*
X131191000Y-89154000D03*
X128651000Y-89154000D03*
X131191000Y-91694000D03*
X128651000Y-91694000D03*
X131191000Y-94234000D03*
X128651000Y-94234000D03*
X131191000Y-96774000D03*
X128651000Y-96774000D03*
X131191000Y-99314000D03*
X128651000Y-99314000D03*
X131191000Y-101854000D03*
X128651000Y-101854000D03*
D20*
X113538000Y-55626000D03*
D21*
X110998000Y-55626000D03*
X108458000Y-55626000D03*
X105918000Y-55626000D03*
X103378000Y-55626000D03*
X100838000Y-55626000D03*
D20*
X105791000Y-102489000D03*
D21*
X103251000Y-102489000D03*
X105791000Y-105029000D03*
X103251000Y-105029000D03*
X105791000Y-107569000D03*
X103251000Y-107569000D03*
X105791000Y-110109000D03*
X103251000Y-110109000D03*
X105791000Y-112649000D03*
X103251000Y-112649000D03*
X105791000Y-115189000D03*
X103251000Y-115189000D03*
X105791000Y-117729000D03*
X103251000Y-117729000D03*
X105791000Y-120269000D03*
X103251000Y-120269000D03*
D22*
X102616000Y-93726000D03*
D23*
X107696000Y-93726000D03*
X105156000Y-93726000D03*
D22*
X89408000Y-81280000D03*
D23*
X94488000Y-81280000D03*
X91948000Y-81280000D03*
X104648000Y-81153000D03*
X107188000Y-81153000D03*
D22*
X102108000Y-81153000D03*
X114808000Y-81153000D03*
D23*
X119888000Y-81153000D03*
X117348000Y-81153000D03*
X92456000Y-93599000D03*
X94996000Y-93599000D03*
D22*
X89916000Y-93599000D03*
D14*
X117856000Y-55499000D03*
D12*
X128016000Y-55499000D03*
D14*
X125222000Y-133858000D03*
D12*
X125222000Y-123698000D03*
X128397000Y-123698000D03*
D14*
X128397000Y-133858000D03*
D12*
X126492000Y-106680000D03*
D14*
X126492000Y-116840000D03*
X131699000Y-78613000D03*
D12*
X131699000Y-68453000D03*
X138176000Y-68453000D03*
D14*
X138176000Y-78613000D03*
X135001000Y-78613000D03*
D12*
X135001000Y-68453000D03*
X119507000Y-98171000D03*
D14*
X119507000Y-88011000D03*
X115316000Y-89154000D03*
D12*
X105156000Y-89154000D03*
X91948000Y-76835000D03*
D14*
X102108000Y-76835000D03*
X114808000Y-76708000D03*
D12*
X104648000Y-76708000D03*
X97409000Y-97409000D03*
D14*
X107569000Y-97409000D03*
D12*
X117348000Y-76708000D03*
D14*
X127508000Y-76708000D03*
D12*
X84328000Y-84963000D03*
D14*
X94488000Y-84963000D03*
X107188000Y-84836000D03*
D12*
X97028000Y-84836000D03*
D14*
X102743000Y-89154000D03*
D12*
X92583000Y-89154000D03*
X109601000Y-84836000D03*
D14*
X119761000Y-84836000D03*
X94869000Y-97409000D03*
D12*
X84709000Y-97409000D03*
D23*
X101854000Y-136144000D03*
X101854000Y-133604000D03*
D22*
X101854000Y-138684000D03*
D24*
X121666000Y-62611000D03*
D25*
X98806000Y-70231000D03*
X119126000Y-62611000D03*
X101346000Y-70231000D03*
X116586000Y-62611000D03*
X103886000Y-70231000D03*
X114046000Y-62611000D03*
X106426000Y-70231000D03*
X111506000Y-62611000D03*
X108966000Y-70231000D03*
X108966000Y-62611000D03*
X111506000Y-70231000D03*
X106426000Y-62611000D03*
X114046000Y-70231000D03*
X103886000Y-62611000D03*
X116586000Y-70231000D03*
X101346000Y-62611000D03*
X119126000Y-70231000D03*
X98806000Y-62611000D03*
X121666000Y-70231000D03*
D16*
X113538000Y-120015000D03*
X121158000Y-102235000D03*
X113538000Y-117475000D03*
X121158000Y-104775000D03*
X113538000Y-114935000D03*
X121158000Y-107315000D03*
X113538000Y-112395000D03*
X121158000Y-109855000D03*
X113538000Y-109855000D03*
X121158000Y-112395000D03*
X113538000Y-107315000D03*
X121158000Y-114935000D03*
X113538000Y-104775000D03*
X121158000Y-117475000D03*
X113538000Y-102235000D03*
D15*
X121158000Y-120015000D03*
X94742000Y-120142000D03*
D16*
X87122000Y-102362000D03*
X94742000Y-117602000D03*
X87122000Y-104902000D03*
X94742000Y-115062000D03*
X87122000Y-107442000D03*
X94742000Y-112522000D03*
X87122000Y-109982000D03*
X94742000Y-109982000D03*
X87122000Y-112522000D03*
X94742000Y-107442000D03*
X87122000Y-115062000D03*
X94742000Y-104902000D03*
X87122000Y-117602000D03*
X94742000Y-102362000D03*
X87122000Y-120142000D03*
D15*
X121031000Y-136906000D03*
D16*
X113411000Y-129286000D03*
X121031000Y-134366000D03*
X113411000Y-131826000D03*
X121031000Y-131826000D03*
X113411000Y-134366000D03*
X121031000Y-129286000D03*
X113411000Y-136906000D03*
D12*
X100410000Y-130683000D03*
X105410000Y-130683000D03*
D14*
X149733000Y-106553000D03*
D12*
X149733000Y-116713000D03*
D14*
X146685000Y-116713000D03*
D12*
X146685000Y-106553000D03*
X140589000Y-106553000D03*
D14*
X140589000Y-116713000D03*
D12*
X101219000Y-143510000D03*
D14*
X101219000Y-153670000D03*
M02*
