M48
; DRILL file {KiCad (5.1.0-0)} date Thursday, October 10, 2019 at 03:59:03 PM
; FORMAT={-:-/ absolute / inch / decimal}
; #@! TF.CreationDate,2019-10-10T15:59:03-05:00
; #@! TF.GenerationSoftware,Kicad,Pcbnew,(5.1.0-0)
; #@! TF.FileFunction,Plated,1,2,PTH
FMAT,2
INCH
T1C0.0157
T2C0.0315
T3C0.0394
T4C0.0400
T5C0.0630
T6C0.1181
%
G90
G05
T1
X4.575Y-3.81
X4.695Y-3.675
X4.8746Y-3.95
T2
X3.3016Y-5.225
X3.4Y-5.225
X5.16Y-2.32
X5.46Y-2.32
X4.98Y-4.2
X4.98Y-4.6
X3.32Y-3.345
X3.72Y-3.345
X4.1Y-5.75
X4.1Y-6.05
X3.52Y-3.2
X3.62Y-3.2
X3.72Y-3.2
X4.04Y-3.69
X4.14Y-3.69
X4.24Y-3.69
X3.43Y-4.03
X3.43Y-4.13
X3.43Y-4.23
X3.43Y-4.33
X3.43Y-4.43
X3.43Y-4.53
X3.43Y-4.63
X3.43Y-4.73
X3.73Y-4.03
X3.73Y-4.13
X3.73Y-4.23
X3.73Y-4.33
X3.73Y-4.43
X3.73Y-4.53
X3.73Y-4.63
X3.73Y-4.73
X5.555Y-2.32
X5.855Y-2.32
X5.1531Y-4.27
X5.35Y-4.27
X4.64Y-2.185
X5.04Y-2.185
X4.28Y-5.9416
X3.335Y-3.835
X3.735Y-3.835
X4.28Y-6.04
X4.5181Y-4.97
X4.715Y-4.97
X5.185Y-2.695
X5.185Y-3.095
X5.775Y-4.195
X5.775Y-4.595
X3.305Y-5.48
X3.305Y-5.78
X3.82Y-3.34
X4.22Y-3.34
X4.175Y-5.445
X4.175Y-5.6419
X3.4731Y-4.855
X3.67Y-4.855
X5.895Y-4.195
X5.895Y-4.595
X4.14Y-3.51
X4.54Y-3.51
X5.655Y-4.195
X5.655Y-4.595
X4.47Y-4.025
X4.47Y-4.125
X3.985Y-5.65
X4.47Y-4.225
X4.47Y-4.325
X4.47Y-4.425
X4.47Y-4.525
X4.47Y-4.625
X4.47Y-4.725
X4.77Y-4.025
X4.77Y-4.125
X4.77Y-4.225
X4.77Y-4.325
X4.77Y-4.425
X4.77Y-4.525
X4.77Y-4.625
X4.77Y-4.725
X4.295Y-5.765
X4.3934Y-5.765
X4.915Y-2.505
X4.915Y-2.7019
X4.5131Y-5.515
X4.71Y-5.515
X3.985Y-6.05
X5.555Y-2.185
X5.855Y-2.185
X3.54Y-3.685
X3.64Y-3.685
X3.74Y-3.685
X4.93Y-4.87
X4.93Y-5.27
X5.315Y-2.695
X5.315Y-3.095
X4.62Y-3.02
X4.52Y-4.85
X4.7169Y-4.85
X5.11Y-4.4
X5.11Y-4.5
X5.11Y-4.6
X5.11Y-4.7
X5.41Y-4.4
X5.41Y-4.5
X5.41Y-4.6
X5.41Y-4.7
X5.44Y-2.695
X5.44Y-3.095
X3.62Y-3.025
X4.02Y-3.025
X5.535Y-4.195
X5.535Y-4.595
X5.02Y-3.02
X5.555Y-2.435
X5.855Y-2.435
X4.12Y-3.02
X4.52Y-3.02
X4.12Y-3.195
X4.22Y-3.195
X3.645Y-3.51
X4.045Y-3.51
X5.16Y-2.185
X5.46Y-2.185
X5.16Y-2.435
X5.46Y-2.435
X3.89Y-2.465
X3.89Y-2.765
X5.055Y-4.87
X5.055Y-5.27
X3.9531Y-5.145
X4.15Y-5.145
X4.315Y-3.34
X4.715Y-3.34
X4.705Y-3.465
X4.705Y-3.865
X3.99Y-2.465
X3.99Y-2.765
X4.09Y-2.465
X4.09Y-2.765
X4.19Y-2.465
X4.19Y-2.765
X4.29Y-2.465
X4.29Y-2.765
X4.39Y-2.465
X4.39Y-2.765
X4.49Y-2.465
X4.49Y-2.765
X4.59Y-2.465
X4.59Y-2.765
X4.69Y-2.465
X4.69Y-2.765
X4.79Y-2.465
X4.02Y-3.195
X4.79Y-2.765
X4.01Y-5.26
X4.01Y-5.36
X4.52Y-3.195
X4.62Y-3.195
X4.72Y-3.195
X4.01Y-5.46
X3.445Y-5.385
X3.445Y-5.785
X3.835Y-3.835
X4.235Y-3.835
X4.82Y-3.565
X4.82Y-3.865
X4.465Y-5.09
X4.465Y-5.19
X4.465Y-5.29
X4.465Y-5.39
X4.765Y-5.09
X4.765Y-5.19
X4.765Y-5.29
X4.765Y-5.39
T3
X4.065Y-4.035
X4.065Y-4.135
X4.065Y-4.235
X4.065Y-4.335
X4.065Y-4.435
X4.065Y-4.535
X4.065Y-4.635
X4.065Y-4.735
X4.165Y-4.035
X4.165Y-4.135
X4.165Y-4.235
X4.165Y-4.335
X4.165Y-4.435
X4.165Y-4.535
X4.165Y-4.635
X4.165Y-4.735
X5.065Y-3.41
X5.065Y-3.51
X5.065Y-3.61
X5.065Y-3.71
X5.065Y-3.81
X5.065Y-3.91
X5.065Y-4.01
X5.165Y-3.41
X5.165Y-3.51
X5.165Y-3.61
X5.165Y-3.71
X5.165Y-3.81
X5.165Y-3.91
X5.165Y-4.01
X3.97Y-2.19
X4.07Y-2.19
X4.17Y-2.19
X4.27Y-2.19
X4.37Y-2.19
X4.47Y-2.19
T4
X3.645Y-5.43
X3.645Y-5.53
X3.645Y-5.63
X3.645Y-5.73
X3.645Y-5.83
X3.745Y-5.43
X3.745Y-5.53
X3.745Y-5.63
X3.745Y-5.73
X3.745Y-5.83
T5
X3.695Y-5.395
X3.695Y-5.551
X3.695Y-5.707
X3.695Y-5.863
T6
X5.765Y-5.9705
X3.385Y-2.19
X3.385Y-5.97
X5.765Y-2.85
T0
M30
