M48
;DRILL file {KiCad 4.0.5} date Monday, May 22, 2017 'PMt' 05:48:04 PM
;FORMAT={-:-/ absolute / inch / decimal}
FMAT,2
INCH,TZ
T1C0.012
T2C0.016
T3C0.031
T4C0.035
T5C0.039
T6C0.039
T7C0.040
T8C0.050
T9C0.080
T10C0.118
%
G90
G05
M72
T1
X3.8335Y-3.418
X5.101Y-2.9755
X5.551Y-3.653
T2
X4.661Y-3.883
X4.901Y-3.308
X4.971Y-3.413
X5.031Y-3.473
X5.156Y-3.5655
X5.506Y-4.228
X5.706Y-3.888
X6.121Y-4.378
T3
X3.366Y-2.563
X3.366Y-2.663
X3.366Y-2.763
X3.436Y-3.683
X3.436Y-3.783
X3.436Y-3.883
X3.436Y-3.983
X3.436Y-4.083
X3.436Y-4.183
X3.436Y-4.283
X3.436Y-4.383
X3.486Y-4.533
X3.621Y-2.603
X3.621Y-2.703
X3.621Y-2.803
X3.621Y-2.903
X3.621Y-3.003
X3.621Y-3.103
X3.621Y-3.203
X3.621Y-3.303
X3.655Y-4.7325
X3.6741Y-2.348
X3.6741Y-2.453
X3.6766Y-5.7525
X3.6829Y-4.533
X3.736Y-3.683
X3.736Y-3.783
X3.736Y-3.883
X3.736Y-3.983
X3.736Y-4.083
X3.736Y-4.183
X3.736Y-4.283
X3.736Y-4.383
X3.7534Y-4.7325
X3.775Y-5.7525
X3.871Y-2.348
X3.871Y-2.453
X3.921Y-2.603
X3.921Y-2.703
X3.921Y-2.803
X3.921Y-2.903
X3.921Y-3.003
X3.921Y-3.103
X3.921Y-3.203
X3.921Y-3.303
X4.371Y-2.283
X4.371Y-2.383
X4.371Y-2.483
X4.371Y-2.568
X4.371Y-2.668
X4.371Y-2.768
X4.376Y-2.888
X4.376Y-2.988
X4.376Y-3.088
X4.376Y-3.188
X4.376Y-3.288
X4.376Y-3.388
X4.381Y-3.528
X4.381Y-3.628
X4.381Y-3.728
X4.535Y-4.225
X4.535Y-4.4219
X4.695Y-4.185
X4.695Y-4.485
X4.795Y-4.185
X4.795Y-4.485
X4.895Y-4.185
X4.895Y-4.485
X4.995Y-4.185
X4.995Y-4.485
X5.095Y-4.185
X5.095Y-4.485
X5.141Y-2.453
X5.141Y-2.553
X5.141Y-2.653
X5.141Y-2.753
X5.186Y-2.898
X5.1941Y-2.303
X5.195Y-4.185
X5.195Y-4.485
X5.295Y-4.185
X5.295Y-4.485
X5.3829Y-2.898
X5.391Y-2.303
X5.395Y-4.185
X5.395Y-4.485
X5.441Y-2.453
X5.441Y-2.553
X5.441Y-2.653
X5.441Y-2.753
X5.636Y-4.548
X5.67Y-2.46
X5.67Y-2.56
X5.67Y-2.66
X5.67Y-2.76
X5.706Y-3.253
X5.706Y-3.353
X5.706Y-3.453
X5.706Y-3.553
X5.7241Y-2.313
X5.7241Y-2.908
X5.736Y-4.548
X5.761Y-3.108
X5.836Y-4.548
X5.921Y-2.313
X5.921Y-2.908
X5.9579Y-3.108
X5.97Y-2.46
X5.97Y-2.56
X5.97Y-2.66
X5.97Y-2.76
X5.971Y-3.898
X5.971Y-3.998
X5.971Y-4.098
X5.971Y-4.198
X5.971Y-4.298
X5.971Y-4.398
X5.971Y-4.498
X5.976Y-4.808
X5.976Y-4.908
X5.976Y-5.008
X5.976Y-5.108
X6.006Y-3.253
X6.006Y-3.353
X6.006Y-3.453
X6.006Y-3.553
X6.0241Y-3.753
X6.026Y-4.648
X6.026Y-5.258
X6.2Y-3.13
X6.2Y-3.2284
X6.221Y-3.753
X6.2229Y-4.648
X6.2229Y-5.258
X6.271Y-3.898
X6.271Y-3.998
X6.271Y-4.098
X6.271Y-4.198
X6.271Y-4.298
X6.271Y-4.398
X6.271Y-4.498
X6.276Y-4.808
X6.276Y-4.908
X6.276Y-5.008
X6.276Y-5.108
T4
X3.285Y-5.7525
X3.305Y-4.7325
X3.4819Y-5.7525
X3.5019Y-4.7325
T5
X3.345Y-5.0425
X3.345Y-5.1425
X3.345Y-5.2425
X3.345Y-5.3425
X3.345Y-5.4425
X3.445Y-5.0425
X3.445Y-5.1425
X3.445Y-5.2425
X3.445Y-5.3425
X3.445Y-5.4425
T6
X3.316Y-2.933
X3.316Y-3.333
X3.441Y-2.933
X3.441Y-3.333
X3.581Y-2.228
X3.6551Y-5.0725
X3.7851Y-5.0525
X3.981Y-2.228
X4.141Y-2.933
X4.141Y-3.333
X4.146Y-2.338
X4.146Y-2.738
X4.506Y-2.388
X4.506Y-2.503
X4.506Y-2.623
X4.506Y-3.003
X4.506Y-3.118
X4.506Y-3.233
X4.516Y-3.533
X4.516Y-3.653
X4.906Y-2.388
X4.906Y-2.503
X4.906Y-2.623
X4.906Y-3.003
X4.906Y-3.118
X4.906Y-3.233
X4.916Y-3.533
X4.916Y-3.653
X5.676Y-4.008
X5.676Y-4.408
X5.796Y-4.008
X5.796Y-4.408
X6.131Y-2.563
X6.131Y-2.963
X6.241Y-2.563
X6.241Y-2.963
T7
X4.135Y-4.02
X4.135Y-4.12
X4.135Y-4.22
X4.135Y-4.32
X4.135Y-4.42
X4.135Y-4.52
X4.135Y-4.62
X4.135Y-4.72
X4.235Y-4.02
X4.235Y-4.12
X4.235Y-4.22
X4.235Y-4.32
X4.235Y-4.42
X4.235Y-4.52
X4.235Y-4.62
X4.235Y-4.72
X5.335Y-3.32
X5.335Y-3.42
X5.335Y-3.52
X5.335Y-3.62
X5.335Y-3.72
X5.336Y-3.823
X5.336Y-3.923
X5.435Y-3.32
X5.435Y-3.42
X5.435Y-3.52
X5.435Y-3.62
X5.435Y-3.72
X5.436Y-3.823
X5.436Y-3.923
T8
X3.6551Y-5.4725
X3.7851Y-5.4525
T9
X3.394Y-5.0115
X3.394Y-5.1675
X3.394Y-5.3235
X3.394Y-5.4795
T10
X3.356Y-2.1905
X3.356Y-5.9705
X6.196Y-2.1905
X6.196Y-5.9705
T0
M30
