G04 #@! TF.FileFunction,Copper,L1,Top,Signal*
%FSLAX46Y46*%
G04 Gerber Fmt 4.6, Leading zero omitted, Abs format (unit mm)*
G04 Created by KiCad (PCBNEW 4.0.5) date Monday, May 22, 2017 'PMt' 05:48:01 PM*
%MOMM*%
%LPD*%
G01*
G04 APERTURE LIST*
%ADD10C,0.100000*%
%ADD11C,0.600000*%
%ADD12R,1.600000X2.300000*%
%ADD13O,1.600000X2.300000*%
%ADD14R,2.300000X1.600000*%
%ADD15O,2.300000X1.600000*%
%ADD16R,1.727200X1.727200*%
%ADD17O,1.727200X1.727200*%
%ADD18R,1.300000X1.300000*%
%ADD19C,1.300000*%
%ADD20C,1.998980*%
%ADD21R,1.998980X1.998980*%
%ADD22R,1.400000X1.400000*%
%ADD23C,1.400000*%
%ADD24C,1.506220*%
%ADD25C,3.175000*%
%ADD26C,1.524000*%
%ADD27C,0.406400*%
%ADD28C,0.250000*%
%ADD29C,0.254000*%
G04 APERTURE END LIST*
D10*
D11*
X129565400Y-75577700D03*
X97370900Y-86817200D03*
D12*
X119253000Y-113919000D03*
D13*
X121793000Y-113919000D03*
X124333000Y-113919000D03*
X126873000Y-113919000D03*
X129413000Y-113919000D03*
X131953000Y-113919000D03*
X134493000Y-113919000D03*
X137033000Y-113919000D03*
X137033000Y-106299000D03*
X134493000Y-106299000D03*
X131953000Y-106299000D03*
X129413000Y-106299000D03*
X126873000Y-106299000D03*
X124333000Y-106299000D03*
X121793000Y-106299000D03*
X119253000Y-106299000D03*
D14*
X91973400Y-66116200D03*
D15*
X91973400Y-68656200D03*
X91973400Y-71196200D03*
X91973400Y-73736200D03*
X91973400Y-76276200D03*
X91973400Y-78816200D03*
X91973400Y-81356200D03*
X91973400Y-83896200D03*
X99593400Y-83896200D03*
X99593400Y-81356200D03*
X99593400Y-78816200D03*
X99593400Y-76276200D03*
X99593400Y-73736200D03*
X99593400Y-71196200D03*
X99593400Y-68656200D03*
X99593400Y-66116200D03*
D16*
X107569000Y-102108000D03*
D17*
X105029000Y-102108000D03*
X107569000Y-104648000D03*
X105029000Y-104648000D03*
X107569000Y-107188000D03*
X105029000Y-107188000D03*
X107569000Y-109728000D03*
X105029000Y-109728000D03*
X107569000Y-112268000D03*
X105029000Y-112268000D03*
X107569000Y-114808000D03*
X105029000Y-114808000D03*
X107569000Y-117348000D03*
X105029000Y-117348000D03*
X107569000Y-119888000D03*
X105029000Y-119888000D03*
D18*
X92837000Y-120205500D03*
D19*
X95337000Y-120205500D03*
D18*
X95885000Y-146113500D03*
D19*
X93385000Y-146113500D03*
D18*
X150393400Y-73863200D03*
D19*
X145393400Y-73863200D03*
D18*
X98323400Y-62306200D03*
D19*
X93323400Y-62306200D03*
D18*
X115189000Y-107315000D03*
D19*
X115189000Y-112315000D03*
D18*
X88544400Y-115138200D03*
D19*
X93544400Y-115138200D03*
D18*
X150393400Y-58750200D03*
D19*
X145393400Y-58750200D03*
D18*
X157480000Y-79502000D03*
D19*
X157480000Y-82002000D03*
D18*
X136931400Y-58496200D03*
D19*
X131931400Y-58496200D03*
D18*
X131724400Y-73609200D03*
D19*
X136724400Y-73609200D03*
D18*
X153060400Y-133553200D03*
D19*
X158060400Y-133553200D03*
D18*
X146329400Y-78943200D03*
D19*
X151329400Y-78943200D03*
D18*
X98323400Y-59639200D03*
D19*
X93323400Y-59639200D03*
D20*
X96141540Y-138493500D03*
D21*
X96141540Y-128333500D03*
D20*
X92839540Y-139001500D03*
D21*
X92839540Y-128841500D03*
D22*
X83947000Y-120205500D03*
D23*
X88947000Y-120205500D03*
D22*
X83439000Y-146113500D03*
D23*
X88439000Y-146113500D03*
D16*
X138049000Y-84328000D03*
D17*
X135509000Y-84328000D03*
X138049000Y-86868000D03*
X135509000Y-86868000D03*
D20*
X155727400Y-75260200D03*
X155727400Y-65100200D03*
X158521400Y-65100200D03*
X158521400Y-75260200D03*
X114706400Y-92786200D03*
X124866400Y-92786200D03*
X84226400Y-84658200D03*
X84226400Y-74498200D03*
X101117400Y-56591200D03*
X90957400Y-56591200D03*
D14*
X144018000Y-62484000D03*
D15*
X144018000Y-65024000D03*
X144018000Y-67564000D03*
X144018000Y-70104000D03*
X151638000Y-70104000D03*
X151638000Y-67564000D03*
X151638000Y-65024000D03*
X151638000Y-62484000D03*
D14*
X94894400Y-111328200D03*
D15*
X94894400Y-108788200D03*
X94894400Y-106248200D03*
X94894400Y-103708200D03*
X94894400Y-101168200D03*
X94894400Y-98628200D03*
X94894400Y-96088200D03*
X94894400Y-93548200D03*
X87274400Y-93548200D03*
X87274400Y-96088200D03*
X87274400Y-98628200D03*
X87274400Y-101168200D03*
X87274400Y-103708200D03*
X87274400Y-106248200D03*
X87274400Y-108788200D03*
X87274400Y-111328200D03*
D24*
X87503000Y-138239500D03*
X84963000Y-138239500D03*
X87503000Y-135699500D03*
X84963000Y-135699500D03*
X87503000Y-133159500D03*
X84963000Y-133159500D03*
X87503000Y-130619500D03*
X84963000Y-130619500D03*
X87503000Y-128079500D03*
X84963000Y-128079500D03*
D25*
X86207600Y-139179300D03*
X86207600Y-135216900D03*
X86207600Y-131254500D03*
X86207600Y-127292100D03*
D16*
X138049000Y-89408000D03*
D17*
X135509000Y-89408000D03*
X138049000Y-91948000D03*
X135509000Y-91948000D03*
X138049000Y-94488000D03*
X135509000Y-94488000D03*
D16*
X138074400Y-97104200D03*
D17*
X135534400Y-97104200D03*
X138074400Y-99644200D03*
X135534400Y-99644200D03*
D26*
X111277400Y-92151200D03*
X111277400Y-89611200D03*
X111277400Y-94691200D03*
X85496400Y-67640200D03*
X85496400Y-65100200D03*
X85496400Y-70180200D03*
X145694400Y-115519200D03*
X143154400Y-115519200D03*
X148234400Y-115519200D03*
X111023400Y-67767200D03*
X111023400Y-65227200D03*
X111023400Y-70307200D03*
X111023400Y-60528200D03*
X111023400Y-57988200D03*
X111023400Y-63068200D03*
X111150400Y-83515200D03*
X111150400Y-80975200D03*
X111150400Y-86055200D03*
X111150400Y-75895200D03*
X111150400Y-73355200D03*
X111150400Y-78435200D03*
D20*
X114706400Y-89738200D03*
X124866400Y-89738200D03*
X87401400Y-74498200D03*
X87401400Y-84658200D03*
X147218400Y-101803200D03*
X147218400Y-111963200D03*
X144170400Y-111963200D03*
X144170400Y-101803200D03*
X124612400Y-66624200D03*
X114452400Y-66624200D03*
X124612400Y-60655200D03*
X114452400Y-60655200D03*
X114452400Y-63576200D03*
X124612400Y-63576200D03*
X105308400Y-59385200D03*
X105308400Y-69545200D03*
X124612400Y-82118200D03*
X114452400Y-82118200D03*
X124612400Y-76276200D03*
X114452400Y-76276200D03*
X114452400Y-79197200D03*
X124612400Y-79197200D03*
X105181400Y-84658200D03*
X105181400Y-74498200D03*
D14*
X138201400Y-69926200D03*
D15*
X138201400Y-67386200D03*
X138201400Y-64846200D03*
X138201400Y-62306200D03*
X130581400Y-62306200D03*
X130581400Y-64846200D03*
X130581400Y-67386200D03*
X130581400Y-69926200D03*
D14*
X144932400Y-82626200D03*
D15*
X144932400Y-85166200D03*
X144932400Y-87706200D03*
X144932400Y-90246200D03*
X152552400Y-90246200D03*
X152552400Y-87706200D03*
X152552400Y-85166200D03*
X152552400Y-82626200D03*
D14*
X151663400Y-99009200D03*
D15*
X151663400Y-101549200D03*
X151663400Y-104089200D03*
X151663400Y-106629200D03*
X151663400Y-109169200D03*
X151663400Y-111709200D03*
X151663400Y-114249200D03*
X159283400Y-114249200D03*
X159283400Y-111709200D03*
X159283400Y-109169200D03*
X159283400Y-106629200D03*
X159283400Y-104089200D03*
X159283400Y-101549200D03*
X159283400Y-99009200D03*
D14*
X159410400Y-129743200D03*
D15*
X159410400Y-127203200D03*
X159410400Y-124663200D03*
X159410400Y-122123200D03*
X151790400Y-122123200D03*
X151790400Y-124663200D03*
X151790400Y-127203200D03*
X151790400Y-129743200D03*
D18*
X158013400Y-95326200D03*
D19*
X153013400Y-95326200D03*
D18*
X153060400Y-118059200D03*
D19*
X158060400Y-118059200D03*
D11*
X140995400Y-92786200D03*
X127787400Y-88214200D03*
X126263400Y-86690200D03*
X155473400Y-111201200D03*
X130962400Y-90563700D03*
X124485400Y-84023200D03*
X139852400Y-107391200D03*
X118389400Y-98628200D03*
X144932400Y-98755200D03*
D27*
X87401400Y-84658200D02*
X87401400Y-84531200D01*
X87401400Y-84531200D02*
X89306400Y-82626200D01*
X98323400Y-82626200D02*
X99593400Y-83896200D01*
X89306400Y-82626200D02*
X98323400Y-82626200D01*
X151790400Y-129743200D02*
X111556800Y-129743200D01*
X111556800Y-129743200D02*
X110147100Y-128333500D01*
X151790400Y-129743200D02*
X151790400Y-132283200D01*
X151790400Y-132283200D02*
X153060400Y-133553200D01*
X144170400Y-101803200D02*
X144170400Y-101676200D01*
X144170400Y-101676200D02*
X148869400Y-96977200D01*
X148869400Y-96977200D02*
X156362400Y-96977200D01*
X156362400Y-96977200D02*
X158013400Y-95326200D01*
X124333000Y-113919000D02*
X124333000Y-114147600D01*
X124333000Y-114147600D02*
X110147100Y-128333500D01*
X110147100Y-128333500D02*
X96141540Y-128333500D01*
X119253000Y-106299000D02*
X119253000Y-95351600D01*
X119253000Y-95351600D02*
X124866400Y-89738200D01*
X124866400Y-89738200D02*
X130200400Y-84404200D01*
X130200400Y-84404200D02*
X135432800Y-84404200D01*
X135432800Y-84404200D02*
X135509000Y-84328000D01*
X135509000Y-84328000D02*
X135509000Y-77393800D01*
X135509000Y-77393800D02*
X131724400Y-73609200D01*
X99593400Y-83896200D02*
X99720400Y-83896200D01*
X87401400Y-84658200D02*
X87528400Y-84658200D01*
X98323400Y-62306200D02*
X110261400Y-62306200D01*
X110261400Y-62306200D02*
X111023400Y-63068200D01*
X98323400Y-62306200D02*
X98323400Y-64846200D01*
X98323400Y-64846200D02*
X99593400Y-66116200D01*
X98323400Y-59639200D02*
X98323400Y-62306200D01*
X132486400Y-72847200D02*
X132486400Y-72720200D01*
X142163800Y-71958200D02*
X144018000Y-70104000D01*
X133248400Y-71958200D02*
X142163800Y-71958200D01*
X132486400Y-72720200D02*
X133248400Y-71958200D01*
X130581400Y-67386200D02*
X131470400Y-67386200D01*
X131470400Y-67386200D02*
X132486400Y-68402200D01*
X132486400Y-68402200D02*
X132486400Y-72847200D01*
X132486400Y-72847200D02*
X131724400Y-73609200D01*
X131724400Y-73609200D02*
X116611400Y-73609200D01*
X116611400Y-73609200D02*
X116230400Y-73990200D01*
X114325400Y-75895200D02*
X113690400Y-75895200D01*
X113690400Y-75895200D02*
X111150400Y-78435200D01*
X114452400Y-60655200D02*
X115341400Y-60655200D01*
X115341400Y-60655200D02*
X116230400Y-61544200D01*
X116230400Y-73990200D02*
X114325400Y-75895200D01*
X116230400Y-61544200D02*
X116230400Y-73990200D01*
X111023400Y-63068200D02*
X112039400Y-63068200D01*
X112039400Y-63068200D02*
X114452400Y-60655200D01*
X150393400Y-58750200D02*
X150393400Y-61239400D01*
X150393400Y-61239400D02*
X151638000Y-62484000D01*
X152552400Y-82626200D02*
X152552400Y-82880200D01*
X152552400Y-82880200D02*
X158013400Y-88341200D01*
X158013400Y-88341200D02*
X158013400Y-95326200D01*
X159283400Y-99009200D02*
X159283400Y-96596200D01*
X159283400Y-96596200D02*
X158013400Y-95326200D01*
X87274400Y-111328200D02*
X89814400Y-111328200D01*
X89814400Y-111328200D02*
X94894400Y-106248200D01*
X87274400Y-111328200D02*
X87274400Y-113868200D01*
X87274400Y-113868200D02*
X88544400Y-115138200D01*
X88544400Y-115138200D02*
X88544400Y-119802900D01*
X88544400Y-119802900D02*
X88947000Y-120205500D01*
X88947000Y-120205500D02*
X92837000Y-120205500D01*
X92837000Y-120205500D02*
X96141540Y-123510040D01*
X96141540Y-123510040D02*
X96141540Y-128333500D01*
X86207600Y-135216900D02*
X86207600Y-134404100D01*
X86207600Y-134404100D02*
X84963000Y-133159500D01*
X87503000Y-133159500D02*
X87503000Y-132549900D01*
X87503000Y-132549900D02*
X86207600Y-131254500D01*
X87503000Y-133159500D02*
X87503000Y-135699500D01*
X87503000Y-135699500D02*
X84963000Y-135699500D01*
X84963000Y-135699500D02*
X84963000Y-133159500D01*
X84963000Y-133159500D02*
X84963000Y-130619500D01*
X84963000Y-130619500D02*
X87503000Y-130619500D01*
X87503000Y-130619500D02*
X87503000Y-133159500D01*
D28*
X121793000Y-106299000D02*
X121749398Y-106299000D01*
X121749398Y-106299000D02*
X119006198Y-109042200D01*
X119006198Y-109042200D02*
X109423200Y-109042200D01*
X109423200Y-109042200D02*
X107569000Y-107188000D01*
X107569000Y-109728000D02*
X125984000Y-109728000D01*
X125984000Y-109728000D02*
X129413000Y-106299000D01*
X129413000Y-113919000D02*
X129413000Y-113588800D01*
X129413000Y-113588800D02*
X126136400Y-110312200D01*
X126136400Y-110312200D02*
X112064800Y-110312200D01*
X112064800Y-110312200D02*
X107569000Y-114808000D01*
X107569000Y-114808000D02*
X108026200Y-114808000D01*
X87274400Y-103708200D02*
X89814400Y-103708200D01*
X102819200Y-99898200D02*
X105029000Y-102108000D01*
X93624400Y-99898200D02*
X102819200Y-99898200D01*
X89814400Y-103708200D02*
X93624400Y-99898200D01*
X87274400Y-106248200D02*
X90068400Y-106248200D01*
X102819200Y-102438200D02*
X105029000Y-104648000D01*
X93878400Y-102438200D02*
X102819200Y-102438200D01*
X90068400Y-106248200D02*
X93878400Y-102438200D01*
X87274400Y-108788200D02*
X89814400Y-108788200D01*
X102819200Y-104978200D02*
X105029000Y-107188000D01*
X93624400Y-104978200D02*
X102819200Y-104978200D01*
X89814400Y-108788200D02*
X93624400Y-104978200D01*
X94894400Y-111328200D02*
X104089200Y-111328200D01*
X104089200Y-111328200D02*
X105029000Y-112268000D01*
D27*
X92839540Y-139001500D02*
X92839540Y-137276840D01*
X131533900Y-53098700D02*
X136931400Y-58496200D01*
X91846400Y-53098700D02*
X131533900Y-53098700D01*
X82130900Y-62814200D02*
X91846400Y-53098700D01*
X82130900Y-115646200D02*
X82130900Y-62814200D01*
X89623900Y-123139200D02*
X82130900Y-115646200D01*
X89623900Y-134061200D02*
X89623900Y-123139200D01*
X92839540Y-137276840D02*
X89623900Y-134061200D01*
X136931400Y-58496200D02*
X136931400Y-61036200D01*
X136931400Y-61036200D02*
X138201400Y-62306200D01*
X159410400Y-122123200D02*
X158521400Y-122123200D01*
X158521400Y-122123200D02*
X157124400Y-123520200D01*
X95175700Y-147904200D02*
X93385000Y-146113500D01*
X152552400Y-147904200D02*
X95175700Y-147904200D01*
X159664400Y-140792200D02*
X152552400Y-147904200D01*
X159664400Y-132918200D02*
X159664400Y-140792200D01*
X157124400Y-130378200D02*
X159664400Y-132918200D01*
X157124400Y-123520200D02*
X157124400Y-130378200D01*
X158060400Y-118059200D02*
X158060400Y-120773200D01*
X158060400Y-120773200D02*
X159410400Y-122123200D01*
X88439000Y-146113500D02*
X93385000Y-146113500D01*
X93385000Y-146113500D02*
X92839540Y-145568040D01*
X92839540Y-145568040D02*
X92839540Y-139001500D01*
D28*
X138049000Y-84328000D02*
X138049000Y-84175600D01*
X138049000Y-84175600D02*
X146964400Y-75260200D01*
X146964400Y-75260200D02*
X155727400Y-75260200D01*
X135509000Y-86868000D02*
X136220200Y-86868000D01*
X136220200Y-86868000D02*
X137566400Y-88214200D01*
X137566400Y-88214200D02*
X141884400Y-88214200D01*
X141884400Y-88214200D02*
X144932400Y-85166200D01*
X150393400Y-73863200D02*
X150393400Y-71348600D01*
X150393400Y-71348600D02*
X151638000Y-70104000D01*
X158521400Y-75260200D02*
X158521400Y-78460600D01*
X158521400Y-78460600D02*
X157480000Y-79502000D01*
X151638000Y-67564000D02*
X151968200Y-67564000D01*
X151968200Y-67564000D02*
X158521400Y-74117200D01*
X158521400Y-74117200D02*
X158521400Y-75260200D01*
X144018000Y-65024000D02*
X149098000Y-65024000D01*
X149098000Y-65024000D02*
X151638000Y-67564000D01*
X124866400Y-92786200D02*
X133807200Y-92786200D01*
X133807200Y-92786200D02*
X135509000Y-94488000D01*
X138049000Y-89408000D02*
X137490200Y-89408000D01*
X137490200Y-89408000D02*
X136296400Y-88214200D01*
X136296400Y-88214200D02*
X127787400Y-88214200D01*
X126263400Y-86690200D02*
X124358400Y-84785200D01*
X124358400Y-84785200D02*
X108102400Y-84785200D01*
X108102400Y-84785200D02*
X100863400Y-77546200D01*
X100863400Y-77546200D02*
X87274400Y-77546200D01*
X87274400Y-77546200D02*
X84226400Y-74498200D01*
X85750400Y-67386200D02*
X84226400Y-68910200D01*
X84226400Y-68910200D02*
X84226400Y-74498200D01*
D27*
X83947000Y-120205500D02*
X83947000Y-125031500D01*
X83947000Y-125031500D02*
X86207600Y-127292100D01*
X86207600Y-127292100D02*
X86715600Y-127292100D01*
X86715600Y-127292100D02*
X87503000Y-128079500D01*
X86207600Y-127292100D02*
X85750400Y-127292100D01*
X85750400Y-127292100D02*
X84963000Y-128079500D01*
X86207600Y-139179300D02*
X86207600Y-143344900D01*
X86207600Y-143344900D02*
X83439000Y-146113500D01*
X86207600Y-139179300D02*
X85902800Y-139179300D01*
X85902800Y-139179300D02*
X84963000Y-138239500D01*
X86207600Y-139179300D02*
X86563200Y-139179300D01*
X86563200Y-139179300D02*
X87503000Y-138239500D01*
D28*
X155727400Y-65100200D02*
X158521400Y-65100200D01*
X151638000Y-65024000D02*
X155651200Y-65024000D01*
X155651200Y-65024000D02*
X155727400Y-65100200D01*
X138201400Y-64846200D02*
X138328400Y-64846200D01*
X138328400Y-64846200D02*
X139344400Y-63830200D01*
X139344400Y-63830200D02*
X150444200Y-63830200D01*
X150444200Y-63830200D02*
X151638000Y-65024000D01*
X91973400Y-78816200D02*
X90068400Y-78816200D01*
X85750400Y-97104200D02*
X87274400Y-98628200D01*
X85750400Y-83134200D02*
X85750400Y-97104200D01*
X90068400Y-78816200D02*
X85750400Y-83134200D01*
X87274400Y-96088200D02*
X92163900Y-96088200D01*
X101371400Y-80594200D02*
X99593400Y-78816200D01*
X101371400Y-92214700D02*
X101371400Y-80594200D01*
X96227900Y-97358200D02*
X101371400Y-92214700D01*
X93433900Y-97358200D02*
X96227900Y-97358200D01*
X92163900Y-96088200D02*
X93433900Y-97358200D01*
X91973400Y-66116200D02*
X91973400Y-66243200D01*
X91973400Y-66243200D02*
X95656400Y-69926200D01*
X100609400Y-69926200D02*
X105181400Y-74498200D01*
X95656400Y-69926200D02*
X100609400Y-69926200D01*
X105181400Y-74498200D02*
X110007400Y-74498200D01*
X110007400Y-74498200D02*
X111150400Y-73355200D01*
X91973400Y-66116200D02*
X91973400Y-60989200D01*
X91973400Y-60989200D02*
X93323400Y-59639200D01*
X90957400Y-56591200D02*
X90957400Y-57273200D01*
X90957400Y-57273200D02*
X93323400Y-59639200D01*
X111150400Y-83515200D02*
X113436400Y-83515200D01*
X113436400Y-83515200D02*
X114452400Y-82499200D01*
X155473400Y-111201200D02*
X158521400Y-114249200D01*
X158521400Y-114249200D02*
X159283400Y-114249200D01*
X99593400Y-81356200D02*
X99720400Y-81356200D01*
X111277400Y-89611200D02*
X114579400Y-89611200D01*
X114579400Y-89611200D02*
X114706400Y-89738200D01*
X87401400Y-74498200D02*
X90195400Y-74498200D01*
X90195400Y-74498200D02*
X91973400Y-76276200D01*
X85496400Y-65100200D02*
X87274400Y-66878200D01*
X87274400Y-66878200D02*
X87274400Y-74371200D01*
X87528400Y-74371200D02*
X87401400Y-74498200D01*
X145694400Y-115519200D02*
X145694400Y-113487200D01*
X145694400Y-113487200D02*
X147218400Y-111963200D01*
X144170400Y-111963200D02*
X144297400Y-111963200D01*
X144297400Y-111963200D02*
X145694400Y-110566200D01*
X150520400Y-110566200D02*
X151663400Y-111709200D01*
X145694400Y-110566200D02*
X150520400Y-110566200D01*
X143154400Y-115519200D02*
X143154400Y-112979200D01*
X143154400Y-112979200D02*
X144170400Y-111963200D01*
X111023400Y-65227200D02*
X112801400Y-65227200D01*
X112801400Y-65227200D02*
X114452400Y-63576200D01*
X124612400Y-60655200D02*
X124612400Y-63576200D01*
X111023400Y-60528200D02*
X111150400Y-60528200D01*
X111150400Y-60528200D02*
X112420400Y-59258200D01*
X112420400Y-59258200D02*
X123215400Y-59258200D01*
X123215400Y-59258200D02*
X124612400Y-60655200D01*
X124485400Y-60782200D02*
X124612400Y-60655200D01*
X99593400Y-68656200D02*
X104419400Y-68656200D01*
X104419400Y-68656200D02*
X105308400Y-69545200D01*
X111150400Y-80975200D02*
X111531400Y-80975200D01*
X111531400Y-80975200D02*
X114071400Y-78435200D01*
X124612400Y-76276200D02*
X124612400Y-79197200D01*
X91973400Y-68656200D02*
X93179900Y-68656200D01*
X145503900Y-103517700D02*
X147218400Y-101803200D01*
X143604402Y-103517700D02*
X145503900Y-103517700D01*
X140423900Y-100337198D02*
X143604402Y-103517700D01*
X140423900Y-95008700D02*
X140423900Y-100337198D01*
X138645900Y-93230700D02*
X140423900Y-95008700D01*
X134888098Y-93230700D02*
X138645900Y-93230700D01*
X133872098Y-92214700D02*
X134888098Y-93230700D01*
X132613400Y-92214700D02*
X133872098Y-92214700D01*
X130962400Y-90563700D02*
X132613400Y-92214700D01*
X121183400Y-80721200D02*
X124485400Y-84023200D01*
X113436400Y-80721200D02*
X121183400Y-80721200D01*
X111912400Y-82245200D02*
X113436400Y-80721200D01*
X110324900Y-82245200D02*
X111912400Y-82245200D01*
X100672900Y-72593200D02*
X110324900Y-82245200D01*
X97116900Y-72593200D02*
X100672900Y-72593200D01*
X93179900Y-68656200D02*
X97116900Y-72593200D01*
X147218400Y-101803200D02*
X151409400Y-101803200D01*
X151409400Y-101803200D02*
X151663400Y-101549200D01*
X131953000Y-113919000D02*
X131953000Y-113893600D01*
X131953000Y-113893600D02*
X141757400Y-104089200D01*
X141757400Y-104089200D02*
X151663400Y-104089200D01*
X94894400Y-98628200D02*
X118389400Y-98628200D01*
X150901400Y-107391200D02*
X151663400Y-106629200D01*
X139852400Y-107391200D02*
X150901400Y-107391200D01*
X139852400Y-107391200D02*
X139852400Y-107391200D01*
X130581400Y-64846200D02*
X135661400Y-64846200D01*
X135661400Y-64846200D02*
X138201400Y-67386200D01*
X138049000Y-91948000D02*
X138125200Y-91948000D01*
X138125200Y-91948000D02*
X144932400Y-98755200D01*
X159283400Y-111709200D02*
X158902400Y-111709200D01*
X158902400Y-111709200D02*
X157505400Y-110312200D01*
X157505400Y-110312200D02*
X157505400Y-103327200D01*
X157505400Y-103327200D02*
X159283400Y-101549200D01*
X111023400Y-67767200D02*
X113309400Y-67767200D01*
X113309400Y-67767200D02*
X114452400Y-66624200D01*
X138049000Y-86868000D02*
X140690600Y-86868000D01*
X140690600Y-86868000D02*
X144932400Y-82626200D01*
D29*
G36*
X84157366Y-118858060D02*
X83247000Y-118858060D01*
X83011683Y-118902338D01*
X82795559Y-119041410D01*
X82650569Y-119253610D01*
X82599560Y-119505500D01*
X82599560Y-120905500D01*
X82643838Y-121140817D01*
X82782910Y-121356941D01*
X82995110Y-121501931D01*
X83108800Y-121524954D01*
X83108800Y-125031500D01*
X83172604Y-125352266D01*
X83354303Y-125624197D01*
X84159387Y-126429281D01*
X83985487Y-126848078D01*
X83985272Y-127094150D01*
X83786904Y-127292172D01*
X83575131Y-127802176D01*
X83574649Y-128354401D01*
X83785531Y-128864774D01*
X84175672Y-129255596D01*
X84385880Y-129342882D01*
X84237207Y-129404465D01*
X84168834Y-129645728D01*
X84465688Y-129942582D01*
X84302567Y-130027393D01*
X84271077Y-130107183D01*
X83989228Y-129825334D01*
X83747965Y-129893707D01*
X83562704Y-130413928D01*
X83590627Y-130965446D01*
X83747965Y-131345293D01*
X83987453Y-131413163D01*
X83992843Y-131733865D01*
X84173374Y-132169707D01*
X84168834Y-132185728D01*
X84187913Y-132204807D01*
X84302567Y-132481607D01*
X84630426Y-132652069D01*
X84632800Y-132649695D01*
X84812405Y-132829300D01*
X84810031Y-132831674D01*
X84980493Y-133159533D01*
X85116988Y-133213402D01*
X85045414Y-133284976D01*
X84980493Y-133311867D01*
X84965192Y-133341297D01*
X84963000Y-133339105D01*
X84322868Y-133979238D01*
X84302567Y-133989793D01*
X84296213Y-134005893D01*
X84168834Y-134133272D01*
X84201061Y-134246991D01*
X83977986Y-134812226D01*
X83979597Y-134908063D01*
X83747965Y-134973707D01*
X83562704Y-135493928D01*
X83590627Y-136045446D01*
X83747965Y-136425293D01*
X83989228Y-136493666D01*
X84225337Y-136257557D01*
X84302567Y-136444007D01*
X84365420Y-136476686D01*
X84168834Y-136673272D01*
X84237207Y-136914535D01*
X84396985Y-136971435D01*
X84177726Y-137062031D01*
X83786904Y-137452172D01*
X83575131Y-137962176D01*
X83574649Y-138514401D01*
X83785531Y-139024774D01*
X83985060Y-139224651D01*
X83984715Y-139619443D01*
X84322358Y-140436600D01*
X84947011Y-141062345D01*
X85369400Y-141237736D01*
X85369400Y-142997706D01*
X83601046Y-144766060D01*
X82739000Y-144766060D01*
X82503683Y-144810338D01*
X82287559Y-144949410D01*
X82142569Y-145161610D01*
X82091560Y-145413500D01*
X82091560Y-146813500D01*
X82135838Y-147048817D01*
X82274910Y-147264941D01*
X82487110Y-147409931D01*
X82739000Y-147460940D01*
X84139000Y-147460940D01*
X84374317Y-147416662D01*
X84590441Y-147277590D01*
X84735431Y-147065390D01*
X84786440Y-146813500D01*
X84786440Y-145951454D01*
X86800297Y-143937597D01*
X86981996Y-143665665D01*
X87045800Y-143344900D01*
X87045800Y-141237711D01*
X87464900Y-141064542D01*
X88090645Y-140439889D01*
X88429713Y-139623322D01*
X88430017Y-139275473D01*
X88679096Y-139026828D01*
X88890869Y-138516824D01*
X88891351Y-137964599D01*
X88680469Y-137454226D01*
X88290328Y-137063404D01*
X88080120Y-136976118D01*
X88228793Y-136914535D01*
X88297166Y-136673272D01*
X88083203Y-136459309D01*
X88112633Y-136444007D01*
X88201624Y-136218519D01*
X88476772Y-136493666D01*
X88718035Y-136425293D01*
X88903296Y-135905072D01*
X88875373Y-135353554D01*
X88718035Y-134973707D01*
X88476772Y-134905334D01*
X88426030Y-134956076D01*
X88422357Y-134737535D01*
X88246345Y-134312602D01*
X88297166Y-134133272D01*
X87503000Y-133339105D01*
X87488858Y-133353248D01*
X87336020Y-133200410D01*
X87434707Y-133159533D01*
X87555294Y-132927600D01*
X87880700Y-132602195D01*
X88112633Y-132481607D01*
X88185226Y-132297668D01*
X88297166Y-132185728D01*
X88268845Y-132085793D01*
X88437214Y-131659174D01*
X88432341Y-131369235D01*
X88476772Y-131413666D01*
X88718035Y-131345293D01*
X88785700Y-131155287D01*
X88785700Y-132597065D01*
X88718035Y-132433707D01*
X88476772Y-132365334D01*
X87682605Y-133159500D01*
X88476772Y-133953666D01*
X88718035Y-133885293D01*
X88785700Y-133695287D01*
X88785700Y-134061200D01*
X88849504Y-134381966D01*
X89031203Y-134653897D01*
X91969696Y-137592390D01*
X91914885Y-137615038D01*
X91454694Y-138074427D01*
X91205334Y-138674953D01*
X91204766Y-139325194D01*
X91453078Y-139926155D01*
X91912467Y-140386346D01*
X92001340Y-140423249D01*
X92001340Y-145275300D01*
X89488592Y-145275300D01*
X89196204Y-144982402D01*
X88705713Y-144778732D01*
X88174617Y-144778269D01*
X87683771Y-144981082D01*
X87307902Y-145356296D01*
X87104232Y-145846787D01*
X87103769Y-146377883D01*
X87306582Y-146868729D01*
X87681796Y-147244598D01*
X88172287Y-147448268D01*
X88703383Y-147448731D01*
X89194229Y-147245918D01*
X89488961Y-146951700D01*
X92406058Y-146951700D01*
X92656155Y-147202235D01*
X93128276Y-147398277D01*
X93484694Y-147398588D01*
X94583003Y-148496897D01*
X94854934Y-148678596D01*
X95175700Y-148742400D01*
X152552400Y-148742400D01*
X152873166Y-148678596D01*
X153145097Y-148496897D01*
X160257097Y-141384897D01*
X160438796Y-141112965D01*
X160502600Y-140792200D01*
X160502600Y-132918200D01*
X160438796Y-132597435D01*
X160257097Y-132325503D01*
X159122234Y-131190640D01*
X160560400Y-131190640D01*
X160795717Y-131146362D01*
X160961000Y-131040005D01*
X160961000Y-155246000D01*
X81609000Y-155246000D01*
X81609000Y-152073515D01*
X83107030Y-152073515D01*
X83431380Y-152858500D01*
X84031441Y-153459609D01*
X84815859Y-153785328D01*
X85665215Y-153786070D01*
X86450200Y-153461720D01*
X87051309Y-152861659D01*
X87377028Y-152077241D01*
X87377031Y-152073515D01*
X155243030Y-152073515D01*
X155567380Y-152858500D01*
X156167441Y-153459609D01*
X156951859Y-153785328D01*
X157801215Y-153786070D01*
X158586200Y-153461720D01*
X159187309Y-152861659D01*
X159513028Y-152077241D01*
X159513770Y-151227885D01*
X159189420Y-150442900D01*
X158589359Y-149841791D01*
X157804941Y-149516072D01*
X156955585Y-149515330D01*
X156170600Y-149839680D01*
X155569491Y-150439741D01*
X155243772Y-151224159D01*
X155243030Y-152073515D01*
X87377031Y-152073515D01*
X87377770Y-151227885D01*
X87053420Y-150442900D01*
X86453359Y-149841791D01*
X85668941Y-149516072D01*
X84819585Y-149515330D01*
X84034600Y-149839680D01*
X83433491Y-150439741D01*
X83107772Y-151224159D01*
X83107030Y-152073515D01*
X81609000Y-152073515D01*
X81609000Y-132953928D01*
X83562704Y-132953928D01*
X83590627Y-133505446D01*
X83747965Y-133885293D01*
X83989228Y-133953666D01*
X84783395Y-133159500D01*
X83989228Y-132365334D01*
X83747965Y-132433707D01*
X83562704Y-132953928D01*
X81609000Y-132953928D01*
X81609000Y-116309694D01*
X84157366Y-118858060D01*
X84157366Y-118858060D01*
G37*
X84157366Y-118858060D02*
X83247000Y-118858060D01*
X83011683Y-118902338D01*
X82795559Y-119041410D01*
X82650569Y-119253610D01*
X82599560Y-119505500D01*
X82599560Y-120905500D01*
X82643838Y-121140817D01*
X82782910Y-121356941D01*
X82995110Y-121501931D01*
X83108800Y-121524954D01*
X83108800Y-125031500D01*
X83172604Y-125352266D01*
X83354303Y-125624197D01*
X84159387Y-126429281D01*
X83985487Y-126848078D01*
X83985272Y-127094150D01*
X83786904Y-127292172D01*
X83575131Y-127802176D01*
X83574649Y-128354401D01*
X83785531Y-128864774D01*
X84175672Y-129255596D01*
X84385880Y-129342882D01*
X84237207Y-129404465D01*
X84168834Y-129645728D01*
X84465688Y-129942582D01*
X84302567Y-130027393D01*
X84271077Y-130107183D01*
X83989228Y-129825334D01*
X83747965Y-129893707D01*
X83562704Y-130413928D01*
X83590627Y-130965446D01*
X83747965Y-131345293D01*
X83987453Y-131413163D01*
X83992843Y-131733865D01*
X84173374Y-132169707D01*
X84168834Y-132185728D01*
X84187913Y-132204807D01*
X84302567Y-132481607D01*
X84630426Y-132652069D01*
X84632800Y-132649695D01*
X84812405Y-132829300D01*
X84810031Y-132831674D01*
X84980493Y-133159533D01*
X85116988Y-133213402D01*
X85045414Y-133284976D01*
X84980493Y-133311867D01*
X84965192Y-133341297D01*
X84963000Y-133339105D01*
X84322868Y-133979238D01*
X84302567Y-133989793D01*
X84296213Y-134005893D01*
X84168834Y-134133272D01*
X84201061Y-134246991D01*
X83977986Y-134812226D01*
X83979597Y-134908063D01*
X83747965Y-134973707D01*
X83562704Y-135493928D01*
X83590627Y-136045446D01*
X83747965Y-136425293D01*
X83989228Y-136493666D01*
X84225337Y-136257557D01*
X84302567Y-136444007D01*
X84365420Y-136476686D01*
X84168834Y-136673272D01*
X84237207Y-136914535D01*
X84396985Y-136971435D01*
X84177726Y-137062031D01*
X83786904Y-137452172D01*
X83575131Y-137962176D01*
X83574649Y-138514401D01*
X83785531Y-139024774D01*
X83985060Y-139224651D01*
X83984715Y-139619443D01*
X84322358Y-140436600D01*
X84947011Y-141062345D01*
X85369400Y-141237736D01*
X85369400Y-142997706D01*
X83601046Y-144766060D01*
X82739000Y-144766060D01*
X82503683Y-144810338D01*
X82287559Y-144949410D01*
X82142569Y-145161610D01*
X82091560Y-145413500D01*
X82091560Y-146813500D01*
X82135838Y-147048817D01*
X82274910Y-147264941D01*
X82487110Y-147409931D01*
X82739000Y-147460940D01*
X84139000Y-147460940D01*
X84374317Y-147416662D01*
X84590441Y-147277590D01*
X84735431Y-147065390D01*
X84786440Y-146813500D01*
X84786440Y-145951454D01*
X86800297Y-143937597D01*
X86981996Y-143665665D01*
X87045800Y-143344900D01*
X87045800Y-141237711D01*
X87464900Y-141064542D01*
X88090645Y-140439889D01*
X88429713Y-139623322D01*
X88430017Y-139275473D01*
X88679096Y-139026828D01*
X88890869Y-138516824D01*
X88891351Y-137964599D01*
X88680469Y-137454226D01*
X88290328Y-137063404D01*
X88080120Y-136976118D01*
X88228793Y-136914535D01*
X88297166Y-136673272D01*
X88083203Y-136459309D01*
X88112633Y-136444007D01*
X88201624Y-136218519D01*
X88476772Y-136493666D01*
X88718035Y-136425293D01*
X88903296Y-135905072D01*
X88875373Y-135353554D01*
X88718035Y-134973707D01*
X88476772Y-134905334D01*
X88426030Y-134956076D01*
X88422357Y-134737535D01*
X88246345Y-134312602D01*
X88297166Y-134133272D01*
X87503000Y-133339105D01*
X87488858Y-133353248D01*
X87336020Y-133200410D01*
X87434707Y-133159533D01*
X87555294Y-132927600D01*
X87880700Y-132602195D01*
X88112633Y-132481607D01*
X88185226Y-132297668D01*
X88297166Y-132185728D01*
X88268845Y-132085793D01*
X88437214Y-131659174D01*
X88432341Y-131369235D01*
X88476772Y-131413666D01*
X88718035Y-131345293D01*
X88785700Y-131155287D01*
X88785700Y-132597065D01*
X88718035Y-132433707D01*
X88476772Y-132365334D01*
X87682605Y-133159500D01*
X88476772Y-133953666D01*
X88718035Y-133885293D01*
X88785700Y-133695287D01*
X88785700Y-134061200D01*
X88849504Y-134381966D01*
X89031203Y-134653897D01*
X91969696Y-137592390D01*
X91914885Y-137615038D01*
X91454694Y-138074427D01*
X91205334Y-138674953D01*
X91204766Y-139325194D01*
X91453078Y-139926155D01*
X91912467Y-140386346D01*
X92001340Y-140423249D01*
X92001340Y-145275300D01*
X89488592Y-145275300D01*
X89196204Y-144982402D01*
X88705713Y-144778732D01*
X88174617Y-144778269D01*
X87683771Y-144981082D01*
X87307902Y-145356296D01*
X87104232Y-145846787D01*
X87103769Y-146377883D01*
X87306582Y-146868729D01*
X87681796Y-147244598D01*
X88172287Y-147448268D01*
X88703383Y-147448731D01*
X89194229Y-147245918D01*
X89488961Y-146951700D01*
X92406058Y-146951700D01*
X92656155Y-147202235D01*
X93128276Y-147398277D01*
X93484694Y-147398588D01*
X94583003Y-148496897D01*
X94854934Y-148678596D01*
X95175700Y-148742400D01*
X152552400Y-148742400D01*
X152873166Y-148678596D01*
X153145097Y-148496897D01*
X160257097Y-141384897D01*
X160438796Y-141112965D01*
X160502600Y-140792200D01*
X160502600Y-132918200D01*
X160438796Y-132597435D01*
X160257097Y-132325503D01*
X159122234Y-131190640D01*
X160560400Y-131190640D01*
X160795717Y-131146362D01*
X160961000Y-131040005D01*
X160961000Y-155246000D01*
X81609000Y-155246000D01*
X81609000Y-152073515D01*
X83107030Y-152073515D01*
X83431380Y-152858500D01*
X84031441Y-153459609D01*
X84815859Y-153785328D01*
X85665215Y-153786070D01*
X86450200Y-153461720D01*
X87051309Y-152861659D01*
X87377028Y-152077241D01*
X87377031Y-152073515D01*
X155243030Y-152073515D01*
X155567380Y-152858500D01*
X156167441Y-153459609D01*
X156951859Y-153785328D01*
X157801215Y-153786070D01*
X158586200Y-153461720D01*
X159187309Y-152861659D01*
X159513028Y-152077241D01*
X159513770Y-151227885D01*
X159189420Y-150442900D01*
X158589359Y-149841791D01*
X157804941Y-149516072D01*
X156955585Y-149515330D01*
X156170600Y-149839680D01*
X155569491Y-150439741D01*
X155243772Y-151224159D01*
X155243030Y-152073515D01*
X87377031Y-152073515D01*
X87377770Y-151227885D01*
X87053420Y-150442900D01*
X86453359Y-149841791D01*
X85668941Y-149516072D01*
X84819585Y-149515330D01*
X84034600Y-149839680D01*
X83433491Y-150439741D01*
X83107772Y-151224159D01*
X83107030Y-152073515D01*
X81609000Y-152073515D01*
X81609000Y-132953928D01*
X83562704Y-132953928D01*
X83590627Y-133505446D01*
X83747965Y-133885293D01*
X83989228Y-133953666D01*
X84783395Y-133159500D01*
X83989228Y-132365334D01*
X83747965Y-132433707D01*
X83562704Y-132953928D01*
X81609000Y-132953928D01*
X81609000Y-116309694D01*
X84157366Y-118858060D01*
G36*
X158445200Y-96943394D02*
X158445200Y-97664353D01*
X158349279Y-97683433D01*
X157883732Y-97994502D01*
X157572663Y-98460049D01*
X157463430Y-99009200D01*
X157572663Y-99558351D01*
X157883732Y-100023898D01*
X158265818Y-100279200D01*
X157883732Y-100534502D01*
X157572663Y-101000049D01*
X157463430Y-101549200D01*
X157572663Y-102098351D01*
X157607424Y-102150374D01*
X156967999Y-102789799D01*
X156803252Y-103036361D01*
X156745400Y-103327200D01*
X156745400Y-110312200D01*
X156803252Y-110603039D01*
X156967999Y-110849601D01*
X157523849Y-111405451D01*
X157463430Y-111709200D01*
X157564546Y-112217544D01*
X156408522Y-111061520D01*
X156408562Y-111016033D01*
X156266517Y-110672257D01*
X156003727Y-110409008D01*
X155660199Y-110266362D01*
X155288233Y-110266038D01*
X154944457Y-110408083D01*
X154681208Y-110670873D01*
X154538562Y-111014401D01*
X154538238Y-111386367D01*
X154680283Y-111730143D01*
X154943073Y-111993392D01*
X155286601Y-112136038D01*
X155333477Y-112136079D01*
X157467609Y-114270211D01*
X157572663Y-114798351D01*
X157883732Y-115263898D01*
X158349279Y-115574967D01*
X158898430Y-115684200D01*
X159668370Y-115684200D01*
X160217521Y-115574967D01*
X160683068Y-115263898D01*
X160961000Y-114847944D01*
X160961000Y-121334387D01*
X160810068Y-121108502D01*
X160344521Y-120797433D01*
X159795370Y-120688200D01*
X159160794Y-120688200D01*
X158898600Y-120426006D01*
X158898600Y-119038142D01*
X159149135Y-118788045D01*
X159345177Y-118315924D01*
X159345623Y-117804719D01*
X159150405Y-117332257D01*
X158789245Y-116970465D01*
X158317124Y-116774423D01*
X157805919Y-116773977D01*
X157333457Y-116969195D01*
X156971665Y-117330355D01*
X156775623Y-117802476D01*
X156775177Y-118313681D01*
X156970395Y-118786143D01*
X157222200Y-119038389D01*
X157222200Y-120773200D01*
X157286004Y-121093966D01*
X157467703Y-121365897D01*
X157695713Y-121593907D01*
X157653604Y-121805602D01*
X156531703Y-122927503D01*
X156350004Y-123199434D01*
X156300369Y-123448967D01*
X156286200Y-123520200D01*
X156286200Y-130378200D01*
X156350004Y-130698966D01*
X156531703Y-130970897D01*
X157839634Y-132278828D01*
X157730972Y-132285117D01*
X157396671Y-132423589D01*
X157340990Y-132654184D01*
X158060400Y-133373595D01*
X158074542Y-133359452D01*
X158254148Y-133539058D01*
X158240005Y-133553200D01*
X158254148Y-133567342D01*
X158074542Y-133746948D01*
X158060400Y-133732805D01*
X157340990Y-134452216D01*
X157396671Y-134682811D01*
X157879478Y-134850822D01*
X158389828Y-134821283D01*
X158724129Y-134682811D01*
X158779810Y-134452218D01*
X158826200Y-134498608D01*
X158826200Y-140445006D01*
X152205206Y-147066000D01*
X97097020Y-147066000D01*
X97170000Y-146889810D01*
X97170000Y-146399250D01*
X97011250Y-146240500D01*
X96012000Y-146240500D01*
X96012000Y-146260500D01*
X95758000Y-146260500D01*
X95758000Y-146240500D01*
X95738000Y-146240500D01*
X95738000Y-145986500D01*
X95758000Y-145986500D01*
X95758000Y-144987250D01*
X96012000Y-144987250D01*
X96012000Y-145986500D01*
X97011250Y-145986500D01*
X97170000Y-145827750D01*
X97170000Y-145337190D01*
X97073327Y-145103801D01*
X96894698Y-144925173D01*
X96661309Y-144828500D01*
X96170750Y-144828500D01*
X96012000Y-144987250D01*
X95758000Y-144987250D01*
X95599250Y-144828500D01*
X95108691Y-144828500D01*
X94875302Y-144925173D01*
X94696673Y-145103801D01*
X94600000Y-145337190D01*
X94600000Y-145689067D01*
X94475005Y-145386557D01*
X94113845Y-145024765D01*
X93677740Y-144843678D01*
X93677740Y-140423684D01*
X93764195Y-140387962D01*
X94224386Y-139928573D01*
X94341860Y-139645663D01*
X95168983Y-139645663D01*
X95267582Y-139912465D01*
X95877122Y-140138901D01*
X96526917Y-140114841D01*
X97015498Y-139912465D01*
X97114097Y-139645663D01*
X96141540Y-138673105D01*
X95168983Y-139645663D01*
X94341860Y-139645663D01*
X94473746Y-139328047D01*
X94474314Y-138677806D01*
X94288906Y-138229082D01*
X94496139Y-138229082D01*
X94520199Y-138878877D01*
X94722575Y-139367458D01*
X94989377Y-139466057D01*
X95961935Y-138493500D01*
X96321145Y-138493500D01*
X97293703Y-139466057D01*
X97560505Y-139367458D01*
X97786941Y-138757918D01*
X97762881Y-138108123D01*
X97560505Y-137619542D01*
X97293703Y-137520943D01*
X96321145Y-138493500D01*
X95961935Y-138493500D01*
X94989377Y-137520943D01*
X94722575Y-137619542D01*
X94496139Y-138229082D01*
X94288906Y-138229082D01*
X94226002Y-138076845D01*
X93766613Y-137616654D01*
X93677740Y-137579751D01*
X93677740Y-137341337D01*
X95168983Y-137341337D01*
X96141540Y-138313895D01*
X97114097Y-137341337D01*
X97015498Y-137074535D01*
X96405958Y-136848099D01*
X95756163Y-136872159D01*
X95267582Y-137074535D01*
X95168983Y-137341337D01*
X93677740Y-137341337D01*
X93677740Y-137276840D01*
X93613936Y-136956075D01*
X93432237Y-136684143D01*
X90462100Y-133714006D01*
X90462100Y-129127250D01*
X91205050Y-129127250D01*
X91205050Y-129967299D01*
X91301723Y-130200688D01*
X91480351Y-130379317D01*
X91713740Y-130475990D01*
X92553790Y-130475990D01*
X92712540Y-130317240D01*
X92712540Y-128968500D01*
X92966540Y-128968500D01*
X92966540Y-130317240D01*
X93125290Y-130475990D01*
X93965340Y-130475990D01*
X94198729Y-130379317D01*
X94377357Y-130200688D01*
X94474030Y-129967299D01*
X94474030Y-129127250D01*
X94315280Y-128968500D01*
X92966540Y-128968500D01*
X92712540Y-128968500D01*
X91363800Y-128968500D01*
X91205050Y-129127250D01*
X90462100Y-129127250D01*
X90462100Y-127715701D01*
X91205050Y-127715701D01*
X91205050Y-128555750D01*
X91363800Y-128714500D01*
X92712540Y-128714500D01*
X92712540Y-127365760D01*
X92966540Y-127365760D01*
X92966540Y-128714500D01*
X94315280Y-128714500D01*
X94474030Y-128555750D01*
X94474030Y-127715701D01*
X94377357Y-127482312D01*
X94198729Y-127303683D01*
X93965340Y-127207010D01*
X93125290Y-127207010D01*
X92966540Y-127365760D01*
X92712540Y-127365760D01*
X92553790Y-127207010D01*
X91713740Y-127207010D01*
X91480351Y-127303683D01*
X91301723Y-127482312D01*
X91205050Y-127715701D01*
X90462100Y-127715701D01*
X90462100Y-123139200D01*
X90461841Y-123137898D01*
X90398296Y-122818434D01*
X90216597Y-122546503D01*
X89210825Y-121540731D01*
X89211383Y-121540731D01*
X89702229Y-121337918D01*
X89996961Y-121043700D01*
X91574972Y-121043700D01*
X91583838Y-121090817D01*
X91722910Y-121306941D01*
X91935110Y-121451931D01*
X92187000Y-121502940D01*
X92949046Y-121502940D01*
X95303340Y-123857234D01*
X95303340Y-126686570D01*
X95142050Y-126686570D01*
X94906733Y-126730848D01*
X94690609Y-126869920D01*
X94545619Y-127082120D01*
X94494610Y-127334010D01*
X94494610Y-129332990D01*
X94538888Y-129568307D01*
X94677960Y-129784431D01*
X94890160Y-129929421D01*
X95142050Y-129980430D01*
X97141030Y-129980430D01*
X97376347Y-129936152D01*
X97592471Y-129797080D01*
X97737461Y-129584880D01*
X97788470Y-129332990D01*
X97788470Y-129171700D01*
X109799906Y-129171700D01*
X110964103Y-130335897D01*
X111236035Y-130517596D01*
X111556800Y-130581400D01*
X150272800Y-130581400D01*
X150390732Y-130757898D01*
X150856279Y-131068967D01*
X150952200Y-131088047D01*
X150952200Y-132283200D01*
X151016004Y-132603966D01*
X151197703Y-132875897D01*
X151762960Y-133441154D01*
X151762960Y-134203200D01*
X151807238Y-134438517D01*
X151946310Y-134654641D01*
X152158510Y-134799631D01*
X152410400Y-134850640D01*
X153710400Y-134850640D01*
X153945717Y-134806362D01*
X154161841Y-134667290D01*
X154306831Y-134455090D01*
X154357840Y-134203200D01*
X154357840Y-133372278D01*
X156762778Y-133372278D01*
X156792317Y-133882628D01*
X156930789Y-134216929D01*
X157161384Y-134272610D01*
X157880795Y-133553200D01*
X157161384Y-132833790D01*
X156930789Y-132889471D01*
X156762778Y-133372278D01*
X154357840Y-133372278D01*
X154357840Y-132903200D01*
X154313562Y-132667883D01*
X154174490Y-132451759D01*
X153962290Y-132306769D01*
X153710400Y-132255760D01*
X152948354Y-132255760D01*
X152628600Y-131936006D01*
X152628600Y-131088047D01*
X152724521Y-131068967D01*
X153190068Y-130757898D01*
X153501137Y-130292351D01*
X153610370Y-129743200D01*
X153501137Y-129194049D01*
X153190068Y-128728502D01*
X152807982Y-128473200D01*
X153190068Y-128217898D01*
X153501137Y-127752351D01*
X153610370Y-127203200D01*
X153501137Y-126654049D01*
X153190068Y-126188502D01*
X152807982Y-125933200D01*
X153190068Y-125677898D01*
X153501137Y-125212351D01*
X153610370Y-124663200D01*
X153501137Y-124114049D01*
X153190068Y-123648502D01*
X152807982Y-123393200D01*
X153190068Y-123137898D01*
X153501137Y-122672351D01*
X153610370Y-122123200D01*
X153501137Y-121574049D01*
X153190068Y-121108502D01*
X152724521Y-120797433D01*
X152175370Y-120688200D01*
X151405430Y-120688200D01*
X150856279Y-120797433D01*
X150390732Y-121108502D01*
X150079663Y-121574049D01*
X149970430Y-122123200D01*
X150079663Y-122672351D01*
X150390732Y-123137898D01*
X150772818Y-123393200D01*
X150390732Y-123648502D01*
X150079663Y-124114049D01*
X149970430Y-124663200D01*
X150079663Y-125212351D01*
X150390732Y-125677898D01*
X150772818Y-125933200D01*
X150390732Y-126188502D01*
X150079663Y-126654049D01*
X149970430Y-127203200D01*
X150079663Y-127752351D01*
X150390732Y-128217898D01*
X150772818Y-128473200D01*
X150390732Y-128728502D01*
X150272800Y-128905000D01*
X111903994Y-128905000D01*
X111332494Y-128333500D01*
X121321044Y-118344950D01*
X151775400Y-118344950D01*
X151775400Y-118835510D01*
X151872073Y-119068899D01*
X152050702Y-119247527D01*
X152284091Y-119344200D01*
X152774650Y-119344200D01*
X152933400Y-119185450D01*
X152933400Y-118186200D01*
X153187400Y-118186200D01*
X153187400Y-119185450D01*
X153346150Y-119344200D01*
X153836709Y-119344200D01*
X154070098Y-119247527D01*
X154248727Y-119068899D01*
X154345400Y-118835510D01*
X154345400Y-118344950D01*
X154186650Y-118186200D01*
X153187400Y-118186200D01*
X152933400Y-118186200D01*
X151934150Y-118186200D01*
X151775400Y-118344950D01*
X121321044Y-118344950D01*
X122383104Y-117282890D01*
X151775400Y-117282890D01*
X151775400Y-117773450D01*
X151934150Y-117932200D01*
X152933400Y-117932200D01*
X152933400Y-116932950D01*
X153187400Y-116932950D01*
X153187400Y-117932200D01*
X154186650Y-117932200D01*
X154345400Y-117773450D01*
X154345400Y-117282890D01*
X154248727Y-117049501D01*
X154070098Y-116870873D01*
X153836709Y-116774200D01*
X153346150Y-116774200D01*
X153187400Y-116932950D01*
X152933400Y-116932950D01*
X152774650Y-116774200D01*
X152284091Y-116774200D01*
X152050702Y-116870873D01*
X151872073Y-117049501D01*
X151775400Y-117282890D01*
X122383104Y-117282890D01*
X123994380Y-115671614D01*
X124333000Y-115738970D01*
X124882151Y-115629737D01*
X125347698Y-115318668D01*
X125603000Y-114936582D01*
X125858302Y-115318668D01*
X126323849Y-115629737D01*
X126873000Y-115738970D01*
X127422151Y-115629737D01*
X127887698Y-115318668D01*
X128143000Y-114936582D01*
X128398302Y-115318668D01*
X128863849Y-115629737D01*
X129413000Y-115738970D01*
X129962151Y-115629737D01*
X130427698Y-115318668D01*
X130683000Y-114936582D01*
X130938302Y-115318668D01*
X131403849Y-115629737D01*
X131953000Y-115738970D01*
X132502151Y-115629737D01*
X132967698Y-115318668D01*
X133220149Y-114940849D01*
X133568104Y-115373500D01*
X134061181Y-115643367D01*
X134143961Y-115660904D01*
X134366000Y-115538915D01*
X134366000Y-114046000D01*
X134620000Y-114046000D01*
X134620000Y-115538915D01*
X134842039Y-115660904D01*
X134924819Y-115643367D01*
X135417896Y-115373500D01*
X135763000Y-114944393D01*
X136108104Y-115373500D01*
X136601181Y-115643367D01*
X136683961Y-115660904D01*
X136906000Y-115538915D01*
X136906000Y-114046000D01*
X137160000Y-114046000D01*
X137160000Y-115538915D01*
X137382039Y-115660904D01*
X137464819Y-115643367D01*
X137957896Y-115373500D01*
X138310166Y-114935483D01*
X138468000Y-114396000D01*
X138468000Y-114046000D01*
X137160000Y-114046000D01*
X136906000Y-114046000D01*
X134620000Y-114046000D01*
X134366000Y-114046000D01*
X134346000Y-114046000D01*
X134346000Y-113792000D01*
X134366000Y-113792000D01*
X134366000Y-113772000D01*
X134620000Y-113772000D01*
X134620000Y-113792000D01*
X136906000Y-113792000D01*
X136906000Y-112299085D01*
X137160000Y-112299085D01*
X137160000Y-113792000D01*
X138468000Y-113792000D01*
X138468000Y-113442000D01*
X138310166Y-112902517D01*
X137957896Y-112464500D01*
X137464819Y-112194633D01*
X137382039Y-112177096D01*
X137160000Y-112299085D01*
X136906000Y-112299085D01*
X136683961Y-112177096D01*
X136601181Y-112194633D01*
X136108104Y-112464500D01*
X135763000Y-112893607D01*
X135417896Y-112464500D01*
X134924819Y-112194633D01*
X134842039Y-112177096D01*
X134625142Y-112296260D01*
X139042318Y-107879084D01*
X139059283Y-107920143D01*
X139322073Y-108183392D01*
X139665601Y-108326038D01*
X140037567Y-108326362D01*
X140381343Y-108184317D01*
X140414518Y-108151200D01*
X150268674Y-108151200D01*
X150263732Y-108154502D01*
X149952663Y-108620049D01*
X149843430Y-109169200D01*
X149952663Y-109718351D01*
X150011362Y-109806200D01*
X145694400Y-109806200D01*
X145403560Y-109864052D01*
X145156999Y-110028799D01*
X144751220Y-110434578D01*
X144496947Y-110328994D01*
X143846706Y-110328426D01*
X143245745Y-110576738D01*
X142785554Y-111036127D01*
X142536194Y-111636653D01*
X142535626Y-112286894D01*
X142606268Y-112457860D01*
X142452252Y-112688361D01*
X142394400Y-112979200D01*
X142394400Y-114321669D01*
X142364097Y-114334190D01*
X141970771Y-114726830D01*
X141757643Y-115240100D01*
X141757158Y-115795861D01*
X141969390Y-116309503D01*
X142362030Y-116702829D01*
X142875300Y-116915957D01*
X143431061Y-116916442D01*
X143944703Y-116704210D01*
X144338029Y-116311570D01*
X144424349Y-116103688D01*
X144509390Y-116309503D01*
X144902030Y-116702829D01*
X145415300Y-116915957D01*
X145971061Y-116916442D01*
X146484703Y-116704210D01*
X146689857Y-116499413D01*
X147433792Y-116499413D01*
X147503257Y-116741597D01*
X148026702Y-116928344D01*
X148581768Y-116900562D01*
X148965543Y-116741597D01*
X149035008Y-116499413D01*
X148234400Y-115698805D01*
X147433792Y-116499413D01*
X146689857Y-116499413D01*
X146878029Y-116311570D01*
X146957795Y-116119473D01*
X147012003Y-116250343D01*
X147254187Y-116319808D01*
X148054795Y-115519200D01*
X148414005Y-115519200D01*
X149214613Y-116319808D01*
X149456797Y-116250343D01*
X149643544Y-115726898D01*
X149615762Y-115171832D01*
X149456797Y-114788057D01*
X149214613Y-114718592D01*
X148414005Y-115519200D01*
X148054795Y-115519200D01*
X147254187Y-114718592D01*
X147012003Y-114788057D01*
X146961891Y-114928518D01*
X146879410Y-114728897D01*
X146689832Y-114538987D01*
X147433792Y-114538987D01*
X148234400Y-115339595D01*
X148975756Y-114598239D01*
X149921496Y-114598239D01*
X149939033Y-114681019D01*
X150208900Y-115174096D01*
X150646917Y-115526366D01*
X151186400Y-115684200D01*
X151536400Y-115684200D01*
X151536400Y-114376200D01*
X151790400Y-114376200D01*
X151790400Y-115684200D01*
X152140400Y-115684200D01*
X152679883Y-115526366D01*
X153117900Y-115174096D01*
X153387767Y-114681019D01*
X153405304Y-114598239D01*
X153283315Y-114376200D01*
X151790400Y-114376200D01*
X151536400Y-114376200D01*
X150043485Y-114376200D01*
X149921496Y-114598239D01*
X148975756Y-114598239D01*
X149035008Y-114538987D01*
X148965543Y-114296803D01*
X148442098Y-114110056D01*
X147887032Y-114137838D01*
X147503257Y-114296803D01*
X147433792Y-114538987D01*
X146689832Y-114538987D01*
X146486770Y-114335571D01*
X146454400Y-114322130D01*
X146454400Y-113802002D01*
X146727317Y-113529085D01*
X146891853Y-113597406D01*
X147542094Y-113597974D01*
X148143055Y-113349662D01*
X148603246Y-112890273D01*
X148852606Y-112289747D01*
X148853174Y-111639506D01*
X148723719Y-111326200D01*
X149919613Y-111326200D01*
X149843430Y-111709200D01*
X149952663Y-112258351D01*
X150263732Y-112723898D01*
X150641551Y-112976349D01*
X150208900Y-113324304D01*
X149939033Y-113817381D01*
X149921496Y-113900161D01*
X150043485Y-114122200D01*
X151536400Y-114122200D01*
X151536400Y-114102200D01*
X151790400Y-114102200D01*
X151790400Y-114122200D01*
X153283315Y-114122200D01*
X153405304Y-113900161D01*
X153387767Y-113817381D01*
X153117900Y-113324304D01*
X152685249Y-112976349D01*
X153063068Y-112723898D01*
X153374137Y-112258351D01*
X153483370Y-111709200D01*
X153374137Y-111160049D01*
X153063068Y-110694502D01*
X152680982Y-110439200D01*
X153063068Y-110183898D01*
X153374137Y-109718351D01*
X153483370Y-109169200D01*
X153374137Y-108620049D01*
X153063068Y-108154502D01*
X152680982Y-107899200D01*
X153063068Y-107643898D01*
X153374137Y-107178351D01*
X153483370Y-106629200D01*
X153374137Y-106080049D01*
X153063068Y-105614502D01*
X152680982Y-105359200D01*
X153063068Y-105103898D01*
X153374137Y-104638351D01*
X153483370Y-104089200D01*
X153374137Y-103540049D01*
X153063068Y-103074502D01*
X152680982Y-102819200D01*
X153063068Y-102563898D01*
X153374137Y-102098351D01*
X153483370Y-101549200D01*
X153374137Y-101000049D01*
X153063068Y-100534502D01*
X152917285Y-100437093D01*
X153048717Y-100412362D01*
X153264841Y-100273290D01*
X153409831Y-100061090D01*
X153460840Y-99809200D01*
X153460840Y-98209200D01*
X153416562Y-97973883D01*
X153314581Y-97815400D01*
X156362400Y-97815400D01*
X156683166Y-97751596D01*
X156955097Y-97569897D01*
X157901354Y-96623640D01*
X158125446Y-96623640D01*
X158445200Y-96943394D01*
X158445200Y-96943394D01*
G37*
X158445200Y-96943394D02*
X158445200Y-97664353D01*
X158349279Y-97683433D01*
X157883732Y-97994502D01*
X157572663Y-98460049D01*
X157463430Y-99009200D01*
X157572663Y-99558351D01*
X157883732Y-100023898D01*
X158265818Y-100279200D01*
X157883732Y-100534502D01*
X157572663Y-101000049D01*
X157463430Y-101549200D01*
X157572663Y-102098351D01*
X157607424Y-102150374D01*
X156967999Y-102789799D01*
X156803252Y-103036361D01*
X156745400Y-103327200D01*
X156745400Y-110312200D01*
X156803252Y-110603039D01*
X156967999Y-110849601D01*
X157523849Y-111405451D01*
X157463430Y-111709200D01*
X157564546Y-112217544D01*
X156408522Y-111061520D01*
X156408562Y-111016033D01*
X156266517Y-110672257D01*
X156003727Y-110409008D01*
X155660199Y-110266362D01*
X155288233Y-110266038D01*
X154944457Y-110408083D01*
X154681208Y-110670873D01*
X154538562Y-111014401D01*
X154538238Y-111386367D01*
X154680283Y-111730143D01*
X154943073Y-111993392D01*
X155286601Y-112136038D01*
X155333477Y-112136079D01*
X157467609Y-114270211D01*
X157572663Y-114798351D01*
X157883732Y-115263898D01*
X158349279Y-115574967D01*
X158898430Y-115684200D01*
X159668370Y-115684200D01*
X160217521Y-115574967D01*
X160683068Y-115263898D01*
X160961000Y-114847944D01*
X160961000Y-121334387D01*
X160810068Y-121108502D01*
X160344521Y-120797433D01*
X159795370Y-120688200D01*
X159160794Y-120688200D01*
X158898600Y-120426006D01*
X158898600Y-119038142D01*
X159149135Y-118788045D01*
X159345177Y-118315924D01*
X159345623Y-117804719D01*
X159150405Y-117332257D01*
X158789245Y-116970465D01*
X158317124Y-116774423D01*
X157805919Y-116773977D01*
X157333457Y-116969195D01*
X156971665Y-117330355D01*
X156775623Y-117802476D01*
X156775177Y-118313681D01*
X156970395Y-118786143D01*
X157222200Y-119038389D01*
X157222200Y-120773200D01*
X157286004Y-121093966D01*
X157467703Y-121365897D01*
X157695713Y-121593907D01*
X157653604Y-121805602D01*
X156531703Y-122927503D01*
X156350004Y-123199434D01*
X156300369Y-123448967D01*
X156286200Y-123520200D01*
X156286200Y-130378200D01*
X156350004Y-130698966D01*
X156531703Y-130970897D01*
X157839634Y-132278828D01*
X157730972Y-132285117D01*
X157396671Y-132423589D01*
X157340990Y-132654184D01*
X158060400Y-133373595D01*
X158074542Y-133359452D01*
X158254148Y-133539058D01*
X158240005Y-133553200D01*
X158254148Y-133567342D01*
X158074542Y-133746948D01*
X158060400Y-133732805D01*
X157340990Y-134452216D01*
X157396671Y-134682811D01*
X157879478Y-134850822D01*
X158389828Y-134821283D01*
X158724129Y-134682811D01*
X158779810Y-134452218D01*
X158826200Y-134498608D01*
X158826200Y-140445006D01*
X152205206Y-147066000D01*
X97097020Y-147066000D01*
X97170000Y-146889810D01*
X97170000Y-146399250D01*
X97011250Y-146240500D01*
X96012000Y-146240500D01*
X96012000Y-146260500D01*
X95758000Y-146260500D01*
X95758000Y-146240500D01*
X95738000Y-146240500D01*
X95738000Y-145986500D01*
X95758000Y-145986500D01*
X95758000Y-144987250D01*
X96012000Y-144987250D01*
X96012000Y-145986500D01*
X97011250Y-145986500D01*
X97170000Y-145827750D01*
X97170000Y-145337190D01*
X97073327Y-145103801D01*
X96894698Y-144925173D01*
X96661309Y-144828500D01*
X96170750Y-144828500D01*
X96012000Y-144987250D01*
X95758000Y-144987250D01*
X95599250Y-144828500D01*
X95108691Y-144828500D01*
X94875302Y-144925173D01*
X94696673Y-145103801D01*
X94600000Y-145337190D01*
X94600000Y-145689067D01*
X94475005Y-145386557D01*
X94113845Y-145024765D01*
X93677740Y-144843678D01*
X93677740Y-140423684D01*
X93764195Y-140387962D01*
X94224386Y-139928573D01*
X94341860Y-139645663D01*
X95168983Y-139645663D01*
X95267582Y-139912465D01*
X95877122Y-140138901D01*
X96526917Y-140114841D01*
X97015498Y-139912465D01*
X97114097Y-139645663D01*
X96141540Y-138673105D01*
X95168983Y-139645663D01*
X94341860Y-139645663D01*
X94473746Y-139328047D01*
X94474314Y-138677806D01*
X94288906Y-138229082D01*
X94496139Y-138229082D01*
X94520199Y-138878877D01*
X94722575Y-139367458D01*
X94989377Y-139466057D01*
X95961935Y-138493500D01*
X96321145Y-138493500D01*
X97293703Y-139466057D01*
X97560505Y-139367458D01*
X97786941Y-138757918D01*
X97762881Y-138108123D01*
X97560505Y-137619542D01*
X97293703Y-137520943D01*
X96321145Y-138493500D01*
X95961935Y-138493500D01*
X94989377Y-137520943D01*
X94722575Y-137619542D01*
X94496139Y-138229082D01*
X94288906Y-138229082D01*
X94226002Y-138076845D01*
X93766613Y-137616654D01*
X93677740Y-137579751D01*
X93677740Y-137341337D01*
X95168983Y-137341337D01*
X96141540Y-138313895D01*
X97114097Y-137341337D01*
X97015498Y-137074535D01*
X96405958Y-136848099D01*
X95756163Y-136872159D01*
X95267582Y-137074535D01*
X95168983Y-137341337D01*
X93677740Y-137341337D01*
X93677740Y-137276840D01*
X93613936Y-136956075D01*
X93432237Y-136684143D01*
X90462100Y-133714006D01*
X90462100Y-129127250D01*
X91205050Y-129127250D01*
X91205050Y-129967299D01*
X91301723Y-130200688D01*
X91480351Y-130379317D01*
X91713740Y-130475990D01*
X92553790Y-130475990D01*
X92712540Y-130317240D01*
X92712540Y-128968500D01*
X92966540Y-128968500D01*
X92966540Y-130317240D01*
X93125290Y-130475990D01*
X93965340Y-130475990D01*
X94198729Y-130379317D01*
X94377357Y-130200688D01*
X94474030Y-129967299D01*
X94474030Y-129127250D01*
X94315280Y-128968500D01*
X92966540Y-128968500D01*
X92712540Y-128968500D01*
X91363800Y-128968500D01*
X91205050Y-129127250D01*
X90462100Y-129127250D01*
X90462100Y-127715701D01*
X91205050Y-127715701D01*
X91205050Y-128555750D01*
X91363800Y-128714500D01*
X92712540Y-128714500D01*
X92712540Y-127365760D01*
X92966540Y-127365760D01*
X92966540Y-128714500D01*
X94315280Y-128714500D01*
X94474030Y-128555750D01*
X94474030Y-127715701D01*
X94377357Y-127482312D01*
X94198729Y-127303683D01*
X93965340Y-127207010D01*
X93125290Y-127207010D01*
X92966540Y-127365760D01*
X92712540Y-127365760D01*
X92553790Y-127207010D01*
X91713740Y-127207010D01*
X91480351Y-127303683D01*
X91301723Y-127482312D01*
X91205050Y-127715701D01*
X90462100Y-127715701D01*
X90462100Y-123139200D01*
X90461841Y-123137898D01*
X90398296Y-122818434D01*
X90216597Y-122546503D01*
X89210825Y-121540731D01*
X89211383Y-121540731D01*
X89702229Y-121337918D01*
X89996961Y-121043700D01*
X91574972Y-121043700D01*
X91583838Y-121090817D01*
X91722910Y-121306941D01*
X91935110Y-121451931D01*
X92187000Y-121502940D01*
X92949046Y-121502940D01*
X95303340Y-123857234D01*
X95303340Y-126686570D01*
X95142050Y-126686570D01*
X94906733Y-126730848D01*
X94690609Y-126869920D01*
X94545619Y-127082120D01*
X94494610Y-127334010D01*
X94494610Y-129332990D01*
X94538888Y-129568307D01*
X94677960Y-129784431D01*
X94890160Y-129929421D01*
X95142050Y-129980430D01*
X97141030Y-129980430D01*
X97376347Y-129936152D01*
X97592471Y-129797080D01*
X97737461Y-129584880D01*
X97788470Y-129332990D01*
X97788470Y-129171700D01*
X109799906Y-129171700D01*
X110964103Y-130335897D01*
X111236035Y-130517596D01*
X111556800Y-130581400D01*
X150272800Y-130581400D01*
X150390732Y-130757898D01*
X150856279Y-131068967D01*
X150952200Y-131088047D01*
X150952200Y-132283200D01*
X151016004Y-132603966D01*
X151197703Y-132875897D01*
X151762960Y-133441154D01*
X151762960Y-134203200D01*
X151807238Y-134438517D01*
X151946310Y-134654641D01*
X152158510Y-134799631D01*
X152410400Y-134850640D01*
X153710400Y-134850640D01*
X153945717Y-134806362D01*
X154161841Y-134667290D01*
X154306831Y-134455090D01*
X154357840Y-134203200D01*
X154357840Y-133372278D01*
X156762778Y-133372278D01*
X156792317Y-133882628D01*
X156930789Y-134216929D01*
X157161384Y-134272610D01*
X157880795Y-133553200D01*
X157161384Y-132833790D01*
X156930789Y-132889471D01*
X156762778Y-133372278D01*
X154357840Y-133372278D01*
X154357840Y-132903200D01*
X154313562Y-132667883D01*
X154174490Y-132451759D01*
X153962290Y-132306769D01*
X153710400Y-132255760D01*
X152948354Y-132255760D01*
X152628600Y-131936006D01*
X152628600Y-131088047D01*
X152724521Y-131068967D01*
X153190068Y-130757898D01*
X153501137Y-130292351D01*
X153610370Y-129743200D01*
X153501137Y-129194049D01*
X153190068Y-128728502D01*
X152807982Y-128473200D01*
X153190068Y-128217898D01*
X153501137Y-127752351D01*
X153610370Y-127203200D01*
X153501137Y-126654049D01*
X153190068Y-126188502D01*
X152807982Y-125933200D01*
X153190068Y-125677898D01*
X153501137Y-125212351D01*
X153610370Y-124663200D01*
X153501137Y-124114049D01*
X153190068Y-123648502D01*
X152807982Y-123393200D01*
X153190068Y-123137898D01*
X153501137Y-122672351D01*
X153610370Y-122123200D01*
X153501137Y-121574049D01*
X153190068Y-121108502D01*
X152724521Y-120797433D01*
X152175370Y-120688200D01*
X151405430Y-120688200D01*
X150856279Y-120797433D01*
X150390732Y-121108502D01*
X150079663Y-121574049D01*
X149970430Y-122123200D01*
X150079663Y-122672351D01*
X150390732Y-123137898D01*
X150772818Y-123393200D01*
X150390732Y-123648502D01*
X150079663Y-124114049D01*
X149970430Y-124663200D01*
X150079663Y-125212351D01*
X150390732Y-125677898D01*
X150772818Y-125933200D01*
X150390732Y-126188502D01*
X150079663Y-126654049D01*
X149970430Y-127203200D01*
X150079663Y-127752351D01*
X150390732Y-128217898D01*
X150772818Y-128473200D01*
X150390732Y-128728502D01*
X150272800Y-128905000D01*
X111903994Y-128905000D01*
X111332494Y-128333500D01*
X121321044Y-118344950D01*
X151775400Y-118344950D01*
X151775400Y-118835510D01*
X151872073Y-119068899D01*
X152050702Y-119247527D01*
X152284091Y-119344200D01*
X152774650Y-119344200D01*
X152933400Y-119185450D01*
X152933400Y-118186200D01*
X153187400Y-118186200D01*
X153187400Y-119185450D01*
X153346150Y-119344200D01*
X153836709Y-119344200D01*
X154070098Y-119247527D01*
X154248727Y-119068899D01*
X154345400Y-118835510D01*
X154345400Y-118344950D01*
X154186650Y-118186200D01*
X153187400Y-118186200D01*
X152933400Y-118186200D01*
X151934150Y-118186200D01*
X151775400Y-118344950D01*
X121321044Y-118344950D01*
X122383104Y-117282890D01*
X151775400Y-117282890D01*
X151775400Y-117773450D01*
X151934150Y-117932200D01*
X152933400Y-117932200D01*
X152933400Y-116932950D01*
X153187400Y-116932950D01*
X153187400Y-117932200D01*
X154186650Y-117932200D01*
X154345400Y-117773450D01*
X154345400Y-117282890D01*
X154248727Y-117049501D01*
X154070098Y-116870873D01*
X153836709Y-116774200D01*
X153346150Y-116774200D01*
X153187400Y-116932950D01*
X152933400Y-116932950D01*
X152774650Y-116774200D01*
X152284091Y-116774200D01*
X152050702Y-116870873D01*
X151872073Y-117049501D01*
X151775400Y-117282890D01*
X122383104Y-117282890D01*
X123994380Y-115671614D01*
X124333000Y-115738970D01*
X124882151Y-115629737D01*
X125347698Y-115318668D01*
X125603000Y-114936582D01*
X125858302Y-115318668D01*
X126323849Y-115629737D01*
X126873000Y-115738970D01*
X127422151Y-115629737D01*
X127887698Y-115318668D01*
X128143000Y-114936582D01*
X128398302Y-115318668D01*
X128863849Y-115629737D01*
X129413000Y-115738970D01*
X129962151Y-115629737D01*
X130427698Y-115318668D01*
X130683000Y-114936582D01*
X130938302Y-115318668D01*
X131403849Y-115629737D01*
X131953000Y-115738970D01*
X132502151Y-115629737D01*
X132967698Y-115318668D01*
X133220149Y-114940849D01*
X133568104Y-115373500D01*
X134061181Y-115643367D01*
X134143961Y-115660904D01*
X134366000Y-115538915D01*
X134366000Y-114046000D01*
X134620000Y-114046000D01*
X134620000Y-115538915D01*
X134842039Y-115660904D01*
X134924819Y-115643367D01*
X135417896Y-115373500D01*
X135763000Y-114944393D01*
X136108104Y-115373500D01*
X136601181Y-115643367D01*
X136683961Y-115660904D01*
X136906000Y-115538915D01*
X136906000Y-114046000D01*
X137160000Y-114046000D01*
X137160000Y-115538915D01*
X137382039Y-115660904D01*
X137464819Y-115643367D01*
X137957896Y-115373500D01*
X138310166Y-114935483D01*
X138468000Y-114396000D01*
X138468000Y-114046000D01*
X137160000Y-114046000D01*
X136906000Y-114046000D01*
X134620000Y-114046000D01*
X134366000Y-114046000D01*
X134346000Y-114046000D01*
X134346000Y-113792000D01*
X134366000Y-113792000D01*
X134366000Y-113772000D01*
X134620000Y-113772000D01*
X134620000Y-113792000D01*
X136906000Y-113792000D01*
X136906000Y-112299085D01*
X137160000Y-112299085D01*
X137160000Y-113792000D01*
X138468000Y-113792000D01*
X138468000Y-113442000D01*
X138310166Y-112902517D01*
X137957896Y-112464500D01*
X137464819Y-112194633D01*
X137382039Y-112177096D01*
X137160000Y-112299085D01*
X136906000Y-112299085D01*
X136683961Y-112177096D01*
X136601181Y-112194633D01*
X136108104Y-112464500D01*
X135763000Y-112893607D01*
X135417896Y-112464500D01*
X134924819Y-112194633D01*
X134842039Y-112177096D01*
X134625142Y-112296260D01*
X139042318Y-107879084D01*
X139059283Y-107920143D01*
X139322073Y-108183392D01*
X139665601Y-108326038D01*
X140037567Y-108326362D01*
X140381343Y-108184317D01*
X140414518Y-108151200D01*
X150268674Y-108151200D01*
X150263732Y-108154502D01*
X149952663Y-108620049D01*
X149843430Y-109169200D01*
X149952663Y-109718351D01*
X150011362Y-109806200D01*
X145694400Y-109806200D01*
X145403560Y-109864052D01*
X145156999Y-110028799D01*
X144751220Y-110434578D01*
X144496947Y-110328994D01*
X143846706Y-110328426D01*
X143245745Y-110576738D01*
X142785554Y-111036127D01*
X142536194Y-111636653D01*
X142535626Y-112286894D01*
X142606268Y-112457860D01*
X142452252Y-112688361D01*
X142394400Y-112979200D01*
X142394400Y-114321669D01*
X142364097Y-114334190D01*
X141970771Y-114726830D01*
X141757643Y-115240100D01*
X141757158Y-115795861D01*
X141969390Y-116309503D01*
X142362030Y-116702829D01*
X142875300Y-116915957D01*
X143431061Y-116916442D01*
X143944703Y-116704210D01*
X144338029Y-116311570D01*
X144424349Y-116103688D01*
X144509390Y-116309503D01*
X144902030Y-116702829D01*
X145415300Y-116915957D01*
X145971061Y-116916442D01*
X146484703Y-116704210D01*
X146689857Y-116499413D01*
X147433792Y-116499413D01*
X147503257Y-116741597D01*
X148026702Y-116928344D01*
X148581768Y-116900562D01*
X148965543Y-116741597D01*
X149035008Y-116499413D01*
X148234400Y-115698805D01*
X147433792Y-116499413D01*
X146689857Y-116499413D01*
X146878029Y-116311570D01*
X146957795Y-116119473D01*
X147012003Y-116250343D01*
X147254187Y-116319808D01*
X148054795Y-115519200D01*
X148414005Y-115519200D01*
X149214613Y-116319808D01*
X149456797Y-116250343D01*
X149643544Y-115726898D01*
X149615762Y-115171832D01*
X149456797Y-114788057D01*
X149214613Y-114718592D01*
X148414005Y-115519200D01*
X148054795Y-115519200D01*
X147254187Y-114718592D01*
X147012003Y-114788057D01*
X146961891Y-114928518D01*
X146879410Y-114728897D01*
X146689832Y-114538987D01*
X147433792Y-114538987D01*
X148234400Y-115339595D01*
X148975756Y-114598239D01*
X149921496Y-114598239D01*
X149939033Y-114681019D01*
X150208900Y-115174096D01*
X150646917Y-115526366D01*
X151186400Y-115684200D01*
X151536400Y-115684200D01*
X151536400Y-114376200D01*
X151790400Y-114376200D01*
X151790400Y-115684200D01*
X152140400Y-115684200D01*
X152679883Y-115526366D01*
X153117900Y-115174096D01*
X153387767Y-114681019D01*
X153405304Y-114598239D01*
X153283315Y-114376200D01*
X151790400Y-114376200D01*
X151536400Y-114376200D01*
X150043485Y-114376200D01*
X149921496Y-114598239D01*
X148975756Y-114598239D01*
X149035008Y-114538987D01*
X148965543Y-114296803D01*
X148442098Y-114110056D01*
X147887032Y-114137838D01*
X147503257Y-114296803D01*
X147433792Y-114538987D01*
X146689832Y-114538987D01*
X146486770Y-114335571D01*
X146454400Y-114322130D01*
X146454400Y-113802002D01*
X146727317Y-113529085D01*
X146891853Y-113597406D01*
X147542094Y-113597974D01*
X148143055Y-113349662D01*
X148603246Y-112890273D01*
X148852606Y-112289747D01*
X148853174Y-111639506D01*
X148723719Y-111326200D01*
X149919613Y-111326200D01*
X149843430Y-111709200D01*
X149952663Y-112258351D01*
X150263732Y-112723898D01*
X150641551Y-112976349D01*
X150208900Y-113324304D01*
X149939033Y-113817381D01*
X149921496Y-113900161D01*
X150043485Y-114122200D01*
X151536400Y-114122200D01*
X151536400Y-114102200D01*
X151790400Y-114102200D01*
X151790400Y-114122200D01*
X153283315Y-114122200D01*
X153405304Y-113900161D01*
X153387767Y-113817381D01*
X153117900Y-113324304D01*
X152685249Y-112976349D01*
X153063068Y-112723898D01*
X153374137Y-112258351D01*
X153483370Y-111709200D01*
X153374137Y-111160049D01*
X153063068Y-110694502D01*
X152680982Y-110439200D01*
X153063068Y-110183898D01*
X153374137Y-109718351D01*
X153483370Y-109169200D01*
X153374137Y-108620049D01*
X153063068Y-108154502D01*
X152680982Y-107899200D01*
X153063068Y-107643898D01*
X153374137Y-107178351D01*
X153483370Y-106629200D01*
X153374137Y-106080049D01*
X153063068Y-105614502D01*
X152680982Y-105359200D01*
X153063068Y-105103898D01*
X153374137Y-104638351D01*
X153483370Y-104089200D01*
X153374137Y-103540049D01*
X153063068Y-103074502D01*
X152680982Y-102819200D01*
X153063068Y-102563898D01*
X153374137Y-102098351D01*
X153483370Y-101549200D01*
X153374137Y-101000049D01*
X153063068Y-100534502D01*
X152917285Y-100437093D01*
X153048717Y-100412362D01*
X153264841Y-100273290D01*
X153409831Y-100061090D01*
X153460840Y-99809200D01*
X153460840Y-98209200D01*
X153416562Y-97973883D01*
X153314581Y-97815400D01*
X156362400Y-97815400D01*
X156683166Y-97751596D01*
X156955097Y-97569897D01*
X157901354Y-96623640D01*
X158125446Y-96623640D01*
X158445200Y-96943394D01*
G36*
X93183663Y-109337351D02*
X93494732Y-109802898D01*
X93640515Y-109900307D01*
X93509083Y-109925038D01*
X93292959Y-110064110D01*
X93147969Y-110276310D01*
X93096960Y-110528200D01*
X93096960Y-112128200D01*
X93141238Y-112363517D01*
X93280310Y-112579641D01*
X93492510Y-112724631D01*
X93744400Y-112775640D01*
X96044400Y-112775640D01*
X96279717Y-112731362D01*
X96495841Y-112592290D01*
X96640831Y-112380090D01*
X96691840Y-112128200D01*
X96691840Y-112088200D01*
X103536805Y-112088200D01*
X103501041Y-112268000D01*
X103615115Y-112841489D01*
X103939971Y-113327670D01*
X104254752Y-113538000D01*
X103939971Y-113748330D01*
X103615115Y-114234511D01*
X103501041Y-114808000D01*
X103615115Y-115381489D01*
X103939971Y-115867670D01*
X104254752Y-116078000D01*
X103939971Y-116288330D01*
X103615115Y-116774511D01*
X103501041Y-117348000D01*
X103615115Y-117921489D01*
X103939971Y-118407670D01*
X104254752Y-118618000D01*
X103939971Y-118828330D01*
X103615115Y-119314511D01*
X103501041Y-119888000D01*
X103615115Y-120461489D01*
X103939971Y-120947670D01*
X104426152Y-121272526D01*
X104999641Y-121386600D01*
X105058359Y-121386600D01*
X105631848Y-121272526D01*
X106118029Y-120947670D01*
X106299000Y-120676828D01*
X106479971Y-120947670D01*
X106966152Y-121272526D01*
X107539641Y-121386600D01*
X107598359Y-121386600D01*
X108171848Y-121272526D01*
X108658029Y-120947670D01*
X108982885Y-120461489D01*
X109096959Y-119888000D01*
X108982885Y-119314511D01*
X108658029Y-118828330D01*
X108343248Y-118618000D01*
X108658029Y-118407670D01*
X108982885Y-117921489D01*
X109096959Y-117348000D01*
X108982885Y-116774511D01*
X108658029Y-116288330D01*
X108343248Y-116078000D01*
X108658029Y-115867670D01*
X108982885Y-115381489D01*
X109096959Y-114808000D01*
X109021775Y-114430027D01*
X110237786Y-113214016D01*
X114469590Y-113214016D01*
X114525271Y-113444611D01*
X115008078Y-113612622D01*
X115518428Y-113583083D01*
X115852729Y-113444611D01*
X115908410Y-113214016D01*
X115189000Y-112494605D01*
X114469590Y-113214016D01*
X110237786Y-113214016D01*
X111317724Y-112134078D01*
X113891378Y-112134078D01*
X113920917Y-112644428D01*
X114059389Y-112978729D01*
X114289984Y-113034410D01*
X115009395Y-112315000D01*
X115368605Y-112315000D01*
X116088016Y-113034410D01*
X116318611Y-112978729D01*
X116486622Y-112495922D01*
X116457083Y-111985572D01*
X116318611Y-111651271D01*
X116088016Y-111595590D01*
X115368605Y-112315000D01*
X115009395Y-112315000D01*
X114289984Y-111595590D01*
X114059389Y-111651271D01*
X113891378Y-112134078D01*
X111317724Y-112134078D01*
X112379602Y-111072200D01*
X114798533Y-111072200D01*
X114525271Y-111185389D01*
X114469590Y-111415984D01*
X115189000Y-112135395D01*
X115908410Y-111415984D01*
X115852729Y-111185389D01*
X115527462Y-111072200D01*
X125821598Y-111072200D01*
X126852505Y-112103107D01*
X126323849Y-112208263D01*
X125858302Y-112519332D01*
X125603000Y-112901418D01*
X125347698Y-112519332D01*
X124882151Y-112208263D01*
X124333000Y-112099030D01*
X123783849Y-112208263D01*
X123318302Y-112519332D01*
X123063000Y-112901418D01*
X122807698Y-112519332D01*
X122342151Y-112208263D01*
X121793000Y-112099030D01*
X121243849Y-112208263D01*
X120778302Y-112519332D01*
X120680893Y-112665115D01*
X120656162Y-112533683D01*
X120517090Y-112317559D01*
X120304890Y-112172569D01*
X120053000Y-112121560D01*
X118453000Y-112121560D01*
X118217683Y-112165838D01*
X118001559Y-112304910D01*
X117856569Y-112517110D01*
X117805560Y-112769000D01*
X117805560Y-115069000D01*
X117849838Y-115304317D01*
X117988910Y-115520441D01*
X118201110Y-115665431D01*
X118453000Y-115716440D01*
X120053000Y-115716440D01*
X120288317Y-115672162D01*
X120504441Y-115533090D01*
X120649431Y-115320890D01*
X120679749Y-115171174D01*
X120778302Y-115318668D01*
X121243849Y-115629737D01*
X121595518Y-115699688D01*
X109799906Y-127495300D01*
X97788470Y-127495300D01*
X97788470Y-127334010D01*
X97744192Y-127098693D01*
X97605120Y-126882569D01*
X97392920Y-126737579D01*
X97141030Y-126686570D01*
X96979740Y-126686570D01*
X96979740Y-123510040D01*
X96915936Y-123189274D01*
X96734237Y-122917343D01*
X95311046Y-121494152D01*
X95666428Y-121473583D01*
X96000729Y-121335111D01*
X96056410Y-121104516D01*
X95337000Y-120385105D01*
X95322858Y-120399248D01*
X95143252Y-120219642D01*
X95157395Y-120205500D01*
X95516605Y-120205500D01*
X96236016Y-120924910D01*
X96466611Y-120869229D01*
X96634622Y-120386422D01*
X96605083Y-119876072D01*
X96466611Y-119541771D01*
X96236016Y-119486090D01*
X95516605Y-120205500D01*
X95157395Y-120205500D01*
X94437984Y-119486090D01*
X94207389Y-119541771D01*
X94134440Y-119751402D01*
X94134440Y-119555500D01*
X94090162Y-119320183D01*
X94081347Y-119306484D01*
X94617590Y-119306484D01*
X95337000Y-120025895D01*
X96056410Y-119306484D01*
X96000729Y-119075889D01*
X95517922Y-118907878D01*
X95007572Y-118937417D01*
X94673271Y-119075889D01*
X94617590Y-119306484D01*
X94081347Y-119306484D01*
X93951090Y-119104059D01*
X93738890Y-118959069D01*
X93487000Y-118908060D01*
X92187000Y-118908060D01*
X91951683Y-118952338D01*
X91735559Y-119091410D01*
X91590569Y-119303610D01*
X91577671Y-119367300D01*
X89996592Y-119367300D01*
X89704204Y-119074402D01*
X89382600Y-118940860D01*
X89382600Y-116400228D01*
X89429717Y-116391362D01*
X89645841Y-116252290D01*
X89790831Y-116040090D01*
X89791412Y-116037216D01*
X92824990Y-116037216D01*
X92880671Y-116267811D01*
X93363478Y-116435822D01*
X93873828Y-116406283D01*
X94208129Y-116267811D01*
X94263810Y-116037216D01*
X93544400Y-115317805D01*
X92824990Y-116037216D01*
X89791412Y-116037216D01*
X89841840Y-115788200D01*
X89841840Y-114957278D01*
X92246778Y-114957278D01*
X92276317Y-115467628D01*
X92414789Y-115801929D01*
X92645384Y-115857610D01*
X93364795Y-115138200D01*
X93724005Y-115138200D01*
X94443416Y-115857610D01*
X94674011Y-115801929D01*
X94842022Y-115319122D01*
X94812483Y-114808772D01*
X94674011Y-114474471D01*
X94443416Y-114418790D01*
X93724005Y-115138200D01*
X93364795Y-115138200D01*
X92645384Y-114418790D01*
X92414789Y-114474471D01*
X92246778Y-114957278D01*
X89841840Y-114957278D01*
X89841840Y-114488200D01*
X89797562Y-114252883D01*
X89788747Y-114239184D01*
X92824990Y-114239184D01*
X93544400Y-114958595D01*
X94263810Y-114239184D01*
X94208129Y-114008589D01*
X93725322Y-113840578D01*
X93214972Y-113870117D01*
X92880671Y-114008589D01*
X92824990Y-114239184D01*
X89788747Y-114239184D01*
X89658490Y-114036759D01*
X89446290Y-113891769D01*
X89194400Y-113840760D01*
X88432354Y-113840760D01*
X88112600Y-113521006D01*
X88112600Y-112673047D01*
X88208521Y-112653967D01*
X88674068Y-112342898D01*
X88792000Y-112166400D01*
X89814400Y-112166400D01*
X90135166Y-112102596D01*
X90407097Y-111920897D01*
X93151639Y-109176355D01*
X93183663Y-109337351D01*
X93183663Y-109337351D01*
G37*
X93183663Y-109337351D02*
X93494732Y-109802898D01*
X93640515Y-109900307D01*
X93509083Y-109925038D01*
X93292959Y-110064110D01*
X93147969Y-110276310D01*
X93096960Y-110528200D01*
X93096960Y-112128200D01*
X93141238Y-112363517D01*
X93280310Y-112579641D01*
X93492510Y-112724631D01*
X93744400Y-112775640D01*
X96044400Y-112775640D01*
X96279717Y-112731362D01*
X96495841Y-112592290D01*
X96640831Y-112380090D01*
X96691840Y-112128200D01*
X96691840Y-112088200D01*
X103536805Y-112088200D01*
X103501041Y-112268000D01*
X103615115Y-112841489D01*
X103939971Y-113327670D01*
X104254752Y-113538000D01*
X103939971Y-113748330D01*
X103615115Y-114234511D01*
X103501041Y-114808000D01*
X103615115Y-115381489D01*
X103939971Y-115867670D01*
X104254752Y-116078000D01*
X103939971Y-116288330D01*
X103615115Y-116774511D01*
X103501041Y-117348000D01*
X103615115Y-117921489D01*
X103939971Y-118407670D01*
X104254752Y-118618000D01*
X103939971Y-118828330D01*
X103615115Y-119314511D01*
X103501041Y-119888000D01*
X103615115Y-120461489D01*
X103939971Y-120947670D01*
X104426152Y-121272526D01*
X104999641Y-121386600D01*
X105058359Y-121386600D01*
X105631848Y-121272526D01*
X106118029Y-120947670D01*
X106299000Y-120676828D01*
X106479971Y-120947670D01*
X106966152Y-121272526D01*
X107539641Y-121386600D01*
X107598359Y-121386600D01*
X108171848Y-121272526D01*
X108658029Y-120947670D01*
X108982885Y-120461489D01*
X109096959Y-119888000D01*
X108982885Y-119314511D01*
X108658029Y-118828330D01*
X108343248Y-118618000D01*
X108658029Y-118407670D01*
X108982885Y-117921489D01*
X109096959Y-117348000D01*
X108982885Y-116774511D01*
X108658029Y-116288330D01*
X108343248Y-116078000D01*
X108658029Y-115867670D01*
X108982885Y-115381489D01*
X109096959Y-114808000D01*
X109021775Y-114430027D01*
X110237786Y-113214016D01*
X114469590Y-113214016D01*
X114525271Y-113444611D01*
X115008078Y-113612622D01*
X115518428Y-113583083D01*
X115852729Y-113444611D01*
X115908410Y-113214016D01*
X115189000Y-112494605D01*
X114469590Y-113214016D01*
X110237786Y-113214016D01*
X111317724Y-112134078D01*
X113891378Y-112134078D01*
X113920917Y-112644428D01*
X114059389Y-112978729D01*
X114289984Y-113034410D01*
X115009395Y-112315000D01*
X115368605Y-112315000D01*
X116088016Y-113034410D01*
X116318611Y-112978729D01*
X116486622Y-112495922D01*
X116457083Y-111985572D01*
X116318611Y-111651271D01*
X116088016Y-111595590D01*
X115368605Y-112315000D01*
X115009395Y-112315000D01*
X114289984Y-111595590D01*
X114059389Y-111651271D01*
X113891378Y-112134078D01*
X111317724Y-112134078D01*
X112379602Y-111072200D01*
X114798533Y-111072200D01*
X114525271Y-111185389D01*
X114469590Y-111415984D01*
X115189000Y-112135395D01*
X115908410Y-111415984D01*
X115852729Y-111185389D01*
X115527462Y-111072200D01*
X125821598Y-111072200D01*
X126852505Y-112103107D01*
X126323849Y-112208263D01*
X125858302Y-112519332D01*
X125603000Y-112901418D01*
X125347698Y-112519332D01*
X124882151Y-112208263D01*
X124333000Y-112099030D01*
X123783849Y-112208263D01*
X123318302Y-112519332D01*
X123063000Y-112901418D01*
X122807698Y-112519332D01*
X122342151Y-112208263D01*
X121793000Y-112099030D01*
X121243849Y-112208263D01*
X120778302Y-112519332D01*
X120680893Y-112665115D01*
X120656162Y-112533683D01*
X120517090Y-112317559D01*
X120304890Y-112172569D01*
X120053000Y-112121560D01*
X118453000Y-112121560D01*
X118217683Y-112165838D01*
X118001559Y-112304910D01*
X117856569Y-112517110D01*
X117805560Y-112769000D01*
X117805560Y-115069000D01*
X117849838Y-115304317D01*
X117988910Y-115520441D01*
X118201110Y-115665431D01*
X118453000Y-115716440D01*
X120053000Y-115716440D01*
X120288317Y-115672162D01*
X120504441Y-115533090D01*
X120649431Y-115320890D01*
X120679749Y-115171174D01*
X120778302Y-115318668D01*
X121243849Y-115629737D01*
X121595518Y-115699688D01*
X109799906Y-127495300D01*
X97788470Y-127495300D01*
X97788470Y-127334010D01*
X97744192Y-127098693D01*
X97605120Y-126882569D01*
X97392920Y-126737579D01*
X97141030Y-126686570D01*
X96979740Y-126686570D01*
X96979740Y-123510040D01*
X96915936Y-123189274D01*
X96734237Y-122917343D01*
X95311046Y-121494152D01*
X95666428Y-121473583D01*
X96000729Y-121335111D01*
X96056410Y-121104516D01*
X95337000Y-120385105D01*
X95322858Y-120399248D01*
X95143252Y-120219642D01*
X95157395Y-120205500D01*
X95516605Y-120205500D01*
X96236016Y-120924910D01*
X96466611Y-120869229D01*
X96634622Y-120386422D01*
X96605083Y-119876072D01*
X96466611Y-119541771D01*
X96236016Y-119486090D01*
X95516605Y-120205500D01*
X95157395Y-120205500D01*
X94437984Y-119486090D01*
X94207389Y-119541771D01*
X94134440Y-119751402D01*
X94134440Y-119555500D01*
X94090162Y-119320183D01*
X94081347Y-119306484D01*
X94617590Y-119306484D01*
X95337000Y-120025895D01*
X96056410Y-119306484D01*
X96000729Y-119075889D01*
X95517922Y-118907878D01*
X95007572Y-118937417D01*
X94673271Y-119075889D01*
X94617590Y-119306484D01*
X94081347Y-119306484D01*
X93951090Y-119104059D01*
X93738890Y-118959069D01*
X93487000Y-118908060D01*
X92187000Y-118908060D01*
X91951683Y-118952338D01*
X91735559Y-119091410D01*
X91590569Y-119303610D01*
X91577671Y-119367300D01*
X89996592Y-119367300D01*
X89704204Y-119074402D01*
X89382600Y-118940860D01*
X89382600Y-116400228D01*
X89429717Y-116391362D01*
X89645841Y-116252290D01*
X89790831Y-116040090D01*
X89791412Y-116037216D01*
X92824990Y-116037216D01*
X92880671Y-116267811D01*
X93363478Y-116435822D01*
X93873828Y-116406283D01*
X94208129Y-116267811D01*
X94263810Y-116037216D01*
X93544400Y-115317805D01*
X92824990Y-116037216D01*
X89791412Y-116037216D01*
X89841840Y-115788200D01*
X89841840Y-114957278D01*
X92246778Y-114957278D01*
X92276317Y-115467628D01*
X92414789Y-115801929D01*
X92645384Y-115857610D01*
X93364795Y-115138200D01*
X93724005Y-115138200D01*
X94443416Y-115857610D01*
X94674011Y-115801929D01*
X94842022Y-115319122D01*
X94812483Y-114808772D01*
X94674011Y-114474471D01*
X94443416Y-114418790D01*
X93724005Y-115138200D01*
X93364795Y-115138200D01*
X92645384Y-114418790D01*
X92414789Y-114474471D01*
X92246778Y-114957278D01*
X89841840Y-114957278D01*
X89841840Y-114488200D01*
X89797562Y-114252883D01*
X89788747Y-114239184D01*
X92824990Y-114239184D01*
X93544400Y-114958595D01*
X94263810Y-114239184D01*
X94208129Y-114008589D01*
X93725322Y-113840578D01*
X93214972Y-113870117D01*
X92880671Y-114008589D01*
X92824990Y-114239184D01*
X89788747Y-114239184D01*
X89658490Y-114036759D01*
X89446290Y-113891769D01*
X89194400Y-113840760D01*
X88432354Y-113840760D01*
X88112600Y-113521006D01*
X88112600Y-112673047D01*
X88208521Y-112653967D01*
X88674068Y-112342898D01*
X88792000Y-112166400D01*
X89814400Y-112166400D01*
X90135166Y-112102596D01*
X90407097Y-111920897D01*
X93151639Y-109176355D01*
X93183663Y-109337351D01*
G36*
X83299327Y-75883046D02*
X83899853Y-76132406D01*
X84550094Y-76132974D01*
X84717289Y-76063891D01*
X86736999Y-78083601D01*
X86983561Y-78248348D01*
X87274400Y-78306200D01*
X89503598Y-78306200D01*
X85212999Y-82596799D01*
X85048252Y-82843361D01*
X84990400Y-83134200D01*
X84990400Y-83198387D01*
X84490818Y-83012799D01*
X83841023Y-83036859D01*
X83352442Y-83239235D01*
X83253843Y-83506037D01*
X84226400Y-84478595D01*
X84240542Y-84464452D01*
X84420148Y-84644058D01*
X84406005Y-84658200D01*
X84420148Y-84672342D01*
X84240542Y-84851948D01*
X84226400Y-84837805D01*
X83253843Y-85810363D01*
X83352442Y-86077165D01*
X83961982Y-86303601D01*
X84611777Y-86279541D01*
X84990400Y-86122711D01*
X84990400Y-97104200D01*
X85048252Y-97395039D01*
X85212999Y-97641601D01*
X85598424Y-98027026D01*
X85563663Y-98079049D01*
X85454430Y-98628200D01*
X85563663Y-99177351D01*
X85874732Y-99642898D01*
X86256818Y-99898200D01*
X85874732Y-100153502D01*
X85563663Y-100619049D01*
X85454430Y-101168200D01*
X85563663Y-101717351D01*
X85874732Y-102182898D01*
X86256818Y-102438200D01*
X85874732Y-102693502D01*
X85563663Y-103159049D01*
X85454430Y-103708200D01*
X85563663Y-104257351D01*
X85874732Y-104722898D01*
X86256818Y-104978200D01*
X85874732Y-105233502D01*
X85563663Y-105699049D01*
X85454430Y-106248200D01*
X85563663Y-106797351D01*
X85874732Y-107262898D01*
X86256818Y-107518200D01*
X85874732Y-107773502D01*
X85563663Y-108239049D01*
X85454430Y-108788200D01*
X85563663Y-109337351D01*
X85874732Y-109802898D01*
X86256818Y-110058200D01*
X85874732Y-110313502D01*
X85563663Y-110779049D01*
X85454430Y-111328200D01*
X85563663Y-111877351D01*
X85874732Y-112342898D01*
X86340279Y-112653967D01*
X86436200Y-112673047D01*
X86436200Y-113868200D01*
X86500004Y-114188966D01*
X86681703Y-114460897D01*
X87246960Y-115026154D01*
X87246960Y-115788200D01*
X87291238Y-116023517D01*
X87430310Y-116239641D01*
X87642510Y-116384631D01*
X87706200Y-116397529D01*
X87706200Y-119712487D01*
X87612232Y-119938787D01*
X87612229Y-119942135D01*
X82969100Y-115299006D01*
X82969100Y-85591903D01*
X83074237Y-85630757D01*
X84046795Y-84658200D01*
X83074237Y-83685643D01*
X82969100Y-83724497D01*
X82969100Y-75552242D01*
X83299327Y-75883046D01*
X83299327Y-75883046D01*
G37*
X83299327Y-75883046D02*
X83899853Y-76132406D01*
X84550094Y-76132974D01*
X84717289Y-76063891D01*
X86736999Y-78083601D01*
X86983561Y-78248348D01*
X87274400Y-78306200D01*
X89503598Y-78306200D01*
X85212999Y-82596799D01*
X85048252Y-82843361D01*
X84990400Y-83134200D01*
X84990400Y-83198387D01*
X84490818Y-83012799D01*
X83841023Y-83036859D01*
X83352442Y-83239235D01*
X83253843Y-83506037D01*
X84226400Y-84478595D01*
X84240542Y-84464452D01*
X84420148Y-84644058D01*
X84406005Y-84658200D01*
X84420148Y-84672342D01*
X84240542Y-84851948D01*
X84226400Y-84837805D01*
X83253843Y-85810363D01*
X83352442Y-86077165D01*
X83961982Y-86303601D01*
X84611777Y-86279541D01*
X84990400Y-86122711D01*
X84990400Y-97104200D01*
X85048252Y-97395039D01*
X85212999Y-97641601D01*
X85598424Y-98027026D01*
X85563663Y-98079049D01*
X85454430Y-98628200D01*
X85563663Y-99177351D01*
X85874732Y-99642898D01*
X86256818Y-99898200D01*
X85874732Y-100153502D01*
X85563663Y-100619049D01*
X85454430Y-101168200D01*
X85563663Y-101717351D01*
X85874732Y-102182898D01*
X86256818Y-102438200D01*
X85874732Y-102693502D01*
X85563663Y-103159049D01*
X85454430Y-103708200D01*
X85563663Y-104257351D01*
X85874732Y-104722898D01*
X86256818Y-104978200D01*
X85874732Y-105233502D01*
X85563663Y-105699049D01*
X85454430Y-106248200D01*
X85563663Y-106797351D01*
X85874732Y-107262898D01*
X86256818Y-107518200D01*
X85874732Y-107773502D01*
X85563663Y-108239049D01*
X85454430Y-108788200D01*
X85563663Y-109337351D01*
X85874732Y-109802898D01*
X86256818Y-110058200D01*
X85874732Y-110313502D01*
X85563663Y-110779049D01*
X85454430Y-111328200D01*
X85563663Y-111877351D01*
X85874732Y-112342898D01*
X86340279Y-112653967D01*
X86436200Y-112673047D01*
X86436200Y-113868200D01*
X86500004Y-114188966D01*
X86681703Y-114460897D01*
X87246960Y-115026154D01*
X87246960Y-115788200D01*
X87291238Y-116023517D01*
X87430310Y-116239641D01*
X87642510Y-116384631D01*
X87706200Y-116397529D01*
X87706200Y-119712487D01*
X87612232Y-119938787D01*
X87612229Y-119942135D01*
X82969100Y-115299006D01*
X82969100Y-85591903D01*
X83074237Y-85630757D01*
X84046795Y-84658200D01*
X83074237Y-83685643D01*
X82969100Y-83724497D01*
X82969100Y-75552242D01*
X83299327Y-75883046D01*
G36*
X160961000Y-98410456D02*
X160683068Y-97994502D01*
X160217521Y-97683433D01*
X160121600Y-97664353D01*
X160121600Y-96596200D01*
X160057796Y-96275435D01*
X160057796Y-96275434D01*
X159876097Y-96003503D01*
X159310840Y-95438246D01*
X159310840Y-94676200D01*
X159266562Y-94440883D01*
X159127490Y-94224759D01*
X158915290Y-94079769D01*
X158851600Y-94066871D01*
X158851600Y-88341200D01*
X158789182Y-88027401D01*
X158787796Y-88020434D01*
X158606097Y-87748503D01*
X154170935Y-83313341D01*
X154263137Y-83175351D01*
X154317705Y-82901016D01*
X156760590Y-82901016D01*
X156816271Y-83131611D01*
X157299078Y-83299622D01*
X157809428Y-83270083D01*
X158143729Y-83131611D01*
X158199410Y-82901016D01*
X157480000Y-82181605D01*
X156760590Y-82901016D01*
X154317705Y-82901016D01*
X154372370Y-82626200D01*
X154263137Y-82077049D01*
X154092103Y-81821078D01*
X156182378Y-81821078D01*
X156211917Y-82331428D01*
X156350389Y-82665729D01*
X156580984Y-82721410D01*
X157300395Y-82002000D01*
X157659605Y-82002000D01*
X158379016Y-82721410D01*
X158609611Y-82665729D01*
X158777622Y-82182922D01*
X158748083Y-81672572D01*
X158609611Y-81338271D01*
X158379016Y-81282590D01*
X157659605Y-82002000D01*
X157300395Y-82002000D01*
X156580984Y-81282590D01*
X156350389Y-81338271D01*
X156182378Y-81821078D01*
X154092103Y-81821078D01*
X153952068Y-81611502D01*
X153486521Y-81300433D01*
X152937370Y-81191200D01*
X152167430Y-81191200D01*
X151618279Y-81300433D01*
X151152732Y-81611502D01*
X150841663Y-82077049D01*
X150732430Y-82626200D01*
X150841663Y-83175351D01*
X151152732Y-83640898D01*
X151534818Y-83896200D01*
X151152732Y-84151502D01*
X150841663Y-84617049D01*
X150732430Y-85166200D01*
X150841663Y-85715351D01*
X151152732Y-86180898D01*
X151534818Y-86436200D01*
X151152732Y-86691502D01*
X150841663Y-87157049D01*
X150732430Y-87706200D01*
X150841663Y-88255351D01*
X151152732Y-88720898D01*
X151530551Y-88973349D01*
X151097900Y-89321304D01*
X150828033Y-89814381D01*
X150810496Y-89897161D01*
X150932485Y-90119200D01*
X152425400Y-90119200D01*
X152425400Y-90099200D01*
X152679400Y-90099200D01*
X152679400Y-90119200D01*
X154172315Y-90119200D01*
X154294304Y-89897161D01*
X154276767Y-89814381D01*
X154006900Y-89321304D01*
X153574249Y-88973349D01*
X153952068Y-88720898D01*
X154263137Y-88255351D01*
X154372370Y-87706200D01*
X154263137Y-87157049D01*
X153952068Y-86691502D01*
X153569982Y-86436200D01*
X153952068Y-86180898D01*
X154238712Y-85751906D01*
X157175200Y-88688394D01*
X157175200Y-94064172D01*
X157128083Y-94073038D01*
X156911959Y-94212110D01*
X156766969Y-94424310D01*
X156715960Y-94676200D01*
X156715960Y-95438246D01*
X156015206Y-96139000D01*
X154005808Y-96139000D01*
X153912418Y-96045610D01*
X154143011Y-95989929D01*
X154311022Y-95507122D01*
X154281483Y-94996772D01*
X154143011Y-94662471D01*
X153912416Y-94606790D01*
X153193005Y-95326200D01*
X153207148Y-95340342D01*
X153027542Y-95519948D01*
X153013400Y-95505805D01*
X152999258Y-95519948D01*
X152819652Y-95340342D01*
X152833795Y-95326200D01*
X152114384Y-94606790D01*
X151883789Y-94662471D01*
X151715778Y-95145278D01*
X151745317Y-95655628D01*
X151883789Y-95989929D01*
X152114382Y-96045610D01*
X152020992Y-96139000D01*
X148869400Y-96139000D01*
X148548635Y-96202804D01*
X148276703Y-96384503D01*
X145867367Y-98793839D01*
X145867562Y-98570033D01*
X145725517Y-98226257D01*
X145462727Y-97963008D01*
X145119199Y-97820362D01*
X145072323Y-97820321D01*
X141679186Y-94427184D01*
X152293990Y-94427184D01*
X153013400Y-95146595D01*
X153732810Y-94427184D01*
X153677129Y-94196589D01*
X153194322Y-94028578D01*
X152683972Y-94058117D01*
X152349671Y-94196589D01*
X152293990Y-94427184D01*
X141679186Y-94427184D01*
X139514418Y-92262416D01*
X139576959Y-91948000D01*
X139462885Y-91374511D01*
X139138029Y-90888330D01*
X139124358Y-90879195D01*
X139147917Y-90874762D01*
X139364041Y-90735690D01*
X139460007Y-90595239D01*
X143190496Y-90595239D01*
X143208033Y-90678019D01*
X143477900Y-91171096D01*
X143915917Y-91523366D01*
X144455400Y-91681200D01*
X144805400Y-91681200D01*
X144805400Y-90373200D01*
X145059400Y-90373200D01*
X145059400Y-91681200D01*
X145409400Y-91681200D01*
X145948883Y-91523366D01*
X146386900Y-91171096D01*
X146656767Y-90678019D01*
X146674304Y-90595239D01*
X150810496Y-90595239D01*
X150828033Y-90678019D01*
X151097900Y-91171096D01*
X151535917Y-91523366D01*
X152075400Y-91681200D01*
X152425400Y-91681200D01*
X152425400Y-90373200D01*
X152679400Y-90373200D01*
X152679400Y-91681200D01*
X153029400Y-91681200D01*
X153568883Y-91523366D01*
X154006900Y-91171096D01*
X154276767Y-90678019D01*
X154294304Y-90595239D01*
X154172315Y-90373200D01*
X152679400Y-90373200D01*
X152425400Y-90373200D01*
X150932485Y-90373200D01*
X150810496Y-90595239D01*
X146674304Y-90595239D01*
X146552315Y-90373200D01*
X145059400Y-90373200D01*
X144805400Y-90373200D01*
X143312485Y-90373200D01*
X143190496Y-90595239D01*
X139460007Y-90595239D01*
X139509031Y-90523490D01*
X139560040Y-90271600D01*
X139560040Y-88974200D01*
X141884400Y-88974200D01*
X142175239Y-88916348D01*
X142421801Y-88751601D01*
X143171290Y-88002112D01*
X143221663Y-88255351D01*
X143532732Y-88720898D01*
X143910551Y-88973349D01*
X143477900Y-89321304D01*
X143208033Y-89814381D01*
X143190496Y-89897161D01*
X143312485Y-90119200D01*
X144805400Y-90119200D01*
X144805400Y-90099200D01*
X145059400Y-90099200D01*
X145059400Y-90119200D01*
X146552315Y-90119200D01*
X146674304Y-89897161D01*
X146656767Y-89814381D01*
X146386900Y-89321304D01*
X145954249Y-88973349D01*
X146332068Y-88720898D01*
X146643137Y-88255351D01*
X146752370Y-87706200D01*
X146643137Y-87157049D01*
X146332068Y-86691502D01*
X145949982Y-86436200D01*
X146332068Y-86180898D01*
X146643137Y-85715351D01*
X146752370Y-85166200D01*
X146643137Y-84617049D01*
X146332068Y-84151502D01*
X146186285Y-84054093D01*
X146317717Y-84029362D01*
X146533841Y-83890290D01*
X146678831Y-83678090D01*
X146729840Y-83426200D01*
X146729840Y-81826200D01*
X146685562Y-81590883D01*
X146546490Y-81374759D01*
X146334290Y-81229769D01*
X146082400Y-81178760D01*
X143782400Y-81178760D01*
X143547083Y-81223038D01*
X143330959Y-81362110D01*
X143185969Y-81574310D01*
X143134960Y-81826200D01*
X143134960Y-83348838D01*
X140375798Y-86108000D01*
X139338262Y-86108000D01*
X139138029Y-85808330D01*
X139124358Y-85799195D01*
X139147917Y-85794762D01*
X139364041Y-85655690D01*
X139509031Y-85443490D01*
X139560040Y-85191600D01*
X139560040Y-83739362D01*
X145038501Y-78260901D01*
X145031960Y-78293200D01*
X145031960Y-79593200D01*
X145076238Y-79828517D01*
X145215310Y-80044641D01*
X145427510Y-80189631D01*
X145679400Y-80240640D01*
X146979400Y-80240640D01*
X147214717Y-80196362D01*
X147430841Y-80057290D01*
X147575831Y-79845090D01*
X147576412Y-79842216D01*
X150609990Y-79842216D01*
X150665671Y-80072811D01*
X151148478Y-80240822D01*
X151658828Y-80211283D01*
X151993129Y-80072811D01*
X152048810Y-79842216D01*
X151329400Y-79122805D01*
X150609990Y-79842216D01*
X147576412Y-79842216D01*
X147626840Y-79593200D01*
X147626840Y-78762278D01*
X150031778Y-78762278D01*
X150061317Y-79272628D01*
X150199789Y-79606929D01*
X150430384Y-79662610D01*
X151149795Y-78943200D01*
X151509005Y-78943200D01*
X152228416Y-79662610D01*
X152459011Y-79606929D01*
X152627022Y-79124122D01*
X152597483Y-78613772D01*
X152459011Y-78279471D01*
X152228416Y-78223790D01*
X151509005Y-78943200D01*
X151149795Y-78943200D01*
X150430384Y-78223790D01*
X150199789Y-78279471D01*
X150031778Y-78762278D01*
X147626840Y-78762278D01*
X147626840Y-78293200D01*
X147582562Y-78057883D01*
X147573747Y-78044184D01*
X150609990Y-78044184D01*
X151329400Y-78763595D01*
X152048810Y-78044184D01*
X151993129Y-77813589D01*
X151510322Y-77645578D01*
X150999972Y-77675117D01*
X150665671Y-77813589D01*
X150609990Y-78044184D01*
X147573747Y-78044184D01*
X147443490Y-77841759D01*
X147231290Y-77696769D01*
X146979400Y-77645760D01*
X145679400Y-77645760D01*
X145647672Y-77651730D01*
X147279202Y-76020200D01*
X154272904Y-76020200D01*
X154340938Y-76184855D01*
X154800327Y-76645046D01*
X155400853Y-76894406D01*
X156051094Y-76894974D01*
X156652055Y-76646662D01*
X157112246Y-76187273D01*
X157124121Y-76158675D01*
X157134938Y-76184855D01*
X157594327Y-76645046D01*
X157761400Y-76714421D01*
X157761400Y-78145798D01*
X157702638Y-78204560D01*
X156830000Y-78204560D01*
X156594683Y-78248838D01*
X156378559Y-78387910D01*
X156233569Y-78600110D01*
X156182560Y-78852000D01*
X156182560Y-80152000D01*
X156226838Y-80387317D01*
X156365910Y-80603441D01*
X156578110Y-80748431D01*
X156830000Y-80799440D01*
X156992385Y-80799440D01*
X156816271Y-80872389D01*
X156760590Y-81102984D01*
X157480000Y-81822395D01*
X158199410Y-81102984D01*
X158143729Y-80872389D01*
X157934098Y-80799440D01*
X158130000Y-80799440D01*
X158365317Y-80755162D01*
X158581441Y-80616090D01*
X158726431Y-80403890D01*
X158777440Y-80152000D01*
X158777440Y-79279362D01*
X159058801Y-78998001D01*
X159223548Y-78751439D01*
X159281400Y-78460600D01*
X159281400Y-76714696D01*
X159446055Y-76646662D01*
X159906246Y-76187273D01*
X160155606Y-75586747D01*
X160156174Y-74936506D01*
X159907862Y-74335545D01*
X159448473Y-73875354D01*
X159182486Y-73764907D01*
X159058801Y-73579799D01*
X153389122Y-67910120D01*
X153457970Y-67564000D01*
X153348737Y-67014849D01*
X153037668Y-66549302D01*
X152655582Y-66294000D01*
X153037668Y-66038698D01*
X153207852Y-65784000D01*
X154241419Y-65784000D01*
X154340938Y-66024855D01*
X154800327Y-66485046D01*
X155400853Y-66734406D01*
X156051094Y-66734974D01*
X156652055Y-66486662D01*
X157112246Y-66027273D01*
X157124121Y-65998675D01*
X157134938Y-66024855D01*
X157594327Y-66485046D01*
X158194853Y-66734406D01*
X158845094Y-66734974D01*
X159446055Y-66486662D01*
X159906246Y-66027273D01*
X160155606Y-65426747D01*
X160156174Y-64776506D01*
X159907862Y-64175545D01*
X159448473Y-63715354D01*
X158847947Y-63465994D01*
X158197706Y-63465426D01*
X157596745Y-63713738D01*
X157136554Y-64173127D01*
X157124679Y-64201725D01*
X157113862Y-64175545D01*
X156654473Y-63715354D01*
X156053947Y-63465994D01*
X155403706Y-63465426D01*
X154802745Y-63713738D01*
X154342554Y-64173127D01*
X154304820Y-64264000D01*
X153207852Y-64264000D01*
X153037668Y-64009302D01*
X152655582Y-63754000D01*
X153037668Y-63498698D01*
X153348737Y-63033151D01*
X153457970Y-62484000D01*
X153348737Y-61934849D01*
X153037668Y-61469302D01*
X152572121Y-61158233D01*
X152022970Y-61049000D01*
X151388394Y-61049000D01*
X151231600Y-60892206D01*
X151231600Y-60012228D01*
X151278717Y-60003362D01*
X151494841Y-59864290D01*
X151639831Y-59652090D01*
X151690840Y-59400200D01*
X151690840Y-58100200D01*
X151646562Y-57864883D01*
X151507490Y-57648759D01*
X151295290Y-57503769D01*
X151043400Y-57452760D01*
X149743400Y-57452760D01*
X149508083Y-57497038D01*
X149291959Y-57636110D01*
X149146969Y-57848310D01*
X149095960Y-58100200D01*
X149095960Y-59400200D01*
X149140238Y-59635517D01*
X149279310Y-59851641D01*
X149491510Y-59996631D01*
X149555200Y-60009529D01*
X149555200Y-61239400D01*
X149619004Y-61560166D01*
X149800703Y-61832097D01*
X149923313Y-61954707D01*
X149818030Y-62484000D01*
X149927263Y-63033151D01*
X149952018Y-63070200D01*
X145803000Y-63070200D01*
X145803000Y-62769750D01*
X145644250Y-62611000D01*
X144145000Y-62611000D01*
X144145000Y-62631000D01*
X143891000Y-62631000D01*
X143891000Y-62611000D01*
X142391750Y-62611000D01*
X142233000Y-62769750D01*
X142233000Y-63070200D01*
X139768579Y-63070200D01*
X139912137Y-62855351D01*
X140021370Y-62306200D01*
X139912137Y-61757049D01*
X139778930Y-61557690D01*
X142233000Y-61557690D01*
X142233000Y-62198250D01*
X142391750Y-62357000D01*
X143891000Y-62357000D01*
X143891000Y-61207750D01*
X144145000Y-61207750D01*
X144145000Y-62357000D01*
X145644250Y-62357000D01*
X145803000Y-62198250D01*
X145803000Y-61557690D01*
X145706327Y-61324301D01*
X145527698Y-61145673D01*
X145294309Y-61049000D01*
X144303750Y-61049000D01*
X144145000Y-61207750D01*
X143891000Y-61207750D01*
X143732250Y-61049000D01*
X142741691Y-61049000D01*
X142508302Y-61145673D01*
X142329673Y-61324301D01*
X142233000Y-61557690D01*
X139778930Y-61557690D01*
X139601068Y-61291502D01*
X139135521Y-60980433D01*
X138586370Y-60871200D01*
X137951794Y-60871200D01*
X137769600Y-60689006D01*
X137769600Y-59758228D01*
X137816717Y-59749362D01*
X137972348Y-59649216D01*
X144673990Y-59649216D01*
X144729671Y-59879811D01*
X145212478Y-60047822D01*
X145722828Y-60018283D01*
X146057129Y-59879811D01*
X146112810Y-59649216D01*
X145393400Y-58929805D01*
X144673990Y-59649216D01*
X137972348Y-59649216D01*
X138032841Y-59610290D01*
X138177831Y-59398090D01*
X138228840Y-59146200D01*
X138228840Y-58569278D01*
X144095778Y-58569278D01*
X144125317Y-59079628D01*
X144263789Y-59413929D01*
X144494384Y-59469610D01*
X145213795Y-58750200D01*
X145573005Y-58750200D01*
X146292416Y-59469610D01*
X146523011Y-59413929D01*
X146691022Y-58931122D01*
X146661483Y-58420772D01*
X146523011Y-58086471D01*
X146292416Y-58030790D01*
X145573005Y-58750200D01*
X145213795Y-58750200D01*
X144494384Y-58030790D01*
X144263789Y-58086471D01*
X144095778Y-58569278D01*
X138228840Y-58569278D01*
X138228840Y-57851184D01*
X144673990Y-57851184D01*
X145393400Y-58570595D01*
X146112810Y-57851184D01*
X146057129Y-57620589D01*
X145574322Y-57452578D01*
X145063972Y-57482117D01*
X144729671Y-57620589D01*
X144673990Y-57851184D01*
X138228840Y-57851184D01*
X138228840Y-57846200D01*
X138184562Y-57610883D01*
X138045490Y-57394759D01*
X137833290Y-57249769D01*
X137581400Y-57198760D01*
X136819354Y-57198760D01*
X135682109Y-56061515D01*
X155243030Y-56061515D01*
X155567380Y-56846500D01*
X156167441Y-57447609D01*
X156951859Y-57773328D01*
X157801215Y-57774070D01*
X158586200Y-57449720D01*
X159187309Y-56849659D01*
X159513028Y-56065241D01*
X159513770Y-55215885D01*
X159189420Y-54430900D01*
X158589359Y-53829791D01*
X157804941Y-53504072D01*
X156955585Y-53503330D01*
X156170600Y-53827680D01*
X155569491Y-54427741D01*
X155243772Y-55212159D01*
X155243030Y-56061515D01*
X135682109Y-56061515D01*
X132126597Y-52506003D01*
X131854666Y-52324304D01*
X131533900Y-52260500D01*
X91846400Y-52260500D01*
X91525635Y-52324304D01*
X91253703Y-52506003D01*
X87151618Y-56608088D01*
X87377028Y-56065241D01*
X87377770Y-55215885D01*
X87053420Y-54430900D01*
X86453359Y-53829791D01*
X85668941Y-53504072D01*
X84819585Y-53503330D01*
X84034600Y-53827680D01*
X83433491Y-54427741D01*
X83107772Y-55212159D01*
X83107030Y-56061515D01*
X83431380Y-56846500D01*
X84031441Y-57447609D01*
X84815859Y-57773328D01*
X85665215Y-57774070D01*
X86211256Y-57548450D01*
X81609000Y-62150706D01*
X81609000Y-52081500D01*
X160961000Y-52081500D01*
X160961000Y-98410456D01*
X160961000Y-98410456D01*
G37*
X160961000Y-98410456D02*
X160683068Y-97994502D01*
X160217521Y-97683433D01*
X160121600Y-97664353D01*
X160121600Y-96596200D01*
X160057796Y-96275435D01*
X160057796Y-96275434D01*
X159876097Y-96003503D01*
X159310840Y-95438246D01*
X159310840Y-94676200D01*
X159266562Y-94440883D01*
X159127490Y-94224759D01*
X158915290Y-94079769D01*
X158851600Y-94066871D01*
X158851600Y-88341200D01*
X158789182Y-88027401D01*
X158787796Y-88020434D01*
X158606097Y-87748503D01*
X154170935Y-83313341D01*
X154263137Y-83175351D01*
X154317705Y-82901016D01*
X156760590Y-82901016D01*
X156816271Y-83131611D01*
X157299078Y-83299622D01*
X157809428Y-83270083D01*
X158143729Y-83131611D01*
X158199410Y-82901016D01*
X157480000Y-82181605D01*
X156760590Y-82901016D01*
X154317705Y-82901016D01*
X154372370Y-82626200D01*
X154263137Y-82077049D01*
X154092103Y-81821078D01*
X156182378Y-81821078D01*
X156211917Y-82331428D01*
X156350389Y-82665729D01*
X156580984Y-82721410D01*
X157300395Y-82002000D01*
X157659605Y-82002000D01*
X158379016Y-82721410D01*
X158609611Y-82665729D01*
X158777622Y-82182922D01*
X158748083Y-81672572D01*
X158609611Y-81338271D01*
X158379016Y-81282590D01*
X157659605Y-82002000D01*
X157300395Y-82002000D01*
X156580984Y-81282590D01*
X156350389Y-81338271D01*
X156182378Y-81821078D01*
X154092103Y-81821078D01*
X153952068Y-81611502D01*
X153486521Y-81300433D01*
X152937370Y-81191200D01*
X152167430Y-81191200D01*
X151618279Y-81300433D01*
X151152732Y-81611502D01*
X150841663Y-82077049D01*
X150732430Y-82626200D01*
X150841663Y-83175351D01*
X151152732Y-83640898D01*
X151534818Y-83896200D01*
X151152732Y-84151502D01*
X150841663Y-84617049D01*
X150732430Y-85166200D01*
X150841663Y-85715351D01*
X151152732Y-86180898D01*
X151534818Y-86436200D01*
X151152732Y-86691502D01*
X150841663Y-87157049D01*
X150732430Y-87706200D01*
X150841663Y-88255351D01*
X151152732Y-88720898D01*
X151530551Y-88973349D01*
X151097900Y-89321304D01*
X150828033Y-89814381D01*
X150810496Y-89897161D01*
X150932485Y-90119200D01*
X152425400Y-90119200D01*
X152425400Y-90099200D01*
X152679400Y-90099200D01*
X152679400Y-90119200D01*
X154172315Y-90119200D01*
X154294304Y-89897161D01*
X154276767Y-89814381D01*
X154006900Y-89321304D01*
X153574249Y-88973349D01*
X153952068Y-88720898D01*
X154263137Y-88255351D01*
X154372370Y-87706200D01*
X154263137Y-87157049D01*
X153952068Y-86691502D01*
X153569982Y-86436200D01*
X153952068Y-86180898D01*
X154238712Y-85751906D01*
X157175200Y-88688394D01*
X157175200Y-94064172D01*
X157128083Y-94073038D01*
X156911959Y-94212110D01*
X156766969Y-94424310D01*
X156715960Y-94676200D01*
X156715960Y-95438246D01*
X156015206Y-96139000D01*
X154005808Y-96139000D01*
X153912418Y-96045610D01*
X154143011Y-95989929D01*
X154311022Y-95507122D01*
X154281483Y-94996772D01*
X154143011Y-94662471D01*
X153912416Y-94606790D01*
X153193005Y-95326200D01*
X153207148Y-95340342D01*
X153027542Y-95519948D01*
X153013400Y-95505805D01*
X152999258Y-95519948D01*
X152819652Y-95340342D01*
X152833795Y-95326200D01*
X152114384Y-94606790D01*
X151883789Y-94662471D01*
X151715778Y-95145278D01*
X151745317Y-95655628D01*
X151883789Y-95989929D01*
X152114382Y-96045610D01*
X152020992Y-96139000D01*
X148869400Y-96139000D01*
X148548635Y-96202804D01*
X148276703Y-96384503D01*
X145867367Y-98793839D01*
X145867562Y-98570033D01*
X145725517Y-98226257D01*
X145462727Y-97963008D01*
X145119199Y-97820362D01*
X145072323Y-97820321D01*
X141679186Y-94427184D01*
X152293990Y-94427184D01*
X153013400Y-95146595D01*
X153732810Y-94427184D01*
X153677129Y-94196589D01*
X153194322Y-94028578D01*
X152683972Y-94058117D01*
X152349671Y-94196589D01*
X152293990Y-94427184D01*
X141679186Y-94427184D01*
X139514418Y-92262416D01*
X139576959Y-91948000D01*
X139462885Y-91374511D01*
X139138029Y-90888330D01*
X139124358Y-90879195D01*
X139147917Y-90874762D01*
X139364041Y-90735690D01*
X139460007Y-90595239D01*
X143190496Y-90595239D01*
X143208033Y-90678019D01*
X143477900Y-91171096D01*
X143915917Y-91523366D01*
X144455400Y-91681200D01*
X144805400Y-91681200D01*
X144805400Y-90373200D01*
X145059400Y-90373200D01*
X145059400Y-91681200D01*
X145409400Y-91681200D01*
X145948883Y-91523366D01*
X146386900Y-91171096D01*
X146656767Y-90678019D01*
X146674304Y-90595239D01*
X150810496Y-90595239D01*
X150828033Y-90678019D01*
X151097900Y-91171096D01*
X151535917Y-91523366D01*
X152075400Y-91681200D01*
X152425400Y-91681200D01*
X152425400Y-90373200D01*
X152679400Y-90373200D01*
X152679400Y-91681200D01*
X153029400Y-91681200D01*
X153568883Y-91523366D01*
X154006900Y-91171096D01*
X154276767Y-90678019D01*
X154294304Y-90595239D01*
X154172315Y-90373200D01*
X152679400Y-90373200D01*
X152425400Y-90373200D01*
X150932485Y-90373200D01*
X150810496Y-90595239D01*
X146674304Y-90595239D01*
X146552315Y-90373200D01*
X145059400Y-90373200D01*
X144805400Y-90373200D01*
X143312485Y-90373200D01*
X143190496Y-90595239D01*
X139460007Y-90595239D01*
X139509031Y-90523490D01*
X139560040Y-90271600D01*
X139560040Y-88974200D01*
X141884400Y-88974200D01*
X142175239Y-88916348D01*
X142421801Y-88751601D01*
X143171290Y-88002112D01*
X143221663Y-88255351D01*
X143532732Y-88720898D01*
X143910551Y-88973349D01*
X143477900Y-89321304D01*
X143208033Y-89814381D01*
X143190496Y-89897161D01*
X143312485Y-90119200D01*
X144805400Y-90119200D01*
X144805400Y-90099200D01*
X145059400Y-90099200D01*
X145059400Y-90119200D01*
X146552315Y-90119200D01*
X146674304Y-89897161D01*
X146656767Y-89814381D01*
X146386900Y-89321304D01*
X145954249Y-88973349D01*
X146332068Y-88720898D01*
X146643137Y-88255351D01*
X146752370Y-87706200D01*
X146643137Y-87157049D01*
X146332068Y-86691502D01*
X145949982Y-86436200D01*
X146332068Y-86180898D01*
X146643137Y-85715351D01*
X146752370Y-85166200D01*
X146643137Y-84617049D01*
X146332068Y-84151502D01*
X146186285Y-84054093D01*
X146317717Y-84029362D01*
X146533841Y-83890290D01*
X146678831Y-83678090D01*
X146729840Y-83426200D01*
X146729840Y-81826200D01*
X146685562Y-81590883D01*
X146546490Y-81374759D01*
X146334290Y-81229769D01*
X146082400Y-81178760D01*
X143782400Y-81178760D01*
X143547083Y-81223038D01*
X143330959Y-81362110D01*
X143185969Y-81574310D01*
X143134960Y-81826200D01*
X143134960Y-83348838D01*
X140375798Y-86108000D01*
X139338262Y-86108000D01*
X139138029Y-85808330D01*
X139124358Y-85799195D01*
X139147917Y-85794762D01*
X139364041Y-85655690D01*
X139509031Y-85443490D01*
X139560040Y-85191600D01*
X139560040Y-83739362D01*
X145038501Y-78260901D01*
X145031960Y-78293200D01*
X145031960Y-79593200D01*
X145076238Y-79828517D01*
X145215310Y-80044641D01*
X145427510Y-80189631D01*
X145679400Y-80240640D01*
X146979400Y-80240640D01*
X147214717Y-80196362D01*
X147430841Y-80057290D01*
X147575831Y-79845090D01*
X147576412Y-79842216D01*
X150609990Y-79842216D01*
X150665671Y-80072811D01*
X151148478Y-80240822D01*
X151658828Y-80211283D01*
X151993129Y-80072811D01*
X152048810Y-79842216D01*
X151329400Y-79122805D01*
X150609990Y-79842216D01*
X147576412Y-79842216D01*
X147626840Y-79593200D01*
X147626840Y-78762278D01*
X150031778Y-78762278D01*
X150061317Y-79272628D01*
X150199789Y-79606929D01*
X150430384Y-79662610D01*
X151149795Y-78943200D01*
X151509005Y-78943200D01*
X152228416Y-79662610D01*
X152459011Y-79606929D01*
X152627022Y-79124122D01*
X152597483Y-78613772D01*
X152459011Y-78279471D01*
X152228416Y-78223790D01*
X151509005Y-78943200D01*
X151149795Y-78943200D01*
X150430384Y-78223790D01*
X150199789Y-78279471D01*
X150031778Y-78762278D01*
X147626840Y-78762278D01*
X147626840Y-78293200D01*
X147582562Y-78057883D01*
X147573747Y-78044184D01*
X150609990Y-78044184D01*
X151329400Y-78763595D01*
X152048810Y-78044184D01*
X151993129Y-77813589D01*
X151510322Y-77645578D01*
X150999972Y-77675117D01*
X150665671Y-77813589D01*
X150609990Y-78044184D01*
X147573747Y-78044184D01*
X147443490Y-77841759D01*
X147231290Y-77696769D01*
X146979400Y-77645760D01*
X145679400Y-77645760D01*
X145647672Y-77651730D01*
X147279202Y-76020200D01*
X154272904Y-76020200D01*
X154340938Y-76184855D01*
X154800327Y-76645046D01*
X155400853Y-76894406D01*
X156051094Y-76894974D01*
X156652055Y-76646662D01*
X157112246Y-76187273D01*
X157124121Y-76158675D01*
X157134938Y-76184855D01*
X157594327Y-76645046D01*
X157761400Y-76714421D01*
X157761400Y-78145798D01*
X157702638Y-78204560D01*
X156830000Y-78204560D01*
X156594683Y-78248838D01*
X156378559Y-78387910D01*
X156233569Y-78600110D01*
X156182560Y-78852000D01*
X156182560Y-80152000D01*
X156226838Y-80387317D01*
X156365910Y-80603441D01*
X156578110Y-80748431D01*
X156830000Y-80799440D01*
X156992385Y-80799440D01*
X156816271Y-80872389D01*
X156760590Y-81102984D01*
X157480000Y-81822395D01*
X158199410Y-81102984D01*
X158143729Y-80872389D01*
X157934098Y-80799440D01*
X158130000Y-80799440D01*
X158365317Y-80755162D01*
X158581441Y-80616090D01*
X158726431Y-80403890D01*
X158777440Y-80152000D01*
X158777440Y-79279362D01*
X159058801Y-78998001D01*
X159223548Y-78751439D01*
X159281400Y-78460600D01*
X159281400Y-76714696D01*
X159446055Y-76646662D01*
X159906246Y-76187273D01*
X160155606Y-75586747D01*
X160156174Y-74936506D01*
X159907862Y-74335545D01*
X159448473Y-73875354D01*
X159182486Y-73764907D01*
X159058801Y-73579799D01*
X153389122Y-67910120D01*
X153457970Y-67564000D01*
X153348737Y-67014849D01*
X153037668Y-66549302D01*
X152655582Y-66294000D01*
X153037668Y-66038698D01*
X153207852Y-65784000D01*
X154241419Y-65784000D01*
X154340938Y-66024855D01*
X154800327Y-66485046D01*
X155400853Y-66734406D01*
X156051094Y-66734974D01*
X156652055Y-66486662D01*
X157112246Y-66027273D01*
X157124121Y-65998675D01*
X157134938Y-66024855D01*
X157594327Y-66485046D01*
X158194853Y-66734406D01*
X158845094Y-66734974D01*
X159446055Y-66486662D01*
X159906246Y-66027273D01*
X160155606Y-65426747D01*
X160156174Y-64776506D01*
X159907862Y-64175545D01*
X159448473Y-63715354D01*
X158847947Y-63465994D01*
X158197706Y-63465426D01*
X157596745Y-63713738D01*
X157136554Y-64173127D01*
X157124679Y-64201725D01*
X157113862Y-64175545D01*
X156654473Y-63715354D01*
X156053947Y-63465994D01*
X155403706Y-63465426D01*
X154802745Y-63713738D01*
X154342554Y-64173127D01*
X154304820Y-64264000D01*
X153207852Y-64264000D01*
X153037668Y-64009302D01*
X152655582Y-63754000D01*
X153037668Y-63498698D01*
X153348737Y-63033151D01*
X153457970Y-62484000D01*
X153348737Y-61934849D01*
X153037668Y-61469302D01*
X152572121Y-61158233D01*
X152022970Y-61049000D01*
X151388394Y-61049000D01*
X151231600Y-60892206D01*
X151231600Y-60012228D01*
X151278717Y-60003362D01*
X151494841Y-59864290D01*
X151639831Y-59652090D01*
X151690840Y-59400200D01*
X151690840Y-58100200D01*
X151646562Y-57864883D01*
X151507490Y-57648759D01*
X151295290Y-57503769D01*
X151043400Y-57452760D01*
X149743400Y-57452760D01*
X149508083Y-57497038D01*
X149291959Y-57636110D01*
X149146969Y-57848310D01*
X149095960Y-58100200D01*
X149095960Y-59400200D01*
X149140238Y-59635517D01*
X149279310Y-59851641D01*
X149491510Y-59996631D01*
X149555200Y-60009529D01*
X149555200Y-61239400D01*
X149619004Y-61560166D01*
X149800703Y-61832097D01*
X149923313Y-61954707D01*
X149818030Y-62484000D01*
X149927263Y-63033151D01*
X149952018Y-63070200D01*
X145803000Y-63070200D01*
X145803000Y-62769750D01*
X145644250Y-62611000D01*
X144145000Y-62611000D01*
X144145000Y-62631000D01*
X143891000Y-62631000D01*
X143891000Y-62611000D01*
X142391750Y-62611000D01*
X142233000Y-62769750D01*
X142233000Y-63070200D01*
X139768579Y-63070200D01*
X139912137Y-62855351D01*
X140021370Y-62306200D01*
X139912137Y-61757049D01*
X139778930Y-61557690D01*
X142233000Y-61557690D01*
X142233000Y-62198250D01*
X142391750Y-62357000D01*
X143891000Y-62357000D01*
X143891000Y-61207750D01*
X144145000Y-61207750D01*
X144145000Y-62357000D01*
X145644250Y-62357000D01*
X145803000Y-62198250D01*
X145803000Y-61557690D01*
X145706327Y-61324301D01*
X145527698Y-61145673D01*
X145294309Y-61049000D01*
X144303750Y-61049000D01*
X144145000Y-61207750D01*
X143891000Y-61207750D01*
X143732250Y-61049000D01*
X142741691Y-61049000D01*
X142508302Y-61145673D01*
X142329673Y-61324301D01*
X142233000Y-61557690D01*
X139778930Y-61557690D01*
X139601068Y-61291502D01*
X139135521Y-60980433D01*
X138586370Y-60871200D01*
X137951794Y-60871200D01*
X137769600Y-60689006D01*
X137769600Y-59758228D01*
X137816717Y-59749362D01*
X137972348Y-59649216D01*
X144673990Y-59649216D01*
X144729671Y-59879811D01*
X145212478Y-60047822D01*
X145722828Y-60018283D01*
X146057129Y-59879811D01*
X146112810Y-59649216D01*
X145393400Y-58929805D01*
X144673990Y-59649216D01*
X137972348Y-59649216D01*
X138032841Y-59610290D01*
X138177831Y-59398090D01*
X138228840Y-59146200D01*
X138228840Y-58569278D01*
X144095778Y-58569278D01*
X144125317Y-59079628D01*
X144263789Y-59413929D01*
X144494384Y-59469610D01*
X145213795Y-58750200D01*
X145573005Y-58750200D01*
X146292416Y-59469610D01*
X146523011Y-59413929D01*
X146691022Y-58931122D01*
X146661483Y-58420772D01*
X146523011Y-58086471D01*
X146292416Y-58030790D01*
X145573005Y-58750200D01*
X145213795Y-58750200D01*
X144494384Y-58030790D01*
X144263789Y-58086471D01*
X144095778Y-58569278D01*
X138228840Y-58569278D01*
X138228840Y-57851184D01*
X144673990Y-57851184D01*
X145393400Y-58570595D01*
X146112810Y-57851184D01*
X146057129Y-57620589D01*
X145574322Y-57452578D01*
X145063972Y-57482117D01*
X144729671Y-57620589D01*
X144673990Y-57851184D01*
X138228840Y-57851184D01*
X138228840Y-57846200D01*
X138184562Y-57610883D01*
X138045490Y-57394759D01*
X137833290Y-57249769D01*
X137581400Y-57198760D01*
X136819354Y-57198760D01*
X135682109Y-56061515D01*
X155243030Y-56061515D01*
X155567380Y-56846500D01*
X156167441Y-57447609D01*
X156951859Y-57773328D01*
X157801215Y-57774070D01*
X158586200Y-57449720D01*
X159187309Y-56849659D01*
X159513028Y-56065241D01*
X159513770Y-55215885D01*
X159189420Y-54430900D01*
X158589359Y-53829791D01*
X157804941Y-53504072D01*
X156955585Y-53503330D01*
X156170600Y-53827680D01*
X155569491Y-54427741D01*
X155243772Y-55212159D01*
X155243030Y-56061515D01*
X135682109Y-56061515D01*
X132126597Y-52506003D01*
X131854666Y-52324304D01*
X131533900Y-52260500D01*
X91846400Y-52260500D01*
X91525635Y-52324304D01*
X91253703Y-52506003D01*
X87151618Y-56608088D01*
X87377028Y-56065241D01*
X87377770Y-55215885D01*
X87053420Y-54430900D01*
X86453359Y-53829791D01*
X85668941Y-53504072D01*
X84819585Y-53503330D01*
X84034600Y-53827680D01*
X83433491Y-54427741D01*
X83107772Y-55212159D01*
X83107030Y-56061515D01*
X83431380Y-56846500D01*
X84031441Y-57447609D01*
X84815859Y-57773328D01*
X85665215Y-57774070D01*
X86211256Y-57548450D01*
X81609000Y-62150706D01*
X81609000Y-52081500D01*
X160961000Y-52081500D01*
X160961000Y-98410456D01*
G36*
X105262003Y-83019605D02*
X104796023Y-83036859D01*
X104307442Y-83239235D01*
X104208843Y-83506037D01*
X105181400Y-84478595D01*
X105195542Y-84464452D01*
X105375148Y-84644058D01*
X105361005Y-84658200D01*
X106333563Y-85630757D01*
X106600365Y-85532158D01*
X106826801Y-84922618D01*
X106813796Y-84571398D01*
X107564999Y-85322601D01*
X107811561Y-85487348D01*
X108102400Y-85545200D01*
X109849107Y-85545200D01*
X109741256Y-85847502D01*
X109769038Y-86402568D01*
X109928003Y-86786343D01*
X110170187Y-86855808D01*
X110970795Y-86055200D01*
X110956653Y-86041058D01*
X111136258Y-85861453D01*
X111150400Y-85875595D01*
X111164543Y-85861453D01*
X111344148Y-86041058D01*
X111330005Y-86055200D01*
X112130613Y-86855808D01*
X112372797Y-86786343D01*
X112559544Y-86262898D01*
X112531762Y-85707832D01*
X112464398Y-85545200D01*
X124043598Y-85545200D01*
X125328278Y-86829880D01*
X125328238Y-86875367D01*
X125470283Y-87219143D01*
X125733073Y-87482392D01*
X125877035Y-87542171D01*
X125279339Y-88139867D01*
X125192947Y-88103994D01*
X124542706Y-88103426D01*
X123941745Y-88351738D01*
X123481554Y-88811127D01*
X123232194Y-89411653D01*
X123231626Y-90061894D01*
X123268374Y-90150832D01*
X118660303Y-94758903D01*
X118478604Y-95030834D01*
X118470117Y-95073502D01*
X118414800Y-95351600D01*
X118414800Y-97693221D01*
X118204233Y-97693038D01*
X117860457Y-97835083D01*
X117827282Y-97868200D01*
X96792702Y-97868200D01*
X98989489Y-95671413D01*
X110476792Y-95671413D01*
X110546257Y-95913597D01*
X111069702Y-96100344D01*
X111624768Y-96072562D01*
X112008543Y-95913597D01*
X112078008Y-95671413D01*
X111277400Y-94870805D01*
X110476792Y-95671413D01*
X98989489Y-95671413D01*
X100177400Y-94483502D01*
X109868256Y-94483502D01*
X109896038Y-95038568D01*
X110055003Y-95422343D01*
X110297187Y-95491808D01*
X111097795Y-94691200D01*
X111457005Y-94691200D01*
X112257613Y-95491808D01*
X112499797Y-95422343D01*
X112686544Y-94898898D01*
X112658762Y-94343832D01*
X112499797Y-93960057D01*
X112424163Y-93938363D01*
X113733843Y-93938363D01*
X113832442Y-94205165D01*
X114441982Y-94431601D01*
X115091777Y-94407541D01*
X115580358Y-94205165D01*
X115678957Y-93938363D01*
X114706400Y-92965805D01*
X113733843Y-93938363D01*
X112424163Y-93938363D01*
X112257613Y-93890592D01*
X111457005Y-94691200D01*
X111097795Y-94691200D01*
X110297187Y-93890592D01*
X110055003Y-93960057D01*
X109868256Y-94483502D01*
X100177400Y-94483502D01*
X101908801Y-92752101D01*
X102073548Y-92505540D01*
X102120194Y-92271034D01*
X102131400Y-92214700D01*
X102131400Y-89887861D01*
X109880158Y-89887861D01*
X110092390Y-90401503D01*
X110485030Y-90794829D01*
X110692912Y-90881149D01*
X110487097Y-90966190D01*
X110093771Y-91358830D01*
X109880643Y-91872100D01*
X109880158Y-92427861D01*
X110092390Y-92941503D01*
X110485030Y-93334829D01*
X110677127Y-93414595D01*
X110546257Y-93468803D01*
X110476792Y-93710987D01*
X111277400Y-94511595D01*
X112078008Y-93710987D01*
X112008543Y-93468803D01*
X111868082Y-93418691D01*
X112067703Y-93336210D01*
X112461029Y-92943570D01*
X112636170Y-92521782D01*
X113060999Y-92521782D01*
X113085059Y-93171577D01*
X113287435Y-93660158D01*
X113554237Y-93758757D01*
X114526795Y-92786200D01*
X114886005Y-92786200D01*
X115858563Y-93758757D01*
X116125365Y-93660158D01*
X116351801Y-93050618D01*
X116327741Y-92400823D01*
X116125365Y-91912242D01*
X115858563Y-91813643D01*
X114886005Y-92786200D01*
X114526795Y-92786200D01*
X113554237Y-91813643D01*
X113287435Y-91912242D01*
X113060999Y-92521782D01*
X112636170Y-92521782D01*
X112674157Y-92430300D01*
X112674642Y-91874539D01*
X112462410Y-91360897D01*
X112069770Y-90967571D01*
X111861888Y-90881251D01*
X112067703Y-90796210D01*
X112461029Y-90403570D01*
X112474470Y-90371200D01*
X113199429Y-90371200D01*
X113319938Y-90662855D01*
X113779327Y-91123046D01*
X114100251Y-91256305D01*
X113832442Y-91367235D01*
X113733843Y-91634037D01*
X114706400Y-92606595D01*
X115678957Y-91634037D01*
X115580358Y-91367235D01*
X115297917Y-91262312D01*
X115631055Y-91124662D01*
X116091246Y-90665273D01*
X116340606Y-90064747D01*
X116341174Y-89414506D01*
X116092862Y-88813545D01*
X115633473Y-88353354D01*
X115032947Y-88103994D01*
X114382706Y-88103426D01*
X113781745Y-88351738D01*
X113321554Y-88811127D01*
X113304914Y-88851200D01*
X112474931Y-88851200D01*
X112462410Y-88820897D01*
X112069770Y-88427571D01*
X111556500Y-88214443D01*
X111000739Y-88213958D01*
X110487097Y-88426190D01*
X110093771Y-88818830D01*
X109880643Y-89332100D01*
X109880158Y-89887861D01*
X102131400Y-89887861D01*
X102131400Y-87035413D01*
X110349792Y-87035413D01*
X110419257Y-87277597D01*
X110942702Y-87464344D01*
X111497768Y-87436562D01*
X111881543Y-87277597D01*
X111951008Y-87035413D01*
X111150400Y-86234805D01*
X110349792Y-87035413D01*
X102131400Y-87035413D01*
X102131400Y-85810363D01*
X104208843Y-85810363D01*
X104307442Y-86077165D01*
X104916982Y-86303601D01*
X105566777Y-86279541D01*
X106055358Y-86077165D01*
X106153957Y-85810363D01*
X105181400Y-84837805D01*
X104208843Y-85810363D01*
X102131400Y-85810363D01*
X102131400Y-84393782D01*
X103535999Y-84393782D01*
X103560059Y-85043577D01*
X103762435Y-85532158D01*
X104029237Y-85630757D01*
X105001795Y-84658200D01*
X104029237Y-83685643D01*
X103762435Y-83784242D01*
X103535999Y-84393782D01*
X102131400Y-84393782D01*
X102131400Y-80594200D01*
X102073548Y-80303361D01*
X101908801Y-80056799D01*
X101269376Y-79417374D01*
X101304137Y-79365351D01*
X101354510Y-79112112D01*
X105262003Y-83019605D01*
X105262003Y-83019605D01*
G37*
X105262003Y-83019605D02*
X104796023Y-83036859D01*
X104307442Y-83239235D01*
X104208843Y-83506037D01*
X105181400Y-84478595D01*
X105195542Y-84464452D01*
X105375148Y-84644058D01*
X105361005Y-84658200D01*
X106333563Y-85630757D01*
X106600365Y-85532158D01*
X106826801Y-84922618D01*
X106813796Y-84571398D01*
X107564999Y-85322601D01*
X107811561Y-85487348D01*
X108102400Y-85545200D01*
X109849107Y-85545200D01*
X109741256Y-85847502D01*
X109769038Y-86402568D01*
X109928003Y-86786343D01*
X110170187Y-86855808D01*
X110970795Y-86055200D01*
X110956653Y-86041058D01*
X111136258Y-85861453D01*
X111150400Y-85875595D01*
X111164543Y-85861453D01*
X111344148Y-86041058D01*
X111330005Y-86055200D01*
X112130613Y-86855808D01*
X112372797Y-86786343D01*
X112559544Y-86262898D01*
X112531762Y-85707832D01*
X112464398Y-85545200D01*
X124043598Y-85545200D01*
X125328278Y-86829880D01*
X125328238Y-86875367D01*
X125470283Y-87219143D01*
X125733073Y-87482392D01*
X125877035Y-87542171D01*
X125279339Y-88139867D01*
X125192947Y-88103994D01*
X124542706Y-88103426D01*
X123941745Y-88351738D01*
X123481554Y-88811127D01*
X123232194Y-89411653D01*
X123231626Y-90061894D01*
X123268374Y-90150832D01*
X118660303Y-94758903D01*
X118478604Y-95030834D01*
X118470117Y-95073502D01*
X118414800Y-95351600D01*
X118414800Y-97693221D01*
X118204233Y-97693038D01*
X117860457Y-97835083D01*
X117827282Y-97868200D01*
X96792702Y-97868200D01*
X98989489Y-95671413D01*
X110476792Y-95671413D01*
X110546257Y-95913597D01*
X111069702Y-96100344D01*
X111624768Y-96072562D01*
X112008543Y-95913597D01*
X112078008Y-95671413D01*
X111277400Y-94870805D01*
X110476792Y-95671413D01*
X98989489Y-95671413D01*
X100177400Y-94483502D01*
X109868256Y-94483502D01*
X109896038Y-95038568D01*
X110055003Y-95422343D01*
X110297187Y-95491808D01*
X111097795Y-94691200D01*
X111457005Y-94691200D01*
X112257613Y-95491808D01*
X112499797Y-95422343D01*
X112686544Y-94898898D01*
X112658762Y-94343832D01*
X112499797Y-93960057D01*
X112424163Y-93938363D01*
X113733843Y-93938363D01*
X113832442Y-94205165D01*
X114441982Y-94431601D01*
X115091777Y-94407541D01*
X115580358Y-94205165D01*
X115678957Y-93938363D01*
X114706400Y-92965805D01*
X113733843Y-93938363D01*
X112424163Y-93938363D01*
X112257613Y-93890592D01*
X111457005Y-94691200D01*
X111097795Y-94691200D01*
X110297187Y-93890592D01*
X110055003Y-93960057D01*
X109868256Y-94483502D01*
X100177400Y-94483502D01*
X101908801Y-92752101D01*
X102073548Y-92505540D01*
X102120194Y-92271034D01*
X102131400Y-92214700D01*
X102131400Y-89887861D01*
X109880158Y-89887861D01*
X110092390Y-90401503D01*
X110485030Y-90794829D01*
X110692912Y-90881149D01*
X110487097Y-90966190D01*
X110093771Y-91358830D01*
X109880643Y-91872100D01*
X109880158Y-92427861D01*
X110092390Y-92941503D01*
X110485030Y-93334829D01*
X110677127Y-93414595D01*
X110546257Y-93468803D01*
X110476792Y-93710987D01*
X111277400Y-94511595D01*
X112078008Y-93710987D01*
X112008543Y-93468803D01*
X111868082Y-93418691D01*
X112067703Y-93336210D01*
X112461029Y-92943570D01*
X112636170Y-92521782D01*
X113060999Y-92521782D01*
X113085059Y-93171577D01*
X113287435Y-93660158D01*
X113554237Y-93758757D01*
X114526795Y-92786200D01*
X114886005Y-92786200D01*
X115858563Y-93758757D01*
X116125365Y-93660158D01*
X116351801Y-93050618D01*
X116327741Y-92400823D01*
X116125365Y-91912242D01*
X115858563Y-91813643D01*
X114886005Y-92786200D01*
X114526795Y-92786200D01*
X113554237Y-91813643D01*
X113287435Y-91912242D01*
X113060999Y-92521782D01*
X112636170Y-92521782D01*
X112674157Y-92430300D01*
X112674642Y-91874539D01*
X112462410Y-91360897D01*
X112069770Y-90967571D01*
X111861888Y-90881251D01*
X112067703Y-90796210D01*
X112461029Y-90403570D01*
X112474470Y-90371200D01*
X113199429Y-90371200D01*
X113319938Y-90662855D01*
X113779327Y-91123046D01*
X114100251Y-91256305D01*
X113832442Y-91367235D01*
X113733843Y-91634037D01*
X114706400Y-92606595D01*
X115678957Y-91634037D01*
X115580358Y-91367235D01*
X115297917Y-91262312D01*
X115631055Y-91124662D01*
X116091246Y-90665273D01*
X116340606Y-90064747D01*
X116341174Y-89414506D01*
X116092862Y-88813545D01*
X115633473Y-88353354D01*
X115032947Y-88103994D01*
X114382706Y-88103426D01*
X113781745Y-88351738D01*
X113321554Y-88811127D01*
X113304914Y-88851200D01*
X112474931Y-88851200D01*
X112462410Y-88820897D01*
X112069770Y-88427571D01*
X111556500Y-88214443D01*
X111000739Y-88213958D01*
X110487097Y-88426190D01*
X110093771Y-88818830D01*
X109880643Y-89332100D01*
X109880158Y-89887861D01*
X102131400Y-89887861D01*
X102131400Y-87035413D01*
X110349792Y-87035413D01*
X110419257Y-87277597D01*
X110942702Y-87464344D01*
X111497768Y-87436562D01*
X111881543Y-87277597D01*
X111951008Y-87035413D01*
X111150400Y-86234805D01*
X110349792Y-87035413D01*
X102131400Y-87035413D01*
X102131400Y-85810363D01*
X104208843Y-85810363D01*
X104307442Y-86077165D01*
X104916982Y-86303601D01*
X105566777Y-86279541D01*
X106055358Y-86077165D01*
X106153957Y-85810363D01*
X105181400Y-84837805D01*
X104208843Y-85810363D01*
X102131400Y-85810363D01*
X102131400Y-84393782D01*
X103535999Y-84393782D01*
X103560059Y-85043577D01*
X103762435Y-85532158D01*
X104029237Y-85630757D01*
X105001795Y-84658200D01*
X104029237Y-83685643D01*
X103762435Y-83784242D01*
X103535999Y-84393782D01*
X102131400Y-84393782D01*
X102131400Y-80594200D01*
X102073548Y-80303361D01*
X101908801Y-80056799D01*
X101269376Y-79417374D01*
X101304137Y-79365351D01*
X101354510Y-79112112D01*
X105262003Y-83019605D01*
G36*
X90231496Y-83547161D02*
X90353485Y-83769200D01*
X91846400Y-83769200D01*
X91846400Y-83749200D01*
X92100400Y-83749200D01*
X92100400Y-83769200D01*
X93593315Y-83769200D01*
X93715304Y-83547161D01*
X93697771Y-83464400D01*
X97859320Y-83464400D01*
X97773430Y-83896200D01*
X97882663Y-84445351D01*
X98193732Y-84910898D01*
X98659279Y-85221967D01*
X99208430Y-85331200D01*
X99978370Y-85331200D01*
X100527521Y-85221967D01*
X100611400Y-85165921D01*
X100611400Y-91899898D01*
X96550100Y-95961198D01*
X96514316Y-95961198D01*
X96636304Y-95739161D01*
X96618767Y-95656381D01*
X96348900Y-95163304D01*
X95919793Y-94818200D01*
X96348900Y-94473096D01*
X96618767Y-93980019D01*
X96636304Y-93897239D01*
X96514315Y-93675200D01*
X95021400Y-93675200D01*
X95021400Y-95961200D01*
X95041400Y-95961200D01*
X95041400Y-96215200D01*
X95021400Y-96215200D01*
X95021400Y-96235200D01*
X94767400Y-96235200D01*
X94767400Y-96215200D01*
X94747400Y-96215200D01*
X94747400Y-95961200D01*
X94767400Y-95961200D01*
X94767400Y-93675200D01*
X93274485Y-93675200D01*
X93152496Y-93897239D01*
X93170033Y-93980019D01*
X93439900Y-94473096D01*
X93869007Y-94818200D01*
X93439900Y-95163304D01*
X93170033Y-95656381D01*
X93152496Y-95739161D01*
X93274484Y-95961198D01*
X93111700Y-95961198D01*
X92701301Y-95550799D01*
X92454739Y-95386052D01*
X92163900Y-95328200D01*
X88844252Y-95328200D01*
X88674068Y-95073502D01*
X88291982Y-94818200D01*
X88674068Y-94562898D01*
X88985137Y-94097351D01*
X89094370Y-93548200D01*
X89024942Y-93199161D01*
X93152496Y-93199161D01*
X93274485Y-93421200D01*
X94767400Y-93421200D01*
X94767400Y-92113200D01*
X95021400Y-92113200D01*
X95021400Y-93421200D01*
X96514315Y-93421200D01*
X96636304Y-93199161D01*
X96618767Y-93116381D01*
X96348900Y-92623304D01*
X95910883Y-92271034D01*
X95371400Y-92113200D01*
X95021400Y-92113200D01*
X94767400Y-92113200D01*
X94417400Y-92113200D01*
X93877917Y-92271034D01*
X93439900Y-92623304D01*
X93170033Y-93116381D01*
X93152496Y-93199161D01*
X89024942Y-93199161D01*
X88985137Y-92999049D01*
X88674068Y-92533502D01*
X88208521Y-92222433D01*
X87659370Y-92113200D01*
X86889430Y-92113200D01*
X86510400Y-92188594D01*
X86510400Y-86058025D01*
X87074853Y-86292406D01*
X87725094Y-86292974D01*
X88326055Y-86044662D01*
X88786246Y-85585273D01*
X89035606Y-84984747D01*
X89036174Y-84334506D01*
X88999290Y-84245239D01*
X90231496Y-84245239D01*
X90249033Y-84328019D01*
X90518900Y-84821096D01*
X90956917Y-85173366D01*
X91496400Y-85331200D01*
X91846400Y-85331200D01*
X91846400Y-84023200D01*
X92100400Y-84023200D01*
X92100400Y-85331200D01*
X92450400Y-85331200D01*
X92989883Y-85173366D01*
X93427900Y-84821096D01*
X93697767Y-84328019D01*
X93715304Y-84245239D01*
X93593315Y-84023200D01*
X92100400Y-84023200D01*
X91846400Y-84023200D01*
X90353485Y-84023200D01*
X90231496Y-84245239D01*
X88999290Y-84245239D01*
X88962293Y-84155701D01*
X89653594Y-83464400D01*
X90249029Y-83464400D01*
X90231496Y-83547161D01*
X90231496Y-83547161D01*
G37*
X90231496Y-83547161D02*
X90353485Y-83769200D01*
X91846400Y-83769200D01*
X91846400Y-83749200D01*
X92100400Y-83749200D01*
X92100400Y-83769200D01*
X93593315Y-83769200D01*
X93715304Y-83547161D01*
X93697771Y-83464400D01*
X97859320Y-83464400D01*
X97773430Y-83896200D01*
X97882663Y-84445351D01*
X98193732Y-84910898D01*
X98659279Y-85221967D01*
X99208430Y-85331200D01*
X99978370Y-85331200D01*
X100527521Y-85221967D01*
X100611400Y-85165921D01*
X100611400Y-91899898D01*
X96550100Y-95961198D01*
X96514316Y-95961198D01*
X96636304Y-95739161D01*
X96618767Y-95656381D01*
X96348900Y-95163304D01*
X95919793Y-94818200D01*
X96348900Y-94473096D01*
X96618767Y-93980019D01*
X96636304Y-93897239D01*
X96514315Y-93675200D01*
X95021400Y-93675200D01*
X95021400Y-95961200D01*
X95041400Y-95961200D01*
X95041400Y-96215200D01*
X95021400Y-96215200D01*
X95021400Y-96235200D01*
X94767400Y-96235200D01*
X94767400Y-96215200D01*
X94747400Y-96215200D01*
X94747400Y-95961200D01*
X94767400Y-95961200D01*
X94767400Y-93675200D01*
X93274485Y-93675200D01*
X93152496Y-93897239D01*
X93170033Y-93980019D01*
X93439900Y-94473096D01*
X93869007Y-94818200D01*
X93439900Y-95163304D01*
X93170033Y-95656381D01*
X93152496Y-95739161D01*
X93274484Y-95961198D01*
X93111700Y-95961198D01*
X92701301Y-95550799D01*
X92454739Y-95386052D01*
X92163900Y-95328200D01*
X88844252Y-95328200D01*
X88674068Y-95073502D01*
X88291982Y-94818200D01*
X88674068Y-94562898D01*
X88985137Y-94097351D01*
X89094370Y-93548200D01*
X89024942Y-93199161D01*
X93152496Y-93199161D01*
X93274485Y-93421200D01*
X94767400Y-93421200D01*
X94767400Y-92113200D01*
X95021400Y-92113200D01*
X95021400Y-93421200D01*
X96514315Y-93421200D01*
X96636304Y-93199161D01*
X96618767Y-93116381D01*
X96348900Y-92623304D01*
X95910883Y-92271034D01*
X95371400Y-92113200D01*
X95021400Y-92113200D01*
X94767400Y-92113200D01*
X94417400Y-92113200D01*
X93877917Y-92271034D01*
X93439900Y-92623304D01*
X93170033Y-93116381D01*
X93152496Y-93199161D01*
X89024942Y-93199161D01*
X88985137Y-92999049D01*
X88674068Y-92533502D01*
X88208521Y-92222433D01*
X87659370Y-92113200D01*
X86889430Y-92113200D01*
X86510400Y-92188594D01*
X86510400Y-86058025D01*
X87074853Y-86292406D01*
X87725094Y-86292974D01*
X88326055Y-86044662D01*
X88786246Y-85585273D01*
X89035606Y-84984747D01*
X89036174Y-84334506D01*
X88999290Y-84245239D01*
X90231496Y-84245239D01*
X90249033Y-84328019D01*
X90518900Y-84821096D01*
X90956917Y-85173366D01*
X91496400Y-85331200D01*
X91846400Y-85331200D01*
X91846400Y-84023200D01*
X92100400Y-84023200D01*
X92100400Y-85331200D01*
X92450400Y-85331200D01*
X92989883Y-85173366D01*
X93427900Y-84821096D01*
X93697767Y-84328019D01*
X93715304Y-84245239D01*
X93593315Y-84023200D01*
X92100400Y-84023200D01*
X91846400Y-84023200D01*
X90353485Y-84023200D01*
X90231496Y-84245239D01*
X88999290Y-84245239D01*
X88962293Y-84155701D01*
X89653594Y-83464400D01*
X90249029Y-83464400D01*
X90231496Y-83547161D01*
G36*
X138176000Y-94361000D02*
X138196000Y-94361000D01*
X138196000Y-94615000D01*
X138176000Y-94615000D01*
X138176000Y-94635000D01*
X137922000Y-94635000D01*
X137922000Y-94615000D01*
X137902000Y-94615000D01*
X137902000Y-94361000D01*
X137922000Y-94361000D01*
X137922000Y-94341000D01*
X138176000Y-94341000D01*
X138176000Y-94361000D01*
X138176000Y-94361000D01*
G37*
X138176000Y-94361000D02*
X138196000Y-94361000D01*
X138196000Y-94615000D01*
X138176000Y-94615000D01*
X138176000Y-94635000D01*
X137922000Y-94635000D01*
X137922000Y-94615000D01*
X137902000Y-94615000D01*
X137902000Y-94361000D01*
X137922000Y-94361000D01*
X137922000Y-94341000D01*
X138176000Y-94341000D01*
X138176000Y-94361000D01*
G36*
X130471238Y-74494517D02*
X130610310Y-74710641D01*
X130822510Y-74855631D01*
X131074400Y-74906640D01*
X131836446Y-74906640D01*
X134670800Y-77740994D01*
X134670800Y-83100731D01*
X134419971Y-83268330D01*
X134221074Y-83566000D01*
X130200400Y-83566000D01*
X129879634Y-83629804D01*
X129607703Y-83811503D01*
X127115412Y-86303794D01*
X127056517Y-86161257D01*
X126793727Y-85898008D01*
X126450199Y-85755362D01*
X126403323Y-85755321D01*
X125239527Y-84591525D01*
X125277592Y-84553527D01*
X125420238Y-84209999D01*
X125420562Y-83838033D01*
X125324029Y-83604404D01*
X125486358Y-83537165D01*
X125584957Y-83270363D01*
X124612400Y-82297805D01*
X124598258Y-82311948D01*
X124418652Y-82132342D01*
X124432795Y-82118200D01*
X124792005Y-82118200D01*
X125764563Y-83090757D01*
X126031365Y-82992158D01*
X126257801Y-82382618D01*
X126233741Y-81732823D01*
X126031365Y-81244242D01*
X125764563Y-81145643D01*
X124792005Y-82118200D01*
X124432795Y-82118200D01*
X123460237Y-81145643D01*
X123193435Y-81244242D01*
X123081787Y-81544785D01*
X121720801Y-80183799D01*
X121474239Y-80019052D01*
X121183400Y-79961200D01*
X115904960Y-79961200D01*
X116086606Y-79523747D01*
X116087174Y-78873506D01*
X115838862Y-78272545D01*
X115379473Y-77812354D01*
X115197573Y-77736823D01*
X115377055Y-77662662D01*
X115837246Y-77203273D01*
X116086606Y-76602747D01*
X116086608Y-76599894D01*
X122977626Y-76599894D01*
X123225938Y-77200855D01*
X123685327Y-77661046D01*
X123852400Y-77730421D01*
X123852400Y-77742704D01*
X123687745Y-77810738D01*
X123227554Y-78270127D01*
X122978194Y-78870653D01*
X122977626Y-79520894D01*
X123225938Y-80121855D01*
X123685327Y-80582046D01*
X123853137Y-80651727D01*
X123738442Y-80699235D01*
X123639843Y-80966037D01*
X124612400Y-81938595D01*
X125584957Y-80966037D01*
X125486358Y-80699235D01*
X125365767Y-80654437D01*
X125537055Y-80583662D01*
X125997246Y-80124273D01*
X126246606Y-79523747D01*
X126247174Y-78873506D01*
X125998862Y-78272545D01*
X125539473Y-77812354D01*
X125372400Y-77742979D01*
X125372400Y-77730696D01*
X125537055Y-77662662D01*
X125997246Y-77203273D01*
X126246606Y-76602747D01*
X126247174Y-75952506D01*
X125998862Y-75351545D01*
X125539473Y-74891354D01*
X124938947Y-74641994D01*
X124288706Y-74641426D01*
X123687745Y-74889738D01*
X123227554Y-75349127D01*
X122978194Y-75949653D01*
X122977626Y-76599894D01*
X116086608Y-76599894D01*
X116087174Y-75952506D01*
X115901896Y-75504098D01*
X116958594Y-74447400D01*
X130462372Y-74447400D01*
X130471238Y-74494517D01*
X130471238Y-74494517D01*
G37*
X130471238Y-74494517D02*
X130610310Y-74710641D01*
X130822510Y-74855631D01*
X131074400Y-74906640D01*
X131836446Y-74906640D01*
X134670800Y-77740994D01*
X134670800Y-83100731D01*
X134419971Y-83268330D01*
X134221074Y-83566000D01*
X130200400Y-83566000D01*
X129879634Y-83629804D01*
X129607703Y-83811503D01*
X127115412Y-86303794D01*
X127056517Y-86161257D01*
X126793727Y-85898008D01*
X126450199Y-85755362D01*
X126403323Y-85755321D01*
X125239527Y-84591525D01*
X125277592Y-84553527D01*
X125420238Y-84209999D01*
X125420562Y-83838033D01*
X125324029Y-83604404D01*
X125486358Y-83537165D01*
X125584957Y-83270363D01*
X124612400Y-82297805D01*
X124598258Y-82311948D01*
X124418652Y-82132342D01*
X124432795Y-82118200D01*
X124792005Y-82118200D01*
X125764563Y-83090757D01*
X126031365Y-82992158D01*
X126257801Y-82382618D01*
X126233741Y-81732823D01*
X126031365Y-81244242D01*
X125764563Y-81145643D01*
X124792005Y-82118200D01*
X124432795Y-82118200D01*
X123460237Y-81145643D01*
X123193435Y-81244242D01*
X123081787Y-81544785D01*
X121720801Y-80183799D01*
X121474239Y-80019052D01*
X121183400Y-79961200D01*
X115904960Y-79961200D01*
X116086606Y-79523747D01*
X116087174Y-78873506D01*
X115838862Y-78272545D01*
X115379473Y-77812354D01*
X115197573Y-77736823D01*
X115377055Y-77662662D01*
X115837246Y-77203273D01*
X116086606Y-76602747D01*
X116086608Y-76599894D01*
X122977626Y-76599894D01*
X123225938Y-77200855D01*
X123685327Y-77661046D01*
X123852400Y-77730421D01*
X123852400Y-77742704D01*
X123687745Y-77810738D01*
X123227554Y-78270127D01*
X122978194Y-78870653D01*
X122977626Y-79520894D01*
X123225938Y-80121855D01*
X123685327Y-80582046D01*
X123853137Y-80651727D01*
X123738442Y-80699235D01*
X123639843Y-80966037D01*
X124612400Y-81938595D01*
X125584957Y-80966037D01*
X125486358Y-80699235D01*
X125365767Y-80654437D01*
X125537055Y-80583662D01*
X125997246Y-80124273D01*
X126246606Y-79523747D01*
X126247174Y-78873506D01*
X125998862Y-78272545D01*
X125539473Y-77812354D01*
X125372400Y-77742979D01*
X125372400Y-77730696D01*
X125537055Y-77662662D01*
X125997246Y-77203273D01*
X126246606Y-76602747D01*
X126247174Y-75952506D01*
X125998862Y-75351545D01*
X125539473Y-74891354D01*
X124938947Y-74641994D01*
X124288706Y-74641426D01*
X123687745Y-74889738D01*
X123227554Y-75349127D01*
X122978194Y-75949653D01*
X122977626Y-76599894D01*
X116086608Y-76599894D01*
X116087174Y-75952506D01*
X115901896Y-75504098D01*
X116958594Y-74447400D01*
X130462372Y-74447400D01*
X130471238Y-74494517D01*
G36*
X89322626Y-56914894D02*
X89570938Y-57515855D01*
X90030327Y-57976046D01*
X90630853Y-58225406D01*
X90834982Y-58225584D01*
X92038582Y-59429184D01*
X92038215Y-59849583D01*
X91435999Y-60451799D01*
X91271252Y-60698361D01*
X91213400Y-60989200D01*
X91213400Y-64668760D01*
X90823400Y-64668760D01*
X90588083Y-64713038D01*
X90371959Y-64852110D01*
X90226969Y-65064310D01*
X90175960Y-65316200D01*
X90175960Y-66916200D01*
X90220238Y-67151517D01*
X90359310Y-67367641D01*
X90571510Y-67512631D01*
X90721226Y-67542949D01*
X90573732Y-67641502D01*
X90262663Y-68107049D01*
X90153430Y-68656200D01*
X90262663Y-69205351D01*
X90573732Y-69670898D01*
X90951551Y-69923349D01*
X90518900Y-70271304D01*
X90249033Y-70764381D01*
X90231496Y-70847161D01*
X90353485Y-71069200D01*
X91846400Y-71069200D01*
X91846400Y-71049200D01*
X92100400Y-71049200D01*
X92100400Y-71069200D01*
X93593315Y-71069200D01*
X93715304Y-70847161D01*
X93697767Y-70764381D01*
X93427900Y-70271304D01*
X92995249Y-69923349D01*
X93221243Y-69772345D01*
X96579499Y-73130601D01*
X96826061Y-73295348D01*
X97116900Y-73353200D01*
X97858691Y-73353200D01*
X97851496Y-73387161D01*
X97973485Y-73609200D01*
X99466400Y-73609200D01*
X99466400Y-73589200D01*
X99720400Y-73589200D01*
X99720400Y-73609200D01*
X99740400Y-73609200D01*
X99740400Y-73863200D01*
X99720400Y-73863200D01*
X99720400Y-76149200D01*
X101213315Y-76149200D01*
X101335304Y-75927161D01*
X101317767Y-75844381D01*
X101047900Y-75351304D01*
X100618793Y-75006200D01*
X101047900Y-74661096D01*
X101266531Y-74261633D01*
X109787499Y-82782601D01*
X109908406Y-82863389D01*
X109753643Y-83236100D01*
X109753158Y-83791861D01*
X109849571Y-84025200D01*
X108417202Y-84025200D01*
X101400801Y-77008799D01*
X101219462Y-76887633D01*
X101317767Y-76708019D01*
X101335304Y-76625239D01*
X101213315Y-76403200D01*
X99720400Y-76403200D01*
X99720400Y-76423200D01*
X99466400Y-76423200D01*
X99466400Y-76403200D01*
X97973485Y-76403200D01*
X97851496Y-76625239D01*
X97869033Y-76708019D01*
X97911822Y-76786200D01*
X93691925Y-76786200D01*
X93793370Y-76276200D01*
X93684137Y-75727049D01*
X93373068Y-75261502D01*
X92995249Y-75009051D01*
X93427900Y-74661096D01*
X93697767Y-74168019D01*
X93715304Y-74085239D01*
X97851496Y-74085239D01*
X97869033Y-74168019D01*
X98138900Y-74661096D01*
X98568007Y-75006200D01*
X98138900Y-75351304D01*
X97869033Y-75844381D01*
X97851496Y-75927161D01*
X97973485Y-76149200D01*
X99466400Y-76149200D01*
X99466400Y-73863200D01*
X97973485Y-73863200D01*
X97851496Y-74085239D01*
X93715304Y-74085239D01*
X93593315Y-73863200D01*
X92100400Y-73863200D01*
X92100400Y-73883200D01*
X91846400Y-73883200D01*
X91846400Y-73863200D01*
X90586733Y-73863200D01*
X90486239Y-73796052D01*
X90195400Y-73738200D01*
X88855896Y-73738200D01*
X88787862Y-73573545D01*
X88328473Y-73113354D01*
X88034400Y-72991244D01*
X88034400Y-71545239D01*
X90231496Y-71545239D01*
X90249033Y-71628019D01*
X90518900Y-72121096D01*
X90948007Y-72466200D01*
X90518900Y-72811304D01*
X90249033Y-73304381D01*
X90231496Y-73387161D01*
X90353485Y-73609200D01*
X91846400Y-73609200D01*
X91846400Y-71323200D01*
X92100400Y-71323200D01*
X92100400Y-73609200D01*
X93593315Y-73609200D01*
X93715304Y-73387161D01*
X93697767Y-73304381D01*
X93427900Y-72811304D01*
X92998793Y-72466200D01*
X93427900Y-72121096D01*
X93697767Y-71628019D01*
X93715304Y-71545239D01*
X93593315Y-71323200D01*
X92100400Y-71323200D01*
X91846400Y-71323200D01*
X90353485Y-71323200D01*
X90231496Y-71545239D01*
X88034400Y-71545239D01*
X88034400Y-66878200D01*
X87976548Y-66587361D01*
X87811801Y-66340799D01*
X86880583Y-65409581D01*
X86893157Y-65379300D01*
X86893642Y-64823539D01*
X86681410Y-64309897D01*
X86288770Y-63916571D01*
X85775500Y-63703443D01*
X85219739Y-63702958D01*
X84706097Y-63915190D01*
X84312771Y-64307830D01*
X84099643Y-64821100D01*
X84099158Y-65376861D01*
X84311390Y-65890503D01*
X84704030Y-66283829D01*
X84911912Y-66370149D01*
X84706097Y-66455190D01*
X84312771Y-66847830D01*
X84099643Y-67361100D01*
X84099158Y-67916861D01*
X84112543Y-67949255D01*
X83688999Y-68372799D01*
X83524252Y-68619361D01*
X83466400Y-68910200D01*
X83466400Y-73043704D01*
X83301745Y-73111738D01*
X82969100Y-73443803D01*
X82969100Y-63161394D01*
X89322720Y-56807774D01*
X89322626Y-56914894D01*
X89322626Y-56914894D01*
G37*
X89322626Y-56914894D02*
X89570938Y-57515855D01*
X90030327Y-57976046D01*
X90630853Y-58225406D01*
X90834982Y-58225584D01*
X92038582Y-59429184D01*
X92038215Y-59849583D01*
X91435999Y-60451799D01*
X91271252Y-60698361D01*
X91213400Y-60989200D01*
X91213400Y-64668760D01*
X90823400Y-64668760D01*
X90588083Y-64713038D01*
X90371959Y-64852110D01*
X90226969Y-65064310D01*
X90175960Y-65316200D01*
X90175960Y-66916200D01*
X90220238Y-67151517D01*
X90359310Y-67367641D01*
X90571510Y-67512631D01*
X90721226Y-67542949D01*
X90573732Y-67641502D01*
X90262663Y-68107049D01*
X90153430Y-68656200D01*
X90262663Y-69205351D01*
X90573732Y-69670898D01*
X90951551Y-69923349D01*
X90518900Y-70271304D01*
X90249033Y-70764381D01*
X90231496Y-70847161D01*
X90353485Y-71069200D01*
X91846400Y-71069200D01*
X91846400Y-71049200D01*
X92100400Y-71049200D01*
X92100400Y-71069200D01*
X93593315Y-71069200D01*
X93715304Y-70847161D01*
X93697767Y-70764381D01*
X93427900Y-70271304D01*
X92995249Y-69923349D01*
X93221243Y-69772345D01*
X96579499Y-73130601D01*
X96826061Y-73295348D01*
X97116900Y-73353200D01*
X97858691Y-73353200D01*
X97851496Y-73387161D01*
X97973485Y-73609200D01*
X99466400Y-73609200D01*
X99466400Y-73589200D01*
X99720400Y-73589200D01*
X99720400Y-73609200D01*
X99740400Y-73609200D01*
X99740400Y-73863200D01*
X99720400Y-73863200D01*
X99720400Y-76149200D01*
X101213315Y-76149200D01*
X101335304Y-75927161D01*
X101317767Y-75844381D01*
X101047900Y-75351304D01*
X100618793Y-75006200D01*
X101047900Y-74661096D01*
X101266531Y-74261633D01*
X109787499Y-82782601D01*
X109908406Y-82863389D01*
X109753643Y-83236100D01*
X109753158Y-83791861D01*
X109849571Y-84025200D01*
X108417202Y-84025200D01*
X101400801Y-77008799D01*
X101219462Y-76887633D01*
X101317767Y-76708019D01*
X101335304Y-76625239D01*
X101213315Y-76403200D01*
X99720400Y-76403200D01*
X99720400Y-76423200D01*
X99466400Y-76423200D01*
X99466400Y-76403200D01*
X97973485Y-76403200D01*
X97851496Y-76625239D01*
X97869033Y-76708019D01*
X97911822Y-76786200D01*
X93691925Y-76786200D01*
X93793370Y-76276200D01*
X93684137Y-75727049D01*
X93373068Y-75261502D01*
X92995249Y-75009051D01*
X93427900Y-74661096D01*
X93697767Y-74168019D01*
X93715304Y-74085239D01*
X97851496Y-74085239D01*
X97869033Y-74168019D01*
X98138900Y-74661096D01*
X98568007Y-75006200D01*
X98138900Y-75351304D01*
X97869033Y-75844381D01*
X97851496Y-75927161D01*
X97973485Y-76149200D01*
X99466400Y-76149200D01*
X99466400Y-73863200D01*
X97973485Y-73863200D01*
X97851496Y-74085239D01*
X93715304Y-74085239D01*
X93593315Y-73863200D01*
X92100400Y-73863200D01*
X92100400Y-73883200D01*
X91846400Y-73883200D01*
X91846400Y-73863200D01*
X90586733Y-73863200D01*
X90486239Y-73796052D01*
X90195400Y-73738200D01*
X88855896Y-73738200D01*
X88787862Y-73573545D01*
X88328473Y-73113354D01*
X88034400Y-72991244D01*
X88034400Y-71545239D01*
X90231496Y-71545239D01*
X90249033Y-71628019D01*
X90518900Y-72121096D01*
X90948007Y-72466200D01*
X90518900Y-72811304D01*
X90249033Y-73304381D01*
X90231496Y-73387161D01*
X90353485Y-73609200D01*
X91846400Y-73609200D01*
X91846400Y-71323200D01*
X92100400Y-71323200D01*
X92100400Y-73609200D01*
X93593315Y-73609200D01*
X93715304Y-73387161D01*
X93697767Y-73304381D01*
X93427900Y-72811304D01*
X92998793Y-72466200D01*
X93427900Y-72121096D01*
X93697767Y-71628019D01*
X93715304Y-71545239D01*
X93593315Y-71323200D01*
X92100400Y-71323200D01*
X91846400Y-71323200D01*
X90353485Y-71323200D01*
X90231496Y-71545239D01*
X88034400Y-71545239D01*
X88034400Y-66878200D01*
X87976548Y-66587361D01*
X87811801Y-66340799D01*
X86880583Y-65409581D01*
X86893157Y-65379300D01*
X86893642Y-64823539D01*
X86681410Y-64309897D01*
X86288770Y-63916571D01*
X85775500Y-63703443D01*
X85219739Y-63702958D01*
X84706097Y-63915190D01*
X84312771Y-64307830D01*
X84099643Y-64821100D01*
X84099158Y-65376861D01*
X84311390Y-65890503D01*
X84704030Y-66283829D01*
X84911912Y-66370149D01*
X84706097Y-66455190D01*
X84312771Y-66847830D01*
X84099643Y-67361100D01*
X84099158Y-67916861D01*
X84112543Y-67949255D01*
X83688999Y-68372799D01*
X83524252Y-68619361D01*
X83466400Y-68910200D01*
X83466400Y-73043704D01*
X83301745Y-73111738D01*
X82969100Y-73443803D01*
X82969100Y-63161394D01*
X89322720Y-56807774D01*
X89322626Y-56914894D01*
G36*
X149962024Y-66962826D02*
X149927263Y-67014849D01*
X149818030Y-67564000D01*
X149927263Y-68113151D01*
X150238332Y-68578698D01*
X150620418Y-68834000D01*
X150238332Y-69089302D01*
X149927263Y-69554849D01*
X149818030Y-70104000D01*
X149927263Y-70653151D01*
X149962024Y-70705174D01*
X149855999Y-70811199D01*
X149691252Y-71057761D01*
X149633400Y-71348600D01*
X149633400Y-72586458D01*
X149508083Y-72610038D01*
X149291959Y-72749110D01*
X149146969Y-72961310D01*
X149095960Y-73213200D01*
X149095960Y-74500200D01*
X146964400Y-74500200D01*
X146673561Y-74558052D01*
X146426999Y-74722799D01*
X138332838Y-82816960D01*
X137185400Y-82816960D01*
X136950083Y-82861238D01*
X136733959Y-83000310D01*
X136588969Y-83212510D01*
X136580092Y-83256345D01*
X136347200Y-83100731D01*
X136347200Y-77393800D01*
X136283396Y-77073035D01*
X136101697Y-76801103D01*
X133808810Y-74508216D01*
X136004990Y-74508216D01*
X136060671Y-74738811D01*
X136543478Y-74906822D01*
X137053828Y-74877283D01*
X137331624Y-74762216D01*
X144673990Y-74762216D01*
X144729671Y-74992811D01*
X145212478Y-75160822D01*
X145722828Y-75131283D01*
X146057129Y-74992811D01*
X146112810Y-74762216D01*
X145393400Y-74042805D01*
X144673990Y-74762216D01*
X137331624Y-74762216D01*
X137388129Y-74738811D01*
X137443810Y-74508216D01*
X136724400Y-73788805D01*
X136004990Y-74508216D01*
X133808810Y-74508216D01*
X133021840Y-73721246D01*
X133021840Y-73497154D01*
X133079097Y-73439897D01*
X133260796Y-73167965D01*
X133269925Y-73122069D01*
X133595594Y-72796400D01*
X135731992Y-72796400D01*
X135825382Y-72889790D01*
X135594789Y-72945471D01*
X135426778Y-73428278D01*
X135456317Y-73938628D01*
X135594789Y-74272929D01*
X135825384Y-74328610D01*
X136544795Y-73609200D01*
X136530652Y-73595058D01*
X136710258Y-73415452D01*
X136724400Y-73429595D01*
X136738542Y-73415452D01*
X136918148Y-73595058D01*
X136904005Y-73609200D01*
X137623416Y-74328610D01*
X137854011Y-74272929D01*
X138022022Y-73790122D01*
X138015781Y-73682278D01*
X144095778Y-73682278D01*
X144125317Y-74192628D01*
X144263789Y-74526929D01*
X144494384Y-74582610D01*
X145213795Y-73863200D01*
X145573005Y-73863200D01*
X146292416Y-74582610D01*
X146523011Y-74526929D01*
X146691022Y-74044122D01*
X146661483Y-73533772D01*
X146523011Y-73199471D01*
X146292416Y-73143790D01*
X145573005Y-73863200D01*
X145213795Y-73863200D01*
X144494384Y-73143790D01*
X144263789Y-73199471D01*
X144095778Y-73682278D01*
X138015781Y-73682278D01*
X137992483Y-73279772D01*
X137861763Y-72964184D01*
X144673990Y-72964184D01*
X145393400Y-73683595D01*
X146112810Y-72964184D01*
X146057129Y-72733589D01*
X145574322Y-72565578D01*
X145063972Y-72595117D01*
X144729671Y-72733589D01*
X144673990Y-72964184D01*
X137861763Y-72964184D01*
X137854011Y-72945471D01*
X137623418Y-72889790D01*
X137716808Y-72796400D01*
X142163800Y-72796400D01*
X142484566Y-72732596D01*
X142756497Y-72550897D01*
X143768394Y-71539000D01*
X144402970Y-71539000D01*
X144952121Y-71429767D01*
X145417668Y-71118698D01*
X145728737Y-70653151D01*
X145837970Y-70104000D01*
X145728737Y-69554849D01*
X145417668Y-69089302D01*
X145035582Y-68834000D01*
X145417668Y-68578698D01*
X145728737Y-68113151D01*
X145837970Y-67564000D01*
X145728737Y-67014849D01*
X145417668Y-66549302D01*
X145035582Y-66294000D01*
X145417668Y-66038698D01*
X145587852Y-65784000D01*
X148783198Y-65784000D01*
X149962024Y-66962826D01*
X149962024Y-66962826D01*
G37*
X149962024Y-66962826D02*
X149927263Y-67014849D01*
X149818030Y-67564000D01*
X149927263Y-68113151D01*
X150238332Y-68578698D01*
X150620418Y-68834000D01*
X150238332Y-69089302D01*
X149927263Y-69554849D01*
X149818030Y-70104000D01*
X149927263Y-70653151D01*
X149962024Y-70705174D01*
X149855999Y-70811199D01*
X149691252Y-71057761D01*
X149633400Y-71348600D01*
X149633400Y-72586458D01*
X149508083Y-72610038D01*
X149291959Y-72749110D01*
X149146969Y-72961310D01*
X149095960Y-73213200D01*
X149095960Y-74500200D01*
X146964400Y-74500200D01*
X146673561Y-74558052D01*
X146426999Y-74722799D01*
X138332838Y-82816960D01*
X137185400Y-82816960D01*
X136950083Y-82861238D01*
X136733959Y-83000310D01*
X136588969Y-83212510D01*
X136580092Y-83256345D01*
X136347200Y-83100731D01*
X136347200Y-77393800D01*
X136283396Y-77073035D01*
X136101697Y-76801103D01*
X133808810Y-74508216D01*
X136004990Y-74508216D01*
X136060671Y-74738811D01*
X136543478Y-74906822D01*
X137053828Y-74877283D01*
X137331624Y-74762216D01*
X144673990Y-74762216D01*
X144729671Y-74992811D01*
X145212478Y-75160822D01*
X145722828Y-75131283D01*
X146057129Y-74992811D01*
X146112810Y-74762216D01*
X145393400Y-74042805D01*
X144673990Y-74762216D01*
X137331624Y-74762216D01*
X137388129Y-74738811D01*
X137443810Y-74508216D01*
X136724400Y-73788805D01*
X136004990Y-74508216D01*
X133808810Y-74508216D01*
X133021840Y-73721246D01*
X133021840Y-73497154D01*
X133079097Y-73439897D01*
X133260796Y-73167965D01*
X133269925Y-73122069D01*
X133595594Y-72796400D01*
X135731992Y-72796400D01*
X135825382Y-72889790D01*
X135594789Y-72945471D01*
X135426778Y-73428278D01*
X135456317Y-73938628D01*
X135594789Y-74272929D01*
X135825384Y-74328610D01*
X136544795Y-73609200D01*
X136530652Y-73595058D01*
X136710258Y-73415452D01*
X136724400Y-73429595D01*
X136738542Y-73415452D01*
X136918148Y-73595058D01*
X136904005Y-73609200D01*
X137623416Y-74328610D01*
X137854011Y-74272929D01*
X138022022Y-73790122D01*
X138015781Y-73682278D01*
X144095778Y-73682278D01*
X144125317Y-74192628D01*
X144263789Y-74526929D01*
X144494384Y-74582610D01*
X145213795Y-73863200D01*
X145573005Y-73863200D01*
X146292416Y-74582610D01*
X146523011Y-74526929D01*
X146691022Y-74044122D01*
X146661483Y-73533772D01*
X146523011Y-73199471D01*
X146292416Y-73143790D01*
X145573005Y-73863200D01*
X145213795Y-73863200D01*
X144494384Y-73143790D01*
X144263789Y-73199471D01*
X144095778Y-73682278D01*
X138015781Y-73682278D01*
X137992483Y-73279772D01*
X137861763Y-72964184D01*
X144673990Y-72964184D01*
X145393400Y-73683595D01*
X146112810Y-72964184D01*
X146057129Y-72733589D01*
X145574322Y-72565578D01*
X145063972Y-72595117D01*
X144729671Y-72733589D01*
X144673990Y-72964184D01*
X137861763Y-72964184D01*
X137854011Y-72945471D01*
X137623418Y-72889790D01*
X137716808Y-72796400D01*
X142163800Y-72796400D01*
X142484566Y-72732596D01*
X142756497Y-72550897D01*
X143768394Y-71539000D01*
X144402970Y-71539000D01*
X144952121Y-71429767D01*
X145417668Y-71118698D01*
X145728737Y-70653151D01*
X145837970Y-70104000D01*
X145728737Y-69554849D01*
X145417668Y-69089302D01*
X145035582Y-68834000D01*
X145417668Y-68578698D01*
X145728737Y-68113151D01*
X145837970Y-67564000D01*
X145728737Y-67014849D01*
X145417668Y-66549302D01*
X145035582Y-66294000D01*
X145417668Y-66038698D01*
X145587852Y-65784000D01*
X148783198Y-65784000D01*
X149962024Y-66962826D01*
G36*
X109626158Y-63344861D02*
X109838390Y-63858503D01*
X110127242Y-64147860D01*
X109839771Y-64434830D01*
X109626643Y-64948100D01*
X109626158Y-65503861D01*
X109838390Y-66017503D01*
X110231030Y-66410829D01*
X110438912Y-66497149D01*
X110233097Y-66582190D01*
X109839771Y-66974830D01*
X109626643Y-67488100D01*
X109626158Y-68043861D01*
X109838390Y-68557503D01*
X110231030Y-68950829D01*
X110423127Y-69030595D01*
X110292257Y-69084803D01*
X110222792Y-69326987D01*
X111023400Y-70127595D01*
X111824008Y-69326987D01*
X111754543Y-69084803D01*
X111614082Y-69034691D01*
X111813703Y-68952210D01*
X112207029Y-68559570D01*
X112220470Y-68527200D01*
X113309400Y-68527200D01*
X113600239Y-68469348D01*
X113846801Y-68304601D01*
X113961317Y-68190085D01*
X114125853Y-68258406D01*
X114776094Y-68258974D01*
X115377055Y-68010662D01*
X115392200Y-67995543D01*
X115392200Y-73643006D01*
X114393549Y-74641657D01*
X114128706Y-74641426D01*
X113527745Y-74889738D01*
X113147774Y-75269047D01*
X113097703Y-75302503D01*
X112547438Y-75852768D01*
X112547642Y-75618539D01*
X112335410Y-75104897D01*
X111942770Y-74711571D01*
X111734888Y-74625251D01*
X111940703Y-74540210D01*
X112334029Y-74147570D01*
X112547157Y-73634300D01*
X112547642Y-73078539D01*
X112335410Y-72564897D01*
X111942770Y-72171571D01*
X111429500Y-71958443D01*
X110873739Y-71957958D01*
X110360097Y-72170190D01*
X109966771Y-72562830D01*
X109753643Y-73076100D01*
X109753158Y-73631861D01*
X109766543Y-73664255D01*
X109692598Y-73738200D01*
X106635896Y-73738200D01*
X106567862Y-73573545D01*
X106108473Y-73113354D01*
X105507947Y-72863994D01*
X104857706Y-72863426D01*
X104690511Y-72932509D01*
X103045415Y-71287413D01*
X110222792Y-71287413D01*
X110292257Y-71529597D01*
X110815702Y-71716344D01*
X111370768Y-71688562D01*
X111754543Y-71529597D01*
X111824008Y-71287413D01*
X111023400Y-70486805D01*
X110222792Y-71287413D01*
X103045415Y-71287413D01*
X101174202Y-69416200D01*
X103674021Y-69416200D01*
X103673626Y-69868894D01*
X103921938Y-70469855D01*
X104381327Y-70930046D01*
X104981853Y-71179406D01*
X105632094Y-71179974D01*
X106233055Y-70931662D01*
X106693246Y-70472273D01*
X106848033Y-70099502D01*
X109614256Y-70099502D01*
X109642038Y-70654568D01*
X109801003Y-71038343D01*
X110043187Y-71107808D01*
X110843795Y-70307200D01*
X111203005Y-70307200D01*
X112003613Y-71107808D01*
X112245797Y-71038343D01*
X112432544Y-70514898D01*
X112404762Y-69959832D01*
X112245797Y-69576057D01*
X112003613Y-69506592D01*
X111203005Y-70307200D01*
X110843795Y-70307200D01*
X110043187Y-69506592D01*
X109801003Y-69576057D01*
X109614256Y-70099502D01*
X106848033Y-70099502D01*
X106942606Y-69871747D01*
X106943174Y-69221506D01*
X106694862Y-68620545D01*
X106235473Y-68160354D01*
X105634947Y-67910994D01*
X104984706Y-67910426D01*
X104774770Y-67997170D01*
X104710239Y-67954052D01*
X104419400Y-67896200D01*
X101163252Y-67896200D01*
X100993068Y-67641502D01*
X100610982Y-67386200D01*
X100993068Y-67130898D01*
X101304137Y-66665351D01*
X101413370Y-66116200D01*
X101304137Y-65567049D01*
X100993068Y-65101502D01*
X100527521Y-64790433D01*
X99978370Y-64681200D01*
X99343794Y-64681200D01*
X99161600Y-64499006D01*
X99161600Y-63568228D01*
X99208717Y-63559362D01*
X99424841Y-63420290D01*
X99569831Y-63208090D01*
X99582729Y-63144400D01*
X109626333Y-63144400D01*
X109626158Y-63344861D01*
X109626158Y-63344861D01*
G37*
X109626158Y-63344861D02*
X109838390Y-63858503D01*
X110127242Y-64147860D01*
X109839771Y-64434830D01*
X109626643Y-64948100D01*
X109626158Y-65503861D01*
X109838390Y-66017503D01*
X110231030Y-66410829D01*
X110438912Y-66497149D01*
X110233097Y-66582190D01*
X109839771Y-66974830D01*
X109626643Y-67488100D01*
X109626158Y-68043861D01*
X109838390Y-68557503D01*
X110231030Y-68950829D01*
X110423127Y-69030595D01*
X110292257Y-69084803D01*
X110222792Y-69326987D01*
X111023400Y-70127595D01*
X111824008Y-69326987D01*
X111754543Y-69084803D01*
X111614082Y-69034691D01*
X111813703Y-68952210D01*
X112207029Y-68559570D01*
X112220470Y-68527200D01*
X113309400Y-68527200D01*
X113600239Y-68469348D01*
X113846801Y-68304601D01*
X113961317Y-68190085D01*
X114125853Y-68258406D01*
X114776094Y-68258974D01*
X115377055Y-68010662D01*
X115392200Y-67995543D01*
X115392200Y-73643006D01*
X114393549Y-74641657D01*
X114128706Y-74641426D01*
X113527745Y-74889738D01*
X113147774Y-75269047D01*
X113097703Y-75302503D01*
X112547438Y-75852768D01*
X112547642Y-75618539D01*
X112335410Y-75104897D01*
X111942770Y-74711571D01*
X111734888Y-74625251D01*
X111940703Y-74540210D01*
X112334029Y-74147570D01*
X112547157Y-73634300D01*
X112547642Y-73078539D01*
X112335410Y-72564897D01*
X111942770Y-72171571D01*
X111429500Y-71958443D01*
X110873739Y-71957958D01*
X110360097Y-72170190D01*
X109966771Y-72562830D01*
X109753643Y-73076100D01*
X109753158Y-73631861D01*
X109766543Y-73664255D01*
X109692598Y-73738200D01*
X106635896Y-73738200D01*
X106567862Y-73573545D01*
X106108473Y-73113354D01*
X105507947Y-72863994D01*
X104857706Y-72863426D01*
X104690511Y-72932509D01*
X103045415Y-71287413D01*
X110222792Y-71287413D01*
X110292257Y-71529597D01*
X110815702Y-71716344D01*
X111370768Y-71688562D01*
X111754543Y-71529597D01*
X111824008Y-71287413D01*
X111023400Y-70486805D01*
X110222792Y-71287413D01*
X103045415Y-71287413D01*
X101174202Y-69416200D01*
X103674021Y-69416200D01*
X103673626Y-69868894D01*
X103921938Y-70469855D01*
X104381327Y-70930046D01*
X104981853Y-71179406D01*
X105632094Y-71179974D01*
X106233055Y-70931662D01*
X106693246Y-70472273D01*
X106848033Y-70099502D01*
X109614256Y-70099502D01*
X109642038Y-70654568D01*
X109801003Y-71038343D01*
X110043187Y-71107808D01*
X110843795Y-70307200D01*
X111203005Y-70307200D01*
X112003613Y-71107808D01*
X112245797Y-71038343D01*
X112432544Y-70514898D01*
X112404762Y-69959832D01*
X112245797Y-69576057D01*
X112003613Y-69506592D01*
X111203005Y-70307200D01*
X110843795Y-70307200D01*
X110043187Y-69506592D01*
X109801003Y-69576057D01*
X109614256Y-70099502D01*
X106848033Y-70099502D01*
X106942606Y-69871747D01*
X106943174Y-69221506D01*
X106694862Y-68620545D01*
X106235473Y-68160354D01*
X105634947Y-67910994D01*
X104984706Y-67910426D01*
X104774770Y-67997170D01*
X104710239Y-67954052D01*
X104419400Y-67896200D01*
X101163252Y-67896200D01*
X100993068Y-67641502D01*
X100610982Y-67386200D01*
X100993068Y-67130898D01*
X101304137Y-66665351D01*
X101413370Y-66116200D01*
X101304137Y-65567049D01*
X100993068Y-65101502D01*
X100527521Y-64790433D01*
X99978370Y-64681200D01*
X99343794Y-64681200D01*
X99161600Y-64499006D01*
X99161600Y-63568228D01*
X99208717Y-63559362D01*
X99424841Y-63420290D01*
X99569831Y-63208090D01*
X99582729Y-63144400D01*
X109626333Y-63144400D01*
X109626158Y-63344861D01*
G36*
X86514400Y-69390430D02*
X86476613Y-69379592D01*
X85676005Y-70180200D01*
X86476613Y-70980808D01*
X86514400Y-70969970D01*
X86514400Y-73096179D01*
X86476745Y-73111738D01*
X86016554Y-73571127D01*
X85813709Y-74059632D01*
X85612862Y-73573545D01*
X85153473Y-73113354D01*
X84986400Y-73043979D01*
X84986400Y-71481493D01*
X85288702Y-71589344D01*
X85843768Y-71561562D01*
X86227543Y-71402597D01*
X86297008Y-71160413D01*
X85496400Y-70359805D01*
X85482258Y-70373948D01*
X85302653Y-70194343D01*
X85316795Y-70180200D01*
X85302653Y-70166058D01*
X85482258Y-69986453D01*
X85496400Y-70000595D01*
X86297008Y-69199987D01*
X86227543Y-68957803D01*
X86087082Y-68907691D01*
X86286703Y-68825210D01*
X86514400Y-68597910D01*
X86514400Y-69390430D01*
X86514400Y-69390430D01*
G37*
X86514400Y-69390430D02*
X86476613Y-69379592D01*
X85676005Y-70180200D01*
X86476613Y-70980808D01*
X86514400Y-70969970D01*
X86514400Y-73096179D01*
X86476745Y-73111738D01*
X86016554Y-73571127D01*
X85813709Y-74059632D01*
X85612862Y-73573545D01*
X85153473Y-73113354D01*
X84986400Y-73043979D01*
X84986400Y-71481493D01*
X85288702Y-71589344D01*
X85843768Y-71561562D01*
X86227543Y-71402597D01*
X86297008Y-71160413D01*
X85496400Y-70359805D01*
X85482258Y-70373948D01*
X85302653Y-70194343D01*
X85316795Y-70180200D01*
X85302653Y-70166058D01*
X85482258Y-69986453D01*
X85496400Y-70000595D01*
X86297008Y-69199987D01*
X86227543Y-68957803D01*
X86087082Y-68907691D01*
X86286703Y-68825210D01*
X86514400Y-68597910D01*
X86514400Y-69390430D01*
G36*
X135633960Y-58384154D02*
X135633960Y-59146200D01*
X135678238Y-59381517D01*
X135817310Y-59597641D01*
X136029510Y-59742631D01*
X136093200Y-59755529D01*
X136093200Y-61036200D01*
X136157004Y-61356966D01*
X136338703Y-61628897D01*
X136486713Y-61776907D01*
X136381430Y-62306200D01*
X136490663Y-62855351D01*
X136801732Y-63320898D01*
X137183818Y-63576200D01*
X136801732Y-63831502D01*
X136490663Y-64297049D01*
X136440290Y-64550288D01*
X136198801Y-64308799D01*
X135952239Y-64144052D01*
X135661400Y-64086200D01*
X132151252Y-64086200D01*
X131981068Y-63831502D01*
X131598982Y-63576200D01*
X131981068Y-63320898D01*
X132292137Y-62855351D01*
X132401370Y-62306200D01*
X132292137Y-61757049D01*
X131981068Y-61291502D01*
X131515521Y-60980433D01*
X130966370Y-60871200D01*
X130196430Y-60871200D01*
X129647279Y-60980433D01*
X129181732Y-61291502D01*
X128870663Y-61757049D01*
X128761430Y-62306200D01*
X128870663Y-62855351D01*
X129181732Y-63320898D01*
X129563818Y-63576200D01*
X129181732Y-63831502D01*
X128870663Y-64297049D01*
X128761430Y-64846200D01*
X128870663Y-65395351D01*
X129181732Y-65860898D01*
X129563818Y-66116200D01*
X129181732Y-66371502D01*
X128870663Y-66837049D01*
X128761430Y-67386200D01*
X128870663Y-67935351D01*
X129181732Y-68400898D01*
X129563818Y-68656200D01*
X129181732Y-68911502D01*
X128870663Y-69377049D01*
X128761430Y-69926200D01*
X128870663Y-70475351D01*
X129181732Y-70940898D01*
X129647279Y-71251967D01*
X130196430Y-71361200D01*
X130966370Y-71361200D01*
X131515521Y-71251967D01*
X131648200Y-71163314D01*
X131648200Y-72311760D01*
X131074400Y-72311760D01*
X130839083Y-72356038D01*
X130622959Y-72495110D01*
X130477969Y-72707310D01*
X130465071Y-72771000D01*
X117068600Y-72771000D01*
X117068600Y-67776363D01*
X123639843Y-67776363D01*
X123738442Y-68043165D01*
X124347982Y-68269601D01*
X124997777Y-68245541D01*
X125486358Y-68043165D01*
X125584957Y-67776363D01*
X124612400Y-66803805D01*
X123639843Y-67776363D01*
X117068600Y-67776363D01*
X117068600Y-66359782D01*
X122966999Y-66359782D01*
X122991059Y-67009577D01*
X123193435Y-67498158D01*
X123460237Y-67596757D01*
X124432795Y-66624200D01*
X124792005Y-66624200D01*
X125764563Y-67596757D01*
X126031365Y-67498158D01*
X126257801Y-66888618D01*
X126233741Y-66238823D01*
X126031365Y-65750242D01*
X125764563Y-65651643D01*
X124792005Y-66624200D01*
X124432795Y-66624200D01*
X123460237Y-65651643D01*
X123193435Y-65750242D01*
X122966999Y-66359782D01*
X117068600Y-66359782D01*
X117068600Y-61544200D01*
X117004796Y-61223435D01*
X116823097Y-60951503D01*
X116005547Y-60133953D01*
X115957719Y-60018200D01*
X122900598Y-60018200D01*
X123046515Y-60164117D01*
X122978194Y-60328653D01*
X122977626Y-60978894D01*
X123225938Y-61579855D01*
X123685327Y-62040046D01*
X123852400Y-62109421D01*
X123852400Y-62121704D01*
X123687745Y-62189738D01*
X123227554Y-62649127D01*
X122978194Y-63249653D01*
X122977626Y-63899894D01*
X123225938Y-64500855D01*
X123685327Y-64961046D01*
X124006251Y-65094305D01*
X123738442Y-65205235D01*
X123639843Y-65472037D01*
X124612400Y-66444595D01*
X125584957Y-65472037D01*
X125486358Y-65205235D01*
X125203917Y-65100312D01*
X125537055Y-64962662D01*
X125997246Y-64503273D01*
X126246606Y-63902747D01*
X126247174Y-63252506D01*
X125998862Y-62651545D01*
X125539473Y-62191354D01*
X125372400Y-62121979D01*
X125372400Y-62109696D01*
X125537055Y-62041662D01*
X125997246Y-61582273D01*
X126246606Y-60981747D01*
X126247174Y-60331506D01*
X125998862Y-59730545D01*
X125664118Y-59395216D01*
X131211990Y-59395216D01*
X131267671Y-59625811D01*
X131750478Y-59793822D01*
X132260828Y-59764283D01*
X132595129Y-59625811D01*
X132650810Y-59395216D01*
X131931400Y-58675805D01*
X131211990Y-59395216D01*
X125664118Y-59395216D01*
X125539473Y-59270354D01*
X124938947Y-59020994D01*
X124288706Y-59020426D01*
X124121511Y-59089509D01*
X123752801Y-58720799D01*
X123506239Y-58556052D01*
X123215400Y-58498200D01*
X112420400Y-58498200D01*
X112315625Y-58519041D01*
X112400234Y-58315278D01*
X130633778Y-58315278D01*
X130663317Y-58825628D01*
X130801789Y-59159929D01*
X131032384Y-59215610D01*
X131751795Y-58496200D01*
X132111005Y-58496200D01*
X132830416Y-59215610D01*
X133061011Y-59159929D01*
X133229022Y-58677122D01*
X133199483Y-58166772D01*
X133061011Y-57832471D01*
X132830416Y-57776790D01*
X132111005Y-58496200D01*
X131751795Y-58496200D01*
X131032384Y-57776790D01*
X130801789Y-57832471D01*
X130633778Y-58315278D01*
X112400234Y-58315278D01*
X112420157Y-58267300D01*
X112420642Y-57711539D01*
X112373392Y-57597184D01*
X131211990Y-57597184D01*
X131931400Y-58316595D01*
X132650810Y-57597184D01*
X132595129Y-57366589D01*
X132112322Y-57198578D01*
X131601972Y-57228117D01*
X131267671Y-57366589D01*
X131211990Y-57597184D01*
X112373392Y-57597184D01*
X112208410Y-57197897D01*
X111815770Y-56804571D01*
X111302500Y-56591443D01*
X110746739Y-56590958D01*
X110233097Y-56803190D01*
X109839771Y-57195830D01*
X109626643Y-57709100D01*
X109626158Y-58264861D01*
X109838390Y-58778503D01*
X110231030Y-59171829D01*
X110438912Y-59258149D01*
X110233097Y-59343190D01*
X109839771Y-59735830D01*
X109626643Y-60249100D01*
X109626158Y-60804861D01*
X109838390Y-61318503D01*
X109987626Y-61468000D01*
X99585428Y-61468000D01*
X99576562Y-61420883D01*
X99437490Y-61204759D01*
X99225290Y-61059769D01*
X99161600Y-61046871D01*
X99161600Y-60901228D01*
X99208717Y-60892362D01*
X99424841Y-60753290D01*
X99569831Y-60541090D01*
X99570585Y-60537363D01*
X104335843Y-60537363D01*
X104434442Y-60804165D01*
X105043982Y-61030601D01*
X105693777Y-61006541D01*
X106182358Y-60804165D01*
X106280957Y-60537363D01*
X105308400Y-59564805D01*
X104335843Y-60537363D01*
X99570585Y-60537363D01*
X99620840Y-60289200D01*
X99620840Y-59120782D01*
X103662999Y-59120782D01*
X103687059Y-59770577D01*
X103889435Y-60259158D01*
X104156237Y-60357757D01*
X105128795Y-59385200D01*
X105488005Y-59385200D01*
X106460563Y-60357757D01*
X106727365Y-60259158D01*
X106953801Y-59649618D01*
X106929741Y-58999823D01*
X106727365Y-58511242D01*
X106460563Y-58412643D01*
X105488005Y-59385200D01*
X105128795Y-59385200D01*
X104156237Y-58412643D01*
X103889435Y-58511242D01*
X103662999Y-59120782D01*
X99620840Y-59120782D01*
X99620840Y-58989200D01*
X99576562Y-58753883D01*
X99437490Y-58537759D01*
X99225290Y-58392769D01*
X98973400Y-58341760D01*
X97673400Y-58341760D01*
X97438083Y-58386038D01*
X97221959Y-58525110D01*
X97076969Y-58737310D01*
X97025960Y-58989200D01*
X97025960Y-60289200D01*
X97070238Y-60524517D01*
X97209310Y-60740641D01*
X97421510Y-60885631D01*
X97485200Y-60898529D01*
X97485200Y-61044172D01*
X97438083Y-61053038D01*
X97221959Y-61192110D01*
X97076969Y-61404310D01*
X97025960Y-61656200D01*
X97025960Y-62956200D01*
X97070238Y-63191517D01*
X97209310Y-63407641D01*
X97421510Y-63552631D01*
X97485200Y-63565529D01*
X97485200Y-64846200D01*
X97549004Y-65166966D01*
X97730703Y-65438897D01*
X97878713Y-65586907D01*
X97773430Y-66116200D01*
X97882663Y-66665351D01*
X98193732Y-67130898D01*
X98575818Y-67386200D01*
X98193732Y-67641502D01*
X97882663Y-68107049D01*
X97773430Y-68656200D01*
X97874875Y-69166200D01*
X95971202Y-69166200D01*
X93762481Y-66957479D01*
X93770840Y-66916200D01*
X93770840Y-65316200D01*
X93726562Y-65080883D01*
X93587490Y-64864759D01*
X93375290Y-64719769D01*
X93123400Y-64668760D01*
X92733400Y-64668760D01*
X92733400Y-63461468D01*
X93142478Y-63603822D01*
X93652828Y-63574283D01*
X93987129Y-63435811D01*
X94042810Y-63205216D01*
X93323400Y-62485805D01*
X93309258Y-62499948D01*
X93129652Y-62320342D01*
X93143795Y-62306200D01*
X93503005Y-62306200D01*
X94222416Y-63025610D01*
X94453011Y-62969929D01*
X94621022Y-62487122D01*
X94591483Y-61976772D01*
X94453011Y-61642471D01*
X94222416Y-61586790D01*
X93503005Y-62306200D01*
X93143795Y-62306200D01*
X93129652Y-62292058D01*
X93309258Y-62112452D01*
X93323400Y-62126595D01*
X94042810Y-61407184D01*
X93987129Y-61176589D01*
X93504322Y-61008578D01*
X92999611Y-61037791D01*
X93113384Y-60924018D01*
X93577881Y-60924423D01*
X94050343Y-60729205D01*
X94412135Y-60368045D01*
X94608177Y-59895924D01*
X94608623Y-59384719D01*
X94413405Y-58912257D01*
X94052245Y-58550465D01*
X93580124Y-58354423D01*
X93113017Y-58354015D01*
X92502365Y-57743363D01*
X100144843Y-57743363D01*
X100243442Y-58010165D01*
X100852982Y-58236601D01*
X100949235Y-58233037D01*
X104335843Y-58233037D01*
X105308400Y-59205595D01*
X106280957Y-58233037D01*
X106182358Y-57966235D01*
X105572818Y-57739799D01*
X104923023Y-57763859D01*
X104434442Y-57966235D01*
X104335843Y-58233037D01*
X100949235Y-58233037D01*
X101502777Y-58212541D01*
X101991358Y-58010165D01*
X102089957Y-57743363D01*
X101117400Y-56770805D01*
X100144843Y-57743363D01*
X92502365Y-57743363D01*
X92309732Y-57550730D01*
X92342246Y-57518273D01*
X92591606Y-56917747D01*
X92592122Y-56326782D01*
X99471999Y-56326782D01*
X99496059Y-56976577D01*
X99698435Y-57465158D01*
X99965237Y-57563757D01*
X100937795Y-56591200D01*
X101297005Y-56591200D01*
X102269563Y-57563757D01*
X102536365Y-57465158D01*
X102762801Y-56855618D01*
X102738741Y-56205823D01*
X102536365Y-55717242D01*
X102269563Y-55618643D01*
X101297005Y-56591200D01*
X100937795Y-56591200D01*
X99965237Y-55618643D01*
X99698435Y-55717242D01*
X99471999Y-56326782D01*
X92592122Y-56326782D01*
X92592174Y-56267506D01*
X92343862Y-55666545D01*
X92116751Y-55439037D01*
X100144843Y-55439037D01*
X101117400Y-56411595D01*
X102089957Y-55439037D01*
X101991358Y-55172235D01*
X101381818Y-54945799D01*
X100732023Y-54969859D01*
X100243442Y-55172235D01*
X100144843Y-55439037D01*
X92116751Y-55439037D01*
X91884473Y-55206354D01*
X91283947Y-54956994D01*
X91173596Y-54956898D01*
X92193594Y-53936900D01*
X131186706Y-53936900D01*
X135633960Y-58384154D01*
X135633960Y-58384154D01*
G37*
X135633960Y-58384154D02*
X135633960Y-59146200D01*
X135678238Y-59381517D01*
X135817310Y-59597641D01*
X136029510Y-59742631D01*
X136093200Y-59755529D01*
X136093200Y-61036200D01*
X136157004Y-61356966D01*
X136338703Y-61628897D01*
X136486713Y-61776907D01*
X136381430Y-62306200D01*
X136490663Y-62855351D01*
X136801732Y-63320898D01*
X137183818Y-63576200D01*
X136801732Y-63831502D01*
X136490663Y-64297049D01*
X136440290Y-64550288D01*
X136198801Y-64308799D01*
X135952239Y-64144052D01*
X135661400Y-64086200D01*
X132151252Y-64086200D01*
X131981068Y-63831502D01*
X131598982Y-63576200D01*
X131981068Y-63320898D01*
X132292137Y-62855351D01*
X132401370Y-62306200D01*
X132292137Y-61757049D01*
X131981068Y-61291502D01*
X131515521Y-60980433D01*
X130966370Y-60871200D01*
X130196430Y-60871200D01*
X129647279Y-60980433D01*
X129181732Y-61291502D01*
X128870663Y-61757049D01*
X128761430Y-62306200D01*
X128870663Y-62855351D01*
X129181732Y-63320898D01*
X129563818Y-63576200D01*
X129181732Y-63831502D01*
X128870663Y-64297049D01*
X128761430Y-64846200D01*
X128870663Y-65395351D01*
X129181732Y-65860898D01*
X129563818Y-66116200D01*
X129181732Y-66371502D01*
X128870663Y-66837049D01*
X128761430Y-67386200D01*
X128870663Y-67935351D01*
X129181732Y-68400898D01*
X129563818Y-68656200D01*
X129181732Y-68911502D01*
X128870663Y-69377049D01*
X128761430Y-69926200D01*
X128870663Y-70475351D01*
X129181732Y-70940898D01*
X129647279Y-71251967D01*
X130196430Y-71361200D01*
X130966370Y-71361200D01*
X131515521Y-71251967D01*
X131648200Y-71163314D01*
X131648200Y-72311760D01*
X131074400Y-72311760D01*
X130839083Y-72356038D01*
X130622959Y-72495110D01*
X130477969Y-72707310D01*
X130465071Y-72771000D01*
X117068600Y-72771000D01*
X117068600Y-67776363D01*
X123639843Y-67776363D01*
X123738442Y-68043165D01*
X124347982Y-68269601D01*
X124997777Y-68245541D01*
X125486358Y-68043165D01*
X125584957Y-67776363D01*
X124612400Y-66803805D01*
X123639843Y-67776363D01*
X117068600Y-67776363D01*
X117068600Y-66359782D01*
X122966999Y-66359782D01*
X122991059Y-67009577D01*
X123193435Y-67498158D01*
X123460237Y-67596757D01*
X124432795Y-66624200D01*
X124792005Y-66624200D01*
X125764563Y-67596757D01*
X126031365Y-67498158D01*
X126257801Y-66888618D01*
X126233741Y-66238823D01*
X126031365Y-65750242D01*
X125764563Y-65651643D01*
X124792005Y-66624200D01*
X124432795Y-66624200D01*
X123460237Y-65651643D01*
X123193435Y-65750242D01*
X122966999Y-66359782D01*
X117068600Y-66359782D01*
X117068600Y-61544200D01*
X117004796Y-61223435D01*
X116823097Y-60951503D01*
X116005547Y-60133953D01*
X115957719Y-60018200D01*
X122900598Y-60018200D01*
X123046515Y-60164117D01*
X122978194Y-60328653D01*
X122977626Y-60978894D01*
X123225938Y-61579855D01*
X123685327Y-62040046D01*
X123852400Y-62109421D01*
X123852400Y-62121704D01*
X123687745Y-62189738D01*
X123227554Y-62649127D01*
X122978194Y-63249653D01*
X122977626Y-63899894D01*
X123225938Y-64500855D01*
X123685327Y-64961046D01*
X124006251Y-65094305D01*
X123738442Y-65205235D01*
X123639843Y-65472037D01*
X124612400Y-66444595D01*
X125584957Y-65472037D01*
X125486358Y-65205235D01*
X125203917Y-65100312D01*
X125537055Y-64962662D01*
X125997246Y-64503273D01*
X126246606Y-63902747D01*
X126247174Y-63252506D01*
X125998862Y-62651545D01*
X125539473Y-62191354D01*
X125372400Y-62121979D01*
X125372400Y-62109696D01*
X125537055Y-62041662D01*
X125997246Y-61582273D01*
X126246606Y-60981747D01*
X126247174Y-60331506D01*
X125998862Y-59730545D01*
X125664118Y-59395216D01*
X131211990Y-59395216D01*
X131267671Y-59625811D01*
X131750478Y-59793822D01*
X132260828Y-59764283D01*
X132595129Y-59625811D01*
X132650810Y-59395216D01*
X131931400Y-58675805D01*
X131211990Y-59395216D01*
X125664118Y-59395216D01*
X125539473Y-59270354D01*
X124938947Y-59020994D01*
X124288706Y-59020426D01*
X124121511Y-59089509D01*
X123752801Y-58720799D01*
X123506239Y-58556052D01*
X123215400Y-58498200D01*
X112420400Y-58498200D01*
X112315625Y-58519041D01*
X112400234Y-58315278D01*
X130633778Y-58315278D01*
X130663317Y-58825628D01*
X130801789Y-59159929D01*
X131032384Y-59215610D01*
X131751795Y-58496200D01*
X132111005Y-58496200D01*
X132830416Y-59215610D01*
X133061011Y-59159929D01*
X133229022Y-58677122D01*
X133199483Y-58166772D01*
X133061011Y-57832471D01*
X132830416Y-57776790D01*
X132111005Y-58496200D01*
X131751795Y-58496200D01*
X131032384Y-57776790D01*
X130801789Y-57832471D01*
X130633778Y-58315278D01*
X112400234Y-58315278D01*
X112420157Y-58267300D01*
X112420642Y-57711539D01*
X112373392Y-57597184D01*
X131211990Y-57597184D01*
X131931400Y-58316595D01*
X132650810Y-57597184D01*
X132595129Y-57366589D01*
X132112322Y-57198578D01*
X131601972Y-57228117D01*
X131267671Y-57366589D01*
X131211990Y-57597184D01*
X112373392Y-57597184D01*
X112208410Y-57197897D01*
X111815770Y-56804571D01*
X111302500Y-56591443D01*
X110746739Y-56590958D01*
X110233097Y-56803190D01*
X109839771Y-57195830D01*
X109626643Y-57709100D01*
X109626158Y-58264861D01*
X109838390Y-58778503D01*
X110231030Y-59171829D01*
X110438912Y-59258149D01*
X110233097Y-59343190D01*
X109839771Y-59735830D01*
X109626643Y-60249100D01*
X109626158Y-60804861D01*
X109838390Y-61318503D01*
X109987626Y-61468000D01*
X99585428Y-61468000D01*
X99576562Y-61420883D01*
X99437490Y-61204759D01*
X99225290Y-61059769D01*
X99161600Y-61046871D01*
X99161600Y-60901228D01*
X99208717Y-60892362D01*
X99424841Y-60753290D01*
X99569831Y-60541090D01*
X99570585Y-60537363D01*
X104335843Y-60537363D01*
X104434442Y-60804165D01*
X105043982Y-61030601D01*
X105693777Y-61006541D01*
X106182358Y-60804165D01*
X106280957Y-60537363D01*
X105308400Y-59564805D01*
X104335843Y-60537363D01*
X99570585Y-60537363D01*
X99620840Y-60289200D01*
X99620840Y-59120782D01*
X103662999Y-59120782D01*
X103687059Y-59770577D01*
X103889435Y-60259158D01*
X104156237Y-60357757D01*
X105128795Y-59385200D01*
X105488005Y-59385200D01*
X106460563Y-60357757D01*
X106727365Y-60259158D01*
X106953801Y-59649618D01*
X106929741Y-58999823D01*
X106727365Y-58511242D01*
X106460563Y-58412643D01*
X105488005Y-59385200D01*
X105128795Y-59385200D01*
X104156237Y-58412643D01*
X103889435Y-58511242D01*
X103662999Y-59120782D01*
X99620840Y-59120782D01*
X99620840Y-58989200D01*
X99576562Y-58753883D01*
X99437490Y-58537759D01*
X99225290Y-58392769D01*
X98973400Y-58341760D01*
X97673400Y-58341760D01*
X97438083Y-58386038D01*
X97221959Y-58525110D01*
X97076969Y-58737310D01*
X97025960Y-58989200D01*
X97025960Y-60289200D01*
X97070238Y-60524517D01*
X97209310Y-60740641D01*
X97421510Y-60885631D01*
X97485200Y-60898529D01*
X97485200Y-61044172D01*
X97438083Y-61053038D01*
X97221959Y-61192110D01*
X97076969Y-61404310D01*
X97025960Y-61656200D01*
X97025960Y-62956200D01*
X97070238Y-63191517D01*
X97209310Y-63407641D01*
X97421510Y-63552631D01*
X97485200Y-63565529D01*
X97485200Y-64846200D01*
X97549004Y-65166966D01*
X97730703Y-65438897D01*
X97878713Y-65586907D01*
X97773430Y-66116200D01*
X97882663Y-66665351D01*
X98193732Y-67130898D01*
X98575818Y-67386200D01*
X98193732Y-67641502D01*
X97882663Y-68107049D01*
X97773430Y-68656200D01*
X97874875Y-69166200D01*
X95971202Y-69166200D01*
X93762481Y-66957479D01*
X93770840Y-66916200D01*
X93770840Y-65316200D01*
X93726562Y-65080883D01*
X93587490Y-64864759D01*
X93375290Y-64719769D01*
X93123400Y-64668760D01*
X92733400Y-64668760D01*
X92733400Y-63461468D01*
X93142478Y-63603822D01*
X93652828Y-63574283D01*
X93987129Y-63435811D01*
X94042810Y-63205216D01*
X93323400Y-62485805D01*
X93309258Y-62499948D01*
X93129652Y-62320342D01*
X93143795Y-62306200D01*
X93503005Y-62306200D01*
X94222416Y-63025610D01*
X94453011Y-62969929D01*
X94621022Y-62487122D01*
X94591483Y-61976772D01*
X94453011Y-61642471D01*
X94222416Y-61586790D01*
X93503005Y-62306200D01*
X93143795Y-62306200D01*
X93129652Y-62292058D01*
X93309258Y-62112452D01*
X93323400Y-62126595D01*
X94042810Y-61407184D01*
X93987129Y-61176589D01*
X93504322Y-61008578D01*
X92999611Y-61037791D01*
X93113384Y-60924018D01*
X93577881Y-60924423D01*
X94050343Y-60729205D01*
X94412135Y-60368045D01*
X94608177Y-59895924D01*
X94608623Y-59384719D01*
X94413405Y-58912257D01*
X94052245Y-58550465D01*
X93580124Y-58354423D01*
X93113017Y-58354015D01*
X92502365Y-57743363D01*
X100144843Y-57743363D01*
X100243442Y-58010165D01*
X100852982Y-58236601D01*
X100949235Y-58233037D01*
X104335843Y-58233037D01*
X105308400Y-59205595D01*
X106280957Y-58233037D01*
X106182358Y-57966235D01*
X105572818Y-57739799D01*
X104923023Y-57763859D01*
X104434442Y-57966235D01*
X104335843Y-58233037D01*
X100949235Y-58233037D01*
X101502777Y-58212541D01*
X101991358Y-58010165D01*
X102089957Y-57743363D01*
X101117400Y-56770805D01*
X100144843Y-57743363D01*
X92502365Y-57743363D01*
X92309732Y-57550730D01*
X92342246Y-57518273D01*
X92591606Y-56917747D01*
X92592122Y-56326782D01*
X99471999Y-56326782D01*
X99496059Y-56976577D01*
X99698435Y-57465158D01*
X99965237Y-57563757D01*
X100937795Y-56591200D01*
X101297005Y-56591200D01*
X102269563Y-57563757D01*
X102536365Y-57465158D01*
X102762801Y-56855618D01*
X102738741Y-56205823D01*
X102536365Y-55717242D01*
X102269563Y-55618643D01*
X101297005Y-56591200D01*
X100937795Y-56591200D01*
X99965237Y-55618643D01*
X99698435Y-55717242D01*
X99471999Y-56326782D01*
X92592122Y-56326782D01*
X92592174Y-56267506D01*
X92343862Y-55666545D01*
X92116751Y-55439037D01*
X100144843Y-55439037D01*
X101117400Y-56411595D01*
X102089957Y-55439037D01*
X101991358Y-55172235D01*
X101381818Y-54945799D01*
X100732023Y-54969859D01*
X100243442Y-55172235D01*
X100144843Y-55439037D01*
X92116751Y-55439037D01*
X91884473Y-55206354D01*
X91283947Y-54956994D01*
X91173596Y-54956898D01*
X92193594Y-53936900D01*
X131186706Y-53936900D01*
X135633960Y-58384154D01*
M02*
