G04 #@! TF.GenerationSoftware,KiCad,Pcbnew,(6.0.11-0)*
G04 #@! TF.CreationDate,2026-05-01T21:43:28-05:00*
G04 #@! TF.ProjectId,trigger-seq,74726967-6765-4722-9d73-65712e6b6963,rev?*
G04 #@! TF.SameCoordinates,Original*
G04 #@! TF.FileFunction,Soldermask,Bot*
G04 #@! TF.FilePolarity,Negative*
%FSLAX46Y46*%
G04 Gerber Fmt 4.6, Leading zero omitted, Abs format (unit mm)*
G04 Created by KiCad (PCBNEW (6.0.11-0)) date 2026-05-01 21:43:28*
%MOMM*%
%LPD*%
G01*
G04 APERTURE LIST*
G04 Aperture macros list*
%AMRoundRect*
0 Rectangle with rounded corners*
0 $1 Rounding radius*
0 $2 $3 $4 $5 $6 $7 $8 $9 X,Y pos of 4 corners*
0 Add a 4 corners polygon primitive as box body*
4,1,4,$2,$3,$4,$5,$6,$7,$8,$9,$2,$3,0*
0 Add four circle primitives for the rounded corners*
1,1,$1+$1,$2,$3*
1,1,$1+$1,$4,$5*
1,1,$1+$1,$6,$7*
1,1,$1+$1,$8,$9*
0 Add four rect primitives between the rounded corners*
20,1,$1+$1,$2,$3,$4,$5,0*
20,1,$1+$1,$4,$5,$6,$7,0*
20,1,$1+$1,$6,$7,$8,$9,0*
20,1,$1+$1,$8,$9,$2,$3,0*%
G04 Aperture macros list end*
%ADD10RoundRect,0.200000X0.800000X0.800000X-0.800000X0.800000X-0.800000X-0.800000X0.800000X-0.800000X0*%
%ADD11C,2.000000*%
%ADD12RoundRect,0.200000X-0.800000X-0.800000X0.800000X-0.800000X0.800000X0.800000X-0.800000X0.800000X0*%
%ADD13RoundRect,0.200000X0.800000X-0.800000X0.800000X0.800000X-0.800000X0.800000X-0.800000X-0.800000X0*%
%ADD14O,2.000000X2.000000*%
%ADD15RoundRect,0.200000X0.863600X0.863600X-0.863600X0.863600X-0.863600X-0.863600X0.863600X-0.863600X0*%
%ADD16O,2.127200X2.127200*%
%ADD17RoundRect,0.200000X-0.850000X0.850000X-0.850000X-0.850000X0.850000X-0.850000X0.850000X0.850000X0*%
%ADD18O,2.100000X2.100000*%
%ADD19RoundRect,0.200000X0.750000X-0.750000X0.750000X0.750000X-0.750000X0.750000X-0.750000X-0.750000X0*%
%ADD20C,1.900000*%
%ADD21RoundRect,0.200000X0.750000X0.750000X-0.750000X0.750000X-0.750000X-0.750000X0.750000X-0.750000X0*%
%ADD22RoundRect,0.200000X-0.800000X1.200000X-0.800000X-1.200000X0.800000X-1.200000X0.800000X1.200000X0*%
%ADD23O,2.000000X2.800000*%
%ADD24RoundRect,0.200000X1.200000X0.800000X-1.200000X0.800000X-1.200000X-0.800000X1.200000X-0.800000X0*%
%ADD25O,2.800000X2.000000*%
%ADD26C,2.800000*%
%ADD27RoundRect,0.200000X-1.200000X-0.800000X1.200000X-0.800000X1.200000X0.800000X-1.200000X0.800000X0*%
%ADD28RoundRect,0.200000X-0.800000X0.800000X-0.800000X-0.800000X0.800000X-0.800000X0.800000X0.800000X0*%
%ADD29RoundRect,0.200000X0.850000X0.850000X-0.850000X0.850000X-0.850000X-0.850000X0.850000X-0.850000X0*%
G04 APERTURE END LIST*
D10*
X86360000Y-132715000D03*
D11*
X83860000Y-132715000D03*
X114634000Y-140081000D03*
X119634000Y-140081000D03*
X124841000Y-63627000D03*
X124841000Y-68627000D03*
X106045000Y-143303000D03*
X106045000Y-138303000D03*
D12*
X109093000Y-146431000D03*
D11*
X111593000Y-146431000D03*
X114808000Y-123190000D03*
X119808000Y-123190000D03*
X88218000Y-123317000D03*
X93218000Y-123317000D03*
X135890000Y-108458000D03*
X130890000Y-108458000D03*
D13*
X104140000Y-153670000D03*
D14*
X104140000Y-146050000D03*
D12*
X131064000Y-61849000D03*
D14*
X138684000Y-61849000D03*
D12*
X141097000Y-61849000D03*
D14*
X148717000Y-61849000D03*
D12*
X131064000Y-55499000D03*
D14*
X138684000Y-55499000D03*
D12*
X141097000Y-55499000D03*
D14*
X148717000Y-55499000D03*
D12*
X131064000Y-58928000D03*
D14*
X138684000Y-58928000D03*
D12*
X141097000Y-58928000D03*
D14*
X148717000Y-58928000D03*
D13*
X122428000Y-98171000D03*
D14*
X122428000Y-90551000D03*
D15*
X95123000Y-148082000D03*
D16*
X92583000Y-148082000D03*
X95123000Y-145542000D03*
X92583000Y-145542000D03*
X95123000Y-143002000D03*
X92583000Y-143002000D03*
X95123000Y-140462000D03*
X92583000Y-140462000D03*
X95123000Y-137922000D03*
X92583000Y-137922000D03*
D17*
X113538000Y-55626000D03*
D18*
X110998000Y-55626000D03*
X108458000Y-55626000D03*
X105918000Y-55626000D03*
X103378000Y-55626000D03*
X100838000Y-55626000D03*
D19*
X102616000Y-93726000D03*
D20*
X105156000Y-93726000D03*
X107696000Y-93726000D03*
D19*
X89408000Y-81280000D03*
D20*
X91948000Y-81280000D03*
X94488000Y-81280000D03*
D19*
X102108000Y-81153000D03*
D20*
X104648000Y-81153000D03*
X107188000Y-81153000D03*
D19*
X114808000Y-81153000D03*
D20*
X117348000Y-81153000D03*
X119888000Y-81153000D03*
D19*
X89916000Y-93599000D03*
D20*
X92456000Y-93599000D03*
X94996000Y-93599000D03*
D11*
X128016000Y-55499000D03*
D14*
X117856000Y-55499000D03*
D11*
X125222000Y-123698000D03*
D14*
X125222000Y-133858000D03*
D11*
X128397000Y-123698000D03*
D14*
X128397000Y-133858000D03*
D11*
X126492000Y-106680000D03*
D14*
X126492000Y-116840000D03*
D11*
X131699000Y-68453000D03*
D14*
X131699000Y-78613000D03*
D11*
X138176000Y-68453000D03*
D14*
X138176000Y-78613000D03*
D11*
X135001000Y-68453000D03*
D14*
X135001000Y-78613000D03*
D11*
X119507000Y-98171000D03*
D14*
X119507000Y-88011000D03*
D11*
X105156000Y-89154000D03*
D14*
X115316000Y-89154000D03*
D11*
X91948000Y-76835000D03*
D14*
X102108000Y-76835000D03*
D11*
X104648000Y-76708000D03*
D14*
X114808000Y-76708000D03*
D11*
X97409000Y-97409000D03*
D14*
X107569000Y-97409000D03*
D11*
X117348000Y-76708000D03*
D14*
X127508000Y-76708000D03*
D11*
X84328000Y-84963000D03*
D14*
X94488000Y-84963000D03*
D11*
X92583000Y-89154000D03*
D14*
X102743000Y-89154000D03*
D11*
X109601000Y-84836000D03*
D14*
X119761000Y-84836000D03*
D11*
X84709000Y-97409000D03*
D14*
X94869000Y-97409000D03*
D21*
X101854000Y-138684000D03*
D20*
X101854000Y-136144000D03*
X101854000Y-133604000D03*
D22*
X121666000Y-62611000D03*
D23*
X119126000Y-62611000D03*
X116586000Y-62611000D03*
X114046000Y-62611000D03*
X111506000Y-62611000D03*
X108966000Y-62611000D03*
X106426000Y-62611000D03*
X103886000Y-62611000D03*
X101346000Y-62611000D03*
X98806000Y-62611000D03*
X98806000Y-70231000D03*
X101346000Y-70231000D03*
X103886000Y-70231000D03*
X106426000Y-70231000D03*
X108966000Y-70231000D03*
X111506000Y-70231000D03*
X114046000Y-70231000D03*
X116586000Y-70231000D03*
X119126000Y-70231000D03*
X121666000Y-70231000D03*
D24*
X121158000Y-120015000D03*
D25*
X121158000Y-117475000D03*
X121158000Y-114935000D03*
X121158000Y-112395000D03*
X121158000Y-109855000D03*
X121158000Y-107315000D03*
X121158000Y-104775000D03*
X121158000Y-102235000D03*
X113538000Y-102235000D03*
X113538000Y-104775000D03*
X113538000Y-107315000D03*
X113538000Y-109855000D03*
X113538000Y-112395000D03*
X113538000Y-114935000D03*
X113538000Y-117475000D03*
X113538000Y-120015000D03*
D24*
X94742000Y-120142000D03*
D25*
X94742000Y-117602000D03*
X94742000Y-115062000D03*
X94742000Y-112522000D03*
X94742000Y-109982000D03*
X94742000Y-107442000D03*
X94742000Y-104902000D03*
X94742000Y-102362000D03*
X87122000Y-102362000D03*
X87122000Y-104902000D03*
X87122000Y-107442000D03*
X87122000Y-109982000D03*
X87122000Y-112522000D03*
X87122000Y-115062000D03*
X87122000Y-117602000D03*
X87122000Y-120142000D03*
D24*
X121031000Y-136906000D03*
D25*
X121031000Y-134366000D03*
X121031000Y-131826000D03*
X121031000Y-129286000D03*
X113411000Y-129286000D03*
X113411000Y-131826000D03*
X113411000Y-134366000D03*
X113411000Y-136906000D03*
D26*
X93853000Y-137033000D03*
X93853000Y-140995400D03*
X93853000Y-144957800D03*
X93853000Y-148920200D03*
D11*
X97028000Y-84836000D03*
D14*
X107188000Y-84836000D03*
D11*
X149733000Y-116713000D03*
D14*
X149733000Y-106553000D03*
D11*
X143637000Y-106553000D03*
D14*
X143637000Y-116713000D03*
D11*
X146685000Y-106553000D03*
D14*
X146685000Y-116713000D03*
D11*
X140589000Y-106553000D03*
D14*
X140589000Y-116713000D03*
D27*
X129794000Y-111760000D03*
D25*
X129794000Y-114300000D03*
X129794000Y-116840000D03*
X129794000Y-119380000D03*
X137414000Y-119380000D03*
X137414000Y-116840000D03*
X137414000Y-114300000D03*
X137414000Y-111760000D03*
D11*
X87503000Y-136779000D03*
D14*
X87503000Y-146939000D03*
D11*
X101219000Y-143510000D03*
D14*
X101219000Y-153670000D03*
D28*
X83947000Y-139192000D03*
D14*
X83947000Y-146812000D03*
D13*
X108712000Y-153416000D03*
D11*
X108712000Y-150916000D03*
X100410000Y-130683000D03*
X105410000Y-130683000D03*
X119761000Y-126238000D03*
X114761000Y-126238000D03*
D29*
X131191000Y-86614000D03*
D18*
X128651000Y-86614000D03*
X131191000Y-89154000D03*
X128651000Y-89154000D03*
X131191000Y-91694000D03*
X128651000Y-91694000D03*
X131191000Y-94234000D03*
X128651000Y-94234000D03*
X131191000Y-96774000D03*
X128651000Y-96774000D03*
X131191000Y-99314000D03*
X128651000Y-99314000D03*
X131191000Y-101854000D03*
X128651000Y-101854000D03*
D29*
X105791000Y-102489000D03*
D18*
X103251000Y-102489000D03*
X105791000Y-105029000D03*
X103251000Y-105029000D03*
X105791000Y-107569000D03*
X103251000Y-107569000D03*
X105791000Y-110109000D03*
X103251000Y-110109000D03*
X105791000Y-112649000D03*
X103251000Y-112649000D03*
X105791000Y-115189000D03*
X103251000Y-115189000D03*
X105791000Y-117729000D03*
X103251000Y-117729000D03*
X105791000Y-120269000D03*
X103251000Y-120269000D03*
M02*
