M48
INCH,TZ
T1C0.0157
T2C0.0315
T3C0.0394
T4C0.0400
T5C0.0630
T6C0.1181
%
G90
G05
T1
X45750Y-38100
X46950Y-36750
X48746Y-39500
T2
X33016Y-52250
X33050Y-54800
X33050Y-57800
X33200Y-33450
X33350Y-38350
X34000Y-52250
X34300Y-40300
X34300Y-41300
X34300Y-42300
X34300Y-43300
X34300Y-44300
X34300Y-45300
X34300Y-46300
X34300Y-47300
X34450Y-53850
X34450Y-57850
X34731Y-48550
X35200Y-32000
X35400Y-36850
X36200Y-30250
X36200Y-32000
X36400Y-36850
X36450Y-35100
X36700Y-48550
X37200Y-32000
X37200Y-33450
X37300Y-40300
X37300Y-41300
X37300Y-42300
X37300Y-43300
X37300Y-44300
X37300Y-45300
X37300Y-46300
X37300Y-47300
X37350Y-38350
X37400Y-36850
X38200Y-33400
X38350Y-38350
X38900Y-24650
X38900Y-27650
X39531Y-51450
X39850Y-56500
X39850Y-60500
X39900Y-24650
X39900Y-27650
X40100Y-52600
X40100Y-53600
X40100Y-54600
X40200Y-30250
X40200Y-31950
X40400Y-36900
X40450Y-35100
X40900Y-24650
X40900Y-27650
X41000Y-57500
X41000Y-60500
X41200Y-30200
X41200Y-31950
X41400Y-35100
X41400Y-36900
X41500Y-51450
X41750Y-54450
X41750Y-56419
X41900Y-24650
X41900Y-27650
X42200Y-31950
X42200Y-33400
X42350Y-38350
X42400Y-36900
X42800Y-59416
X42800Y-60400
X42900Y-24650
X42900Y-27650
X42950Y-57650
X43150Y-33400
X43900Y-24650
X43900Y-27650
X43934Y-57650
X44650Y-50900
X44650Y-51900
X44650Y-52900
X44650Y-53900
X44700Y-40250
X44700Y-41250
X44700Y-42250
X44700Y-43250
X44700Y-44250
X44700Y-45250
X44700Y-46250
X44700Y-47250
X44900Y-24650
X44900Y-27650
X45131Y-55150
X45181Y-49700
X45200Y-30200
X45200Y-31950
X45200Y-48500
X45400Y-35100
X45900Y-24650
X45900Y-27650
X46200Y-30200
X46200Y-31950
X46400Y-21850
X46900Y-24650
X46900Y-27650
X47050Y-34650
X47050Y-38650
X47100Y-55150
X47150Y-33400
X47150Y-49700
X47169Y-48500
X47200Y-31950
X47650Y-50900
X47650Y-51900
X47650Y-52900
X47650Y-53900
X47700Y-40250
X47700Y-41250
X47700Y-42250
X47700Y-43250
X47700Y-44250
X47700Y-45250
X47700Y-46250
X47700Y-47250
X47900Y-24650
X47900Y-27650
X48200Y-35650
X48200Y-38650
X49150Y-25050
X49150Y-27019
X49300Y-48700
X49300Y-52700
X49800Y-42000
X49800Y-46000
X50200Y-30200
X50400Y-21850
X50550Y-48700
X50550Y-52700
X51100Y-44000
X51100Y-45000
X51100Y-46000
X51100Y-47000
X51531Y-42700
X51600Y-21850
X51600Y-23200
X51600Y-24350
X51850Y-26950
X51850Y-30950
X53150Y-26950
X53150Y-30950
X53500Y-42700
X54100Y-44000
X54100Y-45000
X54100Y-46000
X54100Y-47000
X54400Y-26950
X54400Y-30950
X54600Y-21850
X54600Y-23200
X54600Y-24350
X55350Y-41950
X55350Y-45950
X55550Y-21850
X55550Y-23200
X55550Y-24350
X56550Y-41950
X56550Y-45950
X57750Y-41950
X57750Y-45950
X58550Y-21850
X58550Y-23200
X58550Y-24350
X58950Y-41950
X58950Y-45950
T3
X39700Y-21900
X40650Y-40350
X40650Y-41350
X40650Y-42350
X40650Y-43350
X40650Y-44350
X40650Y-45350
X40650Y-46350
X40650Y-47350
X40700Y-21900
X41650Y-40350
X41650Y-41350
X41650Y-42350
X41650Y-43350
X41650Y-44350
X41650Y-45350
X41650Y-46350
X41650Y-47350
X41700Y-21900
X42700Y-21900
X43700Y-21900
X44700Y-21900
X50650Y-34100
X50650Y-35100
X50650Y-36100
X50650Y-37100
X50650Y-38100
X50650Y-39100
X50650Y-40100
X51650Y-34100
X51650Y-35100
X51650Y-36100
X51650Y-37100
X51650Y-38100
X51650Y-39100
X51650Y-40100
T4
X36450Y-54300
X36450Y-55300
X36450Y-56300
X36450Y-57300
X36450Y-58300
X37450Y-54300
X37450Y-55300
X37450Y-56300
X37450Y-57300
X37450Y-58300
T5
X36950Y-53950
X36950Y-55510
X36950Y-57070
X36950Y-58630
T6
X33779Y-21834
X33779Y-59771
X65616Y-21834
X65616Y-59771
T0
M30
