G04 #@! TF.GenerationSoftware,KiCad,Pcbnew,(6.0.11-0)*
G04 #@! TF.CreationDate,2026-05-01T21:44:21-05:00*
G04 #@! TF.ProjectId,trigger-seq-panel,74726967-6765-4722-9d73-65712d70616e,rev?*
G04 #@! TF.SameCoordinates,Original*
G04 #@! TF.FileFunction,Soldermask,Top*
G04 #@! TF.FilePolarity,Negative*
%FSLAX46Y46*%
G04 Gerber Fmt 4.6, Leading zero omitted, Abs format (unit mm)*
G04 Created by KiCad (PCBNEW (6.0.11-0)) date 2026-05-01 21:44:21*
%MOMM*%
%LPD*%
G01*
G04 APERTURE LIST*
G04 Aperture macros list*
%AMRoundRect*
0 Rectangle with rounded corners*
0 $1 Rounding radius*
0 $2 $3 $4 $5 $6 $7 $8 $9 X,Y pos of 4 corners*
0 Add a 4 corners polygon primitive as box body*
4,1,4,$2,$3,$4,$5,$6,$7,$8,$9,$2,$3,0*
0 Add four circle primitives for the rounded corners*
1,1,$1+$1,$2,$3*
1,1,$1+$1,$4,$5*
1,1,$1+$1,$6,$7*
1,1,$1+$1,$8,$9*
0 Add four rect primitives between the rounded corners*
20,1,$1+$1,$2,$3,$4,$5,0*
20,1,$1+$1,$4,$5,$6,$7,0*
20,1,$1+$1,$6,$7,$8,$9,0*
20,1,$1+$1,$8,$9,$2,$3,0*%
G04 Aperture macros list end*
%ADD10RoundRect,0.200000X-0.850000X-0.850000X0.850000X-0.850000X0.850000X0.850000X-0.850000X0.850000X0*%
%ADD11O,2.100000X2.100000*%
%ADD12RoundRect,0.200000X-0.800000X-0.800000X0.800000X-0.800000X0.800000X0.800000X-0.800000X0.800000X0*%
%ADD13O,2.000000X2.000000*%
%ADD14RoundRect,0.200000X0.800000X0.800000X-0.800000X0.800000X-0.800000X-0.800000X0.800000X-0.800000X0*%
%ADD15C,2.000000*%
%ADD16RoundRect,0.200000X1.200000X0.800000X-1.200000X0.800000X-1.200000X-0.800000X1.200000X-0.800000X0*%
%ADD17O,2.800000X2.000000*%
%ADD18RoundRect,0.200000X-0.750000X-0.750000X0.750000X-0.750000X0.750000X0.750000X-0.750000X0.750000X0*%
%ADD19C,1.900000*%
%ADD20C,2.686000*%
%ADD21C,3.400000*%
%ADD22C,2.650000*%
%ADD23C,3.900000*%
%ADD24O,1.900000X2.400000*%
%ADD25C,2.200000*%
%ADD26RoundRect,0.200000X-0.900000X-0.900000X0.900000X-0.900000X0.900000X0.900000X-0.900000X0.900000X0*%
G04 APERTURE END LIST*
D10*
X97790000Y-103759000D03*
D11*
X95250000Y-103759000D03*
X97790000Y-106299000D03*
X95250000Y-106299000D03*
X97790000Y-108839000D03*
X95250000Y-108839000D03*
X97790000Y-111379000D03*
X95250000Y-111379000D03*
X97790000Y-113919000D03*
X95250000Y-113919000D03*
X97790000Y-116459000D03*
X95250000Y-116459000D03*
X97790000Y-118999000D03*
X95250000Y-118999000D03*
X97790000Y-121539000D03*
X95250000Y-121539000D03*
D10*
X123190000Y-87884000D03*
D11*
X120650000Y-87884000D03*
X123190000Y-90424000D03*
X120650000Y-90424000D03*
X123190000Y-92964000D03*
X120650000Y-92964000D03*
X123190000Y-95504000D03*
X120650000Y-95504000D03*
X123190000Y-98044000D03*
X120650000Y-98044000D03*
X123190000Y-100584000D03*
X120650000Y-100584000D03*
X123190000Y-103124000D03*
X120650000Y-103124000D03*
D12*
X109396000Y-59448000D03*
D13*
X117016000Y-59448000D03*
D12*
X109396000Y-70624000D03*
D13*
X117016000Y-70624000D03*
D12*
X109396000Y-80784000D03*
D13*
X117016000Y-80784000D03*
D12*
X109396000Y-90944000D03*
D13*
X117016000Y-90944000D03*
D12*
X109396000Y-101104000D03*
D13*
X117016000Y-101104000D03*
D12*
X109396000Y-111264000D03*
D13*
X117016000Y-111264000D03*
D12*
X108888000Y-121424000D03*
D13*
X116508000Y-121424000D03*
D12*
X108888000Y-131584000D03*
D13*
X116508000Y-131584000D03*
D14*
X91616000Y-59956000D03*
D13*
X83996000Y-59956000D03*
D14*
X91616000Y-70624000D03*
D13*
X83996000Y-70624000D03*
D14*
X91616000Y-80784000D03*
D13*
X83996000Y-80784000D03*
D14*
X91616000Y-90944000D03*
D13*
X83996000Y-90944000D03*
D14*
X91616000Y-101104000D03*
D13*
X83996000Y-101104000D03*
D14*
X91616000Y-111264000D03*
D13*
X83996000Y-111264000D03*
D14*
X91616000Y-121424000D03*
D13*
X83996000Y-121424000D03*
D14*
X91616000Y-131584000D03*
D13*
X83996000Y-131584000D03*
D15*
X114476000Y-68084000D03*
D13*
X104316000Y-68084000D03*
D15*
X114476000Y-78244000D03*
D13*
X104316000Y-78244000D03*
D15*
X114476000Y-88404000D03*
D13*
X104316000Y-88404000D03*
D15*
X114476000Y-98564000D03*
D13*
X104316000Y-98564000D03*
D15*
X113968000Y-118884000D03*
D13*
X103808000Y-118884000D03*
D15*
X113968000Y-129044000D03*
D13*
X103808000Y-129044000D03*
D15*
X119634000Y-138303000D03*
D13*
X109474000Y-138303000D03*
D15*
X119634000Y-141351000D03*
D13*
X109474000Y-141351000D03*
D15*
X86536000Y-68084000D03*
D13*
X76376000Y-68084000D03*
D15*
X86536000Y-78244000D03*
D13*
X76376000Y-78244000D03*
D15*
X86536000Y-88404000D03*
D13*
X76376000Y-88404000D03*
D15*
X86536000Y-98564000D03*
D13*
X76376000Y-98564000D03*
D15*
X86536000Y-108724000D03*
D13*
X76376000Y-108724000D03*
D15*
X86536000Y-118884000D03*
D13*
X76376000Y-118884000D03*
D15*
X86536000Y-129044000D03*
D13*
X76376000Y-129044000D03*
D15*
X86995000Y-139573000D03*
D13*
X76835000Y-139573000D03*
D15*
X119634000Y-144399000D03*
D13*
X109474000Y-144399000D03*
D15*
X96696000Y-135648000D03*
D13*
X96696000Y-125488000D03*
D15*
X92964000Y-155194000D03*
D13*
X92964000Y-145034000D03*
D15*
X123586000Y-141497000D03*
D13*
X123586000Y-151657000D03*
D16*
X103886000Y-152527000D03*
D17*
X103886000Y-149987000D03*
X103886000Y-147447000D03*
X103886000Y-144907000D03*
X96266000Y-144907000D03*
X96266000Y-147447000D03*
X96266000Y-149987000D03*
X96266000Y-152527000D03*
D15*
X97282000Y-155702000D03*
X102282000Y-155702000D03*
X102743000Y-141732000D03*
X97743000Y-141732000D03*
D18*
X140397000Y-127121000D03*
D19*
X140397000Y-129661000D03*
X140397000Y-132201000D03*
D15*
X126753000Y-129087000D03*
D13*
X136913000Y-129087000D03*
D15*
X144697000Y-129929000D03*
D13*
X154857000Y-129929000D03*
D15*
X140512000Y-144924000D03*
X140512000Y-139924000D03*
X114476000Y-108724000D03*
D13*
X104316000Y-108724000D03*
D20*
X89330000Y-104660000D03*
X86790000Y-104660000D03*
X84250000Y-104660000D03*
D19*
X134734000Y-139295000D03*
X129734000Y-139295000D03*
X134734000Y-134295000D03*
X129734000Y-134295000D03*
D20*
X143363000Y-93982000D03*
X143363000Y-96532000D03*
X143363000Y-99082000D03*
X138863000Y-93982000D03*
X138863000Y-96532000D03*
X138863000Y-99082000D03*
D21*
X132234000Y-150383998D03*
D22*
X132234000Y-155303998D03*
X132234000Y-147003998D03*
X132234000Y-143903998D03*
D20*
X89330000Y-114820000D03*
X86790000Y-114820000D03*
X84250000Y-114820000D03*
X117016000Y-124980000D03*
X114476000Y-124980000D03*
X111936000Y-124980000D03*
X117016000Y-114820000D03*
X114476000Y-114820000D03*
X111936000Y-114820000D03*
X117016000Y-104660000D03*
X114476000Y-104660000D03*
X111936000Y-104660000D03*
X117016000Y-94500000D03*
X114476000Y-94500000D03*
X111936000Y-94500000D03*
X89330000Y-94500000D03*
X86790000Y-94500000D03*
X84250000Y-94500000D03*
X89330000Y-84340000D03*
X86790000Y-84340000D03*
X84250000Y-84340000D03*
X117016000Y-84340000D03*
X114476000Y-84340000D03*
X111936000Y-84340000D03*
X117016000Y-74180000D03*
X114476000Y-74180000D03*
X111936000Y-74180000D03*
X89330000Y-74180000D03*
X86790000Y-74180000D03*
X84250000Y-74180000D03*
X89330000Y-64020000D03*
X86790000Y-64020000D03*
X84250000Y-64020000D03*
X117016000Y-64020000D03*
X114476000Y-64020000D03*
X111936000Y-64020000D03*
D21*
X149991000Y-109363000D03*
D22*
X154911000Y-109363000D03*
X146611000Y-109363000D03*
X143511000Y-109363000D03*
D23*
X154791000Y-63643000D03*
X145191000Y-63643000D03*
D24*
X152491000Y-70643000D03*
X149991000Y-70643000D03*
X147491000Y-70643000D03*
D23*
X137034000Y-63643000D03*
X127434000Y-63643000D03*
D24*
X134734000Y-70643000D03*
X132234000Y-70643000D03*
X129734000Y-70643000D03*
D20*
X132234000Y-106823000D03*
X132234000Y-109363000D03*
X132234000Y-111903000D03*
X132234000Y-125619000D03*
X132234000Y-123079000D03*
X132234000Y-120539000D03*
D23*
X127434000Y-82693000D03*
X137034000Y-82693000D03*
D24*
X134734000Y-89693000D03*
X132234000Y-89693000D03*
X129734000Y-89693000D03*
D21*
X114427000Y-150368000D03*
D22*
X119347000Y-150368000D03*
X111047000Y-150368000D03*
X107947000Y-150368000D03*
D25*
X102997000Y-64020000D03*
D26*
X105537000Y-64020000D03*
D25*
X102997000Y-74168000D03*
D26*
X105537000Y-74168000D03*
D25*
X102997000Y-84328000D03*
D26*
X105537000Y-84328000D03*
D25*
X102997000Y-94488000D03*
D26*
X105537000Y-94488000D03*
D25*
X102997000Y-104648000D03*
D26*
X105537000Y-104648000D03*
D25*
X102997000Y-114808000D03*
D26*
X105537000Y-114808000D03*
D25*
X75311000Y-64008000D03*
D26*
X77851000Y-64008000D03*
D25*
X75311000Y-74168000D03*
D26*
X77851000Y-74168000D03*
D25*
X75311000Y-84340000D03*
D26*
X77851000Y-84340000D03*
D25*
X75311000Y-94488000D03*
D26*
X77851000Y-94488000D03*
D25*
X75311000Y-104648000D03*
D26*
X77851000Y-104648000D03*
D25*
X75311000Y-114808000D03*
D26*
X77851000Y-114808000D03*
D25*
X75311000Y-124980000D03*
D26*
X77851000Y-124980000D03*
D21*
X149991000Y-150384000D03*
D22*
X149991000Y-155304000D03*
X149991000Y-147004000D03*
X149991000Y-143904000D03*
D21*
X149991000Y-123079000D03*
D22*
X154911000Y-123079000D03*
X146611000Y-123079000D03*
X143511000Y-123079000D03*
D21*
X86790000Y-150380000D03*
D22*
X86790000Y-155300000D03*
X86790000Y-147000000D03*
X86790000Y-143900000D03*
D25*
X75311000Y-135140000D03*
D26*
X77851000Y-135140000D03*
D20*
X89330000Y-135140000D03*
X86790000Y-135140000D03*
X84250000Y-135140000D03*
X89331800Y-124968000D03*
X86791800Y-124968000D03*
X84251800Y-124968000D03*
D23*
X154791042Y-82693000D03*
X145191042Y-82693000D03*
D24*
X152491042Y-89693000D03*
X149991042Y-89693000D03*
X147491042Y-89693000D03*
D25*
X102997000Y-135128000D03*
D26*
X105537000Y-135128000D03*
D25*
X102997000Y-124968000D03*
D26*
X105537000Y-124968000D03*
D20*
X117016000Y-135140000D03*
X114476000Y-135140000D03*
X111936000Y-135140000D03*
D21*
X149991000Y-136795000D03*
D22*
X154911000Y-136795000D03*
X146611000Y-136795000D03*
X143511000Y-136795000D03*
M02*
