M48
INCH,TZ
T1C0.0157
T2C0.0295
T3C0.0315
T4C0.0354
T5C0.0394
T6C0.0591
T7C0.0620
T8C0.0866
T9C0.1181
%
G90
G05
T1
X42650Y-38800
X43450Y-38800
X48826Y-60821
X49263Y-51519
X49611Y-35355
X49641Y-59889
X49652Y-27379
X50023Y-37068
X50046Y-37516
X50056Y-38706
X50195Y-41200
X55239Y-44071
X56369Y-35335
X60055Y-40357
X60567Y-41338
T2
X51076Y-52872
X51076Y-54841
X53045Y-52872
X53045Y-54841
T3
X30069Y-26805
X30069Y-30805
X30069Y-34805
X30069Y-38805
X30069Y-42805
X30069Y-46805
X30069Y-50805
X30250Y-54950
X33069Y-23605
X33069Y-27805
X33069Y-31805
X33069Y-35805
X33069Y-39805
X33069Y-43805
X33069Y-47805
X33069Y-51805
X34069Y-26805
X34069Y-30805
X34069Y-34805
X34069Y-38805
X34069Y-42805
X34069Y-46805
X34069Y-50805
X34250Y-54950
X36069Y-23605
X36069Y-27805
X36069Y-31805
X36069Y-35805
X36069Y-39805
X36069Y-43805
X36069Y-47805
X36069Y-51805
X36600Y-57100
X36600Y-61100
X37900Y-57050
X37900Y-58050
X37900Y-59050
X37900Y-60050
X38069Y-49405
X38069Y-53405
X38300Y-61300
X38481Y-55800
X40269Y-61300
X40450Y-55800
X40869Y-46805
X40869Y-50805
X40900Y-57050
X40900Y-58050
X40900Y-59050
X40900Y-60050
X41069Y-26805
X41069Y-30805
X41069Y-34805
X41069Y-38805
X41069Y-42805
X42869Y-47805
X42869Y-51805
X43069Y-23405
X43069Y-27805
X43069Y-31805
X43069Y-35805
X43069Y-39805
X43069Y-43805
X43100Y-54450
X43100Y-55650
X43100Y-56850
X44869Y-46805
X44869Y-50805
X45069Y-26805
X45069Y-30805
X45069Y-34805
X45069Y-38805
X45069Y-42805
X45869Y-47805
X45869Y-51805
X46069Y-23405
X46069Y-27805
X46069Y-31805
X46069Y-35805
X46069Y-39805
X46069Y-43805
X47100Y-54450
X47100Y-55650
X47100Y-56850
X48656Y-55707
X48656Y-59707
X49903Y-50822
X53903Y-50822
X55274Y-50048
X55274Y-51048
X55274Y-52048
X55320Y-55088
X55320Y-57057
X56967Y-51153
X60967Y-51153
T4
X29650Y-25200
X29650Y-29200
X29650Y-33205
X29650Y-37200
X29650Y-41200
X29650Y-45200
X29650Y-49205
X29650Y-53205
X30650Y-25200
X30650Y-29200
X30650Y-33205
X30650Y-37200
X30650Y-41200
X30650Y-45200
X30650Y-49205
X30650Y-53205
X40550Y-25205
X40550Y-29200
X40550Y-33200
X40550Y-37200
X40550Y-41200
X40550Y-45200
X40550Y-49200
X40550Y-53200
X41550Y-25205
X41550Y-29200
X41550Y-33200
X41550Y-37200
X41550Y-41200
X41550Y-45200
X41550Y-49200
X41550Y-53200
T5
X37500Y-40850
X37500Y-41850
X37500Y-42850
X37500Y-43850
X37500Y-44850
X37500Y-45850
X37500Y-46850
X37500Y-47850
X38500Y-40850
X38500Y-41850
X38500Y-42850
X38500Y-43850
X38500Y-44850
X38500Y-45850
X38500Y-46850
X38500Y-47850
X47500Y-34600
X47500Y-35600
X47500Y-36600
X47500Y-37600
X47500Y-38600
X47500Y-39600
X47500Y-40600
X48500Y-34600
X48500Y-35600
X48500Y-36600
X48500Y-37600
X48500Y-38600
X48500Y-39600
X48500Y-40600
X51076Y-27812
X51076Y-35312
X52061Y-27812
X52061Y-35312
X53045Y-27812
X53045Y-35312
X58067Y-27812
X58067Y-35312
X59052Y-27812
X59052Y-35312
X60036Y-27812
X60036Y-35312
T6
X34169Y-56654
X34169Y-57874
X34169Y-61142
X42499Y-59200
X43719Y-59200
X46987Y-59200
X52061Y-56655
X52061Y-57876
X52061Y-61143
X56500Y-43056
X56500Y-48456
X56500Y-53856
X57721Y-43056
X57721Y-48456
X57721Y-53856
X59052Y-56655
X59052Y-57876
X59052Y-61143
X60989Y-43056
X60989Y-48456
X60989Y-53856
T7
X33169Y-25205
X33169Y-29205
X33169Y-33205
X33169Y-37205
X33169Y-41205
X33169Y-45205
X33169Y-53205
X33170Y-49200
X34169Y-25205
X34169Y-29205
X34169Y-33205
X34169Y-37205
X34169Y-41205
X34169Y-45205
X34169Y-53205
X34170Y-49200
X35169Y-25205
X35169Y-29205
X35169Y-33205
X35169Y-37205
X35169Y-41205
X35169Y-45205
X35169Y-53205
X35170Y-49200
X44069Y-25205
X44069Y-29205
X44069Y-33205
X44069Y-37205
X44069Y-41205
X44069Y-45205
X44069Y-49205
X44069Y-53205
X45069Y-25205
X45069Y-29205
X45069Y-33205
X45069Y-37205
X45069Y-41205
X45069Y-45205
X45069Y-49205
X45069Y-53205
X46069Y-25205
X46069Y-29205
X46069Y-33205
X46069Y-37205
X46069Y-41205
X46069Y-45205
X46069Y-49205
X46069Y-53205
X52061Y-42056
X52061Y-43056
X52061Y-44056
X52061Y-47456
X52061Y-48456
X52061Y-49456
X54670Y-37001
X54670Y-38005
X54670Y-39009
X56442Y-37001
X56442Y-38005
X56442Y-39009
T8
X50171Y-25056
X50171Y-32556
X53950Y-25056
X53950Y-32556
X57162Y-25056
X57162Y-32556
X60941Y-25056
X60941Y-32556
T9
X30700Y-22405
X30700Y-60200
X62395Y-22405
X62395Y-60200
T0
M30
