G04 #@! TF.GenerationSoftware,KiCad,Pcbnew,(5.1.0-0)*
G04 #@! TF.CreationDate,2019-10-10T16:01:50-05:00*
G04 #@! TF.ProjectId,trigger-seq-panel,74726967-6765-4722-9d73-65712d70616e,rev?*
G04 #@! TF.SameCoordinates,Original*
G04 #@! TF.FileFunction,Legend,Top*
G04 #@! TF.FilePolarity,Positive*
%FSLAX46Y46*%
G04 Gerber Fmt 4.6, Leading zero omitted, Abs format (unit mm)*
G04 Created by KiCad (PCBNEW (5.1.0-0)) date 2019-10-10 16:01:50*
%MOMM*%
%LPD*%
G04 APERTURE LIST*
%ADD10C,0.300000*%
%ADD11C,0.152400*%
%ADD12C,0.120000*%
%ADD13C,0.100000*%
%ADD14C,0.010000*%
%ADD15C,0.150000*%
G04 APERTURE END LIST*
D10*
X98898571Y-99010714D02*
X98112857Y-99010714D01*
X97970000Y-99082142D01*
X97898571Y-99225000D01*
X97898571Y-99510714D01*
X97970000Y-99653571D01*
X98827142Y-99010714D02*
X98898571Y-99153571D01*
X98898571Y-99510714D01*
X98827142Y-99653571D01*
X98684285Y-99725000D01*
X98541428Y-99725000D01*
X98398571Y-99653571D01*
X98327142Y-99510714D01*
X98327142Y-99153571D01*
X98255714Y-99010714D01*
X98898571Y-98082142D02*
X98827142Y-98225000D01*
X98684285Y-98296428D01*
X97398571Y-98296428D01*
X98898571Y-97296428D02*
X98827142Y-97439285D01*
X98684285Y-97510714D01*
X97398571Y-97510714D01*
X98898571Y-94939285D02*
X97398571Y-94939285D01*
X98827142Y-94939285D02*
X98898571Y-95082142D01*
X98898571Y-95367857D01*
X98827142Y-95510714D01*
X98755714Y-95582142D01*
X98612857Y-95653571D01*
X98184285Y-95653571D01*
X98041428Y-95582142D01*
X97970000Y-95510714D01*
X97898571Y-95367857D01*
X97898571Y-95082142D01*
X97970000Y-94939285D01*
X98898571Y-94225000D02*
X97898571Y-94225000D01*
X97398571Y-94225000D02*
X97470000Y-94296428D01*
X97541428Y-94225000D01*
X97470000Y-94153571D01*
X97398571Y-94225000D01*
X97541428Y-94225000D01*
X98898571Y-93296428D02*
X98827142Y-93439285D01*
X98755714Y-93510714D01*
X98612857Y-93582142D01*
X98184285Y-93582142D01*
X98041428Y-93510714D01*
X97970000Y-93439285D01*
X97898571Y-93296428D01*
X97898571Y-93082142D01*
X97970000Y-92939285D01*
X98041428Y-92867857D01*
X98184285Y-92796428D01*
X98612857Y-92796428D01*
X98755714Y-92867857D01*
X98827142Y-92939285D01*
X98898571Y-93082142D01*
X98898571Y-93296428D01*
X98898571Y-91510714D02*
X97398571Y-91510714D01*
X98827142Y-91510714D02*
X98898571Y-91653571D01*
X98898571Y-91939285D01*
X98827142Y-92082142D01*
X98755714Y-92153571D01*
X98612857Y-92225000D01*
X98184285Y-92225000D01*
X98041428Y-92153571D01*
X97970000Y-92082142D01*
X97898571Y-91939285D01*
X97898571Y-91653571D01*
X97970000Y-91510714D01*
X98827142Y-90225000D02*
X98898571Y-90367857D01*
X98898571Y-90653571D01*
X98827142Y-90796428D01*
X98684285Y-90867857D01*
X98112857Y-90867857D01*
X97970000Y-90796428D01*
X97898571Y-90653571D01*
X97898571Y-90367857D01*
X97970000Y-90225000D01*
X98112857Y-90153571D01*
X98255714Y-90153571D01*
X98398571Y-90867857D01*
X98827142Y-89582142D02*
X98898571Y-89439285D01*
X98898571Y-89153571D01*
X98827142Y-89010714D01*
X98684285Y-88939285D01*
X98612857Y-88939285D01*
X98470000Y-89010714D01*
X98398571Y-89153571D01*
X98398571Y-89367857D01*
X98327142Y-89510714D01*
X98184285Y-89582142D01*
X98112857Y-89582142D01*
X97970000Y-89510714D01*
X97898571Y-89367857D01*
X97898571Y-89153571D01*
X97970000Y-89010714D01*
X98898571Y-86367857D02*
X98898571Y-87225000D01*
X98898571Y-86796428D02*
X97398571Y-86796428D01*
X97612857Y-86939285D01*
X97755714Y-87082142D01*
X97827142Y-87225000D01*
X98898571Y-85725000D02*
X97398571Y-85725000D01*
X98898571Y-84867857D01*
X97398571Y-84867857D01*
X97898571Y-83510714D02*
X98898571Y-83510714D01*
X97327142Y-83867857D02*
X98398571Y-84225000D01*
X98398571Y-83296428D01*
X98898571Y-81939285D02*
X98898571Y-82796428D01*
X98898571Y-82367857D02*
X97398571Y-82367857D01*
X97612857Y-82510714D01*
X97755714Y-82653571D01*
X97827142Y-82796428D01*
X97898571Y-80653571D02*
X98898571Y-80653571D01*
X97327142Y-81010714D02*
X98398571Y-81367857D01*
X98398571Y-80439285D01*
X98041428Y-79653571D02*
X97970000Y-79796428D01*
X97898571Y-79867857D01*
X97755714Y-79939285D01*
X97684285Y-79939285D01*
X97541428Y-79867857D01*
X97470000Y-79796428D01*
X97398571Y-79653571D01*
X97398571Y-79367857D01*
X97470000Y-79225000D01*
X97541428Y-79153571D01*
X97684285Y-79082142D01*
X97755714Y-79082142D01*
X97898571Y-79153571D01*
X97970000Y-79225000D01*
X98041428Y-79367857D01*
X98041428Y-79653571D01*
X98112857Y-79796428D01*
X98184285Y-79867857D01*
X98327142Y-79939285D01*
X98612857Y-79939285D01*
X98755714Y-79867857D01*
X98827142Y-79796428D01*
X98898571Y-79653571D01*
X98898571Y-79367857D01*
X98827142Y-79225000D01*
X98755714Y-79153571D01*
X98612857Y-79082142D01*
X98327142Y-79082142D01*
X98184285Y-79153571D01*
X98112857Y-79225000D01*
X98041428Y-79367857D01*
X97327142Y-77367857D02*
X99255714Y-78653571D01*
X98898571Y-76082142D02*
X98898571Y-76939285D01*
X98898571Y-76510714D02*
X97398571Y-76510714D01*
X97612857Y-76653571D01*
X97755714Y-76796428D01*
X97827142Y-76939285D01*
X98898571Y-75439285D02*
X97398571Y-75439285D01*
X98898571Y-74582142D01*
X97398571Y-74582142D01*
X98898571Y-73796428D02*
X98898571Y-73510714D01*
X98827142Y-73367857D01*
X98755714Y-73296428D01*
X98541428Y-73153571D01*
X98255714Y-73082142D01*
X97684285Y-73082142D01*
X97541428Y-73153571D01*
X97470000Y-73225000D01*
X97398571Y-73367857D01*
X97398571Y-73653571D01*
X97470000Y-73796428D01*
X97541428Y-73867857D01*
X97684285Y-73939285D01*
X98041428Y-73939285D01*
X98184285Y-73867857D01*
X98255714Y-73796428D01*
X98327142Y-73653571D01*
X98327142Y-73367857D01*
X98255714Y-73225000D01*
X98184285Y-73153571D01*
X98041428Y-73082142D01*
X98898571Y-71653571D02*
X98898571Y-72510714D01*
X98898571Y-72082142D02*
X97398571Y-72082142D01*
X97612857Y-72225000D01*
X97755714Y-72367857D01*
X97827142Y-72510714D01*
X97898571Y-70367857D02*
X98898571Y-70367857D01*
X97327142Y-70725000D02*
X98398571Y-71082142D01*
X98398571Y-70153571D01*
D11*
X91884500Y-54669266D02*
X91884500Y-53780266D01*
X91884500Y-54203600D02*
X92392500Y-54203600D01*
X92392500Y-54669266D02*
X92392500Y-53780266D01*
X92942833Y-54669266D02*
X92858166Y-54626933D01*
X92815833Y-54584600D01*
X92773500Y-54499933D01*
X92773500Y-54245933D01*
X92815833Y-54161266D01*
X92858166Y-54118933D01*
X92942833Y-54076600D01*
X93069833Y-54076600D01*
X93154500Y-54118933D01*
X93196833Y-54161266D01*
X93239166Y-54245933D01*
X93239166Y-54499933D01*
X93196833Y-54584600D01*
X93154500Y-54626933D01*
X93069833Y-54669266D01*
X92942833Y-54669266D01*
X93747166Y-54669266D02*
X93662500Y-54626933D01*
X93620166Y-54584600D01*
X93577833Y-54499933D01*
X93577833Y-54245933D01*
X93620166Y-54161266D01*
X93662500Y-54118933D01*
X93747166Y-54076600D01*
X93874166Y-54076600D01*
X93958833Y-54118933D01*
X94001166Y-54161266D01*
X94043500Y-54245933D01*
X94043500Y-54499933D01*
X94001166Y-54584600D01*
X93958833Y-54626933D01*
X93874166Y-54669266D01*
X93747166Y-54669266D01*
X94424500Y-54669266D02*
X94424500Y-53780266D01*
X94509166Y-54330600D02*
X94763166Y-54669266D01*
X94763166Y-54076600D02*
X94424500Y-54415266D01*
X95186500Y-53780266D02*
X95186500Y-53822600D01*
X95144166Y-53907266D01*
X95101833Y-53949600D01*
X95525166Y-54626933D02*
X95609833Y-54669266D01*
X95779166Y-54669266D01*
X95863833Y-54626933D01*
X95906166Y-54542266D01*
X95906166Y-54499933D01*
X95863833Y-54415266D01*
X95779166Y-54372933D01*
X95652166Y-54372933D01*
X95567500Y-54330600D01*
X95525166Y-54245933D01*
X95525166Y-54203600D01*
X95567500Y-54118933D01*
X95652166Y-54076600D01*
X95779166Y-54076600D01*
X95863833Y-54118933D01*
X97430166Y-53822600D02*
X97345500Y-53780266D01*
X97218500Y-53780266D01*
X97091500Y-53822600D01*
X97006833Y-53907266D01*
X96964500Y-53991933D01*
X96922166Y-54161266D01*
X96922166Y-54288266D01*
X96964500Y-54457600D01*
X97006833Y-54542266D01*
X97091500Y-54626933D01*
X97218500Y-54669266D01*
X97303166Y-54669266D01*
X97430166Y-54626933D01*
X97472500Y-54584600D01*
X97472500Y-54288266D01*
X97303166Y-54288266D01*
X98234500Y-54669266D02*
X98234500Y-54203600D01*
X98192166Y-54118933D01*
X98107500Y-54076600D01*
X97938166Y-54076600D01*
X97853500Y-54118933D01*
X98234500Y-54626933D02*
X98149833Y-54669266D01*
X97938166Y-54669266D01*
X97853500Y-54626933D01*
X97811166Y-54542266D01*
X97811166Y-54457600D01*
X97853500Y-54372933D01*
X97938166Y-54330600D01*
X98149833Y-54330600D01*
X98234500Y-54288266D01*
X98530833Y-54076600D02*
X98869500Y-54076600D01*
X98657833Y-53780266D02*
X98657833Y-54542266D01*
X98700166Y-54626933D01*
X98784833Y-54669266D01*
X98869500Y-54669266D01*
X99292833Y-54669266D02*
X99208166Y-54626933D01*
X99165833Y-54584600D01*
X99123500Y-54499933D01*
X99123500Y-54245933D01*
X99165833Y-54161266D01*
X99208166Y-54118933D01*
X99292833Y-54076600D01*
X99419833Y-54076600D01*
X99504500Y-54118933D01*
X99546833Y-54161266D01*
X99589166Y-54245933D01*
X99589166Y-54499933D01*
X99546833Y-54584600D01*
X99504500Y-54626933D01*
X99419833Y-54669266D01*
X99292833Y-54669266D01*
X99970166Y-54669266D02*
X99970166Y-54076600D01*
X99970166Y-54245933D02*
X100012500Y-54161266D01*
X100054833Y-54118933D01*
X100139500Y-54076600D01*
X100224166Y-54076600D01*
X101113166Y-53780266D02*
X101663500Y-53780266D01*
X101367166Y-54118933D01*
X101494166Y-54118933D01*
X101578833Y-54161266D01*
X101621166Y-54203600D01*
X101663500Y-54288266D01*
X101663500Y-54499933D01*
X101621166Y-54584600D01*
X101578833Y-54626933D01*
X101494166Y-54669266D01*
X101240166Y-54669266D01*
X101155500Y-54626933D01*
X101113166Y-54584600D01*
X102044500Y-54584600D02*
X102086833Y-54626933D01*
X102044500Y-54669266D01*
X102002166Y-54626933D01*
X102044500Y-54584600D01*
X102044500Y-54669266D01*
X102637166Y-53780266D02*
X102721833Y-53780266D01*
X102806500Y-53822600D01*
X102848833Y-53864933D01*
X102891166Y-53949600D01*
X102933500Y-54118933D01*
X102933500Y-54330600D01*
X102891166Y-54499933D01*
X102848833Y-54584600D01*
X102806500Y-54626933D01*
X102721833Y-54669266D01*
X102637166Y-54669266D01*
X102552500Y-54626933D01*
X102510166Y-54584600D01*
X102467833Y-54499933D01*
X102425500Y-54330600D01*
X102425500Y-54118933D01*
X102467833Y-53949600D01*
X102510166Y-53864933D01*
X102552500Y-53822600D01*
X102637166Y-53780266D01*
X103991833Y-54076600D02*
X103991833Y-54965600D01*
X103991833Y-54118933D02*
X104076500Y-54076600D01*
X104245833Y-54076600D01*
X104330500Y-54118933D01*
X104372833Y-54161266D01*
X104415166Y-54245933D01*
X104415166Y-54499933D01*
X104372833Y-54584600D01*
X104330500Y-54626933D01*
X104245833Y-54669266D01*
X104076500Y-54669266D01*
X103991833Y-54626933D01*
X105177166Y-54669266D02*
X105177166Y-54203600D01*
X105134833Y-54118933D01*
X105050166Y-54076600D01*
X104880833Y-54076600D01*
X104796166Y-54118933D01*
X105177166Y-54626933D02*
X105092500Y-54669266D01*
X104880833Y-54669266D01*
X104796166Y-54626933D01*
X104753833Y-54542266D01*
X104753833Y-54457600D01*
X104796166Y-54372933D01*
X104880833Y-54330600D01*
X105092500Y-54330600D01*
X105177166Y-54288266D01*
X105600500Y-54076600D02*
X105600500Y-54669266D01*
X105600500Y-54161266D02*
X105642833Y-54118933D01*
X105727500Y-54076600D01*
X105854500Y-54076600D01*
X105939166Y-54118933D01*
X105981500Y-54203600D01*
X105981500Y-54669266D01*
X106743500Y-54626933D02*
X106658833Y-54669266D01*
X106489500Y-54669266D01*
X106404833Y-54626933D01*
X106362500Y-54542266D01*
X106362500Y-54203600D01*
X106404833Y-54118933D01*
X106489500Y-54076600D01*
X106658833Y-54076600D01*
X106743500Y-54118933D01*
X106785833Y-54203600D01*
X106785833Y-54288266D01*
X106362500Y-54372933D01*
X107293833Y-54669266D02*
X107209166Y-54626933D01*
X107166833Y-54542266D01*
X107166833Y-53780266D01*
X108309833Y-54669266D02*
X108309833Y-53780266D01*
X108648500Y-53780266D01*
X108733166Y-53822600D01*
X108775500Y-53864933D01*
X108817833Y-53949600D01*
X108817833Y-54076600D01*
X108775500Y-54161266D01*
X108733166Y-54203600D01*
X108648500Y-54245933D01*
X108309833Y-54245933D01*
X109706833Y-54584600D02*
X109664500Y-54626933D01*
X109537500Y-54669266D01*
X109452833Y-54669266D01*
X109325833Y-54626933D01*
X109241166Y-54542266D01*
X109198833Y-54457600D01*
X109156500Y-54288266D01*
X109156500Y-54161266D01*
X109198833Y-53991933D01*
X109241166Y-53907266D01*
X109325833Y-53822600D01*
X109452833Y-53780266D01*
X109537500Y-53780266D01*
X109664500Y-53822600D01*
X109706833Y-53864933D01*
X110384166Y-54203600D02*
X110511166Y-54245933D01*
X110553500Y-54288266D01*
X110595833Y-54372933D01*
X110595833Y-54499933D01*
X110553500Y-54584600D01*
X110511166Y-54626933D01*
X110426500Y-54669266D01*
X110087833Y-54669266D01*
X110087833Y-53780266D01*
X110384166Y-53780266D01*
X110468833Y-53822600D01*
X110511166Y-53864933D01*
X110553500Y-53949600D01*
X110553500Y-54034266D01*
X110511166Y-54118933D01*
X110468833Y-54161266D01*
X110384166Y-54203600D01*
X110087833Y-54203600D01*
X93493166Y-55562500D02*
X93831833Y-55562500D01*
X93620166Y-55266166D02*
X93620166Y-56028166D01*
X93662500Y-56112833D01*
X93747166Y-56155166D01*
X93831833Y-56155166D01*
X94128166Y-56155166D02*
X94128166Y-55562500D01*
X94128166Y-55731833D02*
X94170500Y-55647166D01*
X94212833Y-55604833D01*
X94297500Y-55562500D01*
X94382166Y-55562500D01*
X94678500Y-56155166D02*
X94678500Y-55562500D01*
X94678500Y-55266166D02*
X94636166Y-55308500D01*
X94678500Y-55350833D01*
X94720833Y-55308500D01*
X94678500Y-55266166D01*
X94678500Y-55350833D01*
X95482833Y-55562500D02*
X95482833Y-56282166D01*
X95440500Y-56366833D01*
X95398166Y-56409166D01*
X95313500Y-56451500D01*
X95186500Y-56451500D01*
X95101833Y-56409166D01*
X95482833Y-56112833D02*
X95398166Y-56155166D01*
X95228833Y-56155166D01*
X95144166Y-56112833D01*
X95101833Y-56070500D01*
X95059500Y-55985833D01*
X95059500Y-55731833D01*
X95101833Y-55647166D01*
X95144166Y-55604833D01*
X95228833Y-55562500D01*
X95398166Y-55562500D01*
X95482833Y-55604833D01*
X96287166Y-55562500D02*
X96287166Y-56282166D01*
X96244833Y-56366833D01*
X96202500Y-56409166D01*
X96117833Y-56451500D01*
X95990833Y-56451500D01*
X95906166Y-56409166D01*
X96287166Y-56112833D02*
X96202500Y-56155166D01*
X96033166Y-56155166D01*
X95948500Y-56112833D01*
X95906166Y-56070500D01*
X95863833Y-55985833D01*
X95863833Y-55731833D01*
X95906166Y-55647166D01*
X95948500Y-55604833D01*
X96033166Y-55562500D01*
X96202500Y-55562500D01*
X96287166Y-55604833D01*
X97049166Y-56112833D02*
X96964500Y-56155166D01*
X96795166Y-56155166D01*
X96710500Y-56112833D01*
X96668166Y-56028166D01*
X96668166Y-55689500D01*
X96710500Y-55604833D01*
X96795166Y-55562500D01*
X96964500Y-55562500D01*
X97049166Y-55604833D01*
X97091500Y-55689500D01*
X97091500Y-55774166D01*
X96668166Y-55858833D01*
X97472500Y-56155166D02*
X97472500Y-55562500D01*
X97472500Y-55731833D02*
X97514833Y-55647166D01*
X97557166Y-55604833D01*
X97641833Y-55562500D01*
X97726500Y-55562500D01*
X98657833Y-55223833D02*
X97895833Y-56366833D01*
X99335166Y-55562500D02*
X99335166Y-56282166D01*
X99292833Y-56366833D01*
X99250500Y-56409166D01*
X99165833Y-56451500D01*
X99038833Y-56451500D01*
X98954166Y-56409166D01*
X99335166Y-56112833D02*
X99250500Y-56155166D01*
X99081166Y-56155166D01*
X98996500Y-56112833D01*
X98954166Y-56070500D01*
X98911833Y-55985833D01*
X98911833Y-55731833D01*
X98954166Y-55647166D01*
X98996500Y-55604833D01*
X99081166Y-55562500D01*
X99250500Y-55562500D01*
X99335166Y-55604833D01*
X100139500Y-56155166D02*
X100139500Y-55689500D01*
X100097166Y-55604833D01*
X100012500Y-55562500D01*
X99843166Y-55562500D01*
X99758500Y-55604833D01*
X100139500Y-56112833D02*
X100054833Y-56155166D01*
X99843166Y-56155166D01*
X99758500Y-56112833D01*
X99716166Y-56028166D01*
X99716166Y-55943500D01*
X99758500Y-55858833D01*
X99843166Y-55816500D01*
X100054833Y-55816500D01*
X100139500Y-55774166D01*
X100435833Y-55562500D02*
X100774500Y-55562500D01*
X100562833Y-55266166D02*
X100562833Y-56028166D01*
X100605166Y-56112833D01*
X100689833Y-56155166D01*
X100774500Y-56155166D01*
X101409500Y-56112833D02*
X101324833Y-56155166D01*
X101155500Y-56155166D01*
X101070833Y-56112833D01*
X101028500Y-56028166D01*
X101028500Y-55689500D01*
X101070833Y-55604833D01*
X101155500Y-55562500D01*
X101324833Y-55562500D01*
X101409500Y-55604833D01*
X101451833Y-55689500D01*
X101451833Y-55774166D01*
X101028500Y-55858833D01*
X102467833Y-56112833D02*
X102552500Y-56155166D01*
X102721833Y-56155166D01*
X102806500Y-56112833D01*
X102848833Y-56028166D01*
X102848833Y-55985833D01*
X102806500Y-55901166D01*
X102721833Y-55858833D01*
X102594833Y-55858833D01*
X102510166Y-55816500D01*
X102467833Y-55731833D01*
X102467833Y-55689500D01*
X102510166Y-55604833D01*
X102594833Y-55562500D01*
X102721833Y-55562500D01*
X102806500Y-55604833D01*
X103568500Y-56112833D02*
X103483833Y-56155166D01*
X103314500Y-56155166D01*
X103229833Y-56112833D01*
X103187500Y-56028166D01*
X103187500Y-55689500D01*
X103229833Y-55604833D01*
X103314500Y-55562500D01*
X103483833Y-55562500D01*
X103568500Y-55604833D01*
X103610833Y-55689500D01*
X103610833Y-55774166D01*
X103187500Y-55858833D01*
X104372833Y-55562500D02*
X104372833Y-56451500D01*
X104372833Y-56112833D02*
X104288166Y-56155166D01*
X104118833Y-56155166D01*
X104034166Y-56112833D01*
X103991833Y-56070500D01*
X103949500Y-55985833D01*
X103949500Y-55731833D01*
X103991833Y-55647166D01*
X104034166Y-55604833D01*
X104118833Y-55562500D01*
X104288166Y-55562500D01*
X104372833Y-55604833D01*
X105177166Y-55562500D02*
X105177166Y-56155166D01*
X104796166Y-55562500D02*
X104796166Y-56028166D01*
X104838500Y-56112833D01*
X104923166Y-56155166D01*
X105050166Y-56155166D01*
X105134833Y-56112833D01*
X105177166Y-56070500D01*
X105939166Y-56112833D02*
X105854500Y-56155166D01*
X105685166Y-56155166D01*
X105600500Y-56112833D01*
X105558166Y-56028166D01*
X105558166Y-55689500D01*
X105600500Y-55604833D01*
X105685166Y-55562500D01*
X105854500Y-55562500D01*
X105939166Y-55604833D01*
X105981500Y-55689500D01*
X105981500Y-55774166D01*
X105558166Y-55858833D01*
X106362500Y-55562500D02*
X106362500Y-56155166D01*
X106362500Y-55647166D02*
X106404833Y-55604833D01*
X106489500Y-55562500D01*
X106616500Y-55562500D01*
X106701166Y-55604833D01*
X106743500Y-55689500D01*
X106743500Y-56155166D01*
X107547833Y-56112833D02*
X107463166Y-56155166D01*
X107293833Y-56155166D01*
X107209166Y-56112833D01*
X107166833Y-56070500D01*
X107124500Y-55985833D01*
X107124500Y-55731833D01*
X107166833Y-55647166D01*
X107209166Y-55604833D01*
X107293833Y-55562500D01*
X107463166Y-55562500D01*
X107547833Y-55604833D01*
X108267500Y-56112833D02*
X108182833Y-56155166D01*
X108013500Y-56155166D01*
X107928833Y-56112833D01*
X107886500Y-56028166D01*
X107886500Y-55689500D01*
X107928833Y-55604833D01*
X108013500Y-55562500D01*
X108182833Y-55562500D01*
X108267500Y-55604833D01*
X108309833Y-55689500D01*
X108309833Y-55774166D01*
X107886500Y-55858833D01*
X108690833Y-56155166D02*
X108690833Y-55562500D01*
X108690833Y-55731833D02*
X108733166Y-55647166D01*
X108775500Y-55604833D01*
X108860166Y-55562500D01*
X108944833Y-55562500D01*
X92731166Y-57979733D02*
X92688833Y-57937400D01*
X92604166Y-57810400D01*
X92561833Y-57725733D01*
X92519500Y-57598733D01*
X92477166Y-57387066D01*
X92477166Y-57217733D01*
X92519500Y-57006066D01*
X92561833Y-56879066D01*
X92604166Y-56794400D01*
X92688833Y-56667400D01*
X92731166Y-56625066D01*
X93450833Y-57598733D02*
X93366166Y-57641066D01*
X93196833Y-57641066D01*
X93112166Y-57598733D01*
X93069833Y-57556400D01*
X93027500Y-57471733D01*
X93027500Y-57217733D01*
X93069833Y-57133066D01*
X93112166Y-57090733D01*
X93196833Y-57048400D01*
X93366166Y-57048400D01*
X93450833Y-57090733D01*
X93747166Y-57979733D02*
X93789500Y-57937400D01*
X93874166Y-57810400D01*
X93916500Y-57725733D01*
X93958833Y-57598733D01*
X94001166Y-57387066D01*
X94001166Y-57217733D01*
X93958833Y-57006066D01*
X93916500Y-56879066D01*
X93874166Y-56794400D01*
X93789500Y-56667400D01*
X93747166Y-56625066D01*
X94382166Y-56836733D02*
X94424500Y-56794400D01*
X94509166Y-56752066D01*
X94720833Y-56752066D01*
X94805500Y-56794400D01*
X94847833Y-56836733D01*
X94890166Y-56921400D01*
X94890166Y-57006066D01*
X94847833Y-57133066D01*
X94339833Y-57641066D01*
X94890166Y-57641066D01*
X95440500Y-56752066D02*
X95525166Y-56752066D01*
X95609833Y-56794400D01*
X95652166Y-56836733D01*
X95694500Y-56921400D01*
X95736833Y-57090733D01*
X95736833Y-57302400D01*
X95694500Y-57471733D01*
X95652166Y-57556400D01*
X95609833Y-57598733D01*
X95525166Y-57641066D01*
X95440500Y-57641066D01*
X95355833Y-57598733D01*
X95313500Y-57556400D01*
X95271166Y-57471733D01*
X95228833Y-57302400D01*
X95228833Y-57090733D01*
X95271166Y-56921400D01*
X95313500Y-56836733D01*
X95355833Y-56794400D01*
X95440500Y-56752066D01*
X96583500Y-57641066D02*
X96075500Y-57641066D01*
X96329500Y-57641066D02*
X96329500Y-56752066D01*
X96244833Y-56879066D01*
X96160166Y-56963733D01*
X96075500Y-57006066D01*
X97006833Y-57641066D02*
X97176166Y-57641066D01*
X97260833Y-57598733D01*
X97303166Y-57556400D01*
X97387833Y-57429400D01*
X97430166Y-57260066D01*
X97430166Y-56921400D01*
X97387833Y-56836733D01*
X97345500Y-56794400D01*
X97260833Y-56752066D01*
X97091500Y-56752066D01*
X97006833Y-56794400D01*
X96964500Y-56836733D01*
X96922166Y-56921400D01*
X96922166Y-57133066D01*
X96964500Y-57217733D01*
X97006833Y-57260066D01*
X97091500Y-57302400D01*
X97260833Y-57302400D01*
X97345500Y-57260066D01*
X97387833Y-57217733D01*
X97430166Y-57133066D01*
X98784833Y-57175400D02*
X98488500Y-57175400D01*
X98488500Y-57641066D02*
X98488500Y-56752066D01*
X98911833Y-56752066D01*
X99250500Y-57641066D02*
X99250500Y-57048400D01*
X99250500Y-57217733D02*
X99292833Y-57133066D01*
X99335166Y-57090733D01*
X99419833Y-57048400D01*
X99504500Y-57048400D01*
X99927833Y-57641066D02*
X99843166Y-57598733D01*
X99800833Y-57556400D01*
X99758500Y-57471733D01*
X99758500Y-57217733D01*
X99800833Y-57133066D01*
X99843166Y-57090733D01*
X99927833Y-57048400D01*
X100054833Y-57048400D01*
X100139500Y-57090733D01*
X100181833Y-57133066D01*
X100224166Y-57217733D01*
X100224166Y-57471733D01*
X100181833Y-57556400D01*
X100139500Y-57598733D01*
X100054833Y-57641066D01*
X99927833Y-57641066D01*
X100986166Y-57048400D02*
X100986166Y-57768066D01*
X100943833Y-57852733D01*
X100901500Y-57895066D01*
X100816833Y-57937400D01*
X100689833Y-57937400D01*
X100605166Y-57895066D01*
X100986166Y-57598733D02*
X100901500Y-57641066D01*
X100732166Y-57641066D01*
X100647500Y-57598733D01*
X100605166Y-57556400D01*
X100562833Y-57471733D01*
X100562833Y-57217733D01*
X100605166Y-57133066D01*
X100647500Y-57090733D01*
X100732166Y-57048400D01*
X100901500Y-57048400D01*
X100986166Y-57090733D01*
X101536500Y-57641066D02*
X101451833Y-57598733D01*
X101409500Y-57514066D01*
X101409500Y-56752066D01*
X102213833Y-57598733D02*
X102129166Y-57641066D01*
X101959833Y-57641066D01*
X101875166Y-57598733D01*
X101832833Y-57514066D01*
X101832833Y-57175400D01*
X101875166Y-57090733D01*
X101959833Y-57048400D01*
X102129166Y-57048400D01*
X102213833Y-57090733D01*
X102256166Y-57175400D01*
X102256166Y-57260066D01*
X101832833Y-57344733D01*
X103018166Y-57048400D02*
X103018166Y-57768066D01*
X102975833Y-57852733D01*
X102933500Y-57895066D01*
X102848833Y-57937400D01*
X102721833Y-57937400D01*
X102637166Y-57895066D01*
X103018166Y-57598733D02*
X102933500Y-57641066D01*
X102764166Y-57641066D01*
X102679500Y-57598733D01*
X102637166Y-57556400D01*
X102594833Y-57471733D01*
X102594833Y-57217733D01*
X102637166Y-57133066D01*
X102679500Y-57090733D01*
X102764166Y-57048400D01*
X102933500Y-57048400D01*
X103018166Y-57090733D01*
X104076500Y-57598733D02*
X104203500Y-57641066D01*
X104415166Y-57641066D01*
X104499833Y-57598733D01*
X104542166Y-57556400D01*
X104584500Y-57471733D01*
X104584500Y-57387066D01*
X104542166Y-57302400D01*
X104499833Y-57260066D01*
X104415166Y-57217733D01*
X104245833Y-57175400D01*
X104161166Y-57133066D01*
X104118833Y-57090733D01*
X104076500Y-57006066D01*
X104076500Y-56921400D01*
X104118833Y-56836733D01*
X104161166Y-56794400D01*
X104245833Y-56752066D01*
X104457500Y-56752066D01*
X104584500Y-56794400D01*
X104880833Y-57048400D02*
X105092500Y-57641066D01*
X105304166Y-57048400D02*
X105092500Y-57641066D01*
X105007833Y-57852733D01*
X104965500Y-57895066D01*
X104880833Y-57937400D01*
X105642833Y-57048400D02*
X105642833Y-57641066D01*
X105642833Y-57133066D02*
X105685166Y-57090733D01*
X105769833Y-57048400D01*
X105896833Y-57048400D01*
X105981500Y-57090733D01*
X106023833Y-57175400D01*
X106023833Y-57641066D01*
X106320166Y-57048400D02*
X106658833Y-57048400D01*
X106447166Y-56752066D02*
X106447166Y-57514066D01*
X106489500Y-57598733D01*
X106574166Y-57641066D01*
X106658833Y-57641066D01*
X106955166Y-57641066D02*
X106955166Y-56752066D01*
X107336166Y-57641066D02*
X107336166Y-57175400D01*
X107293833Y-57090733D01*
X107209166Y-57048400D01*
X107082166Y-57048400D01*
X106997500Y-57090733D01*
X106955166Y-57133066D01*
X108098166Y-57598733D02*
X108013500Y-57641066D01*
X107844166Y-57641066D01*
X107759500Y-57598733D01*
X107717166Y-57514066D01*
X107717166Y-57175400D01*
X107759500Y-57090733D01*
X107844166Y-57048400D01*
X108013500Y-57048400D01*
X108098166Y-57090733D01*
X108140500Y-57175400D01*
X108140500Y-57260066D01*
X107717166Y-57344733D01*
X108479166Y-57598733D02*
X108563833Y-57641066D01*
X108733166Y-57641066D01*
X108817833Y-57598733D01*
X108860166Y-57514066D01*
X108860166Y-57471733D01*
X108817833Y-57387066D01*
X108733166Y-57344733D01*
X108606166Y-57344733D01*
X108521500Y-57302400D01*
X108479166Y-57217733D01*
X108479166Y-57175400D01*
X108521500Y-57090733D01*
X108606166Y-57048400D01*
X108733166Y-57048400D01*
X108817833Y-57090733D01*
X109241166Y-57641066D02*
X109241166Y-57048400D01*
X109241166Y-56752066D02*
X109198833Y-56794400D01*
X109241166Y-56836733D01*
X109283500Y-56794400D01*
X109241166Y-56752066D01*
X109241166Y-56836733D01*
X109622166Y-57598733D02*
X109706833Y-57641066D01*
X109876166Y-57641066D01*
X109960833Y-57598733D01*
X110003166Y-57514066D01*
X110003166Y-57471733D01*
X109960833Y-57387066D01*
X109876166Y-57344733D01*
X109749166Y-57344733D01*
X109664500Y-57302400D01*
X109622166Y-57217733D01*
X109622166Y-57175400D01*
X109664500Y-57090733D01*
X109749166Y-57048400D01*
X109876166Y-57048400D01*
X109960833Y-57090733D01*
D12*
X96623000Y-143102000D02*
X96623000Y-140362000D01*
X103863000Y-143102000D02*
X103863000Y-140362000D01*
X103863000Y-140362000D02*
X96623000Y-140362000D01*
X103863000Y-143102000D02*
X96623000Y-143102000D01*
D13*
X96743000Y-142982000D02*
X103743000Y-142982000D01*
X96743000Y-140482000D02*
X96743000Y-142982000D01*
X103743000Y-140482000D02*
X96743000Y-140482000D01*
X103743000Y-142982000D02*
X103743000Y-140482000D01*
D14*
G36*
X138978388Y-53526129D02*
G01*
X139191770Y-53684501D01*
X139482211Y-53923416D01*
X139838131Y-54232464D01*
X140247949Y-54601239D01*
X140700084Y-55019332D01*
X141182955Y-55476335D01*
X141643902Y-55921722D01*
X142003035Y-56283600D01*
X142273878Y-56589387D01*
X142468174Y-56861237D01*
X142597663Y-57121308D01*
X142674088Y-57391755D01*
X142709189Y-57694734D01*
X142715466Y-57943750D01*
X142704497Y-58293499D01*
X142660850Y-58559464D01*
X142569053Y-58783689D01*
X142413633Y-59008217D01*
X142256785Y-59190202D01*
X142055162Y-59371314D01*
X141736354Y-59598347D01*
X141301350Y-59870701D01*
X140751141Y-60187778D01*
X140086715Y-60548979D01*
X139521023Y-60844874D01*
X139166460Y-61030457D01*
X138843048Y-61204782D01*
X138570855Y-61356630D01*
X138369950Y-61474783D01*
X138260404Y-61548023D01*
X138255375Y-61552330D01*
X138159190Y-61675835D01*
X138117756Y-61847073D01*
X138112500Y-61983772D01*
X138121775Y-62154105D01*
X138161902Y-62293568D01*
X138251336Y-62442365D01*
X138408529Y-62640699D01*
X138420748Y-62655328D01*
X138720088Y-62994420D01*
X139086365Y-63380565D01*
X139487190Y-63781670D01*
X139890179Y-64165643D01*
X140262942Y-64500393D01*
X140398848Y-64615406D01*
X140610227Y-64798421D01*
X140778518Y-64959615D01*
X140882796Y-65078004D01*
X140906500Y-65124458D01*
X140862300Y-65220721D01*
X140752496Y-65349087D01*
X140716000Y-65383256D01*
X140571167Y-65550754D01*
X140533727Y-65720765D01*
X140598053Y-65930249D01*
X140624560Y-65983869D01*
X140689073Y-66170747D01*
X140703935Y-66345841D01*
X140647468Y-66485492D01*
X140517368Y-66533265D01*
X140308225Y-66489537D01*
X140081028Y-66389264D01*
X139798805Y-66271000D01*
X139592378Y-66245785D01*
X139449509Y-66315128D01*
X139358660Y-66478410D01*
X139264444Y-66687879D01*
X139152663Y-66775016D01*
X139010475Y-66742612D01*
X138825854Y-66594255D01*
X138652164Y-66438512D01*
X138519018Y-66372809D01*
X138384660Y-66390462D01*
X138207334Y-66484788D01*
X138193849Y-66493090D01*
X138050716Y-66576051D01*
X137967717Y-66592996D01*
X137897892Y-66546171D01*
X137862076Y-66508965D01*
X137796854Y-66401988D01*
X137706246Y-66203825D01*
X137603070Y-65944407D01*
X137515814Y-65700313D01*
X137416200Y-65418293D01*
X137310059Y-65144704D01*
X137189068Y-64862274D01*
X137044905Y-64553731D01*
X136869245Y-64201804D01*
X136653767Y-63789220D01*
X136390146Y-63298707D01*
X136120759Y-62805338D01*
X135907480Y-62406652D01*
X135727599Y-62050567D01*
X135589549Y-61754917D01*
X135501766Y-61537538D01*
X135474231Y-61438255D01*
X135480984Y-61112410D01*
X135603744Y-60794294D01*
X135846635Y-60475260D01*
X136008682Y-60317838D01*
X136194996Y-60164256D01*
X136463320Y-59961176D01*
X136787967Y-59726409D01*
X137143250Y-59477765D01*
X137503484Y-59233057D01*
X137842982Y-59010094D01*
X138136057Y-58826689D01*
X138283396Y-58740536D01*
X138527587Y-58557143D01*
X138647279Y-58350054D01*
X138642949Y-58118161D01*
X138600053Y-58004135D01*
X138532855Y-57895650D01*
X138428281Y-57794262D01*
X138263873Y-57683798D01*
X138017171Y-57548080D01*
X137844338Y-57459860D01*
X137469868Y-57279583D01*
X137049114Y-57090182D01*
X136608972Y-56902546D01*
X136176341Y-56727566D01*
X135778117Y-56576131D01*
X135441196Y-56459131D01*
X135199942Y-56389209D01*
X134947946Y-56344640D01*
X134695551Y-56336910D01*
X134420411Y-56370271D01*
X134100180Y-56448972D01*
X133712512Y-56577267D01*
X133235064Y-56759405D01*
X133217589Y-56766355D01*
X132631692Y-57005436D01*
X132156821Y-57213037D01*
X131782582Y-57394899D01*
X131498576Y-57556765D01*
X131294410Y-57704377D01*
X131159685Y-57843477D01*
X131103432Y-57934077D01*
X131029690Y-58116873D01*
X131021266Y-58270009D01*
X131058244Y-58425830D01*
X131099010Y-58533308D01*
X131162920Y-58630682D01*
X131268531Y-58734617D01*
X131434396Y-58861776D01*
X131679073Y-59028824D01*
X131867333Y-59152463D01*
X132352296Y-59476478D01*
X132791765Y-59785436D01*
X133171181Y-60068323D01*
X133475980Y-60314129D01*
X133691603Y-60511840D01*
X133752056Y-60577872D01*
X133938386Y-60884987D01*
X134019501Y-61222341D01*
X133987394Y-61556302D01*
X133986118Y-61560741D01*
X133933060Y-61694887D01*
X133828860Y-61918307D01*
X133684288Y-62209387D01*
X133510114Y-62546513D01*
X133317108Y-62908072D01*
X133288739Y-62960250D01*
X133000425Y-63491451D01*
X132765861Y-63929791D01*
X132576524Y-64293090D01*
X132423888Y-64599170D01*
X132299429Y-64865851D01*
X132194623Y-65110956D01*
X132100944Y-65352304D01*
X132009869Y-65607718D01*
X131978518Y-65699349D01*
X131874190Y-65987929D01*
X131771036Y-66241008D01*
X131682048Y-66428450D01*
X131627650Y-66513238D01*
X131545408Y-66590587D01*
X131475671Y-66597679D01*
X131368867Y-66531943D01*
X131321818Y-66497363D01*
X131129067Y-66385636D01*
X130965046Y-66376042D01*
X130796355Y-66472888D01*
X130683000Y-66579750D01*
X130523306Y-66730045D01*
X130408076Y-66791729D01*
X130305039Y-66777390D01*
X130251681Y-66747990D01*
X130176926Y-66652537D01*
X130120479Y-66510837D01*
X130064774Y-66381726D01*
X129959918Y-66323020D01*
X129841885Y-66306307D01*
X129583372Y-66332997D01*
X129349087Y-66421210D01*
X129091670Y-66522782D01*
X128912556Y-66524684D01*
X128811246Y-66426841D01*
X128789261Y-66337520D01*
X128809006Y-66147398D01*
X128868636Y-66006379D01*
X128959614Y-65781443D01*
X128925661Y-65569003D01*
X128778000Y-65373250D01*
X128658208Y-65240522D01*
X128592063Y-65132337D01*
X128587500Y-65110530D01*
X128633621Y-65039122D01*
X128758396Y-64908387D01*
X128941444Y-64738502D01*
X129111375Y-64591949D01*
X129330971Y-64399517D01*
X129593274Y-64155949D01*
X129882493Y-63877384D01*
X130182839Y-63579961D01*
X130478524Y-63279820D01*
X130753758Y-62993100D01*
X130992752Y-62735940D01*
X131179717Y-62524479D01*
X131298865Y-62374857D01*
X131330135Y-62323974D01*
X131368139Y-62111949D01*
X131329874Y-61861405D01*
X131225616Y-61626772D01*
X131188677Y-61574719D01*
X131093892Y-61495897D01*
X130905534Y-61372416D01*
X130643703Y-61216251D01*
X130328497Y-61039374D01*
X129980018Y-60853761D01*
X129967971Y-60847515D01*
X129271895Y-60479992D01*
X128664899Y-60144992D01*
X128152608Y-59845910D01*
X127740647Y-59586142D01*
X127434641Y-59369086D01*
X127245121Y-59203357D01*
X127031753Y-58956600D01*
X126893435Y-58728873D01*
X126815249Y-58479951D01*
X126782277Y-58169610D01*
X126777991Y-57943750D01*
X126779366Y-57906267D01*
X127064894Y-57906267D01*
X127073309Y-58140619D01*
X127102621Y-58350962D01*
X127161418Y-58544614D01*
X127258289Y-58728890D01*
X127401823Y-58911108D01*
X127600608Y-59098583D01*
X127863232Y-59298632D01*
X128198284Y-59518572D01*
X128614352Y-59765719D01*
X129120025Y-60047391D01*
X129723891Y-60370902D01*
X130333750Y-60691008D01*
X130844922Y-60958102D01*
X131254399Y-61173112D01*
X131573290Y-61342297D01*
X131812706Y-61471915D01*
X131983756Y-61568225D01*
X132097551Y-61637485D01*
X132165201Y-61685954D01*
X132197815Y-61719890D01*
X132206505Y-61745552D01*
X132206510Y-61745967D01*
X132164065Y-61830721D01*
X132044615Y-61991240D01*
X131861100Y-62213626D01*
X131626459Y-62483983D01*
X131353633Y-62788415D01*
X131055562Y-63113026D01*
X130745186Y-63443920D01*
X130435444Y-63767201D01*
X130139277Y-64068972D01*
X129869625Y-64335337D01*
X129639427Y-64552401D01*
X129461623Y-64706266D01*
X129420129Y-64738250D01*
X129272027Y-64855260D01*
X129177934Y-64944398D01*
X129160500Y-64972348D01*
X129215247Y-64972624D01*
X129363351Y-64937199D01*
X129578503Y-64872901D01*
X129709668Y-64829809D01*
X129953031Y-64750425D01*
X130146317Y-64692807D01*
X130261676Y-64664989D01*
X130281497Y-64664830D01*
X130253416Y-64718981D01*
X130159733Y-64842192D01*
X130019843Y-65009163D01*
X130000703Y-65031132D01*
X129800890Y-65267141D01*
X129609729Y-65506274D01*
X129442678Y-65727535D01*
X129315192Y-65909930D01*
X129242729Y-66032463D01*
X129233953Y-66072619D01*
X129295075Y-66052911D01*
X129427331Y-65974887D01*
X129574927Y-65874497D01*
X129793575Y-65726114D01*
X130034461Y-65575211D01*
X130272445Y-65435916D01*
X130482391Y-65322360D01*
X130639160Y-65248671D01*
X130717614Y-65228979D01*
X130720360Y-65230693D01*
X130716748Y-65302030D01*
X130674231Y-65451753D01*
X130631078Y-65571369D01*
X130550819Y-65800675D01*
X130486695Y-66022227D01*
X130469054Y-66100297D01*
X130427106Y-66319344D01*
X130793178Y-65936182D01*
X130981884Y-65747304D01*
X131155123Y-65588891D01*
X131281670Y-65489128D01*
X131302125Y-65476776D01*
X131382623Y-65440050D01*
X131425240Y-65456349D01*
X131442017Y-65549762D01*
X131444997Y-65744378D01*
X131445000Y-65762599D01*
X131450705Y-65950278D01*
X131465499Y-66066852D01*
X131481661Y-66088005D01*
X131517022Y-66015832D01*
X131582551Y-65851211D01*
X131667489Y-65621919D01*
X131725586Y-65458297D01*
X131854985Y-65103681D01*
X131991876Y-64764490D01*
X132146875Y-64418752D01*
X132330598Y-64044495D01*
X132553660Y-63619746D01*
X132826677Y-63122534D01*
X133022545Y-62773802D01*
X133278077Y-62316391D01*
X133471702Y-61951777D01*
X133607106Y-61664009D01*
X133687976Y-61437136D01*
X133717997Y-61255205D01*
X133700856Y-61102264D01*
X133640240Y-60962363D01*
X133539834Y-60819548D01*
X133488595Y-60757128D01*
X133303470Y-60572710D01*
X133023635Y-60340828D01*
X132666705Y-60073281D01*
X132250296Y-59781867D01*
X131792023Y-59478386D01*
X131309500Y-59174637D01*
X130820342Y-58882418D01*
X130342166Y-58613530D01*
X130083900Y-58476584D01*
X129883104Y-58368666D01*
X129735947Y-58281779D01*
X129670354Y-58232562D01*
X129669273Y-58229500D01*
X129724418Y-58180859D01*
X129876829Y-58083534D01*
X130110600Y-57946470D01*
X130409827Y-57778616D01*
X130758604Y-57588918D01*
X131141028Y-57386325D01*
X131477498Y-57212281D01*
X131952637Y-56980334D01*
X132471357Y-56746011D01*
X133002898Y-56521824D01*
X133516496Y-56320285D01*
X133981390Y-56153904D01*
X134366818Y-56035193D01*
X134381080Y-56031365D01*
X134796070Y-55920786D01*
X135499335Y-56154087D01*
X136245608Y-56425457D01*
X137043588Y-56757834D01*
X137853021Y-57132244D01*
X138633656Y-57529712D01*
X139345240Y-57931263D01*
X139595733Y-58085119D01*
X139840717Y-58239752D01*
X139024233Y-58687446D01*
X138442275Y-59017658D01*
X137887137Y-59353962D01*
X137371962Y-59687018D01*
X136909893Y-60007482D01*
X136514072Y-60306012D01*
X136197642Y-60573266D01*
X135973745Y-60799900D01*
X135885497Y-60918634D01*
X135820686Y-61029998D01*
X135776419Y-61132195D01*
X135757502Y-61238911D01*
X135768740Y-61363831D01*
X135814936Y-61520642D01*
X135900896Y-61723028D01*
X136031424Y-61984676D01*
X136211326Y-62319271D01*
X136445405Y-62740500D01*
X136657999Y-63119000D01*
X136861746Y-63494102D01*
X137069443Y-63899397D01*
X137272488Y-64315703D01*
X137462282Y-64723842D01*
X137630225Y-65104633D01*
X137767716Y-65438899D01*
X137866157Y-65707458D01*
X137916946Y-65891131D01*
X137922000Y-65937917D01*
X137959505Y-66047346D01*
X137985500Y-66071750D01*
X138023497Y-66038967D01*
X138045106Y-65894357D01*
X138049000Y-65755763D01*
X138052030Y-65556046D01*
X138068591Y-65458878D01*
X138109890Y-65439831D01*
X138179836Y-65470553D01*
X138283532Y-65547290D01*
X138444486Y-65689936D01*
X138633041Y-65871796D01*
X138692821Y-65932331D01*
X138868876Y-66108906D01*
X138981453Y-66204775D01*
X139034557Y-66212307D01*
X139032192Y-66123875D01*
X138978364Y-65931849D01*
X138877077Y-65628600D01*
X138867277Y-65599987D01*
X138807911Y-65409248D01*
X138776585Y-65272482D01*
X138777163Y-65227169D01*
X138845386Y-65240568D01*
X138994529Y-65310465D01*
X139199915Y-65422803D01*
X139436867Y-65563525D01*
X139680708Y-65718571D01*
X139885105Y-65858346D01*
X140062553Y-65978392D01*
X140196209Y-66056539D01*
X140256808Y-66075858D01*
X140234116Y-66015805D01*
X140147282Y-65881229D01*
X140013674Y-65694999D01*
X139850659Y-65479984D01*
X139675605Y-65259052D01*
X139505879Y-65055073D01*
X139358848Y-64890915D01*
X139349487Y-64881125D01*
X139231835Y-64748995D01*
X139172883Y-64662529D01*
X139176089Y-64643000D01*
X139257405Y-64662206D01*
X139428571Y-64713645D01*
X139659406Y-64788052D01*
X139783338Y-64829473D01*
X140023433Y-64906302D01*
X140210339Y-64957870D01*
X140317770Y-64977349D01*
X140333499Y-64972348D01*
X140285852Y-64912693D01*
X140165866Y-64808536D01*
X140075650Y-64739048D01*
X139910999Y-64602910D01*
X139690913Y-64400040D01*
X139428341Y-64144337D01*
X139136232Y-63849701D01*
X138827535Y-63530033D01*
X138515198Y-63199232D01*
X138212170Y-62871199D01*
X137931401Y-62559834D01*
X137685838Y-62279036D01*
X137488432Y-62042705D01*
X137352130Y-61864742D01*
X137289883Y-61759047D01*
X137287401Y-61745994D01*
X137293193Y-61722479D01*
X137317770Y-61693243D01*
X137372421Y-61651918D01*
X137468439Y-61592137D01*
X137617115Y-61507533D01*
X137829740Y-61391738D01*
X138117606Y-61238385D01*
X138492002Y-61041105D01*
X138964222Y-60793533D01*
X139133767Y-60704777D01*
X139831606Y-60337219D01*
X140423991Y-60018362D01*
X140919473Y-59740945D01*
X141326603Y-59497705D01*
X141653931Y-59281381D01*
X141910010Y-59084712D01*
X142103390Y-58900435D01*
X142242622Y-58721288D01*
X142336256Y-58540010D01*
X142392845Y-58349339D01*
X142420939Y-58142014D01*
X142429088Y-57910772D01*
X142429105Y-57906267D01*
X142421280Y-57673962D01*
X142389977Y-57463909D01*
X142325935Y-57262500D01*
X142219892Y-57056129D01*
X142062586Y-56831188D01*
X141844756Y-56574073D01*
X141557138Y-56271175D01*
X141190472Y-55908889D01*
X140842234Y-55574989D01*
X140482532Y-55237267D01*
X140118953Y-54903953D01*
X139771820Y-54593092D01*
X139461454Y-54322727D01*
X139208177Y-54110903D01*
X139081004Y-54011068D01*
X138525292Y-53594000D01*
X130968707Y-53594000D01*
X130407396Y-54015270D01*
X130200989Y-54179809D01*
X129924131Y-54414622D01*
X129597433Y-54701455D01*
X129241504Y-55022055D01*
X128876955Y-55358168D01*
X128649828Y-55571863D01*
X128214120Y-55990045D01*
X127865006Y-56338625D01*
X127593199Y-56631283D01*
X127389411Y-56881698D01*
X127244354Y-57103549D01*
X127148742Y-57310514D01*
X127093286Y-57516275D01*
X127068699Y-57734509D01*
X127064894Y-57906267D01*
X126779366Y-57906267D01*
X126790432Y-57604774D01*
X126835878Y-57313874D01*
X126926041Y-57048959D01*
X127072635Y-56787943D01*
X127287372Y-56508738D01*
X127581966Y-56189256D01*
X127850268Y-55921722D01*
X128350273Y-55438909D01*
X128830517Y-54985137D01*
X129279372Y-54570858D01*
X129685211Y-54206521D01*
X130036407Y-53902578D01*
X130321333Y-53669478D01*
X130515611Y-53526129D01*
X130887972Y-53276500D01*
X138606027Y-53276500D01*
X138978388Y-53526129D01*
X138978388Y-53526129D01*
G37*
X138978388Y-53526129D02*
X139191770Y-53684501D01*
X139482211Y-53923416D01*
X139838131Y-54232464D01*
X140247949Y-54601239D01*
X140700084Y-55019332D01*
X141182955Y-55476335D01*
X141643902Y-55921722D01*
X142003035Y-56283600D01*
X142273878Y-56589387D01*
X142468174Y-56861237D01*
X142597663Y-57121308D01*
X142674088Y-57391755D01*
X142709189Y-57694734D01*
X142715466Y-57943750D01*
X142704497Y-58293499D01*
X142660850Y-58559464D01*
X142569053Y-58783689D01*
X142413633Y-59008217D01*
X142256785Y-59190202D01*
X142055162Y-59371314D01*
X141736354Y-59598347D01*
X141301350Y-59870701D01*
X140751141Y-60187778D01*
X140086715Y-60548979D01*
X139521023Y-60844874D01*
X139166460Y-61030457D01*
X138843048Y-61204782D01*
X138570855Y-61356630D01*
X138369950Y-61474783D01*
X138260404Y-61548023D01*
X138255375Y-61552330D01*
X138159190Y-61675835D01*
X138117756Y-61847073D01*
X138112500Y-61983772D01*
X138121775Y-62154105D01*
X138161902Y-62293568D01*
X138251336Y-62442365D01*
X138408529Y-62640699D01*
X138420748Y-62655328D01*
X138720088Y-62994420D01*
X139086365Y-63380565D01*
X139487190Y-63781670D01*
X139890179Y-64165643D01*
X140262942Y-64500393D01*
X140398848Y-64615406D01*
X140610227Y-64798421D01*
X140778518Y-64959615D01*
X140882796Y-65078004D01*
X140906500Y-65124458D01*
X140862300Y-65220721D01*
X140752496Y-65349087D01*
X140716000Y-65383256D01*
X140571167Y-65550754D01*
X140533727Y-65720765D01*
X140598053Y-65930249D01*
X140624560Y-65983869D01*
X140689073Y-66170747D01*
X140703935Y-66345841D01*
X140647468Y-66485492D01*
X140517368Y-66533265D01*
X140308225Y-66489537D01*
X140081028Y-66389264D01*
X139798805Y-66271000D01*
X139592378Y-66245785D01*
X139449509Y-66315128D01*
X139358660Y-66478410D01*
X139264444Y-66687879D01*
X139152663Y-66775016D01*
X139010475Y-66742612D01*
X138825854Y-66594255D01*
X138652164Y-66438512D01*
X138519018Y-66372809D01*
X138384660Y-66390462D01*
X138207334Y-66484788D01*
X138193849Y-66493090D01*
X138050716Y-66576051D01*
X137967717Y-66592996D01*
X137897892Y-66546171D01*
X137862076Y-66508965D01*
X137796854Y-66401988D01*
X137706246Y-66203825D01*
X137603070Y-65944407D01*
X137515814Y-65700313D01*
X137416200Y-65418293D01*
X137310059Y-65144704D01*
X137189068Y-64862274D01*
X137044905Y-64553731D01*
X136869245Y-64201804D01*
X136653767Y-63789220D01*
X136390146Y-63298707D01*
X136120759Y-62805338D01*
X135907480Y-62406652D01*
X135727599Y-62050567D01*
X135589549Y-61754917D01*
X135501766Y-61537538D01*
X135474231Y-61438255D01*
X135480984Y-61112410D01*
X135603744Y-60794294D01*
X135846635Y-60475260D01*
X136008682Y-60317838D01*
X136194996Y-60164256D01*
X136463320Y-59961176D01*
X136787967Y-59726409D01*
X137143250Y-59477765D01*
X137503484Y-59233057D01*
X137842982Y-59010094D01*
X138136057Y-58826689D01*
X138283396Y-58740536D01*
X138527587Y-58557143D01*
X138647279Y-58350054D01*
X138642949Y-58118161D01*
X138600053Y-58004135D01*
X138532855Y-57895650D01*
X138428281Y-57794262D01*
X138263873Y-57683798D01*
X138017171Y-57548080D01*
X137844338Y-57459860D01*
X137469868Y-57279583D01*
X137049114Y-57090182D01*
X136608972Y-56902546D01*
X136176341Y-56727566D01*
X135778117Y-56576131D01*
X135441196Y-56459131D01*
X135199942Y-56389209D01*
X134947946Y-56344640D01*
X134695551Y-56336910D01*
X134420411Y-56370271D01*
X134100180Y-56448972D01*
X133712512Y-56577267D01*
X133235064Y-56759405D01*
X133217589Y-56766355D01*
X132631692Y-57005436D01*
X132156821Y-57213037D01*
X131782582Y-57394899D01*
X131498576Y-57556765D01*
X131294410Y-57704377D01*
X131159685Y-57843477D01*
X131103432Y-57934077D01*
X131029690Y-58116873D01*
X131021266Y-58270009D01*
X131058244Y-58425830D01*
X131099010Y-58533308D01*
X131162920Y-58630682D01*
X131268531Y-58734617D01*
X131434396Y-58861776D01*
X131679073Y-59028824D01*
X131867333Y-59152463D01*
X132352296Y-59476478D01*
X132791765Y-59785436D01*
X133171181Y-60068323D01*
X133475980Y-60314129D01*
X133691603Y-60511840D01*
X133752056Y-60577872D01*
X133938386Y-60884987D01*
X134019501Y-61222341D01*
X133987394Y-61556302D01*
X133986118Y-61560741D01*
X133933060Y-61694887D01*
X133828860Y-61918307D01*
X133684288Y-62209387D01*
X133510114Y-62546513D01*
X133317108Y-62908072D01*
X133288739Y-62960250D01*
X133000425Y-63491451D01*
X132765861Y-63929791D01*
X132576524Y-64293090D01*
X132423888Y-64599170D01*
X132299429Y-64865851D01*
X132194623Y-65110956D01*
X132100944Y-65352304D01*
X132009869Y-65607718D01*
X131978518Y-65699349D01*
X131874190Y-65987929D01*
X131771036Y-66241008D01*
X131682048Y-66428450D01*
X131627650Y-66513238D01*
X131545408Y-66590587D01*
X131475671Y-66597679D01*
X131368867Y-66531943D01*
X131321818Y-66497363D01*
X131129067Y-66385636D01*
X130965046Y-66376042D01*
X130796355Y-66472888D01*
X130683000Y-66579750D01*
X130523306Y-66730045D01*
X130408076Y-66791729D01*
X130305039Y-66777390D01*
X130251681Y-66747990D01*
X130176926Y-66652537D01*
X130120479Y-66510837D01*
X130064774Y-66381726D01*
X129959918Y-66323020D01*
X129841885Y-66306307D01*
X129583372Y-66332997D01*
X129349087Y-66421210D01*
X129091670Y-66522782D01*
X128912556Y-66524684D01*
X128811246Y-66426841D01*
X128789261Y-66337520D01*
X128809006Y-66147398D01*
X128868636Y-66006379D01*
X128959614Y-65781443D01*
X128925661Y-65569003D01*
X128778000Y-65373250D01*
X128658208Y-65240522D01*
X128592063Y-65132337D01*
X128587500Y-65110530D01*
X128633621Y-65039122D01*
X128758396Y-64908387D01*
X128941444Y-64738502D01*
X129111375Y-64591949D01*
X129330971Y-64399517D01*
X129593274Y-64155949D01*
X129882493Y-63877384D01*
X130182839Y-63579961D01*
X130478524Y-63279820D01*
X130753758Y-62993100D01*
X130992752Y-62735940D01*
X131179717Y-62524479D01*
X131298865Y-62374857D01*
X131330135Y-62323974D01*
X131368139Y-62111949D01*
X131329874Y-61861405D01*
X131225616Y-61626772D01*
X131188677Y-61574719D01*
X131093892Y-61495897D01*
X130905534Y-61372416D01*
X130643703Y-61216251D01*
X130328497Y-61039374D01*
X129980018Y-60853761D01*
X129967971Y-60847515D01*
X129271895Y-60479992D01*
X128664899Y-60144992D01*
X128152608Y-59845910D01*
X127740647Y-59586142D01*
X127434641Y-59369086D01*
X127245121Y-59203357D01*
X127031753Y-58956600D01*
X126893435Y-58728873D01*
X126815249Y-58479951D01*
X126782277Y-58169610D01*
X126777991Y-57943750D01*
X126779366Y-57906267D01*
X127064894Y-57906267D01*
X127073309Y-58140619D01*
X127102621Y-58350962D01*
X127161418Y-58544614D01*
X127258289Y-58728890D01*
X127401823Y-58911108D01*
X127600608Y-59098583D01*
X127863232Y-59298632D01*
X128198284Y-59518572D01*
X128614352Y-59765719D01*
X129120025Y-60047391D01*
X129723891Y-60370902D01*
X130333750Y-60691008D01*
X130844922Y-60958102D01*
X131254399Y-61173112D01*
X131573290Y-61342297D01*
X131812706Y-61471915D01*
X131983756Y-61568225D01*
X132097551Y-61637485D01*
X132165201Y-61685954D01*
X132197815Y-61719890D01*
X132206505Y-61745552D01*
X132206510Y-61745967D01*
X132164065Y-61830721D01*
X132044615Y-61991240D01*
X131861100Y-62213626D01*
X131626459Y-62483983D01*
X131353633Y-62788415D01*
X131055562Y-63113026D01*
X130745186Y-63443920D01*
X130435444Y-63767201D01*
X130139277Y-64068972D01*
X129869625Y-64335337D01*
X129639427Y-64552401D01*
X129461623Y-64706266D01*
X129420129Y-64738250D01*
X129272027Y-64855260D01*
X129177934Y-64944398D01*
X129160500Y-64972348D01*
X129215247Y-64972624D01*
X129363351Y-64937199D01*
X129578503Y-64872901D01*
X129709668Y-64829809D01*
X129953031Y-64750425D01*
X130146317Y-64692807D01*
X130261676Y-64664989D01*
X130281497Y-64664830D01*
X130253416Y-64718981D01*
X130159733Y-64842192D01*
X130019843Y-65009163D01*
X130000703Y-65031132D01*
X129800890Y-65267141D01*
X129609729Y-65506274D01*
X129442678Y-65727535D01*
X129315192Y-65909930D01*
X129242729Y-66032463D01*
X129233953Y-66072619D01*
X129295075Y-66052911D01*
X129427331Y-65974887D01*
X129574927Y-65874497D01*
X129793575Y-65726114D01*
X130034461Y-65575211D01*
X130272445Y-65435916D01*
X130482391Y-65322360D01*
X130639160Y-65248671D01*
X130717614Y-65228979D01*
X130720360Y-65230693D01*
X130716748Y-65302030D01*
X130674231Y-65451753D01*
X130631078Y-65571369D01*
X130550819Y-65800675D01*
X130486695Y-66022227D01*
X130469054Y-66100297D01*
X130427106Y-66319344D01*
X130793178Y-65936182D01*
X130981884Y-65747304D01*
X131155123Y-65588891D01*
X131281670Y-65489128D01*
X131302125Y-65476776D01*
X131382623Y-65440050D01*
X131425240Y-65456349D01*
X131442017Y-65549762D01*
X131444997Y-65744378D01*
X131445000Y-65762599D01*
X131450705Y-65950278D01*
X131465499Y-66066852D01*
X131481661Y-66088005D01*
X131517022Y-66015832D01*
X131582551Y-65851211D01*
X131667489Y-65621919D01*
X131725586Y-65458297D01*
X131854985Y-65103681D01*
X131991876Y-64764490D01*
X132146875Y-64418752D01*
X132330598Y-64044495D01*
X132553660Y-63619746D01*
X132826677Y-63122534D01*
X133022545Y-62773802D01*
X133278077Y-62316391D01*
X133471702Y-61951777D01*
X133607106Y-61664009D01*
X133687976Y-61437136D01*
X133717997Y-61255205D01*
X133700856Y-61102264D01*
X133640240Y-60962363D01*
X133539834Y-60819548D01*
X133488595Y-60757128D01*
X133303470Y-60572710D01*
X133023635Y-60340828D01*
X132666705Y-60073281D01*
X132250296Y-59781867D01*
X131792023Y-59478386D01*
X131309500Y-59174637D01*
X130820342Y-58882418D01*
X130342166Y-58613530D01*
X130083900Y-58476584D01*
X129883104Y-58368666D01*
X129735947Y-58281779D01*
X129670354Y-58232562D01*
X129669273Y-58229500D01*
X129724418Y-58180859D01*
X129876829Y-58083534D01*
X130110600Y-57946470D01*
X130409827Y-57778616D01*
X130758604Y-57588918D01*
X131141028Y-57386325D01*
X131477498Y-57212281D01*
X131952637Y-56980334D01*
X132471357Y-56746011D01*
X133002898Y-56521824D01*
X133516496Y-56320285D01*
X133981390Y-56153904D01*
X134366818Y-56035193D01*
X134381080Y-56031365D01*
X134796070Y-55920786D01*
X135499335Y-56154087D01*
X136245608Y-56425457D01*
X137043588Y-56757834D01*
X137853021Y-57132244D01*
X138633656Y-57529712D01*
X139345240Y-57931263D01*
X139595733Y-58085119D01*
X139840717Y-58239752D01*
X139024233Y-58687446D01*
X138442275Y-59017658D01*
X137887137Y-59353962D01*
X137371962Y-59687018D01*
X136909893Y-60007482D01*
X136514072Y-60306012D01*
X136197642Y-60573266D01*
X135973745Y-60799900D01*
X135885497Y-60918634D01*
X135820686Y-61029998D01*
X135776419Y-61132195D01*
X135757502Y-61238911D01*
X135768740Y-61363831D01*
X135814936Y-61520642D01*
X135900896Y-61723028D01*
X136031424Y-61984676D01*
X136211326Y-62319271D01*
X136445405Y-62740500D01*
X136657999Y-63119000D01*
X136861746Y-63494102D01*
X137069443Y-63899397D01*
X137272488Y-64315703D01*
X137462282Y-64723842D01*
X137630225Y-65104633D01*
X137767716Y-65438899D01*
X137866157Y-65707458D01*
X137916946Y-65891131D01*
X137922000Y-65937917D01*
X137959505Y-66047346D01*
X137985500Y-66071750D01*
X138023497Y-66038967D01*
X138045106Y-65894357D01*
X138049000Y-65755763D01*
X138052030Y-65556046D01*
X138068591Y-65458878D01*
X138109890Y-65439831D01*
X138179836Y-65470553D01*
X138283532Y-65547290D01*
X138444486Y-65689936D01*
X138633041Y-65871796D01*
X138692821Y-65932331D01*
X138868876Y-66108906D01*
X138981453Y-66204775D01*
X139034557Y-66212307D01*
X139032192Y-66123875D01*
X138978364Y-65931849D01*
X138877077Y-65628600D01*
X138867277Y-65599987D01*
X138807911Y-65409248D01*
X138776585Y-65272482D01*
X138777163Y-65227169D01*
X138845386Y-65240568D01*
X138994529Y-65310465D01*
X139199915Y-65422803D01*
X139436867Y-65563525D01*
X139680708Y-65718571D01*
X139885105Y-65858346D01*
X140062553Y-65978392D01*
X140196209Y-66056539D01*
X140256808Y-66075858D01*
X140234116Y-66015805D01*
X140147282Y-65881229D01*
X140013674Y-65694999D01*
X139850659Y-65479984D01*
X139675605Y-65259052D01*
X139505879Y-65055073D01*
X139358848Y-64890915D01*
X139349487Y-64881125D01*
X139231835Y-64748995D01*
X139172883Y-64662529D01*
X139176089Y-64643000D01*
X139257405Y-64662206D01*
X139428571Y-64713645D01*
X139659406Y-64788052D01*
X139783338Y-64829473D01*
X140023433Y-64906302D01*
X140210339Y-64957870D01*
X140317770Y-64977349D01*
X140333499Y-64972348D01*
X140285852Y-64912693D01*
X140165866Y-64808536D01*
X140075650Y-64739048D01*
X139910999Y-64602910D01*
X139690913Y-64400040D01*
X139428341Y-64144337D01*
X139136232Y-63849701D01*
X138827535Y-63530033D01*
X138515198Y-63199232D01*
X138212170Y-62871199D01*
X137931401Y-62559834D01*
X137685838Y-62279036D01*
X137488432Y-62042705D01*
X137352130Y-61864742D01*
X137289883Y-61759047D01*
X137287401Y-61745994D01*
X137293193Y-61722479D01*
X137317770Y-61693243D01*
X137372421Y-61651918D01*
X137468439Y-61592137D01*
X137617115Y-61507533D01*
X137829740Y-61391738D01*
X138117606Y-61238385D01*
X138492002Y-61041105D01*
X138964222Y-60793533D01*
X139133767Y-60704777D01*
X139831606Y-60337219D01*
X140423991Y-60018362D01*
X140919473Y-59740945D01*
X141326603Y-59497705D01*
X141653931Y-59281381D01*
X141910010Y-59084712D01*
X142103390Y-58900435D01*
X142242622Y-58721288D01*
X142336256Y-58540010D01*
X142392845Y-58349339D01*
X142420939Y-58142014D01*
X142429088Y-57910772D01*
X142429105Y-57906267D01*
X142421280Y-57673962D01*
X142389977Y-57463909D01*
X142325935Y-57262500D01*
X142219892Y-57056129D01*
X142062586Y-56831188D01*
X141844756Y-56574073D01*
X141557138Y-56271175D01*
X141190472Y-55908889D01*
X140842234Y-55574989D01*
X140482532Y-55237267D01*
X140118953Y-54903953D01*
X139771820Y-54593092D01*
X139461454Y-54322727D01*
X139208177Y-54110903D01*
X139081004Y-54011068D01*
X138525292Y-53594000D01*
X130968707Y-53594000D01*
X130407396Y-54015270D01*
X130200989Y-54179809D01*
X129924131Y-54414622D01*
X129597433Y-54701455D01*
X129241504Y-55022055D01*
X128876955Y-55358168D01*
X128649828Y-55571863D01*
X128214120Y-55990045D01*
X127865006Y-56338625D01*
X127593199Y-56631283D01*
X127389411Y-56881698D01*
X127244354Y-57103549D01*
X127148742Y-57310514D01*
X127093286Y-57516275D01*
X127068699Y-57734509D01*
X127064894Y-57906267D01*
X126779366Y-57906267D01*
X126790432Y-57604774D01*
X126835878Y-57313874D01*
X126926041Y-57048959D01*
X127072635Y-56787943D01*
X127287372Y-56508738D01*
X127581966Y-56189256D01*
X127850268Y-55921722D01*
X128350273Y-55438909D01*
X128830517Y-54985137D01*
X129279372Y-54570858D01*
X129685211Y-54206521D01*
X130036407Y-53902578D01*
X130321333Y-53669478D01*
X130515611Y-53526129D01*
X130887972Y-53276500D01*
X138606027Y-53276500D01*
X138978388Y-53526129D01*
G36*
X140823802Y-56742111D02*
G01*
X140830842Y-56746404D01*
X140932221Y-56858542D01*
X140960187Y-56991700D01*
X140911709Y-57098721D01*
X140855400Y-57128358D01*
X140762187Y-57195676D01*
X140762621Y-57282815D01*
X140754340Y-57435762D01*
X140666596Y-57543335D01*
X140538313Y-57588253D01*
X140408412Y-57553237D01*
X140337234Y-57471674D01*
X140275896Y-57307195D01*
X140311322Y-57224238D01*
X140366750Y-57213500D01*
X140450936Y-57264329D01*
X140462000Y-57308750D01*
X140496288Y-57393253D01*
X140525500Y-57404000D01*
X140582454Y-57352839D01*
X140589000Y-57312497D01*
X140550299Y-57204385D01*
X140525500Y-57181750D01*
X140465164Y-57080692D01*
X140474720Y-57026747D01*
X140652500Y-57026747D01*
X140672906Y-57084443D01*
X140719732Y-57034110D01*
X140740228Y-56987951D01*
X140744666Y-56922402D01*
X140715272Y-56928199D01*
X140654756Y-57009500D01*
X140652500Y-57026747D01*
X140474720Y-57026747D01*
X140490522Y-56937557D01*
X140592717Y-56797386D01*
X140715270Y-56719427D01*
X140823802Y-56742111D01*
X140823802Y-56742111D01*
G37*
X140823802Y-56742111D02*
X140830842Y-56746404D01*
X140932221Y-56858542D01*
X140960187Y-56991700D01*
X140911709Y-57098721D01*
X140855400Y-57128358D01*
X140762187Y-57195676D01*
X140762621Y-57282815D01*
X140754340Y-57435762D01*
X140666596Y-57543335D01*
X140538313Y-57588253D01*
X140408412Y-57553237D01*
X140337234Y-57471674D01*
X140275896Y-57307195D01*
X140311322Y-57224238D01*
X140366750Y-57213500D01*
X140450936Y-57264329D01*
X140462000Y-57308750D01*
X140496288Y-57393253D01*
X140525500Y-57404000D01*
X140582454Y-57352839D01*
X140589000Y-57312497D01*
X140550299Y-57204385D01*
X140525500Y-57181750D01*
X140465164Y-57080692D01*
X140474720Y-57026747D01*
X140652500Y-57026747D01*
X140672906Y-57084443D01*
X140719732Y-57034110D01*
X140740228Y-56987951D01*
X140744666Y-56922402D01*
X140715272Y-56928199D01*
X140654756Y-57009500D01*
X140652500Y-57026747D01*
X140474720Y-57026747D01*
X140490522Y-56937557D01*
X140592717Y-56797386D01*
X140715270Y-56719427D01*
X140823802Y-56742111D01*
G36*
X140471871Y-56554638D02*
G01*
X140510863Y-56635983D01*
X140478463Y-56696724D01*
X140417252Y-56772079D01*
X140324592Y-56924926D01*
X140247008Y-57070625D01*
X140143594Y-57269747D01*
X140077763Y-57371054D01*
X140032363Y-57391328D01*
X139990239Y-57347353D01*
X139980258Y-57331615D01*
X139983059Y-57239727D01*
X140035684Y-57080311D01*
X140119837Y-56890801D01*
X140217220Y-56708631D01*
X140309538Y-56571237D01*
X140378494Y-56516053D01*
X140378877Y-56516044D01*
X140471871Y-56554638D01*
X140471871Y-56554638D01*
G37*
X140471871Y-56554638D02*
X140510863Y-56635983D01*
X140478463Y-56696724D01*
X140417252Y-56772079D01*
X140324592Y-56924926D01*
X140247008Y-57070625D01*
X140143594Y-57269747D01*
X140077763Y-57371054D01*
X140032363Y-57391328D01*
X139990239Y-57347353D01*
X139980258Y-57331615D01*
X139983059Y-57239727D01*
X140035684Y-57080311D01*
X140119837Y-56890801D01*
X140217220Y-56708631D01*
X140309538Y-56571237D01*
X140378494Y-56516053D01*
X140378877Y-56516044D01*
X140471871Y-56554638D01*
G36*
X139637429Y-56114232D02*
G01*
X139699581Y-56221119D01*
X139700000Y-56231484D01*
X139645489Y-56369190D01*
X139512503Y-56494943D01*
X139346858Y-56570709D01*
X139281958Y-56578500D01*
X139166566Y-56610072D01*
X139148854Y-56675890D01*
X139225963Y-56732606D01*
X139292858Y-56743723D01*
X139496756Y-56760525D01*
X139610947Y-56793403D01*
X139672722Y-56857846D01*
X139697674Y-56911875D01*
X139729243Y-56964309D01*
X139744098Y-56911562D01*
X139744411Y-56743797D01*
X139743253Y-56705500D01*
X139740230Y-56505345D01*
X139758431Y-56398923D01*
X139813259Y-56353102D01*
X139915359Y-56335290D01*
X140062513Y-56343613D01*
X140145701Y-56389944D01*
X140172470Y-56516187D01*
X140132847Y-56640332D01*
X140047219Y-56704563D01*
X140034437Y-56705500D01*
X139966584Y-56661731D01*
X139972399Y-56578500D01*
X139973073Y-56477390D01*
X139940652Y-56451500D01*
X139904791Y-56504677D01*
X139918342Y-56626125D01*
X139963628Y-56853191D01*
X139959623Y-56995700D01*
X139902221Y-57087784D01*
X139858750Y-57121283D01*
X139709153Y-57171549D01*
X139620625Y-57143174D01*
X139528263Y-57051490D01*
X139509500Y-56991927D01*
X139449726Y-56922727D01*
X139280623Y-56884764D01*
X139271375Y-56883958D01*
X139113023Y-56859514D01*
X139040830Y-56798273D01*
X139013964Y-56664977D01*
X139013613Y-56661381D01*
X139042199Y-56434093D01*
X139062409Y-56395775D01*
X139255500Y-56395775D01*
X139292846Y-56449260D01*
X139379905Y-56418419D01*
X139447273Y-56354715D01*
X139496230Y-56258803D01*
X139488333Y-56218666D01*
X139417642Y-56221262D01*
X139324059Y-56285179D01*
X139260713Y-56370001D01*
X139255500Y-56395775D01*
X139062409Y-56395775D01*
X139152148Y-56225635D01*
X139315763Y-56085100D01*
X139346284Y-56071736D01*
X139503494Y-56057135D01*
X139637429Y-56114232D01*
X139637429Y-56114232D01*
G37*
X139637429Y-56114232D02*
X139699581Y-56221119D01*
X139700000Y-56231484D01*
X139645489Y-56369190D01*
X139512503Y-56494943D01*
X139346858Y-56570709D01*
X139281958Y-56578500D01*
X139166566Y-56610072D01*
X139148854Y-56675890D01*
X139225963Y-56732606D01*
X139292858Y-56743723D01*
X139496756Y-56760525D01*
X139610947Y-56793403D01*
X139672722Y-56857846D01*
X139697674Y-56911875D01*
X139729243Y-56964309D01*
X139744098Y-56911562D01*
X139744411Y-56743797D01*
X139743253Y-56705500D01*
X139740230Y-56505345D01*
X139758431Y-56398923D01*
X139813259Y-56353102D01*
X139915359Y-56335290D01*
X140062513Y-56343613D01*
X140145701Y-56389944D01*
X140172470Y-56516187D01*
X140132847Y-56640332D01*
X140047219Y-56704563D01*
X140034437Y-56705500D01*
X139966584Y-56661731D01*
X139972399Y-56578500D01*
X139973073Y-56477390D01*
X139940652Y-56451500D01*
X139904791Y-56504677D01*
X139918342Y-56626125D01*
X139963628Y-56853191D01*
X139959623Y-56995700D01*
X139902221Y-57087784D01*
X139858750Y-57121283D01*
X139709153Y-57171549D01*
X139620625Y-57143174D01*
X139528263Y-57051490D01*
X139509500Y-56991927D01*
X139449726Y-56922727D01*
X139280623Y-56884764D01*
X139271375Y-56883958D01*
X139113023Y-56859514D01*
X139040830Y-56798273D01*
X139013964Y-56664977D01*
X139013613Y-56661381D01*
X139042199Y-56434093D01*
X139062409Y-56395775D01*
X139255500Y-56395775D01*
X139292846Y-56449260D01*
X139379905Y-56418419D01*
X139447273Y-56354715D01*
X139496230Y-56258803D01*
X139488333Y-56218666D01*
X139417642Y-56221262D01*
X139324059Y-56285179D01*
X139260713Y-56370001D01*
X139255500Y-56395775D01*
X139062409Y-56395775D01*
X139152148Y-56225635D01*
X139315763Y-56085100D01*
X139346284Y-56071736D01*
X139503494Y-56057135D01*
X139637429Y-56114232D01*
G36*
X129853781Y-55715606D02*
G01*
X129857500Y-55732124D01*
X129819398Y-55806937D01*
X129751849Y-55891491D01*
X129682947Y-55997850D01*
X129702167Y-56109182D01*
X129728358Y-56161747D01*
X129803079Y-56265495D01*
X129884123Y-56266224D01*
X129926370Y-56242909D01*
X130047365Y-56201597D01*
X130097603Y-56255942D01*
X130064095Y-56388502D01*
X130052196Y-56411908D01*
X130004554Y-56570478D01*
X130041517Y-56693387D01*
X130106319Y-56862197D01*
X130075856Y-56947951D01*
X130021807Y-56959500D01*
X129953029Y-56907678D01*
X129842403Y-56768564D01*
X129708296Y-56566680D01*
X129631696Y-56438662D01*
X129491532Y-56180455D01*
X129411041Y-55997651D01*
X129395475Y-55902891D01*
X129405022Y-55893242D01*
X129510073Y-55829942D01*
X129568348Y-55779080D01*
X129673654Y-55713052D01*
X129786247Y-55689060D01*
X129853781Y-55715606D01*
X129853781Y-55715606D01*
G37*
X129853781Y-55715606D02*
X129857500Y-55732124D01*
X129819398Y-55806937D01*
X129751849Y-55891491D01*
X129682947Y-55997850D01*
X129702167Y-56109182D01*
X129728358Y-56161747D01*
X129803079Y-56265495D01*
X129884123Y-56266224D01*
X129926370Y-56242909D01*
X130047365Y-56201597D01*
X130097603Y-56255942D01*
X130064095Y-56388502D01*
X130052196Y-56411908D01*
X130004554Y-56570478D01*
X130041517Y-56693387D01*
X130106319Y-56862197D01*
X130075856Y-56947951D01*
X130021807Y-56959500D01*
X129953029Y-56907678D01*
X129842403Y-56768564D01*
X129708296Y-56566680D01*
X129631696Y-56438662D01*
X129491532Y-56180455D01*
X129411041Y-55997651D01*
X129395475Y-55902891D01*
X129405022Y-55893242D01*
X129510073Y-55829942D01*
X129568348Y-55779080D01*
X129673654Y-55713052D01*
X129786247Y-55689060D01*
X129853781Y-55715606D01*
G36*
X130539025Y-55638709D02*
G01*
X130550550Y-55696008D01*
X130524716Y-55826655D01*
X130486725Y-55968195D01*
X130450665Y-56145427D01*
X130474158Y-56272691D01*
X130553486Y-56398181D01*
X130639709Y-56557046D01*
X130637655Y-56666625D01*
X130552795Y-56705500D01*
X130492574Y-56654427D01*
X130396266Y-56521817D01*
X130305440Y-56372125D01*
X130183721Y-56145859D01*
X130127812Y-56006585D01*
X130133981Y-55935028D01*
X130198493Y-55911915D01*
X130216185Y-55911411D01*
X130316013Y-55858124D01*
X130372179Y-55768536D01*
X130437015Y-55658360D01*
X130490453Y-55626000D01*
X130539025Y-55638709D01*
X130539025Y-55638709D01*
G37*
X130539025Y-55638709D02*
X130550550Y-55696008D01*
X130524716Y-55826655D01*
X130486725Y-55968195D01*
X130450665Y-56145427D01*
X130474158Y-56272691D01*
X130553486Y-56398181D01*
X130639709Y-56557046D01*
X130637655Y-56666625D01*
X130552795Y-56705500D01*
X130492574Y-56654427D01*
X130396266Y-56521817D01*
X130305440Y-56372125D01*
X130183721Y-56145859D01*
X130127812Y-56006585D01*
X130133981Y-55935028D01*
X130198493Y-55911915D01*
X130216185Y-55911411D01*
X130316013Y-55858124D01*
X130372179Y-55768536D01*
X130437015Y-55658360D01*
X130490453Y-55626000D01*
X130539025Y-55638709D01*
G36*
X138949554Y-55282770D02*
G01*
X138934510Y-55398117D01*
X138870154Y-55520875D01*
X138774527Y-55693562D01*
X138756005Y-55777984D01*
X138813365Y-55785845D01*
X138843558Y-55775652D01*
X138968978Y-55781018D01*
X139033444Y-55816661D01*
X139094796Y-55946852D01*
X139062531Y-56149123D01*
X138938668Y-56411989D01*
X138924663Y-56435625D01*
X138808725Y-56595142D01*
X138718948Y-56637574D01*
X138654948Y-56582866D01*
X138665449Y-56499256D01*
X138734537Y-56357218D01*
X138778200Y-56288254D01*
X138901129Y-56086221D01*
X138937097Y-55971258D01*
X138904015Y-55943500D01*
X138792110Y-55989328D01*
X138648879Y-56102302D01*
X138516009Y-56245651D01*
X138453100Y-56341226D01*
X138364605Y-56466029D01*
X138293096Y-56466994D01*
X138292764Y-56466664D01*
X138295959Y-56390734D01*
X138347118Y-56233655D01*
X138432247Y-56025141D01*
X138537350Y-55794904D01*
X138648434Y-55572657D01*
X138751503Y-55388111D01*
X138832564Y-55270981D01*
X138868165Y-55245000D01*
X138949554Y-55282770D01*
X138949554Y-55282770D01*
G37*
X138949554Y-55282770D02*
X138934510Y-55398117D01*
X138870154Y-55520875D01*
X138774527Y-55693562D01*
X138756005Y-55777984D01*
X138813365Y-55785845D01*
X138843558Y-55775652D01*
X138968978Y-55781018D01*
X139033444Y-55816661D01*
X139094796Y-55946852D01*
X139062531Y-56149123D01*
X138938668Y-56411989D01*
X138924663Y-56435625D01*
X138808725Y-56595142D01*
X138718948Y-56637574D01*
X138654948Y-56582866D01*
X138665449Y-56499256D01*
X138734537Y-56357218D01*
X138778200Y-56288254D01*
X138901129Y-56086221D01*
X138937097Y-55971258D01*
X138904015Y-55943500D01*
X138792110Y-55989328D01*
X138648879Y-56102302D01*
X138516009Y-56245651D01*
X138453100Y-56341226D01*
X138364605Y-56466029D01*
X138293096Y-56466994D01*
X138292764Y-56466664D01*
X138295959Y-56390734D01*
X138347118Y-56233655D01*
X138432247Y-56025141D01*
X138537350Y-55794904D01*
X138648434Y-55572657D01*
X138751503Y-55388111D01*
X138832564Y-55270981D01*
X138868165Y-55245000D01*
X138949554Y-55282770D01*
G36*
X140611102Y-56248237D02*
G01*
X140627129Y-56367354D01*
X140614162Y-56414019D01*
X140541144Y-56506521D01*
X140456461Y-56486377D01*
X140433791Y-56457230D01*
X140422831Y-56356779D01*
X140463379Y-56247257D01*
X140528546Y-56197500D01*
X140611102Y-56248237D01*
X140611102Y-56248237D01*
G37*
X140611102Y-56248237D02*
X140627129Y-56367354D01*
X140614162Y-56414019D01*
X140541144Y-56506521D01*
X140456461Y-56486377D01*
X140433791Y-56457230D01*
X140422831Y-56356779D01*
X140463379Y-56247257D01*
X140528546Y-56197500D01*
X140611102Y-56248237D01*
G36*
X131048194Y-55474599D02*
G01*
X131186191Y-55594392D01*
X131296901Y-55769269D01*
X131361389Y-55963493D01*
X131360717Y-56141327D01*
X131317422Y-56229946D01*
X131191053Y-56315841D01*
X131044556Y-56283704D01*
X130904946Y-56171218D01*
X130762059Y-55976375D01*
X130699124Y-55776822D01*
X130709105Y-55674757D01*
X130880329Y-55674757D01*
X130883891Y-55793327D01*
X130939673Y-55940152D01*
X130972350Y-55992870D01*
X131080852Y-56109347D01*
X131159468Y-56121213D01*
X131190962Y-56026241D01*
X131191000Y-56021129D01*
X131157042Y-55889416D01*
X131076923Y-55747900D01*
X130983273Y-55646630D01*
X130933399Y-55626000D01*
X130880329Y-55674757D01*
X130709105Y-55674757D01*
X130716264Y-55601558D01*
X130813603Y-55479585D01*
X130901846Y-55445627D01*
X131048194Y-55474599D01*
X131048194Y-55474599D01*
G37*
X131048194Y-55474599D02*
X131186191Y-55594392D01*
X131296901Y-55769269D01*
X131361389Y-55963493D01*
X131360717Y-56141327D01*
X131317422Y-56229946D01*
X131191053Y-56315841D01*
X131044556Y-56283704D01*
X130904946Y-56171218D01*
X130762059Y-55976375D01*
X130699124Y-55776822D01*
X130709105Y-55674757D01*
X130880329Y-55674757D01*
X130883891Y-55793327D01*
X130939673Y-55940152D01*
X130972350Y-55992870D01*
X131080852Y-56109347D01*
X131159468Y-56121213D01*
X131190962Y-56026241D01*
X131191000Y-56021129D01*
X131157042Y-55889416D01*
X131076923Y-55747900D01*
X130983273Y-55646630D01*
X130933399Y-55626000D01*
X130880329Y-55674757D01*
X130709105Y-55674757D01*
X130716264Y-55601558D01*
X130813603Y-55479585D01*
X130901846Y-55445627D01*
X131048194Y-55474599D01*
G36*
X137562563Y-55037411D02*
G01*
X137573934Y-55144072D01*
X137530591Y-55227920D01*
X137485829Y-55287459D01*
X137493991Y-55306181D01*
X137575688Y-55281718D01*
X137751532Y-55211699D01*
X137782913Y-55198910D01*
X137863035Y-55222632D01*
X137901444Y-55300252D01*
X137980866Y-55408871D01*
X138106115Y-55436895D01*
X138224315Y-55383648D01*
X138272359Y-55305004D01*
X138337758Y-55209538D01*
X138410076Y-55217917D01*
X138448186Y-55316423D01*
X138446623Y-55363124D01*
X138459032Y-55470400D01*
X138494248Y-55499000D01*
X138549239Y-55550732D01*
X138557000Y-55598529D01*
X138518437Y-55668629D01*
X138437835Y-55660236D01*
X138352222Y-55661787D01*
X138272841Y-55742141D01*
X138183835Y-55909265D01*
X138105465Y-56088026D01*
X138056833Y-56222132D01*
X138049000Y-56260307D01*
X138011436Y-56320527D01*
X137935888Y-56303413D01*
X137883825Y-56235406D01*
X137889910Y-56127797D01*
X137945774Y-55963167D01*
X137977632Y-55895420D01*
X138053837Y-55717692D01*
X138058210Y-55610588D01*
X138032864Y-55571764D01*
X137952049Y-55510755D01*
X137886619Y-55530266D01*
X137813678Y-55645690D01*
X137763250Y-55753000D01*
X137675547Y-55907862D01*
X137590023Y-55997815D01*
X137563105Y-56007000D01*
X137488788Y-55962917D01*
X137502813Y-55836313D01*
X137572750Y-55689500D01*
X137651397Y-55532148D01*
X137651143Y-55473988D01*
X137572536Y-55515127D01*
X137416124Y-55655676D01*
X137414094Y-55657657D01*
X137232347Y-55812486D01*
X137117250Y-55861639D01*
X137071730Y-55809296D01*
X137098715Y-55659637D01*
X137201132Y-55416843D01*
X137219546Y-55379832D01*
X137325698Y-55185288D01*
X137416952Y-55045835D01*
X137473915Y-54991030D01*
X137474666Y-54991000D01*
X137562563Y-55037411D01*
X137562563Y-55037411D01*
G37*
X137562563Y-55037411D02*
X137573934Y-55144072D01*
X137530591Y-55227920D01*
X137485829Y-55287459D01*
X137493991Y-55306181D01*
X137575688Y-55281718D01*
X137751532Y-55211699D01*
X137782913Y-55198910D01*
X137863035Y-55222632D01*
X137901444Y-55300252D01*
X137980866Y-55408871D01*
X138106115Y-55436895D01*
X138224315Y-55383648D01*
X138272359Y-55305004D01*
X138337758Y-55209538D01*
X138410076Y-55217917D01*
X138448186Y-55316423D01*
X138446623Y-55363124D01*
X138459032Y-55470400D01*
X138494248Y-55499000D01*
X138549239Y-55550732D01*
X138557000Y-55598529D01*
X138518437Y-55668629D01*
X138437835Y-55660236D01*
X138352222Y-55661787D01*
X138272841Y-55742141D01*
X138183835Y-55909265D01*
X138105465Y-56088026D01*
X138056833Y-56222132D01*
X138049000Y-56260307D01*
X138011436Y-56320527D01*
X137935888Y-56303413D01*
X137883825Y-56235406D01*
X137889910Y-56127797D01*
X137945774Y-55963167D01*
X137977632Y-55895420D01*
X138053837Y-55717692D01*
X138058210Y-55610588D01*
X138032864Y-55571764D01*
X137952049Y-55510755D01*
X137886619Y-55530266D01*
X137813678Y-55645690D01*
X137763250Y-55753000D01*
X137675547Y-55907862D01*
X137590023Y-55997815D01*
X137563105Y-56007000D01*
X137488788Y-55962917D01*
X137502813Y-55836313D01*
X137572750Y-55689500D01*
X137651397Y-55532148D01*
X137651143Y-55473988D01*
X137572536Y-55515127D01*
X137416124Y-55655676D01*
X137414094Y-55657657D01*
X137232347Y-55812486D01*
X137117250Y-55861639D01*
X137071730Y-55809296D01*
X137098715Y-55659637D01*
X137201132Y-55416843D01*
X137219546Y-55379832D01*
X137325698Y-55185288D01*
X137416952Y-55045835D01*
X137473915Y-54991030D01*
X137474666Y-54991000D01*
X137562563Y-55037411D01*
G36*
X131656257Y-55140630D02*
G01*
X131757379Y-55291292D01*
X131878361Y-55497563D01*
X131915057Y-55564768D01*
X132035038Y-55792648D01*
X132099676Y-55936156D01*
X132115337Y-56021925D01*
X132088383Y-56076585D01*
X132045795Y-56111896D01*
X131907644Y-56179394D01*
X131778790Y-56193538D01*
X131704125Y-56152238D01*
X131699000Y-56128055D01*
X131752012Y-56057836D01*
X131826000Y-56025399D01*
X131939917Y-55965994D01*
X131931037Y-55881933D01*
X131911653Y-55859820D01*
X131847386Y-55869081D01*
X131793836Y-55923054D01*
X131682646Y-55994296D01*
X131613296Y-55987699D01*
X131499229Y-55896130D01*
X131380847Y-55733084D01*
X131289083Y-55549092D01*
X131260072Y-55424835D01*
X131414822Y-55424835D01*
X131463632Y-55565645D01*
X131565776Y-55712387D01*
X131643072Y-55790149D01*
X131677287Y-55769832D01*
X131688382Y-55725139D01*
X131670899Y-55597940D01*
X131606217Y-55462104D01*
X131516370Y-55361375D01*
X131445120Y-55340176D01*
X131444983Y-55340260D01*
X131414822Y-55424835D01*
X131260072Y-55424835D01*
X131254737Y-55401987D01*
X131297823Y-55272834D01*
X131400027Y-55151094D01*
X131520104Y-55076612D01*
X131593855Y-55074372D01*
X131656257Y-55140630D01*
X131656257Y-55140630D01*
G37*
X131656257Y-55140630D02*
X131757379Y-55291292D01*
X131878361Y-55497563D01*
X131915057Y-55564768D01*
X132035038Y-55792648D01*
X132099676Y-55936156D01*
X132115337Y-56021925D01*
X132088383Y-56076585D01*
X132045795Y-56111896D01*
X131907644Y-56179394D01*
X131778790Y-56193538D01*
X131704125Y-56152238D01*
X131699000Y-56128055D01*
X131752012Y-56057836D01*
X131826000Y-56025399D01*
X131939917Y-55965994D01*
X131931037Y-55881933D01*
X131911653Y-55859820D01*
X131847386Y-55869081D01*
X131793836Y-55923054D01*
X131682646Y-55994296D01*
X131613296Y-55987699D01*
X131499229Y-55896130D01*
X131380847Y-55733084D01*
X131289083Y-55549092D01*
X131260072Y-55424835D01*
X131414822Y-55424835D01*
X131463632Y-55565645D01*
X131565776Y-55712387D01*
X131643072Y-55790149D01*
X131677287Y-55769832D01*
X131688382Y-55725139D01*
X131670899Y-55597940D01*
X131606217Y-55462104D01*
X131516370Y-55361375D01*
X131445120Y-55340176D01*
X131444983Y-55340260D01*
X131414822Y-55424835D01*
X131260072Y-55424835D01*
X131254737Y-55401987D01*
X131297823Y-55272834D01*
X131400027Y-55151094D01*
X131520104Y-55076612D01*
X131593855Y-55074372D01*
X131656257Y-55140630D01*
G36*
X136541253Y-54061596D02*
G01*
X136651477Y-54147012D01*
X136695440Y-54305637D01*
X136687184Y-54391775D01*
X136674474Y-54537663D01*
X136722439Y-54607376D01*
X136783274Y-54629516D01*
X136881633Y-54689696D01*
X136879943Y-54796044D01*
X136829584Y-54972617D01*
X136803750Y-55063070D01*
X136788614Y-55138761D01*
X136819259Y-55146588D01*
X136917073Y-55081957D01*
X136997179Y-55021549D01*
X137164901Y-54915487D01*
X137272657Y-54894240D01*
X137288993Y-54904093D01*
X137274102Y-54975296D01*
X137167701Y-55114845D01*
X136978036Y-55312486D01*
X136901481Y-55385970D01*
X136679330Y-55587849D01*
X136531160Y-55702210D01*
X136446369Y-55736269D01*
X136418465Y-55714740D01*
X136427924Y-55597504D01*
X136478742Y-55512509D01*
X136536822Y-55393357D01*
X136589638Y-55194920D01*
X136619678Y-55006875D01*
X136639837Y-54787101D01*
X136635206Y-54665829D01*
X136602220Y-54616345D01*
X136566732Y-54610000D01*
X136447767Y-54565877D01*
X136423343Y-54461396D01*
X136463808Y-54384968D01*
X136504901Y-54311579D01*
X136440458Y-54292521D01*
X136435532Y-54292500D01*
X136323069Y-54340115D01*
X136291262Y-54473832D01*
X136342224Y-54679953D01*
X136366835Y-54738298D01*
X136433469Y-54901951D01*
X136443554Y-55007295D01*
X136397983Y-55109293D01*
X136373475Y-55147633D01*
X136232691Y-55280385D01*
X136077987Y-55301135D01*
X135933883Y-55218921D01*
X135824901Y-55042783D01*
X135793548Y-54933841D01*
X135771869Y-54792515D01*
X135795489Y-54745802D01*
X135856304Y-54759216D01*
X135960877Y-54794449D01*
X135990443Y-54800500D01*
X136010430Y-54855004D01*
X136017000Y-54959250D01*
X136039413Y-55078575D01*
X136082492Y-55118000D01*
X136165803Y-55067452D01*
X136184641Y-54935257D01*
X136136568Y-54750583D01*
X136116907Y-54706095D01*
X136052996Y-54548442D01*
X136051725Y-54433167D01*
X136111071Y-54294779D01*
X136241243Y-54130461D01*
X136394573Y-54054406D01*
X136541253Y-54061596D01*
X136541253Y-54061596D01*
G37*
X136541253Y-54061596D02*
X136651477Y-54147012D01*
X136695440Y-54305637D01*
X136687184Y-54391775D01*
X136674474Y-54537663D01*
X136722439Y-54607376D01*
X136783274Y-54629516D01*
X136881633Y-54689696D01*
X136879943Y-54796044D01*
X136829584Y-54972617D01*
X136803750Y-55063070D01*
X136788614Y-55138761D01*
X136819259Y-55146588D01*
X136917073Y-55081957D01*
X136997179Y-55021549D01*
X137164901Y-54915487D01*
X137272657Y-54894240D01*
X137288993Y-54904093D01*
X137274102Y-54975296D01*
X137167701Y-55114845D01*
X136978036Y-55312486D01*
X136901481Y-55385970D01*
X136679330Y-55587849D01*
X136531160Y-55702210D01*
X136446369Y-55736269D01*
X136418465Y-55714740D01*
X136427924Y-55597504D01*
X136478742Y-55512509D01*
X136536822Y-55393357D01*
X136589638Y-55194920D01*
X136619678Y-55006875D01*
X136639837Y-54787101D01*
X136635206Y-54665829D01*
X136602220Y-54616345D01*
X136566732Y-54610000D01*
X136447767Y-54565877D01*
X136423343Y-54461396D01*
X136463808Y-54384968D01*
X136504901Y-54311579D01*
X136440458Y-54292521D01*
X136435532Y-54292500D01*
X136323069Y-54340115D01*
X136291262Y-54473832D01*
X136342224Y-54679953D01*
X136366835Y-54738298D01*
X136433469Y-54901951D01*
X136443554Y-55007295D01*
X136397983Y-55109293D01*
X136373475Y-55147633D01*
X136232691Y-55280385D01*
X136077987Y-55301135D01*
X135933883Y-55218921D01*
X135824901Y-55042783D01*
X135793548Y-54933841D01*
X135771869Y-54792515D01*
X135795489Y-54745802D01*
X135856304Y-54759216D01*
X135960877Y-54794449D01*
X135990443Y-54800500D01*
X136010430Y-54855004D01*
X136017000Y-54959250D01*
X136039413Y-55078575D01*
X136082492Y-55118000D01*
X136165803Y-55067452D01*
X136184641Y-54935257D01*
X136136568Y-54750583D01*
X136116907Y-54706095D01*
X136052996Y-54548442D01*
X136051725Y-54433167D01*
X136111071Y-54294779D01*
X136241243Y-54130461D01*
X136394573Y-54054406D01*
X136541253Y-54061596D01*
G36*
X131751771Y-54579594D02*
G01*
X131762500Y-54607747D01*
X131793584Y-54686644D01*
X131876525Y-54844434D01*
X131995854Y-55052322D01*
X132048250Y-55139664D01*
X132207131Y-55410284D01*
X132298291Y-55591587D01*
X132326728Y-55698379D01*
X132297437Y-55745463D01*
X132254625Y-55751222D01*
X132190925Y-55698504D01*
X132084754Y-55558290D01*
X131953613Y-55355032D01*
X131873625Y-55218975D01*
X131715997Y-54934989D01*
X131620776Y-54742185D01*
X131582921Y-54624138D01*
X131597391Y-54564421D01*
X131659145Y-54546609D01*
X131667250Y-54546500D01*
X131751771Y-54579594D01*
X131751771Y-54579594D01*
G37*
X131751771Y-54579594D02*
X131762500Y-54607747D01*
X131793584Y-54686644D01*
X131876525Y-54844434D01*
X131995854Y-55052322D01*
X132048250Y-55139664D01*
X132207131Y-55410284D01*
X132298291Y-55591587D01*
X132326728Y-55698379D01*
X132297437Y-55745463D01*
X132254625Y-55751222D01*
X132190925Y-55698504D01*
X132084754Y-55558290D01*
X131953613Y-55355032D01*
X131873625Y-55218975D01*
X131715997Y-54934989D01*
X131620776Y-54742185D01*
X131582921Y-54624138D01*
X131597391Y-54564421D01*
X131659145Y-54546609D01*
X131667250Y-54546500D01*
X131751771Y-54579594D01*
G36*
X132453756Y-54653923D02*
G01*
X132546368Y-54777853D01*
X132577512Y-54961751D01*
X132539589Y-55150575D01*
X132526180Y-55178359D01*
X132488882Y-55277661D01*
X132535946Y-55307947D01*
X132554015Y-55308500D01*
X132639672Y-55260548D01*
X132651500Y-55216997D01*
X132685749Y-55111574D01*
X132757566Y-55084192D01*
X132818399Y-55148090D01*
X132806506Y-55266667D01*
X132723480Y-55396427D01*
X132608542Y-55485695D01*
X132552053Y-55499000D01*
X132463399Y-55453994D01*
X132341818Y-55342086D01*
X132307894Y-55303627D01*
X132195498Y-55119973D01*
X132146531Y-54933120D01*
X132150199Y-54863956D01*
X132284523Y-54863956D01*
X132304014Y-54996558D01*
X132343398Y-55092919D01*
X132382891Y-55074864D01*
X132411642Y-55026973D01*
X132436728Y-54896571D01*
X132405138Y-54846238D01*
X132322575Y-54804455D01*
X132284523Y-54863956D01*
X132150199Y-54863956D01*
X132155257Y-54768619D01*
X132215940Y-54652022D01*
X132322843Y-54608880D01*
X132453756Y-54653923D01*
X132453756Y-54653923D01*
G37*
X132453756Y-54653923D02*
X132546368Y-54777853D01*
X132577512Y-54961751D01*
X132539589Y-55150575D01*
X132526180Y-55178359D01*
X132488882Y-55277661D01*
X132535946Y-55307947D01*
X132554015Y-55308500D01*
X132639672Y-55260548D01*
X132651500Y-55216997D01*
X132685749Y-55111574D01*
X132757566Y-55084192D01*
X132818399Y-55148090D01*
X132806506Y-55266667D01*
X132723480Y-55396427D01*
X132608542Y-55485695D01*
X132552053Y-55499000D01*
X132463399Y-55453994D01*
X132341818Y-55342086D01*
X132307894Y-55303627D01*
X132195498Y-55119973D01*
X132146531Y-54933120D01*
X132150199Y-54863956D01*
X132284523Y-54863956D01*
X132304014Y-54996558D01*
X132343398Y-55092919D01*
X132382891Y-55074864D01*
X132411642Y-55026973D01*
X132436728Y-54896571D01*
X132405138Y-54846238D01*
X132322575Y-54804455D01*
X132284523Y-54863956D01*
X132150199Y-54863956D01*
X132155257Y-54768619D01*
X132215940Y-54652022D01*
X132322843Y-54608880D01*
X132453756Y-54653923D01*
G36*
X133127057Y-54481902D02*
G01*
X133323475Y-54818848D01*
X133436140Y-55073748D01*
X133463256Y-55242296D01*
X133456251Y-55270978D01*
X133383587Y-55336984D01*
X133263491Y-55369594D01*
X133149746Y-55363207D01*
X133096137Y-55312221D01*
X133096000Y-55308500D01*
X133149184Y-55256907D01*
X133223000Y-55245000D01*
X133331241Y-55220346D01*
X133333207Y-55136566D01*
X133294364Y-55065050D01*
X133242205Y-55017370D01*
X133202079Y-55080925D01*
X133120698Y-55171688D01*
X133002274Y-55167551D01*
X132869730Y-55085566D01*
X132745992Y-54942786D01*
X132653984Y-54756259D01*
X132627312Y-54653414D01*
X132629204Y-54594788D01*
X132802567Y-54594788D01*
X132820145Y-54709017D01*
X132875915Y-54843233D01*
X132921046Y-54911625D01*
X133016163Y-54984657D01*
X133083879Y-54962900D01*
X133096000Y-54909879D01*
X133059765Y-54793210D01*
X132975670Y-54661325D01*
X132880627Y-54565443D01*
X132834120Y-54546500D01*
X132802567Y-54594788D01*
X132629204Y-54594788D01*
X132631817Y-54513836D01*
X132722799Y-54398673D01*
X132780485Y-54354585D01*
X132964134Y-54223816D01*
X133127057Y-54481902D01*
X133127057Y-54481902D01*
G37*
X133127057Y-54481902D02*
X133323475Y-54818848D01*
X133436140Y-55073748D01*
X133463256Y-55242296D01*
X133456251Y-55270978D01*
X133383587Y-55336984D01*
X133263491Y-55369594D01*
X133149746Y-55363207D01*
X133096137Y-55312221D01*
X133096000Y-55308500D01*
X133149184Y-55256907D01*
X133223000Y-55245000D01*
X133331241Y-55220346D01*
X133333207Y-55136566D01*
X133294364Y-55065050D01*
X133242205Y-55017370D01*
X133202079Y-55080925D01*
X133120698Y-55171688D01*
X133002274Y-55167551D01*
X132869730Y-55085566D01*
X132745992Y-54942786D01*
X132653984Y-54756259D01*
X132627312Y-54653414D01*
X132629204Y-54594788D01*
X132802567Y-54594788D01*
X132820145Y-54709017D01*
X132875915Y-54843233D01*
X132921046Y-54911625D01*
X133016163Y-54984657D01*
X133083879Y-54962900D01*
X133096000Y-54909879D01*
X133059765Y-54793210D01*
X132975670Y-54661325D01*
X132880627Y-54565443D01*
X132834120Y-54546500D01*
X132802567Y-54594788D01*
X132629204Y-54594788D01*
X132631817Y-54513836D01*
X132722799Y-54398673D01*
X132780485Y-54354585D01*
X132964134Y-54223816D01*
X133127057Y-54481902D01*
D13*
X111206000Y-58448000D02*
X111206000Y-60448000D01*
X111206000Y-60448000D02*
X115206000Y-60448000D01*
X115206000Y-60448000D02*
X115206000Y-58448000D01*
X115206000Y-58448000D02*
X111206000Y-58448000D01*
X109396000Y-59448000D02*
X111206000Y-59448000D01*
X117016000Y-59448000D02*
X115206000Y-59448000D01*
X111806000Y-58448000D02*
X111806000Y-60448000D01*
X111906000Y-58448000D02*
X111906000Y-60448000D01*
X111706000Y-58448000D02*
X111706000Y-60448000D01*
D12*
X111086000Y-58328000D02*
X111086000Y-60568000D01*
X111086000Y-60568000D02*
X115326000Y-60568000D01*
X115326000Y-60568000D02*
X115326000Y-58328000D01*
X115326000Y-58328000D02*
X111086000Y-58328000D01*
X110436000Y-59448000D02*
X111086000Y-59448000D01*
X115976000Y-59448000D02*
X115326000Y-59448000D01*
X111806000Y-58328000D02*
X111806000Y-60568000D01*
X111926000Y-58328000D02*
X111926000Y-60568000D01*
X111686000Y-58328000D02*
X111686000Y-60568000D01*
X111686000Y-69504000D02*
X111686000Y-71744000D01*
X111926000Y-69504000D02*
X111926000Y-71744000D01*
X111806000Y-69504000D02*
X111806000Y-71744000D01*
X115976000Y-70624000D02*
X115326000Y-70624000D01*
X110436000Y-70624000D02*
X111086000Y-70624000D01*
X115326000Y-69504000D02*
X111086000Y-69504000D01*
X115326000Y-71744000D02*
X115326000Y-69504000D01*
X111086000Y-71744000D02*
X115326000Y-71744000D01*
X111086000Y-69504000D02*
X111086000Y-71744000D01*
D13*
X111706000Y-69624000D02*
X111706000Y-71624000D01*
X111906000Y-69624000D02*
X111906000Y-71624000D01*
X111806000Y-69624000D02*
X111806000Y-71624000D01*
X117016000Y-70624000D02*
X115206000Y-70624000D01*
X109396000Y-70624000D02*
X111206000Y-70624000D01*
X115206000Y-69624000D02*
X111206000Y-69624000D01*
X115206000Y-71624000D02*
X115206000Y-69624000D01*
X111206000Y-71624000D02*
X115206000Y-71624000D01*
X111206000Y-69624000D02*
X111206000Y-71624000D01*
X111206000Y-79784000D02*
X111206000Y-81784000D01*
X111206000Y-81784000D02*
X115206000Y-81784000D01*
X115206000Y-81784000D02*
X115206000Y-79784000D01*
X115206000Y-79784000D02*
X111206000Y-79784000D01*
X109396000Y-80784000D02*
X111206000Y-80784000D01*
X117016000Y-80784000D02*
X115206000Y-80784000D01*
X111806000Y-79784000D02*
X111806000Y-81784000D01*
X111906000Y-79784000D02*
X111906000Y-81784000D01*
X111706000Y-79784000D02*
X111706000Y-81784000D01*
D12*
X111086000Y-79664000D02*
X111086000Y-81904000D01*
X111086000Y-81904000D02*
X115326000Y-81904000D01*
X115326000Y-81904000D02*
X115326000Y-79664000D01*
X115326000Y-79664000D02*
X111086000Y-79664000D01*
X110436000Y-80784000D02*
X111086000Y-80784000D01*
X115976000Y-80784000D02*
X115326000Y-80784000D01*
X111806000Y-79664000D02*
X111806000Y-81904000D01*
X111926000Y-79664000D02*
X111926000Y-81904000D01*
X111686000Y-79664000D02*
X111686000Y-81904000D01*
X111686000Y-89824000D02*
X111686000Y-92064000D01*
X111926000Y-89824000D02*
X111926000Y-92064000D01*
X111806000Y-89824000D02*
X111806000Y-92064000D01*
X115976000Y-90944000D02*
X115326000Y-90944000D01*
X110436000Y-90944000D02*
X111086000Y-90944000D01*
X115326000Y-89824000D02*
X111086000Y-89824000D01*
X115326000Y-92064000D02*
X115326000Y-89824000D01*
X111086000Y-92064000D02*
X115326000Y-92064000D01*
X111086000Y-89824000D02*
X111086000Y-92064000D01*
D13*
X111706000Y-89944000D02*
X111706000Y-91944000D01*
X111906000Y-89944000D02*
X111906000Y-91944000D01*
X111806000Y-89944000D02*
X111806000Y-91944000D01*
X117016000Y-90944000D02*
X115206000Y-90944000D01*
X109396000Y-90944000D02*
X111206000Y-90944000D01*
X115206000Y-89944000D02*
X111206000Y-89944000D01*
X115206000Y-91944000D02*
X115206000Y-89944000D01*
X111206000Y-91944000D02*
X115206000Y-91944000D01*
X111206000Y-89944000D02*
X111206000Y-91944000D01*
X111206000Y-100104000D02*
X111206000Y-102104000D01*
X111206000Y-102104000D02*
X115206000Y-102104000D01*
X115206000Y-102104000D02*
X115206000Y-100104000D01*
X115206000Y-100104000D02*
X111206000Y-100104000D01*
X109396000Y-101104000D02*
X111206000Y-101104000D01*
X117016000Y-101104000D02*
X115206000Y-101104000D01*
X111806000Y-100104000D02*
X111806000Y-102104000D01*
X111906000Y-100104000D02*
X111906000Y-102104000D01*
X111706000Y-100104000D02*
X111706000Y-102104000D01*
D12*
X111086000Y-99984000D02*
X111086000Y-102224000D01*
X111086000Y-102224000D02*
X115326000Y-102224000D01*
X115326000Y-102224000D02*
X115326000Y-99984000D01*
X115326000Y-99984000D02*
X111086000Y-99984000D01*
X110436000Y-101104000D02*
X111086000Y-101104000D01*
X115976000Y-101104000D02*
X115326000Y-101104000D01*
X111806000Y-99984000D02*
X111806000Y-102224000D01*
X111926000Y-99984000D02*
X111926000Y-102224000D01*
X111686000Y-99984000D02*
X111686000Y-102224000D01*
X111686000Y-110144000D02*
X111686000Y-112384000D01*
X111926000Y-110144000D02*
X111926000Y-112384000D01*
X111806000Y-110144000D02*
X111806000Y-112384000D01*
X115976000Y-111264000D02*
X115326000Y-111264000D01*
X110436000Y-111264000D02*
X111086000Y-111264000D01*
X115326000Y-110144000D02*
X111086000Y-110144000D01*
X115326000Y-112384000D02*
X115326000Y-110144000D01*
X111086000Y-112384000D02*
X115326000Y-112384000D01*
X111086000Y-110144000D02*
X111086000Y-112384000D01*
D13*
X111706000Y-110264000D02*
X111706000Y-112264000D01*
X111906000Y-110264000D02*
X111906000Y-112264000D01*
X111806000Y-110264000D02*
X111806000Y-112264000D01*
X117016000Y-111264000D02*
X115206000Y-111264000D01*
X109396000Y-111264000D02*
X111206000Y-111264000D01*
X115206000Y-110264000D02*
X111206000Y-110264000D01*
X115206000Y-112264000D02*
X115206000Y-110264000D01*
X111206000Y-112264000D02*
X115206000Y-112264000D01*
X111206000Y-110264000D02*
X111206000Y-112264000D01*
X110698000Y-120424000D02*
X110698000Y-122424000D01*
X110698000Y-122424000D02*
X114698000Y-122424000D01*
X114698000Y-122424000D02*
X114698000Y-120424000D01*
X114698000Y-120424000D02*
X110698000Y-120424000D01*
X108888000Y-121424000D02*
X110698000Y-121424000D01*
X116508000Y-121424000D02*
X114698000Y-121424000D01*
X111298000Y-120424000D02*
X111298000Y-122424000D01*
X111398000Y-120424000D02*
X111398000Y-122424000D01*
X111198000Y-120424000D02*
X111198000Y-122424000D01*
D12*
X110578000Y-120304000D02*
X110578000Y-122544000D01*
X110578000Y-122544000D02*
X114818000Y-122544000D01*
X114818000Y-122544000D02*
X114818000Y-120304000D01*
X114818000Y-120304000D02*
X110578000Y-120304000D01*
X109928000Y-121424000D02*
X110578000Y-121424000D01*
X115468000Y-121424000D02*
X114818000Y-121424000D01*
X111298000Y-120304000D02*
X111298000Y-122544000D01*
X111418000Y-120304000D02*
X111418000Y-122544000D01*
X111178000Y-120304000D02*
X111178000Y-122544000D01*
X111178000Y-130464000D02*
X111178000Y-132704000D01*
X111418000Y-130464000D02*
X111418000Y-132704000D01*
X111298000Y-130464000D02*
X111298000Y-132704000D01*
X115468000Y-131584000D02*
X114818000Y-131584000D01*
X109928000Y-131584000D02*
X110578000Y-131584000D01*
X114818000Y-130464000D02*
X110578000Y-130464000D01*
X114818000Y-132704000D02*
X114818000Y-130464000D01*
X110578000Y-132704000D02*
X114818000Y-132704000D01*
X110578000Y-130464000D02*
X110578000Y-132704000D01*
D13*
X111198000Y-130584000D02*
X111198000Y-132584000D01*
X111398000Y-130584000D02*
X111398000Y-132584000D01*
X111298000Y-130584000D02*
X111298000Y-132584000D01*
X116508000Y-131584000D02*
X114698000Y-131584000D01*
X108888000Y-131584000D02*
X110698000Y-131584000D01*
X114698000Y-130584000D02*
X110698000Y-130584000D01*
X114698000Y-132584000D02*
X114698000Y-130584000D01*
X110698000Y-132584000D02*
X114698000Y-132584000D01*
X110698000Y-130584000D02*
X110698000Y-132584000D01*
X89806000Y-60956000D02*
X89806000Y-58956000D01*
X89806000Y-58956000D02*
X85806000Y-58956000D01*
X85806000Y-58956000D02*
X85806000Y-60956000D01*
X85806000Y-60956000D02*
X89806000Y-60956000D01*
X91616000Y-59956000D02*
X89806000Y-59956000D01*
X83996000Y-59956000D02*
X85806000Y-59956000D01*
X89206000Y-60956000D02*
X89206000Y-58956000D01*
X89106000Y-60956000D02*
X89106000Y-58956000D01*
X89306000Y-60956000D02*
X89306000Y-58956000D01*
D12*
X89926000Y-61076000D02*
X89926000Y-58836000D01*
X89926000Y-58836000D02*
X85686000Y-58836000D01*
X85686000Y-58836000D02*
X85686000Y-61076000D01*
X85686000Y-61076000D02*
X89926000Y-61076000D01*
X90576000Y-59956000D02*
X89926000Y-59956000D01*
X85036000Y-59956000D02*
X85686000Y-59956000D01*
X89206000Y-61076000D02*
X89206000Y-58836000D01*
X89086000Y-61076000D02*
X89086000Y-58836000D01*
X89326000Y-61076000D02*
X89326000Y-58836000D01*
X89326000Y-71744000D02*
X89326000Y-69504000D01*
X89086000Y-71744000D02*
X89086000Y-69504000D01*
X89206000Y-71744000D02*
X89206000Y-69504000D01*
X85036000Y-70624000D02*
X85686000Y-70624000D01*
X90576000Y-70624000D02*
X89926000Y-70624000D01*
X85686000Y-71744000D02*
X89926000Y-71744000D01*
X85686000Y-69504000D02*
X85686000Y-71744000D01*
X89926000Y-69504000D02*
X85686000Y-69504000D01*
X89926000Y-71744000D02*
X89926000Y-69504000D01*
D13*
X89306000Y-71624000D02*
X89306000Y-69624000D01*
X89106000Y-71624000D02*
X89106000Y-69624000D01*
X89206000Y-71624000D02*
X89206000Y-69624000D01*
X83996000Y-70624000D02*
X85806000Y-70624000D01*
X91616000Y-70624000D02*
X89806000Y-70624000D01*
X85806000Y-71624000D02*
X89806000Y-71624000D01*
X85806000Y-69624000D02*
X85806000Y-71624000D01*
X89806000Y-69624000D02*
X85806000Y-69624000D01*
X89806000Y-71624000D02*
X89806000Y-69624000D01*
D12*
X89326000Y-81904000D02*
X89326000Y-79664000D01*
X89086000Y-81904000D02*
X89086000Y-79664000D01*
X89206000Y-81904000D02*
X89206000Y-79664000D01*
X85036000Y-80784000D02*
X85686000Y-80784000D01*
X90576000Y-80784000D02*
X89926000Y-80784000D01*
X85686000Y-81904000D02*
X89926000Y-81904000D01*
X85686000Y-79664000D02*
X85686000Y-81904000D01*
X89926000Y-79664000D02*
X85686000Y-79664000D01*
X89926000Y-81904000D02*
X89926000Y-79664000D01*
D13*
X89306000Y-81784000D02*
X89306000Y-79784000D01*
X89106000Y-81784000D02*
X89106000Y-79784000D01*
X89206000Y-81784000D02*
X89206000Y-79784000D01*
X83996000Y-80784000D02*
X85806000Y-80784000D01*
X91616000Y-80784000D02*
X89806000Y-80784000D01*
X85806000Y-81784000D02*
X89806000Y-81784000D01*
X85806000Y-79784000D02*
X85806000Y-81784000D01*
X89806000Y-79784000D02*
X85806000Y-79784000D01*
X89806000Y-81784000D02*
X89806000Y-79784000D01*
D12*
X89326000Y-92064000D02*
X89326000Y-89824000D01*
X89086000Y-92064000D02*
X89086000Y-89824000D01*
X89206000Y-92064000D02*
X89206000Y-89824000D01*
X85036000Y-90944000D02*
X85686000Y-90944000D01*
X90576000Y-90944000D02*
X89926000Y-90944000D01*
X85686000Y-92064000D02*
X89926000Y-92064000D01*
X85686000Y-89824000D02*
X85686000Y-92064000D01*
X89926000Y-89824000D02*
X85686000Y-89824000D01*
X89926000Y-92064000D02*
X89926000Y-89824000D01*
D13*
X89306000Y-91944000D02*
X89306000Y-89944000D01*
X89106000Y-91944000D02*
X89106000Y-89944000D01*
X89206000Y-91944000D02*
X89206000Y-89944000D01*
X83996000Y-90944000D02*
X85806000Y-90944000D01*
X91616000Y-90944000D02*
X89806000Y-90944000D01*
X85806000Y-91944000D02*
X89806000Y-91944000D01*
X85806000Y-89944000D02*
X85806000Y-91944000D01*
X89806000Y-89944000D02*
X85806000Y-89944000D01*
X89806000Y-91944000D02*
X89806000Y-89944000D01*
X89806000Y-102104000D02*
X89806000Y-100104000D01*
X89806000Y-100104000D02*
X85806000Y-100104000D01*
X85806000Y-100104000D02*
X85806000Y-102104000D01*
X85806000Y-102104000D02*
X89806000Y-102104000D01*
X91616000Y-101104000D02*
X89806000Y-101104000D01*
X83996000Y-101104000D02*
X85806000Y-101104000D01*
X89206000Y-102104000D02*
X89206000Y-100104000D01*
X89106000Y-102104000D02*
X89106000Y-100104000D01*
X89306000Y-102104000D02*
X89306000Y-100104000D01*
D12*
X89926000Y-102224000D02*
X89926000Y-99984000D01*
X89926000Y-99984000D02*
X85686000Y-99984000D01*
X85686000Y-99984000D02*
X85686000Y-102224000D01*
X85686000Y-102224000D02*
X89926000Y-102224000D01*
X90576000Y-101104000D02*
X89926000Y-101104000D01*
X85036000Y-101104000D02*
X85686000Y-101104000D01*
X89206000Y-102224000D02*
X89206000Y-99984000D01*
X89086000Y-102224000D02*
X89086000Y-99984000D01*
X89326000Y-102224000D02*
X89326000Y-99984000D01*
X89326000Y-112384000D02*
X89326000Y-110144000D01*
X89086000Y-112384000D02*
X89086000Y-110144000D01*
X89206000Y-112384000D02*
X89206000Y-110144000D01*
X85036000Y-111264000D02*
X85686000Y-111264000D01*
X90576000Y-111264000D02*
X89926000Y-111264000D01*
X85686000Y-112384000D02*
X89926000Y-112384000D01*
X85686000Y-110144000D02*
X85686000Y-112384000D01*
X89926000Y-110144000D02*
X85686000Y-110144000D01*
X89926000Y-112384000D02*
X89926000Y-110144000D01*
D13*
X89306000Y-112264000D02*
X89306000Y-110264000D01*
X89106000Y-112264000D02*
X89106000Y-110264000D01*
X89206000Y-112264000D02*
X89206000Y-110264000D01*
X83996000Y-111264000D02*
X85806000Y-111264000D01*
X91616000Y-111264000D02*
X89806000Y-111264000D01*
X85806000Y-112264000D02*
X89806000Y-112264000D01*
X85806000Y-110264000D02*
X85806000Y-112264000D01*
X89806000Y-110264000D02*
X85806000Y-110264000D01*
X89806000Y-112264000D02*
X89806000Y-110264000D01*
X89806000Y-122424000D02*
X89806000Y-120424000D01*
X89806000Y-120424000D02*
X85806000Y-120424000D01*
X85806000Y-120424000D02*
X85806000Y-122424000D01*
X85806000Y-122424000D02*
X89806000Y-122424000D01*
X91616000Y-121424000D02*
X89806000Y-121424000D01*
X83996000Y-121424000D02*
X85806000Y-121424000D01*
X89206000Y-122424000D02*
X89206000Y-120424000D01*
X89106000Y-122424000D02*
X89106000Y-120424000D01*
X89306000Y-122424000D02*
X89306000Y-120424000D01*
D12*
X89926000Y-122544000D02*
X89926000Y-120304000D01*
X89926000Y-120304000D02*
X85686000Y-120304000D01*
X85686000Y-120304000D02*
X85686000Y-122544000D01*
X85686000Y-122544000D02*
X89926000Y-122544000D01*
X90576000Y-121424000D02*
X89926000Y-121424000D01*
X85036000Y-121424000D02*
X85686000Y-121424000D01*
X89206000Y-122544000D02*
X89206000Y-120304000D01*
X89086000Y-122544000D02*
X89086000Y-120304000D01*
X89326000Y-122544000D02*
X89326000Y-120304000D01*
D13*
X89806000Y-132584000D02*
X89806000Y-130584000D01*
X89806000Y-130584000D02*
X85806000Y-130584000D01*
X85806000Y-130584000D02*
X85806000Y-132584000D01*
X85806000Y-132584000D02*
X89806000Y-132584000D01*
X91616000Y-131584000D02*
X89806000Y-131584000D01*
X83996000Y-131584000D02*
X85806000Y-131584000D01*
X89206000Y-132584000D02*
X89206000Y-130584000D01*
X89106000Y-132584000D02*
X89106000Y-130584000D01*
X89306000Y-132584000D02*
X89306000Y-130584000D01*
D12*
X89926000Y-132704000D02*
X89926000Y-130464000D01*
X89926000Y-130464000D02*
X85686000Y-130464000D01*
X85686000Y-130464000D02*
X85686000Y-132704000D01*
X85686000Y-132704000D02*
X89926000Y-132704000D01*
X90576000Y-131584000D02*
X89926000Y-131584000D01*
X85036000Y-131584000D02*
X85686000Y-131584000D01*
X89206000Y-132704000D02*
X89206000Y-130464000D01*
X89086000Y-132704000D02*
X89086000Y-130464000D01*
X89326000Y-132704000D02*
X89326000Y-130464000D01*
X105356000Y-68084000D02*
X106126000Y-68084000D01*
X113436000Y-68084000D02*
X112666000Y-68084000D01*
X106126000Y-69454000D02*
X112666000Y-69454000D01*
X106126000Y-66714000D02*
X106126000Y-69454000D01*
X112666000Y-66714000D02*
X106126000Y-66714000D01*
X112666000Y-69454000D02*
X112666000Y-66714000D01*
D13*
X104316000Y-68084000D02*
X106246000Y-68084000D01*
X114476000Y-68084000D02*
X112546000Y-68084000D01*
X106246000Y-69334000D02*
X112546000Y-69334000D01*
X106246000Y-66834000D02*
X106246000Y-69334000D01*
X112546000Y-66834000D02*
X106246000Y-66834000D01*
X112546000Y-69334000D02*
X112546000Y-66834000D01*
X112546000Y-79494000D02*
X112546000Y-76994000D01*
X112546000Y-76994000D02*
X106246000Y-76994000D01*
X106246000Y-76994000D02*
X106246000Y-79494000D01*
X106246000Y-79494000D02*
X112546000Y-79494000D01*
X114476000Y-78244000D02*
X112546000Y-78244000D01*
X104316000Y-78244000D02*
X106246000Y-78244000D01*
D12*
X112666000Y-79614000D02*
X112666000Y-76874000D01*
X112666000Y-76874000D02*
X106126000Y-76874000D01*
X106126000Y-76874000D02*
X106126000Y-79614000D01*
X106126000Y-79614000D02*
X112666000Y-79614000D01*
X113436000Y-78244000D02*
X112666000Y-78244000D01*
X105356000Y-78244000D02*
X106126000Y-78244000D01*
X105356000Y-88404000D02*
X106126000Y-88404000D01*
X113436000Y-88404000D02*
X112666000Y-88404000D01*
X106126000Y-89774000D02*
X112666000Y-89774000D01*
X106126000Y-87034000D02*
X106126000Y-89774000D01*
X112666000Y-87034000D02*
X106126000Y-87034000D01*
X112666000Y-89774000D02*
X112666000Y-87034000D01*
D13*
X104316000Y-88404000D02*
X106246000Y-88404000D01*
X114476000Y-88404000D02*
X112546000Y-88404000D01*
X106246000Y-89654000D02*
X112546000Y-89654000D01*
X106246000Y-87154000D02*
X106246000Y-89654000D01*
X112546000Y-87154000D02*
X106246000Y-87154000D01*
X112546000Y-89654000D02*
X112546000Y-87154000D01*
X112546000Y-99814000D02*
X112546000Y-97314000D01*
X112546000Y-97314000D02*
X106246000Y-97314000D01*
X106246000Y-97314000D02*
X106246000Y-99814000D01*
X106246000Y-99814000D02*
X112546000Y-99814000D01*
X114476000Y-98564000D02*
X112546000Y-98564000D01*
X104316000Y-98564000D02*
X106246000Y-98564000D01*
D12*
X112666000Y-99934000D02*
X112666000Y-97194000D01*
X112666000Y-97194000D02*
X106126000Y-97194000D01*
X106126000Y-97194000D02*
X106126000Y-99934000D01*
X106126000Y-99934000D02*
X112666000Y-99934000D01*
X113436000Y-98564000D02*
X112666000Y-98564000D01*
X105356000Y-98564000D02*
X106126000Y-98564000D01*
D13*
X112546000Y-109974000D02*
X112546000Y-107474000D01*
X112546000Y-107474000D02*
X106246000Y-107474000D01*
X106246000Y-107474000D02*
X106246000Y-109974000D01*
X106246000Y-109974000D02*
X112546000Y-109974000D01*
X114476000Y-108724000D02*
X112546000Y-108724000D01*
X104316000Y-108724000D02*
X106246000Y-108724000D01*
D12*
X112666000Y-110094000D02*
X112666000Y-107354000D01*
X112666000Y-107354000D02*
X106126000Y-107354000D01*
X106126000Y-107354000D02*
X106126000Y-110094000D01*
X106126000Y-110094000D02*
X112666000Y-110094000D01*
X113436000Y-108724000D02*
X112666000Y-108724000D01*
X105356000Y-108724000D02*
X106126000Y-108724000D01*
X104848000Y-118884000D02*
X105618000Y-118884000D01*
X112928000Y-118884000D02*
X112158000Y-118884000D01*
X105618000Y-120254000D02*
X112158000Y-120254000D01*
X105618000Y-117514000D02*
X105618000Y-120254000D01*
X112158000Y-117514000D02*
X105618000Y-117514000D01*
X112158000Y-120254000D02*
X112158000Y-117514000D01*
D13*
X103808000Y-118884000D02*
X105738000Y-118884000D01*
X113968000Y-118884000D02*
X112038000Y-118884000D01*
X105738000Y-120134000D02*
X112038000Y-120134000D01*
X105738000Y-117634000D02*
X105738000Y-120134000D01*
X112038000Y-117634000D02*
X105738000Y-117634000D01*
X112038000Y-120134000D02*
X112038000Y-117634000D01*
D12*
X104848000Y-129044000D02*
X105618000Y-129044000D01*
X112928000Y-129044000D02*
X112158000Y-129044000D01*
X105618000Y-130414000D02*
X112158000Y-130414000D01*
X105618000Y-127674000D02*
X105618000Y-130414000D01*
X112158000Y-127674000D02*
X105618000Y-127674000D01*
X112158000Y-130414000D02*
X112158000Y-127674000D01*
D13*
X103808000Y-129044000D02*
X105738000Y-129044000D01*
X113968000Y-129044000D02*
X112038000Y-129044000D01*
X105738000Y-130294000D02*
X112038000Y-130294000D01*
X105738000Y-127794000D02*
X105738000Y-130294000D01*
X112038000Y-127794000D02*
X105738000Y-127794000D01*
X112038000Y-130294000D02*
X112038000Y-127794000D01*
X117704000Y-139553000D02*
X117704000Y-137053000D01*
X117704000Y-137053000D02*
X111404000Y-137053000D01*
X111404000Y-137053000D02*
X111404000Y-139553000D01*
X111404000Y-139553000D02*
X117704000Y-139553000D01*
X119634000Y-138303000D02*
X117704000Y-138303000D01*
X109474000Y-138303000D02*
X111404000Y-138303000D01*
D12*
X117824000Y-139673000D02*
X117824000Y-136933000D01*
X117824000Y-136933000D02*
X111284000Y-136933000D01*
X111284000Y-136933000D02*
X111284000Y-139673000D01*
X111284000Y-139673000D02*
X117824000Y-139673000D01*
X118594000Y-138303000D02*
X117824000Y-138303000D01*
X110514000Y-138303000D02*
X111284000Y-138303000D01*
D13*
X117704000Y-142601000D02*
X117704000Y-140101000D01*
X117704000Y-140101000D02*
X111404000Y-140101000D01*
X111404000Y-140101000D02*
X111404000Y-142601000D01*
X111404000Y-142601000D02*
X117704000Y-142601000D01*
X119634000Y-141351000D02*
X117704000Y-141351000D01*
X109474000Y-141351000D02*
X111404000Y-141351000D01*
D12*
X117824000Y-142721000D02*
X117824000Y-139981000D01*
X117824000Y-139981000D02*
X111284000Y-139981000D01*
X111284000Y-139981000D02*
X111284000Y-142721000D01*
X111284000Y-142721000D02*
X117824000Y-142721000D01*
X118594000Y-141351000D02*
X117824000Y-141351000D01*
X110514000Y-141351000D02*
X111284000Y-141351000D01*
X77416000Y-68084000D02*
X78186000Y-68084000D01*
X85496000Y-68084000D02*
X84726000Y-68084000D01*
X78186000Y-69454000D02*
X84726000Y-69454000D01*
X78186000Y-66714000D02*
X78186000Y-69454000D01*
X84726000Y-66714000D02*
X78186000Y-66714000D01*
X84726000Y-69454000D02*
X84726000Y-66714000D01*
D13*
X76376000Y-68084000D02*
X78306000Y-68084000D01*
X86536000Y-68084000D02*
X84606000Y-68084000D01*
X78306000Y-69334000D02*
X84606000Y-69334000D01*
X78306000Y-66834000D02*
X78306000Y-69334000D01*
X84606000Y-66834000D02*
X78306000Y-66834000D01*
X84606000Y-69334000D02*
X84606000Y-66834000D01*
X84606000Y-79494000D02*
X84606000Y-76994000D01*
X84606000Y-76994000D02*
X78306000Y-76994000D01*
X78306000Y-76994000D02*
X78306000Y-79494000D01*
X78306000Y-79494000D02*
X84606000Y-79494000D01*
X86536000Y-78244000D02*
X84606000Y-78244000D01*
X76376000Y-78244000D02*
X78306000Y-78244000D01*
D12*
X84726000Y-79614000D02*
X84726000Y-76874000D01*
X84726000Y-76874000D02*
X78186000Y-76874000D01*
X78186000Y-76874000D02*
X78186000Y-79614000D01*
X78186000Y-79614000D02*
X84726000Y-79614000D01*
X85496000Y-78244000D02*
X84726000Y-78244000D01*
X77416000Y-78244000D02*
X78186000Y-78244000D01*
X77416000Y-88404000D02*
X78186000Y-88404000D01*
X85496000Y-88404000D02*
X84726000Y-88404000D01*
X78186000Y-89774000D02*
X84726000Y-89774000D01*
X78186000Y-87034000D02*
X78186000Y-89774000D01*
X84726000Y-87034000D02*
X78186000Y-87034000D01*
X84726000Y-89774000D02*
X84726000Y-87034000D01*
D13*
X76376000Y-88404000D02*
X78306000Y-88404000D01*
X86536000Y-88404000D02*
X84606000Y-88404000D01*
X78306000Y-89654000D02*
X84606000Y-89654000D01*
X78306000Y-87154000D02*
X78306000Y-89654000D01*
X84606000Y-87154000D02*
X78306000Y-87154000D01*
X84606000Y-89654000D02*
X84606000Y-87154000D01*
X84606000Y-99814000D02*
X84606000Y-97314000D01*
X84606000Y-97314000D02*
X78306000Y-97314000D01*
X78306000Y-97314000D02*
X78306000Y-99814000D01*
X78306000Y-99814000D02*
X84606000Y-99814000D01*
X86536000Y-98564000D02*
X84606000Y-98564000D01*
X76376000Y-98564000D02*
X78306000Y-98564000D01*
D12*
X84726000Y-99934000D02*
X84726000Y-97194000D01*
X84726000Y-97194000D02*
X78186000Y-97194000D01*
X78186000Y-97194000D02*
X78186000Y-99934000D01*
X78186000Y-99934000D02*
X84726000Y-99934000D01*
X85496000Y-98564000D02*
X84726000Y-98564000D01*
X77416000Y-98564000D02*
X78186000Y-98564000D01*
D13*
X84606000Y-109974000D02*
X84606000Y-107474000D01*
X84606000Y-107474000D02*
X78306000Y-107474000D01*
X78306000Y-107474000D02*
X78306000Y-109974000D01*
X78306000Y-109974000D02*
X84606000Y-109974000D01*
X86536000Y-108724000D02*
X84606000Y-108724000D01*
X76376000Y-108724000D02*
X78306000Y-108724000D01*
D12*
X84726000Y-110094000D02*
X84726000Y-107354000D01*
X84726000Y-107354000D02*
X78186000Y-107354000D01*
X78186000Y-107354000D02*
X78186000Y-110094000D01*
X78186000Y-110094000D02*
X84726000Y-110094000D01*
X85496000Y-108724000D02*
X84726000Y-108724000D01*
X77416000Y-108724000D02*
X78186000Y-108724000D01*
X77416000Y-118884000D02*
X78186000Y-118884000D01*
X85496000Y-118884000D02*
X84726000Y-118884000D01*
X78186000Y-120254000D02*
X84726000Y-120254000D01*
X78186000Y-117514000D02*
X78186000Y-120254000D01*
X84726000Y-117514000D02*
X78186000Y-117514000D01*
X84726000Y-120254000D02*
X84726000Y-117514000D01*
D13*
X76376000Y-118884000D02*
X78306000Y-118884000D01*
X86536000Y-118884000D02*
X84606000Y-118884000D01*
X78306000Y-120134000D02*
X84606000Y-120134000D01*
X78306000Y-117634000D02*
X78306000Y-120134000D01*
X84606000Y-117634000D02*
X78306000Y-117634000D01*
X84606000Y-120134000D02*
X84606000Y-117634000D01*
X84606000Y-130294000D02*
X84606000Y-127794000D01*
X84606000Y-127794000D02*
X78306000Y-127794000D01*
X78306000Y-127794000D02*
X78306000Y-130294000D01*
X78306000Y-130294000D02*
X84606000Y-130294000D01*
X86536000Y-129044000D02*
X84606000Y-129044000D01*
X76376000Y-129044000D02*
X78306000Y-129044000D01*
D12*
X84726000Y-130414000D02*
X84726000Y-127674000D01*
X84726000Y-127674000D02*
X78186000Y-127674000D01*
X78186000Y-127674000D02*
X78186000Y-130414000D01*
X78186000Y-130414000D02*
X84726000Y-130414000D01*
X85496000Y-129044000D02*
X84726000Y-129044000D01*
X77416000Y-129044000D02*
X78186000Y-129044000D01*
X77875000Y-139573000D02*
X78645000Y-139573000D01*
X85955000Y-139573000D02*
X85185000Y-139573000D01*
X78645000Y-140943000D02*
X85185000Y-140943000D01*
X78645000Y-138203000D02*
X78645000Y-140943000D01*
X85185000Y-138203000D02*
X78645000Y-138203000D01*
X85185000Y-140943000D02*
X85185000Y-138203000D01*
D13*
X76835000Y-139573000D02*
X78765000Y-139573000D01*
X86995000Y-139573000D02*
X85065000Y-139573000D01*
X78765000Y-140823000D02*
X85065000Y-140823000D01*
X78765000Y-138323000D02*
X78765000Y-140823000D01*
X85065000Y-138323000D02*
X78765000Y-138323000D01*
X85065000Y-140823000D02*
X85065000Y-138323000D01*
X117704000Y-145649000D02*
X117704000Y-143149000D01*
X117704000Y-143149000D02*
X111404000Y-143149000D01*
X111404000Y-143149000D02*
X111404000Y-145649000D01*
X111404000Y-145649000D02*
X117704000Y-145649000D01*
X119634000Y-144399000D02*
X117704000Y-144399000D01*
X109474000Y-144399000D02*
X111404000Y-144399000D01*
D12*
X117824000Y-145769000D02*
X117824000Y-143029000D01*
X117824000Y-143029000D02*
X111284000Y-143029000D01*
X111284000Y-143029000D02*
X111284000Y-145769000D01*
X111284000Y-145769000D02*
X117824000Y-145769000D01*
X118594000Y-144399000D02*
X117824000Y-144399000D01*
X110514000Y-144399000D02*
X111284000Y-144399000D01*
X96696000Y-126528000D02*
X96696000Y-127298000D01*
X96696000Y-134608000D02*
X96696000Y-133838000D01*
X95326000Y-127298000D02*
X95326000Y-133838000D01*
X98066000Y-127298000D02*
X95326000Y-127298000D01*
X98066000Y-133838000D02*
X98066000Y-127298000D01*
X95326000Y-133838000D02*
X98066000Y-133838000D01*
D13*
X96696000Y-125488000D02*
X96696000Y-127418000D01*
X96696000Y-135648000D02*
X96696000Y-133718000D01*
X95446000Y-127418000D02*
X95446000Y-133718000D01*
X97946000Y-127418000D02*
X95446000Y-127418000D01*
X97946000Y-133718000D02*
X97946000Y-127418000D01*
X95446000Y-133718000D02*
X97946000Y-133718000D01*
D12*
X92964000Y-146074000D02*
X92964000Y-146844000D01*
X92964000Y-154154000D02*
X92964000Y-153384000D01*
X91594000Y-146844000D02*
X91594000Y-153384000D01*
X94334000Y-146844000D02*
X91594000Y-146844000D01*
X94334000Y-153384000D02*
X94334000Y-146844000D01*
X91594000Y-153384000D02*
X94334000Y-153384000D01*
D13*
X92964000Y-145034000D02*
X92964000Y-146964000D01*
X92964000Y-155194000D02*
X92964000Y-153264000D01*
X91714000Y-146964000D02*
X91714000Y-153264000D01*
X94214000Y-146964000D02*
X91714000Y-146964000D01*
X94214000Y-153264000D02*
X94214000Y-146964000D01*
X91714000Y-153264000D02*
X94214000Y-153264000D01*
D12*
X122809000Y-152757000D02*
X122809000Y-151987000D01*
X122809000Y-144677000D02*
X122809000Y-145447000D01*
X124179000Y-151987000D02*
X124179000Y-145447000D01*
X121439000Y-151987000D02*
X124179000Y-151987000D01*
X121439000Y-145447000D02*
X121439000Y-151987000D01*
X124179000Y-145447000D02*
X121439000Y-145447000D01*
D13*
X122809000Y-153797000D02*
X122809000Y-151867000D01*
X122809000Y-143637000D02*
X122809000Y-145567000D01*
X124059000Y-151867000D02*
X124059000Y-145567000D01*
X121559000Y-151867000D02*
X124059000Y-151867000D01*
X121559000Y-145567000D02*
X121559000Y-151867000D01*
X124059000Y-145567000D02*
X121559000Y-145567000D01*
D12*
X99076000Y-153857000D02*
G75*
G02X101076000Y-153857000I1000000J0D01*
G01*
D13*
X102251000Y-153797000D02*
X96901000Y-153797000D01*
X96901000Y-153797000D02*
X96901000Y-143637000D01*
X96901000Y-143637000D02*
X103251000Y-143637000D01*
X103251000Y-143637000D02*
X103251000Y-152797000D01*
X103251000Y-152797000D02*
X102251000Y-153797000D01*
D12*
X101076000Y-153857000D02*
X102326000Y-153857000D01*
X102326000Y-153857000D02*
X102326000Y-143577000D01*
X102326000Y-143577000D02*
X97826000Y-143577000D01*
X97826000Y-143577000D02*
X97826000Y-153857000D01*
X97826000Y-153857000D02*
X99076000Y-153857000D01*
D13*
X93980000Y-102489000D02*
X98060000Y-102489000D01*
X98060000Y-102489000D02*
X99060000Y-103489000D01*
X99060000Y-103489000D02*
X99060000Y-122809000D01*
X99060000Y-122809000D02*
X93980000Y-122809000D01*
X93980000Y-122809000D02*
X93980000Y-102489000D01*
D12*
X93920000Y-102429000D02*
X96520000Y-102429000D01*
X93920000Y-102429000D02*
X93920000Y-122869000D01*
X93920000Y-122869000D02*
X99120000Y-122869000D01*
X99120000Y-105029000D02*
X99120000Y-122869000D01*
X96520000Y-105029000D02*
X99120000Y-105029000D01*
X96520000Y-102429000D02*
X96520000Y-105029000D01*
X99120000Y-102429000D02*
X99120000Y-103759000D01*
X97790000Y-102429000D02*
X99120000Y-102429000D01*
D13*
X119380000Y-86614000D02*
X123460000Y-86614000D01*
X123460000Y-86614000D02*
X124460000Y-87614000D01*
X124460000Y-87614000D02*
X124460000Y-104394000D01*
X124460000Y-104394000D02*
X119380000Y-104394000D01*
X119380000Y-104394000D02*
X119380000Y-86614000D01*
D12*
X119320000Y-86554000D02*
X121920000Y-86554000D01*
X119320000Y-86554000D02*
X119320000Y-104454000D01*
X119320000Y-104454000D02*
X124520000Y-104454000D01*
X124520000Y-89154000D02*
X124520000Y-104454000D01*
X121920000Y-89154000D02*
X124520000Y-89154000D01*
X121920000Y-86554000D02*
X121920000Y-89154000D01*
X124520000Y-86554000D02*
X124520000Y-87884000D01*
X123190000Y-86554000D02*
X124520000Y-86554000D01*
D13*
X96282000Y-154452000D02*
X96282000Y-156952000D01*
X96282000Y-156952000D02*
X103282000Y-156952000D01*
X103282000Y-156952000D02*
X103282000Y-154452000D01*
X103282000Y-154452000D02*
X96282000Y-154452000D01*
D12*
X96162000Y-154332000D02*
X103402000Y-154332000D01*
X96162000Y-157072000D02*
X103402000Y-157072000D01*
X96162000Y-154332000D02*
X96162000Y-157072000D01*
X103402000Y-154332000D02*
X103402000Y-157072000D01*
X135564000Y-128502000D02*
X135564000Y-132102000D01*
D13*
X135664000Y-128562000D02*
X135664000Y-132062000D01*
D12*
X136291205Y-127977816D02*
G75*
G03X135564000Y-128502000I1122795J-2324184D01*
G01*
X138512807Y-127945600D02*
G75*
G02X140014000Y-130302000I-1098807J-2356400D01*
G01*
X138512807Y-132658400D02*
G75*
G03X140014000Y-130302000I-1098807J2356400D01*
G01*
D13*
X135660375Y-132055625D02*
G75*
G03X139894000Y-130302000I1753625J1753625D01*
G01*
X135660375Y-128548375D02*
G75*
G02X139894000Y-130302000I1753625J-1753625D01*
G01*
D12*
X136291205Y-132626184D02*
G75*
G02X135564000Y-132102000I1122795J2324184D01*
G01*
X133072000Y-129159000D02*
X132302000Y-129159000D01*
X124992000Y-129159000D02*
X125762000Y-129159000D01*
X132302000Y-127789000D02*
X125762000Y-127789000D01*
X132302000Y-130529000D02*
X132302000Y-127789000D01*
X125762000Y-130529000D02*
X132302000Y-130529000D01*
X125762000Y-127789000D02*
X125762000Y-130529000D01*
D13*
X134112000Y-129159000D02*
X132182000Y-129159000D01*
X123952000Y-129159000D02*
X125882000Y-129159000D01*
X132182000Y-127909000D02*
X125882000Y-127909000D01*
X132182000Y-130409000D02*
X132182000Y-127909000D01*
X125882000Y-130409000D02*
X132182000Y-130409000D01*
X125882000Y-127909000D02*
X125882000Y-130409000D01*
X143535000Y-128925000D02*
X143535000Y-131425000D01*
X143535000Y-131425000D02*
X149835000Y-131425000D01*
X149835000Y-131425000D02*
X149835000Y-128925000D01*
X149835000Y-128925000D02*
X143535000Y-128925000D01*
X141605000Y-130175000D02*
X143535000Y-130175000D01*
X151765000Y-130175000D02*
X149835000Y-130175000D01*
D12*
X143415000Y-128805000D02*
X143415000Y-131545000D01*
X143415000Y-131545000D02*
X149955000Y-131545000D01*
X149955000Y-131545000D02*
X149955000Y-128805000D01*
X149955000Y-128805000D02*
X143415000Y-128805000D01*
X142645000Y-130175000D02*
X143415000Y-130175000D01*
X150725000Y-130175000D02*
X149955000Y-130175000D01*
D13*
X136418000Y-147431000D02*
X138918000Y-147431000D01*
X138918000Y-147431000D02*
X138918000Y-140431000D01*
X138918000Y-140431000D02*
X136418000Y-140431000D01*
X136418000Y-140431000D02*
X136418000Y-147431000D01*
D12*
X136298000Y-147551000D02*
X136298000Y-140311000D01*
X139038000Y-147551000D02*
X139038000Y-140311000D01*
X136298000Y-147551000D02*
X139038000Y-147551000D01*
X136298000Y-140311000D02*
X139038000Y-140311000D01*
D15*
X105116333Y-142089142D02*
X105068714Y-142136761D01*
X104925857Y-142184380D01*
X104830619Y-142184380D01*
X104687761Y-142136761D01*
X104592523Y-142041523D01*
X104544904Y-141946285D01*
X104497285Y-141755809D01*
X104497285Y-141612952D01*
X104544904Y-141422476D01*
X104592523Y-141327238D01*
X104687761Y-141232000D01*
X104830619Y-141184380D01*
X104925857Y-141184380D01*
X105068714Y-141232000D01*
X105116333Y-141279619D01*
X105449666Y-141184380D02*
X106116333Y-141184380D01*
X105687761Y-142184380D01*
X99210952Y-139898380D02*
X98639523Y-139898380D01*
X98925238Y-139898380D02*
X98925238Y-138898380D01*
X98830000Y-139041238D01*
X98734761Y-139136476D01*
X98639523Y-139184095D01*
X99830000Y-138898380D02*
X99925238Y-138898380D01*
X100020476Y-138946000D01*
X100068095Y-138993619D01*
X100115714Y-139088857D01*
X100163333Y-139279333D01*
X100163333Y-139517428D01*
X100115714Y-139707904D01*
X100068095Y-139803142D01*
X100020476Y-139850761D01*
X99925238Y-139898380D01*
X99830000Y-139898380D01*
X99734761Y-139850761D01*
X99687142Y-139803142D01*
X99639523Y-139707904D01*
X99591904Y-139517428D01*
X99591904Y-139279333D01*
X99639523Y-139088857D01*
X99687142Y-138993619D01*
X99734761Y-138946000D01*
X99830000Y-138898380D01*
X100782380Y-138898380D02*
X100877619Y-138898380D01*
X100972857Y-138946000D01*
X101020476Y-138993619D01*
X101068095Y-139088857D01*
X101115714Y-139279333D01*
X101115714Y-139517428D01*
X101068095Y-139707904D01*
X101020476Y-139803142D01*
X100972857Y-139850761D01*
X100877619Y-139898380D01*
X100782380Y-139898380D01*
X100687142Y-139850761D01*
X100639523Y-139803142D01*
X100591904Y-139707904D01*
X100544285Y-139517428D01*
X100544285Y-139279333D01*
X100591904Y-139088857D01*
X100639523Y-138993619D01*
X100687142Y-138946000D01*
X100782380Y-138898380D01*
X101544285Y-139231714D02*
X101544285Y-139898380D01*
X101544285Y-139326952D02*
X101591904Y-139279333D01*
X101687142Y-139231714D01*
X101830000Y-139231714D01*
X101925238Y-139279333D01*
X101972857Y-139374571D01*
X101972857Y-139898380D01*
X105211714Y-59888380D02*
X105211714Y-58888380D01*
X105449809Y-58888380D01*
X105592666Y-58936000D01*
X105687904Y-59031238D01*
X105735523Y-59126476D01*
X105783142Y-59316952D01*
X105783142Y-59459809D01*
X105735523Y-59650285D01*
X105687904Y-59745523D01*
X105592666Y-59840761D01*
X105449809Y-59888380D01*
X105211714Y-59888380D01*
X106735523Y-59888380D02*
X106164095Y-59888380D01*
X106449809Y-59888380D02*
X106449809Y-58888380D01*
X106354571Y-59031238D01*
X106259333Y-59126476D01*
X106164095Y-59174095D01*
X107687904Y-59888380D02*
X107116476Y-59888380D01*
X107402190Y-59888380D02*
X107402190Y-58888380D01*
X107306952Y-59031238D01*
X107211714Y-59126476D01*
X107116476Y-59174095D01*
X105338714Y-71064380D02*
X105338714Y-70064380D01*
X105576809Y-70064380D01*
X105719666Y-70112000D01*
X105814904Y-70207238D01*
X105862523Y-70302476D01*
X105910142Y-70492952D01*
X105910142Y-70635809D01*
X105862523Y-70826285D01*
X105814904Y-70921523D01*
X105719666Y-71016761D01*
X105576809Y-71064380D01*
X105338714Y-71064380D01*
X106862523Y-71064380D02*
X106291095Y-71064380D01*
X106576809Y-71064380D02*
X106576809Y-70064380D01*
X106481571Y-70207238D01*
X106386333Y-70302476D01*
X106291095Y-70350095D01*
X107243476Y-70159619D02*
X107291095Y-70112000D01*
X107386333Y-70064380D01*
X107624428Y-70064380D01*
X107719666Y-70112000D01*
X107767285Y-70159619D01*
X107814904Y-70254857D01*
X107814904Y-70350095D01*
X107767285Y-70492952D01*
X107195857Y-71064380D01*
X107814904Y-71064380D01*
D12*
X112534571Y-70985904D02*
X112534571Y-70185904D01*
X112725047Y-70185904D01*
X112839333Y-70224000D01*
X112915523Y-70300190D01*
X112953619Y-70376380D01*
X112991714Y-70528761D01*
X112991714Y-70643047D01*
X112953619Y-70795428D01*
X112915523Y-70871619D01*
X112839333Y-70947809D01*
X112725047Y-70985904D01*
X112534571Y-70985904D01*
X113753619Y-70985904D02*
X113296476Y-70985904D01*
X113525047Y-70985904D02*
X113525047Y-70185904D01*
X113448857Y-70300190D01*
X113372666Y-70376380D01*
X113296476Y-70414476D01*
X114058380Y-70262095D02*
X114096476Y-70224000D01*
X114172666Y-70185904D01*
X114363142Y-70185904D01*
X114439333Y-70224000D01*
X114477428Y-70262095D01*
X114515523Y-70338285D01*
X114515523Y-70414476D01*
X114477428Y-70528761D01*
X114020285Y-70985904D01*
X114515523Y-70985904D01*
D15*
X105465714Y-81351380D02*
X105465714Y-80351380D01*
X105703809Y-80351380D01*
X105846666Y-80399000D01*
X105941904Y-80494238D01*
X105989523Y-80589476D01*
X106037142Y-80779952D01*
X106037142Y-80922809D01*
X105989523Y-81113285D01*
X105941904Y-81208523D01*
X105846666Y-81303761D01*
X105703809Y-81351380D01*
X105465714Y-81351380D01*
X106989523Y-81351380D02*
X106418095Y-81351380D01*
X106703809Y-81351380D02*
X106703809Y-80351380D01*
X106608571Y-80494238D01*
X106513333Y-80589476D01*
X106418095Y-80637095D01*
X107322857Y-80351380D02*
X107941904Y-80351380D01*
X107608571Y-80732333D01*
X107751428Y-80732333D01*
X107846666Y-80779952D01*
X107894285Y-80827571D01*
X107941904Y-80922809D01*
X107941904Y-81160904D01*
X107894285Y-81256142D01*
X107846666Y-81303761D01*
X107751428Y-81351380D01*
X107465714Y-81351380D01*
X107370476Y-81303761D01*
X107322857Y-81256142D01*
X105465714Y-91511380D02*
X105465714Y-90511380D01*
X105703809Y-90511380D01*
X105846666Y-90559000D01*
X105941904Y-90654238D01*
X105989523Y-90749476D01*
X106037142Y-90939952D01*
X106037142Y-91082809D01*
X105989523Y-91273285D01*
X105941904Y-91368523D01*
X105846666Y-91463761D01*
X105703809Y-91511380D01*
X105465714Y-91511380D01*
X106989523Y-91511380D02*
X106418095Y-91511380D01*
X106703809Y-91511380D02*
X106703809Y-90511380D01*
X106608571Y-90654238D01*
X106513333Y-90749476D01*
X106418095Y-90797095D01*
X107846666Y-90844714D02*
X107846666Y-91511380D01*
X107608571Y-90463761D02*
X107370476Y-91178047D01*
X107989523Y-91178047D01*
X105338714Y-101544380D02*
X105338714Y-100544380D01*
X105576809Y-100544380D01*
X105719666Y-100592000D01*
X105814904Y-100687238D01*
X105862523Y-100782476D01*
X105910142Y-100972952D01*
X105910142Y-101115809D01*
X105862523Y-101306285D01*
X105814904Y-101401523D01*
X105719666Y-101496761D01*
X105576809Y-101544380D01*
X105338714Y-101544380D01*
X106862523Y-101544380D02*
X106291095Y-101544380D01*
X106576809Y-101544380D02*
X106576809Y-100544380D01*
X106481571Y-100687238D01*
X106386333Y-100782476D01*
X106291095Y-100830095D01*
X107767285Y-100544380D02*
X107291095Y-100544380D01*
X107243476Y-101020571D01*
X107291095Y-100972952D01*
X107386333Y-100925333D01*
X107624428Y-100925333D01*
X107719666Y-100972952D01*
X107767285Y-101020571D01*
X107814904Y-101115809D01*
X107814904Y-101353904D01*
X107767285Y-101449142D01*
X107719666Y-101496761D01*
X107624428Y-101544380D01*
X107386333Y-101544380D01*
X107291095Y-101496761D01*
X107243476Y-101449142D01*
X105465714Y-111831380D02*
X105465714Y-110831380D01*
X105703809Y-110831380D01*
X105846666Y-110879000D01*
X105941904Y-110974238D01*
X105989523Y-111069476D01*
X106037142Y-111259952D01*
X106037142Y-111402809D01*
X105989523Y-111593285D01*
X105941904Y-111688523D01*
X105846666Y-111783761D01*
X105703809Y-111831380D01*
X105465714Y-111831380D01*
X106989523Y-111831380D02*
X106418095Y-111831380D01*
X106703809Y-111831380D02*
X106703809Y-110831380D01*
X106608571Y-110974238D01*
X106513333Y-111069476D01*
X106418095Y-111117095D01*
X107846666Y-110831380D02*
X107656190Y-110831380D01*
X107560952Y-110879000D01*
X107513333Y-110926619D01*
X107418095Y-111069476D01*
X107370476Y-111259952D01*
X107370476Y-111640904D01*
X107418095Y-111736142D01*
X107465714Y-111783761D01*
X107560952Y-111831380D01*
X107751428Y-111831380D01*
X107846666Y-111783761D01*
X107894285Y-111736142D01*
X107941904Y-111640904D01*
X107941904Y-111402809D01*
X107894285Y-111307571D01*
X107846666Y-111259952D01*
X107751428Y-111212333D01*
X107560952Y-111212333D01*
X107465714Y-111259952D01*
X107418095Y-111307571D01*
X107370476Y-111402809D01*
X105084714Y-121991380D02*
X105084714Y-120991380D01*
X105322809Y-120991380D01*
X105465666Y-121039000D01*
X105560904Y-121134238D01*
X105608523Y-121229476D01*
X105656142Y-121419952D01*
X105656142Y-121562809D01*
X105608523Y-121753285D01*
X105560904Y-121848523D01*
X105465666Y-121943761D01*
X105322809Y-121991380D01*
X105084714Y-121991380D01*
X106608523Y-121991380D02*
X106037095Y-121991380D01*
X106322809Y-121991380D02*
X106322809Y-120991380D01*
X106227571Y-121134238D01*
X106132333Y-121229476D01*
X106037095Y-121277095D01*
X106941857Y-120991380D02*
X107608523Y-120991380D01*
X107179952Y-121991380D01*
X104830714Y-132024380D02*
X104830714Y-131024380D01*
X105068809Y-131024380D01*
X105211666Y-131072000D01*
X105306904Y-131167238D01*
X105354523Y-131262476D01*
X105402142Y-131452952D01*
X105402142Y-131595809D01*
X105354523Y-131786285D01*
X105306904Y-131881523D01*
X105211666Y-131976761D01*
X105068809Y-132024380D01*
X104830714Y-132024380D01*
X106354523Y-132024380D02*
X105783095Y-132024380D01*
X106068809Y-132024380D02*
X106068809Y-131024380D01*
X105973571Y-131167238D01*
X105878333Y-131262476D01*
X105783095Y-131310095D01*
X106925952Y-131452952D02*
X106830714Y-131405333D01*
X106783095Y-131357714D01*
X106735476Y-131262476D01*
X106735476Y-131214857D01*
X106783095Y-131119619D01*
X106830714Y-131072000D01*
X106925952Y-131024380D01*
X107116428Y-131024380D01*
X107211666Y-131072000D01*
X107259285Y-131119619D01*
X107306904Y-131214857D01*
X107306904Y-131262476D01*
X107259285Y-131357714D01*
X107211666Y-131405333D01*
X107116428Y-131452952D01*
X106925952Y-131452952D01*
X106830714Y-131500571D01*
X106783095Y-131548190D01*
X106735476Y-131643428D01*
X106735476Y-131833904D01*
X106783095Y-131929142D01*
X106830714Y-131976761D01*
X106925952Y-132024380D01*
X107116428Y-132024380D01*
X107211666Y-131976761D01*
X107259285Y-131929142D01*
X107306904Y-131833904D01*
X107306904Y-131643428D01*
X107259285Y-131548190D01*
X107211666Y-131500571D01*
X107116428Y-131452952D01*
D12*
X80562571Y-60432904D02*
X80562571Y-59632904D01*
X80753047Y-59632904D01*
X80867333Y-59671000D01*
X80943523Y-59747190D01*
X80981619Y-59823380D01*
X81019714Y-59975761D01*
X81019714Y-60090047D01*
X80981619Y-60242428D01*
X80943523Y-60318619D01*
X80867333Y-60394809D01*
X80753047Y-60432904D01*
X80562571Y-60432904D01*
X81324476Y-59709095D02*
X81362571Y-59671000D01*
X81438761Y-59632904D01*
X81629238Y-59632904D01*
X81705428Y-59671000D01*
X81743523Y-59709095D01*
X81781619Y-59785285D01*
X81781619Y-59861476D01*
X81743523Y-59975761D01*
X81286380Y-60432904D01*
X81781619Y-60432904D01*
X82048285Y-59632904D02*
X82581619Y-59632904D01*
X82238761Y-60432904D01*
X80308571Y-71100904D02*
X80308571Y-70300904D01*
X80499047Y-70300904D01*
X80613333Y-70339000D01*
X80689523Y-70415190D01*
X80727619Y-70491380D01*
X80765714Y-70643761D01*
X80765714Y-70758047D01*
X80727619Y-70910428D01*
X80689523Y-70986619D01*
X80613333Y-71062809D01*
X80499047Y-71100904D01*
X80308571Y-71100904D01*
X81070476Y-70377095D02*
X81108571Y-70339000D01*
X81184761Y-70300904D01*
X81375238Y-70300904D01*
X81451428Y-70339000D01*
X81489523Y-70377095D01*
X81527619Y-70453285D01*
X81527619Y-70529476D01*
X81489523Y-70643761D01*
X81032380Y-71100904D01*
X81527619Y-71100904D01*
X81984761Y-70643761D02*
X81908571Y-70605666D01*
X81870476Y-70567571D01*
X81832380Y-70491380D01*
X81832380Y-70453285D01*
X81870476Y-70377095D01*
X81908571Y-70339000D01*
X81984761Y-70300904D01*
X82137142Y-70300904D01*
X82213333Y-70339000D01*
X82251428Y-70377095D01*
X82289523Y-70453285D01*
X82289523Y-70491380D01*
X82251428Y-70567571D01*
X82213333Y-70605666D01*
X82137142Y-70643761D01*
X81984761Y-70643761D01*
X81908571Y-70681857D01*
X81870476Y-70719952D01*
X81832380Y-70796142D01*
X81832380Y-70948523D01*
X81870476Y-71024714D01*
X81908571Y-71062809D01*
X81984761Y-71100904D01*
X82137142Y-71100904D01*
X82213333Y-71062809D01*
X82251428Y-71024714D01*
X82289523Y-70948523D01*
X82289523Y-70796142D01*
X82251428Y-70719952D01*
X82213333Y-70681857D01*
X82137142Y-70643761D01*
X80308571Y-81260904D02*
X80308571Y-80460904D01*
X80499047Y-80460904D01*
X80613333Y-80499000D01*
X80689523Y-80575190D01*
X80727619Y-80651380D01*
X80765714Y-80803761D01*
X80765714Y-80918047D01*
X80727619Y-81070428D01*
X80689523Y-81146619D01*
X80613333Y-81222809D01*
X80499047Y-81260904D01*
X80308571Y-81260904D01*
X81070476Y-80537095D02*
X81108571Y-80499000D01*
X81184761Y-80460904D01*
X81375238Y-80460904D01*
X81451428Y-80499000D01*
X81489523Y-80537095D01*
X81527619Y-80613285D01*
X81527619Y-80689476D01*
X81489523Y-80803761D01*
X81032380Y-81260904D01*
X81527619Y-81260904D01*
X81908571Y-81260904D02*
X82060952Y-81260904D01*
X82137142Y-81222809D01*
X82175238Y-81184714D01*
X82251428Y-81070428D01*
X82289523Y-80918047D01*
X82289523Y-80613285D01*
X82251428Y-80537095D01*
X82213333Y-80499000D01*
X82137142Y-80460904D01*
X81984761Y-80460904D01*
X81908571Y-80499000D01*
X81870476Y-80537095D01*
X81832380Y-80613285D01*
X81832380Y-80803761D01*
X81870476Y-80879952D01*
X81908571Y-80918047D01*
X81984761Y-80956142D01*
X82137142Y-80956142D01*
X82213333Y-80918047D01*
X82251428Y-80879952D01*
X82289523Y-80803761D01*
X80435571Y-91293904D02*
X80435571Y-90493904D01*
X80626047Y-90493904D01*
X80740333Y-90532000D01*
X80816523Y-90608190D01*
X80854619Y-90684380D01*
X80892714Y-90836761D01*
X80892714Y-90951047D01*
X80854619Y-91103428D01*
X80816523Y-91179619D01*
X80740333Y-91255809D01*
X80626047Y-91293904D01*
X80435571Y-91293904D01*
X81159380Y-90493904D02*
X81654619Y-90493904D01*
X81387952Y-90798666D01*
X81502238Y-90798666D01*
X81578428Y-90836761D01*
X81616523Y-90874857D01*
X81654619Y-90951047D01*
X81654619Y-91141523D01*
X81616523Y-91217714D01*
X81578428Y-91255809D01*
X81502238Y-91293904D01*
X81273666Y-91293904D01*
X81197476Y-91255809D01*
X81159380Y-91217714D01*
X82149857Y-90493904D02*
X82226047Y-90493904D01*
X82302238Y-90532000D01*
X82340333Y-90570095D01*
X82378428Y-90646285D01*
X82416523Y-90798666D01*
X82416523Y-90989142D01*
X82378428Y-91141523D01*
X82340333Y-91217714D01*
X82302238Y-91255809D01*
X82226047Y-91293904D01*
X82149857Y-91293904D01*
X82073666Y-91255809D01*
X82035571Y-91217714D01*
X81997476Y-91141523D01*
X81959380Y-90989142D01*
X81959380Y-90798666D01*
X81997476Y-90646285D01*
X82035571Y-90570095D01*
X82073666Y-90532000D01*
X82149857Y-90493904D01*
X80689571Y-101453904D02*
X80689571Y-100653904D01*
X80880047Y-100653904D01*
X80994333Y-100692000D01*
X81070523Y-100768190D01*
X81108619Y-100844380D01*
X81146714Y-100996761D01*
X81146714Y-101111047D01*
X81108619Y-101263428D01*
X81070523Y-101339619D01*
X80994333Y-101415809D01*
X80880047Y-101453904D01*
X80689571Y-101453904D01*
X81413380Y-100653904D02*
X81908619Y-100653904D01*
X81641952Y-100958666D01*
X81756238Y-100958666D01*
X81832428Y-100996761D01*
X81870523Y-101034857D01*
X81908619Y-101111047D01*
X81908619Y-101301523D01*
X81870523Y-101377714D01*
X81832428Y-101415809D01*
X81756238Y-101453904D01*
X81527666Y-101453904D01*
X81451476Y-101415809D01*
X81413380Y-101377714D01*
X82670523Y-101453904D02*
X82213380Y-101453904D01*
X82441952Y-101453904D02*
X82441952Y-100653904D01*
X82365761Y-100768190D01*
X82289571Y-100844380D01*
X82213380Y-100882476D01*
X80562571Y-111486904D02*
X80562571Y-110686904D01*
X80753047Y-110686904D01*
X80867333Y-110725000D01*
X80943523Y-110801190D01*
X80981619Y-110877380D01*
X81019714Y-111029761D01*
X81019714Y-111144047D01*
X80981619Y-111296428D01*
X80943523Y-111372619D01*
X80867333Y-111448809D01*
X80753047Y-111486904D01*
X80562571Y-111486904D01*
X81286380Y-110686904D02*
X81781619Y-110686904D01*
X81514952Y-110991666D01*
X81629238Y-110991666D01*
X81705428Y-111029761D01*
X81743523Y-111067857D01*
X81781619Y-111144047D01*
X81781619Y-111334523D01*
X81743523Y-111410714D01*
X81705428Y-111448809D01*
X81629238Y-111486904D01*
X81400666Y-111486904D01*
X81324476Y-111448809D01*
X81286380Y-111410714D01*
X82086380Y-110763095D02*
X82124476Y-110725000D01*
X82200666Y-110686904D01*
X82391142Y-110686904D01*
X82467333Y-110725000D01*
X82505428Y-110763095D01*
X82543523Y-110839285D01*
X82543523Y-110915476D01*
X82505428Y-111029761D01*
X82048285Y-111486904D01*
X82543523Y-111486904D01*
X80435571Y-121773904D02*
X80435571Y-120973904D01*
X80626047Y-120973904D01*
X80740333Y-121012000D01*
X80816523Y-121088190D01*
X80854619Y-121164380D01*
X80892714Y-121316761D01*
X80892714Y-121431047D01*
X80854619Y-121583428D01*
X80816523Y-121659619D01*
X80740333Y-121735809D01*
X80626047Y-121773904D01*
X80435571Y-121773904D01*
X81159380Y-120973904D02*
X81654619Y-120973904D01*
X81387952Y-121278666D01*
X81502238Y-121278666D01*
X81578428Y-121316761D01*
X81616523Y-121354857D01*
X81654619Y-121431047D01*
X81654619Y-121621523D01*
X81616523Y-121697714D01*
X81578428Y-121735809D01*
X81502238Y-121773904D01*
X81273666Y-121773904D01*
X81197476Y-121735809D01*
X81159380Y-121697714D01*
X81921285Y-120973904D02*
X82416523Y-120973904D01*
X82149857Y-121278666D01*
X82264142Y-121278666D01*
X82340333Y-121316761D01*
X82378428Y-121354857D01*
X82416523Y-121431047D01*
X82416523Y-121621523D01*
X82378428Y-121697714D01*
X82340333Y-121735809D01*
X82264142Y-121773904D01*
X82035571Y-121773904D01*
X81959380Y-121735809D01*
X81921285Y-121697714D01*
X80689571Y-131945904D02*
X80689571Y-131145904D01*
X80880047Y-131145904D01*
X80994333Y-131184000D01*
X81070523Y-131260190D01*
X81108619Y-131336380D01*
X81146714Y-131488761D01*
X81146714Y-131603047D01*
X81108619Y-131755428D01*
X81070523Y-131831619D01*
X80994333Y-131907809D01*
X80880047Y-131945904D01*
X80689571Y-131945904D01*
X81413380Y-131145904D02*
X81908619Y-131145904D01*
X81641952Y-131450666D01*
X81756238Y-131450666D01*
X81832428Y-131488761D01*
X81870523Y-131526857D01*
X81908619Y-131603047D01*
X81908619Y-131793523D01*
X81870523Y-131869714D01*
X81832428Y-131907809D01*
X81756238Y-131945904D01*
X81527666Y-131945904D01*
X81451476Y-131907809D01*
X81413380Y-131869714D01*
X82594333Y-131412571D02*
X82594333Y-131945904D01*
X82403857Y-131107809D02*
X82213380Y-131679238D01*
X82708619Y-131679238D01*
D15*
X116927333Y-68397380D02*
X116594000Y-67921190D01*
X116355904Y-68397380D02*
X116355904Y-67397380D01*
X116736857Y-67397380D01*
X116832095Y-67445000D01*
X116879714Y-67492619D01*
X116927333Y-67587857D01*
X116927333Y-67730714D01*
X116879714Y-67825952D01*
X116832095Y-67873571D01*
X116736857Y-67921190D01*
X116355904Y-67921190D01*
X117879714Y-68397380D02*
X117308285Y-68397380D01*
X117594000Y-68397380D02*
X117594000Y-67397380D01*
X117498761Y-67540238D01*
X117403523Y-67635476D01*
X117308285Y-67683095D01*
X109132714Y-68651380D02*
X108561285Y-68651380D01*
X108847000Y-68651380D02*
X108847000Y-67651380D01*
X108751761Y-67794238D01*
X108656523Y-67889476D01*
X108561285Y-67937095D01*
X109561285Y-68651380D02*
X109561285Y-67651380D01*
X110132714Y-68651380D02*
X109704142Y-68079952D01*
X110132714Y-67651380D02*
X109561285Y-68222809D01*
X116800333Y-78684380D02*
X116467000Y-78208190D01*
X116228904Y-78684380D02*
X116228904Y-77684380D01*
X116609857Y-77684380D01*
X116705095Y-77732000D01*
X116752714Y-77779619D01*
X116800333Y-77874857D01*
X116800333Y-78017714D01*
X116752714Y-78112952D01*
X116705095Y-78160571D01*
X116609857Y-78208190D01*
X116228904Y-78208190D01*
X117181285Y-77779619D02*
X117228904Y-77732000D01*
X117324142Y-77684380D01*
X117562238Y-77684380D01*
X117657476Y-77732000D01*
X117705095Y-77779619D01*
X117752714Y-77874857D01*
X117752714Y-77970095D01*
X117705095Y-78112952D01*
X117133666Y-78684380D01*
X117752714Y-78684380D01*
X109005714Y-78684380D02*
X108434285Y-78684380D01*
X108720000Y-78684380D02*
X108720000Y-77684380D01*
X108624761Y-77827238D01*
X108529523Y-77922476D01*
X108434285Y-77970095D01*
X109434285Y-78684380D02*
X109434285Y-77684380D01*
X110005714Y-78684380D02*
X109577142Y-78112952D01*
X110005714Y-77684380D02*
X109434285Y-78255809D01*
X116673333Y-88717380D02*
X116340000Y-88241190D01*
X116101904Y-88717380D02*
X116101904Y-87717380D01*
X116482857Y-87717380D01*
X116578095Y-87765000D01*
X116625714Y-87812619D01*
X116673333Y-87907857D01*
X116673333Y-88050714D01*
X116625714Y-88145952D01*
X116578095Y-88193571D01*
X116482857Y-88241190D01*
X116101904Y-88241190D01*
X117006666Y-87717380D02*
X117625714Y-87717380D01*
X117292380Y-88098333D01*
X117435238Y-88098333D01*
X117530476Y-88145952D01*
X117578095Y-88193571D01*
X117625714Y-88288809D01*
X117625714Y-88526904D01*
X117578095Y-88622142D01*
X117530476Y-88669761D01*
X117435238Y-88717380D01*
X117149523Y-88717380D01*
X117054285Y-88669761D01*
X117006666Y-88622142D01*
X108878714Y-88717380D02*
X108307285Y-88717380D01*
X108593000Y-88717380D02*
X108593000Y-87717380D01*
X108497761Y-87860238D01*
X108402523Y-87955476D01*
X108307285Y-88003095D01*
X109307285Y-88717380D02*
X109307285Y-87717380D01*
X109878714Y-88717380D02*
X109450142Y-88145952D01*
X109878714Y-87717380D02*
X109307285Y-88288809D01*
X116673333Y-99004380D02*
X116340000Y-98528190D01*
X116101904Y-99004380D02*
X116101904Y-98004380D01*
X116482857Y-98004380D01*
X116578095Y-98052000D01*
X116625714Y-98099619D01*
X116673333Y-98194857D01*
X116673333Y-98337714D01*
X116625714Y-98432952D01*
X116578095Y-98480571D01*
X116482857Y-98528190D01*
X116101904Y-98528190D01*
X117530476Y-98337714D02*
X117530476Y-99004380D01*
X117292380Y-97956761D02*
X117054285Y-98671047D01*
X117673333Y-98671047D01*
X109181714Y-99004380D02*
X108610285Y-99004380D01*
X108896000Y-99004380D02*
X108896000Y-98004380D01*
X108800761Y-98147238D01*
X108705523Y-98242476D01*
X108610285Y-98290095D01*
X109610285Y-99004380D02*
X109610285Y-98004380D01*
X110181714Y-99004380D02*
X109753142Y-98432952D01*
X110181714Y-98004380D02*
X109610285Y-98575809D01*
X116673333Y-109164380D02*
X116340000Y-108688190D01*
X116101904Y-109164380D02*
X116101904Y-108164380D01*
X116482857Y-108164380D01*
X116578095Y-108212000D01*
X116625714Y-108259619D01*
X116673333Y-108354857D01*
X116673333Y-108497714D01*
X116625714Y-108592952D01*
X116578095Y-108640571D01*
X116482857Y-108688190D01*
X116101904Y-108688190D01*
X117578095Y-108164380D02*
X117101904Y-108164380D01*
X117054285Y-108640571D01*
X117101904Y-108592952D01*
X117197142Y-108545333D01*
X117435238Y-108545333D01*
X117530476Y-108592952D01*
X117578095Y-108640571D01*
X117625714Y-108735809D01*
X117625714Y-108973904D01*
X117578095Y-109069142D01*
X117530476Y-109116761D01*
X117435238Y-109164380D01*
X117197142Y-109164380D01*
X117101904Y-109116761D01*
X117054285Y-109069142D01*
X109181714Y-109291380D02*
X108610285Y-109291380D01*
X108896000Y-109291380D02*
X108896000Y-108291380D01*
X108800761Y-108434238D01*
X108705523Y-108529476D01*
X108610285Y-108577095D01*
X109610285Y-109291380D02*
X109610285Y-108291380D01*
X110181714Y-109291380D02*
X109753142Y-108719952D01*
X110181714Y-108291380D02*
X109610285Y-108862809D01*
X116038333Y-119324380D02*
X115705000Y-118848190D01*
X115466904Y-119324380D02*
X115466904Y-118324380D01*
X115847857Y-118324380D01*
X115943095Y-118372000D01*
X115990714Y-118419619D01*
X116038333Y-118514857D01*
X116038333Y-118657714D01*
X115990714Y-118752952D01*
X115943095Y-118800571D01*
X115847857Y-118848190D01*
X115466904Y-118848190D01*
X116895476Y-118324380D02*
X116705000Y-118324380D01*
X116609761Y-118372000D01*
X116562142Y-118419619D01*
X116466904Y-118562476D01*
X116419285Y-118752952D01*
X116419285Y-119133904D01*
X116466904Y-119229142D01*
X116514523Y-119276761D01*
X116609761Y-119324380D01*
X116800238Y-119324380D01*
X116895476Y-119276761D01*
X116943095Y-119229142D01*
X116990714Y-119133904D01*
X116990714Y-118895809D01*
X116943095Y-118800571D01*
X116895476Y-118752952D01*
X116800238Y-118705333D01*
X116609761Y-118705333D01*
X116514523Y-118752952D01*
X116466904Y-118800571D01*
X116419285Y-118895809D01*
X108673714Y-119070380D02*
X108102285Y-119070380D01*
X108388000Y-119070380D02*
X108388000Y-118070380D01*
X108292761Y-118213238D01*
X108197523Y-118308476D01*
X108102285Y-118356095D01*
X109102285Y-119070380D02*
X109102285Y-118070380D01*
X109673714Y-119070380D02*
X109245142Y-118498952D01*
X109673714Y-118070380D02*
X109102285Y-118641809D01*
X116165333Y-129484380D02*
X115832000Y-129008190D01*
X115593904Y-129484380D02*
X115593904Y-128484380D01*
X115974857Y-128484380D01*
X116070095Y-128532000D01*
X116117714Y-128579619D01*
X116165333Y-128674857D01*
X116165333Y-128817714D01*
X116117714Y-128912952D01*
X116070095Y-128960571D01*
X115974857Y-129008190D01*
X115593904Y-129008190D01*
X116498666Y-128484380D02*
X117165333Y-128484380D01*
X116736761Y-129484380D01*
X108673714Y-129484380D02*
X108102285Y-129484380D01*
X108388000Y-129484380D02*
X108388000Y-128484380D01*
X108292761Y-128627238D01*
X108197523Y-128722476D01*
X108102285Y-128770095D01*
X109102285Y-129484380D02*
X109102285Y-128484380D01*
X109673714Y-129484380D02*
X109245142Y-128912952D01*
X109673714Y-128484380D02*
X109102285Y-129055809D01*
X121626333Y-138755380D02*
X121293000Y-138279190D01*
X121054904Y-138755380D02*
X121054904Y-137755380D01*
X121435857Y-137755380D01*
X121531095Y-137803000D01*
X121578714Y-137850619D01*
X121626333Y-137945857D01*
X121626333Y-138088714D01*
X121578714Y-138183952D01*
X121531095Y-138231571D01*
X121435857Y-138279190D01*
X121054904Y-138279190D01*
X122197761Y-138183952D02*
X122102523Y-138136333D01*
X122054904Y-138088714D01*
X122007285Y-137993476D01*
X122007285Y-137945857D01*
X122054904Y-137850619D01*
X122102523Y-137803000D01*
X122197761Y-137755380D01*
X122388238Y-137755380D01*
X122483476Y-137803000D01*
X122531095Y-137850619D01*
X122578714Y-137945857D01*
X122578714Y-137993476D01*
X122531095Y-138088714D01*
X122483476Y-138136333D01*
X122388238Y-138183952D01*
X122197761Y-138183952D01*
X122102523Y-138231571D01*
X122054904Y-138279190D01*
X122007285Y-138374428D01*
X122007285Y-138564904D01*
X122054904Y-138660142D01*
X122102523Y-138707761D01*
X122197761Y-138755380D01*
X122388238Y-138755380D01*
X122483476Y-138707761D01*
X122531095Y-138660142D01*
X122578714Y-138564904D01*
X122578714Y-138374428D01*
X122531095Y-138279190D01*
X122483476Y-138231571D01*
X122388238Y-138183952D01*
X114339714Y-138628380D02*
X113768285Y-138628380D01*
X114054000Y-138628380D02*
X114054000Y-137628380D01*
X113958761Y-137771238D01*
X113863523Y-137866476D01*
X113768285Y-137914095D01*
X114768285Y-138628380D02*
X114768285Y-137628380D01*
X115339714Y-138628380D02*
X114911142Y-138056952D01*
X115339714Y-137628380D02*
X114768285Y-138199809D01*
X121626333Y-138755380D02*
X121293000Y-138279190D01*
X121054904Y-138755380D02*
X121054904Y-137755380D01*
X121435857Y-137755380D01*
X121531095Y-137803000D01*
X121578714Y-137850619D01*
X121626333Y-137945857D01*
X121626333Y-138088714D01*
X121578714Y-138183952D01*
X121531095Y-138231571D01*
X121435857Y-138279190D01*
X121054904Y-138279190D01*
X122197761Y-138183952D02*
X122102523Y-138136333D01*
X122054904Y-138088714D01*
X122007285Y-137993476D01*
X122007285Y-137945857D01*
X122054904Y-137850619D01*
X122102523Y-137803000D01*
X122197761Y-137755380D01*
X122388238Y-137755380D01*
X122483476Y-137803000D01*
X122531095Y-137850619D01*
X122578714Y-137945857D01*
X122578714Y-137993476D01*
X122531095Y-138088714D01*
X122483476Y-138136333D01*
X122388238Y-138183952D01*
X122197761Y-138183952D01*
X122102523Y-138231571D01*
X122054904Y-138279190D01*
X122007285Y-138374428D01*
X122007285Y-138564904D01*
X122054904Y-138660142D01*
X122102523Y-138707761D01*
X122197761Y-138755380D01*
X122388238Y-138755380D01*
X122483476Y-138707761D01*
X122531095Y-138660142D01*
X122578714Y-138564904D01*
X122578714Y-138374428D01*
X122531095Y-138279190D01*
X122483476Y-138231571D01*
X122388238Y-138183952D01*
X121626333Y-141549380D02*
X121293000Y-141073190D01*
X121054904Y-141549380D02*
X121054904Y-140549380D01*
X121435857Y-140549380D01*
X121531095Y-140597000D01*
X121578714Y-140644619D01*
X121626333Y-140739857D01*
X121626333Y-140882714D01*
X121578714Y-140977952D01*
X121531095Y-141025571D01*
X121435857Y-141073190D01*
X121054904Y-141073190D01*
X122102523Y-141549380D02*
X122293000Y-141549380D01*
X122388238Y-141501761D01*
X122435857Y-141454142D01*
X122531095Y-141311285D01*
X122578714Y-141120809D01*
X122578714Y-140739857D01*
X122531095Y-140644619D01*
X122483476Y-140597000D01*
X122388238Y-140549380D01*
X122197761Y-140549380D01*
X122102523Y-140597000D01*
X122054904Y-140644619D01*
X122007285Y-140739857D01*
X122007285Y-140977952D01*
X122054904Y-141073190D01*
X122102523Y-141120809D01*
X122197761Y-141168428D01*
X122388238Y-141168428D01*
X122483476Y-141120809D01*
X122531095Y-141073190D01*
X122578714Y-140977952D01*
X113736523Y-141930380D02*
X113165095Y-141930380D01*
X113450809Y-141930380D02*
X113450809Y-140930380D01*
X113355571Y-141073238D01*
X113260333Y-141168476D01*
X113165095Y-141216095D01*
X114355571Y-140930380D02*
X114450809Y-140930380D01*
X114546047Y-140978000D01*
X114593666Y-141025619D01*
X114641285Y-141120857D01*
X114688904Y-141311333D01*
X114688904Y-141549428D01*
X114641285Y-141739904D01*
X114593666Y-141835142D01*
X114546047Y-141882761D01*
X114450809Y-141930380D01*
X114355571Y-141930380D01*
X114260333Y-141882761D01*
X114212714Y-141835142D01*
X114165095Y-141739904D01*
X114117476Y-141549428D01*
X114117476Y-141311333D01*
X114165095Y-141120857D01*
X114212714Y-141025619D01*
X114260333Y-140978000D01*
X114355571Y-140930380D01*
X115117476Y-141930380D02*
X115117476Y-140930380D01*
X115688904Y-141930380D02*
X115260333Y-141358952D01*
X115688904Y-140930380D02*
X115117476Y-141501809D01*
X88765142Y-68524380D02*
X88431809Y-68048190D01*
X88193714Y-68524380D02*
X88193714Y-67524380D01*
X88574666Y-67524380D01*
X88669904Y-67572000D01*
X88717523Y-67619619D01*
X88765142Y-67714857D01*
X88765142Y-67857714D01*
X88717523Y-67952952D01*
X88669904Y-68000571D01*
X88574666Y-68048190D01*
X88193714Y-68048190D01*
X89717523Y-68524380D02*
X89146095Y-68524380D01*
X89431809Y-68524380D02*
X89431809Y-67524380D01*
X89336571Y-67667238D01*
X89241333Y-67762476D01*
X89146095Y-67810095D01*
X90336571Y-67524380D02*
X90431809Y-67524380D01*
X90527047Y-67572000D01*
X90574666Y-67619619D01*
X90622285Y-67714857D01*
X90669904Y-67905333D01*
X90669904Y-68143428D01*
X90622285Y-68333904D01*
X90574666Y-68429142D01*
X90527047Y-68476761D01*
X90431809Y-68524380D01*
X90336571Y-68524380D01*
X90241333Y-68476761D01*
X90193714Y-68429142D01*
X90146095Y-68333904D01*
X90098476Y-68143428D01*
X90098476Y-67905333D01*
X90146095Y-67714857D01*
X90193714Y-67619619D01*
X90241333Y-67572000D01*
X90336571Y-67524380D01*
X81241714Y-68651380D02*
X80670285Y-68651380D01*
X80956000Y-68651380D02*
X80956000Y-67651380D01*
X80860761Y-67794238D01*
X80765523Y-67889476D01*
X80670285Y-67937095D01*
X81670285Y-68651380D02*
X81670285Y-67651380D01*
X82241714Y-68651380D02*
X81813142Y-68079952D01*
X82241714Y-67651380D02*
X81670285Y-68222809D01*
X88638142Y-78557380D02*
X88304809Y-78081190D01*
X88066714Y-78557380D02*
X88066714Y-77557380D01*
X88447666Y-77557380D01*
X88542904Y-77605000D01*
X88590523Y-77652619D01*
X88638142Y-77747857D01*
X88638142Y-77890714D01*
X88590523Y-77985952D01*
X88542904Y-78033571D01*
X88447666Y-78081190D01*
X88066714Y-78081190D01*
X89590523Y-78557380D02*
X89019095Y-78557380D01*
X89304809Y-78557380D02*
X89304809Y-77557380D01*
X89209571Y-77700238D01*
X89114333Y-77795476D01*
X89019095Y-77843095D01*
X90542904Y-78557380D02*
X89971476Y-78557380D01*
X90257190Y-78557380D02*
X90257190Y-77557380D01*
X90161952Y-77700238D01*
X90066714Y-77795476D01*
X89971476Y-77843095D01*
X81192714Y-78430380D02*
X80621285Y-78430380D01*
X80907000Y-78430380D02*
X80907000Y-77430380D01*
X80811761Y-77573238D01*
X80716523Y-77668476D01*
X80621285Y-77716095D01*
X81621285Y-78430380D02*
X81621285Y-77430380D01*
X82192714Y-78430380D02*
X81764142Y-77858952D01*
X82192714Y-77430380D02*
X81621285Y-78001809D01*
X88638142Y-88844380D02*
X88304809Y-88368190D01*
X88066714Y-88844380D02*
X88066714Y-87844380D01*
X88447666Y-87844380D01*
X88542904Y-87892000D01*
X88590523Y-87939619D01*
X88638142Y-88034857D01*
X88638142Y-88177714D01*
X88590523Y-88272952D01*
X88542904Y-88320571D01*
X88447666Y-88368190D01*
X88066714Y-88368190D01*
X89590523Y-88844380D02*
X89019095Y-88844380D01*
X89304809Y-88844380D02*
X89304809Y-87844380D01*
X89209571Y-87987238D01*
X89114333Y-88082476D01*
X89019095Y-88130095D01*
X89971476Y-87939619D02*
X90019095Y-87892000D01*
X90114333Y-87844380D01*
X90352428Y-87844380D01*
X90447666Y-87892000D01*
X90495285Y-87939619D01*
X90542904Y-88034857D01*
X90542904Y-88130095D01*
X90495285Y-88272952D01*
X89923857Y-88844380D01*
X90542904Y-88844380D01*
X81241714Y-88844380D02*
X80670285Y-88844380D01*
X80956000Y-88844380D02*
X80956000Y-87844380D01*
X80860761Y-87987238D01*
X80765523Y-88082476D01*
X80670285Y-88130095D01*
X81670285Y-88844380D02*
X81670285Y-87844380D01*
X82241714Y-88844380D02*
X81813142Y-88272952D01*
X82241714Y-87844380D02*
X81670285Y-88415809D01*
X88511142Y-98877380D02*
X88177809Y-98401190D01*
X87939714Y-98877380D02*
X87939714Y-97877380D01*
X88320666Y-97877380D01*
X88415904Y-97925000D01*
X88463523Y-97972619D01*
X88511142Y-98067857D01*
X88511142Y-98210714D01*
X88463523Y-98305952D01*
X88415904Y-98353571D01*
X88320666Y-98401190D01*
X87939714Y-98401190D01*
X89463523Y-98877380D02*
X88892095Y-98877380D01*
X89177809Y-98877380D02*
X89177809Y-97877380D01*
X89082571Y-98020238D01*
X88987333Y-98115476D01*
X88892095Y-98163095D01*
X89796857Y-97877380D02*
X90415904Y-97877380D01*
X90082571Y-98258333D01*
X90225428Y-98258333D01*
X90320666Y-98305952D01*
X90368285Y-98353571D01*
X90415904Y-98448809D01*
X90415904Y-98686904D01*
X90368285Y-98782142D01*
X90320666Y-98829761D01*
X90225428Y-98877380D01*
X89939714Y-98877380D01*
X89844476Y-98829761D01*
X89796857Y-98782142D01*
X81192714Y-99004380D02*
X80621285Y-99004380D01*
X80907000Y-99004380D02*
X80907000Y-98004380D01*
X80811761Y-98147238D01*
X80716523Y-98242476D01*
X80621285Y-98290095D01*
X81621285Y-99004380D02*
X81621285Y-98004380D01*
X82192714Y-99004380D02*
X81764142Y-98432952D01*
X82192714Y-98004380D02*
X81621285Y-98575809D01*
X88638142Y-109037380D02*
X88304809Y-108561190D01*
X88066714Y-109037380D02*
X88066714Y-108037380D01*
X88447666Y-108037380D01*
X88542904Y-108085000D01*
X88590523Y-108132619D01*
X88638142Y-108227857D01*
X88638142Y-108370714D01*
X88590523Y-108465952D01*
X88542904Y-108513571D01*
X88447666Y-108561190D01*
X88066714Y-108561190D01*
X89590523Y-109037380D02*
X89019095Y-109037380D01*
X89304809Y-109037380D02*
X89304809Y-108037380D01*
X89209571Y-108180238D01*
X89114333Y-108275476D01*
X89019095Y-108323095D01*
X90447666Y-108370714D02*
X90447666Y-109037380D01*
X90209571Y-107989761D02*
X89971476Y-108704047D01*
X90590523Y-108704047D01*
X80938714Y-109164380D02*
X80367285Y-109164380D01*
X80653000Y-109164380D02*
X80653000Y-108164380D01*
X80557761Y-108307238D01*
X80462523Y-108402476D01*
X80367285Y-108450095D01*
X81367285Y-109164380D02*
X81367285Y-108164380D01*
X81938714Y-109164380D02*
X81510142Y-108592952D01*
X81938714Y-108164380D02*
X81367285Y-108735809D01*
X88638142Y-119197380D02*
X88304809Y-118721190D01*
X88066714Y-119197380D02*
X88066714Y-118197380D01*
X88447666Y-118197380D01*
X88542904Y-118245000D01*
X88590523Y-118292619D01*
X88638142Y-118387857D01*
X88638142Y-118530714D01*
X88590523Y-118625952D01*
X88542904Y-118673571D01*
X88447666Y-118721190D01*
X88066714Y-118721190D01*
X89590523Y-119197380D02*
X89019095Y-119197380D01*
X89304809Y-119197380D02*
X89304809Y-118197380D01*
X89209571Y-118340238D01*
X89114333Y-118435476D01*
X89019095Y-118483095D01*
X90495285Y-118197380D02*
X90019095Y-118197380D01*
X89971476Y-118673571D01*
X90019095Y-118625952D01*
X90114333Y-118578333D01*
X90352428Y-118578333D01*
X90447666Y-118625952D01*
X90495285Y-118673571D01*
X90542904Y-118768809D01*
X90542904Y-119006904D01*
X90495285Y-119102142D01*
X90447666Y-119149761D01*
X90352428Y-119197380D01*
X90114333Y-119197380D01*
X90019095Y-119149761D01*
X89971476Y-119102142D01*
X81192714Y-119324380D02*
X80621285Y-119324380D01*
X80907000Y-119324380D02*
X80907000Y-118324380D01*
X80811761Y-118467238D01*
X80716523Y-118562476D01*
X80621285Y-118610095D01*
X81621285Y-119324380D02*
X81621285Y-118324380D01*
X82192714Y-119324380D02*
X81764142Y-118752952D01*
X82192714Y-118324380D02*
X81621285Y-118895809D01*
X88638142Y-129357380D02*
X88304809Y-128881190D01*
X88066714Y-129357380D02*
X88066714Y-128357380D01*
X88447666Y-128357380D01*
X88542904Y-128405000D01*
X88590523Y-128452619D01*
X88638142Y-128547857D01*
X88638142Y-128690714D01*
X88590523Y-128785952D01*
X88542904Y-128833571D01*
X88447666Y-128881190D01*
X88066714Y-128881190D01*
X89590523Y-129357380D02*
X89019095Y-129357380D01*
X89304809Y-129357380D02*
X89304809Y-128357380D01*
X89209571Y-128500238D01*
X89114333Y-128595476D01*
X89019095Y-128643095D01*
X90447666Y-128357380D02*
X90257190Y-128357380D01*
X90161952Y-128405000D01*
X90114333Y-128452619D01*
X90019095Y-128595476D01*
X89971476Y-128785952D01*
X89971476Y-129166904D01*
X90019095Y-129262142D01*
X90066714Y-129309761D01*
X90161952Y-129357380D01*
X90352428Y-129357380D01*
X90447666Y-129309761D01*
X90495285Y-129262142D01*
X90542904Y-129166904D01*
X90542904Y-128928809D01*
X90495285Y-128833571D01*
X90447666Y-128785952D01*
X90352428Y-128738333D01*
X90161952Y-128738333D01*
X90066714Y-128785952D01*
X90019095Y-128833571D01*
X89971476Y-128928809D01*
X81192714Y-129484380D02*
X80621285Y-129484380D01*
X80907000Y-129484380D02*
X80907000Y-128484380D01*
X80811761Y-128627238D01*
X80716523Y-128722476D01*
X80621285Y-128770095D01*
X81621285Y-129484380D02*
X81621285Y-128484380D01*
X82192714Y-129484380D02*
X81764142Y-128912952D01*
X82192714Y-128484380D02*
X81621285Y-129055809D01*
X89019142Y-139898380D02*
X88685809Y-139422190D01*
X88447714Y-139898380D02*
X88447714Y-138898380D01*
X88828666Y-138898380D01*
X88923904Y-138946000D01*
X88971523Y-138993619D01*
X89019142Y-139088857D01*
X89019142Y-139231714D01*
X88971523Y-139326952D01*
X88923904Y-139374571D01*
X88828666Y-139422190D01*
X88447714Y-139422190D01*
X89971523Y-139898380D02*
X89400095Y-139898380D01*
X89685809Y-139898380D02*
X89685809Y-138898380D01*
X89590571Y-139041238D01*
X89495333Y-139136476D01*
X89400095Y-139184095D01*
X90304857Y-138898380D02*
X90971523Y-138898380D01*
X90542952Y-139898380D01*
X81573714Y-140025380D02*
X81002285Y-140025380D01*
X81288000Y-140025380D02*
X81288000Y-139025380D01*
X81192761Y-139168238D01*
X81097523Y-139263476D01*
X81002285Y-139311095D01*
X82002285Y-140025380D02*
X82002285Y-139025380D01*
X82573714Y-140025380D02*
X82145142Y-139453952D01*
X82573714Y-139025380D02*
X82002285Y-139596809D01*
X118864142Y-147264380D02*
X118530809Y-146788190D01*
X118292714Y-147264380D02*
X118292714Y-146264380D01*
X118673666Y-146264380D01*
X118768904Y-146312000D01*
X118816523Y-146359619D01*
X118864142Y-146454857D01*
X118864142Y-146597714D01*
X118816523Y-146692952D01*
X118768904Y-146740571D01*
X118673666Y-146788190D01*
X118292714Y-146788190D01*
X119816523Y-147264380D02*
X119245095Y-147264380D01*
X119530809Y-147264380D02*
X119530809Y-146264380D01*
X119435571Y-146407238D01*
X119340333Y-146502476D01*
X119245095Y-146550095D01*
X120387952Y-146692952D02*
X120292714Y-146645333D01*
X120245095Y-146597714D01*
X120197476Y-146502476D01*
X120197476Y-146454857D01*
X120245095Y-146359619D01*
X120292714Y-146312000D01*
X120387952Y-146264380D01*
X120578428Y-146264380D01*
X120673666Y-146312000D01*
X120721285Y-146359619D01*
X120768904Y-146454857D01*
X120768904Y-146502476D01*
X120721285Y-146597714D01*
X120673666Y-146645333D01*
X120578428Y-146692952D01*
X120387952Y-146692952D01*
X120292714Y-146740571D01*
X120245095Y-146788190D01*
X120197476Y-146883428D01*
X120197476Y-147073904D01*
X120245095Y-147169142D01*
X120292714Y-147216761D01*
X120387952Y-147264380D01*
X120578428Y-147264380D01*
X120673666Y-147216761D01*
X120721285Y-147169142D01*
X120768904Y-147073904D01*
X120768904Y-146883428D01*
X120721285Y-146788190D01*
X120673666Y-146740571D01*
X120578428Y-146692952D01*
X114085714Y-144724380D02*
X113514285Y-144724380D01*
X113800000Y-144724380D02*
X113800000Y-143724380D01*
X113704761Y-143867238D01*
X113609523Y-143962476D01*
X113514285Y-144010095D01*
X114514285Y-144724380D02*
X114514285Y-143724380D01*
X115085714Y-144724380D02*
X114657142Y-144152952D01*
X115085714Y-143724380D02*
X114514285Y-144295809D01*
X97353380Y-138945857D02*
X96877190Y-139279190D01*
X97353380Y-139517285D02*
X96353380Y-139517285D01*
X96353380Y-139136333D01*
X96401000Y-139041095D01*
X96448619Y-138993476D01*
X96543857Y-138945857D01*
X96686714Y-138945857D01*
X96781952Y-138993476D01*
X96829571Y-139041095D01*
X96877190Y-139136333D01*
X96877190Y-139517285D01*
X97353380Y-137993476D02*
X97353380Y-138564904D01*
X97353380Y-138279190D02*
X96353380Y-138279190D01*
X96496238Y-138374428D01*
X96591476Y-138469666D01*
X96639095Y-138564904D01*
X97353380Y-137517285D02*
X97353380Y-137326809D01*
X97305761Y-137231571D01*
X97258142Y-137183952D01*
X97115285Y-137088714D01*
X96924809Y-137041095D01*
X96543857Y-137041095D01*
X96448619Y-137088714D01*
X96401000Y-137136333D01*
X96353380Y-137231571D01*
X96353380Y-137422047D01*
X96401000Y-137517285D01*
X96448619Y-137564904D01*
X96543857Y-137612523D01*
X96781952Y-137612523D01*
X96877190Y-137564904D01*
X96924809Y-137517285D01*
X96972428Y-137422047D01*
X96972428Y-137231571D01*
X96924809Y-137136333D01*
X96877190Y-137088714D01*
X96781952Y-137041095D01*
X97226380Y-131246476D02*
X97226380Y-131817904D01*
X97226380Y-131532190D02*
X96226380Y-131532190D01*
X96369238Y-131627428D01*
X96464476Y-131722666D01*
X96512095Y-131817904D01*
X96226380Y-130627428D02*
X96226380Y-130532190D01*
X96274000Y-130436952D01*
X96321619Y-130389333D01*
X96416857Y-130341714D01*
X96607333Y-130294095D01*
X96845428Y-130294095D01*
X97035904Y-130341714D01*
X97131142Y-130389333D01*
X97178761Y-130436952D01*
X97226380Y-130532190D01*
X97226380Y-130627428D01*
X97178761Y-130722666D01*
X97131142Y-130770285D01*
X97035904Y-130817904D01*
X96845428Y-130865523D01*
X96607333Y-130865523D01*
X96416857Y-130817904D01*
X96321619Y-130770285D01*
X96274000Y-130722666D01*
X96226380Y-130627428D01*
X97226380Y-129865523D02*
X96226380Y-129865523D01*
X97226380Y-129294095D02*
X96654952Y-129722666D01*
X96226380Y-129294095D02*
X96797809Y-129865523D01*
X93543380Y-142882857D02*
X93067190Y-143216190D01*
X93543380Y-143454285D02*
X92543380Y-143454285D01*
X92543380Y-143073333D01*
X92591000Y-142978095D01*
X92638619Y-142930476D01*
X92733857Y-142882857D01*
X92876714Y-142882857D01*
X92971952Y-142930476D01*
X93019571Y-142978095D01*
X93067190Y-143073333D01*
X93067190Y-143454285D01*
X92638619Y-142501904D02*
X92591000Y-142454285D01*
X92543380Y-142359047D01*
X92543380Y-142120952D01*
X92591000Y-142025714D01*
X92638619Y-141978095D01*
X92733857Y-141930476D01*
X92829095Y-141930476D01*
X92971952Y-141978095D01*
X93543380Y-142549523D01*
X93543380Y-141930476D01*
X92543380Y-141311428D02*
X92543380Y-141216190D01*
X92591000Y-141120952D01*
X92638619Y-141073333D01*
X92733857Y-141025714D01*
X92924333Y-140978095D01*
X93162428Y-140978095D01*
X93352904Y-141025714D01*
X93448142Y-141073333D01*
X93495761Y-141120952D01*
X93543380Y-141216190D01*
X93543380Y-141311428D01*
X93495761Y-141406666D01*
X93448142Y-141454285D01*
X93352904Y-141501904D01*
X93162428Y-141549523D01*
X92924333Y-141549523D01*
X92733857Y-141501904D01*
X92638619Y-141454285D01*
X92591000Y-141406666D01*
X92543380Y-141311428D01*
X93416380Y-150074285D02*
X93416380Y-150645714D01*
X93416380Y-150360000D02*
X92416380Y-150360000D01*
X92559238Y-150455238D01*
X92654476Y-150550476D01*
X92702095Y-150645714D01*
X93416380Y-149645714D02*
X92416380Y-149645714D01*
X93416380Y-149074285D02*
X92844952Y-149502857D01*
X92416380Y-149074285D02*
X92987809Y-149645714D01*
X124277380Y-141612857D02*
X123801190Y-141946190D01*
X124277380Y-142184285D02*
X123277380Y-142184285D01*
X123277380Y-141803333D01*
X123325000Y-141708095D01*
X123372619Y-141660476D01*
X123467857Y-141612857D01*
X123610714Y-141612857D01*
X123705952Y-141660476D01*
X123753571Y-141708095D01*
X123801190Y-141803333D01*
X123801190Y-142184285D01*
X123372619Y-141231904D02*
X123325000Y-141184285D01*
X123277380Y-141089047D01*
X123277380Y-140850952D01*
X123325000Y-140755714D01*
X123372619Y-140708095D01*
X123467857Y-140660476D01*
X123563095Y-140660476D01*
X123705952Y-140708095D01*
X124277380Y-141279523D01*
X124277380Y-140660476D01*
X124277380Y-139708095D02*
X124277380Y-140279523D01*
X124277380Y-139993809D02*
X123277380Y-139993809D01*
X123420238Y-140089047D01*
X123515476Y-140184285D01*
X123563095Y-140279523D01*
X123261380Y-148804285D02*
X123261380Y-149375714D01*
X123261380Y-149090000D02*
X122261380Y-149090000D01*
X122404238Y-149185238D01*
X122499476Y-149280476D01*
X122547095Y-149375714D01*
X123261380Y-148375714D02*
X122261380Y-148375714D01*
X123261380Y-147804285D02*
X122689952Y-148232857D01*
X122261380Y-147804285D02*
X122832809Y-148375714D01*
X105918095Y-152614380D02*
X105918095Y-153423904D01*
X105965714Y-153519142D01*
X106013333Y-153566761D01*
X106108571Y-153614380D01*
X106299047Y-153614380D01*
X106394285Y-153566761D01*
X106441904Y-153519142D01*
X106489523Y-153423904D01*
X106489523Y-152614380D01*
X106918095Y-152709619D02*
X106965714Y-152662000D01*
X107060952Y-152614380D01*
X107299047Y-152614380D01*
X107394285Y-152662000D01*
X107441904Y-152709619D01*
X107489523Y-152804857D01*
X107489523Y-152900095D01*
X107441904Y-153042952D01*
X106870476Y-153614380D01*
X107489523Y-153614380D01*
X99655380Y-150836047D02*
X99655380Y-150264619D01*
X100655380Y-150550333D02*
X99655380Y-150550333D01*
X100655380Y-149455095D02*
X100655380Y-149931285D01*
X99655380Y-149931285D01*
X99655380Y-148931285D02*
X99655380Y-148836047D01*
X99703000Y-148740809D01*
X99750619Y-148693190D01*
X99845857Y-148645571D01*
X100036333Y-148597952D01*
X100274428Y-148597952D01*
X100464904Y-148645571D01*
X100560142Y-148693190D01*
X100607761Y-148740809D01*
X100655380Y-148836047D01*
X100655380Y-148931285D01*
X100607761Y-149026523D01*
X100560142Y-149074142D01*
X100464904Y-149121761D01*
X100274428Y-149169380D01*
X100036333Y-149169380D01*
X99845857Y-149121761D01*
X99750619Y-149074142D01*
X99703000Y-149026523D01*
X99655380Y-148931285D01*
X99655380Y-148264619D02*
X99655380Y-147597952D01*
X100655380Y-148026523D01*
X99750619Y-147264619D02*
X99703000Y-147217000D01*
X99655380Y-147121761D01*
X99655380Y-146883666D01*
X99703000Y-146788428D01*
X99750619Y-146740809D01*
X99845857Y-146693190D01*
X99941095Y-146693190D01*
X100083952Y-146740809D01*
X100655380Y-147312238D01*
X100655380Y-146693190D01*
X95781904Y-101441380D02*
X95781904Y-100441380D01*
X96162857Y-100441380D01*
X96258095Y-100489000D01*
X96305714Y-100536619D01*
X96353333Y-100631857D01*
X96353333Y-100774714D01*
X96305714Y-100869952D01*
X96258095Y-100917571D01*
X96162857Y-100965190D01*
X95781904Y-100965190D01*
X96686666Y-100441380D02*
X97305714Y-100441380D01*
X96972380Y-100822333D01*
X97115238Y-100822333D01*
X97210476Y-100869952D01*
X97258095Y-100917571D01*
X97305714Y-101012809D01*
X97305714Y-101250904D01*
X97258095Y-101346142D01*
X97210476Y-101393761D01*
X97115238Y-101441380D01*
X96829523Y-101441380D01*
X96734285Y-101393761D01*
X96686666Y-101346142D01*
X100861761Y-118093476D02*
X100909380Y-117950619D01*
X100909380Y-117712523D01*
X100861761Y-117617285D01*
X100814142Y-117569666D01*
X100718904Y-117522047D01*
X100623666Y-117522047D01*
X100528428Y-117569666D01*
X100480809Y-117617285D01*
X100433190Y-117712523D01*
X100385571Y-117903000D01*
X100337952Y-117998238D01*
X100290333Y-118045857D01*
X100195095Y-118093476D01*
X100099857Y-118093476D01*
X100004619Y-118045857D01*
X99957000Y-117998238D01*
X99909380Y-117903000D01*
X99909380Y-117664904D01*
X99957000Y-117522047D01*
X99909380Y-117188714D02*
X100909380Y-116950619D01*
X100195095Y-116760142D01*
X100909380Y-116569666D01*
X99909380Y-116331571D01*
X100909380Y-115950619D02*
X99909380Y-115950619D01*
X99909380Y-115617285D02*
X99909380Y-115045857D01*
X100909380Y-115331571D02*
X99909380Y-115331571D01*
X100814142Y-114141095D02*
X100861761Y-114188714D01*
X100909380Y-114331571D01*
X100909380Y-114426809D01*
X100861761Y-114569666D01*
X100766523Y-114664904D01*
X100671285Y-114712523D01*
X100480809Y-114760142D01*
X100337952Y-114760142D01*
X100147476Y-114712523D01*
X100052238Y-114664904D01*
X99957000Y-114569666D01*
X99909380Y-114426809D01*
X99909380Y-114331571D01*
X99957000Y-114188714D01*
X100004619Y-114141095D01*
X100909380Y-113712523D02*
X99909380Y-113712523D01*
X100385571Y-113712523D02*
X100385571Y-113141095D01*
X100909380Y-113141095D02*
X99909380Y-113141095D01*
X101004619Y-112903000D02*
X101004619Y-112141095D01*
X100909380Y-111903000D02*
X99909380Y-111903000D01*
X99909380Y-111522047D01*
X99957000Y-111426809D01*
X100004619Y-111379190D01*
X100099857Y-111331571D01*
X100242714Y-111331571D01*
X100337952Y-111379190D01*
X100385571Y-111426809D01*
X100433190Y-111522047D01*
X100433190Y-111903000D01*
X100623666Y-110950619D02*
X100623666Y-110474428D01*
X100909380Y-111045857D02*
X99909380Y-110712523D01*
X100909380Y-110379190D01*
X100909380Y-110045857D02*
X99909380Y-110045857D01*
X100909380Y-109474428D01*
X99909380Y-109474428D01*
X100385571Y-108998238D02*
X100385571Y-108664904D01*
X100909380Y-108522047D02*
X100909380Y-108998238D01*
X99909380Y-108998238D01*
X99909380Y-108522047D01*
X100909380Y-107617285D02*
X100909380Y-108093476D01*
X99909380Y-108093476D01*
X96972380Y-113387095D02*
X95972380Y-113387095D01*
X95972380Y-113006142D01*
X96020000Y-112910904D01*
X96067619Y-112863285D01*
X96162857Y-112815666D01*
X96305714Y-112815666D01*
X96400952Y-112863285D01*
X96448571Y-112910904D01*
X96496190Y-113006142D01*
X96496190Y-113387095D01*
X95972380Y-112482333D02*
X95972380Y-111863285D01*
X96353333Y-112196619D01*
X96353333Y-112053761D01*
X96400952Y-111958523D01*
X96448571Y-111910904D01*
X96543809Y-111863285D01*
X96781904Y-111863285D01*
X96877142Y-111910904D01*
X96924761Y-111958523D01*
X96972380Y-112053761D01*
X96972380Y-112339476D01*
X96924761Y-112434714D01*
X96877142Y-112482333D01*
X121181904Y-85566380D02*
X121181904Y-84566380D01*
X121562857Y-84566380D01*
X121658095Y-84614000D01*
X121705714Y-84661619D01*
X121753333Y-84756857D01*
X121753333Y-84899714D01*
X121705714Y-84994952D01*
X121658095Y-85042571D01*
X121562857Y-85090190D01*
X121181904Y-85090190D01*
X122324761Y-84994952D02*
X122229523Y-84947333D01*
X122181904Y-84899714D01*
X122134285Y-84804476D01*
X122134285Y-84756857D01*
X122181904Y-84661619D01*
X122229523Y-84614000D01*
X122324761Y-84566380D01*
X122515238Y-84566380D01*
X122610476Y-84614000D01*
X122658095Y-84661619D01*
X122705714Y-84756857D01*
X122705714Y-84804476D01*
X122658095Y-84899714D01*
X122610476Y-84947333D01*
X122515238Y-84994952D01*
X122324761Y-84994952D01*
X122229523Y-85042571D01*
X122181904Y-85090190D01*
X122134285Y-85185428D01*
X122134285Y-85375904D01*
X122181904Y-85471142D01*
X122229523Y-85518761D01*
X122324761Y-85566380D01*
X122515238Y-85566380D01*
X122610476Y-85518761D01*
X122658095Y-85471142D01*
X122705714Y-85375904D01*
X122705714Y-85185428D01*
X122658095Y-85090190D01*
X122610476Y-85042571D01*
X122515238Y-84994952D01*
X125436380Y-101099380D02*
X126150666Y-101099380D01*
X126293523Y-101147000D01*
X126388761Y-101242238D01*
X126436380Y-101385095D01*
X126436380Y-101480333D01*
X126150666Y-100670809D02*
X126150666Y-100194619D01*
X126436380Y-100766047D02*
X125436380Y-100432714D01*
X126436380Y-100099380D01*
X126341142Y-99194619D02*
X126388761Y-99242238D01*
X126436380Y-99385095D01*
X126436380Y-99480333D01*
X126388761Y-99623190D01*
X126293523Y-99718428D01*
X126198285Y-99766047D01*
X126007809Y-99813666D01*
X125864952Y-99813666D01*
X125674476Y-99766047D01*
X125579238Y-99718428D01*
X125484000Y-99623190D01*
X125436380Y-99480333D01*
X125436380Y-99385095D01*
X125484000Y-99242238D01*
X125531619Y-99194619D01*
X126436380Y-98766047D02*
X125436380Y-98766047D01*
X126436380Y-98194619D02*
X125864952Y-98623190D01*
X125436380Y-98194619D02*
X126007809Y-98766047D01*
X126388761Y-97813666D02*
X126436380Y-97670809D01*
X126436380Y-97432714D01*
X126388761Y-97337476D01*
X126341142Y-97289857D01*
X126245904Y-97242238D01*
X126150666Y-97242238D01*
X126055428Y-97289857D01*
X126007809Y-97337476D01*
X125960190Y-97432714D01*
X125912571Y-97623190D01*
X125864952Y-97718428D01*
X125817333Y-97766047D01*
X125722095Y-97813666D01*
X125626857Y-97813666D01*
X125531619Y-97766047D01*
X125484000Y-97718428D01*
X125436380Y-97623190D01*
X125436380Y-97385095D01*
X125484000Y-97242238D01*
X126531619Y-97051761D02*
X126531619Y-96289857D01*
X126436380Y-96051761D02*
X125436380Y-96051761D01*
X125436380Y-95670809D01*
X125484000Y-95575571D01*
X125531619Y-95527952D01*
X125626857Y-95480333D01*
X125769714Y-95480333D01*
X125864952Y-95527952D01*
X125912571Y-95575571D01*
X125960190Y-95670809D01*
X125960190Y-96051761D01*
X126150666Y-95099380D02*
X126150666Y-94623190D01*
X126436380Y-95194619D02*
X125436380Y-94861285D01*
X126436380Y-94527952D01*
X126436380Y-94194619D02*
X125436380Y-94194619D01*
X126436380Y-93623190D01*
X125436380Y-93623190D01*
X125912571Y-93147000D02*
X125912571Y-92813666D01*
X126436380Y-92670809D02*
X126436380Y-93147000D01*
X125436380Y-93147000D01*
X125436380Y-92670809D01*
X126436380Y-91766047D02*
X126436380Y-92242238D01*
X125436380Y-92242238D01*
X122372380Y-96242095D02*
X121372380Y-96242095D01*
X121372380Y-95861142D01*
X121420000Y-95765904D01*
X121467619Y-95718285D01*
X121562857Y-95670666D01*
X121705714Y-95670666D01*
X121800952Y-95718285D01*
X121848571Y-95765904D01*
X121896190Y-95861142D01*
X121896190Y-96242095D01*
X121800952Y-95099238D02*
X121753333Y-95194476D01*
X121705714Y-95242095D01*
X121610476Y-95289714D01*
X121562857Y-95289714D01*
X121467619Y-95242095D01*
X121420000Y-95194476D01*
X121372380Y-95099238D01*
X121372380Y-94908761D01*
X121420000Y-94813523D01*
X121467619Y-94765904D01*
X121562857Y-94718285D01*
X121610476Y-94718285D01*
X121705714Y-94765904D01*
X121753333Y-94813523D01*
X121800952Y-94908761D01*
X121800952Y-95099238D01*
X121848571Y-95194476D01*
X121896190Y-95242095D01*
X121991428Y-95289714D01*
X122181904Y-95289714D01*
X122277142Y-95242095D01*
X122324761Y-95194476D01*
X122372380Y-95099238D01*
X122372380Y-94908761D01*
X122324761Y-94813523D01*
X122277142Y-94765904D01*
X122181904Y-94718285D01*
X121991428Y-94718285D01*
X121896190Y-94765904D01*
X121848571Y-94813523D01*
X121800952Y-94908761D01*
X104735333Y-155932142D02*
X104687714Y-155979761D01*
X104544857Y-156027380D01*
X104449619Y-156027380D01*
X104306761Y-155979761D01*
X104211523Y-155884523D01*
X104163904Y-155789285D01*
X104116285Y-155598809D01*
X104116285Y-155455952D01*
X104163904Y-155265476D01*
X104211523Y-155170238D01*
X104306761Y-155075000D01*
X104449619Y-155027380D01*
X104544857Y-155027380D01*
X104687714Y-155075000D01*
X104735333Y-155122619D01*
X105640095Y-155027380D02*
X105163904Y-155027380D01*
X105116285Y-155503571D01*
X105163904Y-155455952D01*
X105259142Y-155408333D01*
X105497238Y-155408333D01*
X105592476Y-155455952D01*
X105640095Y-155503571D01*
X105687714Y-155598809D01*
X105687714Y-155836904D01*
X105640095Y-155932142D01*
X105592476Y-155979761D01*
X105497238Y-156027380D01*
X105259142Y-156027380D01*
X105163904Y-155979761D01*
X105116285Y-155932142D01*
X98929285Y-156046714D02*
X98493857Y-156046714D01*
X98711571Y-156046714D02*
X98711571Y-155284714D01*
X98639000Y-155393571D01*
X98566428Y-155466142D01*
X98493857Y-155502428D01*
X99401000Y-155284714D02*
X99473571Y-155284714D01*
X99546142Y-155321000D01*
X99582428Y-155357285D01*
X99618714Y-155429857D01*
X99655000Y-155575000D01*
X99655000Y-155756428D01*
X99618714Y-155901571D01*
X99582428Y-155974142D01*
X99546142Y-156010428D01*
X99473571Y-156046714D01*
X99401000Y-156046714D01*
X99328428Y-156010428D01*
X99292142Y-155974142D01*
X99255857Y-155901571D01*
X99219571Y-155756428D01*
X99219571Y-155575000D01*
X99255857Y-155429857D01*
X99292142Y-155357285D01*
X99328428Y-155321000D01*
X99401000Y-155284714D01*
X100126714Y-155284714D02*
X100199285Y-155284714D01*
X100271857Y-155321000D01*
X100308142Y-155357285D01*
X100344428Y-155429857D01*
X100380714Y-155575000D01*
X100380714Y-155756428D01*
X100344428Y-155901571D01*
X100308142Y-155974142D01*
X100271857Y-156010428D01*
X100199285Y-156046714D01*
X100126714Y-156046714D01*
X100054142Y-156010428D01*
X100017857Y-155974142D01*
X99981571Y-155901571D01*
X99945285Y-155756428D01*
X99945285Y-155575000D01*
X99981571Y-155429857D01*
X100017857Y-155357285D01*
X100054142Y-155321000D01*
X100126714Y-155284714D01*
X100707285Y-155538714D02*
X100707285Y-156046714D01*
X100707285Y-155611285D02*
X100743571Y-155575000D01*
X100816142Y-155538714D01*
X100925000Y-155538714D01*
X100997571Y-155575000D01*
X101033857Y-155647571D01*
X101033857Y-156046714D01*
X139731761Y-133643619D02*
X139636523Y-133596000D01*
X139541285Y-133500761D01*
X139398428Y-133357904D01*
X139303190Y-133310285D01*
X139207952Y-133310285D01*
X139255571Y-133548380D02*
X139160333Y-133500761D01*
X139065095Y-133405523D01*
X139017476Y-133215047D01*
X139017476Y-132881714D01*
X139065095Y-132691238D01*
X139160333Y-132596000D01*
X139255571Y-132548380D01*
X139446047Y-132548380D01*
X139541285Y-132596000D01*
X139636523Y-132691238D01*
X139684142Y-132881714D01*
X139684142Y-133215047D01*
X139636523Y-133405523D01*
X139541285Y-133500761D01*
X139446047Y-133548380D01*
X139255571Y-133548380D01*
X140541285Y-132548380D02*
X140350809Y-132548380D01*
X140255571Y-132596000D01*
X140207952Y-132643619D01*
X140112714Y-132786476D01*
X140065095Y-132976952D01*
X140065095Y-133357904D01*
X140112714Y-133453142D01*
X140160333Y-133500761D01*
X140255571Y-133548380D01*
X140446047Y-133548380D01*
X140541285Y-133500761D01*
X140588904Y-133453142D01*
X140636523Y-133357904D01*
X140636523Y-133119809D01*
X140588904Y-133024571D01*
X140541285Y-132976952D01*
X140446047Y-132929333D01*
X140255571Y-132929333D01*
X140160333Y-132976952D01*
X140112714Y-133024571D01*
X140065095Y-133119809D01*
X134191714Y-125658619D02*
X134239333Y-125611000D01*
X134334571Y-125563380D01*
X134572666Y-125563380D01*
X134667904Y-125611000D01*
X134715523Y-125658619D01*
X134763142Y-125753857D01*
X134763142Y-125849095D01*
X134715523Y-125991952D01*
X134144095Y-126563380D01*
X134763142Y-126563380D01*
X135191714Y-126563380D02*
X135191714Y-125563380D01*
X135763142Y-126563380D01*
X135763142Y-125563380D01*
X136144095Y-125563380D02*
X136763142Y-125563380D01*
X136429809Y-125944333D01*
X136572666Y-125944333D01*
X136667904Y-125991952D01*
X136715523Y-126039571D01*
X136763142Y-126134809D01*
X136763142Y-126372904D01*
X136715523Y-126468142D01*
X136667904Y-126515761D01*
X136572666Y-126563380D01*
X136286952Y-126563380D01*
X136191714Y-126515761D01*
X136144095Y-126468142D01*
X137239333Y-126563380D02*
X137429809Y-126563380D01*
X137525047Y-126515761D01*
X137572666Y-126468142D01*
X137667904Y-126325285D01*
X137715523Y-126134809D01*
X137715523Y-125753857D01*
X137667904Y-125658619D01*
X137620285Y-125611000D01*
X137525047Y-125563380D01*
X137334571Y-125563380D01*
X137239333Y-125611000D01*
X137191714Y-125658619D01*
X137144095Y-125753857D01*
X137144095Y-125991952D01*
X137191714Y-126087190D01*
X137239333Y-126134809D01*
X137334571Y-126182428D01*
X137525047Y-126182428D01*
X137620285Y-126134809D01*
X137667904Y-126087190D01*
X137715523Y-125991952D01*
X138334571Y-125563380D02*
X138429809Y-125563380D01*
X138525047Y-125611000D01*
X138572666Y-125658619D01*
X138620285Y-125753857D01*
X138667904Y-125944333D01*
X138667904Y-126182428D01*
X138620285Y-126372904D01*
X138572666Y-126468142D01*
X138525047Y-126515761D01*
X138429809Y-126563380D01*
X138334571Y-126563380D01*
X138239333Y-126515761D01*
X138191714Y-126468142D01*
X138144095Y-126372904D01*
X138096476Y-126182428D01*
X138096476Y-125944333D01*
X138144095Y-125753857D01*
X138191714Y-125658619D01*
X138239333Y-125611000D01*
X138334571Y-125563380D01*
X139525047Y-125896714D02*
X139525047Y-126563380D01*
X139286952Y-125515761D02*
X139048857Y-126230047D01*
X139667904Y-126230047D01*
X123690142Y-127452380D02*
X123356809Y-126976190D01*
X123118714Y-127452380D02*
X123118714Y-126452380D01*
X123499666Y-126452380D01*
X123594904Y-126500000D01*
X123642523Y-126547619D01*
X123690142Y-126642857D01*
X123690142Y-126785714D01*
X123642523Y-126880952D01*
X123594904Y-126928571D01*
X123499666Y-126976190D01*
X123118714Y-126976190D01*
X124023476Y-126452380D02*
X124642523Y-126452380D01*
X124309190Y-126833333D01*
X124452047Y-126833333D01*
X124547285Y-126880952D01*
X124594904Y-126928571D01*
X124642523Y-127023809D01*
X124642523Y-127261904D01*
X124594904Y-127357142D01*
X124547285Y-127404761D01*
X124452047Y-127452380D01*
X124166333Y-127452380D01*
X124071095Y-127404761D01*
X124023476Y-127357142D01*
X125023476Y-126547619D02*
X125071095Y-126500000D01*
X125166333Y-126452380D01*
X125404428Y-126452380D01*
X125499666Y-126500000D01*
X125547285Y-126547619D01*
X125594904Y-126642857D01*
X125594904Y-126738095D01*
X125547285Y-126880952D01*
X124975857Y-127452380D01*
X125594904Y-127452380D01*
X128817714Y-129611380D02*
X128246285Y-129611380D01*
X128532000Y-129611380D02*
X128532000Y-128611380D01*
X128436761Y-128754238D01*
X128341523Y-128849476D01*
X128246285Y-128897095D01*
X129246285Y-129611380D02*
X129246285Y-128611380D01*
X129817714Y-129611380D02*
X129389142Y-129039952D01*
X129817714Y-128611380D02*
X129246285Y-129182809D01*
X141470142Y-128468380D02*
X141136809Y-127992190D01*
X140898714Y-128468380D02*
X140898714Y-127468380D01*
X141279666Y-127468380D01*
X141374904Y-127516000D01*
X141422523Y-127563619D01*
X141470142Y-127658857D01*
X141470142Y-127801714D01*
X141422523Y-127896952D01*
X141374904Y-127944571D01*
X141279666Y-127992190D01*
X140898714Y-127992190D01*
X142327285Y-127801714D02*
X142327285Y-128468380D01*
X142089190Y-127420761D02*
X141851095Y-128135047D01*
X142470142Y-128135047D01*
X143279666Y-127801714D02*
X143279666Y-128468380D01*
X143041571Y-127420761D02*
X142803476Y-128135047D01*
X143422523Y-128135047D01*
X145994523Y-130754380D02*
X145423095Y-130754380D01*
X145708809Y-130754380D02*
X145708809Y-129754380D01*
X145613571Y-129897238D01*
X145518333Y-129992476D01*
X145423095Y-130040095D01*
X146613571Y-129754380D02*
X146708809Y-129754380D01*
X146804047Y-129802000D01*
X146851666Y-129849619D01*
X146899285Y-129944857D01*
X146946904Y-130135333D01*
X146946904Y-130373428D01*
X146899285Y-130563904D01*
X146851666Y-130659142D01*
X146804047Y-130706761D01*
X146708809Y-130754380D01*
X146613571Y-130754380D01*
X146518333Y-130706761D01*
X146470714Y-130659142D01*
X146423095Y-130563904D01*
X146375476Y-130373428D01*
X146375476Y-130135333D01*
X146423095Y-129944857D01*
X146470714Y-129849619D01*
X146518333Y-129802000D01*
X146613571Y-129754380D01*
X147375476Y-130754380D02*
X147375476Y-129754380D01*
X147946904Y-130754380D02*
X147518333Y-130182952D01*
X147946904Y-129754380D02*
X147375476Y-130325809D01*
X135525142Y-144573857D02*
X135572761Y-144621476D01*
X135620380Y-144764333D01*
X135620380Y-144859571D01*
X135572761Y-145002428D01*
X135477523Y-145097666D01*
X135382285Y-145145285D01*
X135191809Y-145192904D01*
X135048952Y-145192904D01*
X134858476Y-145145285D01*
X134763238Y-145097666D01*
X134668000Y-145002428D01*
X134620380Y-144859571D01*
X134620380Y-144764333D01*
X134668000Y-144621476D01*
X134715619Y-144573857D01*
X135620380Y-143621476D02*
X135620380Y-144192904D01*
X135620380Y-143907190D02*
X134620380Y-143907190D01*
X134763238Y-144002428D01*
X134858476Y-144097666D01*
X134906095Y-144192904D01*
X134620380Y-143288142D02*
X134620380Y-142669095D01*
X135001333Y-143002428D01*
X135001333Y-142859571D01*
X135048952Y-142764333D01*
X135096571Y-142716714D01*
X135191809Y-142669095D01*
X135429904Y-142669095D01*
X135525142Y-142716714D01*
X135572761Y-142764333D01*
X135620380Y-142859571D01*
X135620380Y-143145285D01*
X135572761Y-143240523D01*
X135525142Y-143288142D01*
X139715619Y-145145285D02*
X139668000Y-145097666D01*
X139620380Y-145002428D01*
X139620380Y-144764333D01*
X139668000Y-144669095D01*
X139715619Y-144621476D01*
X139810857Y-144573857D01*
X139906095Y-144573857D01*
X140048952Y-144621476D01*
X140620380Y-145192904D01*
X140620380Y-144573857D01*
X139715619Y-144192904D02*
X139668000Y-144145285D01*
X139620380Y-144050047D01*
X139620380Y-143811952D01*
X139668000Y-143716714D01*
X139715619Y-143669095D01*
X139810857Y-143621476D01*
X139906095Y-143621476D01*
X140048952Y-143669095D01*
X140620380Y-144240523D01*
X140620380Y-143621476D01*
X139953714Y-143192904D02*
X140620380Y-143192904D01*
X140048952Y-143192904D02*
X140001333Y-143145285D01*
X139953714Y-143050047D01*
X139953714Y-142907190D01*
X140001333Y-142811952D01*
X140096571Y-142764333D01*
X140620380Y-142764333D01*
X138025142Y-144573857D02*
X138072761Y-144621476D01*
X138120380Y-144764333D01*
X138120380Y-144859571D01*
X138072761Y-145002428D01*
X137977523Y-145097666D01*
X137882285Y-145145285D01*
X137691809Y-145192904D01*
X137548952Y-145192904D01*
X137358476Y-145145285D01*
X137263238Y-145097666D01*
X137168000Y-145002428D01*
X137120380Y-144859571D01*
X137120380Y-144764333D01*
X137168000Y-144621476D01*
X137215619Y-144573857D01*
X138120380Y-143621476D02*
X138120380Y-144192904D01*
X138120380Y-143907190D02*
X137120380Y-143907190D01*
X137263238Y-144002428D01*
X137358476Y-144097666D01*
X137406095Y-144192904D01*
X137120380Y-143288142D02*
X137120380Y-142669095D01*
X137501333Y-143002428D01*
X137501333Y-142859571D01*
X137548952Y-142764333D01*
X137596571Y-142716714D01*
X137691809Y-142669095D01*
X137929904Y-142669095D01*
X138025142Y-142716714D01*
X138072761Y-142764333D01*
X138120380Y-142859571D01*
X138120380Y-143145285D01*
X138072761Y-143240523D01*
X138025142Y-143288142D01*
M02*
