G04 #@! TF.GenerationSoftware,KiCad,Pcbnew,(6.0.11-0)*
G04 #@! TF.CreationDate,2026-05-01T21:44:21-05:00*
G04 #@! TF.ProjectId,trigger-seq-panel,74726967-6765-4722-9d73-65712d70616e,rev?*
G04 #@! TF.SameCoordinates,Original*
G04 #@! TF.FileFunction,Legend,Bot*
G04 #@! TF.FilePolarity,Positive*
%FSLAX46Y46*%
G04 Gerber Fmt 4.6, Leading zero omitted, Abs format (unit mm)*
G04 Created by KiCad (PCBNEW (6.0.11-0)) date 2026-05-01 21:44:21*
%MOMM*%
%LPD*%
G01*
G04 APERTURE LIST*
G04 Aperture macros list*
%AMRoundRect*
0 Rectangle with rounded corners*
0 $1 Rounding radius*
0 $2 $3 $4 $5 $6 $7 $8 $9 X,Y pos of 4 corners*
0 Add a 4 corners polygon primitive as box body*
4,1,4,$2,$3,$4,$5,$6,$7,$8,$9,$2,$3,0*
0 Add four circle primitives for the rounded corners*
1,1,$1+$1,$2,$3*
1,1,$1+$1,$4,$5*
1,1,$1+$1,$6,$7*
1,1,$1+$1,$8,$9*
0 Add four rect primitives between the rounded corners*
20,1,$1+$1,$2,$3,$4,$5,0*
20,1,$1+$1,$4,$5,$6,$7,0*
20,1,$1+$1,$6,$7,$8,$9,0*
20,1,$1+$1,$8,$9,$2,$3,0*%
G04 Aperture macros list end*
%ADD10C,0.300000*%
%ADD11C,0.150000*%
%ADD12C,0.200660*%
%ADD13C,0.381000*%
%ADD14C,0.120000*%
%ADD15C,0.100000*%
%ADD16C,1.500000*%
%ADD17C,3.000000*%
%ADD18C,2.250000*%
%ADD19C,3.500000*%
%ADD20O,1.500000X2.000000*%
%ADD21RoundRect,0.200000X-0.850000X-0.850000X0.850000X-0.850000X0.850000X0.850000X-0.850000X0.850000X0*%
%ADD22O,2.100000X2.100000*%
%ADD23RoundRect,0.200000X-0.800000X-0.800000X0.800000X-0.800000X0.800000X0.800000X-0.800000X0.800000X0*%
%ADD24O,2.000000X2.000000*%
%ADD25RoundRect,0.200000X0.800000X0.800000X-0.800000X0.800000X-0.800000X-0.800000X0.800000X-0.800000X0*%
%ADD26C,2.000000*%
%ADD27RoundRect,0.200000X1.200000X0.800000X-1.200000X0.800000X-1.200000X-0.800000X1.200000X-0.800000X0*%
%ADD28O,2.800000X2.000000*%
%ADD29RoundRect,0.200000X-0.750000X-0.750000X0.750000X-0.750000X0.750000X0.750000X-0.750000X0.750000X0*%
%ADD30C,1.900000*%
%ADD31C,2.686000*%
%ADD32C,3.400000*%
%ADD33C,2.650000*%
%ADD34C,3.900000*%
%ADD35O,1.900000X2.400000*%
%ADD36C,2.200000*%
%ADD37RoundRect,0.200000X-0.900000X-0.900000X0.900000X-0.900000X0.900000X0.900000X-0.900000X0.900000X0*%
G04 APERTURE END LIST*
D10*
X149109571Y-76172142D02*
X148966714Y-76243571D01*
X148681000Y-76243571D01*
X148538142Y-76172142D01*
X148466714Y-76029285D01*
X148466714Y-75957857D01*
X148538142Y-75815000D01*
X148681000Y-75743571D01*
X148895285Y-75743571D01*
X149038142Y-75672142D01*
X149109571Y-75529285D01*
X149109571Y-75457857D01*
X149038142Y-75315000D01*
X148895285Y-75243571D01*
X148681000Y-75243571D01*
X148538142Y-75315000D01*
X148038142Y-75243571D02*
X147466714Y-75243571D01*
X147823857Y-74743571D02*
X147823857Y-76029285D01*
X147752428Y-76172142D01*
X147609571Y-76243571D01*
X147466714Y-76243571D01*
X146395285Y-76172142D02*
X146538142Y-76243571D01*
X146823857Y-76243571D01*
X146966714Y-76172142D01*
X147038142Y-76029285D01*
X147038142Y-75457857D01*
X146966714Y-75315000D01*
X146823857Y-75243571D01*
X146538142Y-75243571D01*
X146395285Y-75315000D01*
X146323857Y-75457857D01*
X146323857Y-75600714D01*
X147038142Y-75743571D01*
X145681000Y-75243571D02*
X145681000Y-76743571D01*
X145681000Y-75315000D02*
X145538142Y-75243571D01*
X145252428Y-75243571D01*
X145109571Y-75315000D01*
X145038142Y-75386428D01*
X144966714Y-75529285D01*
X144966714Y-75957857D01*
X145038142Y-76100714D01*
X145109571Y-76172142D01*
X145252428Y-76243571D01*
X145538142Y-76243571D01*
X145681000Y-76172142D01*
X144395285Y-76172142D02*
X144252428Y-76243571D01*
X143966714Y-76243571D01*
X143823857Y-76172142D01*
X143752428Y-76029285D01*
X143752428Y-75957857D01*
X143823857Y-75815000D01*
X143966714Y-75743571D01*
X144181000Y-75743571D01*
X144323857Y-75672142D01*
X144395285Y-75529285D01*
X144395285Y-75457857D01*
X144323857Y-75315000D01*
X144181000Y-75243571D01*
X143966714Y-75243571D01*
X143823857Y-75315000D01*
X132742428Y-76172142D02*
X132599571Y-76243571D01*
X132313857Y-76243571D01*
X132171000Y-76172142D01*
X132099571Y-76029285D01*
X132099571Y-75957857D01*
X132171000Y-75815000D01*
X132313857Y-75743571D01*
X132528142Y-75743571D01*
X132671000Y-75672142D01*
X132742428Y-75529285D01*
X132742428Y-75457857D01*
X132671000Y-75315000D01*
X132528142Y-75243571D01*
X132313857Y-75243571D01*
X132171000Y-75315000D01*
X131599571Y-75243571D02*
X131313857Y-76243571D01*
X131028142Y-75529285D01*
X130742428Y-76243571D01*
X130456714Y-75243571D01*
X129885285Y-76243571D02*
X129885285Y-75243571D01*
X129885285Y-74743571D02*
X129956714Y-74815000D01*
X129885285Y-74886428D01*
X129813857Y-74815000D01*
X129885285Y-74743571D01*
X129885285Y-74886428D01*
X129171000Y-75243571D02*
X129171000Y-76243571D01*
X129171000Y-75386428D02*
X129099571Y-75315000D01*
X128956714Y-75243571D01*
X128742428Y-75243571D01*
X128599571Y-75315000D01*
X128528142Y-75457857D01*
X128528142Y-76243571D01*
X127171000Y-75243571D02*
X127171000Y-76457857D01*
X127242428Y-76600714D01*
X127313857Y-76672142D01*
X127456714Y-76743571D01*
X127671000Y-76743571D01*
X127813857Y-76672142D01*
X127171000Y-76172142D02*
X127313857Y-76243571D01*
X127599571Y-76243571D01*
X127742428Y-76172142D01*
X127813857Y-76100714D01*
X127885285Y-75957857D01*
X127885285Y-75529285D01*
X127813857Y-75386428D01*
X127742428Y-75315000D01*
X127599571Y-75243571D01*
X127313857Y-75243571D01*
X127171000Y-75315000D01*
X131778142Y-57320571D02*
X131778142Y-56320571D01*
X131778142Y-56606285D02*
X131706714Y-56463428D01*
X131635285Y-56392000D01*
X131492428Y-56320571D01*
X131349571Y-56320571D01*
X130206714Y-57320571D02*
X130206714Y-56534857D01*
X130278142Y-56392000D01*
X130421000Y-56320571D01*
X130706714Y-56320571D01*
X130849571Y-56392000D01*
X130206714Y-57249142D02*
X130349571Y-57320571D01*
X130706714Y-57320571D01*
X130849571Y-57249142D01*
X130921000Y-57106285D01*
X130921000Y-56963428D01*
X130849571Y-56820571D01*
X130706714Y-56749142D01*
X130349571Y-56749142D01*
X130206714Y-56677714D01*
X129706714Y-56320571D02*
X129135285Y-56320571D01*
X129492428Y-55820571D02*
X129492428Y-57106285D01*
X129421000Y-57249142D01*
X129278142Y-57320571D01*
X129135285Y-57320571D01*
X128063857Y-57249142D02*
X128206714Y-57320571D01*
X128492428Y-57320571D01*
X128635285Y-57249142D01*
X128706714Y-57106285D01*
X128706714Y-56534857D01*
X128635285Y-56392000D01*
X128492428Y-56320571D01*
X128206714Y-56320571D01*
X128063857Y-56392000D01*
X127992428Y-56534857D01*
X127992428Y-56677714D01*
X128706714Y-56820571D01*
X139783142Y-102532571D02*
X140640285Y-102532571D01*
X140211714Y-102532571D02*
X140211714Y-101032571D01*
X140354571Y-101246857D01*
X140497428Y-101389714D01*
X140640285Y-101461142D01*
X139283142Y-102532571D02*
X138497428Y-101532571D01*
X139283142Y-101532571D02*
X138497428Y-102532571D01*
X137140285Y-102532571D02*
X137997428Y-102532571D01*
X137568857Y-102532571D02*
X137568857Y-101032571D01*
X137711714Y-101246857D01*
X137854571Y-101389714D01*
X137997428Y-101461142D01*
X135854571Y-101032571D02*
X136140285Y-101032571D01*
X136283142Y-101104000D01*
X136354571Y-101175428D01*
X136497428Y-101389714D01*
X136568857Y-101675428D01*
X136568857Y-102246857D01*
X136497428Y-102389714D01*
X136426000Y-102461142D01*
X136283142Y-102532571D01*
X135997428Y-102532571D01*
X135854571Y-102461142D01*
X135783142Y-102389714D01*
X135711714Y-102246857D01*
X135711714Y-101889714D01*
X135783142Y-101746857D01*
X135854571Y-101675428D01*
X135997428Y-101604000D01*
X136283142Y-101604000D01*
X136426000Y-101675428D01*
X136497428Y-101746857D01*
X136568857Y-101889714D01*
X143310714Y-55161571D02*
X143310714Y-54375857D01*
X143382142Y-54233000D01*
X143525000Y-54161571D01*
X143810714Y-54161571D01*
X143953571Y-54233000D01*
X143310714Y-55090142D02*
X143453571Y-55161571D01*
X143810714Y-55161571D01*
X143953571Y-55090142D01*
X144025000Y-54947285D01*
X144025000Y-54804428D01*
X143953571Y-54661571D01*
X143810714Y-54590142D01*
X143453571Y-54590142D01*
X143310714Y-54518714D01*
X142382142Y-55161571D02*
X142525000Y-55090142D01*
X142596428Y-54947285D01*
X142596428Y-53661571D01*
X141596428Y-55161571D02*
X141739285Y-55090142D01*
X141810714Y-54947285D01*
X141810714Y-53661571D01*
X139882142Y-54161571D02*
X139882142Y-55661571D01*
X139882142Y-54233000D02*
X139739285Y-54161571D01*
X139453571Y-54161571D01*
X139310714Y-54233000D01*
X139239285Y-54304428D01*
X139167857Y-54447285D01*
X139167857Y-54875857D01*
X139239285Y-55018714D01*
X139310714Y-55090142D01*
X139453571Y-55161571D01*
X139739285Y-55161571D01*
X139882142Y-55090142D01*
X138310714Y-55161571D02*
X138453571Y-55090142D01*
X138525000Y-55018714D01*
X138596428Y-54875857D01*
X138596428Y-54447285D01*
X138525000Y-54304428D01*
X138453571Y-54233000D01*
X138310714Y-54161571D01*
X138096428Y-54161571D01*
X137953571Y-54233000D01*
X137882142Y-54304428D01*
X137810714Y-54447285D01*
X137810714Y-54875857D01*
X137882142Y-55018714D01*
X137953571Y-55090142D01*
X138096428Y-55161571D01*
X138310714Y-55161571D01*
X137382142Y-54161571D02*
X136810714Y-54161571D01*
X137167857Y-53661571D02*
X137167857Y-54947285D01*
X137096428Y-55090142D01*
X136953571Y-55161571D01*
X136810714Y-55161571D01*
X136382142Y-55090142D02*
X136239285Y-55161571D01*
X135953571Y-55161571D01*
X135810714Y-55090142D01*
X135739285Y-54947285D01*
X135739285Y-54875857D01*
X135810714Y-54733000D01*
X135953571Y-54661571D01*
X136167857Y-54661571D01*
X136310714Y-54590142D01*
X136382142Y-54447285D01*
X136382142Y-54375857D01*
X136310714Y-54233000D01*
X136167857Y-54161571D01*
X135953571Y-54161571D01*
X135810714Y-54233000D01*
X133167857Y-55161571D02*
X134025000Y-55161571D01*
X133596428Y-55161571D02*
X133596428Y-53661571D01*
X133739285Y-53875857D01*
X133882142Y-54018714D01*
X134025000Y-54090142D01*
X132239285Y-53661571D02*
X132096428Y-53661571D01*
X131953571Y-53733000D01*
X131882142Y-53804428D01*
X131810714Y-53947285D01*
X131739285Y-54233000D01*
X131739285Y-54590142D01*
X131810714Y-54875857D01*
X131882142Y-55018714D01*
X131953571Y-55090142D01*
X132096428Y-55161571D01*
X132239285Y-55161571D01*
X132382142Y-55090142D01*
X132453571Y-55018714D01*
X132525000Y-54875857D01*
X132596428Y-54590142D01*
X132596428Y-54233000D01*
X132525000Y-53947285D01*
X132453571Y-53804428D01*
X132382142Y-53733000D01*
X132239285Y-53661571D01*
X131096428Y-55161571D02*
X131096428Y-53661571D01*
X130953571Y-54590142D02*
X130525000Y-55161571D01*
X130525000Y-54161571D02*
X131096428Y-54733000D01*
X129382142Y-54375857D02*
X129167857Y-54447285D01*
X129096428Y-54518714D01*
X129025000Y-54661571D01*
X129025000Y-54875857D01*
X129096428Y-55018714D01*
X129167857Y-55090142D01*
X129310714Y-55161571D01*
X129882142Y-55161571D01*
X129882142Y-53661571D01*
X129382142Y-53661571D01*
X129239285Y-53733000D01*
X129167857Y-53804428D01*
X129096428Y-53947285D01*
X129096428Y-54090142D01*
X129167857Y-54233000D01*
X129239285Y-54304428D01*
X129382142Y-54375857D01*
X129882142Y-54375857D01*
X149018285Y-56447571D02*
X148732571Y-57447571D01*
X148446857Y-56733285D01*
X148161142Y-57447571D01*
X147875428Y-56447571D01*
X147304000Y-57447571D02*
X147304000Y-56447571D01*
X147304000Y-55947571D02*
X147375428Y-56019000D01*
X147304000Y-56090428D01*
X147232571Y-56019000D01*
X147304000Y-55947571D01*
X147304000Y-56090428D01*
X145946857Y-57447571D02*
X145946857Y-55947571D01*
X145946857Y-57376142D02*
X146089714Y-57447571D01*
X146375428Y-57447571D01*
X146518285Y-57376142D01*
X146589714Y-57304714D01*
X146661142Y-57161857D01*
X146661142Y-56733285D01*
X146589714Y-56590428D01*
X146518285Y-56519000D01*
X146375428Y-56447571D01*
X146089714Y-56447571D01*
X145946857Y-56519000D01*
X145446857Y-56447571D02*
X144875428Y-56447571D01*
X145232571Y-55947571D02*
X145232571Y-57233285D01*
X145161142Y-57376142D01*
X145018285Y-57447571D01*
X144875428Y-57447571D01*
X144375428Y-57447571D02*
X144375428Y-55947571D01*
X143732571Y-57447571D02*
X143732571Y-56661857D01*
X143804000Y-56519000D01*
X143946857Y-56447571D01*
X144161142Y-56447571D01*
X144304000Y-56519000D01*
X144375428Y-56590428D01*
X140180000Y-90253428D02*
X140108571Y-90182000D01*
X139965714Y-90110571D01*
X139608571Y-90110571D01*
X139465714Y-90182000D01*
X139394285Y-90253428D01*
X139322857Y-90396285D01*
X139322857Y-90539142D01*
X139394285Y-90753428D01*
X140251428Y-91610571D01*
X139322857Y-91610571D01*
X138822857Y-91610571D02*
X138037142Y-90610571D01*
X138822857Y-90610571D02*
X138037142Y-91610571D01*
X137251428Y-90753428D02*
X137394285Y-90682000D01*
X137465714Y-90610571D01*
X137537142Y-90467714D01*
X137537142Y-90396285D01*
X137465714Y-90253428D01*
X137394285Y-90182000D01*
X137251428Y-90110571D01*
X136965714Y-90110571D01*
X136822857Y-90182000D01*
X136751428Y-90253428D01*
X136680000Y-90396285D01*
X136680000Y-90467714D01*
X136751428Y-90610571D01*
X136822857Y-90682000D01*
X136965714Y-90753428D01*
X137251428Y-90753428D01*
X137394285Y-90824857D01*
X137465714Y-90896285D01*
X137537142Y-91039142D01*
X137537142Y-91324857D01*
X137465714Y-91467714D01*
X137394285Y-91539142D01*
X137251428Y-91610571D01*
X136965714Y-91610571D01*
X136822857Y-91539142D01*
X136751428Y-91467714D01*
X136680000Y-91324857D01*
X136680000Y-91039142D01*
X136751428Y-90896285D01*
X136822857Y-90824857D01*
X136965714Y-90753428D01*
D11*
X92225761Y-102965476D02*
X92273380Y-103108333D01*
X92273380Y-103346428D01*
X92225761Y-103441666D01*
X92178142Y-103489285D01*
X92082904Y-103536904D01*
X91987666Y-103536904D01*
X91892428Y-103489285D01*
X91844809Y-103441666D01*
X91797190Y-103346428D01*
X91749571Y-103155952D01*
X91701952Y-103060714D01*
X91654333Y-103013095D01*
X91559095Y-102965476D01*
X91463857Y-102965476D01*
X91368619Y-103013095D01*
X91321000Y-103060714D01*
X91273380Y-103155952D01*
X91273380Y-103394047D01*
X91321000Y-103536904D01*
X91273380Y-103870238D02*
X92273380Y-104108333D01*
X91559095Y-104298809D01*
X92273380Y-104489285D01*
X91273380Y-104727380D01*
X92273380Y-105632142D02*
X92273380Y-105060714D01*
X92273380Y-105346428D02*
X91273380Y-105346428D01*
X91416238Y-105251190D01*
X91511476Y-105155952D01*
X91559095Y-105060714D01*
X91606714Y-106489285D02*
X92273380Y-106489285D01*
X91225761Y-106251190D02*
X91940047Y-106013095D01*
X91940047Y-106632142D01*
X134043523Y-130214761D02*
X133900666Y-130262380D01*
X133662571Y-130262380D01*
X133567333Y-130214761D01*
X133519714Y-130167142D01*
X133472095Y-130071904D01*
X133472095Y-129976666D01*
X133519714Y-129881428D01*
X133567333Y-129833809D01*
X133662571Y-129786190D01*
X133853047Y-129738571D01*
X133948285Y-129690952D01*
X133995904Y-129643333D01*
X134043523Y-129548095D01*
X134043523Y-129452857D01*
X133995904Y-129357619D01*
X133948285Y-129310000D01*
X133853047Y-129262380D01*
X133614952Y-129262380D01*
X133472095Y-129310000D01*
X133138761Y-129262380D02*
X132900666Y-130262380D01*
X132710190Y-129548095D01*
X132519714Y-130262380D01*
X132281619Y-129262380D01*
X131948285Y-129357619D02*
X131900666Y-129310000D01*
X131805428Y-129262380D01*
X131567333Y-129262380D01*
X131472095Y-129310000D01*
X131424476Y-129357619D01*
X131376857Y-129452857D01*
X131376857Y-129548095D01*
X131424476Y-129690952D01*
X131995904Y-130262380D01*
X131376857Y-130262380D01*
X130757809Y-129262380D02*
X130662571Y-129262380D01*
X130567333Y-129310000D01*
X130519714Y-129357619D01*
X130472095Y-129452857D01*
X130424476Y-129643333D01*
X130424476Y-129881428D01*
X130472095Y-130071904D01*
X130519714Y-130167142D01*
X130567333Y-130214761D01*
X130662571Y-130262380D01*
X130757809Y-130262380D01*
X130853047Y-130214761D01*
X130900666Y-130167142D01*
X130948285Y-130071904D01*
X130995904Y-129881428D01*
X130995904Y-129643333D01*
X130948285Y-129452857D01*
X130900666Y-129357619D01*
X130853047Y-129310000D01*
X130757809Y-129262380D01*
X126336380Y-135342619D02*
X125860190Y-135009285D01*
X126336380Y-134771190D02*
X125336380Y-134771190D01*
X125336380Y-135152142D01*
X125384000Y-135247380D01*
X125431619Y-135295000D01*
X125526857Y-135342619D01*
X125669714Y-135342619D01*
X125764952Y-135295000D01*
X125812571Y-135247380D01*
X125860190Y-135152142D01*
X125860190Y-134771190D01*
X125812571Y-135771190D02*
X125812571Y-136104523D01*
X126336380Y-136247380D02*
X126336380Y-135771190D01*
X125336380Y-135771190D01*
X125336380Y-136247380D01*
X126288761Y-136628333D02*
X126336380Y-136771190D01*
X126336380Y-137009285D01*
X126288761Y-137104523D01*
X126241142Y-137152142D01*
X126145904Y-137199761D01*
X126050666Y-137199761D01*
X125955428Y-137152142D01*
X125907809Y-137104523D01*
X125860190Y-137009285D01*
X125812571Y-136818809D01*
X125764952Y-136723571D01*
X125717333Y-136675952D01*
X125622095Y-136628333D01*
X125526857Y-136628333D01*
X125431619Y-136675952D01*
X125384000Y-136723571D01*
X125336380Y-136818809D01*
X125336380Y-137056904D01*
X125384000Y-137199761D01*
X125812571Y-137628333D02*
X125812571Y-137961666D01*
X126336380Y-138104523D02*
X126336380Y-137628333D01*
X125336380Y-137628333D01*
X125336380Y-138104523D01*
X125336380Y-138390238D02*
X125336380Y-138961666D01*
X126336380Y-138675952D02*
X125336380Y-138675952D01*
X147105761Y-94944666D02*
X147153380Y-95087523D01*
X147153380Y-95325619D01*
X147105761Y-95420857D01*
X147058142Y-95468476D01*
X146962904Y-95516095D01*
X146867666Y-95516095D01*
X146772428Y-95468476D01*
X146724809Y-95420857D01*
X146677190Y-95325619D01*
X146629571Y-95135142D01*
X146581952Y-95039904D01*
X146534333Y-94992285D01*
X146439095Y-94944666D01*
X146343857Y-94944666D01*
X146248619Y-94992285D01*
X146201000Y-95039904D01*
X146153380Y-95135142D01*
X146153380Y-95373238D01*
X146201000Y-95516095D01*
X146153380Y-95849428D02*
X147153380Y-96087523D01*
X146439095Y-96278000D01*
X147153380Y-96468476D01*
X146153380Y-96706571D01*
X147153380Y-97135142D02*
X147153380Y-97325619D01*
X147105761Y-97420857D01*
X147058142Y-97468476D01*
X146915285Y-97563714D01*
X146724809Y-97611333D01*
X146343857Y-97611333D01*
X146248619Y-97563714D01*
X146201000Y-97516095D01*
X146153380Y-97420857D01*
X146153380Y-97230380D01*
X146201000Y-97135142D01*
X146248619Y-97087523D01*
X146343857Y-97039904D01*
X146581952Y-97039904D01*
X146677190Y-97087523D01*
X146724809Y-97135142D01*
X146772428Y-97230380D01*
X146772428Y-97420857D01*
X146724809Y-97516095D01*
X146677190Y-97563714D01*
X146581952Y-97611333D01*
X135869333Y-144375378D02*
X135869333Y-145089664D01*
X135916952Y-145232521D01*
X136012190Y-145327759D01*
X136155047Y-145375378D01*
X136250285Y-145375378D01*
X135488380Y-144375378D02*
X134821714Y-144375378D01*
X135250285Y-145375378D01*
X127257142Y-148098426D02*
X127304761Y-148050807D01*
X127352380Y-147907950D01*
X127352380Y-147812712D01*
X127304761Y-147669855D01*
X127209523Y-147574617D01*
X127114285Y-147526998D01*
X126923809Y-147479378D01*
X126780952Y-147479378D01*
X126590476Y-147526998D01*
X126495238Y-147574617D01*
X126400000Y-147669855D01*
X126352380Y-147812712D01*
X126352380Y-147907950D01*
X126400000Y-148050807D01*
X126447619Y-148098426D01*
X127352380Y-149003188D02*
X127352380Y-148526998D01*
X126352380Y-148526998D01*
X126352380Y-149526998D02*
X126352380Y-149717474D01*
X126400000Y-149812712D01*
X126495238Y-149907950D01*
X126685714Y-149955569D01*
X127019047Y-149955569D01*
X127209523Y-149907950D01*
X127304761Y-149812712D01*
X127352380Y-149717474D01*
X127352380Y-149526998D01*
X127304761Y-149431759D01*
X127209523Y-149336521D01*
X127019047Y-149288902D01*
X126685714Y-149288902D01*
X126495238Y-149336521D01*
X126400000Y-149431759D01*
X126352380Y-149526998D01*
X127257142Y-150955569D02*
X127304761Y-150907950D01*
X127352380Y-150765093D01*
X127352380Y-150669855D01*
X127304761Y-150526998D01*
X127209523Y-150431759D01*
X127114285Y-150384140D01*
X126923809Y-150336521D01*
X126780952Y-150336521D01*
X126590476Y-150384140D01*
X126495238Y-150431759D01*
X126400000Y-150526998D01*
X126352380Y-150669855D01*
X126352380Y-150765093D01*
X126400000Y-150907950D01*
X126447619Y-150955569D01*
X127352380Y-151384140D02*
X126352380Y-151384140D01*
X127352380Y-151955569D02*
X126780952Y-151526998D01*
X126352380Y-151955569D02*
X126923809Y-151384140D01*
X127447619Y-152146045D02*
X127447619Y-152907950D01*
X126352380Y-153336521D02*
X126352380Y-153526998D01*
X126400000Y-153622236D01*
X126495238Y-153717474D01*
X126685714Y-153765093D01*
X127019047Y-153765093D01*
X127209523Y-153717474D01*
X127304761Y-153622236D01*
X127352380Y-153526998D01*
X127352380Y-153336521D01*
X127304761Y-153241283D01*
X127209523Y-153146045D01*
X127019047Y-153098426D01*
X126685714Y-153098426D01*
X126495238Y-153146045D01*
X126400000Y-153241283D01*
X126352380Y-153336521D01*
X126352380Y-154193664D02*
X127161904Y-154193664D01*
X127257142Y-154241283D01*
X127304761Y-154288902D01*
X127352380Y-154384140D01*
X127352380Y-154574617D01*
X127304761Y-154669855D01*
X127257142Y-154717474D01*
X127161904Y-154765093D01*
X126352380Y-154765093D01*
X126352380Y-155098426D02*
X126352380Y-155669855D01*
X127352380Y-155384140D02*
X126352380Y-155384140D01*
X92479761Y-113252476D02*
X92527380Y-113395333D01*
X92527380Y-113633428D01*
X92479761Y-113728666D01*
X92432142Y-113776285D01*
X92336904Y-113823904D01*
X92241666Y-113823904D01*
X92146428Y-113776285D01*
X92098809Y-113728666D01*
X92051190Y-113633428D01*
X92003571Y-113442952D01*
X91955952Y-113347714D01*
X91908333Y-113300095D01*
X91813095Y-113252476D01*
X91717857Y-113252476D01*
X91622619Y-113300095D01*
X91575000Y-113347714D01*
X91527380Y-113442952D01*
X91527380Y-113681047D01*
X91575000Y-113823904D01*
X91527380Y-114157238D02*
X92527380Y-114395333D01*
X91813095Y-114585809D01*
X92527380Y-114776285D01*
X91527380Y-115014380D01*
X92527380Y-115919142D02*
X92527380Y-115347714D01*
X92527380Y-115633428D02*
X91527380Y-115633428D01*
X91670238Y-115538190D01*
X91765476Y-115442952D01*
X91813095Y-115347714D01*
X91527380Y-116823904D02*
X91527380Y-116347714D01*
X92003571Y-116300095D01*
X91955952Y-116347714D01*
X91908333Y-116442952D01*
X91908333Y-116681047D01*
X91955952Y-116776285D01*
X92003571Y-116823904D01*
X92098809Y-116871523D01*
X92336904Y-116871523D01*
X92432142Y-116823904D01*
X92479761Y-116776285D01*
X92527380Y-116681047D01*
X92527380Y-116442952D01*
X92479761Y-116347714D01*
X92432142Y-116300095D01*
X120165761Y-123507666D02*
X120213380Y-123650523D01*
X120213380Y-123888619D01*
X120165761Y-123983857D01*
X120118142Y-124031476D01*
X120022904Y-124079095D01*
X119927666Y-124079095D01*
X119832428Y-124031476D01*
X119784809Y-123983857D01*
X119737190Y-123888619D01*
X119689571Y-123698142D01*
X119641952Y-123602904D01*
X119594333Y-123555285D01*
X119499095Y-123507666D01*
X119403857Y-123507666D01*
X119308619Y-123555285D01*
X119261000Y-123602904D01*
X119213380Y-123698142D01*
X119213380Y-123936238D01*
X119261000Y-124079095D01*
X119213380Y-124412428D02*
X120213380Y-124650523D01*
X119499095Y-124841000D01*
X120213380Y-125031476D01*
X119213380Y-125269571D01*
X119213380Y-125555285D02*
X119213380Y-126221952D01*
X120213380Y-125793380D01*
X120038761Y-113474666D02*
X120086380Y-113617523D01*
X120086380Y-113855619D01*
X120038761Y-113950857D01*
X119991142Y-113998476D01*
X119895904Y-114046095D01*
X119800666Y-114046095D01*
X119705428Y-113998476D01*
X119657809Y-113950857D01*
X119610190Y-113855619D01*
X119562571Y-113665142D01*
X119514952Y-113569904D01*
X119467333Y-113522285D01*
X119372095Y-113474666D01*
X119276857Y-113474666D01*
X119181619Y-113522285D01*
X119134000Y-113569904D01*
X119086380Y-113665142D01*
X119086380Y-113903238D01*
X119134000Y-114046095D01*
X119086380Y-114379428D02*
X120086380Y-114617523D01*
X119372095Y-114808000D01*
X120086380Y-114998476D01*
X119086380Y-115236571D01*
X119086380Y-116046095D02*
X119086380Y-115855619D01*
X119134000Y-115760380D01*
X119181619Y-115712761D01*
X119324476Y-115617523D01*
X119514952Y-115569904D01*
X119895904Y-115569904D01*
X119991142Y-115617523D01*
X120038761Y-115665142D01*
X120086380Y-115760380D01*
X120086380Y-115950857D01*
X120038761Y-116046095D01*
X119991142Y-116093714D01*
X119895904Y-116141333D01*
X119657809Y-116141333D01*
X119562571Y-116093714D01*
X119514952Y-116046095D01*
X119467333Y-115950857D01*
X119467333Y-115760380D01*
X119514952Y-115665142D01*
X119562571Y-115617523D01*
X119657809Y-115569904D01*
X120038761Y-103441666D02*
X120086380Y-103584523D01*
X120086380Y-103822619D01*
X120038761Y-103917857D01*
X119991142Y-103965476D01*
X119895904Y-104013095D01*
X119800666Y-104013095D01*
X119705428Y-103965476D01*
X119657809Y-103917857D01*
X119610190Y-103822619D01*
X119562571Y-103632142D01*
X119514952Y-103536904D01*
X119467333Y-103489285D01*
X119372095Y-103441666D01*
X119276857Y-103441666D01*
X119181619Y-103489285D01*
X119134000Y-103536904D01*
X119086380Y-103632142D01*
X119086380Y-103870238D01*
X119134000Y-104013095D01*
X119086380Y-104346428D02*
X120086380Y-104584523D01*
X119372095Y-104775000D01*
X120086380Y-104965476D01*
X119086380Y-105203571D01*
X119086380Y-106060714D02*
X119086380Y-105584523D01*
X119562571Y-105536904D01*
X119514952Y-105584523D01*
X119467333Y-105679761D01*
X119467333Y-105917857D01*
X119514952Y-106013095D01*
X119562571Y-106060714D01*
X119657809Y-106108333D01*
X119895904Y-106108333D01*
X119991142Y-106060714D01*
X120038761Y-106013095D01*
X120086380Y-105917857D01*
X120086380Y-105679761D01*
X120038761Y-105584523D01*
X119991142Y-105536904D01*
X120038761Y-93281666D02*
X120086380Y-93424523D01*
X120086380Y-93662619D01*
X120038761Y-93757857D01*
X119991142Y-93805476D01*
X119895904Y-93853095D01*
X119800666Y-93853095D01*
X119705428Y-93805476D01*
X119657809Y-93757857D01*
X119610190Y-93662619D01*
X119562571Y-93472142D01*
X119514952Y-93376904D01*
X119467333Y-93329285D01*
X119372095Y-93281666D01*
X119276857Y-93281666D01*
X119181619Y-93329285D01*
X119134000Y-93376904D01*
X119086380Y-93472142D01*
X119086380Y-93710238D01*
X119134000Y-93853095D01*
X119086380Y-94186428D02*
X120086380Y-94424523D01*
X119372095Y-94615000D01*
X120086380Y-94805476D01*
X119086380Y-95043571D01*
X119419714Y-95853095D02*
X120086380Y-95853095D01*
X119038761Y-95615000D02*
X119753047Y-95376904D01*
X119753047Y-95995952D01*
X92352761Y-92805476D02*
X92400380Y-92948333D01*
X92400380Y-93186428D01*
X92352761Y-93281666D01*
X92305142Y-93329285D01*
X92209904Y-93376904D01*
X92114666Y-93376904D01*
X92019428Y-93329285D01*
X91971809Y-93281666D01*
X91924190Y-93186428D01*
X91876571Y-92995952D01*
X91828952Y-92900714D01*
X91781333Y-92853095D01*
X91686095Y-92805476D01*
X91590857Y-92805476D01*
X91495619Y-92853095D01*
X91448000Y-92900714D01*
X91400380Y-92995952D01*
X91400380Y-93234047D01*
X91448000Y-93376904D01*
X91400380Y-93710238D02*
X92400380Y-93948333D01*
X91686095Y-94138809D01*
X92400380Y-94329285D01*
X91400380Y-94567380D01*
X92400380Y-95472142D02*
X92400380Y-94900714D01*
X92400380Y-95186428D02*
X91400380Y-95186428D01*
X91543238Y-95091190D01*
X91638476Y-94995952D01*
X91686095Y-94900714D01*
X91400380Y-95805476D02*
X91400380Y-96424523D01*
X91781333Y-96091190D01*
X91781333Y-96234047D01*
X91828952Y-96329285D01*
X91876571Y-96376904D01*
X91971809Y-96424523D01*
X92209904Y-96424523D01*
X92305142Y-96376904D01*
X92352761Y-96329285D01*
X92400380Y-96234047D01*
X92400380Y-95948333D01*
X92352761Y-95853095D01*
X92305142Y-95805476D01*
X92352761Y-82645476D02*
X92400380Y-82788333D01*
X92400380Y-83026428D01*
X92352761Y-83121666D01*
X92305142Y-83169285D01*
X92209904Y-83216904D01*
X92114666Y-83216904D01*
X92019428Y-83169285D01*
X91971809Y-83121666D01*
X91924190Y-83026428D01*
X91876571Y-82835952D01*
X91828952Y-82740714D01*
X91781333Y-82693095D01*
X91686095Y-82645476D01*
X91590857Y-82645476D01*
X91495619Y-82693095D01*
X91448000Y-82740714D01*
X91400380Y-82835952D01*
X91400380Y-83074047D01*
X91448000Y-83216904D01*
X91400380Y-83550238D02*
X92400380Y-83788333D01*
X91686095Y-83978809D01*
X92400380Y-84169285D01*
X91400380Y-84407380D01*
X92400380Y-85312142D02*
X92400380Y-84740714D01*
X92400380Y-85026428D02*
X91400380Y-85026428D01*
X91543238Y-84931190D01*
X91638476Y-84835952D01*
X91686095Y-84740714D01*
X91495619Y-85693095D02*
X91448000Y-85740714D01*
X91400380Y-85835952D01*
X91400380Y-86074047D01*
X91448000Y-86169285D01*
X91495619Y-86216904D01*
X91590857Y-86264523D01*
X91686095Y-86264523D01*
X91828952Y-86216904D01*
X92400380Y-85645476D01*
X92400380Y-86264523D01*
X120038761Y-82994666D02*
X120086380Y-83137523D01*
X120086380Y-83375619D01*
X120038761Y-83470857D01*
X119991142Y-83518476D01*
X119895904Y-83566095D01*
X119800666Y-83566095D01*
X119705428Y-83518476D01*
X119657809Y-83470857D01*
X119610190Y-83375619D01*
X119562571Y-83185142D01*
X119514952Y-83089904D01*
X119467333Y-83042285D01*
X119372095Y-82994666D01*
X119276857Y-82994666D01*
X119181619Y-83042285D01*
X119134000Y-83089904D01*
X119086380Y-83185142D01*
X119086380Y-83423238D01*
X119134000Y-83566095D01*
X119086380Y-83899428D02*
X120086380Y-84137523D01*
X119372095Y-84328000D01*
X120086380Y-84518476D01*
X119086380Y-84756571D01*
X119086380Y-85042285D02*
X119086380Y-85661333D01*
X119467333Y-85328000D01*
X119467333Y-85470857D01*
X119514952Y-85566095D01*
X119562571Y-85613714D01*
X119657809Y-85661333D01*
X119895904Y-85661333D01*
X119991142Y-85613714D01*
X120038761Y-85566095D01*
X120086380Y-85470857D01*
X120086380Y-85185142D01*
X120038761Y-85089904D01*
X119991142Y-85042285D01*
X120038761Y-72961666D02*
X120086380Y-73104523D01*
X120086380Y-73342619D01*
X120038761Y-73437857D01*
X119991142Y-73485476D01*
X119895904Y-73533095D01*
X119800666Y-73533095D01*
X119705428Y-73485476D01*
X119657809Y-73437857D01*
X119610190Y-73342619D01*
X119562571Y-73152142D01*
X119514952Y-73056904D01*
X119467333Y-73009285D01*
X119372095Y-72961666D01*
X119276857Y-72961666D01*
X119181619Y-73009285D01*
X119134000Y-73056904D01*
X119086380Y-73152142D01*
X119086380Y-73390238D01*
X119134000Y-73533095D01*
X119086380Y-73866428D02*
X120086380Y-74104523D01*
X119372095Y-74295000D01*
X120086380Y-74485476D01*
X119086380Y-74723571D01*
X119181619Y-75056904D02*
X119134000Y-75104523D01*
X119086380Y-75199761D01*
X119086380Y-75437857D01*
X119134000Y-75533095D01*
X119181619Y-75580714D01*
X119276857Y-75628333D01*
X119372095Y-75628333D01*
X119514952Y-75580714D01*
X120086380Y-75009285D01*
X120086380Y-75628333D01*
X92352761Y-72358476D02*
X92400380Y-72501333D01*
X92400380Y-72739428D01*
X92352761Y-72834666D01*
X92305142Y-72882285D01*
X92209904Y-72929904D01*
X92114666Y-72929904D01*
X92019428Y-72882285D01*
X91971809Y-72834666D01*
X91924190Y-72739428D01*
X91876571Y-72548952D01*
X91828952Y-72453714D01*
X91781333Y-72406095D01*
X91686095Y-72358476D01*
X91590857Y-72358476D01*
X91495619Y-72406095D01*
X91448000Y-72453714D01*
X91400380Y-72548952D01*
X91400380Y-72787047D01*
X91448000Y-72929904D01*
X91400380Y-73263238D02*
X92400380Y-73501333D01*
X91686095Y-73691809D01*
X92400380Y-73882285D01*
X91400380Y-74120380D01*
X92400380Y-75025142D02*
X92400380Y-74453714D01*
X92400380Y-74739428D02*
X91400380Y-74739428D01*
X91543238Y-74644190D01*
X91638476Y-74548952D01*
X91686095Y-74453714D01*
X92400380Y-75977523D02*
X92400380Y-75406095D01*
X92400380Y-75691809D02*
X91400380Y-75691809D01*
X91543238Y-75596571D01*
X91638476Y-75501333D01*
X91686095Y-75406095D01*
X92352761Y-62198476D02*
X92400380Y-62341333D01*
X92400380Y-62579428D01*
X92352761Y-62674666D01*
X92305142Y-62722285D01*
X92209904Y-62769904D01*
X92114666Y-62769904D01*
X92019428Y-62722285D01*
X91971809Y-62674666D01*
X91924190Y-62579428D01*
X91876571Y-62388952D01*
X91828952Y-62293714D01*
X91781333Y-62246095D01*
X91686095Y-62198476D01*
X91590857Y-62198476D01*
X91495619Y-62246095D01*
X91448000Y-62293714D01*
X91400380Y-62388952D01*
X91400380Y-62627047D01*
X91448000Y-62769904D01*
X91400380Y-63103238D02*
X92400380Y-63341333D01*
X91686095Y-63531809D01*
X92400380Y-63722285D01*
X91400380Y-63960380D01*
X92400380Y-64865142D02*
X92400380Y-64293714D01*
X92400380Y-64579428D02*
X91400380Y-64579428D01*
X91543238Y-64484190D01*
X91638476Y-64388952D01*
X91686095Y-64293714D01*
X91400380Y-65484190D02*
X91400380Y-65579428D01*
X91448000Y-65674666D01*
X91495619Y-65722285D01*
X91590857Y-65769904D01*
X91781333Y-65817523D01*
X92019428Y-65817523D01*
X92209904Y-65769904D01*
X92305142Y-65722285D01*
X92352761Y-65674666D01*
X92400380Y-65579428D01*
X92400380Y-65484190D01*
X92352761Y-65388952D01*
X92305142Y-65341333D01*
X92209904Y-65293714D01*
X92019428Y-65246095D01*
X91781333Y-65246095D01*
X91590857Y-65293714D01*
X91495619Y-65341333D01*
X91448000Y-65388952D01*
X91400380Y-65484190D01*
X119911761Y-62674666D02*
X119959380Y-62817523D01*
X119959380Y-63055619D01*
X119911761Y-63150857D01*
X119864142Y-63198476D01*
X119768904Y-63246095D01*
X119673666Y-63246095D01*
X119578428Y-63198476D01*
X119530809Y-63150857D01*
X119483190Y-63055619D01*
X119435571Y-62865142D01*
X119387952Y-62769904D01*
X119340333Y-62722285D01*
X119245095Y-62674666D01*
X119149857Y-62674666D01*
X119054619Y-62722285D01*
X119007000Y-62769904D01*
X118959380Y-62865142D01*
X118959380Y-63103238D01*
X119007000Y-63246095D01*
X118959380Y-63579428D02*
X119959380Y-63817523D01*
X119245095Y-64008000D01*
X119959380Y-64198476D01*
X118959380Y-64436571D01*
X119959380Y-65341333D02*
X119959380Y-64769904D01*
X119959380Y-65055619D02*
X118959380Y-65055619D01*
X119102238Y-64960380D01*
X119197476Y-64865142D01*
X119245095Y-64769904D01*
X144736333Y-112371380D02*
X144736333Y-113085666D01*
X144783952Y-113228523D01*
X144879190Y-113323761D01*
X145022047Y-113371380D01*
X145117285Y-113371380D01*
X143783952Y-112371380D02*
X144260142Y-112371380D01*
X144307761Y-112847571D01*
X144260142Y-112799952D01*
X144164904Y-112752333D01*
X143926809Y-112752333D01*
X143831571Y-112799952D01*
X143783952Y-112847571D01*
X143736333Y-112942809D01*
X143736333Y-113180904D01*
X143783952Y-113276142D01*
X143831571Y-113323761D01*
X143926809Y-113371380D01*
X144164904Y-113371380D01*
X144260142Y-113323761D01*
X144307761Y-113276142D01*
X152229000Y-115530380D02*
X152562333Y-115054190D01*
X152800428Y-115530380D02*
X152800428Y-114530380D01*
X152419476Y-114530380D01*
X152324238Y-114578000D01*
X152276619Y-114625619D01*
X152229000Y-114720857D01*
X152229000Y-114863714D01*
X152276619Y-114958952D01*
X152324238Y-115006571D01*
X152419476Y-115054190D01*
X152800428Y-115054190D01*
X151800428Y-114530380D02*
X151800428Y-115339904D01*
X151752809Y-115435142D01*
X151705190Y-115482761D01*
X151609952Y-115530380D01*
X151419476Y-115530380D01*
X151324238Y-115482761D01*
X151276619Y-115435142D01*
X151229000Y-115339904D01*
X151229000Y-114530380D01*
X150752809Y-115530380D02*
X150752809Y-114530380D01*
X150181380Y-115530380D01*
X150181380Y-114530380D01*
X149943285Y-115625619D02*
X149181380Y-115625619D01*
X148990904Y-115482761D02*
X148848047Y-115530380D01*
X148609952Y-115530380D01*
X148514714Y-115482761D01*
X148467095Y-115435142D01*
X148419476Y-115339904D01*
X148419476Y-115244666D01*
X148467095Y-115149428D01*
X148514714Y-115101809D01*
X148609952Y-115054190D01*
X148800428Y-115006571D01*
X148895666Y-114958952D01*
X148943285Y-114911333D01*
X148990904Y-114816095D01*
X148990904Y-114720857D01*
X148943285Y-114625619D01*
X148895666Y-114578000D01*
X148800428Y-114530380D01*
X148562333Y-114530380D01*
X148419476Y-114578000D01*
X148133761Y-114530380D02*
X147562333Y-114530380D01*
X147848047Y-115530380D02*
X147848047Y-114530380D01*
X147038523Y-114530380D02*
X146848047Y-114530380D01*
X146752809Y-114578000D01*
X146657571Y-114673238D01*
X146609952Y-114863714D01*
X146609952Y-115197047D01*
X146657571Y-115387523D01*
X146752809Y-115482761D01*
X146848047Y-115530380D01*
X147038523Y-115530380D01*
X147133761Y-115482761D01*
X147229000Y-115387523D01*
X147276619Y-115197047D01*
X147276619Y-114863714D01*
X147229000Y-114673238D01*
X147133761Y-114578000D01*
X147038523Y-114530380D01*
X146181380Y-115530380D02*
X146181380Y-114530380D01*
X145800428Y-114530380D01*
X145705190Y-114578000D01*
X145657571Y-114625619D01*
X145609952Y-114720857D01*
X145609952Y-114863714D01*
X145657571Y-114958952D01*
X145705190Y-115006571D01*
X145800428Y-115054190D01*
X146181380Y-115054190D01*
X150664238Y-73735380D02*
X150997571Y-73259190D01*
X151235666Y-73735380D02*
X151235666Y-72735380D01*
X150854714Y-72735380D01*
X150759476Y-72783000D01*
X150711857Y-72830619D01*
X150664238Y-72925857D01*
X150664238Y-73068714D01*
X150711857Y-73163952D01*
X150759476Y-73211571D01*
X150854714Y-73259190D01*
X151235666Y-73259190D01*
X150378523Y-72735380D02*
X150045190Y-73735380D01*
X149711857Y-72735380D01*
X149426142Y-72830619D02*
X149378523Y-72783000D01*
X149283285Y-72735380D01*
X149045190Y-72735380D01*
X148949952Y-72783000D01*
X148902333Y-72830619D01*
X148854714Y-72925857D01*
X148854714Y-73021095D01*
X148902333Y-73163952D01*
X149473761Y-73735380D01*
X148854714Y-73735380D01*
X152140428Y-63337380D02*
X151902333Y-64337380D01*
X151711857Y-63623095D01*
X151521380Y-64337380D01*
X151283285Y-63337380D01*
X150902333Y-64337380D02*
X150902333Y-63337380D01*
X150426142Y-64337380D02*
X150426142Y-63337380D01*
X150188047Y-63337380D01*
X150045190Y-63385000D01*
X149949952Y-63480238D01*
X149902333Y-63575476D01*
X149854714Y-63765952D01*
X149854714Y-63908809D01*
X149902333Y-64099285D01*
X149949952Y-64194523D01*
X150045190Y-64289761D01*
X150188047Y-64337380D01*
X150426142Y-64337380D01*
X149569000Y-63337380D02*
X148997571Y-63337380D01*
X149283285Y-64337380D02*
X149283285Y-63337380D01*
X148664238Y-64337380D02*
X148664238Y-63337380D01*
X148664238Y-63813571D02*
X148092809Y-63813571D01*
X148092809Y-64337380D02*
X148092809Y-63337380D01*
X132653238Y-73227380D02*
X132986571Y-72751190D01*
X133224666Y-73227380D02*
X133224666Y-72227380D01*
X132843714Y-72227380D01*
X132748476Y-72275000D01*
X132700857Y-72322619D01*
X132653238Y-72417857D01*
X132653238Y-72560714D01*
X132700857Y-72655952D01*
X132748476Y-72703571D01*
X132843714Y-72751190D01*
X133224666Y-72751190D01*
X132367523Y-72227380D02*
X132034190Y-73227380D01*
X131700857Y-72227380D01*
X130843714Y-73227380D02*
X131415142Y-73227380D01*
X131129428Y-73227380D02*
X131129428Y-72227380D01*
X131224666Y-72370238D01*
X131319904Y-72465476D01*
X131415142Y-72513095D01*
X133186380Y-64095380D02*
X133519714Y-63619190D01*
X133757809Y-64095380D02*
X133757809Y-63095380D01*
X133376857Y-63095380D01*
X133281619Y-63143000D01*
X133234000Y-63190619D01*
X133186380Y-63285857D01*
X133186380Y-63428714D01*
X133234000Y-63523952D01*
X133281619Y-63571571D01*
X133376857Y-63619190D01*
X133757809Y-63619190D01*
X132805428Y-63809666D02*
X132329238Y-63809666D01*
X132900666Y-64095380D02*
X132567333Y-63095380D01*
X132234000Y-64095380D01*
X132043523Y-63095380D02*
X131472095Y-63095380D01*
X131757809Y-64095380D02*
X131757809Y-63095380D01*
X131138761Y-63571571D02*
X130805428Y-63571571D01*
X130662571Y-64095380D02*
X131138761Y-64095380D01*
X131138761Y-63095380D01*
X130662571Y-63095380D01*
X136194761Y-107426476D02*
X136242380Y-107569333D01*
X136242380Y-107807428D01*
X136194761Y-107902666D01*
X136147142Y-107950285D01*
X136051904Y-107997904D01*
X135956666Y-107997904D01*
X135861428Y-107950285D01*
X135813809Y-107902666D01*
X135766190Y-107807428D01*
X135718571Y-107616952D01*
X135670952Y-107521714D01*
X135623333Y-107474095D01*
X135528095Y-107426476D01*
X135432857Y-107426476D01*
X135337619Y-107474095D01*
X135290000Y-107521714D01*
X135242380Y-107616952D01*
X135242380Y-107855047D01*
X135290000Y-107997904D01*
X135242380Y-108331238D02*
X136242380Y-108569333D01*
X135528095Y-108759809D01*
X136242380Y-108950285D01*
X135242380Y-109188380D01*
X136242380Y-110093142D02*
X136242380Y-109521714D01*
X136242380Y-109807428D02*
X135242380Y-109807428D01*
X135385238Y-109712190D01*
X135480476Y-109616952D01*
X135528095Y-109521714D01*
X135670952Y-110664571D02*
X135623333Y-110569333D01*
X135575714Y-110521714D01*
X135480476Y-110474095D01*
X135432857Y-110474095D01*
X135337619Y-110521714D01*
X135290000Y-110569333D01*
X135242380Y-110664571D01*
X135242380Y-110855047D01*
X135290000Y-110950285D01*
X135337619Y-110997904D01*
X135432857Y-111045523D01*
X135480476Y-111045523D01*
X135575714Y-110997904D01*
X135623333Y-110950285D01*
X135670952Y-110855047D01*
X135670952Y-110664571D01*
X135718571Y-110569333D01*
X135766190Y-110521714D01*
X135861428Y-110474095D01*
X136051904Y-110474095D01*
X136147142Y-110521714D01*
X136194761Y-110569333D01*
X136242380Y-110664571D01*
X136242380Y-110855047D01*
X136194761Y-110950285D01*
X136147142Y-110997904D01*
X136051904Y-111045523D01*
X135861428Y-111045523D01*
X135766190Y-110997904D01*
X135718571Y-110950285D01*
X135670952Y-110855047D01*
X129003380Y-106704285D02*
X128527190Y-106370952D01*
X129003380Y-106132857D02*
X128003380Y-106132857D01*
X128003380Y-106513809D01*
X128051000Y-106609047D01*
X128098619Y-106656666D01*
X128193857Y-106704285D01*
X128336714Y-106704285D01*
X128431952Y-106656666D01*
X128479571Y-106609047D01*
X128527190Y-106513809D01*
X128527190Y-106132857D01*
X128336714Y-107561428D02*
X129003380Y-107561428D01*
X128336714Y-107132857D02*
X128860523Y-107132857D01*
X128955761Y-107180476D01*
X129003380Y-107275714D01*
X129003380Y-107418571D01*
X128955761Y-107513809D01*
X128908142Y-107561428D01*
X128336714Y-108037619D02*
X129003380Y-108037619D01*
X128431952Y-108037619D02*
X128384333Y-108085238D01*
X128336714Y-108180476D01*
X128336714Y-108323333D01*
X128384333Y-108418571D01*
X128479571Y-108466190D01*
X129003380Y-108466190D01*
X127955761Y-109656666D02*
X129241476Y-108799523D01*
X128955761Y-109942380D02*
X129003380Y-110085238D01*
X129003380Y-110323333D01*
X128955761Y-110418571D01*
X128908142Y-110466190D01*
X128812904Y-110513809D01*
X128717666Y-110513809D01*
X128622428Y-110466190D01*
X128574809Y-110418571D01*
X128527190Y-110323333D01*
X128479571Y-110132857D01*
X128431952Y-110037619D01*
X128384333Y-109990000D01*
X128289095Y-109942380D01*
X128193857Y-109942380D01*
X128098619Y-109990000D01*
X128051000Y-110037619D01*
X128003380Y-110132857D01*
X128003380Y-110370952D01*
X128051000Y-110513809D01*
X128336714Y-110799523D02*
X128336714Y-111180476D01*
X128003380Y-110942380D02*
X128860523Y-110942380D01*
X128955761Y-110990000D01*
X129003380Y-111085238D01*
X129003380Y-111180476D01*
X129003380Y-111656666D02*
X128955761Y-111561428D01*
X128908142Y-111513809D01*
X128812904Y-111466190D01*
X128527190Y-111466190D01*
X128431952Y-111513809D01*
X128384333Y-111561428D01*
X128336714Y-111656666D01*
X128336714Y-111799523D01*
X128384333Y-111894761D01*
X128431952Y-111942380D01*
X128527190Y-111990000D01*
X128812904Y-111990000D01*
X128908142Y-111942380D01*
X128955761Y-111894761D01*
X129003380Y-111799523D01*
X129003380Y-111656666D01*
X128336714Y-112418571D02*
X129336714Y-112418571D01*
X128384333Y-112418571D02*
X128336714Y-112513809D01*
X128336714Y-112704285D01*
X128384333Y-112799523D01*
X128431952Y-112847142D01*
X128527190Y-112894761D01*
X128812904Y-112894761D01*
X128908142Y-112847142D01*
X128955761Y-112799523D01*
X129003380Y-112704285D01*
X129003380Y-112513809D01*
X128955761Y-112418571D01*
X136194761Y-120507476D02*
X136242380Y-120650333D01*
X136242380Y-120888428D01*
X136194761Y-120983666D01*
X136147142Y-121031285D01*
X136051904Y-121078904D01*
X135956666Y-121078904D01*
X135861428Y-121031285D01*
X135813809Y-120983666D01*
X135766190Y-120888428D01*
X135718571Y-120697952D01*
X135670952Y-120602714D01*
X135623333Y-120555095D01*
X135528095Y-120507476D01*
X135432857Y-120507476D01*
X135337619Y-120555095D01*
X135290000Y-120602714D01*
X135242380Y-120697952D01*
X135242380Y-120936047D01*
X135290000Y-121078904D01*
X135242380Y-121412238D02*
X136242380Y-121650333D01*
X135528095Y-121840809D01*
X136242380Y-122031285D01*
X135242380Y-122269380D01*
X136242380Y-123174142D02*
X136242380Y-122602714D01*
X136242380Y-122888428D02*
X135242380Y-122888428D01*
X135385238Y-122793190D01*
X135480476Y-122697952D01*
X135528095Y-122602714D01*
X136242380Y-123650333D02*
X136242380Y-123840809D01*
X136194761Y-123936047D01*
X136147142Y-123983666D01*
X136004285Y-124078904D01*
X135813809Y-124126523D01*
X135432857Y-124126523D01*
X135337619Y-124078904D01*
X135290000Y-124031285D01*
X135242380Y-123936047D01*
X135242380Y-123745571D01*
X135290000Y-123650333D01*
X135337619Y-123602714D01*
X135432857Y-123555095D01*
X135670952Y-123555095D01*
X135766190Y-123602714D01*
X135813809Y-123650333D01*
X135861428Y-123745571D01*
X135861428Y-123936047D01*
X135813809Y-124031285D01*
X135766190Y-124078904D01*
X135670952Y-124126523D01*
X128130380Y-119888523D02*
X128939904Y-119888523D01*
X129035142Y-119936142D01*
X129082761Y-119983761D01*
X129130380Y-120079000D01*
X129130380Y-120269476D01*
X129082761Y-120364714D01*
X129035142Y-120412333D01*
X128939904Y-120459952D01*
X128130380Y-120459952D01*
X128463714Y-120936142D02*
X129463714Y-120936142D01*
X128511333Y-120936142D02*
X128463714Y-121031380D01*
X128463714Y-121221857D01*
X128511333Y-121317095D01*
X128558952Y-121364714D01*
X128654190Y-121412333D01*
X128939904Y-121412333D01*
X129035142Y-121364714D01*
X129082761Y-121317095D01*
X129130380Y-121221857D01*
X129130380Y-121031380D01*
X129082761Y-120936142D01*
X128082761Y-122555190D02*
X129368476Y-121698047D01*
X129130380Y-122888523D02*
X128130380Y-122888523D01*
X128130380Y-123126619D01*
X128178000Y-123269476D01*
X128273238Y-123364714D01*
X128368476Y-123412333D01*
X128558952Y-123459952D01*
X128701809Y-123459952D01*
X128892285Y-123412333D01*
X128987523Y-123364714D01*
X129082761Y-123269476D01*
X129130380Y-123126619D01*
X129130380Y-122888523D01*
X129130380Y-124031380D02*
X129082761Y-123936142D01*
X129035142Y-123888523D01*
X128939904Y-123840904D01*
X128654190Y-123840904D01*
X128558952Y-123888523D01*
X128511333Y-123936142D01*
X128463714Y-124031380D01*
X128463714Y-124174238D01*
X128511333Y-124269476D01*
X128558952Y-124317095D01*
X128654190Y-124364714D01*
X128939904Y-124364714D01*
X129035142Y-124317095D01*
X129082761Y-124269476D01*
X129130380Y-124174238D01*
X129130380Y-124031380D01*
X128463714Y-124698047D02*
X129130380Y-124888523D01*
X128654190Y-125079000D01*
X129130380Y-125269476D01*
X128463714Y-125459952D01*
X128463714Y-125840904D02*
X129130380Y-125840904D01*
X128558952Y-125840904D02*
X128511333Y-125888523D01*
X128463714Y-125983761D01*
X128463714Y-126126619D01*
X128511333Y-126221857D01*
X128606571Y-126269476D01*
X129130380Y-126269476D01*
D12*
X132838761Y-92423619D02*
X133177428Y-91939809D01*
X133419333Y-92423619D02*
X133419333Y-91407619D01*
X133032285Y-91407619D01*
X132935523Y-91456000D01*
X132887142Y-91504380D01*
X132838761Y-91601142D01*
X132838761Y-91746285D01*
X132887142Y-91843047D01*
X132935523Y-91891428D01*
X133032285Y-91939809D01*
X133419333Y-91939809D01*
X132548476Y-91407619D02*
X132209809Y-92423619D01*
X131871142Y-91407619D01*
X131097047Y-91746285D02*
X131097047Y-92423619D01*
X131338952Y-91359238D02*
X131580857Y-92084952D01*
X130951904Y-92084952D01*
X134386952Y-83104238D02*
X134241809Y-83152619D01*
X133999904Y-83152619D01*
X133903142Y-83104238D01*
X133854761Y-83055857D01*
X133806380Y-82959095D01*
X133806380Y-82862333D01*
X133854761Y-82765571D01*
X133903142Y-82717190D01*
X133999904Y-82668809D01*
X134193428Y-82620428D01*
X134290190Y-82572047D01*
X134338571Y-82523666D01*
X134386952Y-82426904D01*
X134386952Y-82330142D01*
X134338571Y-82233380D01*
X134290190Y-82185000D01*
X134193428Y-82136619D01*
X133951523Y-82136619D01*
X133806380Y-82185000D01*
X133467714Y-82136619D02*
X133225809Y-83152619D01*
X133032285Y-82426904D01*
X132838761Y-83152619D01*
X132596857Y-82136619D01*
X132209809Y-83152619D02*
X132209809Y-82136619D01*
X131726000Y-83152619D02*
X131726000Y-82136619D01*
X131145428Y-83152619D01*
X131145428Y-82136619D01*
X130129428Y-82185000D02*
X130226190Y-82136619D01*
X130371333Y-82136619D01*
X130516476Y-82185000D01*
X130613238Y-82281761D01*
X130661619Y-82378523D01*
X130710000Y-82572047D01*
X130710000Y-82717190D01*
X130661619Y-82910714D01*
X130613238Y-83007476D01*
X130516476Y-83104238D01*
X130371333Y-83152619D01*
X130274571Y-83152619D01*
X130129428Y-83104238D01*
X130081047Y-83055857D01*
X130081047Y-82717190D01*
X130274571Y-82717190D01*
D11*
X117808333Y-144359380D02*
X117808333Y-145073666D01*
X117855952Y-145216523D01*
X117951190Y-145311761D01*
X118094047Y-145359380D01*
X118189285Y-145359380D01*
X116808333Y-145359380D02*
X117379761Y-145359380D01*
X117094047Y-145359380D02*
X117094047Y-144359380D01*
X117189285Y-144502238D01*
X117284523Y-144597476D01*
X117379761Y-144645095D01*
X115903190Y-155408380D02*
X115712714Y-155408380D01*
X115617476Y-155456000D01*
X115522238Y-155551238D01*
X115474619Y-155741714D01*
X115474619Y-156075047D01*
X115522238Y-156265523D01*
X115617476Y-156360761D01*
X115712714Y-156408380D01*
X115903190Y-156408380D01*
X115998428Y-156360761D01*
X116093666Y-156265523D01*
X116141285Y-156075047D01*
X116141285Y-155741714D01*
X116093666Y-155551238D01*
X115998428Y-155456000D01*
X115903190Y-155408380D01*
X115046047Y-155408380D02*
X115046047Y-156217904D01*
X114998428Y-156313142D01*
X114950809Y-156360761D01*
X114855571Y-156408380D01*
X114665095Y-156408380D01*
X114569857Y-156360761D01*
X114522238Y-156313142D01*
X114474619Y-156217904D01*
X114474619Y-155408380D01*
X114141285Y-155408380D02*
X113569857Y-155408380D01*
X113855571Y-156408380D02*
X113855571Y-155408380D01*
X112712714Y-156408380D02*
X113284142Y-156408380D01*
X112998428Y-156408380D02*
X112998428Y-155408380D01*
X113093666Y-155551238D01*
X113188904Y-155646476D01*
X113284142Y-155694095D01*
X108561095Y-64587380D02*
X108561095Y-63587380D01*
X108323000Y-63587380D01*
X108180142Y-63635000D01*
X108084904Y-63730238D01*
X108037285Y-63825476D01*
X107989666Y-64015952D01*
X107989666Y-64158809D01*
X108037285Y-64349285D01*
X108084904Y-64444523D01*
X108180142Y-64539761D01*
X108323000Y-64587380D01*
X108561095Y-64587380D01*
X107656333Y-63587380D02*
X107037285Y-63587380D01*
X107370619Y-63968333D01*
X107227761Y-63968333D01*
X107132523Y-64015952D01*
X107084904Y-64063571D01*
X107037285Y-64158809D01*
X107037285Y-64396904D01*
X107084904Y-64492142D01*
X107132523Y-64539761D01*
X107227761Y-64587380D01*
X107513476Y-64587380D01*
X107608714Y-64539761D01*
X107656333Y-64492142D01*
X106298904Y-61464761D02*
X106156047Y-61512380D01*
X105917952Y-61512380D01*
X105822714Y-61464761D01*
X105775095Y-61417142D01*
X105727476Y-61321904D01*
X105727476Y-61226666D01*
X105775095Y-61131428D01*
X105822714Y-61083809D01*
X105917952Y-61036190D01*
X106108428Y-60988571D01*
X106203666Y-60940952D01*
X106251285Y-60893333D01*
X106298904Y-60798095D01*
X106298904Y-60702857D01*
X106251285Y-60607619D01*
X106203666Y-60560000D01*
X106108428Y-60512380D01*
X105870333Y-60512380D01*
X105727476Y-60560000D01*
X104775095Y-61512380D02*
X105346523Y-61512380D01*
X105060809Y-61512380D02*
X105060809Y-60512380D01*
X105156047Y-60655238D01*
X105251285Y-60750476D01*
X105346523Y-60798095D01*
X108561095Y-74620380D02*
X108561095Y-73620380D01*
X108323000Y-73620380D01*
X108180142Y-73668000D01*
X108084904Y-73763238D01*
X108037285Y-73858476D01*
X107989666Y-74048952D01*
X107989666Y-74191809D01*
X108037285Y-74382285D01*
X108084904Y-74477523D01*
X108180142Y-74572761D01*
X108323000Y-74620380D01*
X108561095Y-74620380D01*
X107132523Y-73953714D02*
X107132523Y-74620380D01*
X107370619Y-73572761D02*
X107608714Y-74287047D01*
X106989666Y-74287047D01*
X106298904Y-71612761D02*
X106156047Y-71660380D01*
X105917952Y-71660380D01*
X105822714Y-71612761D01*
X105775095Y-71565142D01*
X105727476Y-71469904D01*
X105727476Y-71374666D01*
X105775095Y-71279428D01*
X105822714Y-71231809D01*
X105917952Y-71184190D01*
X106108428Y-71136571D01*
X106203666Y-71088952D01*
X106251285Y-71041333D01*
X106298904Y-70946095D01*
X106298904Y-70850857D01*
X106251285Y-70755619D01*
X106203666Y-70708000D01*
X106108428Y-70660380D01*
X105870333Y-70660380D01*
X105727476Y-70708000D01*
X105346523Y-70755619D02*
X105298904Y-70708000D01*
X105203666Y-70660380D01*
X104965571Y-70660380D01*
X104870333Y-70708000D01*
X104822714Y-70755619D01*
X104775095Y-70850857D01*
X104775095Y-70946095D01*
X104822714Y-71088952D01*
X105394142Y-71660380D01*
X104775095Y-71660380D01*
X108815095Y-84653380D02*
X108815095Y-83653380D01*
X108577000Y-83653380D01*
X108434142Y-83701000D01*
X108338904Y-83796238D01*
X108291285Y-83891476D01*
X108243666Y-84081952D01*
X108243666Y-84224809D01*
X108291285Y-84415285D01*
X108338904Y-84510523D01*
X108434142Y-84605761D01*
X108577000Y-84653380D01*
X108815095Y-84653380D01*
X107338904Y-83653380D02*
X107815095Y-83653380D01*
X107862714Y-84129571D01*
X107815095Y-84081952D01*
X107719857Y-84034333D01*
X107481761Y-84034333D01*
X107386523Y-84081952D01*
X107338904Y-84129571D01*
X107291285Y-84224809D01*
X107291285Y-84462904D01*
X107338904Y-84558142D01*
X107386523Y-84605761D01*
X107481761Y-84653380D01*
X107719857Y-84653380D01*
X107815095Y-84605761D01*
X107862714Y-84558142D01*
X106298904Y-81772761D02*
X106156047Y-81820380D01*
X105917952Y-81820380D01*
X105822714Y-81772761D01*
X105775095Y-81725142D01*
X105727476Y-81629904D01*
X105727476Y-81534666D01*
X105775095Y-81439428D01*
X105822714Y-81391809D01*
X105917952Y-81344190D01*
X106108428Y-81296571D01*
X106203666Y-81248952D01*
X106251285Y-81201333D01*
X106298904Y-81106095D01*
X106298904Y-81010857D01*
X106251285Y-80915619D01*
X106203666Y-80868000D01*
X106108428Y-80820380D01*
X105870333Y-80820380D01*
X105727476Y-80868000D01*
X105394142Y-80820380D02*
X104775095Y-80820380D01*
X105108428Y-81201333D01*
X104965571Y-81201333D01*
X104870333Y-81248952D01*
X104822714Y-81296571D01*
X104775095Y-81391809D01*
X104775095Y-81629904D01*
X104822714Y-81725142D01*
X104870333Y-81772761D01*
X104965571Y-81820380D01*
X105251285Y-81820380D01*
X105346523Y-81772761D01*
X105394142Y-81725142D01*
X108561095Y-94940380D02*
X108561095Y-93940380D01*
X108323000Y-93940380D01*
X108180142Y-93988000D01*
X108084904Y-94083238D01*
X108037285Y-94178476D01*
X107989666Y-94368952D01*
X107989666Y-94511809D01*
X108037285Y-94702285D01*
X108084904Y-94797523D01*
X108180142Y-94892761D01*
X108323000Y-94940380D01*
X108561095Y-94940380D01*
X107132523Y-93940380D02*
X107323000Y-93940380D01*
X107418238Y-93988000D01*
X107465857Y-94035619D01*
X107561095Y-94178476D01*
X107608714Y-94368952D01*
X107608714Y-94749904D01*
X107561095Y-94845142D01*
X107513476Y-94892761D01*
X107418238Y-94940380D01*
X107227761Y-94940380D01*
X107132523Y-94892761D01*
X107084904Y-94845142D01*
X107037285Y-94749904D01*
X107037285Y-94511809D01*
X107084904Y-94416571D01*
X107132523Y-94368952D01*
X107227761Y-94321333D01*
X107418238Y-94321333D01*
X107513476Y-94368952D01*
X107561095Y-94416571D01*
X107608714Y-94511809D01*
X106298904Y-91932761D02*
X106156047Y-91980380D01*
X105917952Y-91980380D01*
X105822714Y-91932761D01*
X105775095Y-91885142D01*
X105727476Y-91789904D01*
X105727476Y-91694666D01*
X105775095Y-91599428D01*
X105822714Y-91551809D01*
X105917952Y-91504190D01*
X106108428Y-91456571D01*
X106203666Y-91408952D01*
X106251285Y-91361333D01*
X106298904Y-91266095D01*
X106298904Y-91170857D01*
X106251285Y-91075619D01*
X106203666Y-91028000D01*
X106108428Y-90980380D01*
X105870333Y-90980380D01*
X105727476Y-91028000D01*
X104870333Y-91313714D02*
X104870333Y-91980380D01*
X105108428Y-90932761D02*
X105346523Y-91647047D01*
X104727476Y-91647047D01*
X108434095Y-105227380D02*
X108434095Y-104227380D01*
X108196000Y-104227380D01*
X108053142Y-104275000D01*
X107957904Y-104370238D01*
X107910285Y-104465476D01*
X107862666Y-104655952D01*
X107862666Y-104798809D01*
X107910285Y-104989285D01*
X107957904Y-105084523D01*
X108053142Y-105179761D01*
X108196000Y-105227380D01*
X108434095Y-105227380D01*
X107529333Y-104227380D02*
X106862666Y-104227380D01*
X107291238Y-105227380D01*
X106298904Y-102092761D02*
X106156047Y-102140380D01*
X105917952Y-102140380D01*
X105822714Y-102092761D01*
X105775095Y-102045142D01*
X105727476Y-101949904D01*
X105727476Y-101854666D01*
X105775095Y-101759428D01*
X105822714Y-101711809D01*
X105917952Y-101664190D01*
X106108428Y-101616571D01*
X106203666Y-101568952D01*
X106251285Y-101521333D01*
X106298904Y-101426095D01*
X106298904Y-101330857D01*
X106251285Y-101235619D01*
X106203666Y-101188000D01*
X106108428Y-101140380D01*
X105870333Y-101140380D01*
X105727476Y-101188000D01*
X104822714Y-101140380D02*
X105298904Y-101140380D01*
X105346523Y-101616571D01*
X105298904Y-101568952D01*
X105203666Y-101521333D01*
X104965571Y-101521333D01*
X104870333Y-101568952D01*
X104822714Y-101616571D01*
X104775095Y-101711809D01*
X104775095Y-101949904D01*
X104822714Y-102045142D01*
X104870333Y-102092761D01*
X104965571Y-102140380D01*
X105203666Y-102140380D01*
X105298904Y-102092761D01*
X105346523Y-102045142D01*
X108434095Y-115260380D02*
X108434095Y-114260380D01*
X108196000Y-114260380D01*
X108053142Y-114308000D01*
X107957904Y-114403238D01*
X107910285Y-114498476D01*
X107862666Y-114688952D01*
X107862666Y-114831809D01*
X107910285Y-115022285D01*
X107957904Y-115117523D01*
X108053142Y-115212761D01*
X108196000Y-115260380D01*
X108434095Y-115260380D01*
X107291238Y-114688952D02*
X107386476Y-114641333D01*
X107434095Y-114593714D01*
X107481714Y-114498476D01*
X107481714Y-114450857D01*
X107434095Y-114355619D01*
X107386476Y-114308000D01*
X107291238Y-114260380D01*
X107100761Y-114260380D01*
X107005523Y-114308000D01*
X106957904Y-114355619D01*
X106910285Y-114450857D01*
X106910285Y-114498476D01*
X106957904Y-114593714D01*
X107005523Y-114641333D01*
X107100761Y-114688952D01*
X107291238Y-114688952D01*
X107386476Y-114736571D01*
X107434095Y-114784190D01*
X107481714Y-114879428D01*
X107481714Y-115069904D01*
X107434095Y-115165142D01*
X107386476Y-115212761D01*
X107291238Y-115260380D01*
X107100761Y-115260380D01*
X107005523Y-115212761D01*
X106957904Y-115165142D01*
X106910285Y-115069904D01*
X106910285Y-114879428D01*
X106957904Y-114784190D01*
X107005523Y-114736571D01*
X107100761Y-114688952D01*
X106298904Y-112252761D02*
X106156047Y-112300380D01*
X105917952Y-112300380D01*
X105822714Y-112252761D01*
X105775095Y-112205142D01*
X105727476Y-112109904D01*
X105727476Y-112014666D01*
X105775095Y-111919428D01*
X105822714Y-111871809D01*
X105917952Y-111824190D01*
X106108428Y-111776571D01*
X106203666Y-111728952D01*
X106251285Y-111681333D01*
X106298904Y-111586095D01*
X106298904Y-111490857D01*
X106251285Y-111395619D01*
X106203666Y-111348000D01*
X106108428Y-111300380D01*
X105870333Y-111300380D01*
X105727476Y-111348000D01*
X104870333Y-111300380D02*
X105060809Y-111300380D01*
X105156047Y-111348000D01*
X105203666Y-111395619D01*
X105298904Y-111538476D01*
X105346523Y-111728952D01*
X105346523Y-112109904D01*
X105298904Y-112205142D01*
X105251285Y-112252761D01*
X105156047Y-112300380D01*
X104965571Y-112300380D01*
X104870333Y-112252761D01*
X104822714Y-112205142D01*
X104775095Y-112109904D01*
X104775095Y-111871809D01*
X104822714Y-111776571D01*
X104870333Y-111728952D01*
X104965571Y-111681333D01*
X105156047Y-111681333D01*
X105251285Y-111728952D01*
X105298904Y-111776571D01*
X105346523Y-111871809D01*
X81859285Y-64587380D02*
X81859285Y-63587380D01*
X81621190Y-63587380D01*
X81478333Y-63635000D01*
X81383095Y-63730238D01*
X81335476Y-63825476D01*
X81287857Y-64015952D01*
X81287857Y-64158809D01*
X81335476Y-64349285D01*
X81383095Y-64444523D01*
X81478333Y-64539761D01*
X81621190Y-64587380D01*
X81859285Y-64587380D01*
X80335476Y-64587380D02*
X80906904Y-64587380D01*
X80621190Y-64587380D02*
X80621190Y-63587380D01*
X80716428Y-63730238D01*
X80811666Y-63825476D01*
X80906904Y-63873095D01*
X79859285Y-64587380D02*
X79668809Y-64587380D01*
X79573571Y-64539761D01*
X79525952Y-64492142D01*
X79430714Y-64349285D01*
X79383095Y-64158809D01*
X79383095Y-63777857D01*
X79430714Y-63682619D01*
X79478333Y-63635000D01*
X79573571Y-63587380D01*
X79764047Y-63587380D01*
X79859285Y-63635000D01*
X79906904Y-63682619D01*
X79954523Y-63777857D01*
X79954523Y-64015952D01*
X79906904Y-64111190D01*
X79859285Y-64158809D01*
X79764047Y-64206428D01*
X79573571Y-64206428D01*
X79478333Y-64158809D01*
X79430714Y-64111190D01*
X79383095Y-64015952D01*
X78612904Y-61452761D02*
X78470047Y-61500380D01*
X78231952Y-61500380D01*
X78136714Y-61452761D01*
X78089095Y-61405142D01*
X78041476Y-61309904D01*
X78041476Y-61214666D01*
X78089095Y-61119428D01*
X78136714Y-61071809D01*
X78231952Y-61024190D01*
X78422428Y-60976571D01*
X78517666Y-60928952D01*
X78565285Y-60881333D01*
X78612904Y-60786095D01*
X78612904Y-60690857D01*
X78565285Y-60595619D01*
X78517666Y-60548000D01*
X78422428Y-60500380D01*
X78184333Y-60500380D01*
X78041476Y-60548000D01*
X77565285Y-61500380D02*
X77374809Y-61500380D01*
X77279571Y-61452761D01*
X77231952Y-61405142D01*
X77136714Y-61262285D01*
X77089095Y-61071809D01*
X77089095Y-60690857D01*
X77136714Y-60595619D01*
X77184333Y-60548000D01*
X77279571Y-60500380D01*
X77470047Y-60500380D01*
X77565285Y-60548000D01*
X77612904Y-60595619D01*
X77660523Y-60690857D01*
X77660523Y-60928952D01*
X77612904Y-61024190D01*
X77565285Y-61071809D01*
X77470047Y-61119428D01*
X77279571Y-61119428D01*
X77184333Y-61071809D01*
X77136714Y-61024190D01*
X77089095Y-60928952D01*
X81986285Y-74747380D02*
X81986285Y-73747380D01*
X81748190Y-73747380D01*
X81605333Y-73795000D01*
X81510095Y-73890238D01*
X81462476Y-73985476D01*
X81414857Y-74175952D01*
X81414857Y-74318809D01*
X81462476Y-74509285D01*
X81510095Y-74604523D01*
X81605333Y-74699761D01*
X81748190Y-74747380D01*
X81986285Y-74747380D01*
X81033904Y-73842619D02*
X80986285Y-73795000D01*
X80891047Y-73747380D01*
X80652952Y-73747380D01*
X80557714Y-73795000D01*
X80510095Y-73842619D01*
X80462476Y-73937857D01*
X80462476Y-74033095D01*
X80510095Y-74175952D01*
X81081523Y-74747380D01*
X80462476Y-74747380D01*
X79843428Y-73747380D02*
X79748190Y-73747380D01*
X79652952Y-73795000D01*
X79605333Y-73842619D01*
X79557714Y-73937857D01*
X79510095Y-74128333D01*
X79510095Y-74366428D01*
X79557714Y-74556904D01*
X79605333Y-74652142D01*
X79652952Y-74699761D01*
X79748190Y-74747380D01*
X79843428Y-74747380D01*
X79938666Y-74699761D01*
X79986285Y-74652142D01*
X80033904Y-74556904D01*
X80081523Y-74366428D01*
X80081523Y-74128333D01*
X80033904Y-73937857D01*
X79986285Y-73842619D01*
X79938666Y-73795000D01*
X79843428Y-73747380D01*
X79089095Y-71612761D02*
X78946238Y-71660380D01*
X78708142Y-71660380D01*
X78612904Y-71612761D01*
X78565285Y-71565142D01*
X78517666Y-71469904D01*
X78517666Y-71374666D01*
X78565285Y-71279428D01*
X78612904Y-71231809D01*
X78708142Y-71184190D01*
X78898619Y-71136571D01*
X78993857Y-71088952D01*
X79041476Y-71041333D01*
X79089095Y-70946095D01*
X79089095Y-70850857D01*
X79041476Y-70755619D01*
X78993857Y-70708000D01*
X78898619Y-70660380D01*
X78660523Y-70660380D01*
X78517666Y-70708000D01*
X77565285Y-71660380D02*
X78136714Y-71660380D01*
X77851000Y-71660380D02*
X77851000Y-70660380D01*
X77946238Y-70803238D01*
X78041476Y-70898476D01*
X78136714Y-70946095D01*
X76946238Y-70660380D02*
X76851000Y-70660380D01*
X76755761Y-70708000D01*
X76708142Y-70755619D01*
X76660523Y-70850857D01*
X76612904Y-71041333D01*
X76612904Y-71279428D01*
X76660523Y-71469904D01*
X76708142Y-71565142D01*
X76755761Y-71612761D01*
X76851000Y-71660380D01*
X76946238Y-71660380D01*
X77041476Y-71612761D01*
X77089095Y-71565142D01*
X77136714Y-71469904D01*
X77184333Y-71279428D01*
X77184333Y-71041333D01*
X77136714Y-70850857D01*
X77089095Y-70755619D01*
X77041476Y-70708000D01*
X76946238Y-70660380D01*
X81732285Y-84780380D02*
X81732285Y-83780380D01*
X81494190Y-83780380D01*
X81351333Y-83828000D01*
X81256095Y-83923238D01*
X81208476Y-84018476D01*
X81160857Y-84208952D01*
X81160857Y-84351809D01*
X81208476Y-84542285D01*
X81256095Y-84637523D01*
X81351333Y-84732761D01*
X81494190Y-84780380D01*
X81732285Y-84780380D01*
X80779904Y-83875619D02*
X80732285Y-83828000D01*
X80637047Y-83780380D01*
X80398952Y-83780380D01*
X80303714Y-83828000D01*
X80256095Y-83875619D01*
X80208476Y-83970857D01*
X80208476Y-84066095D01*
X80256095Y-84208952D01*
X80827523Y-84780380D01*
X80208476Y-84780380D01*
X79256095Y-84780380D02*
X79827523Y-84780380D01*
X79541809Y-84780380D02*
X79541809Y-83780380D01*
X79637047Y-83923238D01*
X79732285Y-84018476D01*
X79827523Y-84066095D01*
X79089095Y-81784761D02*
X78946238Y-81832380D01*
X78708142Y-81832380D01*
X78612904Y-81784761D01*
X78565285Y-81737142D01*
X78517666Y-81641904D01*
X78517666Y-81546666D01*
X78565285Y-81451428D01*
X78612904Y-81403809D01*
X78708142Y-81356190D01*
X78898619Y-81308571D01*
X78993857Y-81260952D01*
X79041476Y-81213333D01*
X79089095Y-81118095D01*
X79089095Y-81022857D01*
X79041476Y-80927619D01*
X78993857Y-80880000D01*
X78898619Y-80832380D01*
X78660523Y-80832380D01*
X78517666Y-80880000D01*
X77565285Y-81832380D02*
X78136714Y-81832380D01*
X77851000Y-81832380D02*
X77851000Y-80832380D01*
X77946238Y-80975238D01*
X78041476Y-81070476D01*
X78136714Y-81118095D01*
X76612904Y-81832380D02*
X77184333Y-81832380D01*
X76898619Y-81832380D02*
X76898619Y-80832380D01*
X76993857Y-80975238D01*
X77089095Y-81070476D01*
X77184333Y-81118095D01*
X81859285Y-95067380D02*
X81859285Y-94067380D01*
X81621190Y-94067380D01*
X81478333Y-94115000D01*
X81383095Y-94210238D01*
X81335476Y-94305476D01*
X81287857Y-94495952D01*
X81287857Y-94638809D01*
X81335476Y-94829285D01*
X81383095Y-94924523D01*
X81478333Y-95019761D01*
X81621190Y-95067380D01*
X81859285Y-95067380D01*
X80906904Y-94162619D02*
X80859285Y-94115000D01*
X80764047Y-94067380D01*
X80525952Y-94067380D01*
X80430714Y-94115000D01*
X80383095Y-94162619D01*
X80335476Y-94257857D01*
X80335476Y-94353095D01*
X80383095Y-94495952D01*
X80954523Y-95067380D01*
X80335476Y-95067380D01*
X79954523Y-94162619D02*
X79906904Y-94115000D01*
X79811666Y-94067380D01*
X79573571Y-94067380D01*
X79478333Y-94115000D01*
X79430714Y-94162619D01*
X79383095Y-94257857D01*
X79383095Y-94353095D01*
X79430714Y-94495952D01*
X80002142Y-95067380D01*
X79383095Y-95067380D01*
X79089095Y-91932761D02*
X78946238Y-91980380D01*
X78708142Y-91980380D01*
X78612904Y-91932761D01*
X78565285Y-91885142D01*
X78517666Y-91789904D01*
X78517666Y-91694666D01*
X78565285Y-91599428D01*
X78612904Y-91551809D01*
X78708142Y-91504190D01*
X78898619Y-91456571D01*
X78993857Y-91408952D01*
X79041476Y-91361333D01*
X79089095Y-91266095D01*
X79089095Y-91170857D01*
X79041476Y-91075619D01*
X78993857Y-91028000D01*
X78898619Y-90980380D01*
X78660523Y-90980380D01*
X78517666Y-91028000D01*
X77565285Y-91980380D02*
X78136714Y-91980380D01*
X77851000Y-91980380D02*
X77851000Y-90980380D01*
X77946238Y-91123238D01*
X78041476Y-91218476D01*
X78136714Y-91266095D01*
X77184333Y-91075619D02*
X77136714Y-91028000D01*
X77041476Y-90980380D01*
X76803380Y-90980380D01*
X76708142Y-91028000D01*
X76660523Y-91075619D01*
X76612904Y-91170857D01*
X76612904Y-91266095D01*
X76660523Y-91408952D01*
X77231952Y-91980380D01*
X76612904Y-91980380D01*
X81732285Y-105100380D02*
X81732285Y-104100380D01*
X81494190Y-104100380D01*
X81351333Y-104148000D01*
X81256095Y-104243238D01*
X81208476Y-104338476D01*
X81160857Y-104528952D01*
X81160857Y-104671809D01*
X81208476Y-104862285D01*
X81256095Y-104957523D01*
X81351333Y-105052761D01*
X81494190Y-105100380D01*
X81732285Y-105100380D01*
X80779904Y-104195619D02*
X80732285Y-104148000D01*
X80637047Y-104100380D01*
X80398952Y-104100380D01*
X80303714Y-104148000D01*
X80256095Y-104195619D01*
X80208476Y-104290857D01*
X80208476Y-104386095D01*
X80256095Y-104528952D01*
X80827523Y-105100380D01*
X80208476Y-105100380D01*
X79875142Y-104100380D02*
X79256095Y-104100380D01*
X79589428Y-104481333D01*
X79446571Y-104481333D01*
X79351333Y-104528952D01*
X79303714Y-104576571D01*
X79256095Y-104671809D01*
X79256095Y-104909904D01*
X79303714Y-105005142D01*
X79351333Y-105052761D01*
X79446571Y-105100380D01*
X79732285Y-105100380D01*
X79827523Y-105052761D01*
X79875142Y-105005142D01*
X79089095Y-102092761D02*
X78946238Y-102140380D01*
X78708142Y-102140380D01*
X78612904Y-102092761D01*
X78565285Y-102045142D01*
X78517666Y-101949904D01*
X78517666Y-101854666D01*
X78565285Y-101759428D01*
X78612904Y-101711809D01*
X78708142Y-101664190D01*
X78898619Y-101616571D01*
X78993857Y-101568952D01*
X79041476Y-101521333D01*
X79089095Y-101426095D01*
X79089095Y-101330857D01*
X79041476Y-101235619D01*
X78993857Y-101188000D01*
X78898619Y-101140380D01*
X78660523Y-101140380D01*
X78517666Y-101188000D01*
X77565285Y-102140380D02*
X78136714Y-102140380D01*
X77851000Y-102140380D02*
X77851000Y-101140380D01*
X77946238Y-101283238D01*
X78041476Y-101378476D01*
X78136714Y-101426095D01*
X77231952Y-101140380D02*
X76612904Y-101140380D01*
X76946238Y-101521333D01*
X76803380Y-101521333D01*
X76708142Y-101568952D01*
X76660523Y-101616571D01*
X76612904Y-101711809D01*
X76612904Y-101949904D01*
X76660523Y-102045142D01*
X76708142Y-102092761D01*
X76803380Y-102140380D01*
X77089095Y-102140380D01*
X77184333Y-102092761D01*
X77231952Y-102045142D01*
X81732285Y-115387380D02*
X81732285Y-114387380D01*
X81494190Y-114387380D01*
X81351333Y-114435000D01*
X81256095Y-114530238D01*
X81208476Y-114625476D01*
X81160857Y-114815952D01*
X81160857Y-114958809D01*
X81208476Y-115149285D01*
X81256095Y-115244523D01*
X81351333Y-115339761D01*
X81494190Y-115387380D01*
X81732285Y-115387380D01*
X80779904Y-114482619D02*
X80732285Y-114435000D01*
X80637047Y-114387380D01*
X80398952Y-114387380D01*
X80303714Y-114435000D01*
X80256095Y-114482619D01*
X80208476Y-114577857D01*
X80208476Y-114673095D01*
X80256095Y-114815952D01*
X80827523Y-115387380D01*
X80208476Y-115387380D01*
X79351333Y-114720714D02*
X79351333Y-115387380D01*
X79589428Y-114339761D02*
X79827523Y-115054047D01*
X79208476Y-115054047D01*
X79089095Y-112252761D02*
X78946238Y-112300380D01*
X78708142Y-112300380D01*
X78612904Y-112252761D01*
X78565285Y-112205142D01*
X78517666Y-112109904D01*
X78517666Y-112014666D01*
X78565285Y-111919428D01*
X78612904Y-111871809D01*
X78708142Y-111824190D01*
X78898619Y-111776571D01*
X78993857Y-111728952D01*
X79041476Y-111681333D01*
X79089095Y-111586095D01*
X79089095Y-111490857D01*
X79041476Y-111395619D01*
X78993857Y-111348000D01*
X78898619Y-111300380D01*
X78660523Y-111300380D01*
X78517666Y-111348000D01*
X77565285Y-112300380D02*
X78136714Y-112300380D01*
X77851000Y-112300380D02*
X77851000Y-111300380D01*
X77946238Y-111443238D01*
X78041476Y-111538476D01*
X78136714Y-111586095D01*
X76708142Y-111633714D02*
X76708142Y-112300380D01*
X76946238Y-111252761D02*
X77184333Y-111967047D01*
X76565285Y-111967047D01*
X81605285Y-125420380D02*
X81605285Y-124420380D01*
X81367190Y-124420380D01*
X81224333Y-124468000D01*
X81129095Y-124563238D01*
X81081476Y-124658476D01*
X81033857Y-124848952D01*
X81033857Y-124991809D01*
X81081476Y-125182285D01*
X81129095Y-125277523D01*
X81224333Y-125372761D01*
X81367190Y-125420380D01*
X81605285Y-125420380D01*
X80652904Y-124515619D02*
X80605285Y-124468000D01*
X80510047Y-124420380D01*
X80271952Y-124420380D01*
X80176714Y-124468000D01*
X80129095Y-124515619D01*
X80081476Y-124610857D01*
X80081476Y-124706095D01*
X80129095Y-124848952D01*
X80700523Y-125420380D01*
X80081476Y-125420380D01*
X79176714Y-124420380D02*
X79652904Y-124420380D01*
X79700523Y-124896571D01*
X79652904Y-124848952D01*
X79557666Y-124801333D01*
X79319571Y-124801333D01*
X79224333Y-124848952D01*
X79176714Y-124896571D01*
X79129095Y-124991809D01*
X79129095Y-125229904D01*
X79176714Y-125325142D01*
X79224333Y-125372761D01*
X79319571Y-125420380D01*
X79557666Y-125420380D01*
X79652904Y-125372761D01*
X79700523Y-125325142D01*
X79089095Y-122424761D02*
X78946238Y-122472380D01*
X78708142Y-122472380D01*
X78612904Y-122424761D01*
X78565285Y-122377142D01*
X78517666Y-122281904D01*
X78517666Y-122186666D01*
X78565285Y-122091428D01*
X78612904Y-122043809D01*
X78708142Y-121996190D01*
X78898619Y-121948571D01*
X78993857Y-121900952D01*
X79041476Y-121853333D01*
X79089095Y-121758095D01*
X79089095Y-121662857D01*
X79041476Y-121567619D01*
X78993857Y-121520000D01*
X78898619Y-121472380D01*
X78660523Y-121472380D01*
X78517666Y-121520000D01*
X77565285Y-122472380D02*
X78136714Y-122472380D01*
X77851000Y-122472380D02*
X77851000Y-121472380D01*
X77946238Y-121615238D01*
X78041476Y-121710476D01*
X78136714Y-121758095D01*
X76660523Y-121472380D02*
X77136714Y-121472380D01*
X77184333Y-121948571D01*
X77136714Y-121900952D01*
X77041476Y-121853333D01*
X76803380Y-121853333D01*
X76708142Y-121900952D01*
X76660523Y-121948571D01*
X76612904Y-122043809D01*
X76612904Y-122281904D01*
X76660523Y-122377142D01*
X76708142Y-122424761D01*
X76803380Y-122472380D01*
X77041476Y-122472380D01*
X77136714Y-122424761D01*
X77184333Y-122377142D01*
X154007333Y-144375380D02*
X154007333Y-145089666D01*
X154054952Y-145232523D01*
X154150190Y-145327761D01*
X154293047Y-145375380D01*
X154388285Y-145375380D01*
X153102571Y-144708714D02*
X153102571Y-145375380D01*
X153340666Y-144327761D02*
X153578761Y-145042047D01*
X152959714Y-145042047D01*
X144812142Y-148247095D02*
X144859761Y-148199476D01*
X144907380Y-148056619D01*
X144907380Y-147961380D01*
X144859761Y-147818523D01*
X144764523Y-147723285D01*
X144669285Y-147675666D01*
X144478809Y-147628047D01*
X144335952Y-147628047D01*
X144145476Y-147675666D01*
X144050238Y-147723285D01*
X143955000Y-147818523D01*
X143907380Y-147961380D01*
X143907380Y-148056619D01*
X143955000Y-148199476D01*
X144002619Y-148247095D01*
X144907380Y-149151857D02*
X144907380Y-148675666D01*
X143907380Y-148675666D01*
X143907380Y-149675666D02*
X143907380Y-149866142D01*
X143955000Y-149961380D01*
X144050238Y-150056619D01*
X144240714Y-150104238D01*
X144574047Y-150104238D01*
X144764523Y-150056619D01*
X144859761Y-149961380D01*
X144907380Y-149866142D01*
X144907380Y-149675666D01*
X144859761Y-149580428D01*
X144764523Y-149485190D01*
X144574047Y-149437571D01*
X144240714Y-149437571D01*
X144050238Y-149485190D01*
X143955000Y-149580428D01*
X143907380Y-149675666D01*
X144812142Y-151104238D02*
X144859761Y-151056619D01*
X144907380Y-150913761D01*
X144907380Y-150818523D01*
X144859761Y-150675666D01*
X144764523Y-150580428D01*
X144669285Y-150532809D01*
X144478809Y-150485190D01*
X144335952Y-150485190D01*
X144145476Y-150532809D01*
X144050238Y-150580428D01*
X143955000Y-150675666D01*
X143907380Y-150818523D01*
X143907380Y-150913761D01*
X143955000Y-151056619D01*
X144002619Y-151104238D01*
X144907380Y-151532809D02*
X143907380Y-151532809D01*
X144907380Y-152104238D02*
X144335952Y-151675666D01*
X143907380Y-152104238D02*
X144478809Y-151532809D01*
X145002619Y-152294714D02*
X145002619Y-153056619D01*
X144907380Y-153294714D02*
X143907380Y-153294714D01*
X144907380Y-153770904D02*
X143907380Y-153770904D01*
X144907380Y-154342333D01*
X143907380Y-154342333D01*
X144736333Y-126087380D02*
X144736333Y-126801666D01*
X144783952Y-126944523D01*
X144879190Y-127039761D01*
X145022047Y-127087380D01*
X145117285Y-127087380D01*
X143831571Y-126087380D02*
X144022047Y-126087380D01*
X144117285Y-126135000D01*
X144164904Y-126182619D01*
X144260142Y-126325476D01*
X144307761Y-126515952D01*
X144307761Y-126896904D01*
X144260142Y-126992142D01*
X144212523Y-127039761D01*
X144117285Y-127087380D01*
X143926809Y-127087380D01*
X143831571Y-127039761D01*
X143783952Y-126992142D01*
X143736333Y-126896904D01*
X143736333Y-126658809D01*
X143783952Y-126563571D01*
X143831571Y-126515952D01*
X143926809Y-126468333D01*
X144117285Y-126468333D01*
X144212523Y-126515952D01*
X144260142Y-126563571D01*
X144307761Y-126658809D01*
X152895714Y-127992380D02*
X152895714Y-128801904D01*
X152848095Y-128897142D01*
X152800476Y-128944761D01*
X152705238Y-128992380D01*
X152514761Y-128992380D01*
X152419523Y-128944761D01*
X152371904Y-128897142D01*
X152324285Y-128801904D01*
X152324285Y-127992380D01*
X151848095Y-128992380D02*
X151848095Y-127992380D01*
X151467142Y-127992380D01*
X151371904Y-128040000D01*
X151324285Y-128087619D01*
X151276666Y-128182857D01*
X151276666Y-128325714D01*
X151324285Y-128420952D01*
X151371904Y-128468571D01*
X151467142Y-128516190D01*
X151848095Y-128516190D01*
X151086190Y-129087619D02*
X150324285Y-129087619D01*
X150086190Y-128992380D02*
X150086190Y-127992380D01*
X149848095Y-127992380D01*
X149705238Y-128040000D01*
X149610000Y-128135238D01*
X149562380Y-128230476D01*
X149514761Y-128420952D01*
X149514761Y-128563809D01*
X149562380Y-128754285D01*
X149610000Y-128849523D01*
X149705238Y-128944761D01*
X149848095Y-128992380D01*
X150086190Y-128992380D01*
X148895714Y-127992380D02*
X148705238Y-127992380D01*
X148610000Y-128040000D01*
X148514761Y-128135238D01*
X148467142Y-128325714D01*
X148467142Y-128659047D01*
X148514761Y-128849523D01*
X148610000Y-128944761D01*
X148705238Y-128992380D01*
X148895714Y-128992380D01*
X148990952Y-128944761D01*
X149086190Y-128849523D01*
X149133809Y-128659047D01*
X149133809Y-128325714D01*
X149086190Y-128135238D01*
X148990952Y-128040000D01*
X148895714Y-127992380D01*
X148133809Y-127992380D02*
X147895714Y-128992380D01*
X147705238Y-128278095D01*
X147514761Y-128992380D01*
X147276666Y-127992380D01*
X146895714Y-128992380D02*
X146895714Y-127992380D01*
X146324285Y-128992380D01*
X146324285Y-127992380D01*
X90945333Y-144232380D02*
X90945333Y-144946666D01*
X90992952Y-145089523D01*
X91088190Y-145184761D01*
X91231047Y-145232380D01*
X91326285Y-145232380D01*
X90516761Y-144327619D02*
X90469142Y-144280000D01*
X90373904Y-144232380D01*
X90135809Y-144232380D01*
X90040571Y-144280000D01*
X89992952Y-144327619D01*
X89945333Y-144422857D01*
X89945333Y-144518095D01*
X89992952Y-144660952D01*
X90564380Y-145232380D01*
X89945333Y-145232380D01*
X80859380Y-146478809D02*
X80859380Y-146669285D01*
X80907000Y-146764523D01*
X81002238Y-146859761D01*
X81192714Y-146907380D01*
X81526047Y-146907380D01*
X81716523Y-146859761D01*
X81811761Y-146764523D01*
X81859380Y-146669285D01*
X81859380Y-146478809D01*
X81811761Y-146383571D01*
X81716523Y-146288333D01*
X81526047Y-146240714D01*
X81192714Y-146240714D01*
X81002238Y-146288333D01*
X80907000Y-146383571D01*
X80859380Y-146478809D01*
X80859380Y-147335952D02*
X81668904Y-147335952D01*
X81764142Y-147383571D01*
X81811761Y-147431190D01*
X81859380Y-147526428D01*
X81859380Y-147716904D01*
X81811761Y-147812142D01*
X81764142Y-147859761D01*
X81668904Y-147907380D01*
X80859380Y-147907380D01*
X80859380Y-148240714D02*
X80859380Y-148812142D01*
X81859380Y-148526428D02*
X80859380Y-148526428D01*
X80954619Y-149097857D02*
X80907000Y-149145476D01*
X80859380Y-149240714D01*
X80859380Y-149478809D01*
X80907000Y-149574047D01*
X80954619Y-149621666D01*
X81049857Y-149669285D01*
X81145095Y-149669285D01*
X81287952Y-149621666D01*
X81859380Y-149050238D01*
X81859380Y-149669285D01*
X81732285Y-135580380D02*
X81732285Y-134580380D01*
X81494190Y-134580380D01*
X81351333Y-134628000D01*
X81256095Y-134723238D01*
X81208476Y-134818476D01*
X81160857Y-135008952D01*
X81160857Y-135151809D01*
X81208476Y-135342285D01*
X81256095Y-135437523D01*
X81351333Y-135532761D01*
X81494190Y-135580380D01*
X81732285Y-135580380D01*
X80779904Y-134675619D02*
X80732285Y-134628000D01*
X80637047Y-134580380D01*
X80398952Y-134580380D01*
X80303714Y-134628000D01*
X80256095Y-134675619D01*
X80208476Y-134770857D01*
X80208476Y-134866095D01*
X80256095Y-135008952D01*
X80827523Y-135580380D01*
X80208476Y-135580380D01*
X79351333Y-134580380D02*
X79541809Y-134580380D01*
X79637047Y-134628000D01*
X79684666Y-134675619D01*
X79779904Y-134818476D01*
X79827523Y-135008952D01*
X79827523Y-135389904D01*
X79779904Y-135485142D01*
X79732285Y-135532761D01*
X79637047Y-135580380D01*
X79446571Y-135580380D01*
X79351333Y-135532761D01*
X79303714Y-135485142D01*
X79256095Y-135389904D01*
X79256095Y-135151809D01*
X79303714Y-135056571D01*
X79351333Y-135008952D01*
X79446571Y-134961333D01*
X79637047Y-134961333D01*
X79732285Y-135008952D01*
X79779904Y-135056571D01*
X79827523Y-135151809D01*
X79089095Y-132584761D02*
X78946238Y-132632380D01*
X78708142Y-132632380D01*
X78612904Y-132584761D01*
X78565285Y-132537142D01*
X78517666Y-132441904D01*
X78517666Y-132346666D01*
X78565285Y-132251428D01*
X78612904Y-132203809D01*
X78708142Y-132156190D01*
X78898619Y-132108571D01*
X78993857Y-132060952D01*
X79041476Y-132013333D01*
X79089095Y-131918095D01*
X79089095Y-131822857D01*
X79041476Y-131727619D01*
X78993857Y-131680000D01*
X78898619Y-131632380D01*
X78660523Y-131632380D01*
X78517666Y-131680000D01*
X77565285Y-132632380D02*
X78136714Y-132632380D01*
X77851000Y-132632380D02*
X77851000Y-131632380D01*
X77946238Y-131775238D01*
X78041476Y-131870476D01*
X78136714Y-131918095D01*
X76708142Y-131632380D02*
X76898619Y-131632380D01*
X76993857Y-131680000D01*
X77041476Y-131727619D01*
X77136714Y-131870476D01*
X77184333Y-132060952D01*
X77184333Y-132441904D01*
X77136714Y-132537142D01*
X77089095Y-132584761D01*
X76993857Y-132632380D01*
X76803380Y-132632380D01*
X76708142Y-132584761D01*
X76660523Y-132537142D01*
X76612904Y-132441904D01*
X76612904Y-132203809D01*
X76660523Y-132108571D01*
X76708142Y-132060952D01*
X76803380Y-132013333D01*
X76993857Y-132013333D01*
X77089095Y-132060952D01*
X77136714Y-132108571D01*
X77184333Y-132203809D01*
X92479761Y-133445476D02*
X92527380Y-133588333D01*
X92527380Y-133826428D01*
X92479761Y-133921666D01*
X92432142Y-133969285D01*
X92336904Y-134016904D01*
X92241666Y-134016904D01*
X92146428Y-133969285D01*
X92098809Y-133921666D01*
X92051190Y-133826428D01*
X92003571Y-133635952D01*
X91955952Y-133540714D01*
X91908333Y-133493095D01*
X91813095Y-133445476D01*
X91717857Y-133445476D01*
X91622619Y-133493095D01*
X91575000Y-133540714D01*
X91527380Y-133635952D01*
X91527380Y-133874047D01*
X91575000Y-134016904D01*
X91527380Y-134350238D02*
X92527380Y-134588333D01*
X91813095Y-134778809D01*
X92527380Y-134969285D01*
X91527380Y-135207380D01*
X92527380Y-136112142D02*
X92527380Y-135540714D01*
X92527380Y-135826428D02*
X91527380Y-135826428D01*
X91670238Y-135731190D01*
X91765476Y-135635952D01*
X91813095Y-135540714D01*
X91527380Y-136445476D02*
X91527380Y-137112142D01*
X92527380Y-136683571D01*
X92354561Y-123273476D02*
X92402180Y-123416333D01*
X92402180Y-123654428D01*
X92354561Y-123749666D01*
X92306942Y-123797285D01*
X92211704Y-123844904D01*
X92116466Y-123844904D01*
X92021228Y-123797285D01*
X91973609Y-123749666D01*
X91925990Y-123654428D01*
X91878371Y-123463952D01*
X91830752Y-123368714D01*
X91783133Y-123321095D01*
X91687895Y-123273476D01*
X91592657Y-123273476D01*
X91497419Y-123321095D01*
X91449800Y-123368714D01*
X91402180Y-123463952D01*
X91402180Y-123702047D01*
X91449800Y-123844904D01*
X91402180Y-124178238D02*
X92402180Y-124416333D01*
X91687895Y-124606809D01*
X92402180Y-124797285D01*
X91402180Y-125035380D01*
X92402180Y-125940142D02*
X92402180Y-125368714D01*
X92402180Y-125654428D02*
X91402180Y-125654428D01*
X91545038Y-125559190D01*
X91640276Y-125463952D01*
X91687895Y-125368714D01*
X91402180Y-126797285D02*
X91402180Y-126606809D01*
X91449800Y-126511571D01*
X91497419Y-126463952D01*
X91640276Y-126368714D01*
X91830752Y-126321095D01*
X92211704Y-126321095D01*
X92306942Y-126368714D01*
X92354561Y-126416333D01*
X92402180Y-126511571D01*
X92402180Y-126702047D01*
X92354561Y-126797285D01*
X92306942Y-126844904D01*
X92211704Y-126892523D01*
X91973609Y-126892523D01*
X91878371Y-126844904D01*
X91830752Y-126797285D01*
X91783133Y-126702047D01*
X91783133Y-126511571D01*
X91830752Y-126416333D01*
X91878371Y-126368714D01*
X91973609Y-126321095D01*
D12*
X150595803Y-92423619D02*
X150934470Y-91939809D01*
X151176375Y-92423619D02*
X151176375Y-91407619D01*
X150789327Y-91407619D01*
X150692565Y-91456000D01*
X150644184Y-91504380D01*
X150595803Y-91601142D01*
X150595803Y-91746285D01*
X150644184Y-91843047D01*
X150692565Y-91891428D01*
X150789327Y-91939809D01*
X151176375Y-91939809D01*
X150305518Y-91407619D02*
X149966851Y-92423619D01*
X149628184Y-91407619D01*
X149386280Y-91407619D02*
X148757327Y-91407619D01*
X149095994Y-91794666D01*
X148950851Y-91794666D01*
X148854089Y-91843047D01*
X148805708Y-91891428D01*
X148757327Y-91988190D01*
X148757327Y-92230095D01*
X148805708Y-92326857D01*
X148854089Y-92375238D01*
X148950851Y-92423619D01*
X149241137Y-92423619D01*
X149337899Y-92375238D01*
X149386280Y-92326857D01*
X152119803Y-83104238D02*
X151974661Y-83152619D01*
X151732756Y-83152619D01*
X151635994Y-83104238D01*
X151587613Y-83055857D01*
X151539232Y-82959095D01*
X151539232Y-82862333D01*
X151587613Y-82765571D01*
X151635994Y-82717190D01*
X151732756Y-82668809D01*
X151926280Y-82620428D01*
X152023042Y-82572047D01*
X152071422Y-82523666D01*
X152119803Y-82426904D01*
X152119803Y-82330142D01*
X152071422Y-82233380D01*
X152023042Y-82185000D01*
X151926280Y-82136619D01*
X151684375Y-82136619D01*
X151539232Y-82185000D01*
X151248946Y-82136619D02*
X150668375Y-82136619D01*
X150958661Y-83152619D02*
X150958661Y-82136619D01*
X150329708Y-82620428D02*
X149991042Y-82620428D01*
X149845899Y-83152619D02*
X150329708Y-83152619D01*
X150329708Y-82136619D01*
X149845899Y-82136619D01*
X149410470Y-83152619D02*
X149410470Y-82136619D01*
X149023422Y-82136619D01*
X148926661Y-82185000D01*
X148878280Y-82233380D01*
X148829899Y-82330142D01*
X148829899Y-82475285D01*
X148878280Y-82572047D01*
X148926661Y-82620428D01*
X149023422Y-82668809D01*
X149410470Y-82668809D01*
X148442851Y-83104238D02*
X148297708Y-83152619D01*
X148055803Y-83152619D01*
X147959042Y-83104238D01*
X147910661Y-83055857D01*
X147862280Y-82959095D01*
X147862280Y-82862333D01*
X147910661Y-82765571D01*
X147959042Y-82717190D01*
X148055803Y-82668809D01*
X148249327Y-82620428D01*
X148346089Y-82572047D01*
X148394470Y-82523666D01*
X148442851Y-82426904D01*
X148442851Y-82330142D01*
X148394470Y-82233380D01*
X148346089Y-82185000D01*
X148249327Y-82136619D01*
X148007422Y-82136619D01*
X147862280Y-82185000D01*
D11*
X109545285Y-135580380D02*
X109545285Y-134580380D01*
X109307190Y-134580380D01*
X109164333Y-134628000D01*
X109069095Y-134723238D01*
X109021476Y-134818476D01*
X108973857Y-135008952D01*
X108973857Y-135151809D01*
X109021476Y-135342285D01*
X109069095Y-135437523D01*
X109164333Y-135532761D01*
X109307190Y-135580380D01*
X109545285Y-135580380D01*
X108021476Y-135580380D02*
X108592904Y-135580380D01*
X108307190Y-135580380D02*
X108307190Y-134580380D01*
X108402428Y-134723238D01*
X108497666Y-134818476D01*
X108592904Y-134866095D01*
X107402428Y-134580380D02*
X107307190Y-134580380D01*
X107211952Y-134628000D01*
X107164333Y-134675619D01*
X107116714Y-134770857D01*
X107069095Y-134961333D01*
X107069095Y-135199428D01*
X107116714Y-135389904D01*
X107164333Y-135485142D01*
X107211952Y-135532761D01*
X107307190Y-135580380D01*
X107402428Y-135580380D01*
X107497666Y-135532761D01*
X107545285Y-135485142D01*
X107592904Y-135389904D01*
X107640523Y-135199428D01*
X107640523Y-134961333D01*
X107592904Y-134770857D01*
X107545285Y-134675619D01*
X107497666Y-134628000D01*
X107402428Y-134580380D01*
X106298904Y-132572761D02*
X106156047Y-132620380D01*
X105917952Y-132620380D01*
X105822714Y-132572761D01*
X105775095Y-132525142D01*
X105727476Y-132429904D01*
X105727476Y-132334666D01*
X105775095Y-132239428D01*
X105822714Y-132191809D01*
X105917952Y-132144190D01*
X106108428Y-132096571D01*
X106203666Y-132048952D01*
X106251285Y-132001333D01*
X106298904Y-131906095D01*
X106298904Y-131810857D01*
X106251285Y-131715619D01*
X106203666Y-131668000D01*
X106108428Y-131620380D01*
X105870333Y-131620380D01*
X105727476Y-131668000D01*
X105156047Y-132048952D02*
X105251285Y-132001333D01*
X105298904Y-131953714D01*
X105346523Y-131858476D01*
X105346523Y-131810857D01*
X105298904Y-131715619D01*
X105251285Y-131668000D01*
X105156047Y-131620380D01*
X104965571Y-131620380D01*
X104870333Y-131668000D01*
X104822714Y-131715619D01*
X104775095Y-131810857D01*
X104775095Y-131858476D01*
X104822714Y-131953714D01*
X104870333Y-132001333D01*
X104965571Y-132048952D01*
X105156047Y-132048952D01*
X105251285Y-132096571D01*
X105298904Y-132144190D01*
X105346523Y-132239428D01*
X105346523Y-132429904D01*
X105298904Y-132525142D01*
X105251285Y-132572761D01*
X105156047Y-132620380D01*
X104965571Y-132620380D01*
X104870333Y-132572761D01*
X104822714Y-132525142D01*
X104775095Y-132429904D01*
X104775095Y-132239428D01*
X104822714Y-132144190D01*
X104870333Y-132096571D01*
X104965571Y-132048952D01*
X108561095Y-125420380D02*
X108561095Y-124420380D01*
X108323000Y-124420380D01*
X108180142Y-124468000D01*
X108084904Y-124563238D01*
X108037285Y-124658476D01*
X107989666Y-124848952D01*
X107989666Y-124991809D01*
X108037285Y-125182285D01*
X108084904Y-125277523D01*
X108180142Y-125372761D01*
X108323000Y-125420380D01*
X108561095Y-125420380D01*
X107513476Y-125420380D02*
X107323000Y-125420380D01*
X107227761Y-125372761D01*
X107180142Y-125325142D01*
X107084904Y-125182285D01*
X107037285Y-124991809D01*
X107037285Y-124610857D01*
X107084904Y-124515619D01*
X107132523Y-124468000D01*
X107227761Y-124420380D01*
X107418238Y-124420380D01*
X107513476Y-124468000D01*
X107561095Y-124515619D01*
X107608714Y-124610857D01*
X107608714Y-124848952D01*
X107561095Y-124944190D01*
X107513476Y-124991809D01*
X107418238Y-125039428D01*
X107227761Y-125039428D01*
X107132523Y-124991809D01*
X107084904Y-124944190D01*
X107037285Y-124848952D01*
X106298904Y-122412761D02*
X106156047Y-122460380D01*
X105917952Y-122460380D01*
X105822714Y-122412761D01*
X105775095Y-122365142D01*
X105727476Y-122269904D01*
X105727476Y-122174666D01*
X105775095Y-122079428D01*
X105822714Y-122031809D01*
X105917952Y-121984190D01*
X106108428Y-121936571D01*
X106203666Y-121888952D01*
X106251285Y-121841333D01*
X106298904Y-121746095D01*
X106298904Y-121650857D01*
X106251285Y-121555619D01*
X106203666Y-121508000D01*
X106108428Y-121460380D01*
X105870333Y-121460380D01*
X105727476Y-121508000D01*
X105394142Y-121460380D02*
X104727476Y-121460380D01*
X105156047Y-122460380D01*
X119784761Y-133921666D02*
X119832380Y-134064523D01*
X119832380Y-134302619D01*
X119784761Y-134397857D01*
X119737142Y-134445476D01*
X119641904Y-134493095D01*
X119546666Y-134493095D01*
X119451428Y-134445476D01*
X119403809Y-134397857D01*
X119356190Y-134302619D01*
X119308571Y-134112142D01*
X119260952Y-134016904D01*
X119213333Y-133969285D01*
X119118095Y-133921666D01*
X119022857Y-133921666D01*
X118927619Y-133969285D01*
X118880000Y-134016904D01*
X118832380Y-134112142D01*
X118832380Y-134350238D01*
X118880000Y-134493095D01*
X118832380Y-134826428D02*
X119832380Y-135064523D01*
X119118095Y-135255000D01*
X119832380Y-135445476D01*
X118832380Y-135683571D01*
X119260952Y-136207380D02*
X119213333Y-136112142D01*
X119165714Y-136064523D01*
X119070476Y-136016904D01*
X119022857Y-136016904D01*
X118927619Y-136064523D01*
X118880000Y-136112142D01*
X118832380Y-136207380D01*
X118832380Y-136397857D01*
X118880000Y-136493095D01*
X118927619Y-136540714D01*
X119022857Y-136588333D01*
X119070476Y-136588333D01*
X119165714Y-136540714D01*
X119213333Y-136493095D01*
X119260952Y-136397857D01*
X119260952Y-136207380D01*
X119308571Y-136112142D01*
X119356190Y-136064523D01*
X119451428Y-136016904D01*
X119641904Y-136016904D01*
X119737142Y-136064523D01*
X119784761Y-136112142D01*
X119832380Y-136207380D01*
X119832380Y-136397857D01*
X119784761Y-136493095D01*
X119737142Y-136540714D01*
X119641904Y-136588333D01*
X119451428Y-136588333D01*
X119356190Y-136540714D01*
X119308571Y-136493095D01*
X119260952Y-136397857D01*
X144609333Y-140057380D02*
X144609333Y-140771666D01*
X144656952Y-140914523D01*
X144752190Y-141009761D01*
X144895047Y-141057380D01*
X144990285Y-141057380D01*
X144228380Y-140057380D02*
X143609333Y-140057380D01*
X143942666Y-140438333D01*
X143799809Y-140438333D01*
X143704571Y-140485952D01*
X143656952Y-140533571D01*
X143609333Y-140628809D01*
X143609333Y-140866904D01*
X143656952Y-140962142D01*
X143704571Y-141009761D01*
X143799809Y-141057380D01*
X144085523Y-141057380D01*
X144180761Y-141009761D01*
X144228380Y-140962142D01*
X155253380Y-142835380D02*
X155586714Y-142359190D01*
X155824809Y-142835380D02*
X155824809Y-141835380D01*
X155443857Y-141835380D01*
X155348619Y-141883000D01*
X155301000Y-141930619D01*
X155253380Y-142025857D01*
X155253380Y-142168714D01*
X155301000Y-142263952D01*
X155348619Y-142311571D01*
X155443857Y-142359190D01*
X155824809Y-142359190D01*
X154824809Y-142311571D02*
X154491476Y-142311571D01*
X154348619Y-142835380D02*
X154824809Y-142835380D01*
X154824809Y-141835380D01*
X154348619Y-141835380D01*
X153967666Y-142787761D02*
X153824809Y-142835380D01*
X153586714Y-142835380D01*
X153491476Y-142787761D01*
X153443857Y-142740142D01*
X153396238Y-142644904D01*
X153396238Y-142549666D01*
X153443857Y-142454428D01*
X153491476Y-142406809D01*
X153586714Y-142359190D01*
X153777190Y-142311571D01*
X153872428Y-142263952D01*
X153920047Y-142216333D01*
X153967666Y-142121095D01*
X153967666Y-142025857D01*
X153920047Y-141930619D01*
X153872428Y-141883000D01*
X153777190Y-141835380D01*
X153539095Y-141835380D01*
X153396238Y-141883000D01*
X152967666Y-142311571D02*
X152634333Y-142311571D01*
X152491476Y-142835380D02*
X152967666Y-142835380D01*
X152967666Y-141835380D01*
X152491476Y-141835380D01*
X152205761Y-141835380D02*
X151634333Y-141835380D01*
X151920047Y-142835380D02*
X151920047Y-141835380D01*
X90854000Y-102120000D02*
X82726000Y-102120000D01*
X82726000Y-102120000D02*
X82726000Y-107200000D01*
X85139000Y-102818500D02*
X85139000Y-106501500D01*
X90854000Y-107200000D02*
X90854000Y-102120000D01*
X82726000Y-107200000D02*
X90854000Y-107200000D01*
X89267314Y-104660000D02*
G75*
G03*
X89267314Y-104660000I-2477314J0D01*
G01*
X88216985Y-104660000D02*
G75*
G03*
X88216985Y-104660000I-1426985J0D01*
G01*
X126834000Y-139395000D02*
X126834000Y-134195000D01*
X132234000Y-142795000D02*
G75*
G03*
X138234000Y-136795000I1J5999999D01*
G01*
X132234000Y-130795000D02*
G75*
G03*
X126841236Y-134164773I3J-6000004D01*
G01*
X138234000Y-136795000D02*
G75*
G03*
X132234000Y-130795000I-6000000J0D01*
G01*
X126834000Y-139395000D02*
G75*
G03*
X134834000Y-142195000I5400000J2600000D01*
G01*
X136734000Y-136795000D02*
G75*
G03*
X136734000Y-136795000I-4500000J0D01*
G01*
X139271500Y-98183000D02*
X142954500Y-98183000D01*
X136541000Y-100596000D02*
X145685000Y-100596000D01*
X136541000Y-92468000D02*
X136541000Y-100596000D01*
X145685000Y-92468000D02*
X136541000Y-92468000D01*
X145685000Y-100596000D02*
X145685000Y-92468000D01*
X143590314Y-96532000D02*
G75*
G03*
X143590314Y-96532000I-2477314J0D01*
G01*
X142539985Y-96532000D02*
G75*
G03*
X142539985Y-96532000I-1426985J0D01*
G01*
X127734000Y-156383998D02*
X127734000Y-145883998D01*
X136734000Y-145883998D02*
X136734000Y-156383998D01*
X136734000Y-156383998D02*
X127734000Y-156383998D01*
X127734000Y-145883998D02*
X136734000Y-145883998D01*
X85139000Y-112978500D02*
X85139000Y-116661500D01*
X82726000Y-112280000D02*
X82726000Y-117360000D01*
X82726000Y-117360000D02*
X90854000Y-117360000D01*
X90854000Y-112280000D02*
X82726000Y-112280000D01*
X90854000Y-117360000D02*
X90854000Y-112280000D01*
X89267314Y-114820000D02*
G75*
G03*
X89267314Y-114820000I-2477314J0D01*
G01*
X88216985Y-114820000D02*
G75*
G03*
X88216985Y-114820000I-1426985J0D01*
G01*
X110412000Y-127520000D02*
X118540000Y-127520000D01*
X118540000Y-127520000D02*
X118540000Y-122440000D01*
X110412000Y-122440000D02*
X110412000Y-127520000D01*
X112825000Y-123138500D02*
X112825000Y-126821500D01*
X118540000Y-122440000D02*
X110412000Y-122440000D01*
X115902985Y-124980000D02*
G75*
G03*
X115902985Y-124980000I-1426985J0D01*
G01*
X116953314Y-124980000D02*
G75*
G03*
X116953314Y-124980000I-2477314J0D01*
G01*
X112825000Y-112978500D02*
X112825000Y-116661500D01*
X118540000Y-117360000D02*
X118540000Y-112280000D01*
X110412000Y-112280000D02*
X110412000Y-117360000D01*
X110412000Y-117360000D02*
X118540000Y-117360000D01*
X118540000Y-112280000D02*
X110412000Y-112280000D01*
X116953314Y-114820000D02*
G75*
G03*
X116953314Y-114820000I-2477314J0D01*
G01*
X115902985Y-114820000D02*
G75*
G03*
X115902985Y-114820000I-1426985J0D01*
G01*
X118540000Y-102120000D02*
X110412000Y-102120000D01*
X112825000Y-102818500D02*
X112825000Y-106501500D01*
X118540000Y-107200000D02*
X118540000Y-102120000D01*
X110412000Y-102120000D02*
X110412000Y-107200000D01*
X110412000Y-107200000D02*
X118540000Y-107200000D01*
X116953314Y-104660000D02*
G75*
G03*
X116953314Y-104660000I-2477314J0D01*
G01*
X115902985Y-104660000D02*
G75*
G03*
X115902985Y-104660000I-1426985J0D01*
G01*
X118540000Y-97040000D02*
X118540000Y-91960000D01*
X110412000Y-91960000D02*
X110412000Y-97040000D01*
X118540000Y-91960000D02*
X110412000Y-91960000D01*
X112825000Y-92658500D02*
X112825000Y-96341500D01*
X110412000Y-97040000D02*
X118540000Y-97040000D01*
X116953314Y-94500000D02*
G75*
G03*
X116953314Y-94500000I-2477314J0D01*
G01*
X115902985Y-94500000D02*
G75*
G03*
X115902985Y-94500000I-1426985J0D01*
G01*
X82726000Y-91960000D02*
X82726000Y-97040000D01*
X82726000Y-97040000D02*
X90854000Y-97040000D01*
X85139000Y-92658500D02*
X85139000Y-96341500D01*
X90854000Y-97040000D02*
X90854000Y-91960000D01*
X90854000Y-91960000D02*
X82726000Y-91960000D01*
X89267314Y-94500000D02*
G75*
G03*
X89267314Y-94500000I-2477314J0D01*
G01*
X88216985Y-94500000D02*
G75*
G03*
X88216985Y-94500000I-1426985J0D01*
G01*
X90854000Y-81800000D02*
X82726000Y-81800000D01*
X90854000Y-86880000D02*
X90854000Y-81800000D01*
X82726000Y-81800000D02*
X82726000Y-86880000D01*
X85139000Y-82498500D02*
X85139000Y-86181500D01*
X82726000Y-86880000D02*
X90854000Y-86880000D01*
X89267314Y-84340000D02*
G75*
G03*
X89267314Y-84340000I-2477314J0D01*
G01*
X88216985Y-84340000D02*
G75*
G03*
X88216985Y-84340000I-1426985J0D01*
G01*
X112825000Y-82498500D02*
X112825000Y-86181500D01*
X110412000Y-81800000D02*
X110412000Y-86880000D01*
X110412000Y-86880000D02*
X118540000Y-86880000D01*
X118540000Y-81800000D02*
X110412000Y-81800000D01*
X118540000Y-86880000D02*
X118540000Y-81800000D01*
X115902985Y-84340000D02*
G75*
G03*
X115902985Y-84340000I-1426985J0D01*
G01*
X116953314Y-84340000D02*
G75*
G03*
X116953314Y-84340000I-2477314J0D01*
G01*
X118540000Y-76720000D02*
X118540000Y-71640000D01*
X112825000Y-72338500D02*
X112825000Y-76021500D01*
X110412000Y-76720000D02*
X118540000Y-76720000D01*
X118540000Y-71640000D02*
X110412000Y-71640000D01*
X110412000Y-71640000D02*
X110412000Y-76720000D01*
X115902985Y-74180000D02*
G75*
G03*
X115902985Y-74180000I-1426985J0D01*
G01*
X116953314Y-74180000D02*
G75*
G03*
X116953314Y-74180000I-2477314J0D01*
G01*
X90854000Y-76720000D02*
X90854000Y-71640000D01*
X90854000Y-71640000D02*
X82726000Y-71640000D01*
X82726000Y-76720000D02*
X90854000Y-76720000D01*
X82726000Y-71640000D02*
X82726000Y-76720000D01*
X85139000Y-72338500D02*
X85139000Y-76021500D01*
X89267314Y-74180000D02*
G75*
G03*
X89267314Y-74180000I-2477314J0D01*
G01*
X88216985Y-74180000D02*
G75*
G03*
X88216985Y-74180000I-1426985J0D01*
G01*
X82726000Y-61480000D02*
X82726000Y-66560000D01*
X90854000Y-66560000D02*
X90854000Y-61480000D01*
X85139000Y-62178500D02*
X85139000Y-65861500D01*
X82726000Y-66560000D02*
X90854000Y-66560000D01*
X90854000Y-61480000D02*
X82726000Y-61480000D01*
X88216985Y-64020000D02*
G75*
G03*
X88216985Y-64020000I-1426985J0D01*
G01*
X89267314Y-64020000D02*
G75*
G03*
X89267314Y-64020000I-2477314J0D01*
G01*
X110412000Y-66560000D02*
X118540000Y-66560000D01*
X118540000Y-66560000D02*
X118540000Y-61480000D01*
X110412000Y-61480000D02*
X110412000Y-66560000D01*
X112825000Y-62178500D02*
X112825000Y-65861500D01*
X118540000Y-61480000D02*
X110412000Y-61480000D01*
X115902985Y-64020000D02*
G75*
G03*
X115902985Y-64020000I-1426985J0D01*
G01*
X116953314Y-64020000D02*
G75*
G03*
X116953314Y-64020000I-2477314J0D01*
G01*
X145491000Y-104863000D02*
X155991000Y-104863000D01*
X155991000Y-104863000D02*
X155991000Y-113863000D01*
X145491000Y-113863000D02*
X145491000Y-104863000D01*
X155991000Y-113863000D02*
X145491000Y-113863000D01*
D13*
X145091000Y-58143000D02*
X145091000Y-70143000D01*
X154891000Y-70143000D02*
X154891000Y-58143000D01*
X154891000Y-70143000D02*
X145091000Y-70143000D01*
X154891000Y-58143000D02*
X145091000Y-58143000D01*
X152591960Y-62141860D02*
X147390040Y-62141860D01*
X154191000Y-68043000D02*
G75*
G03*
X154191000Y-68043000I-400000J0D01*
G01*
X153392060Y-63643000D02*
G75*
G03*
X153392060Y-63643000I-3401060J0D01*
G01*
X146591000Y-68043000D02*
G75*
G03*
X146591000Y-68043000I-400000J0D01*
G01*
X154191000Y-59243000D02*
G75*
G03*
X154191000Y-59243000I-400000J0D01*
G01*
X152990740Y-63643000D02*
G75*
G03*
X152990740Y-63643000I-2999740J0D01*
G01*
X146591000Y-59243000D02*
G75*
G03*
X146591000Y-59243000I-400000J0D01*
G01*
X137134000Y-70143000D02*
X137134000Y-58143000D01*
X134834960Y-62141860D02*
X129633040Y-62141860D01*
X137134000Y-58143000D02*
X127334000Y-58143000D01*
X127334000Y-58143000D02*
X127334000Y-70143000D01*
X137134000Y-70143000D02*
X127334000Y-70143000D01*
X135635060Y-63643000D02*
G75*
G03*
X135635060Y-63643000I-3401060J0D01*
G01*
X136434000Y-68043000D02*
G75*
G03*
X136434000Y-68043000I-400000J0D01*
G01*
X135233740Y-63643000D02*
G75*
G03*
X135233740Y-63643000I-2999740J0D01*
G01*
X128834000Y-68043000D02*
G75*
G03*
X128834000Y-68043000I-400000J0D01*
G01*
X128834000Y-59243000D02*
G75*
G03*
X128834000Y-59243000I-400000J0D01*
G01*
X136434000Y-59243000D02*
G75*
G03*
X136434000Y-59243000I-400000J0D01*
G01*
D11*
X134774000Y-105299000D02*
X129694000Y-105299000D01*
X134774000Y-113427000D02*
X134774000Y-105299000D01*
X129694000Y-113427000D02*
X134774000Y-113427000D01*
X130392500Y-111014000D02*
X134075500Y-111014000D01*
X129694000Y-105299000D02*
X129694000Y-113427000D01*
X134711314Y-109363000D02*
G75*
G03*
X134711314Y-109363000I-2477314J0D01*
G01*
X133660985Y-109363000D02*
G75*
G03*
X133660985Y-109363000I-1426985J0D01*
G01*
X134075500Y-121428000D02*
X130392500Y-121428000D01*
X134774000Y-119015000D02*
X129694000Y-119015000D01*
X134774000Y-127143000D02*
X134774000Y-119015000D01*
X129694000Y-119015000D02*
X129694000Y-127143000D01*
X129694000Y-127143000D02*
X134774000Y-127143000D01*
X134711314Y-123079000D02*
G75*
G03*
X134711314Y-123079000I-2477314J0D01*
G01*
X133660985Y-123079000D02*
G75*
G03*
X133660985Y-123079000I-1426985J0D01*
G01*
D13*
X127334000Y-77193000D02*
X127334000Y-89193000D01*
X137134000Y-77193000D02*
X127334000Y-77193000D01*
X137134000Y-89193000D02*
X137134000Y-77193000D01*
X137134000Y-89193000D02*
X127334000Y-89193000D01*
X134834960Y-81191860D02*
X129633040Y-81191860D01*
X135635060Y-82693000D02*
G75*
G03*
X135635060Y-82693000I-3401060J0D01*
G01*
X136434000Y-78293000D02*
G75*
G03*
X136434000Y-78293000I-400000J0D01*
G01*
X136434000Y-87093000D02*
G75*
G03*
X136434000Y-87093000I-400000J0D01*
G01*
X128834000Y-78293000D02*
G75*
G03*
X128834000Y-78293000I-400000J0D01*
G01*
X135233740Y-82693000D02*
G75*
G03*
X135233740Y-82693000I-2999740J0D01*
G01*
X128834000Y-87093000D02*
G75*
G03*
X128834000Y-87093000I-400000J0D01*
G01*
D11*
X120427000Y-145868000D02*
X120427000Y-154868000D01*
X109927000Y-145868000D02*
X120427000Y-145868000D01*
X120427000Y-154868000D02*
X109927000Y-154868000D01*
X109927000Y-154868000D02*
X109927000Y-145868000D01*
D14*
X102707000Y-65256000D02*
X102707000Y-65100000D01*
D15*
X102767000Y-65186190D02*
X102767000Y-62853810D01*
D14*
X102707000Y-62940000D02*
X102707000Y-62784000D01*
D15*
X102767000Y-65186190D02*
G75*
G03*
X102766445Y-62854524I1500000J1166190D01*
G01*
D14*
X103226039Y-65100000D02*
G75*
G03*
X105308130Y-65099837I1040961J1080000D01*
G01*
X105308130Y-62940163D02*
G75*
G03*
X103226039Y-62940000I-1041130J-1079837D01*
G01*
X105939335Y-62941392D02*
G75*
G03*
X102707000Y-62784484I-1672335J-1078609D01*
G01*
X102707000Y-65255516D02*
G75*
G03*
X105939335Y-65098608I1560000J1235517D01*
G01*
D15*
X105767000Y-64020000D02*
G75*
G03*
X105767000Y-64020000I-1500000J0D01*
G01*
X102767000Y-75334190D02*
X102767000Y-73001810D01*
D14*
X102707000Y-73088000D02*
X102707000Y-72932000D01*
X102707000Y-75404000D02*
X102707000Y-75248000D01*
X103226039Y-75248000D02*
G75*
G03*
X105308130Y-75247837I1040961J1080000D01*
G01*
X105308130Y-73088163D02*
G75*
G03*
X103226039Y-73088000I-1041130J-1079837D01*
G01*
X105939335Y-73089392D02*
G75*
G03*
X102707000Y-72932484I-1672335J-1078609D01*
G01*
X102707000Y-75403516D02*
G75*
G03*
X105939335Y-75246608I1560000J1235517D01*
G01*
D15*
X102767000Y-75334190D02*
G75*
G03*
X102766445Y-73002524I1500000J1166190D01*
G01*
X105767000Y-74168000D02*
G75*
G03*
X105767000Y-74168000I-1500000J0D01*
G01*
D14*
X102707000Y-83248000D02*
X102707000Y-83092000D01*
X102707000Y-85564000D02*
X102707000Y-85408000D01*
D15*
X102767000Y-85494190D02*
X102767000Y-83161810D01*
D14*
X102707000Y-85563516D02*
G75*
G03*
X105939335Y-85406608I1560000J1235517D01*
G01*
D15*
X102767000Y-85494190D02*
G75*
G03*
X102766445Y-83162524I1500000J1166190D01*
G01*
D14*
X105939335Y-83249392D02*
G75*
G03*
X102707000Y-83092484I-1672335J-1078609D01*
G01*
X103226039Y-85408000D02*
G75*
G03*
X105308130Y-85407837I1040961J1080000D01*
G01*
X105308130Y-83248163D02*
G75*
G03*
X103226039Y-83248000I-1041130J-1079837D01*
G01*
D15*
X105767000Y-84328000D02*
G75*
G03*
X105767000Y-84328000I-1500000J0D01*
G01*
D14*
X102707000Y-93408000D02*
X102707000Y-93252000D01*
X102707000Y-95724000D02*
X102707000Y-95568000D01*
D15*
X102767000Y-95654190D02*
X102767000Y-93321810D01*
D14*
X105939335Y-93409392D02*
G75*
G03*
X102707000Y-93252484I-1672335J-1078609D01*
G01*
D15*
X102767000Y-95654190D02*
G75*
G03*
X102766445Y-93322524I1500000J1166190D01*
G01*
D14*
X102707000Y-95723516D02*
G75*
G03*
X105939335Y-95566608I1560000J1235517D01*
G01*
X105308130Y-93408163D02*
G75*
G03*
X103226039Y-93408000I-1041130J-1079837D01*
G01*
X103226039Y-95568000D02*
G75*
G03*
X105308130Y-95567837I1040961J1080000D01*
G01*
D15*
X105767000Y-94488000D02*
G75*
G03*
X105767000Y-94488000I-1500000J0D01*
G01*
D14*
X102707000Y-105884000D02*
X102707000Y-105728000D01*
D15*
X102767000Y-105814190D02*
X102767000Y-103481810D01*
D14*
X102707000Y-103568000D02*
X102707000Y-103412000D01*
D15*
X102767000Y-105814190D02*
G75*
G03*
X102766445Y-103482524I1500000J1166190D01*
G01*
D14*
X105939335Y-103569392D02*
G75*
G03*
X102707000Y-103412484I-1672335J-1078609D01*
G01*
X102707000Y-105883516D02*
G75*
G03*
X105939335Y-105726608I1560000J1235517D01*
G01*
X105308130Y-103568163D02*
G75*
G03*
X103226039Y-103568000I-1041130J-1079837D01*
G01*
X103226039Y-105728000D02*
G75*
G03*
X105308130Y-105727837I1040961J1080000D01*
G01*
D15*
X105767000Y-104648000D02*
G75*
G03*
X105767000Y-104648000I-1500000J0D01*
G01*
D14*
X102707000Y-116044000D02*
X102707000Y-115888000D01*
D15*
X102767000Y-115974190D02*
X102767000Y-113641810D01*
D14*
X102707000Y-113728000D02*
X102707000Y-113572000D01*
D15*
X102767000Y-115974190D02*
G75*
G03*
X102766445Y-113642524I1500000J1166190D01*
G01*
D14*
X102707000Y-116043516D02*
G75*
G03*
X105939335Y-115886608I1560000J1235517D01*
G01*
X103226039Y-115888000D02*
G75*
G03*
X105308130Y-115887837I1040961J1080000D01*
G01*
X105939335Y-113729392D02*
G75*
G03*
X102707000Y-113572484I-1672335J-1078609D01*
G01*
X105308130Y-113728163D02*
G75*
G03*
X103226039Y-113728000I-1041130J-1079837D01*
G01*
D15*
X105767000Y-114808000D02*
G75*
G03*
X105767000Y-114808000I-1500000J0D01*
G01*
D14*
X75021000Y-65244000D02*
X75021000Y-65088000D01*
X75021000Y-62928000D02*
X75021000Y-62772000D01*
D15*
X75081000Y-65174190D02*
X75081000Y-62841810D01*
D14*
X75540039Y-65088000D02*
G75*
G03*
X77622130Y-65087837I1040961J1080000D01*
G01*
X78253335Y-62929392D02*
G75*
G03*
X75021000Y-62772484I-1672335J-1078609D01*
G01*
X75021000Y-65243516D02*
G75*
G03*
X78253335Y-65086608I1560000J1235517D01*
G01*
D15*
X75081000Y-65174190D02*
G75*
G03*
X75080445Y-62842524I1500000J1166190D01*
G01*
D14*
X77622130Y-62928163D02*
G75*
G03*
X75540039Y-62928000I-1041130J-1079837D01*
G01*
D15*
X78081000Y-64008000D02*
G75*
G03*
X78081000Y-64008000I-1500000J0D01*
G01*
D14*
X75021000Y-75404000D02*
X75021000Y-75248000D01*
X75021000Y-73088000D02*
X75021000Y-72932000D01*
D15*
X75081000Y-75334190D02*
X75081000Y-73001810D01*
D14*
X75021000Y-75403516D02*
G75*
G03*
X78253335Y-75246608I1560000J1235517D01*
G01*
X78253335Y-73089392D02*
G75*
G03*
X75021000Y-72932484I-1672335J-1078609D01*
G01*
X77622130Y-73088163D02*
G75*
G03*
X75540039Y-73088000I-1041130J-1079837D01*
G01*
D15*
X75081000Y-75334190D02*
G75*
G03*
X75080445Y-73002524I1500000J1166190D01*
G01*
D14*
X75540039Y-75248000D02*
G75*
G03*
X77622130Y-75247837I1040961J1080000D01*
G01*
D15*
X78081000Y-74168000D02*
G75*
G03*
X78081000Y-74168000I-1500000J0D01*
G01*
D14*
X75021000Y-85576000D02*
X75021000Y-85420000D01*
X75021000Y-83260000D02*
X75021000Y-83104000D01*
D15*
X75081000Y-85506190D02*
X75081000Y-83173810D01*
X75081000Y-85506190D02*
G75*
G03*
X75080445Y-83174524I1500000J1166190D01*
G01*
D14*
X77622130Y-83260163D02*
G75*
G03*
X75540039Y-83260000I-1041130J-1079837D01*
G01*
X75021000Y-85575516D02*
G75*
G03*
X78253335Y-85418608I1560000J1235517D01*
G01*
X75540039Y-85420000D02*
G75*
G03*
X77622130Y-85419837I1040961J1080000D01*
G01*
X78253335Y-83261392D02*
G75*
G03*
X75021000Y-83104484I-1672335J-1078609D01*
G01*
D15*
X78081000Y-84340000D02*
G75*
G03*
X78081000Y-84340000I-1500000J0D01*
G01*
D14*
X75021000Y-93408000D02*
X75021000Y-93252000D01*
X75021000Y-95724000D02*
X75021000Y-95568000D01*
D15*
X75081000Y-95654190D02*
X75081000Y-93321810D01*
D14*
X77622130Y-93408163D02*
G75*
G03*
X75540039Y-93408000I-1041130J-1079837D01*
G01*
D15*
X75081000Y-95654190D02*
G75*
G03*
X75080445Y-93322524I1500000J1166190D01*
G01*
D14*
X75540039Y-95568000D02*
G75*
G03*
X77622130Y-95567837I1040961J1080000D01*
G01*
X75021000Y-95723516D02*
G75*
G03*
X78253335Y-95566608I1560000J1235517D01*
G01*
X78253335Y-93409392D02*
G75*
G03*
X75021000Y-93252484I-1672335J-1078609D01*
G01*
D15*
X78081000Y-94488000D02*
G75*
G03*
X78081000Y-94488000I-1500000J0D01*
G01*
D14*
X75021000Y-105884000D02*
X75021000Y-105728000D01*
X75021000Y-103568000D02*
X75021000Y-103412000D01*
D15*
X75081000Y-105814190D02*
X75081000Y-103481810D01*
D14*
X78253335Y-103569392D02*
G75*
G03*
X75021000Y-103412484I-1672335J-1078609D01*
G01*
X75540039Y-105728000D02*
G75*
G03*
X77622130Y-105727837I1040961J1080000D01*
G01*
X77622130Y-103568163D02*
G75*
G03*
X75540039Y-103568000I-1041130J-1079837D01*
G01*
D15*
X75081000Y-105814190D02*
G75*
G03*
X75080445Y-103482524I1500000J1166190D01*
G01*
D14*
X75021000Y-105883516D02*
G75*
G03*
X78253335Y-105726608I1560000J1235517D01*
G01*
D15*
X78081000Y-104648000D02*
G75*
G03*
X78081000Y-104648000I-1500000J0D01*
G01*
X75081000Y-115974190D02*
X75081000Y-113641810D01*
D14*
X75021000Y-113728000D02*
X75021000Y-113572000D01*
X75021000Y-116044000D02*
X75021000Y-115888000D01*
X77622130Y-113728163D02*
G75*
G03*
X75540039Y-113728000I-1041130J-1079837D01*
G01*
D15*
X75081000Y-115974190D02*
G75*
G03*
X75080445Y-113642524I1500000J1166190D01*
G01*
D14*
X75021000Y-116043516D02*
G75*
G03*
X78253335Y-115886608I1560000J1235517D01*
G01*
X78253335Y-113729392D02*
G75*
G03*
X75021000Y-113572484I-1672335J-1078609D01*
G01*
X75540039Y-115888000D02*
G75*
G03*
X77622130Y-115887837I1040961J1080000D01*
G01*
D15*
X78081000Y-114808000D02*
G75*
G03*
X78081000Y-114808000I-1500000J0D01*
G01*
D14*
X75021000Y-126216000D02*
X75021000Y-126060000D01*
D15*
X75081000Y-126146190D02*
X75081000Y-123813810D01*
D14*
X75021000Y-123900000D02*
X75021000Y-123744000D01*
X75021000Y-126215516D02*
G75*
G03*
X78253335Y-126058608I1560000J1235517D01*
G01*
X77622130Y-123900163D02*
G75*
G03*
X75540039Y-123900000I-1041130J-1079837D01*
G01*
D15*
X75081000Y-126146190D02*
G75*
G03*
X75080445Y-123814524I1500000J1166190D01*
G01*
D14*
X75540039Y-126060000D02*
G75*
G03*
X77622130Y-126059837I1040961J1080000D01*
G01*
X78253335Y-123901392D02*
G75*
G03*
X75021000Y-123744484I-1672335J-1078609D01*
G01*
D15*
X78081000Y-124980000D02*
G75*
G03*
X78081000Y-124980000I-1500000J0D01*
G01*
D11*
X145491000Y-156384000D02*
X145491000Y-145884000D01*
X145491000Y-145884000D02*
X154491000Y-145884000D01*
X154491000Y-145884000D02*
X154491000Y-156384000D01*
X154491000Y-156384000D02*
X145491000Y-156384000D01*
X145491000Y-118579000D02*
X155991000Y-118579000D01*
X145491000Y-127579000D02*
X145491000Y-118579000D01*
X155991000Y-127579000D02*
X145491000Y-127579000D01*
X155991000Y-118579000D02*
X155991000Y-127579000D01*
X82290000Y-156380000D02*
X82290000Y-145880000D01*
X82290000Y-145880000D02*
X91290000Y-145880000D01*
X91290000Y-145880000D02*
X91290000Y-156380000D01*
X91290000Y-156380000D02*
X82290000Y-156380000D01*
D14*
X75021000Y-134060000D02*
X75021000Y-133904000D01*
X75021000Y-136376000D02*
X75021000Y-136220000D01*
D15*
X75081000Y-136306190D02*
X75081000Y-133973810D01*
X75081000Y-136306190D02*
G75*
G03*
X75080445Y-133974524I1500000J1166190D01*
G01*
D14*
X78253335Y-134061392D02*
G75*
G03*
X75021000Y-133904484I-1672335J-1078609D01*
G01*
X75540039Y-136220000D02*
G75*
G03*
X77622130Y-136219837I1040961J1080000D01*
G01*
X75021000Y-136375516D02*
G75*
G03*
X78253335Y-136218608I1560000J1235517D01*
G01*
X77622130Y-134060163D02*
G75*
G03*
X75540039Y-134060000I-1041130J-1079837D01*
G01*
D15*
X78081000Y-135140000D02*
G75*
G03*
X78081000Y-135140000I-1500000J0D01*
G01*
D11*
X85139000Y-133298500D02*
X85139000Y-136981500D01*
X82726000Y-137680000D02*
X90854000Y-137680000D01*
X90854000Y-132600000D02*
X82726000Y-132600000D01*
X82726000Y-132600000D02*
X82726000Y-137680000D01*
X90854000Y-137680000D02*
X90854000Y-132600000D01*
X89267314Y-135140000D02*
G75*
G03*
X89267314Y-135140000I-2477314J0D01*
G01*
X88216985Y-135140000D02*
G75*
G03*
X88216985Y-135140000I-1426985J0D01*
G01*
X85140800Y-123126500D02*
X85140800Y-126809500D01*
X90855800Y-122428000D02*
X82727800Y-122428000D01*
X82727800Y-122428000D02*
X82727800Y-127508000D01*
X90855800Y-127508000D02*
X90855800Y-122428000D01*
X82727800Y-127508000D02*
X90855800Y-127508000D01*
X89269114Y-124968000D02*
G75*
G03*
X89269114Y-124968000I-2477314J0D01*
G01*
X88218785Y-124968000D02*
G75*
G03*
X88218785Y-124968000I-1426985J0D01*
G01*
D13*
X154891042Y-77193000D02*
X145091042Y-77193000D01*
X145091042Y-77193000D02*
X145091042Y-89193000D01*
X154891042Y-89193000D02*
X145091042Y-89193000D01*
X152592002Y-81191860D02*
X147390082Y-81191860D01*
X154891042Y-89193000D02*
X154891042Y-77193000D01*
X152990782Y-82693000D02*
G75*
G03*
X152990782Y-82693000I-2999740J0D01*
G01*
X146591042Y-87093000D02*
G75*
G03*
X146591042Y-87093000I-400000J0D01*
G01*
X146591042Y-78293000D02*
G75*
G03*
X146591042Y-78293000I-400000J0D01*
G01*
X154191042Y-87093000D02*
G75*
G03*
X154191042Y-87093000I-400000J0D01*
G01*
X154191042Y-78293000D02*
G75*
G03*
X154191042Y-78293000I-400000J0D01*
G01*
X153392102Y-82693000D02*
G75*
G03*
X153392102Y-82693000I-3401060J0D01*
G01*
D14*
X102707000Y-134048000D02*
X102707000Y-133892000D01*
D15*
X102767000Y-136294190D02*
X102767000Y-133961810D01*
D14*
X102707000Y-136364000D02*
X102707000Y-136208000D01*
X105939335Y-134049392D02*
G75*
G03*
X102707000Y-133892484I-1672335J-1078609D01*
G01*
X102707000Y-136363516D02*
G75*
G03*
X105939335Y-136206608I1560000J1235517D01*
G01*
D15*
X102767000Y-136294190D02*
G75*
G03*
X102766445Y-133962524I1500000J1166190D01*
G01*
D14*
X103226039Y-136208000D02*
G75*
G03*
X105308130Y-136207837I1040961J1080000D01*
G01*
X105308130Y-134048163D02*
G75*
G03*
X103226039Y-134048000I-1041130J-1079837D01*
G01*
D15*
X105767000Y-135128000D02*
G75*
G03*
X105767000Y-135128000I-1500000J0D01*
G01*
D14*
X102707000Y-123888000D02*
X102707000Y-123732000D01*
D15*
X102767000Y-126134190D02*
X102767000Y-123801810D01*
D14*
X102707000Y-126204000D02*
X102707000Y-126048000D01*
D15*
X102767000Y-126134190D02*
G75*
G03*
X102766445Y-123802524I1500000J1166190D01*
G01*
D14*
X105308130Y-123888163D02*
G75*
G03*
X103226039Y-123888000I-1041130J-1079837D01*
G01*
X102707000Y-126203516D02*
G75*
G03*
X105939335Y-126046608I1560000J1235517D01*
G01*
X103226039Y-126048000D02*
G75*
G03*
X105308130Y-126047837I1040961J1080000D01*
G01*
X105939335Y-123889392D02*
G75*
G03*
X102707000Y-123732484I-1672335J-1078609D01*
G01*
D15*
X105767000Y-124968000D02*
G75*
G03*
X105767000Y-124968000I-1500000J0D01*
G01*
D11*
X118540000Y-137680000D02*
X118540000Y-132600000D01*
X110412000Y-137680000D02*
X118540000Y-137680000D01*
X112825000Y-133298500D02*
X112825000Y-136981500D01*
X110412000Y-132600000D02*
X110412000Y-137680000D01*
X118540000Y-132600000D02*
X110412000Y-132600000D01*
X116953314Y-135140000D02*
G75*
G03*
X116953314Y-135140000I-2477314J0D01*
G01*
X115902985Y-135140000D02*
G75*
G03*
X115902985Y-135140000I-1426985J0D01*
G01*
X155991000Y-132295000D02*
X155991000Y-141295000D01*
X145491000Y-132295000D02*
X155991000Y-132295000D01*
X145491000Y-141295000D02*
X145491000Y-132295000D01*
X155991000Y-141295000D02*
X145491000Y-141295000D01*
D16*
X134734000Y-139295000D03*
X129734000Y-139295000D03*
X134734000Y-134295000D03*
X129734000Y-134295000D03*
D17*
X132234000Y-150383998D03*
D18*
X132234000Y-155303998D03*
X132234000Y-147003998D03*
X132234000Y-143903998D03*
D19*
X154791000Y-63643000D03*
X145191000Y-63643000D03*
D20*
X152491000Y-70643000D03*
X149991000Y-70643000D03*
X147491000Y-70643000D03*
D19*
X137034000Y-63643000D03*
X127434000Y-63643000D03*
D20*
X134734000Y-70643000D03*
X132234000Y-70643000D03*
X129734000Y-70643000D03*
D19*
X127434000Y-82693000D03*
X137034000Y-82693000D03*
D20*
X134734000Y-89693000D03*
X132234000Y-89693000D03*
X129734000Y-89693000D03*
D17*
X114427000Y-150368000D03*
D18*
X119347000Y-150368000D03*
X111047000Y-150368000D03*
X107947000Y-150368000D03*
D17*
X86790000Y-150380000D03*
D18*
X86790000Y-155300000D03*
X86790000Y-147000000D03*
X86790000Y-143900000D03*
D19*
X154791042Y-82693000D03*
X145191042Y-82693000D03*
D20*
X152491042Y-89693000D03*
X149991042Y-89693000D03*
X147491042Y-89693000D03*
%LPC*%
D21*
X97790000Y-103759000D03*
D22*
X95250000Y-103759000D03*
X97790000Y-106299000D03*
X95250000Y-106299000D03*
X97790000Y-108839000D03*
X95250000Y-108839000D03*
X97790000Y-111379000D03*
X95250000Y-111379000D03*
X97790000Y-113919000D03*
X95250000Y-113919000D03*
X97790000Y-116459000D03*
X95250000Y-116459000D03*
X97790000Y-118999000D03*
X95250000Y-118999000D03*
X97790000Y-121539000D03*
X95250000Y-121539000D03*
D21*
X123190000Y-87884000D03*
D22*
X120650000Y-87884000D03*
X123190000Y-90424000D03*
X120650000Y-90424000D03*
X123190000Y-92964000D03*
X120650000Y-92964000D03*
X123190000Y-95504000D03*
X120650000Y-95504000D03*
X123190000Y-98044000D03*
X120650000Y-98044000D03*
X123190000Y-100584000D03*
X120650000Y-100584000D03*
X123190000Y-103124000D03*
X120650000Y-103124000D03*
D23*
X109396000Y-59448000D03*
D24*
X117016000Y-59448000D03*
D23*
X109396000Y-70624000D03*
D24*
X117016000Y-70624000D03*
D23*
X109396000Y-80784000D03*
D24*
X117016000Y-80784000D03*
D23*
X109396000Y-90944000D03*
D24*
X117016000Y-90944000D03*
D23*
X109396000Y-101104000D03*
D24*
X117016000Y-101104000D03*
D23*
X109396000Y-111264000D03*
D24*
X117016000Y-111264000D03*
D23*
X108888000Y-121424000D03*
D24*
X116508000Y-121424000D03*
D23*
X108888000Y-131584000D03*
D24*
X116508000Y-131584000D03*
D25*
X91616000Y-59956000D03*
D24*
X83996000Y-59956000D03*
D25*
X91616000Y-70624000D03*
D24*
X83996000Y-70624000D03*
D25*
X91616000Y-80784000D03*
D24*
X83996000Y-80784000D03*
D25*
X91616000Y-90944000D03*
D24*
X83996000Y-90944000D03*
D25*
X91616000Y-101104000D03*
D24*
X83996000Y-101104000D03*
D25*
X91616000Y-111264000D03*
D24*
X83996000Y-111264000D03*
D25*
X91616000Y-121424000D03*
D24*
X83996000Y-121424000D03*
D25*
X91616000Y-131584000D03*
D24*
X83996000Y-131584000D03*
D26*
X114476000Y-68084000D03*
D24*
X104316000Y-68084000D03*
D26*
X114476000Y-78244000D03*
D24*
X104316000Y-78244000D03*
D26*
X114476000Y-88404000D03*
D24*
X104316000Y-88404000D03*
D26*
X114476000Y-98564000D03*
D24*
X104316000Y-98564000D03*
D26*
X113968000Y-118884000D03*
D24*
X103808000Y-118884000D03*
D26*
X113968000Y-129044000D03*
D24*
X103808000Y-129044000D03*
D26*
X119634000Y-138303000D03*
D24*
X109474000Y-138303000D03*
D26*
X119634000Y-141351000D03*
D24*
X109474000Y-141351000D03*
D26*
X86536000Y-68084000D03*
D24*
X76376000Y-68084000D03*
D26*
X86536000Y-78244000D03*
D24*
X76376000Y-78244000D03*
D26*
X86536000Y-88404000D03*
D24*
X76376000Y-88404000D03*
D26*
X86536000Y-98564000D03*
D24*
X76376000Y-98564000D03*
D26*
X86536000Y-108724000D03*
D24*
X76376000Y-108724000D03*
D26*
X86536000Y-118884000D03*
D24*
X76376000Y-118884000D03*
D26*
X86536000Y-129044000D03*
D24*
X76376000Y-129044000D03*
D26*
X86995000Y-139573000D03*
D24*
X76835000Y-139573000D03*
D26*
X119634000Y-144399000D03*
D24*
X109474000Y-144399000D03*
D26*
X96696000Y-135648000D03*
D24*
X96696000Y-125488000D03*
D26*
X92964000Y-155194000D03*
D24*
X92964000Y-145034000D03*
D26*
X123586000Y-141497000D03*
D24*
X123586000Y-151657000D03*
D27*
X103886000Y-152527000D03*
D28*
X103886000Y-149987000D03*
X103886000Y-147447000D03*
X103886000Y-144907000D03*
X96266000Y-144907000D03*
X96266000Y-147447000D03*
X96266000Y-149987000D03*
X96266000Y-152527000D03*
D26*
X97282000Y-155702000D03*
X102282000Y-155702000D03*
X102743000Y-141732000D03*
X97743000Y-141732000D03*
D29*
X140397000Y-127121000D03*
D30*
X140397000Y-129661000D03*
X140397000Y-132201000D03*
D26*
X126753000Y-129087000D03*
D24*
X136913000Y-129087000D03*
D26*
X144697000Y-129929000D03*
D24*
X154857000Y-129929000D03*
D26*
X140512000Y-144924000D03*
X140512000Y-139924000D03*
X114476000Y-108724000D03*
D24*
X104316000Y-108724000D03*
D31*
X89330000Y-104660000D03*
X86790000Y-104660000D03*
X84250000Y-104660000D03*
D30*
X134734000Y-139295000D03*
X129734000Y-139295000D03*
X134734000Y-134295000D03*
X129734000Y-134295000D03*
D31*
X143363000Y-93982000D03*
X143363000Y-96532000D03*
X143363000Y-99082000D03*
X138863000Y-93982000D03*
X138863000Y-96532000D03*
X138863000Y-99082000D03*
D32*
X132234000Y-150383998D03*
D33*
X132234000Y-155303998D03*
X132234000Y-147003998D03*
X132234000Y-143903998D03*
D31*
X89330000Y-114820000D03*
X86790000Y-114820000D03*
X84250000Y-114820000D03*
X117016000Y-124980000D03*
X114476000Y-124980000D03*
X111936000Y-124980000D03*
X117016000Y-114820000D03*
X114476000Y-114820000D03*
X111936000Y-114820000D03*
X117016000Y-104660000D03*
X114476000Y-104660000D03*
X111936000Y-104660000D03*
X117016000Y-94500000D03*
X114476000Y-94500000D03*
X111936000Y-94500000D03*
X89330000Y-94500000D03*
X86790000Y-94500000D03*
X84250000Y-94500000D03*
X89330000Y-84340000D03*
X86790000Y-84340000D03*
X84250000Y-84340000D03*
X117016000Y-84340000D03*
X114476000Y-84340000D03*
X111936000Y-84340000D03*
X117016000Y-74180000D03*
X114476000Y-74180000D03*
X111936000Y-74180000D03*
X89330000Y-74180000D03*
X86790000Y-74180000D03*
X84250000Y-74180000D03*
X89330000Y-64020000D03*
X86790000Y-64020000D03*
X84250000Y-64020000D03*
X117016000Y-64020000D03*
X114476000Y-64020000D03*
X111936000Y-64020000D03*
D32*
X149991000Y-109363000D03*
D33*
X154911000Y-109363000D03*
X146611000Y-109363000D03*
X143511000Y-109363000D03*
D34*
X154791000Y-63643000D03*
X145191000Y-63643000D03*
D35*
X152491000Y-70643000D03*
X149991000Y-70643000D03*
X147491000Y-70643000D03*
D34*
X137034000Y-63643000D03*
X127434000Y-63643000D03*
D35*
X134734000Y-70643000D03*
X132234000Y-70643000D03*
X129734000Y-70643000D03*
D31*
X132234000Y-106823000D03*
X132234000Y-109363000D03*
X132234000Y-111903000D03*
X132234000Y-125619000D03*
X132234000Y-123079000D03*
X132234000Y-120539000D03*
D34*
X127434000Y-82693000D03*
X137034000Y-82693000D03*
D35*
X134734000Y-89693000D03*
X132234000Y-89693000D03*
X129734000Y-89693000D03*
D32*
X114427000Y-150368000D03*
D33*
X119347000Y-150368000D03*
X111047000Y-150368000D03*
X107947000Y-150368000D03*
D36*
X102997000Y-64020000D03*
D37*
X105537000Y-64020000D03*
D36*
X102997000Y-74168000D03*
D37*
X105537000Y-74168000D03*
D36*
X102997000Y-84328000D03*
D37*
X105537000Y-84328000D03*
D36*
X102997000Y-94488000D03*
D37*
X105537000Y-94488000D03*
D36*
X102997000Y-104648000D03*
D37*
X105537000Y-104648000D03*
D36*
X102997000Y-114808000D03*
D37*
X105537000Y-114808000D03*
D36*
X75311000Y-64008000D03*
D37*
X77851000Y-64008000D03*
D36*
X75311000Y-74168000D03*
D37*
X77851000Y-74168000D03*
D36*
X75311000Y-84340000D03*
D37*
X77851000Y-84340000D03*
D36*
X75311000Y-94488000D03*
D37*
X77851000Y-94488000D03*
D36*
X75311000Y-104648000D03*
D37*
X77851000Y-104648000D03*
D36*
X75311000Y-114808000D03*
D37*
X77851000Y-114808000D03*
D36*
X75311000Y-124980000D03*
D37*
X77851000Y-124980000D03*
D32*
X149991000Y-150384000D03*
D33*
X149991000Y-155304000D03*
X149991000Y-147004000D03*
X149991000Y-143904000D03*
D32*
X149991000Y-123079000D03*
D33*
X154911000Y-123079000D03*
X146611000Y-123079000D03*
X143511000Y-123079000D03*
D32*
X86790000Y-150380000D03*
D33*
X86790000Y-155300000D03*
X86790000Y-147000000D03*
X86790000Y-143900000D03*
D36*
X75311000Y-135140000D03*
D37*
X77851000Y-135140000D03*
D31*
X89330000Y-135140000D03*
X86790000Y-135140000D03*
X84250000Y-135140000D03*
X89331800Y-124968000D03*
X86791800Y-124968000D03*
X84251800Y-124968000D03*
D34*
X154791042Y-82693000D03*
X145191042Y-82693000D03*
D35*
X152491042Y-89693000D03*
X149991042Y-89693000D03*
X147491042Y-89693000D03*
D36*
X102997000Y-135128000D03*
D37*
X105537000Y-135128000D03*
D36*
X102997000Y-124968000D03*
D37*
X105537000Y-124968000D03*
D31*
X117016000Y-135140000D03*
X114476000Y-135140000D03*
X111936000Y-135140000D03*
D32*
X149991000Y-136795000D03*
D33*
X154911000Y-136795000D03*
X146611000Y-136795000D03*
X143511000Y-136795000D03*
M02*
