G04 #@! TF.GenerationSoftware,KiCad,Pcbnew,(6.0.11-0)*
G04 #@! TF.CreationDate,2026-05-01T21:44:21-05:00*
G04 #@! TF.ProjectId,trigger-seq-panel,74726967-6765-4722-9d73-65712d70616e,rev?*
G04 #@! TF.SameCoordinates,Original*
G04 #@! TF.FileFunction,Legend,Top*
G04 #@! TF.FilePolarity,Positive*
%FSLAX46Y46*%
G04 Gerber Fmt 4.6, Leading zero omitted, Abs format (unit mm)*
G04 Created by KiCad (PCBNEW (6.0.11-0)) date 2026-05-01 21:44:21*
%MOMM*%
%LPD*%
G01*
G04 APERTURE LIST*
G04 Aperture macros list*
%AMRoundRect*
0 Rectangle with rounded corners*
0 $1 Rounding radius*
0 $2 $3 $4 $5 $6 $7 $8 $9 X,Y pos of 4 corners*
0 Add a 4 corners polygon primitive as box body*
4,1,4,$2,$3,$4,$5,$6,$7,$8,$9,$2,$3,0*
0 Add four circle primitives for the rounded corners*
1,1,$1+$1,$2,$3*
1,1,$1+$1,$4,$5*
1,1,$1+$1,$6,$7*
1,1,$1+$1,$8,$9*
0 Add four rect primitives between the rounded corners*
20,1,$1+$1,$2,$3,$4,$5,0*
20,1,$1+$1,$4,$5,$6,$7,0*
20,1,$1+$1,$6,$7,$8,$9,0*
20,1,$1+$1,$8,$9,$2,$3,0*%
G04 Aperture macros list end*
%ADD10C,0.300000*%
%ADD11C,0.152400*%
%ADD12C,0.150000*%
%ADD13C,0.120000*%
%ADD14C,0.010000*%
%ADD15C,0.100000*%
%ADD16RoundRect,0.200000X-0.850000X-0.850000X0.850000X-0.850000X0.850000X0.850000X-0.850000X0.850000X0*%
%ADD17O,2.100000X2.100000*%
%ADD18RoundRect,0.200000X-0.800000X-0.800000X0.800000X-0.800000X0.800000X0.800000X-0.800000X0.800000X0*%
%ADD19O,2.000000X2.000000*%
%ADD20RoundRect,0.200000X0.800000X0.800000X-0.800000X0.800000X-0.800000X-0.800000X0.800000X-0.800000X0*%
%ADD21C,2.000000*%
%ADD22RoundRect,0.200000X1.200000X0.800000X-1.200000X0.800000X-1.200000X-0.800000X1.200000X-0.800000X0*%
%ADD23O,2.800000X2.000000*%
%ADD24RoundRect,0.200000X-0.750000X-0.750000X0.750000X-0.750000X0.750000X0.750000X-0.750000X0.750000X0*%
%ADD25C,1.900000*%
%ADD26C,2.686000*%
%ADD27C,3.400000*%
%ADD28C,2.650000*%
%ADD29C,3.900000*%
%ADD30O,1.900000X2.400000*%
%ADD31C,2.200000*%
%ADD32RoundRect,0.200000X-0.900000X-0.900000X0.900000X-0.900000X0.900000X0.900000X-0.900000X0.900000X0*%
G04 APERTURE END LIST*
D10*
X98898571Y-99010714D02*
X98112857Y-99010714D01*
X97970000Y-99082142D01*
X97898571Y-99225000D01*
X97898571Y-99510714D01*
X97970000Y-99653571D01*
X98827142Y-99010714D02*
X98898571Y-99153571D01*
X98898571Y-99510714D01*
X98827142Y-99653571D01*
X98684285Y-99725000D01*
X98541428Y-99725000D01*
X98398571Y-99653571D01*
X98327142Y-99510714D01*
X98327142Y-99153571D01*
X98255714Y-99010714D01*
X98898571Y-98082142D02*
X98827142Y-98225000D01*
X98684285Y-98296428D01*
X97398571Y-98296428D01*
X98898571Y-97296428D02*
X98827142Y-97439285D01*
X98684285Y-97510714D01*
X97398571Y-97510714D01*
X98898571Y-94939285D02*
X97398571Y-94939285D01*
X98827142Y-94939285D02*
X98898571Y-95082142D01*
X98898571Y-95367857D01*
X98827142Y-95510714D01*
X98755714Y-95582142D01*
X98612857Y-95653571D01*
X98184285Y-95653571D01*
X98041428Y-95582142D01*
X97970000Y-95510714D01*
X97898571Y-95367857D01*
X97898571Y-95082142D01*
X97970000Y-94939285D01*
X98898571Y-94225000D02*
X97898571Y-94225000D01*
X97398571Y-94225000D02*
X97470000Y-94296428D01*
X97541428Y-94225000D01*
X97470000Y-94153571D01*
X97398571Y-94225000D01*
X97541428Y-94225000D01*
X98898571Y-93296428D02*
X98827142Y-93439285D01*
X98755714Y-93510714D01*
X98612857Y-93582142D01*
X98184285Y-93582142D01*
X98041428Y-93510714D01*
X97970000Y-93439285D01*
X97898571Y-93296428D01*
X97898571Y-93082142D01*
X97970000Y-92939285D01*
X98041428Y-92867857D01*
X98184285Y-92796428D01*
X98612857Y-92796428D01*
X98755714Y-92867857D01*
X98827142Y-92939285D01*
X98898571Y-93082142D01*
X98898571Y-93296428D01*
X98898571Y-91510714D02*
X97398571Y-91510714D01*
X98827142Y-91510714D02*
X98898571Y-91653571D01*
X98898571Y-91939285D01*
X98827142Y-92082142D01*
X98755714Y-92153571D01*
X98612857Y-92225000D01*
X98184285Y-92225000D01*
X98041428Y-92153571D01*
X97970000Y-92082142D01*
X97898571Y-91939285D01*
X97898571Y-91653571D01*
X97970000Y-91510714D01*
X98827142Y-90225000D02*
X98898571Y-90367857D01*
X98898571Y-90653571D01*
X98827142Y-90796428D01*
X98684285Y-90867857D01*
X98112857Y-90867857D01*
X97970000Y-90796428D01*
X97898571Y-90653571D01*
X97898571Y-90367857D01*
X97970000Y-90225000D01*
X98112857Y-90153571D01*
X98255714Y-90153571D01*
X98398571Y-90867857D01*
X98827142Y-89582142D02*
X98898571Y-89439285D01*
X98898571Y-89153571D01*
X98827142Y-89010714D01*
X98684285Y-88939285D01*
X98612857Y-88939285D01*
X98470000Y-89010714D01*
X98398571Y-89153571D01*
X98398571Y-89367857D01*
X98327142Y-89510714D01*
X98184285Y-89582142D01*
X98112857Y-89582142D01*
X97970000Y-89510714D01*
X97898571Y-89367857D01*
X97898571Y-89153571D01*
X97970000Y-89010714D01*
X98898571Y-86367857D02*
X98898571Y-87225000D01*
X98898571Y-86796428D02*
X97398571Y-86796428D01*
X97612857Y-86939285D01*
X97755714Y-87082142D01*
X97827142Y-87225000D01*
X98898571Y-85725000D02*
X97398571Y-85725000D01*
X98898571Y-84867857D01*
X97398571Y-84867857D01*
X97898571Y-83510714D02*
X98898571Y-83510714D01*
X97327142Y-83867857D02*
X98398571Y-84225000D01*
X98398571Y-83296428D01*
X98898571Y-81939285D02*
X98898571Y-82796428D01*
X98898571Y-82367857D02*
X97398571Y-82367857D01*
X97612857Y-82510714D01*
X97755714Y-82653571D01*
X97827142Y-82796428D01*
X97898571Y-80653571D02*
X98898571Y-80653571D01*
X97327142Y-81010714D02*
X98398571Y-81367857D01*
X98398571Y-80439285D01*
X98041428Y-79653571D02*
X97970000Y-79796428D01*
X97898571Y-79867857D01*
X97755714Y-79939285D01*
X97684285Y-79939285D01*
X97541428Y-79867857D01*
X97470000Y-79796428D01*
X97398571Y-79653571D01*
X97398571Y-79367857D01*
X97470000Y-79225000D01*
X97541428Y-79153571D01*
X97684285Y-79082142D01*
X97755714Y-79082142D01*
X97898571Y-79153571D01*
X97970000Y-79225000D01*
X98041428Y-79367857D01*
X98041428Y-79653571D01*
X98112857Y-79796428D01*
X98184285Y-79867857D01*
X98327142Y-79939285D01*
X98612857Y-79939285D01*
X98755714Y-79867857D01*
X98827142Y-79796428D01*
X98898571Y-79653571D01*
X98898571Y-79367857D01*
X98827142Y-79225000D01*
X98755714Y-79153571D01*
X98612857Y-79082142D01*
X98327142Y-79082142D01*
X98184285Y-79153571D01*
X98112857Y-79225000D01*
X98041428Y-79367857D01*
X97327142Y-77367857D02*
X99255714Y-78653571D01*
X98898571Y-76082142D02*
X98898571Y-76939285D01*
X98898571Y-76510714D02*
X97398571Y-76510714D01*
X97612857Y-76653571D01*
X97755714Y-76796428D01*
X97827142Y-76939285D01*
X98898571Y-75439285D02*
X97398571Y-75439285D01*
X98898571Y-74582142D01*
X97398571Y-74582142D01*
X98898571Y-73796428D02*
X98898571Y-73510714D01*
X98827142Y-73367857D01*
X98755714Y-73296428D01*
X98541428Y-73153571D01*
X98255714Y-73082142D01*
X97684285Y-73082142D01*
X97541428Y-73153571D01*
X97470000Y-73225000D01*
X97398571Y-73367857D01*
X97398571Y-73653571D01*
X97470000Y-73796428D01*
X97541428Y-73867857D01*
X97684285Y-73939285D01*
X98041428Y-73939285D01*
X98184285Y-73867857D01*
X98255714Y-73796428D01*
X98327142Y-73653571D01*
X98327142Y-73367857D01*
X98255714Y-73225000D01*
X98184285Y-73153571D01*
X98041428Y-73082142D01*
X98898571Y-71653571D02*
X98898571Y-72510714D01*
X98898571Y-72082142D02*
X97398571Y-72082142D01*
X97612857Y-72225000D01*
X97755714Y-72367857D01*
X97827142Y-72510714D01*
X97898571Y-70367857D02*
X98898571Y-70367857D01*
X97327142Y-70725000D02*
X98398571Y-71082142D01*
X98398571Y-70153571D01*
D11*
X91884500Y-54723876D02*
X91884500Y-53834876D01*
X91884500Y-54258210D02*
X92392500Y-54258210D01*
X92392500Y-54723876D02*
X92392500Y-53834876D01*
X92942833Y-54723876D02*
X92858166Y-54681543D01*
X92815833Y-54639210D01*
X92773500Y-54554543D01*
X92773500Y-54300543D01*
X92815833Y-54215876D01*
X92858166Y-54173543D01*
X92942833Y-54131210D01*
X93069833Y-54131210D01*
X93154500Y-54173543D01*
X93196833Y-54215876D01*
X93239166Y-54300543D01*
X93239166Y-54554543D01*
X93196833Y-54639210D01*
X93154500Y-54681543D01*
X93069833Y-54723876D01*
X92942833Y-54723876D01*
X93747166Y-54723876D02*
X93662500Y-54681543D01*
X93620166Y-54639210D01*
X93577833Y-54554543D01*
X93577833Y-54300543D01*
X93620166Y-54215876D01*
X93662500Y-54173543D01*
X93747166Y-54131210D01*
X93874166Y-54131210D01*
X93958833Y-54173543D01*
X94001166Y-54215876D01*
X94043500Y-54300543D01*
X94043500Y-54554543D01*
X94001166Y-54639210D01*
X93958833Y-54681543D01*
X93874166Y-54723876D01*
X93747166Y-54723876D01*
X94424500Y-54723876D02*
X94424500Y-53834876D01*
X94509166Y-54385210D02*
X94763166Y-54723876D01*
X94763166Y-54131210D02*
X94424500Y-54469876D01*
X95186500Y-53834876D02*
X95186500Y-53877210D01*
X95144166Y-53961876D01*
X95101833Y-54004210D01*
X95525166Y-54681543D02*
X95609833Y-54723876D01*
X95779166Y-54723876D01*
X95863833Y-54681543D01*
X95906166Y-54596876D01*
X95906166Y-54554543D01*
X95863833Y-54469876D01*
X95779166Y-54427543D01*
X95652166Y-54427543D01*
X95567500Y-54385210D01*
X95525166Y-54300543D01*
X95525166Y-54258210D01*
X95567500Y-54173543D01*
X95652166Y-54131210D01*
X95779166Y-54131210D01*
X95863833Y-54173543D01*
X97430166Y-53877210D02*
X97345500Y-53834876D01*
X97218500Y-53834876D01*
X97091500Y-53877210D01*
X97006833Y-53961876D01*
X96964500Y-54046543D01*
X96922166Y-54215876D01*
X96922166Y-54342876D01*
X96964500Y-54512210D01*
X97006833Y-54596876D01*
X97091500Y-54681543D01*
X97218500Y-54723876D01*
X97303166Y-54723876D01*
X97430166Y-54681543D01*
X97472500Y-54639210D01*
X97472500Y-54342876D01*
X97303166Y-54342876D01*
X98234500Y-54723876D02*
X98234500Y-54258210D01*
X98192166Y-54173543D01*
X98107500Y-54131210D01*
X97938166Y-54131210D01*
X97853500Y-54173543D01*
X98234500Y-54681543D02*
X98149833Y-54723876D01*
X97938166Y-54723876D01*
X97853500Y-54681543D01*
X97811166Y-54596876D01*
X97811166Y-54512210D01*
X97853500Y-54427543D01*
X97938166Y-54385210D01*
X98149833Y-54385210D01*
X98234500Y-54342876D01*
X98530833Y-54131210D02*
X98869500Y-54131210D01*
X98657833Y-53834876D02*
X98657833Y-54596876D01*
X98700166Y-54681543D01*
X98784833Y-54723876D01*
X98869500Y-54723876D01*
X99292833Y-54723876D02*
X99208166Y-54681543D01*
X99165833Y-54639210D01*
X99123500Y-54554543D01*
X99123500Y-54300543D01*
X99165833Y-54215876D01*
X99208166Y-54173543D01*
X99292833Y-54131210D01*
X99419833Y-54131210D01*
X99504500Y-54173543D01*
X99546833Y-54215876D01*
X99589166Y-54300543D01*
X99589166Y-54554543D01*
X99546833Y-54639210D01*
X99504500Y-54681543D01*
X99419833Y-54723876D01*
X99292833Y-54723876D01*
X99970166Y-54723876D02*
X99970166Y-54131210D01*
X99970166Y-54300543D02*
X100012500Y-54215876D01*
X100054833Y-54173543D01*
X100139500Y-54131210D01*
X100224166Y-54131210D01*
X101113166Y-53834876D02*
X101663500Y-53834876D01*
X101367166Y-54173543D01*
X101494166Y-54173543D01*
X101578833Y-54215876D01*
X101621166Y-54258210D01*
X101663500Y-54342876D01*
X101663500Y-54554543D01*
X101621166Y-54639210D01*
X101578833Y-54681543D01*
X101494166Y-54723876D01*
X101240166Y-54723876D01*
X101155500Y-54681543D01*
X101113166Y-54639210D01*
X102044500Y-54639210D02*
X102086833Y-54681543D01*
X102044500Y-54723876D01*
X102002166Y-54681543D01*
X102044500Y-54639210D01*
X102044500Y-54723876D01*
X102425500Y-53919543D02*
X102467833Y-53877210D01*
X102552500Y-53834876D01*
X102764166Y-53834876D01*
X102848833Y-53877210D01*
X102891166Y-53919543D01*
X102933500Y-54004210D01*
X102933500Y-54088876D01*
X102891166Y-54215876D01*
X102383166Y-54723876D01*
X102933500Y-54723876D01*
X103991833Y-54131210D02*
X103991833Y-55020210D01*
X103991833Y-54173543D02*
X104076500Y-54131210D01*
X104245833Y-54131210D01*
X104330500Y-54173543D01*
X104372833Y-54215876D01*
X104415166Y-54300543D01*
X104415166Y-54554543D01*
X104372833Y-54639210D01*
X104330500Y-54681543D01*
X104245833Y-54723876D01*
X104076500Y-54723876D01*
X103991833Y-54681543D01*
X105177166Y-54723876D02*
X105177166Y-54258210D01*
X105134833Y-54173543D01*
X105050166Y-54131210D01*
X104880833Y-54131210D01*
X104796166Y-54173543D01*
X105177166Y-54681543D02*
X105092500Y-54723876D01*
X104880833Y-54723876D01*
X104796166Y-54681543D01*
X104753833Y-54596876D01*
X104753833Y-54512210D01*
X104796166Y-54427543D01*
X104880833Y-54385210D01*
X105092500Y-54385210D01*
X105177166Y-54342876D01*
X105600500Y-54131210D02*
X105600500Y-54723876D01*
X105600500Y-54215876D02*
X105642833Y-54173543D01*
X105727500Y-54131210D01*
X105854500Y-54131210D01*
X105939166Y-54173543D01*
X105981500Y-54258210D01*
X105981500Y-54723876D01*
X106743500Y-54681543D02*
X106658833Y-54723876D01*
X106489500Y-54723876D01*
X106404833Y-54681543D01*
X106362500Y-54596876D01*
X106362500Y-54258210D01*
X106404833Y-54173543D01*
X106489500Y-54131210D01*
X106658833Y-54131210D01*
X106743500Y-54173543D01*
X106785833Y-54258210D01*
X106785833Y-54342876D01*
X106362500Y-54427543D01*
X107293833Y-54723876D02*
X107209166Y-54681543D01*
X107166833Y-54596876D01*
X107166833Y-53834876D01*
X108309833Y-54723876D02*
X108309833Y-53834876D01*
X108648500Y-53834876D01*
X108733166Y-53877210D01*
X108775500Y-53919543D01*
X108817833Y-54004210D01*
X108817833Y-54131210D01*
X108775500Y-54215876D01*
X108733166Y-54258210D01*
X108648500Y-54300543D01*
X108309833Y-54300543D01*
X109706833Y-54639210D02*
X109664500Y-54681543D01*
X109537500Y-54723876D01*
X109452833Y-54723876D01*
X109325833Y-54681543D01*
X109241166Y-54596876D01*
X109198833Y-54512210D01*
X109156500Y-54342876D01*
X109156500Y-54215876D01*
X109198833Y-54046543D01*
X109241166Y-53961876D01*
X109325833Y-53877210D01*
X109452833Y-53834876D01*
X109537500Y-53834876D01*
X109664500Y-53877210D01*
X109706833Y-53919543D01*
X110384166Y-54258210D02*
X110511166Y-54300543D01*
X110553500Y-54342876D01*
X110595833Y-54427543D01*
X110595833Y-54554543D01*
X110553500Y-54639210D01*
X110511166Y-54681543D01*
X110426500Y-54723876D01*
X110087833Y-54723876D01*
X110087833Y-53834876D01*
X110384166Y-53834876D01*
X110468833Y-53877210D01*
X110511166Y-53919543D01*
X110553500Y-54004210D01*
X110553500Y-54088876D01*
X110511166Y-54173543D01*
X110468833Y-54215876D01*
X110384166Y-54258210D01*
X110087833Y-54258210D01*
X93493166Y-55562500D02*
X93831833Y-55562500D01*
X93620166Y-55266166D02*
X93620166Y-56028166D01*
X93662500Y-56112833D01*
X93747166Y-56155166D01*
X93831833Y-56155166D01*
X94128166Y-56155166D02*
X94128166Y-55562500D01*
X94128166Y-55731833D02*
X94170500Y-55647166D01*
X94212833Y-55604833D01*
X94297500Y-55562500D01*
X94382166Y-55562500D01*
X94678500Y-56155166D02*
X94678500Y-55562500D01*
X94678500Y-55266166D02*
X94636166Y-55308500D01*
X94678500Y-55350833D01*
X94720833Y-55308500D01*
X94678500Y-55266166D01*
X94678500Y-55350833D01*
X95482833Y-55562500D02*
X95482833Y-56282166D01*
X95440500Y-56366833D01*
X95398166Y-56409166D01*
X95313500Y-56451500D01*
X95186500Y-56451500D01*
X95101833Y-56409166D01*
X95482833Y-56112833D02*
X95398166Y-56155166D01*
X95228833Y-56155166D01*
X95144166Y-56112833D01*
X95101833Y-56070500D01*
X95059500Y-55985833D01*
X95059500Y-55731833D01*
X95101833Y-55647166D01*
X95144166Y-55604833D01*
X95228833Y-55562500D01*
X95398166Y-55562500D01*
X95482833Y-55604833D01*
X96287166Y-55562500D02*
X96287166Y-56282166D01*
X96244833Y-56366833D01*
X96202500Y-56409166D01*
X96117833Y-56451500D01*
X95990833Y-56451500D01*
X95906166Y-56409166D01*
X96287166Y-56112833D02*
X96202500Y-56155166D01*
X96033166Y-56155166D01*
X95948500Y-56112833D01*
X95906166Y-56070500D01*
X95863833Y-55985833D01*
X95863833Y-55731833D01*
X95906166Y-55647166D01*
X95948500Y-55604833D01*
X96033166Y-55562500D01*
X96202500Y-55562500D01*
X96287166Y-55604833D01*
X97049166Y-56112833D02*
X96964500Y-56155166D01*
X96795166Y-56155166D01*
X96710500Y-56112833D01*
X96668166Y-56028166D01*
X96668166Y-55689500D01*
X96710500Y-55604833D01*
X96795166Y-55562500D01*
X96964500Y-55562500D01*
X97049166Y-55604833D01*
X97091500Y-55689500D01*
X97091500Y-55774166D01*
X96668166Y-55858833D01*
X97472500Y-56155166D02*
X97472500Y-55562500D01*
X97472500Y-55731833D02*
X97514833Y-55647166D01*
X97557166Y-55604833D01*
X97641833Y-55562500D01*
X97726500Y-55562500D01*
X98657833Y-55223833D02*
X97895833Y-56366833D01*
X99335166Y-55562500D02*
X99335166Y-56282166D01*
X99292833Y-56366833D01*
X99250500Y-56409166D01*
X99165833Y-56451500D01*
X99038833Y-56451500D01*
X98954166Y-56409166D01*
X99335166Y-56112833D02*
X99250500Y-56155166D01*
X99081166Y-56155166D01*
X98996500Y-56112833D01*
X98954166Y-56070500D01*
X98911833Y-55985833D01*
X98911833Y-55731833D01*
X98954166Y-55647166D01*
X98996500Y-55604833D01*
X99081166Y-55562500D01*
X99250500Y-55562500D01*
X99335166Y-55604833D01*
X100139500Y-56155166D02*
X100139500Y-55689500D01*
X100097166Y-55604833D01*
X100012500Y-55562500D01*
X99843166Y-55562500D01*
X99758500Y-55604833D01*
X100139500Y-56112833D02*
X100054833Y-56155166D01*
X99843166Y-56155166D01*
X99758500Y-56112833D01*
X99716166Y-56028166D01*
X99716166Y-55943500D01*
X99758500Y-55858833D01*
X99843166Y-55816500D01*
X100054833Y-55816500D01*
X100139500Y-55774166D01*
X100435833Y-55562500D02*
X100774500Y-55562500D01*
X100562833Y-55266166D02*
X100562833Y-56028166D01*
X100605166Y-56112833D01*
X100689833Y-56155166D01*
X100774500Y-56155166D01*
X101409500Y-56112833D02*
X101324833Y-56155166D01*
X101155500Y-56155166D01*
X101070833Y-56112833D01*
X101028500Y-56028166D01*
X101028500Y-55689500D01*
X101070833Y-55604833D01*
X101155500Y-55562500D01*
X101324833Y-55562500D01*
X101409500Y-55604833D01*
X101451833Y-55689500D01*
X101451833Y-55774166D01*
X101028500Y-55858833D01*
X102467833Y-56112833D02*
X102552500Y-56155166D01*
X102721833Y-56155166D01*
X102806500Y-56112833D01*
X102848833Y-56028166D01*
X102848833Y-55985833D01*
X102806500Y-55901166D01*
X102721833Y-55858833D01*
X102594833Y-55858833D01*
X102510166Y-55816500D01*
X102467833Y-55731833D01*
X102467833Y-55689500D01*
X102510166Y-55604833D01*
X102594833Y-55562500D01*
X102721833Y-55562500D01*
X102806500Y-55604833D01*
X103568500Y-56112833D02*
X103483833Y-56155166D01*
X103314500Y-56155166D01*
X103229833Y-56112833D01*
X103187500Y-56028166D01*
X103187500Y-55689500D01*
X103229833Y-55604833D01*
X103314500Y-55562500D01*
X103483833Y-55562500D01*
X103568500Y-55604833D01*
X103610833Y-55689500D01*
X103610833Y-55774166D01*
X103187500Y-55858833D01*
X104372833Y-55562500D02*
X104372833Y-56451500D01*
X104372833Y-56112833D02*
X104288166Y-56155166D01*
X104118833Y-56155166D01*
X104034166Y-56112833D01*
X103991833Y-56070500D01*
X103949500Y-55985833D01*
X103949500Y-55731833D01*
X103991833Y-55647166D01*
X104034166Y-55604833D01*
X104118833Y-55562500D01*
X104288166Y-55562500D01*
X104372833Y-55604833D01*
X105177166Y-55562500D02*
X105177166Y-56155166D01*
X104796166Y-55562500D02*
X104796166Y-56028166D01*
X104838500Y-56112833D01*
X104923166Y-56155166D01*
X105050166Y-56155166D01*
X105134833Y-56112833D01*
X105177166Y-56070500D01*
X105939166Y-56112833D02*
X105854500Y-56155166D01*
X105685166Y-56155166D01*
X105600500Y-56112833D01*
X105558166Y-56028166D01*
X105558166Y-55689500D01*
X105600500Y-55604833D01*
X105685166Y-55562500D01*
X105854500Y-55562500D01*
X105939166Y-55604833D01*
X105981500Y-55689500D01*
X105981500Y-55774166D01*
X105558166Y-55858833D01*
X106362500Y-55562500D02*
X106362500Y-56155166D01*
X106362500Y-55647166D02*
X106404833Y-55604833D01*
X106489500Y-55562500D01*
X106616500Y-55562500D01*
X106701166Y-55604833D01*
X106743500Y-55689500D01*
X106743500Y-56155166D01*
X107547833Y-56112833D02*
X107463166Y-56155166D01*
X107293833Y-56155166D01*
X107209166Y-56112833D01*
X107166833Y-56070500D01*
X107124500Y-55985833D01*
X107124500Y-55731833D01*
X107166833Y-55647166D01*
X107209166Y-55604833D01*
X107293833Y-55562500D01*
X107463166Y-55562500D01*
X107547833Y-55604833D01*
X108267500Y-56112833D02*
X108182833Y-56155166D01*
X108013500Y-56155166D01*
X107928833Y-56112833D01*
X107886500Y-56028166D01*
X107886500Y-55689500D01*
X107928833Y-55604833D01*
X108013500Y-55562500D01*
X108182833Y-55562500D01*
X108267500Y-55604833D01*
X108309833Y-55689500D01*
X108309833Y-55774166D01*
X107886500Y-55858833D01*
X108690833Y-56155166D02*
X108690833Y-55562500D01*
X108690833Y-55731833D02*
X108733166Y-55647166D01*
X108775500Y-55604833D01*
X108860166Y-55562500D01*
X108944833Y-55562500D01*
X92731166Y-57925123D02*
X92688833Y-57882790D01*
X92604166Y-57755790D01*
X92561833Y-57671123D01*
X92519500Y-57544123D01*
X92477166Y-57332456D01*
X92477166Y-57163123D01*
X92519500Y-56951456D01*
X92561833Y-56824456D01*
X92604166Y-56739790D01*
X92688833Y-56612790D01*
X92731166Y-56570456D01*
X93450833Y-57544123D02*
X93366166Y-57586456D01*
X93196833Y-57586456D01*
X93112166Y-57544123D01*
X93069833Y-57501790D01*
X93027500Y-57417123D01*
X93027500Y-57163123D01*
X93069833Y-57078456D01*
X93112166Y-57036123D01*
X93196833Y-56993790D01*
X93366166Y-56993790D01*
X93450833Y-57036123D01*
X93747166Y-57925123D02*
X93789500Y-57882790D01*
X93874166Y-57755790D01*
X93916500Y-57671123D01*
X93958833Y-57544123D01*
X94001166Y-57332456D01*
X94001166Y-57163123D01*
X93958833Y-56951456D01*
X93916500Y-56824456D01*
X93874166Y-56739790D01*
X93789500Y-56612790D01*
X93747166Y-56570456D01*
X94382166Y-56782123D02*
X94424500Y-56739790D01*
X94509166Y-56697456D01*
X94720833Y-56697456D01*
X94805500Y-56739790D01*
X94847833Y-56782123D01*
X94890166Y-56866790D01*
X94890166Y-56951456D01*
X94847833Y-57078456D01*
X94339833Y-57586456D01*
X94890166Y-57586456D01*
X95440500Y-56697456D02*
X95525166Y-56697456D01*
X95609833Y-56739790D01*
X95652166Y-56782123D01*
X95694500Y-56866790D01*
X95736833Y-57036123D01*
X95736833Y-57247790D01*
X95694500Y-57417123D01*
X95652166Y-57501790D01*
X95609833Y-57544123D01*
X95525166Y-57586456D01*
X95440500Y-57586456D01*
X95355833Y-57544123D01*
X95313500Y-57501790D01*
X95271166Y-57417123D01*
X95228833Y-57247790D01*
X95228833Y-57036123D01*
X95271166Y-56866790D01*
X95313500Y-56782123D01*
X95355833Y-56739790D01*
X95440500Y-56697456D01*
X96075500Y-56782123D02*
X96117833Y-56739790D01*
X96202500Y-56697456D01*
X96414166Y-56697456D01*
X96498833Y-56739790D01*
X96541166Y-56782123D01*
X96583500Y-56866790D01*
X96583500Y-56951456D01*
X96541166Y-57078456D01*
X96033166Y-57586456D01*
X96583500Y-57586456D01*
X97345500Y-56697456D02*
X97176166Y-56697456D01*
X97091500Y-56739790D01*
X97049166Y-56782123D01*
X96964500Y-56909123D01*
X96922166Y-57078456D01*
X96922166Y-57417123D01*
X96964500Y-57501790D01*
X97006833Y-57544123D01*
X97091500Y-57586456D01*
X97260833Y-57586456D01*
X97345500Y-57544123D01*
X97387833Y-57501790D01*
X97430166Y-57417123D01*
X97430166Y-57205456D01*
X97387833Y-57120790D01*
X97345500Y-57078456D01*
X97260833Y-57036123D01*
X97091500Y-57036123D01*
X97006833Y-57078456D01*
X96964500Y-57120790D01*
X96922166Y-57205456D01*
X98784833Y-57120790D02*
X98488500Y-57120790D01*
X98488500Y-57586456D02*
X98488500Y-56697456D01*
X98911833Y-56697456D01*
X99250500Y-57586456D02*
X99250500Y-56993790D01*
X99250500Y-57163123D02*
X99292833Y-57078456D01*
X99335166Y-57036123D01*
X99419833Y-56993790D01*
X99504500Y-56993790D01*
X99927833Y-57586456D02*
X99843166Y-57544123D01*
X99800833Y-57501790D01*
X99758500Y-57417123D01*
X99758500Y-57163123D01*
X99800833Y-57078456D01*
X99843166Y-57036123D01*
X99927833Y-56993790D01*
X100054833Y-56993790D01*
X100139500Y-57036123D01*
X100181833Y-57078456D01*
X100224166Y-57163123D01*
X100224166Y-57417123D01*
X100181833Y-57501790D01*
X100139500Y-57544123D01*
X100054833Y-57586456D01*
X99927833Y-57586456D01*
X100986166Y-56993790D02*
X100986166Y-57713456D01*
X100943833Y-57798123D01*
X100901500Y-57840456D01*
X100816833Y-57882790D01*
X100689833Y-57882790D01*
X100605166Y-57840456D01*
X100986166Y-57544123D02*
X100901500Y-57586456D01*
X100732166Y-57586456D01*
X100647500Y-57544123D01*
X100605166Y-57501790D01*
X100562833Y-57417123D01*
X100562833Y-57163123D01*
X100605166Y-57078456D01*
X100647500Y-57036123D01*
X100732166Y-56993790D01*
X100901500Y-56993790D01*
X100986166Y-57036123D01*
X101536500Y-57586456D02*
X101451833Y-57544123D01*
X101409500Y-57459456D01*
X101409500Y-56697456D01*
X102213833Y-57544123D02*
X102129166Y-57586456D01*
X101959833Y-57586456D01*
X101875166Y-57544123D01*
X101832833Y-57459456D01*
X101832833Y-57120790D01*
X101875166Y-57036123D01*
X101959833Y-56993790D01*
X102129166Y-56993790D01*
X102213833Y-57036123D01*
X102256166Y-57120790D01*
X102256166Y-57205456D01*
X101832833Y-57290123D01*
X103018166Y-56993790D02*
X103018166Y-57713456D01*
X102975833Y-57798123D01*
X102933500Y-57840456D01*
X102848833Y-57882790D01*
X102721833Y-57882790D01*
X102637166Y-57840456D01*
X103018166Y-57544123D02*
X102933500Y-57586456D01*
X102764166Y-57586456D01*
X102679500Y-57544123D01*
X102637166Y-57501790D01*
X102594833Y-57417123D01*
X102594833Y-57163123D01*
X102637166Y-57078456D01*
X102679500Y-57036123D01*
X102764166Y-56993790D01*
X102933500Y-56993790D01*
X103018166Y-57036123D01*
X104076500Y-57544123D02*
X104203500Y-57586456D01*
X104415166Y-57586456D01*
X104499833Y-57544123D01*
X104542166Y-57501790D01*
X104584500Y-57417123D01*
X104584500Y-57332456D01*
X104542166Y-57247790D01*
X104499833Y-57205456D01*
X104415166Y-57163123D01*
X104245833Y-57120790D01*
X104161166Y-57078456D01*
X104118833Y-57036123D01*
X104076500Y-56951456D01*
X104076500Y-56866790D01*
X104118833Y-56782123D01*
X104161166Y-56739790D01*
X104245833Y-56697456D01*
X104457500Y-56697456D01*
X104584500Y-56739790D01*
X104880833Y-56993790D02*
X105092500Y-57586456D01*
X105304166Y-56993790D02*
X105092500Y-57586456D01*
X105007833Y-57798123D01*
X104965500Y-57840456D01*
X104880833Y-57882790D01*
X105642833Y-56993790D02*
X105642833Y-57586456D01*
X105642833Y-57078456D02*
X105685166Y-57036123D01*
X105769833Y-56993790D01*
X105896833Y-56993790D01*
X105981500Y-57036123D01*
X106023833Y-57120790D01*
X106023833Y-57586456D01*
X106320166Y-56993790D02*
X106658833Y-56993790D01*
X106447166Y-56697456D02*
X106447166Y-57459456D01*
X106489500Y-57544123D01*
X106574166Y-57586456D01*
X106658833Y-57586456D01*
X106955166Y-57586456D02*
X106955166Y-56697456D01*
X107336166Y-57586456D02*
X107336166Y-57120790D01*
X107293833Y-57036123D01*
X107209166Y-56993790D01*
X107082166Y-56993790D01*
X106997500Y-57036123D01*
X106955166Y-57078456D01*
X108098166Y-57544123D02*
X108013500Y-57586456D01*
X107844166Y-57586456D01*
X107759500Y-57544123D01*
X107717166Y-57459456D01*
X107717166Y-57120790D01*
X107759500Y-57036123D01*
X107844166Y-56993790D01*
X108013500Y-56993790D01*
X108098166Y-57036123D01*
X108140500Y-57120790D01*
X108140500Y-57205456D01*
X107717166Y-57290123D01*
X108479166Y-57544123D02*
X108563833Y-57586456D01*
X108733166Y-57586456D01*
X108817833Y-57544123D01*
X108860166Y-57459456D01*
X108860166Y-57417123D01*
X108817833Y-57332456D01*
X108733166Y-57290123D01*
X108606166Y-57290123D01*
X108521500Y-57247790D01*
X108479166Y-57163123D01*
X108479166Y-57120790D01*
X108521500Y-57036123D01*
X108606166Y-56993790D01*
X108733166Y-56993790D01*
X108817833Y-57036123D01*
X109241166Y-57586456D02*
X109241166Y-56993790D01*
X109241166Y-56697456D02*
X109198833Y-56739790D01*
X109241166Y-56782123D01*
X109283500Y-56739790D01*
X109241166Y-56697456D01*
X109241166Y-56782123D01*
X109622166Y-57544123D02*
X109706833Y-57586456D01*
X109876166Y-57586456D01*
X109960833Y-57544123D01*
X110003166Y-57459456D01*
X110003166Y-57417123D01*
X109960833Y-57332456D01*
X109876166Y-57290123D01*
X109749166Y-57290123D01*
X109664500Y-57247790D01*
X109622166Y-57163123D01*
X109622166Y-57120790D01*
X109664500Y-57036123D01*
X109749166Y-56993790D01*
X109876166Y-56993790D01*
X109960833Y-57036123D01*
D12*
X95781904Y-101441380D02*
X95781904Y-100441380D01*
X96162857Y-100441380D01*
X96258095Y-100489000D01*
X96305714Y-100536619D01*
X96353333Y-100631857D01*
X96353333Y-100774714D01*
X96305714Y-100869952D01*
X96258095Y-100917571D01*
X96162857Y-100965190D01*
X95781904Y-100965190D01*
X96686666Y-100441380D02*
X97305714Y-100441380D01*
X96972380Y-100822333D01*
X97115238Y-100822333D01*
X97210476Y-100869952D01*
X97258095Y-100917571D01*
X97305714Y-101012809D01*
X97305714Y-101250904D01*
X97258095Y-101346142D01*
X97210476Y-101393761D01*
X97115238Y-101441380D01*
X96829523Y-101441380D01*
X96734285Y-101393761D01*
X96686666Y-101346142D01*
X100861761Y-118093476D02*
X100909380Y-117950619D01*
X100909380Y-117712523D01*
X100861761Y-117617285D01*
X100814142Y-117569666D01*
X100718904Y-117522047D01*
X100623666Y-117522047D01*
X100528428Y-117569666D01*
X100480809Y-117617285D01*
X100433190Y-117712523D01*
X100385571Y-117903000D01*
X100337952Y-117998238D01*
X100290333Y-118045857D01*
X100195095Y-118093476D01*
X100099857Y-118093476D01*
X100004619Y-118045857D01*
X99957000Y-117998238D01*
X99909380Y-117903000D01*
X99909380Y-117664904D01*
X99957000Y-117522047D01*
X99909380Y-117188714D02*
X100909380Y-116950619D01*
X100195095Y-116760142D01*
X100909380Y-116569666D01*
X99909380Y-116331571D01*
X100909380Y-115950619D02*
X99909380Y-115950619D01*
X99909380Y-115617285D02*
X99909380Y-115045857D01*
X100909380Y-115331571D02*
X99909380Y-115331571D01*
X100814142Y-114141095D02*
X100861761Y-114188714D01*
X100909380Y-114331571D01*
X100909380Y-114426809D01*
X100861761Y-114569666D01*
X100766523Y-114664904D01*
X100671285Y-114712523D01*
X100480809Y-114760142D01*
X100337952Y-114760142D01*
X100147476Y-114712523D01*
X100052238Y-114664904D01*
X99957000Y-114569666D01*
X99909380Y-114426809D01*
X99909380Y-114331571D01*
X99957000Y-114188714D01*
X100004619Y-114141095D01*
X100909380Y-113712523D02*
X99909380Y-113712523D01*
X100385571Y-113712523D02*
X100385571Y-113141095D01*
X100909380Y-113141095D02*
X99909380Y-113141095D01*
X101004619Y-112903000D02*
X101004619Y-112141095D01*
X100909380Y-111903000D02*
X99909380Y-111903000D01*
X99909380Y-111522047D01*
X99957000Y-111426809D01*
X100004619Y-111379190D01*
X100099857Y-111331571D01*
X100242714Y-111331571D01*
X100337952Y-111379190D01*
X100385571Y-111426809D01*
X100433190Y-111522047D01*
X100433190Y-111903000D01*
X100623666Y-110950619D02*
X100623666Y-110474428D01*
X100909380Y-111045857D02*
X99909380Y-110712523D01*
X100909380Y-110379190D01*
X100909380Y-110045857D02*
X99909380Y-110045857D01*
X100909380Y-109474428D01*
X99909380Y-109474428D01*
X100385571Y-108998238D02*
X100385571Y-108664904D01*
X100909380Y-108522047D02*
X100909380Y-108998238D01*
X99909380Y-108998238D01*
X99909380Y-108522047D01*
X100909380Y-107617285D02*
X100909380Y-108093476D01*
X99909380Y-108093476D01*
X96972380Y-113387095D02*
X95972380Y-113387095D01*
X95972380Y-113006142D01*
X96020000Y-112910904D01*
X96067619Y-112863285D01*
X96162857Y-112815666D01*
X96305714Y-112815666D01*
X96400952Y-112863285D01*
X96448571Y-112910904D01*
X96496190Y-113006142D01*
X96496190Y-113387095D01*
X95972380Y-112482333D02*
X95972380Y-111863285D01*
X96353333Y-112196619D01*
X96353333Y-112053761D01*
X96400952Y-111958523D01*
X96448571Y-111910904D01*
X96543809Y-111863285D01*
X96781904Y-111863285D01*
X96877142Y-111910904D01*
X96924761Y-111958523D01*
X96972380Y-112053761D01*
X96972380Y-112339476D01*
X96924761Y-112434714D01*
X96877142Y-112482333D01*
X121181904Y-85566380D02*
X121181904Y-84566380D01*
X121562857Y-84566380D01*
X121658095Y-84614000D01*
X121705714Y-84661619D01*
X121753333Y-84756857D01*
X121753333Y-84899714D01*
X121705714Y-84994952D01*
X121658095Y-85042571D01*
X121562857Y-85090190D01*
X121181904Y-85090190D01*
X122324761Y-84994952D02*
X122229523Y-84947333D01*
X122181904Y-84899714D01*
X122134285Y-84804476D01*
X122134285Y-84756857D01*
X122181904Y-84661619D01*
X122229523Y-84614000D01*
X122324761Y-84566380D01*
X122515238Y-84566380D01*
X122610476Y-84614000D01*
X122658095Y-84661619D01*
X122705714Y-84756857D01*
X122705714Y-84804476D01*
X122658095Y-84899714D01*
X122610476Y-84947333D01*
X122515238Y-84994952D01*
X122324761Y-84994952D01*
X122229523Y-85042571D01*
X122181904Y-85090190D01*
X122134285Y-85185428D01*
X122134285Y-85375904D01*
X122181904Y-85471142D01*
X122229523Y-85518761D01*
X122324761Y-85566380D01*
X122515238Y-85566380D01*
X122610476Y-85518761D01*
X122658095Y-85471142D01*
X122705714Y-85375904D01*
X122705714Y-85185428D01*
X122658095Y-85090190D01*
X122610476Y-85042571D01*
X122515238Y-84994952D01*
X125436380Y-101099380D02*
X126150666Y-101099380D01*
X126293523Y-101147000D01*
X126388761Y-101242238D01*
X126436380Y-101385095D01*
X126436380Y-101480333D01*
X126150666Y-100670809D02*
X126150666Y-100194619D01*
X126436380Y-100766047D02*
X125436380Y-100432714D01*
X126436380Y-100099380D01*
X126341142Y-99194619D02*
X126388761Y-99242238D01*
X126436380Y-99385095D01*
X126436380Y-99480333D01*
X126388761Y-99623190D01*
X126293523Y-99718428D01*
X126198285Y-99766047D01*
X126007809Y-99813666D01*
X125864952Y-99813666D01*
X125674476Y-99766047D01*
X125579238Y-99718428D01*
X125484000Y-99623190D01*
X125436380Y-99480333D01*
X125436380Y-99385095D01*
X125484000Y-99242238D01*
X125531619Y-99194619D01*
X126436380Y-98766047D02*
X125436380Y-98766047D01*
X126436380Y-98194619D02*
X125864952Y-98623190D01*
X125436380Y-98194619D02*
X126007809Y-98766047D01*
X126388761Y-97813666D02*
X126436380Y-97670809D01*
X126436380Y-97432714D01*
X126388761Y-97337476D01*
X126341142Y-97289857D01*
X126245904Y-97242238D01*
X126150666Y-97242238D01*
X126055428Y-97289857D01*
X126007809Y-97337476D01*
X125960190Y-97432714D01*
X125912571Y-97623190D01*
X125864952Y-97718428D01*
X125817333Y-97766047D01*
X125722095Y-97813666D01*
X125626857Y-97813666D01*
X125531619Y-97766047D01*
X125484000Y-97718428D01*
X125436380Y-97623190D01*
X125436380Y-97385095D01*
X125484000Y-97242238D01*
X126531619Y-97051761D02*
X126531619Y-96289857D01*
X126436380Y-96051761D02*
X125436380Y-96051761D01*
X125436380Y-95670809D01*
X125484000Y-95575571D01*
X125531619Y-95527952D01*
X125626857Y-95480333D01*
X125769714Y-95480333D01*
X125864952Y-95527952D01*
X125912571Y-95575571D01*
X125960190Y-95670809D01*
X125960190Y-96051761D01*
X126150666Y-95099380D02*
X126150666Y-94623190D01*
X126436380Y-95194619D02*
X125436380Y-94861285D01*
X126436380Y-94527952D01*
X126436380Y-94194619D02*
X125436380Y-94194619D01*
X126436380Y-93623190D01*
X125436380Y-93623190D01*
X125912571Y-93147000D02*
X125912571Y-92813666D01*
X126436380Y-92670809D02*
X126436380Y-93147000D01*
X125436380Y-93147000D01*
X125436380Y-92670809D01*
X126436380Y-91766047D02*
X126436380Y-92242238D01*
X125436380Y-92242238D01*
X122372380Y-96242095D02*
X121372380Y-96242095D01*
X121372380Y-95861142D01*
X121420000Y-95765904D01*
X121467619Y-95718285D01*
X121562857Y-95670666D01*
X121705714Y-95670666D01*
X121800952Y-95718285D01*
X121848571Y-95765904D01*
X121896190Y-95861142D01*
X121896190Y-96242095D01*
X121800952Y-95099238D02*
X121753333Y-95194476D01*
X121705714Y-95242095D01*
X121610476Y-95289714D01*
X121562857Y-95289714D01*
X121467619Y-95242095D01*
X121420000Y-95194476D01*
X121372380Y-95099238D01*
X121372380Y-94908761D01*
X121420000Y-94813523D01*
X121467619Y-94765904D01*
X121562857Y-94718285D01*
X121610476Y-94718285D01*
X121705714Y-94765904D01*
X121753333Y-94813523D01*
X121800952Y-94908761D01*
X121800952Y-95099238D01*
X121848571Y-95194476D01*
X121896190Y-95242095D01*
X121991428Y-95289714D01*
X122181904Y-95289714D01*
X122277142Y-95242095D01*
X122324761Y-95194476D01*
X122372380Y-95099238D01*
X122372380Y-94908761D01*
X122324761Y-94813523D01*
X122277142Y-94765904D01*
X122181904Y-94718285D01*
X121991428Y-94718285D01*
X121896190Y-94765904D01*
X121848571Y-94813523D01*
X121800952Y-94908761D01*
X105211714Y-59888380D02*
X105211714Y-58888380D01*
X105449809Y-58888380D01*
X105592666Y-58936000D01*
X105687904Y-59031238D01*
X105735523Y-59126476D01*
X105783142Y-59316952D01*
X105783142Y-59459809D01*
X105735523Y-59650285D01*
X105687904Y-59745523D01*
X105592666Y-59840761D01*
X105449809Y-59888380D01*
X105211714Y-59888380D01*
X106735523Y-59888380D02*
X106164095Y-59888380D01*
X106449809Y-59888380D02*
X106449809Y-58888380D01*
X106354571Y-59031238D01*
X106259333Y-59126476D01*
X106164095Y-59174095D01*
X107687904Y-59888380D02*
X107116476Y-59888380D01*
X107402190Y-59888380D02*
X107402190Y-58888380D01*
X107306952Y-59031238D01*
X107211714Y-59126476D01*
X107116476Y-59174095D01*
X105338714Y-71064380D02*
X105338714Y-70064380D01*
X105576809Y-70064380D01*
X105719666Y-70112000D01*
X105814904Y-70207238D01*
X105862523Y-70302476D01*
X105910142Y-70492952D01*
X105910142Y-70635809D01*
X105862523Y-70826285D01*
X105814904Y-70921523D01*
X105719666Y-71016761D01*
X105576809Y-71064380D01*
X105338714Y-71064380D01*
X106862523Y-71064380D02*
X106291095Y-71064380D01*
X106576809Y-71064380D02*
X106576809Y-70064380D01*
X106481571Y-70207238D01*
X106386333Y-70302476D01*
X106291095Y-70350095D01*
X107243476Y-70159619D02*
X107291095Y-70112000D01*
X107386333Y-70064380D01*
X107624428Y-70064380D01*
X107719666Y-70112000D01*
X107767285Y-70159619D01*
X107814904Y-70254857D01*
X107814904Y-70350095D01*
X107767285Y-70492952D01*
X107195857Y-71064380D01*
X107814904Y-71064380D01*
D13*
X112534571Y-70985904D02*
X112534571Y-70185904D01*
X112725047Y-70185904D01*
X112839333Y-70224000D01*
X112915523Y-70300190D01*
X112953619Y-70376380D01*
X112991714Y-70528761D01*
X112991714Y-70643047D01*
X112953619Y-70795428D01*
X112915523Y-70871619D01*
X112839333Y-70947809D01*
X112725047Y-70985904D01*
X112534571Y-70985904D01*
X113753619Y-70985904D02*
X113296476Y-70985904D01*
X113525047Y-70985904D02*
X113525047Y-70185904D01*
X113448857Y-70300190D01*
X113372666Y-70376380D01*
X113296476Y-70414476D01*
X114058380Y-70262095D02*
X114096476Y-70224000D01*
X114172666Y-70185904D01*
X114363142Y-70185904D01*
X114439333Y-70224000D01*
X114477428Y-70262095D01*
X114515523Y-70338285D01*
X114515523Y-70414476D01*
X114477428Y-70528761D01*
X114020285Y-70985904D01*
X114515523Y-70985904D01*
D12*
X105465714Y-81351380D02*
X105465714Y-80351380D01*
X105703809Y-80351380D01*
X105846666Y-80399000D01*
X105941904Y-80494238D01*
X105989523Y-80589476D01*
X106037142Y-80779952D01*
X106037142Y-80922809D01*
X105989523Y-81113285D01*
X105941904Y-81208523D01*
X105846666Y-81303761D01*
X105703809Y-81351380D01*
X105465714Y-81351380D01*
X106989523Y-81351380D02*
X106418095Y-81351380D01*
X106703809Y-81351380D02*
X106703809Y-80351380D01*
X106608571Y-80494238D01*
X106513333Y-80589476D01*
X106418095Y-80637095D01*
X107322857Y-80351380D02*
X107941904Y-80351380D01*
X107608571Y-80732333D01*
X107751428Y-80732333D01*
X107846666Y-80779952D01*
X107894285Y-80827571D01*
X107941904Y-80922809D01*
X107941904Y-81160904D01*
X107894285Y-81256142D01*
X107846666Y-81303761D01*
X107751428Y-81351380D01*
X107465714Y-81351380D01*
X107370476Y-81303761D01*
X107322857Y-81256142D01*
X105465714Y-91511380D02*
X105465714Y-90511380D01*
X105703809Y-90511380D01*
X105846666Y-90559000D01*
X105941904Y-90654238D01*
X105989523Y-90749476D01*
X106037142Y-90939952D01*
X106037142Y-91082809D01*
X105989523Y-91273285D01*
X105941904Y-91368523D01*
X105846666Y-91463761D01*
X105703809Y-91511380D01*
X105465714Y-91511380D01*
X106989523Y-91511380D02*
X106418095Y-91511380D01*
X106703809Y-91511380D02*
X106703809Y-90511380D01*
X106608571Y-90654238D01*
X106513333Y-90749476D01*
X106418095Y-90797095D01*
X107846666Y-90844714D02*
X107846666Y-91511380D01*
X107608571Y-90463761D02*
X107370476Y-91178047D01*
X107989523Y-91178047D01*
X105338714Y-101544380D02*
X105338714Y-100544380D01*
X105576809Y-100544380D01*
X105719666Y-100592000D01*
X105814904Y-100687238D01*
X105862523Y-100782476D01*
X105910142Y-100972952D01*
X105910142Y-101115809D01*
X105862523Y-101306285D01*
X105814904Y-101401523D01*
X105719666Y-101496761D01*
X105576809Y-101544380D01*
X105338714Y-101544380D01*
X106862523Y-101544380D02*
X106291095Y-101544380D01*
X106576809Y-101544380D02*
X106576809Y-100544380D01*
X106481571Y-100687238D01*
X106386333Y-100782476D01*
X106291095Y-100830095D01*
X107767285Y-100544380D02*
X107291095Y-100544380D01*
X107243476Y-101020571D01*
X107291095Y-100972952D01*
X107386333Y-100925333D01*
X107624428Y-100925333D01*
X107719666Y-100972952D01*
X107767285Y-101020571D01*
X107814904Y-101115809D01*
X107814904Y-101353904D01*
X107767285Y-101449142D01*
X107719666Y-101496761D01*
X107624428Y-101544380D01*
X107386333Y-101544380D01*
X107291095Y-101496761D01*
X107243476Y-101449142D01*
X105465714Y-111831380D02*
X105465714Y-110831380D01*
X105703809Y-110831380D01*
X105846666Y-110879000D01*
X105941904Y-110974238D01*
X105989523Y-111069476D01*
X106037142Y-111259952D01*
X106037142Y-111402809D01*
X105989523Y-111593285D01*
X105941904Y-111688523D01*
X105846666Y-111783761D01*
X105703809Y-111831380D01*
X105465714Y-111831380D01*
X106989523Y-111831380D02*
X106418095Y-111831380D01*
X106703809Y-111831380D02*
X106703809Y-110831380D01*
X106608571Y-110974238D01*
X106513333Y-111069476D01*
X106418095Y-111117095D01*
X107846666Y-110831380D02*
X107656190Y-110831380D01*
X107560952Y-110879000D01*
X107513333Y-110926619D01*
X107418095Y-111069476D01*
X107370476Y-111259952D01*
X107370476Y-111640904D01*
X107418095Y-111736142D01*
X107465714Y-111783761D01*
X107560952Y-111831380D01*
X107751428Y-111831380D01*
X107846666Y-111783761D01*
X107894285Y-111736142D01*
X107941904Y-111640904D01*
X107941904Y-111402809D01*
X107894285Y-111307571D01*
X107846666Y-111259952D01*
X107751428Y-111212333D01*
X107560952Y-111212333D01*
X107465714Y-111259952D01*
X107418095Y-111307571D01*
X107370476Y-111402809D01*
X105084714Y-121991380D02*
X105084714Y-120991380D01*
X105322809Y-120991380D01*
X105465666Y-121039000D01*
X105560904Y-121134238D01*
X105608523Y-121229476D01*
X105656142Y-121419952D01*
X105656142Y-121562809D01*
X105608523Y-121753285D01*
X105560904Y-121848523D01*
X105465666Y-121943761D01*
X105322809Y-121991380D01*
X105084714Y-121991380D01*
X106608523Y-121991380D02*
X106037095Y-121991380D01*
X106322809Y-121991380D02*
X106322809Y-120991380D01*
X106227571Y-121134238D01*
X106132333Y-121229476D01*
X106037095Y-121277095D01*
X106941857Y-120991380D02*
X107608523Y-120991380D01*
X107179952Y-121991380D01*
X104830714Y-132024380D02*
X104830714Y-131024380D01*
X105068809Y-131024380D01*
X105211666Y-131072000D01*
X105306904Y-131167238D01*
X105354523Y-131262476D01*
X105402142Y-131452952D01*
X105402142Y-131595809D01*
X105354523Y-131786285D01*
X105306904Y-131881523D01*
X105211666Y-131976761D01*
X105068809Y-132024380D01*
X104830714Y-132024380D01*
X106354523Y-132024380D02*
X105783095Y-132024380D01*
X106068809Y-132024380D02*
X106068809Y-131024380D01*
X105973571Y-131167238D01*
X105878333Y-131262476D01*
X105783095Y-131310095D01*
X106925952Y-131452952D02*
X106830714Y-131405333D01*
X106783095Y-131357714D01*
X106735476Y-131262476D01*
X106735476Y-131214857D01*
X106783095Y-131119619D01*
X106830714Y-131072000D01*
X106925952Y-131024380D01*
X107116428Y-131024380D01*
X107211666Y-131072000D01*
X107259285Y-131119619D01*
X107306904Y-131214857D01*
X107306904Y-131262476D01*
X107259285Y-131357714D01*
X107211666Y-131405333D01*
X107116428Y-131452952D01*
X106925952Y-131452952D01*
X106830714Y-131500571D01*
X106783095Y-131548190D01*
X106735476Y-131643428D01*
X106735476Y-131833904D01*
X106783095Y-131929142D01*
X106830714Y-131976761D01*
X106925952Y-132024380D01*
X107116428Y-132024380D01*
X107211666Y-131976761D01*
X107259285Y-131929142D01*
X107306904Y-131833904D01*
X107306904Y-131643428D01*
X107259285Y-131548190D01*
X107211666Y-131500571D01*
X107116428Y-131452952D01*
D13*
X80562571Y-60432904D02*
X80562571Y-59632904D01*
X80753047Y-59632904D01*
X80867333Y-59671000D01*
X80943523Y-59747190D01*
X80981619Y-59823380D01*
X81019714Y-59975761D01*
X81019714Y-60090047D01*
X80981619Y-60242428D01*
X80943523Y-60318619D01*
X80867333Y-60394809D01*
X80753047Y-60432904D01*
X80562571Y-60432904D01*
X81324476Y-59709095D02*
X81362571Y-59671000D01*
X81438761Y-59632904D01*
X81629238Y-59632904D01*
X81705428Y-59671000D01*
X81743523Y-59709095D01*
X81781619Y-59785285D01*
X81781619Y-59861476D01*
X81743523Y-59975761D01*
X81286380Y-60432904D01*
X81781619Y-60432904D01*
X82048285Y-59632904D02*
X82581619Y-59632904D01*
X82238761Y-60432904D01*
X80308571Y-71100904D02*
X80308571Y-70300904D01*
X80499047Y-70300904D01*
X80613333Y-70339000D01*
X80689523Y-70415190D01*
X80727619Y-70491380D01*
X80765714Y-70643761D01*
X80765714Y-70758047D01*
X80727619Y-70910428D01*
X80689523Y-70986619D01*
X80613333Y-71062809D01*
X80499047Y-71100904D01*
X80308571Y-71100904D01*
X81070476Y-70377095D02*
X81108571Y-70339000D01*
X81184761Y-70300904D01*
X81375238Y-70300904D01*
X81451428Y-70339000D01*
X81489523Y-70377095D01*
X81527619Y-70453285D01*
X81527619Y-70529476D01*
X81489523Y-70643761D01*
X81032380Y-71100904D01*
X81527619Y-71100904D01*
X81984761Y-70643761D02*
X81908571Y-70605666D01*
X81870476Y-70567571D01*
X81832380Y-70491380D01*
X81832380Y-70453285D01*
X81870476Y-70377095D01*
X81908571Y-70339000D01*
X81984761Y-70300904D01*
X82137142Y-70300904D01*
X82213333Y-70339000D01*
X82251428Y-70377095D01*
X82289523Y-70453285D01*
X82289523Y-70491380D01*
X82251428Y-70567571D01*
X82213333Y-70605666D01*
X82137142Y-70643761D01*
X81984761Y-70643761D01*
X81908571Y-70681857D01*
X81870476Y-70719952D01*
X81832380Y-70796142D01*
X81832380Y-70948523D01*
X81870476Y-71024714D01*
X81908571Y-71062809D01*
X81984761Y-71100904D01*
X82137142Y-71100904D01*
X82213333Y-71062809D01*
X82251428Y-71024714D01*
X82289523Y-70948523D01*
X82289523Y-70796142D01*
X82251428Y-70719952D01*
X82213333Y-70681857D01*
X82137142Y-70643761D01*
X80308571Y-81260904D02*
X80308571Y-80460904D01*
X80499047Y-80460904D01*
X80613333Y-80499000D01*
X80689523Y-80575190D01*
X80727619Y-80651380D01*
X80765714Y-80803761D01*
X80765714Y-80918047D01*
X80727619Y-81070428D01*
X80689523Y-81146619D01*
X80613333Y-81222809D01*
X80499047Y-81260904D01*
X80308571Y-81260904D01*
X81070476Y-80537095D02*
X81108571Y-80499000D01*
X81184761Y-80460904D01*
X81375238Y-80460904D01*
X81451428Y-80499000D01*
X81489523Y-80537095D01*
X81527619Y-80613285D01*
X81527619Y-80689476D01*
X81489523Y-80803761D01*
X81032380Y-81260904D01*
X81527619Y-81260904D01*
X81908571Y-81260904D02*
X82060952Y-81260904D01*
X82137142Y-81222809D01*
X82175238Y-81184714D01*
X82251428Y-81070428D01*
X82289523Y-80918047D01*
X82289523Y-80613285D01*
X82251428Y-80537095D01*
X82213333Y-80499000D01*
X82137142Y-80460904D01*
X81984761Y-80460904D01*
X81908571Y-80499000D01*
X81870476Y-80537095D01*
X81832380Y-80613285D01*
X81832380Y-80803761D01*
X81870476Y-80879952D01*
X81908571Y-80918047D01*
X81984761Y-80956142D01*
X82137142Y-80956142D01*
X82213333Y-80918047D01*
X82251428Y-80879952D01*
X82289523Y-80803761D01*
X80435571Y-91293904D02*
X80435571Y-90493904D01*
X80626047Y-90493904D01*
X80740333Y-90532000D01*
X80816523Y-90608190D01*
X80854619Y-90684380D01*
X80892714Y-90836761D01*
X80892714Y-90951047D01*
X80854619Y-91103428D01*
X80816523Y-91179619D01*
X80740333Y-91255809D01*
X80626047Y-91293904D01*
X80435571Y-91293904D01*
X81159380Y-90493904D02*
X81654619Y-90493904D01*
X81387952Y-90798666D01*
X81502238Y-90798666D01*
X81578428Y-90836761D01*
X81616523Y-90874857D01*
X81654619Y-90951047D01*
X81654619Y-91141523D01*
X81616523Y-91217714D01*
X81578428Y-91255809D01*
X81502238Y-91293904D01*
X81273666Y-91293904D01*
X81197476Y-91255809D01*
X81159380Y-91217714D01*
X82149857Y-90493904D02*
X82226047Y-90493904D01*
X82302238Y-90532000D01*
X82340333Y-90570095D01*
X82378428Y-90646285D01*
X82416523Y-90798666D01*
X82416523Y-90989142D01*
X82378428Y-91141523D01*
X82340333Y-91217714D01*
X82302238Y-91255809D01*
X82226047Y-91293904D01*
X82149857Y-91293904D01*
X82073666Y-91255809D01*
X82035571Y-91217714D01*
X81997476Y-91141523D01*
X81959380Y-90989142D01*
X81959380Y-90798666D01*
X81997476Y-90646285D01*
X82035571Y-90570095D01*
X82073666Y-90532000D01*
X82149857Y-90493904D01*
X80689571Y-101453904D02*
X80689571Y-100653904D01*
X80880047Y-100653904D01*
X80994333Y-100692000D01*
X81070523Y-100768190D01*
X81108619Y-100844380D01*
X81146714Y-100996761D01*
X81146714Y-101111047D01*
X81108619Y-101263428D01*
X81070523Y-101339619D01*
X80994333Y-101415809D01*
X80880047Y-101453904D01*
X80689571Y-101453904D01*
X81413380Y-100653904D02*
X81908619Y-100653904D01*
X81641952Y-100958666D01*
X81756238Y-100958666D01*
X81832428Y-100996761D01*
X81870523Y-101034857D01*
X81908619Y-101111047D01*
X81908619Y-101301523D01*
X81870523Y-101377714D01*
X81832428Y-101415809D01*
X81756238Y-101453904D01*
X81527666Y-101453904D01*
X81451476Y-101415809D01*
X81413380Y-101377714D01*
X82670523Y-101453904D02*
X82213380Y-101453904D01*
X82441952Y-101453904D02*
X82441952Y-100653904D01*
X82365761Y-100768190D01*
X82289571Y-100844380D01*
X82213380Y-100882476D01*
X80562571Y-111486904D02*
X80562571Y-110686904D01*
X80753047Y-110686904D01*
X80867333Y-110725000D01*
X80943523Y-110801190D01*
X80981619Y-110877380D01*
X81019714Y-111029761D01*
X81019714Y-111144047D01*
X80981619Y-111296428D01*
X80943523Y-111372619D01*
X80867333Y-111448809D01*
X80753047Y-111486904D01*
X80562571Y-111486904D01*
X81286380Y-110686904D02*
X81781619Y-110686904D01*
X81514952Y-110991666D01*
X81629238Y-110991666D01*
X81705428Y-111029761D01*
X81743523Y-111067857D01*
X81781619Y-111144047D01*
X81781619Y-111334523D01*
X81743523Y-111410714D01*
X81705428Y-111448809D01*
X81629238Y-111486904D01*
X81400666Y-111486904D01*
X81324476Y-111448809D01*
X81286380Y-111410714D01*
X82086380Y-110763095D02*
X82124476Y-110725000D01*
X82200666Y-110686904D01*
X82391142Y-110686904D01*
X82467333Y-110725000D01*
X82505428Y-110763095D01*
X82543523Y-110839285D01*
X82543523Y-110915476D01*
X82505428Y-111029761D01*
X82048285Y-111486904D01*
X82543523Y-111486904D01*
X80435571Y-121773904D02*
X80435571Y-120973904D01*
X80626047Y-120973904D01*
X80740333Y-121012000D01*
X80816523Y-121088190D01*
X80854619Y-121164380D01*
X80892714Y-121316761D01*
X80892714Y-121431047D01*
X80854619Y-121583428D01*
X80816523Y-121659619D01*
X80740333Y-121735809D01*
X80626047Y-121773904D01*
X80435571Y-121773904D01*
X81159380Y-120973904D02*
X81654619Y-120973904D01*
X81387952Y-121278666D01*
X81502238Y-121278666D01*
X81578428Y-121316761D01*
X81616523Y-121354857D01*
X81654619Y-121431047D01*
X81654619Y-121621523D01*
X81616523Y-121697714D01*
X81578428Y-121735809D01*
X81502238Y-121773904D01*
X81273666Y-121773904D01*
X81197476Y-121735809D01*
X81159380Y-121697714D01*
X81921285Y-120973904D02*
X82416523Y-120973904D01*
X82149857Y-121278666D01*
X82264142Y-121278666D01*
X82340333Y-121316761D01*
X82378428Y-121354857D01*
X82416523Y-121431047D01*
X82416523Y-121621523D01*
X82378428Y-121697714D01*
X82340333Y-121735809D01*
X82264142Y-121773904D01*
X82035571Y-121773904D01*
X81959380Y-121735809D01*
X81921285Y-121697714D01*
X80689571Y-131945904D02*
X80689571Y-131145904D01*
X80880047Y-131145904D01*
X80994333Y-131184000D01*
X81070523Y-131260190D01*
X81108619Y-131336380D01*
X81146714Y-131488761D01*
X81146714Y-131603047D01*
X81108619Y-131755428D01*
X81070523Y-131831619D01*
X80994333Y-131907809D01*
X80880047Y-131945904D01*
X80689571Y-131945904D01*
X81413380Y-131145904D02*
X81908619Y-131145904D01*
X81641952Y-131450666D01*
X81756238Y-131450666D01*
X81832428Y-131488761D01*
X81870523Y-131526857D01*
X81908619Y-131603047D01*
X81908619Y-131793523D01*
X81870523Y-131869714D01*
X81832428Y-131907809D01*
X81756238Y-131945904D01*
X81527666Y-131945904D01*
X81451476Y-131907809D01*
X81413380Y-131869714D01*
X82594333Y-131412571D02*
X82594333Y-131945904D01*
X82403857Y-131107809D02*
X82213380Y-131679238D01*
X82708619Y-131679238D01*
D12*
X116927333Y-68397380D02*
X116594000Y-67921190D01*
X116355904Y-68397380D02*
X116355904Y-67397380D01*
X116736857Y-67397380D01*
X116832095Y-67445000D01*
X116879714Y-67492619D01*
X116927333Y-67587857D01*
X116927333Y-67730714D01*
X116879714Y-67825952D01*
X116832095Y-67873571D01*
X116736857Y-67921190D01*
X116355904Y-67921190D01*
X117879714Y-68397380D02*
X117308285Y-68397380D01*
X117594000Y-68397380D02*
X117594000Y-67397380D01*
X117498761Y-67540238D01*
X117403523Y-67635476D01*
X117308285Y-67683095D01*
X109132714Y-68651380D02*
X108561285Y-68651380D01*
X108847000Y-68651380D02*
X108847000Y-67651380D01*
X108751761Y-67794238D01*
X108656523Y-67889476D01*
X108561285Y-67937095D01*
X109561285Y-68651380D02*
X109561285Y-67651380D01*
X110132714Y-68651380D02*
X109704142Y-68079952D01*
X110132714Y-67651380D02*
X109561285Y-68222809D01*
X116800333Y-78684380D02*
X116467000Y-78208190D01*
X116228904Y-78684380D02*
X116228904Y-77684380D01*
X116609857Y-77684380D01*
X116705095Y-77732000D01*
X116752714Y-77779619D01*
X116800333Y-77874857D01*
X116800333Y-78017714D01*
X116752714Y-78112952D01*
X116705095Y-78160571D01*
X116609857Y-78208190D01*
X116228904Y-78208190D01*
X117181285Y-77779619D02*
X117228904Y-77732000D01*
X117324142Y-77684380D01*
X117562238Y-77684380D01*
X117657476Y-77732000D01*
X117705095Y-77779619D01*
X117752714Y-77874857D01*
X117752714Y-77970095D01*
X117705095Y-78112952D01*
X117133666Y-78684380D01*
X117752714Y-78684380D01*
X109005714Y-78684380D02*
X108434285Y-78684380D01*
X108720000Y-78684380D02*
X108720000Y-77684380D01*
X108624761Y-77827238D01*
X108529523Y-77922476D01*
X108434285Y-77970095D01*
X109434285Y-78684380D02*
X109434285Y-77684380D01*
X110005714Y-78684380D02*
X109577142Y-78112952D01*
X110005714Y-77684380D02*
X109434285Y-78255809D01*
X116673333Y-88717380D02*
X116340000Y-88241190D01*
X116101904Y-88717380D02*
X116101904Y-87717380D01*
X116482857Y-87717380D01*
X116578095Y-87765000D01*
X116625714Y-87812619D01*
X116673333Y-87907857D01*
X116673333Y-88050714D01*
X116625714Y-88145952D01*
X116578095Y-88193571D01*
X116482857Y-88241190D01*
X116101904Y-88241190D01*
X117006666Y-87717380D02*
X117625714Y-87717380D01*
X117292380Y-88098333D01*
X117435238Y-88098333D01*
X117530476Y-88145952D01*
X117578095Y-88193571D01*
X117625714Y-88288809D01*
X117625714Y-88526904D01*
X117578095Y-88622142D01*
X117530476Y-88669761D01*
X117435238Y-88717380D01*
X117149523Y-88717380D01*
X117054285Y-88669761D01*
X117006666Y-88622142D01*
X108878714Y-88717380D02*
X108307285Y-88717380D01*
X108593000Y-88717380D02*
X108593000Y-87717380D01*
X108497761Y-87860238D01*
X108402523Y-87955476D01*
X108307285Y-88003095D01*
X109307285Y-88717380D02*
X109307285Y-87717380D01*
X109878714Y-88717380D02*
X109450142Y-88145952D01*
X109878714Y-87717380D02*
X109307285Y-88288809D01*
X116673333Y-99004380D02*
X116340000Y-98528190D01*
X116101904Y-99004380D02*
X116101904Y-98004380D01*
X116482857Y-98004380D01*
X116578095Y-98052000D01*
X116625714Y-98099619D01*
X116673333Y-98194857D01*
X116673333Y-98337714D01*
X116625714Y-98432952D01*
X116578095Y-98480571D01*
X116482857Y-98528190D01*
X116101904Y-98528190D01*
X117530476Y-98337714D02*
X117530476Y-99004380D01*
X117292380Y-97956761D02*
X117054285Y-98671047D01*
X117673333Y-98671047D01*
X109181714Y-99004380D02*
X108610285Y-99004380D01*
X108896000Y-99004380D02*
X108896000Y-98004380D01*
X108800761Y-98147238D01*
X108705523Y-98242476D01*
X108610285Y-98290095D01*
X109610285Y-99004380D02*
X109610285Y-98004380D01*
X110181714Y-99004380D02*
X109753142Y-98432952D01*
X110181714Y-98004380D02*
X109610285Y-98575809D01*
X116038333Y-119324380D02*
X115705000Y-118848190D01*
X115466904Y-119324380D02*
X115466904Y-118324380D01*
X115847857Y-118324380D01*
X115943095Y-118372000D01*
X115990714Y-118419619D01*
X116038333Y-118514857D01*
X116038333Y-118657714D01*
X115990714Y-118752952D01*
X115943095Y-118800571D01*
X115847857Y-118848190D01*
X115466904Y-118848190D01*
X116895476Y-118324380D02*
X116705000Y-118324380D01*
X116609761Y-118372000D01*
X116562142Y-118419619D01*
X116466904Y-118562476D01*
X116419285Y-118752952D01*
X116419285Y-119133904D01*
X116466904Y-119229142D01*
X116514523Y-119276761D01*
X116609761Y-119324380D01*
X116800238Y-119324380D01*
X116895476Y-119276761D01*
X116943095Y-119229142D01*
X116990714Y-119133904D01*
X116990714Y-118895809D01*
X116943095Y-118800571D01*
X116895476Y-118752952D01*
X116800238Y-118705333D01*
X116609761Y-118705333D01*
X116514523Y-118752952D01*
X116466904Y-118800571D01*
X116419285Y-118895809D01*
X108673714Y-119070380D02*
X108102285Y-119070380D01*
X108388000Y-119070380D02*
X108388000Y-118070380D01*
X108292761Y-118213238D01*
X108197523Y-118308476D01*
X108102285Y-118356095D01*
X109102285Y-119070380D02*
X109102285Y-118070380D01*
X109673714Y-119070380D02*
X109245142Y-118498952D01*
X109673714Y-118070380D02*
X109102285Y-118641809D01*
X116165333Y-129484380D02*
X115832000Y-129008190D01*
X115593904Y-129484380D02*
X115593904Y-128484380D01*
X115974857Y-128484380D01*
X116070095Y-128532000D01*
X116117714Y-128579619D01*
X116165333Y-128674857D01*
X116165333Y-128817714D01*
X116117714Y-128912952D01*
X116070095Y-128960571D01*
X115974857Y-129008190D01*
X115593904Y-129008190D01*
X116498666Y-128484380D02*
X117165333Y-128484380D01*
X116736761Y-129484380D01*
X108673714Y-129484380D02*
X108102285Y-129484380D01*
X108388000Y-129484380D02*
X108388000Y-128484380D01*
X108292761Y-128627238D01*
X108197523Y-128722476D01*
X108102285Y-128770095D01*
X109102285Y-129484380D02*
X109102285Y-128484380D01*
X109673714Y-129484380D02*
X109245142Y-128912952D01*
X109673714Y-128484380D02*
X109102285Y-129055809D01*
X121626333Y-138755380D02*
X121293000Y-138279190D01*
X121054904Y-138755380D02*
X121054904Y-137755380D01*
X121435857Y-137755380D01*
X121531095Y-137803000D01*
X121578714Y-137850619D01*
X121626333Y-137945857D01*
X121626333Y-138088714D01*
X121578714Y-138183952D01*
X121531095Y-138231571D01*
X121435857Y-138279190D01*
X121054904Y-138279190D01*
X122197761Y-138183952D02*
X122102523Y-138136333D01*
X122054904Y-138088714D01*
X122007285Y-137993476D01*
X122007285Y-137945857D01*
X122054904Y-137850619D01*
X122102523Y-137803000D01*
X122197761Y-137755380D01*
X122388238Y-137755380D01*
X122483476Y-137803000D01*
X122531095Y-137850619D01*
X122578714Y-137945857D01*
X122578714Y-137993476D01*
X122531095Y-138088714D01*
X122483476Y-138136333D01*
X122388238Y-138183952D01*
X122197761Y-138183952D01*
X122102523Y-138231571D01*
X122054904Y-138279190D01*
X122007285Y-138374428D01*
X122007285Y-138564904D01*
X122054904Y-138660142D01*
X122102523Y-138707761D01*
X122197761Y-138755380D01*
X122388238Y-138755380D01*
X122483476Y-138707761D01*
X122531095Y-138660142D01*
X122578714Y-138564904D01*
X122578714Y-138374428D01*
X122531095Y-138279190D01*
X122483476Y-138231571D01*
X122388238Y-138183952D01*
X114339714Y-138628380D02*
X113768285Y-138628380D01*
X114054000Y-138628380D02*
X114054000Y-137628380D01*
X113958761Y-137771238D01*
X113863523Y-137866476D01*
X113768285Y-137914095D01*
X114768285Y-138628380D02*
X114768285Y-137628380D01*
X115339714Y-138628380D02*
X114911142Y-138056952D01*
X115339714Y-137628380D02*
X114768285Y-138199809D01*
X121626333Y-138755380D02*
X121293000Y-138279190D01*
X121054904Y-138755380D02*
X121054904Y-137755380D01*
X121435857Y-137755380D01*
X121531095Y-137803000D01*
X121578714Y-137850619D01*
X121626333Y-137945857D01*
X121626333Y-138088714D01*
X121578714Y-138183952D01*
X121531095Y-138231571D01*
X121435857Y-138279190D01*
X121054904Y-138279190D01*
X122197761Y-138183952D02*
X122102523Y-138136333D01*
X122054904Y-138088714D01*
X122007285Y-137993476D01*
X122007285Y-137945857D01*
X122054904Y-137850619D01*
X122102523Y-137803000D01*
X122197761Y-137755380D01*
X122388238Y-137755380D01*
X122483476Y-137803000D01*
X122531095Y-137850619D01*
X122578714Y-137945857D01*
X122578714Y-137993476D01*
X122531095Y-138088714D01*
X122483476Y-138136333D01*
X122388238Y-138183952D01*
X122197761Y-138183952D01*
X122102523Y-138231571D01*
X122054904Y-138279190D01*
X122007285Y-138374428D01*
X122007285Y-138564904D01*
X122054904Y-138660142D01*
X122102523Y-138707761D01*
X122197761Y-138755380D01*
X122388238Y-138755380D01*
X122483476Y-138707761D01*
X122531095Y-138660142D01*
X122578714Y-138564904D01*
X122578714Y-138374428D01*
X122531095Y-138279190D01*
X122483476Y-138231571D01*
X122388238Y-138183952D01*
X121626333Y-141549380D02*
X121293000Y-141073190D01*
X121054904Y-141549380D02*
X121054904Y-140549380D01*
X121435857Y-140549380D01*
X121531095Y-140597000D01*
X121578714Y-140644619D01*
X121626333Y-140739857D01*
X121626333Y-140882714D01*
X121578714Y-140977952D01*
X121531095Y-141025571D01*
X121435857Y-141073190D01*
X121054904Y-141073190D01*
X122102523Y-141549380D02*
X122293000Y-141549380D01*
X122388238Y-141501761D01*
X122435857Y-141454142D01*
X122531095Y-141311285D01*
X122578714Y-141120809D01*
X122578714Y-140739857D01*
X122531095Y-140644619D01*
X122483476Y-140597000D01*
X122388238Y-140549380D01*
X122197761Y-140549380D01*
X122102523Y-140597000D01*
X122054904Y-140644619D01*
X122007285Y-140739857D01*
X122007285Y-140977952D01*
X122054904Y-141073190D01*
X122102523Y-141120809D01*
X122197761Y-141168428D01*
X122388238Y-141168428D01*
X122483476Y-141120809D01*
X122531095Y-141073190D01*
X122578714Y-140977952D01*
X113736523Y-141930380D02*
X113165095Y-141930380D01*
X113450809Y-141930380D02*
X113450809Y-140930380D01*
X113355571Y-141073238D01*
X113260333Y-141168476D01*
X113165095Y-141216095D01*
X114355571Y-140930380D02*
X114450809Y-140930380D01*
X114546047Y-140978000D01*
X114593666Y-141025619D01*
X114641285Y-141120857D01*
X114688904Y-141311333D01*
X114688904Y-141549428D01*
X114641285Y-141739904D01*
X114593666Y-141835142D01*
X114546047Y-141882761D01*
X114450809Y-141930380D01*
X114355571Y-141930380D01*
X114260333Y-141882761D01*
X114212714Y-141835142D01*
X114165095Y-141739904D01*
X114117476Y-141549428D01*
X114117476Y-141311333D01*
X114165095Y-141120857D01*
X114212714Y-141025619D01*
X114260333Y-140978000D01*
X114355571Y-140930380D01*
X115117476Y-141930380D02*
X115117476Y-140930380D01*
X115688904Y-141930380D02*
X115260333Y-141358952D01*
X115688904Y-140930380D02*
X115117476Y-141501809D01*
X88765142Y-68524380D02*
X88431809Y-68048190D01*
X88193714Y-68524380D02*
X88193714Y-67524380D01*
X88574666Y-67524380D01*
X88669904Y-67572000D01*
X88717523Y-67619619D01*
X88765142Y-67714857D01*
X88765142Y-67857714D01*
X88717523Y-67952952D01*
X88669904Y-68000571D01*
X88574666Y-68048190D01*
X88193714Y-68048190D01*
X89717523Y-68524380D02*
X89146095Y-68524380D01*
X89431809Y-68524380D02*
X89431809Y-67524380D01*
X89336571Y-67667238D01*
X89241333Y-67762476D01*
X89146095Y-67810095D01*
X90336571Y-67524380D02*
X90431809Y-67524380D01*
X90527047Y-67572000D01*
X90574666Y-67619619D01*
X90622285Y-67714857D01*
X90669904Y-67905333D01*
X90669904Y-68143428D01*
X90622285Y-68333904D01*
X90574666Y-68429142D01*
X90527047Y-68476761D01*
X90431809Y-68524380D01*
X90336571Y-68524380D01*
X90241333Y-68476761D01*
X90193714Y-68429142D01*
X90146095Y-68333904D01*
X90098476Y-68143428D01*
X90098476Y-67905333D01*
X90146095Y-67714857D01*
X90193714Y-67619619D01*
X90241333Y-67572000D01*
X90336571Y-67524380D01*
X81241714Y-68651380D02*
X80670285Y-68651380D01*
X80956000Y-68651380D02*
X80956000Y-67651380D01*
X80860761Y-67794238D01*
X80765523Y-67889476D01*
X80670285Y-67937095D01*
X81670285Y-68651380D02*
X81670285Y-67651380D01*
X82241714Y-68651380D02*
X81813142Y-68079952D01*
X82241714Y-67651380D02*
X81670285Y-68222809D01*
X88638142Y-78557380D02*
X88304809Y-78081190D01*
X88066714Y-78557380D02*
X88066714Y-77557380D01*
X88447666Y-77557380D01*
X88542904Y-77605000D01*
X88590523Y-77652619D01*
X88638142Y-77747857D01*
X88638142Y-77890714D01*
X88590523Y-77985952D01*
X88542904Y-78033571D01*
X88447666Y-78081190D01*
X88066714Y-78081190D01*
X89590523Y-78557380D02*
X89019095Y-78557380D01*
X89304809Y-78557380D02*
X89304809Y-77557380D01*
X89209571Y-77700238D01*
X89114333Y-77795476D01*
X89019095Y-77843095D01*
X90542904Y-78557380D02*
X89971476Y-78557380D01*
X90257190Y-78557380D02*
X90257190Y-77557380D01*
X90161952Y-77700238D01*
X90066714Y-77795476D01*
X89971476Y-77843095D01*
X81192714Y-78430380D02*
X80621285Y-78430380D01*
X80907000Y-78430380D02*
X80907000Y-77430380D01*
X80811761Y-77573238D01*
X80716523Y-77668476D01*
X80621285Y-77716095D01*
X81621285Y-78430380D02*
X81621285Y-77430380D01*
X82192714Y-78430380D02*
X81764142Y-77858952D01*
X82192714Y-77430380D02*
X81621285Y-78001809D01*
X88638142Y-88844380D02*
X88304809Y-88368190D01*
X88066714Y-88844380D02*
X88066714Y-87844380D01*
X88447666Y-87844380D01*
X88542904Y-87892000D01*
X88590523Y-87939619D01*
X88638142Y-88034857D01*
X88638142Y-88177714D01*
X88590523Y-88272952D01*
X88542904Y-88320571D01*
X88447666Y-88368190D01*
X88066714Y-88368190D01*
X89590523Y-88844380D02*
X89019095Y-88844380D01*
X89304809Y-88844380D02*
X89304809Y-87844380D01*
X89209571Y-87987238D01*
X89114333Y-88082476D01*
X89019095Y-88130095D01*
X89971476Y-87939619D02*
X90019095Y-87892000D01*
X90114333Y-87844380D01*
X90352428Y-87844380D01*
X90447666Y-87892000D01*
X90495285Y-87939619D01*
X90542904Y-88034857D01*
X90542904Y-88130095D01*
X90495285Y-88272952D01*
X89923857Y-88844380D01*
X90542904Y-88844380D01*
X81241714Y-88844380D02*
X80670285Y-88844380D01*
X80956000Y-88844380D02*
X80956000Y-87844380D01*
X80860761Y-87987238D01*
X80765523Y-88082476D01*
X80670285Y-88130095D01*
X81670285Y-88844380D02*
X81670285Y-87844380D01*
X82241714Y-88844380D02*
X81813142Y-88272952D01*
X82241714Y-87844380D02*
X81670285Y-88415809D01*
X88511142Y-98877380D02*
X88177809Y-98401190D01*
X87939714Y-98877380D02*
X87939714Y-97877380D01*
X88320666Y-97877380D01*
X88415904Y-97925000D01*
X88463523Y-97972619D01*
X88511142Y-98067857D01*
X88511142Y-98210714D01*
X88463523Y-98305952D01*
X88415904Y-98353571D01*
X88320666Y-98401190D01*
X87939714Y-98401190D01*
X89463523Y-98877380D02*
X88892095Y-98877380D01*
X89177809Y-98877380D02*
X89177809Y-97877380D01*
X89082571Y-98020238D01*
X88987333Y-98115476D01*
X88892095Y-98163095D01*
X89796857Y-97877380D02*
X90415904Y-97877380D01*
X90082571Y-98258333D01*
X90225428Y-98258333D01*
X90320666Y-98305952D01*
X90368285Y-98353571D01*
X90415904Y-98448809D01*
X90415904Y-98686904D01*
X90368285Y-98782142D01*
X90320666Y-98829761D01*
X90225428Y-98877380D01*
X89939714Y-98877380D01*
X89844476Y-98829761D01*
X89796857Y-98782142D01*
X81192714Y-99004380D02*
X80621285Y-99004380D01*
X80907000Y-99004380D02*
X80907000Y-98004380D01*
X80811761Y-98147238D01*
X80716523Y-98242476D01*
X80621285Y-98290095D01*
X81621285Y-99004380D02*
X81621285Y-98004380D01*
X82192714Y-99004380D02*
X81764142Y-98432952D01*
X82192714Y-98004380D02*
X81621285Y-98575809D01*
X88638142Y-109037380D02*
X88304809Y-108561190D01*
X88066714Y-109037380D02*
X88066714Y-108037380D01*
X88447666Y-108037380D01*
X88542904Y-108085000D01*
X88590523Y-108132619D01*
X88638142Y-108227857D01*
X88638142Y-108370714D01*
X88590523Y-108465952D01*
X88542904Y-108513571D01*
X88447666Y-108561190D01*
X88066714Y-108561190D01*
X89590523Y-109037380D02*
X89019095Y-109037380D01*
X89304809Y-109037380D02*
X89304809Y-108037380D01*
X89209571Y-108180238D01*
X89114333Y-108275476D01*
X89019095Y-108323095D01*
X90447666Y-108370714D02*
X90447666Y-109037380D01*
X90209571Y-107989761D02*
X89971476Y-108704047D01*
X90590523Y-108704047D01*
X80938714Y-109164380D02*
X80367285Y-109164380D01*
X80653000Y-109164380D02*
X80653000Y-108164380D01*
X80557761Y-108307238D01*
X80462523Y-108402476D01*
X80367285Y-108450095D01*
X81367285Y-109164380D02*
X81367285Y-108164380D01*
X81938714Y-109164380D02*
X81510142Y-108592952D01*
X81938714Y-108164380D02*
X81367285Y-108735809D01*
X88638142Y-119197380D02*
X88304809Y-118721190D01*
X88066714Y-119197380D02*
X88066714Y-118197380D01*
X88447666Y-118197380D01*
X88542904Y-118245000D01*
X88590523Y-118292619D01*
X88638142Y-118387857D01*
X88638142Y-118530714D01*
X88590523Y-118625952D01*
X88542904Y-118673571D01*
X88447666Y-118721190D01*
X88066714Y-118721190D01*
X89590523Y-119197380D02*
X89019095Y-119197380D01*
X89304809Y-119197380D02*
X89304809Y-118197380D01*
X89209571Y-118340238D01*
X89114333Y-118435476D01*
X89019095Y-118483095D01*
X90495285Y-118197380D02*
X90019095Y-118197380D01*
X89971476Y-118673571D01*
X90019095Y-118625952D01*
X90114333Y-118578333D01*
X90352428Y-118578333D01*
X90447666Y-118625952D01*
X90495285Y-118673571D01*
X90542904Y-118768809D01*
X90542904Y-119006904D01*
X90495285Y-119102142D01*
X90447666Y-119149761D01*
X90352428Y-119197380D01*
X90114333Y-119197380D01*
X90019095Y-119149761D01*
X89971476Y-119102142D01*
X81192714Y-119324380D02*
X80621285Y-119324380D01*
X80907000Y-119324380D02*
X80907000Y-118324380D01*
X80811761Y-118467238D01*
X80716523Y-118562476D01*
X80621285Y-118610095D01*
X81621285Y-119324380D02*
X81621285Y-118324380D01*
X82192714Y-119324380D02*
X81764142Y-118752952D01*
X82192714Y-118324380D02*
X81621285Y-118895809D01*
X88638142Y-129357380D02*
X88304809Y-128881190D01*
X88066714Y-129357380D02*
X88066714Y-128357380D01*
X88447666Y-128357380D01*
X88542904Y-128405000D01*
X88590523Y-128452619D01*
X88638142Y-128547857D01*
X88638142Y-128690714D01*
X88590523Y-128785952D01*
X88542904Y-128833571D01*
X88447666Y-128881190D01*
X88066714Y-128881190D01*
X89590523Y-129357380D02*
X89019095Y-129357380D01*
X89304809Y-129357380D02*
X89304809Y-128357380D01*
X89209571Y-128500238D01*
X89114333Y-128595476D01*
X89019095Y-128643095D01*
X90447666Y-128357380D02*
X90257190Y-128357380D01*
X90161952Y-128405000D01*
X90114333Y-128452619D01*
X90019095Y-128595476D01*
X89971476Y-128785952D01*
X89971476Y-129166904D01*
X90019095Y-129262142D01*
X90066714Y-129309761D01*
X90161952Y-129357380D01*
X90352428Y-129357380D01*
X90447666Y-129309761D01*
X90495285Y-129262142D01*
X90542904Y-129166904D01*
X90542904Y-128928809D01*
X90495285Y-128833571D01*
X90447666Y-128785952D01*
X90352428Y-128738333D01*
X90161952Y-128738333D01*
X90066714Y-128785952D01*
X90019095Y-128833571D01*
X89971476Y-128928809D01*
X81192714Y-129484380D02*
X80621285Y-129484380D01*
X80907000Y-129484380D02*
X80907000Y-128484380D01*
X80811761Y-128627238D01*
X80716523Y-128722476D01*
X80621285Y-128770095D01*
X81621285Y-129484380D02*
X81621285Y-128484380D01*
X82192714Y-129484380D02*
X81764142Y-128912952D01*
X82192714Y-128484380D02*
X81621285Y-129055809D01*
X89019142Y-139898380D02*
X88685809Y-139422190D01*
X88447714Y-139898380D02*
X88447714Y-138898380D01*
X88828666Y-138898380D01*
X88923904Y-138946000D01*
X88971523Y-138993619D01*
X89019142Y-139088857D01*
X89019142Y-139231714D01*
X88971523Y-139326952D01*
X88923904Y-139374571D01*
X88828666Y-139422190D01*
X88447714Y-139422190D01*
X89971523Y-139898380D02*
X89400095Y-139898380D01*
X89685809Y-139898380D02*
X89685809Y-138898380D01*
X89590571Y-139041238D01*
X89495333Y-139136476D01*
X89400095Y-139184095D01*
X90304857Y-138898380D02*
X90971523Y-138898380D01*
X90542952Y-139898380D01*
X81573714Y-140025380D02*
X81002285Y-140025380D01*
X81288000Y-140025380D02*
X81288000Y-139025380D01*
X81192761Y-139168238D01*
X81097523Y-139263476D01*
X81002285Y-139311095D01*
X82002285Y-140025380D02*
X82002285Y-139025380D01*
X82573714Y-140025380D02*
X82145142Y-139453952D01*
X82573714Y-139025380D02*
X82002285Y-139596809D01*
X118864142Y-147264380D02*
X118530809Y-146788190D01*
X118292714Y-147264380D02*
X118292714Y-146264380D01*
X118673666Y-146264380D01*
X118768904Y-146312000D01*
X118816523Y-146359619D01*
X118864142Y-146454857D01*
X118864142Y-146597714D01*
X118816523Y-146692952D01*
X118768904Y-146740571D01*
X118673666Y-146788190D01*
X118292714Y-146788190D01*
X119816523Y-147264380D02*
X119245095Y-147264380D01*
X119530809Y-147264380D02*
X119530809Y-146264380D01*
X119435571Y-146407238D01*
X119340333Y-146502476D01*
X119245095Y-146550095D01*
X120387952Y-146692952D02*
X120292714Y-146645333D01*
X120245095Y-146597714D01*
X120197476Y-146502476D01*
X120197476Y-146454857D01*
X120245095Y-146359619D01*
X120292714Y-146312000D01*
X120387952Y-146264380D01*
X120578428Y-146264380D01*
X120673666Y-146312000D01*
X120721285Y-146359619D01*
X120768904Y-146454857D01*
X120768904Y-146502476D01*
X120721285Y-146597714D01*
X120673666Y-146645333D01*
X120578428Y-146692952D01*
X120387952Y-146692952D01*
X120292714Y-146740571D01*
X120245095Y-146788190D01*
X120197476Y-146883428D01*
X120197476Y-147073904D01*
X120245095Y-147169142D01*
X120292714Y-147216761D01*
X120387952Y-147264380D01*
X120578428Y-147264380D01*
X120673666Y-147216761D01*
X120721285Y-147169142D01*
X120768904Y-147073904D01*
X120768904Y-146883428D01*
X120721285Y-146788190D01*
X120673666Y-146740571D01*
X120578428Y-146692952D01*
X114085714Y-144724380D02*
X113514285Y-144724380D01*
X113800000Y-144724380D02*
X113800000Y-143724380D01*
X113704761Y-143867238D01*
X113609523Y-143962476D01*
X113514285Y-144010095D01*
X114514285Y-144724380D02*
X114514285Y-143724380D01*
X115085714Y-144724380D02*
X114657142Y-144152952D01*
X115085714Y-143724380D02*
X114514285Y-144295809D01*
X97353380Y-138945857D02*
X96877190Y-139279190D01*
X97353380Y-139517285D02*
X96353380Y-139517285D01*
X96353380Y-139136333D01*
X96401000Y-139041095D01*
X96448619Y-138993476D01*
X96543857Y-138945857D01*
X96686714Y-138945857D01*
X96781952Y-138993476D01*
X96829571Y-139041095D01*
X96877190Y-139136333D01*
X96877190Y-139517285D01*
X97353380Y-137993476D02*
X97353380Y-138564904D01*
X97353380Y-138279190D02*
X96353380Y-138279190D01*
X96496238Y-138374428D01*
X96591476Y-138469666D01*
X96639095Y-138564904D01*
X97353380Y-137517285D02*
X97353380Y-137326809D01*
X97305761Y-137231571D01*
X97258142Y-137183952D01*
X97115285Y-137088714D01*
X96924809Y-137041095D01*
X96543857Y-137041095D01*
X96448619Y-137088714D01*
X96401000Y-137136333D01*
X96353380Y-137231571D01*
X96353380Y-137422047D01*
X96401000Y-137517285D01*
X96448619Y-137564904D01*
X96543857Y-137612523D01*
X96781952Y-137612523D01*
X96877190Y-137564904D01*
X96924809Y-137517285D01*
X96972428Y-137422047D01*
X96972428Y-137231571D01*
X96924809Y-137136333D01*
X96877190Y-137088714D01*
X96781952Y-137041095D01*
X97226380Y-131246476D02*
X97226380Y-131817904D01*
X97226380Y-131532190D02*
X96226380Y-131532190D01*
X96369238Y-131627428D01*
X96464476Y-131722666D01*
X96512095Y-131817904D01*
X96226380Y-130627428D02*
X96226380Y-130532190D01*
X96274000Y-130436952D01*
X96321619Y-130389333D01*
X96416857Y-130341714D01*
X96607333Y-130294095D01*
X96845428Y-130294095D01*
X97035904Y-130341714D01*
X97131142Y-130389333D01*
X97178761Y-130436952D01*
X97226380Y-130532190D01*
X97226380Y-130627428D01*
X97178761Y-130722666D01*
X97131142Y-130770285D01*
X97035904Y-130817904D01*
X96845428Y-130865523D01*
X96607333Y-130865523D01*
X96416857Y-130817904D01*
X96321619Y-130770285D01*
X96274000Y-130722666D01*
X96226380Y-130627428D01*
X97226380Y-129865523D02*
X96226380Y-129865523D01*
X97226380Y-129294095D02*
X96654952Y-129722666D01*
X96226380Y-129294095D02*
X96797809Y-129865523D01*
X93543380Y-142882857D02*
X93067190Y-143216190D01*
X93543380Y-143454285D02*
X92543380Y-143454285D01*
X92543380Y-143073333D01*
X92591000Y-142978095D01*
X92638619Y-142930476D01*
X92733857Y-142882857D01*
X92876714Y-142882857D01*
X92971952Y-142930476D01*
X93019571Y-142978095D01*
X93067190Y-143073333D01*
X93067190Y-143454285D01*
X92638619Y-142501904D02*
X92591000Y-142454285D01*
X92543380Y-142359047D01*
X92543380Y-142120952D01*
X92591000Y-142025714D01*
X92638619Y-141978095D01*
X92733857Y-141930476D01*
X92829095Y-141930476D01*
X92971952Y-141978095D01*
X93543380Y-142549523D01*
X93543380Y-141930476D01*
X92543380Y-141311428D02*
X92543380Y-141216190D01*
X92591000Y-141120952D01*
X92638619Y-141073333D01*
X92733857Y-141025714D01*
X92924333Y-140978095D01*
X93162428Y-140978095D01*
X93352904Y-141025714D01*
X93448142Y-141073333D01*
X93495761Y-141120952D01*
X93543380Y-141216190D01*
X93543380Y-141311428D01*
X93495761Y-141406666D01*
X93448142Y-141454285D01*
X93352904Y-141501904D01*
X93162428Y-141549523D01*
X92924333Y-141549523D01*
X92733857Y-141501904D01*
X92638619Y-141454285D01*
X92591000Y-141406666D01*
X92543380Y-141311428D01*
X93416380Y-150074285D02*
X93416380Y-150645714D01*
X93416380Y-150360000D02*
X92416380Y-150360000D01*
X92559238Y-150455238D01*
X92654476Y-150550476D01*
X92702095Y-150645714D01*
X93416380Y-149645714D02*
X92416380Y-149645714D01*
X93416380Y-149074285D02*
X92844952Y-149502857D01*
X92416380Y-149074285D02*
X92987809Y-149645714D01*
X125054380Y-139472857D02*
X124578190Y-139806190D01*
X125054380Y-140044285D02*
X124054380Y-140044285D01*
X124054380Y-139663333D01*
X124102000Y-139568095D01*
X124149619Y-139520476D01*
X124244857Y-139472857D01*
X124387714Y-139472857D01*
X124482952Y-139520476D01*
X124530571Y-139568095D01*
X124578190Y-139663333D01*
X124578190Y-140044285D01*
X124149619Y-139091904D02*
X124102000Y-139044285D01*
X124054380Y-138949047D01*
X124054380Y-138710952D01*
X124102000Y-138615714D01*
X124149619Y-138568095D01*
X124244857Y-138520476D01*
X124340095Y-138520476D01*
X124482952Y-138568095D01*
X125054380Y-139139523D01*
X125054380Y-138520476D01*
X125054380Y-137568095D02*
X125054380Y-138139523D01*
X125054380Y-137853809D02*
X124054380Y-137853809D01*
X124197238Y-137949047D01*
X124292476Y-138044285D01*
X124340095Y-138139523D01*
X124038380Y-146664285D02*
X124038380Y-147235714D01*
X124038380Y-146950000D02*
X123038380Y-146950000D01*
X123181238Y-147045238D01*
X123276476Y-147140476D01*
X123324095Y-147235714D01*
X124038380Y-146235714D02*
X123038380Y-146235714D01*
X124038380Y-145664285D02*
X123466952Y-146092857D01*
X123038380Y-145664285D02*
X123609809Y-146235714D01*
X105918095Y-152614380D02*
X105918095Y-153423904D01*
X105965714Y-153519142D01*
X106013333Y-153566761D01*
X106108571Y-153614380D01*
X106299047Y-153614380D01*
X106394285Y-153566761D01*
X106441904Y-153519142D01*
X106489523Y-153423904D01*
X106489523Y-152614380D01*
X106918095Y-152709619D02*
X106965714Y-152662000D01*
X107060952Y-152614380D01*
X107299047Y-152614380D01*
X107394285Y-152662000D01*
X107441904Y-152709619D01*
X107489523Y-152804857D01*
X107489523Y-152900095D01*
X107441904Y-153042952D01*
X106870476Y-153614380D01*
X107489523Y-153614380D01*
X99655380Y-150836047D02*
X99655380Y-150264619D01*
X100655380Y-150550333D02*
X99655380Y-150550333D01*
X100655380Y-149455095D02*
X100655380Y-149931285D01*
X99655380Y-149931285D01*
X99655380Y-148931285D02*
X99655380Y-148836047D01*
X99703000Y-148740809D01*
X99750619Y-148693190D01*
X99845857Y-148645571D01*
X100036333Y-148597952D01*
X100274428Y-148597952D01*
X100464904Y-148645571D01*
X100560142Y-148693190D01*
X100607761Y-148740809D01*
X100655380Y-148836047D01*
X100655380Y-148931285D01*
X100607761Y-149026523D01*
X100560142Y-149074142D01*
X100464904Y-149121761D01*
X100274428Y-149169380D01*
X100036333Y-149169380D01*
X99845857Y-149121761D01*
X99750619Y-149074142D01*
X99703000Y-149026523D01*
X99655380Y-148931285D01*
X99655380Y-148264619D02*
X99655380Y-147597952D01*
X100655380Y-148026523D01*
X99750619Y-147264619D02*
X99703000Y-147217000D01*
X99655380Y-147121761D01*
X99655380Y-146883666D01*
X99703000Y-146788428D01*
X99750619Y-146740809D01*
X99845857Y-146693190D01*
X99941095Y-146693190D01*
X100083952Y-146740809D01*
X100655380Y-147312238D01*
X100655380Y-146693190D01*
X104735333Y-155932142D02*
X104687714Y-155979761D01*
X104544857Y-156027380D01*
X104449619Y-156027380D01*
X104306761Y-155979761D01*
X104211523Y-155884523D01*
X104163904Y-155789285D01*
X104116285Y-155598809D01*
X104116285Y-155455952D01*
X104163904Y-155265476D01*
X104211523Y-155170238D01*
X104306761Y-155075000D01*
X104449619Y-155027380D01*
X104544857Y-155027380D01*
X104687714Y-155075000D01*
X104735333Y-155122619D01*
X105640095Y-155027380D02*
X105163904Y-155027380D01*
X105116285Y-155503571D01*
X105163904Y-155455952D01*
X105259142Y-155408333D01*
X105497238Y-155408333D01*
X105592476Y-155455952D01*
X105640095Y-155503571D01*
X105687714Y-155598809D01*
X105687714Y-155836904D01*
X105640095Y-155932142D01*
X105592476Y-155979761D01*
X105497238Y-156027380D01*
X105259142Y-156027380D01*
X105163904Y-155979761D01*
X105116285Y-155932142D01*
X98929285Y-156046714D02*
X98493857Y-156046714D01*
X98711571Y-156046714D02*
X98711571Y-155284714D01*
X98639000Y-155393571D01*
X98566428Y-155466142D01*
X98493857Y-155502428D01*
X99401000Y-155284714D02*
X99473571Y-155284714D01*
X99546142Y-155321000D01*
X99582428Y-155357285D01*
X99618714Y-155429857D01*
X99655000Y-155575000D01*
X99655000Y-155756428D01*
X99618714Y-155901571D01*
X99582428Y-155974142D01*
X99546142Y-156010428D01*
X99473571Y-156046714D01*
X99401000Y-156046714D01*
X99328428Y-156010428D01*
X99292142Y-155974142D01*
X99255857Y-155901571D01*
X99219571Y-155756428D01*
X99219571Y-155575000D01*
X99255857Y-155429857D01*
X99292142Y-155357285D01*
X99328428Y-155321000D01*
X99401000Y-155284714D01*
X100126714Y-155284714D02*
X100199285Y-155284714D01*
X100271857Y-155321000D01*
X100308142Y-155357285D01*
X100344428Y-155429857D01*
X100380714Y-155575000D01*
X100380714Y-155756428D01*
X100344428Y-155901571D01*
X100308142Y-155974142D01*
X100271857Y-156010428D01*
X100199285Y-156046714D01*
X100126714Y-156046714D01*
X100054142Y-156010428D01*
X100017857Y-155974142D01*
X99981571Y-155901571D01*
X99945285Y-155756428D01*
X99945285Y-155575000D01*
X99981571Y-155429857D01*
X100017857Y-155357285D01*
X100054142Y-155321000D01*
X100126714Y-155284714D01*
X100707285Y-155538714D02*
X100707285Y-156046714D01*
X100707285Y-155611285D02*
X100743571Y-155575000D01*
X100816142Y-155538714D01*
X100925000Y-155538714D01*
X100997571Y-155575000D01*
X101033857Y-155647571D01*
X101033857Y-156046714D01*
X105116333Y-142089142D02*
X105068714Y-142136761D01*
X104925857Y-142184380D01*
X104830619Y-142184380D01*
X104687761Y-142136761D01*
X104592523Y-142041523D01*
X104544904Y-141946285D01*
X104497285Y-141755809D01*
X104497285Y-141612952D01*
X104544904Y-141422476D01*
X104592523Y-141327238D01*
X104687761Y-141232000D01*
X104830619Y-141184380D01*
X104925857Y-141184380D01*
X105068714Y-141232000D01*
X105116333Y-141279619D01*
X105449666Y-141184380D02*
X106116333Y-141184380D01*
X105687761Y-142184380D01*
X99210952Y-139898380D02*
X98639523Y-139898380D01*
X98925238Y-139898380D02*
X98925238Y-138898380D01*
X98830000Y-139041238D01*
X98734761Y-139136476D01*
X98639523Y-139184095D01*
X99830000Y-138898380D02*
X99925238Y-138898380D01*
X100020476Y-138946000D01*
X100068095Y-138993619D01*
X100115714Y-139088857D01*
X100163333Y-139279333D01*
X100163333Y-139517428D01*
X100115714Y-139707904D01*
X100068095Y-139803142D01*
X100020476Y-139850761D01*
X99925238Y-139898380D01*
X99830000Y-139898380D01*
X99734761Y-139850761D01*
X99687142Y-139803142D01*
X99639523Y-139707904D01*
X99591904Y-139517428D01*
X99591904Y-139279333D01*
X99639523Y-139088857D01*
X99687142Y-138993619D01*
X99734761Y-138946000D01*
X99830000Y-138898380D01*
X100782380Y-138898380D02*
X100877619Y-138898380D01*
X100972857Y-138946000D01*
X101020476Y-138993619D01*
X101068095Y-139088857D01*
X101115714Y-139279333D01*
X101115714Y-139517428D01*
X101068095Y-139707904D01*
X101020476Y-139803142D01*
X100972857Y-139850761D01*
X100877619Y-139898380D01*
X100782380Y-139898380D01*
X100687142Y-139850761D01*
X100639523Y-139803142D01*
X100591904Y-139707904D01*
X100544285Y-139517428D01*
X100544285Y-139279333D01*
X100591904Y-139088857D01*
X100639523Y-138993619D01*
X100687142Y-138946000D01*
X100782380Y-138898380D01*
X101544285Y-139231714D02*
X101544285Y-139898380D01*
X101544285Y-139326952D02*
X101591904Y-139279333D01*
X101687142Y-139231714D01*
X101830000Y-139231714D01*
X101925238Y-139279333D01*
X101972857Y-139374571D01*
X101972857Y-139898380D01*
X142714761Y-133002619D02*
X142619523Y-132955000D01*
X142524285Y-132859761D01*
X142381428Y-132716904D01*
X142286190Y-132669285D01*
X142190952Y-132669285D01*
X142238571Y-132907380D02*
X142143333Y-132859761D01*
X142048095Y-132764523D01*
X142000476Y-132574047D01*
X142000476Y-132240714D01*
X142048095Y-132050238D01*
X142143333Y-131955000D01*
X142238571Y-131907380D01*
X142429047Y-131907380D01*
X142524285Y-131955000D01*
X142619523Y-132050238D01*
X142667142Y-132240714D01*
X142667142Y-132574047D01*
X142619523Y-132764523D01*
X142524285Y-132859761D01*
X142429047Y-132907380D01*
X142238571Y-132907380D01*
X143524285Y-131907380D02*
X143333809Y-131907380D01*
X143238571Y-131955000D01*
X143190952Y-132002619D01*
X143095714Y-132145476D01*
X143048095Y-132335952D01*
X143048095Y-132716904D01*
X143095714Y-132812142D01*
X143143333Y-132859761D01*
X143238571Y-132907380D01*
X143429047Y-132907380D01*
X143524285Y-132859761D01*
X143571904Y-132812142D01*
X143619523Y-132716904D01*
X143619523Y-132478809D01*
X143571904Y-132383571D01*
X143524285Y-132335952D01*
X143429047Y-132288333D01*
X143238571Y-132288333D01*
X143143333Y-132335952D01*
X143095714Y-132383571D01*
X143048095Y-132478809D01*
X137174714Y-125017619D02*
X137222333Y-124970000D01*
X137317571Y-124922380D01*
X137555666Y-124922380D01*
X137650904Y-124970000D01*
X137698523Y-125017619D01*
X137746142Y-125112857D01*
X137746142Y-125208095D01*
X137698523Y-125350952D01*
X137127095Y-125922380D01*
X137746142Y-125922380D01*
X138174714Y-125922380D02*
X138174714Y-124922380D01*
X138746142Y-125922380D01*
X138746142Y-124922380D01*
X139127095Y-124922380D02*
X139746142Y-124922380D01*
X139412809Y-125303333D01*
X139555666Y-125303333D01*
X139650904Y-125350952D01*
X139698523Y-125398571D01*
X139746142Y-125493809D01*
X139746142Y-125731904D01*
X139698523Y-125827142D01*
X139650904Y-125874761D01*
X139555666Y-125922380D01*
X139269952Y-125922380D01*
X139174714Y-125874761D01*
X139127095Y-125827142D01*
X140222333Y-125922380D02*
X140412809Y-125922380D01*
X140508047Y-125874761D01*
X140555666Y-125827142D01*
X140650904Y-125684285D01*
X140698523Y-125493809D01*
X140698523Y-125112857D01*
X140650904Y-125017619D01*
X140603285Y-124970000D01*
X140508047Y-124922380D01*
X140317571Y-124922380D01*
X140222333Y-124970000D01*
X140174714Y-125017619D01*
X140127095Y-125112857D01*
X140127095Y-125350952D01*
X140174714Y-125446190D01*
X140222333Y-125493809D01*
X140317571Y-125541428D01*
X140508047Y-125541428D01*
X140603285Y-125493809D01*
X140650904Y-125446190D01*
X140698523Y-125350952D01*
X141317571Y-124922380D02*
X141412809Y-124922380D01*
X141508047Y-124970000D01*
X141555666Y-125017619D01*
X141603285Y-125112857D01*
X141650904Y-125303333D01*
X141650904Y-125541428D01*
X141603285Y-125731904D01*
X141555666Y-125827142D01*
X141508047Y-125874761D01*
X141412809Y-125922380D01*
X141317571Y-125922380D01*
X141222333Y-125874761D01*
X141174714Y-125827142D01*
X141127095Y-125731904D01*
X141079476Y-125541428D01*
X141079476Y-125303333D01*
X141127095Y-125112857D01*
X141174714Y-125017619D01*
X141222333Y-124970000D01*
X141317571Y-124922380D01*
X142508047Y-125255714D02*
X142508047Y-125922380D01*
X142269952Y-124874761D02*
X142031857Y-125589047D01*
X142650904Y-125589047D01*
X126491142Y-127380380D02*
X126157809Y-126904190D01*
X125919714Y-127380380D02*
X125919714Y-126380380D01*
X126300666Y-126380380D01*
X126395904Y-126428000D01*
X126443523Y-126475619D01*
X126491142Y-126570857D01*
X126491142Y-126713714D01*
X126443523Y-126808952D01*
X126395904Y-126856571D01*
X126300666Y-126904190D01*
X125919714Y-126904190D01*
X126824476Y-126380380D02*
X127443523Y-126380380D01*
X127110190Y-126761333D01*
X127253047Y-126761333D01*
X127348285Y-126808952D01*
X127395904Y-126856571D01*
X127443523Y-126951809D01*
X127443523Y-127189904D01*
X127395904Y-127285142D01*
X127348285Y-127332761D01*
X127253047Y-127380380D01*
X126967333Y-127380380D01*
X126872095Y-127332761D01*
X126824476Y-127285142D01*
X127824476Y-126475619D02*
X127872095Y-126428000D01*
X127967333Y-126380380D01*
X128205428Y-126380380D01*
X128300666Y-126428000D01*
X128348285Y-126475619D01*
X128395904Y-126570857D01*
X128395904Y-126666095D01*
X128348285Y-126808952D01*
X127776857Y-127380380D01*
X128395904Y-127380380D01*
X131618714Y-129539380D02*
X131047285Y-129539380D01*
X131333000Y-129539380D02*
X131333000Y-128539380D01*
X131237761Y-128682238D01*
X131142523Y-128777476D01*
X131047285Y-128825095D01*
X132047285Y-129539380D02*
X132047285Y-128539380D01*
X132618714Y-129539380D02*
X132190142Y-128967952D01*
X132618714Y-128539380D02*
X132047285Y-129110809D01*
X144562142Y-128222380D02*
X144228809Y-127746190D01*
X143990714Y-128222380D02*
X143990714Y-127222380D01*
X144371666Y-127222380D01*
X144466904Y-127270000D01*
X144514523Y-127317619D01*
X144562142Y-127412857D01*
X144562142Y-127555714D01*
X144514523Y-127650952D01*
X144466904Y-127698571D01*
X144371666Y-127746190D01*
X143990714Y-127746190D01*
X145419285Y-127555714D02*
X145419285Y-128222380D01*
X145181190Y-127174761D02*
X144943095Y-127889047D01*
X145562142Y-127889047D01*
X146371666Y-127555714D02*
X146371666Y-128222380D01*
X146133571Y-127174761D02*
X145895476Y-127889047D01*
X146514523Y-127889047D01*
X149086523Y-130508380D02*
X148515095Y-130508380D01*
X148800809Y-130508380D02*
X148800809Y-129508380D01*
X148705571Y-129651238D01*
X148610333Y-129746476D01*
X148515095Y-129794095D01*
X149705571Y-129508380D02*
X149800809Y-129508380D01*
X149896047Y-129556000D01*
X149943666Y-129603619D01*
X149991285Y-129698857D01*
X150038904Y-129889333D01*
X150038904Y-130127428D01*
X149991285Y-130317904D01*
X149943666Y-130413142D01*
X149896047Y-130460761D01*
X149800809Y-130508380D01*
X149705571Y-130508380D01*
X149610333Y-130460761D01*
X149562714Y-130413142D01*
X149515095Y-130317904D01*
X149467476Y-130127428D01*
X149467476Y-129889333D01*
X149515095Y-129698857D01*
X149562714Y-129603619D01*
X149610333Y-129556000D01*
X149705571Y-129508380D01*
X150467476Y-130508380D02*
X150467476Y-129508380D01*
X151038904Y-130508380D02*
X150610333Y-129936952D01*
X151038904Y-129508380D02*
X150467476Y-130079809D01*
X138369142Y-143066857D02*
X138416761Y-143114476D01*
X138464380Y-143257333D01*
X138464380Y-143352571D01*
X138416761Y-143495428D01*
X138321523Y-143590666D01*
X138226285Y-143638285D01*
X138035809Y-143685904D01*
X137892952Y-143685904D01*
X137702476Y-143638285D01*
X137607238Y-143590666D01*
X137512000Y-143495428D01*
X137464380Y-143352571D01*
X137464380Y-143257333D01*
X137512000Y-143114476D01*
X137559619Y-143066857D01*
X138464380Y-142114476D02*
X138464380Y-142685904D01*
X138464380Y-142400190D02*
X137464380Y-142400190D01*
X137607238Y-142495428D01*
X137702476Y-142590666D01*
X137750095Y-142685904D01*
X137464380Y-141781142D02*
X137464380Y-141162095D01*
X137845333Y-141495428D01*
X137845333Y-141352571D01*
X137892952Y-141257333D01*
X137940571Y-141209714D01*
X138035809Y-141162095D01*
X138273904Y-141162095D01*
X138369142Y-141209714D01*
X138416761Y-141257333D01*
X138464380Y-141352571D01*
X138464380Y-141638285D01*
X138416761Y-141733523D01*
X138369142Y-141781142D01*
X142559619Y-143638285D02*
X142512000Y-143590666D01*
X142464380Y-143495428D01*
X142464380Y-143257333D01*
X142512000Y-143162095D01*
X142559619Y-143114476D01*
X142654857Y-143066857D01*
X142750095Y-143066857D01*
X142892952Y-143114476D01*
X143464380Y-143685904D01*
X143464380Y-143066857D01*
X142559619Y-142685904D02*
X142512000Y-142638285D01*
X142464380Y-142543047D01*
X142464380Y-142304952D01*
X142512000Y-142209714D01*
X142559619Y-142162095D01*
X142654857Y-142114476D01*
X142750095Y-142114476D01*
X142892952Y-142162095D01*
X143464380Y-142733523D01*
X143464380Y-142114476D01*
X142797714Y-141685904D02*
X143464380Y-141685904D01*
X142892952Y-141685904D02*
X142845333Y-141638285D01*
X142797714Y-141543047D01*
X142797714Y-141400190D01*
X142845333Y-141304952D01*
X142940571Y-141257333D01*
X143464380Y-141257333D01*
X140869142Y-143066857D02*
X140916761Y-143114476D01*
X140964380Y-143257333D01*
X140964380Y-143352571D01*
X140916761Y-143495428D01*
X140821523Y-143590666D01*
X140726285Y-143638285D01*
X140535809Y-143685904D01*
X140392952Y-143685904D01*
X140202476Y-143638285D01*
X140107238Y-143590666D01*
X140012000Y-143495428D01*
X139964380Y-143352571D01*
X139964380Y-143257333D01*
X140012000Y-143114476D01*
X140059619Y-143066857D01*
X140964380Y-142114476D02*
X140964380Y-142685904D01*
X140964380Y-142400190D02*
X139964380Y-142400190D01*
X140107238Y-142495428D01*
X140202476Y-142590666D01*
X140250095Y-142685904D01*
X139964380Y-141781142D02*
X139964380Y-141162095D01*
X140345333Y-141495428D01*
X140345333Y-141352571D01*
X140392952Y-141257333D01*
X140440571Y-141209714D01*
X140535809Y-141162095D01*
X140773904Y-141162095D01*
X140869142Y-141209714D01*
X140916761Y-141257333D01*
X140964380Y-141352571D01*
X140964380Y-141638285D01*
X140916761Y-141733523D01*
X140869142Y-141781142D01*
X116673333Y-109164380D02*
X116340000Y-108688190D01*
X116101904Y-109164380D02*
X116101904Y-108164380D01*
X116482857Y-108164380D01*
X116578095Y-108212000D01*
X116625714Y-108259619D01*
X116673333Y-108354857D01*
X116673333Y-108497714D01*
X116625714Y-108592952D01*
X116578095Y-108640571D01*
X116482857Y-108688190D01*
X116101904Y-108688190D01*
X117578095Y-108164380D02*
X117101904Y-108164380D01*
X117054285Y-108640571D01*
X117101904Y-108592952D01*
X117197142Y-108545333D01*
X117435238Y-108545333D01*
X117530476Y-108592952D01*
X117578095Y-108640571D01*
X117625714Y-108735809D01*
X117625714Y-108973904D01*
X117578095Y-109069142D01*
X117530476Y-109116761D01*
X117435238Y-109164380D01*
X117197142Y-109164380D01*
X117101904Y-109116761D01*
X117054285Y-109069142D01*
X109181714Y-109291380D02*
X108610285Y-109291380D01*
X108896000Y-109291380D02*
X108896000Y-108291380D01*
X108800761Y-108434238D01*
X108705523Y-108529476D01*
X108610285Y-108577095D01*
X109610285Y-109291380D02*
X109610285Y-108291380D01*
X110181714Y-109291380D02*
X109753142Y-108719952D01*
X110181714Y-108291380D02*
X109610285Y-108862809D01*
G36*
X133792095Y-54942720D02*
G01*
X133894299Y-54820980D01*
X134014376Y-54746498D01*
X134088127Y-54744258D01*
X134150529Y-54810516D01*
X134251651Y-54961178D01*
X134372633Y-55167449D01*
X134409329Y-55234654D01*
X134529310Y-55462534D01*
X134593948Y-55606042D01*
X134609609Y-55691811D01*
X134582655Y-55746471D01*
X134540067Y-55781782D01*
X134401916Y-55849280D01*
X134273062Y-55863424D01*
X134198397Y-55822124D01*
X134193272Y-55797941D01*
X134246284Y-55727722D01*
X134320272Y-55695285D01*
X134434189Y-55635880D01*
X134425309Y-55551819D01*
X134405925Y-55529706D01*
X134341658Y-55538967D01*
X134288108Y-55592940D01*
X134176918Y-55664182D01*
X134107568Y-55657585D01*
X133993501Y-55566016D01*
X133875119Y-55402970D01*
X133783355Y-55218978D01*
X133754344Y-55094721D01*
X133909094Y-55094721D01*
X133957904Y-55235531D01*
X134060048Y-55382273D01*
X134137344Y-55460035D01*
X134171559Y-55439718D01*
X134182654Y-55395025D01*
X134165171Y-55267826D01*
X134100489Y-55131990D01*
X134010642Y-55031261D01*
X133939392Y-55010062D01*
X133939255Y-55010146D01*
X133909094Y-55094721D01*
X133754344Y-55094721D01*
X133749009Y-55071873D01*
X133792095Y-54942720D01*
G37*
D14*
X133792095Y-54942720D02*
X133894299Y-54820980D01*
X134014376Y-54746498D01*
X134088127Y-54744258D01*
X134150529Y-54810516D01*
X134251651Y-54961178D01*
X134372633Y-55167449D01*
X134409329Y-55234654D01*
X134529310Y-55462534D01*
X134593948Y-55606042D01*
X134609609Y-55691811D01*
X134582655Y-55746471D01*
X134540067Y-55781782D01*
X134401916Y-55849280D01*
X134273062Y-55863424D01*
X134198397Y-55822124D01*
X134193272Y-55797941D01*
X134246284Y-55727722D01*
X134320272Y-55695285D01*
X134434189Y-55635880D01*
X134425309Y-55551819D01*
X134405925Y-55529706D01*
X134341658Y-55538967D01*
X134288108Y-55592940D01*
X134176918Y-55664182D01*
X134107568Y-55657585D01*
X133993501Y-55566016D01*
X133875119Y-55402970D01*
X133783355Y-55218978D01*
X133754344Y-55094721D01*
X133909094Y-55094721D01*
X133957904Y-55235531D01*
X134060048Y-55382273D01*
X134137344Y-55460035D01*
X134171559Y-55439718D01*
X134182654Y-55395025D01*
X134165171Y-55267826D01*
X134100489Y-55131990D01*
X134010642Y-55031261D01*
X133939392Y-55010062D01*
X133939255Y-55010146D01*
X133909094Y-55094721D01*
X133754344Y-55094721D01*
X133749009Y-55071873D01*
X133792095Y-54942720D01*
G36*
X129330150Y-56983760D02*
G01*
X129420313Y-56718845D01*
X129566907Y-56457829D01*
X129781644Y-56178624D01*
X130076238Y-55859142D01*
X130344540Y-55591608D01*
X130844545Y-55108795D01*
X131324789Y-54655023D01*
X131773644Y-54240744D01*
X132179483Y-53876407D01*
X132530679Y-53572464D01*
X132815605Y-53339364D01*
X133009883Y-53196015D01*
X133382244Y-52946386D01*
X141100299Y-52946386D01*
X141472660Y-53196015D01*
X141686042Y-53354387D01*
X141976483Y-53593302D01*
X142332403Y-53902350D01*
X142742221Y-54271125D01*
X143194356Y-54689218D01*
X143677227Y-55146221D01*
X144138174Y-55591608D01*
X144497307Y-55953486D01*
X144768150Y-56259273D01*
X144962446Y-56531123D01*
X145091935Y-56791194D01*
X145168360Y-57061641D01*
X145203461Y-57364620D01*
X145209738Y-57613636D01*
X145198769Y-57963385D01*
X145155122Y-58229350D01*
X145063325Y-58453575D01*
X144907905Y-58678103D01*
X144751057Y-58860088D01*
X144549434Y-59041200D01*
X144230626Y-59268233D01*
X143795622Y-59540587D01*
X143245413Y-59857664D01*
X142580987Y-60218865D01*
X142015295Y-60514760D01*
X141660732Y-60700343D01*
X141337320Y-60874668D01*
X141065127Y-61026516D01*
X140864222Y-61144669D01*
X140754676Y-61217909D01*
X140749647Y-61222216D01*
X140653462Y-61345721D01*
X140612028Y-61516959D01*
X140606772Y-61653658D01*
X140616047Y-61823991D01*
X140656174Y-61963454D01*
X140745608Y-62112251D01*
X140902801Y-62310585D01*
X140915020Y-62325214D01*
X141214360Y-62664306D01*
X141580637Y-63050451D01*
X141981462Y-63451556D01*
X142384451Y-63835529D01*
X142757214Y-64170279D01*
X142893120Y-64285292D01*
X143104499Y-64468307D01*
X143272790Y-64629501D01*
X143377068Y-64747890D01*
X143400772Y-64794344D01*
X143356572Y-64890607D01*
X143246768Y-65018973D01*
X143210272Y-65053142D01*
X143065439Y-65220640D01*
X143027999Y-65390651D01*
X143092325Y-65600135D01*
X143118832Y-65653755D01*
X143183345Y-65840633D01*
X143198207Y-66015727D01*
X143141740Y-66155378D01*
X143011640Y-66203151D01*
X142802497Y-66159423D01*
X142575300Y-66059150D01*
X142293077Y-65940886D01*
X142086650Y-65915671D01*
X141943781Y-65985014D01*
X141852932Y-66148296D01*
X141758716Y-66357765D01*
X141646935Y-66444902D01*
X141504747Y-66412498D01*
X141320126Y-66264141D01*
X141146436Y-66108398D01*
X141013290Y-66042695D01*
X140878932Y-66060348D01*
X140701606Y-66154674D01*
X140688121Y-66162976D01*
X140544988Y-66245937D01*
X140461989Y-66262882D01*
X140392164Y-66216057D01*
X140356348Y-66178851D01*
X140291126Y-66071874D01*
X140200518Y-65873711D01*
X140097342Y-65614293D01*
X140010086Y-65370199D01*
X139910472Y-65088179D01*
X139804331Y-64814590D01*
X139683340Y-64532160D01*
X139539177Y-64223617D01*
X139363517Y-63871690D01*
X139148039Y-63459106D01*
X138884418Y-62968593D01*
X138615031Y-62475224D01*
X138401752Y-62076538D01*
X138221871Y-61720453D01*
X138083821Y-61424803D01*
X137996038Y-61207424D01*
X137968503Y-61108141D01*
X137975256Y-60782296D01*
X138098016Y-60464180D01*
X138340907Y-60145146D01*
X138502954Y-59987724D01*
X138689268Y-59834142D01*
X138957592Y-59631062D01*
X139282239Y-59396295D01*
X139637522Y-59147651D01*
X139997756Y-58902943D01*
X140337254Y-58679980D01*
X140630329Y-58496575D01*
X140777668Y-58410422D01*
X141021859Y-58227029D01*
X141141551Y-58019940D01*
X141137221Y-57788047D01*
X141094325Y-57674021D01*
X141027127Y-57565536D01*
X140922553Y-57464148D01*
X140758145Y-57353684D01*
X140511443Y-57217966D01*
X140338610Y-57129746D01*
X139964140Y-56949469D01*
X139543386Y-56760068D01*
X139103244Y-56572432D01*
X138670613Y-56397452D01*
X138272389Y-56246017D01*
X137935468Y-56129017D01*
X137694214Y-56059095D01*
X137442218Y-56014526D01*
X137189823Y-56006796D01*
X136914683Y-56040157D01*
X136594452Y-56118858D01*
X136206784Y-56247153D01*
X135729336Y-56429291D01*
X135711861Y-56436241D01*
X135125964Y-56675322D01*
X134651093Y-56882923D01*
X134276854Y-57064785D01*
X133992848Y-57226651D01*
X133788682Y-57374263D01*
X133653957Y-57513363D01*
X133597704Y-57603963D01*
X133523962Y-57786759D01*
X133515538Y-57939895D01*
X133552516Y-58095716D01*
X133593282Y-58203194D01*
X133657192Y-58300568D01*
X133762803Y-58404503D01*
X133928668Y-58531662D01*
X134173345Y-58698710D01*
X134361605Y-58822349D01*
X134846568Y-59146364D01*
X135286037Y-59455322D01*
X135665453Y-59738209D01*
X135970252Y-59984015D01*
X136185875Y-60181726D01*
X136246328Y-60247758D01*
X136432658Y-60554873D01*
X136513773Y-60892227D01*
X136481666Y-61226188D01*
X136480390Y-61230627D01*
X136427332Y-61364773D01*
X136323132Y-61588193D01*
X136178560Y-61879273D01*
X136004386Y-62216399D01*
X135811380Y-62577958D01*
X135783011Y-62630136D01*
X135494697Y-63161337D01*
X135260133Y-63599677D01*
X135070796Y-63962976D01*
X134918160Y-64269056D01*
X134793701Y-64535737D01*
X134688895Y-64780842D01*
X134595216Y-65022190D01*
X134504141Y-65277604D01*
X134472790Y-65369235D01*
X134368462Y-65657815D01*
X134265308Y-65910894D01*
X134176320Y-66098336D01*
X134121922Y-66183124D01*
X134039680Y-66260473D01*
X133969943Y-66267565D01*
X133863139Y-66201829D01*
X133816090Y-66167249D01*
X133623339Y-66055522D01*
X133459318Y-66045928D01*
X133290627Y-66142774D01*
X133177272Y-66249636D01*
X133017578Y-66399931D01*
X132902348Y-66461615D01*
X132799311Y-66447276D01*
X132745953Y-66417876D01*
X132671198Y-66322423D01*
X132614751Y-66180723D01*
X132559046Y-66051612D01*
X132454190Y-65992906D01*
X132336157Y-65976193D01*
X132077644Y-66002883D01*
X131843359Y-66091096D01*
X131585942Y-66192668D01*
X131406828Y-66194570D01*
X131305518Y-66096727D01*
X131283533Y-66007406D01*
X131303278Y-65817284D01*
X131362908Y-65676265D01*
X131453886Y-65451329D01*
X131419933Y-65238889D01*
X131272272Y-65043136D01*
X131152480Y-64910408D01*
X131086335Y-64802223D01*
X131081772Y-64780416D01*
X131127893Y-64709008D01*
X131252668Y-64578273D01*
X131435716Y-64408388D01*
X131605647Y-64261835D01*
X131825243Y-64069403D01*
X132087546Y-63825835D01*
X132376765Y-63547270D01*
X132677111Y-63249847D01*
X132972796Y-62949706D01*
X133248030Y-62662986D01*
X133487024Y-62405826D01*
X133673989Y-62194365D01*
X133793137Y-62044743D01*
X133824407Y-61993860D01*
X133862411Y-61781835D01*
X133824146Y-61531291D01*
X133719888Y-61296658D01*
X133682949Y-61244605D01*
X133588164Y-61165783D01*
X133399806Y-61042302D01*
X133137975Y-60886137D01*
X132822769Y-60709260D01*
X132474290Y-60523647D01*
X132462243Y-60517401D01*
X131766167Y-60149878D01*
X131159171Y-59814878D01*
X130646880Y-59515796D01*
X130234919Y-59256028D01*
X129928913Y-59038972D01*
X129739393Y-58873243D01*
X129526025Y-58626486D01*
X129387707Y-58398759D01*
X129309521Y-58149837D01*
X129276549Y-57839496D01*
X129272263Y-57613636D01*
X129273638Y-57576153D01*
X129559166Y-57576153D01*
X129567581Y-57810505D01*
X129596893Y-58020848D01*
X129655690Y-58214500D01*
X129752561Y-58398776D01*
X129896095Y-58580994D01*
X130094880Y-58768469D01*
X130357504Y-58968518D01*
X130692556Y-59188458D01*
X131108624Y-59435605D01*
X131614297Y-59717277D01*
X132218163Y-60040788D01*
X132828022Y-60360894D01*
X133339194Y-60627988D01*
X133748671Y-60842998D01*
X134067562Y-61012183D01*
X134306978Y-61141801D01*
X134478028Y-61238111D01*
X134591823Y-61307371D01*
X134659473Y-61355840D01*
X134692087Y-61389776D01*
X134700777Y-61415438D01*
X134700782Y-61415853D01*
X134658337Y-61500607D01*
X134538887Y-61661126D01*
X134355372Y-61883512D01*
X134120731Y-62153869D01*
X133847905Y-62458301D01*
X133549834Y-62782912D01*
X133239458Y-63113806D01*
X132929716Y-63437087D01*
X132633549Y-63738858D01*
X132363897Y-64005223D01*
X132133699Y-64222287D01*
X131955895Y-64376152D01*
X131914401Y-64408136D01*
X131766299Y-64525146D01*
X131672206Y-64614284D01*
X131654772Y-64642234D01*
X131709519Y-64642510D01*
X131857623Y-64607085D01*
X132072775Y-64542787D01*
X132203940Y-64499695D01*
X132447303Y-64420311D01*
X132640589Y-64362693D01*
X132755948Y-64334875D01*
X132775769Y-64334716D01*
X132747688Y-64388867D01*
X132654005Y-64512078D01*
X132514115Y-64679049D01*
X132494975Y-64701018D01*
X132295162Y-64937027D01*
X132104001Y-65176160D01*
X131936950Y-65397421D01*
X131809464Y-65579816D01*
X131737001Y-65702349D01*
X131728225Y-65742505D01*
X131789347Y-65722797D01*
X131921603Y-65644773D01*
X132069199Y-65544383D01*
X132287847Y-65396000D01*
X132528733Y-65245097D01*
X132766717Y-65105802D01*
X132976663Y-64992246D01*
X133133432Y-64918557D01*
X133211886Y-64898865D01*
X133214632Y-64900579D01*
X133211020Y-64971916D01*
X133168503Y-65121639D01*
X133125350Y-65241255D01*
X133045091Y-65470561D01*
X132980967Y-65692113D01*
X132963326Y-65770183D01*
X132921378Y-65989230D01*
X133287450Y-65606068D01*
X133476156Y-65417190D01*
X133649395Y-65258777D01*
X133775942Y-65159014D01*
X133796397Y-65146662D01*
X133876895Y-65109936D01*
X133919512Y-65126235D01*
X133936289Y-65219648D01*
X133939269Y-65414264D01*
X133939272Y-65432485D01*
X133944977Y-65620164D01*
X133959771Y-65736738D01*
X133975933Y-65757891D01*
X134011294Y-65685718D01*
X134076823Y-65521097D01*
X134161761Y-65291805D01*
X134219858Y-65128183D01*
X134349257Y-64773567D01*
X134486148Y-64434376D01*
X134641147Y-64088638D01*
X134824870Y-63714381D01*
X135047932Y-63289632D01*
X135320949Y-62792420D01*
X135516817Y-62443688D01*
X135772349Y-61986277D01*
X135965974Y-61621663D01*
X136101378Y-61333895D01*
X136182248Y-61107022D01*
X136212269Y-60925091D01*
X136195128Y-60772150D01*
X136134512Y-60632249D01*
X136034106Y-60489434D01*
X135982867Y-60427014D01*
X135797742Y-60242596D01*
X135517907Y-60010714D01*
X135160977Y-59743167D01*
X134744568Y-59451753D01*
X134286295Y-59148272D01*
X133803772Y-58844523D01*
X133314614Y-58552304D01*
X132836438Y-58283416D01*
X132578172Y-58146470D01*
X132377376Y-58038552D01*
X132230219Y-57951665D01*
X132164626Y-57902448D01*
X132163545Y-57899386D01*
X132218690Y-57850745D01*
X132371101Y-57753420D01*
X132604872Y-57616356D01*
X132904099Y-57448502D01*
X133252876Y-57258804D01*
X133635300Y-57056211D01*
X133971770Y-56882167D01*
X134446909Y-56650220D01*
X134965629Y-56415897D01*
X135497170Y-56191710D01*
X136010768Y-55990171D01*
X136475662Y-55823790D01*
X136861090Y-55705079D01*
X136875352Y-55701251D01*
X137290342Y-55590672D01*
X137993607Y-55823973D01*
X138739880Y-56095343D01*
X139537860Y-56427720D01*
X140347293Y-56802130D01*
X141127928Y-57199598D01*
X141839512Y-57601149D01*
X142090005Y-57755005D01*
X142334989Y-57909638D01*
X141518505Y-58357332D01*
X140936547Y-58687544D01*
X140381409Y-59023848D01*
X139866234Y-59356904D01*
X139404165Y-59677368D01*
X139008344Y-59975898D01*
X138691914Y-60243152D01*
X138468017Y-60469786D01*
X138379769Y-60588520D01*
X138314958Y-60699884D01*
X138270691Y-60802081D01*
X138251774Y-60908797D01*
X138263012Y-61033717D01*
X138309208Y-61190528D01*
X138395168Y-61392914D01*
X138525696Y-61654562D01*
X138705598Y-61989157D01*
X138939677Y-62410386D01*
X139152271Y-62788886D01*
X139356018Y-63163988D01*
X139563715Y-63569283D01*
X139766760Y-63985589D01*
X139956554Y-64393728D01*
X140124497Y-64774519D01*
X140261988Y-65108785D01*
X140360429Y-65377344D01*
X140411218Y-65561017D01*
X140416272Y-65607803D01*
X140453777Y-65717232D01*
X140479772Y-65741636D01*
X140517769Y-65708853D01*
X140539378Y-65564243D01*
X140543272Y-65425649D01*
X140546302Y-65225932D01*
X140562863Y-65128764D01*
X140604162Y-65109717D01*
X140674108Y-65140439D01*
X140777804Y-65217176D01*
X140938758Y-65359822D01*
X141127313Y-65541682D01*
X141187093Y-65602217D01*
X141363148Y-65778792D01*
X141475725Y-65874661D01*
X141528829Y-65882193D01*
X141526464Y-65793761D01*
X141472636Y-65601735D01*
X141371349Y-65298486D01*
X141361549Y-65269873D01*
X141302183Y-65079134D01*
X141270857Y-64942368D01*
X141271435Y-64897055D01*
X141339658Y-64910454D01*
X141488801Y-64980351D01*
X141694187Y-65092689D01*
X141931139Y-65233411D01*
X142174980Y-65388457D01*
X142379377Y-65528232D01*
X142556825Y-65648278D01*
X142690481Y-65726425D01*
X142751080Y-65745744D01*
X142728388Y-65685691D01*
X142641554Y-65551115D01*
X142507946Y-65364885D01*
X142344931Y-65149870D01*
X142169877Y-64928938D01*
X142000151Y-64724959D01*
X141853120Y-64560801D01*
X141843759Y-64551011D01*
X141726107Y-64418881D01*
X141667155Y-64332415D01*
X141670361Y-64312886D01*
X141751677Y-64332092D01*
X141922843Y-64383531D01*
X142153678Y-64457938D01*
X142277610Y-64499359D01*
X142517705Y-64576188D01*
X142704611Y-64627756D01*
X142812042Y-64647235D01*
X142827771Y-64642234D01*
X142780124Y-64582579D01*
X142660138Y-64478422D01*
X142569922Y-64408934D01*
X142405271Y-64272796D01*
X142185185Y-64069926D01*
X141922613Y-63814223D01*
X141630504Y-63519587D01*
X141321807Y-63199919D01*
X141009470Y-62869118D01*
X140706442Y-62541085D01*
X140425673Y-62229720D01*
X140180110Y-61948922D01*
X139982704Y-61712591D01*
X139846402Y-61534628D01*
X139784155Y-61428933D01*
X139781673Y-61415880D01*
X139787465Y-61392365D01*
X139812042Y-61363129D01*
X139866693Y-61321804D01*
X139962711Y-61262023D01*
X140111387Y-61177419D01*
X140324012Y-61061624D01*
X140611878Y-60908271D01*
X140986274Y-60710991D01*
X141458494Y-60463419D01*
X141628039Y-60374663D01*
X142325878Y-60007105D01*
X142918263Y-59688248D01*
X143413745Y-59410831D01*
X143820875Y-59167591D01*
X144148203Y-58951267D01*
X144404282Y-58754598D01*
X144597662Y-58570321D01*
X144736894Y-58391174D01*
X144830528Y-58209896D01*
X144887117Y-58019225D01*
X144915211Y-57811900D01*
X144923360Y-57580658D01*
X144923377Y-57576153D01*
X144915552Y-57343848D01*
X144884249Y-57133795D01*
X144820207Y-56932386D01*
X144714164Y-56726015D01*
X144556858Y-56501074D01*
X144339028Y-56243959D01*
X144051410Y-55941061D01*
X143684744Y-55578775D01*
X143336506Y-55244875D01*
X142976804Y-54907153D01*
X142613225Y-54573839D01*
X142266092Y-54262978D01*
X141955726Y-53992613D01*
X141702449Y-53780789D01*
X141575276Y-53680954D01*
X141019564Y-53263886D01*
X133462979Y-53263886D01*
X132901668Y-53685156D01*
X132695261Y-53849695D01*
X132418403Y-54084508D01*
X132091705Y-54371341D01*
X131735776Y-54691941D01*
X131371227Y-55028054D01*
X131144100Y-55241749D01*
X130708392Y-55659931D01*
X130359278Y-56008511D01*
X130087471Y-56301169D01*
X129883683Y-56551584D01*
X129738626Y-56773435D01*
X129643014Y-56980400D01*
X129587558Y-57186161D01*
X129562971Y-57404395D01*
X129559166Y-57576153D01*
X129273638Y-57576153D01*
X129284704Y-57274660D01*
X129330150Y-56983760D01*
G37*
X129330150Y-56983760D02*
X129420313Y-56718845D01*
X129566907Y-56457829D01*
X129781644Y-56178624D01*
X130076238Y-55859142D01*
X130344540Y-55591608D01*
X130844545Y-55108795D01*
X131324789Y-54655023D01*
X131773644Y-54240744D01*
X132179483Y-53876407D01*
X132530679Y-53572464D01*
X132815605Y-53339364D01*
X133009883Y-53196015D01*
X133382244Y-52946386D01*
X141100299Y-52946386D01*
X141472660Y-53196015D01*
X141686042Y-53354387D01*
X141976483Y-53593302D01*
X142332403Y-53902350D01*
X142742221Y-54271125D01*
X143194356Y-54689218D01*
X143677227Y-55146221D01*
X144138174Y-55591608D01*
X144497307Y-55953486D01*
X144768150Y-56259273D01*
X144962446Y-56531123D01*
X145091935Y-56791194D01*
X145168360Y-57061641D01*
X145203461Y-57364620D01*
X145209738Y-57613636D01*
X145198769Y-57963385D01*
X145155122Y-58229350D01*
X145063325Y-58453575D01*
X144907905Y-58678103D01*
X144751057Y-58860088D01*
X144549434Y-59041200D01*
X144230626Y-59268233D01*
X143795622Y-59540587D01*
X143245413Y-59857664D01*
X142580987Y-60218865D01*
X142015295Y-60514760D01*
X141660732Y-60700343D01*
X141337320Y-60874668D01*
X141065127Y-61026516D01*
X140864222Y-61144669D01*
X140754676Y-61217909D01*
X140749647Y-61222216D01*
X140653462Y-61345721D01*
X140612028Y-61516959D01*
X140606772Y-61653658D01*
X140616047Y-61823991D01*
X140656174Y-61963454D01*
X140745608Y-62112251D01*
X140902801Y-62310585D01*
X140915020Y-62325214D01*
X141214360Y-62664306D01*
X141580637Y-63050451D01*
X141981462Y-63451556D01*
X142384451Y-63835529D01*
X142757214Y-64170279D01*
X142893120Y-64285292D01*
X143104499Y-64468307D01*
X143272790Y-64629501D01*
X143377068Y-64747890D01*
X143400772Y-64794344D01*
X143356572Y-64890607D01*
X143246768Y-65018973D01*
X143210272Y-65053142D01*
X143065439Y-65220640D01*
X143027999Y-65390651D01*
X143092325Y-65600135D01*
X143118832Y-65653755D01*
X143183345Y-65840633D01*
X143198207Y-66015727D01*
X143141740Y-66155378D01*
X143011640Y-66203151D01*
X142802497Y-66159423D01*
X142575300Y-66059150D01*
X142293077Y-65940886D01*
X142086650Y-65915671D01*
X141943781Y-65985014D01*
X141852932Y-66148296D01*
X141758716Y-66357765D01*
X141646935Y-66444902D01*
X141504747Y-66412498D01*
X141320126Y-66264141D01*
X141146436Y-66108398D01*
X141013290Y-66042695D01*
X140878932Y-66060348D01*
X140701606Y-66154674D01*
X140688121Y-66162976D01*
X140544988Y-66245937D01*
X140461989Y-66262882D01*
X140392164Y-66216057D01*
X140356348Y-66178851D01*
X140291126Y-66071874D01*
X140200518Y-65873711D01*
X140097342Y-65614293D01*
X140010086Y-65370199D01*
X139910472Y-65088179D01*
X139804331Y-64814590D01*
X139683340Y-64532160D01*
X139539177Y-64223617D01*
X139363517Y-63871690D01*
X139148039Y-63459106D01*
X138884418Y-62968593D01*
X138615031Y-62475224D01*
X138401752Y-62076538D01*
X138221871Y-61720453D01*
X138083821Y-61424803D01*
X137996038Y-61207424D01*
X137968503Y-61108141D01*
X137975256Y-60782296D01*
X138098016Y-60464180D01*
X138340907Y-60145146D01*
X138502954Y-59987724D01*
X138689268Y-59834142D01*
X138957592Y-59631062D01*
X139282239Y-59396295D01*
X139637522Y-59147651D01*
X139997756Y-58902943D01*
X140337254Y-58679980D01*
X140630329Y-58496575D01*
X140777668Y-58410422D01*
X141021859Y-58227029D01*
X141141551Y-58019940D01*
X141137221Y-57788047D01*
X141094325Y-57674021D01*
X141027127Y-57565536D01*
X140922553Y-57464148D01*
X140758145Y-57353684D01*
X140511443Y-57217966D01*
X140338610Y-57129746D01*
X139964140Y-56949469D01*
X139543386Y-56760068D01*
X139103244Y-56572432D01*
X138670613Y-56397452D01*
X138272389Y-56246017D01*
X137935468Y-56129017D01*
X137694214Y-56059095D01*
X137442218Y-56014526D01*
X137189823Y-56006796D01*
X136914683Y-56040157D01*
X136594452Y-56118858D01*
X136206784Y-56247153D01*
X135729336Y-56429291D01*
X135711861Y-56436241D01*
X135125964Y-56675322D01*
X134651093Y-56882923D01*
X134276854Y-57064785D01*
X133992848Y-57226651D01*
X133788682Y-57374263D01*
X133653957Y-57513363D01*
X133597704Y-57603963D01*
X133523962Y-57786759D01*
X133515538Y-57939895D01*
X133552516Y-58095716D01*
X133593282Y-58203194D01*
X133657192Y-58300568D01*
X133762803Y-58404503D01*
X133928668Y-58531662D01*
X134173345Y-58698710D01*
X134361605Y-58822349D01*
X134846568Y-59146364D01*
X135286037Y-59455322D01*
X135665453Y-59738209D01*
X135970252Y-59984015D01*
X136185875Y-60181726D01*
X136246328Y-60247758D01*
X136432658Y-60554873D01*
X136513773Y-60892227D01*
X136481666Y-61226188D01*
X136480390Y-61230627D01*
X136427332Y-61364773D01*
X136323132Y-61588193D01*
X136178560Y-61879273D01*
X136004386Y-62216399D01*
X135811380Y-62577958D01*
X135783011Y-62630136D01*
X135494697Y-63161337D01*
X135260133Y-63599677D01*
X135070796Y-63962976D01*
X134918160Y-64269056D01*
X134793701Y-64535737D01*
X134688895Y-64780842D01*
X134595216Y-65022190D01*
X134504141Y-65277604D01*
X134472790Y-65369235D01*
X134368462Y-65657815D01*
X134265308Y-65910894D01*
X134176320Y-66098336D01*
X134121922Y-66183124D01*
X134039680Y-66260473D01*
X133969943Y-66267565D01*
X133863139Y-66201829D01*
X133816090Y-66167249D01*
X133623339Y-66055522D01*
X133459318Y-66045928D01*
X133290627Y-66142774D01*
X133177272Y-66249636D01*
X133017578Y-66399931D01*
X132902348Y-66461615D01*
X132799311Y-66447276D01*
X132745953Y-66417876D01*
X132671198Y-66322423D01*
X132614751Y-66180723D01*
X132559046Y-66051612D01*
X132454190Y-65992906D01*
X132336157Y-65976193D01*
X132077644Y-66002883D01*
X131843359Y-66091096D01*
X131585942Y-66192668D01*
X131406828Y-66194570D01*
X131305518Y-66096727D01*
X131283533Y-66007406D01*
X131303278Y-65817284D01*
X131362908Y-65676265D01*
X131453886Y-65451329D01*
X131419933Y-65238889D01*
X131272272Y-65043136D01*
X131152480Y-64910408D01*
X131086335Y-64802223D01*
X131081772Y-64780416D01*
X131127893Y-64709008D01*
X131252668Y-64578273D01*
X131435716Y-64408388D01*
X131605647Y-64261835D01*
X131825243Y-64069403D01*
X132087546Y-63825835D01*
X132376765Y-63547270D01*
X132677111Y-63249847D01*
X132972796Y-62949706D01*
X133248030Y-62662986D01*
X133487024Y-62405826D01*
X133673989Y-62194365D01*
X133793137Y-62044743D01*
X133824407Y-61993860D01*
X133862411Y-61781835D01*
X133824146Y-61531291D01*
X133719888Y-61296658D01*
X133682949Y-61244605D01*
X133588164Y-61165783D01*
X133399806Y-61042302D01*
X133137975Y-60886137D01*
X132822769Y-60709260D01*
X132474290Y-60523647D01*
X132462243Y-60517401D01*
X131766167Y-60149878D01*
X131159171Y-59814878D01*
X130646880Y-59515796D01*
X130234919Y-59256028D01*
X129928913Y-59038972D01*
X129739393Y-58873243D01*
X129526025Y-58626486D01*
X129387707Y-58398759D01*
X129309521Y-58149837D01*
X129276549Y-57839496D01*
X129272263Y-57613636D01*
X129273638Y-57576153D01*
X129559166Y-57576153D01*
X129567581Y-57810505D01*
X129596893Y-58020848D01*
X129655690Y-58214500D01*
X129752561Y-58398776D01*
X129896095Y-58580994D01*
X130094880Y-58768469D01*
X130357504Y-58968518D01*
X130692556Y-59188458D01*
X131108624Y-59435605D01*
X131614297Y-59717277D01*
X132218163Y-60040788D01*
X132828022Y-60360894D01*
X133339194Y-60627988D01*
X133748671Y-60842998D01*
X134067562Y-61012183D01*
X134306978Y-61141801D01*
X134478028Y-61238111D01*
X134591823Y-61307371D01*
X134659473Y-61355840D01*
X134692087Y-61389776D01*
X134700777Y-61415438D01*
X134700782Y-61415853D01*
X134658337Y-61500607D01*
X134538887Y-61661126D01*
X134355372Y-61883512D01*
X134120731Y-62153869D01*
X133847905Y-62458301D01*
X133549834Y-62782912D01*
X133239458Y-63113806D01*
X132929716Y-63437087D01*
X132633549Y-63738858D01*
X132363897Y-64005223D01*
X132133699Y-64222287D01*
X131955895Y-64376152D01*
X131914401Y-64408136D01*
X131766299Y-64525146D01*
X131672206Y-64614284D01*
X131654772Y-64642234D01*
X131709519Y-64642510D01*
X131857623Y-64607085D01*
X132072775Y-64542787D01*
X132203940Y-64499695D01*
X132447303Y-64420311D01*
X132640589Y-64362693D01*
X132755948Y-64334875D01*
X132775769Y-64334716D01*
X132747688Y-64388867D01*
X132654005Y-64512078D01*
X132514115Y-64679049D01*
X132494975Y-64701018D01*
X132295162Y-64937027D01*
X132104001Y-65176160D01*
X131936950Y-65397421D01*
X131809464Y-65579816D01*
X131737001Y-65702349D01*
X131728225Y-65742505D01*
X131789347Y-65722797D01*
X131921603Y-65644773D01*
X132069199Y-65544383D01*
X132287847Y-65396000D01*
X132528733Y-65245097D01*
X132766717Y-65105802D01*
X132976663Y-64992246D01*
X133133432Y-64918557D01*
X133211886Y-64898865D01*
X133214632Y-64900579D01*
X133211020Y-64971916D01*
X133168503Y-65121639D01*
X133125350Y-65241255D01*
X133045091Y-65470561D01*
X132980967Y-65692113D01*
X132963326Y-65770183D01*
X132921378Y-65989230D01*
X133287450Y-65606068D01*
X133476156Y-65417190D01*
X133649395Y-65258777D01*
X133775942Y-65159014D01*
X133796397Y-65146662D01*
X133876895Y-65109936D01*
X133919512Y-65126235D01*
X133936289Y-65219648D01*
X133939269Y-65414264D01*
X133939272Y-65432485D01*
X133944977Y-65620164D01*
X133959771Y-65736738D01*
X133975933Y-65757891D01*
X134011294Y-65685718D01*
X134076823Y-65521097D01*
X134161761Y-65291805D01*
X134219858Y-65128183D01*
X134349257Y-64773567D01*
X134486148Y-64434376D01*
X134641147Y-64088638D01*
X134824870Y-63714381D01*
X135047932Y-63289632D01*
X135320949Y-62792420D01*
X135516817Y-62443688D01*
X135772349Y-61986277D01*
X135965974Y-61621663D01*
X136101378Y-61333895D01*
X136182248Y-61107022D01*
X136212269Y-60925091D01*
X136195128Y-60772150D01*
X136134512Y-60632249D01*
X136034106Y-60489434D01*
X135982867Y-60427014D01*
X135797742Y-60242596D01*
X135517907Y-60010714D01*
X135160977Y-59743167D01*
X134744568Y-59451753D01*
X134286295Y-59148272D01*
X133803772Y-58844523D01*
X133314614Y-58552304D01*
X132836438Y-58283416D01*
X132578172Y-58146470D01*
X132377376Y-58038552D01*
X132230219Y-57951665D01*
X132164626Y-57902448D01*
X132163545Y-57899386D01*
X132218690Y-57850745D01*
X132371101Y-57753420D01*
X132604872Y-57616356D01*
X132904099Y-57448502D01*
X133252876Y-57258804D01*
X133635300Y-57056211D01*
X133971770Y-56882167D01*
X134446909Y-56650220D01*
X134965629Y-56415897D01*
X135497170Y-56191710D01*
X136010768Y-55990171D01*
X136475662Y-55823790D01*
X136861090Y-55705079D01*
X136875352Y-55701251D01*
X137290342Y-55590672D01*
X137993607Y-55823973D01*
X138739880Y-56095343D01*
X139537860Y-56427720D01*
X140347293Y-56802130D01*
X141127928Y-57199598D01*
X141839512Y-57601149D01*
X142090005Y-57755005D01*
X142334989Y-57909638D01*
X141518505Y-58357332D01*
X140936547Y-58687544D01*
X140381409Y-59023848D01*
X139866234Y-59356904D01*
X139404165Y-59677368D01*
X139008344Y-59975898D01*
X138691914Y-60243152D01*
X138468017Y-60469786D01*
X138379769Y-60588520D01*
X138314958Y-60699884D01*
X138270691Y-60802081D01*
X138251774Y-60908797D01*
X138263012Y-61033717D01*
X138309208Y-61190528D01*
X138395168Y-61392914D01*
X138525696Y-61654562D01*
X138705598Y-61989157D01*
X138939677Y-62410386D01*
X139152271Y-62788886D01*
X139356018Y-63163988D01*
X139563715Y-63569283D01*
X139766760Y-63985589D01*
X139956554Y-64393728D01*
X140124497Y-64774519D01*
X140261988Y-65108785D01*
X140360429Y-65377344D01*
X140411218Y-65561017D01*
X140416272Y-65607803D01*
X140453777Y-65717232D01*
X140479772Y-65741636D01*
X140517769Y-65708853D01*
X140539378Y-65564243D01*
X140543272Y-65425649D01*
X140546302Y-65225932D01*
X140562863Y-65128764D01*
X140604162Y-65109717D01*
X140674108Y-65140439D01*
X140777804Y-65217176D01*
X140938758Y-65359822D01*
X141127313Y-65541682D01*
X141187093Y-65602217D01*
X141363148Y-65778792D01*
X141475725Y-65874661D01*
X141528829Y-65882193D01*
X141526464Y-65793761D01*
X141472636Y-65601735D01*
X141371349Y-65298486D01*
X141361549Y-65269873D01*
X141302183Y-65079134D01*
X141270857Y-64942368D01*
X141271435Y-64897055D01*
X141339658Y-64910454D01*
X141488801Y-64980351D01*
X141694187Y-65092689D01*
X141931139Y-65233411D01*
X142174980Y-65388457D01*
X142379377Y-65528232D01*
X142556825Y-65648278D01*
X142690481Y-65726425D01*
X142751080Y-65745744D01*
X142728388Y-65685691D01*
X142641554Y-65551115D01*
X142507946Y-65364885D01*
X142344931Y-65149870D01*
X142169877Y-64928938D01*
X142000151Y-64724959D01*
X141853120Y-64560801D01*
X141843759Y-64551011D01*
X141726107Y-64418881D01*
X141667155Y-64332415D01*
X141670361Y-64312886D01*
X141751677Y-64332092D01*
X141922843Y-64383531D01*
X142153678Y-64457938D01*
X142277610Y-64499359D01*
X142517705Y-64576188D01*
X142704611Y-64627756D01*
X142812042Y-64647235D01*
X142827771Y-64642234D01*
X142780124Y-64582579D01*
X142660138Y-64478422D01*
X142569922Y-64408934D01*
X142405271Y-64272796D01*
X142185185Y-64069926D01*
X141922613Y-63814223D01*
X141630504Y-63519587D01*
X141321807Y-63199919D01*
X141009470Y-62869118D01*
X140706442Y-62541085D01*
X140425673Y-62229720D01*
X140180110Y-61948922D01*
X139982704Y-61712591D01*
X139846402Y-61534628D01*
X139784155Y-61428933D01*
X139781673Y-61415880D01*
X139787465Y-61392365D01*
X139812042Y-61363129D01*
X139866693Y-61321804D01*
X139962711Y-61262023D01*
X140111387Y-61177419D01*
X140324012Y-61061624D01*
X140611878Y-60908271D01*
X140986274Y-60710991D01*
X141458494Y-60463419D01*
X141628039Y-60374663D01*
X142325878Y-60007105D01*
X142918263Y-59688248D01*
X143413745Y-59410831D01*
X143820875Y-59167591D01*
X144148203Y-58951267D01*
X144404282Y-58754598D01*
X144597662Y-58570321D01*
X144736894Y-58391174D01*
X144830528Y-58209896D01*
X144887117Y-58019225D01*
X144915211Y-57811900D01*
X144923360Y-57580658D01*
X144923377Y-57576153D01*
X144915552Y-57343848D01*
X144884249Y-57133795D01*
X144820207Y-56932386D01*
X144714164Y-56726015D01*
X144556858Y-56501074D01*
X144339028Y-56243959D01*
X144051410Y-55941061D01*
X143684744Y-55578775D01*
X143336506Y-55244875D01*
X142976804Y-54907153D01*
X142613225Y-54573839D01*
X142266092Y-54262978D01*
X141955726Y-53992613D01*
X141702449Y-53780789D01*
X141575276Y-53680954D01*
X141019564Y-53263886D01*
X133462979Y-53263886D01*
X132901668Y-53685156D01*
X132695261Y-53849695D01*
X132418403Y-54084508D01*
X132091705Y-54371341D01*
X131735776Y-54691941D01*
X131371227Y-55028054D01*
X131144100Y-55241749D01*
X130708392Y-55659931D01*
X130359278Y-56008511D01*
X130087471Y-56301169D01*
X129883683Y-56551584D01*
X129738626Y-56773435D01*
X129643014Y-56980400D01*
X129587558Y-57186161D01*
X129562971Y-57404395D01*
X129559166Y-57576153D01*
X129273638Y-57576153D01*
X129284704Y-57274660D01*
X129330150Y-56983760D01*
G36*
X141810035Y-55754986D02*
G01*
X141840556Y-55741622D01*
X141997766Y-55727021D01*
X142131701Y-55784118D01*
X142193853Y-55891005D01*
X142194272Y-55901370D01*
X142139761Y-56039076D01*
X142006775Y-56164829D01*
X141841130Y-56240595D01*
X141776230Y-56248386D01*
X141660838Y-56279958D01*
X141643126Y-56345776D01*
X141720235Y-56402492D01*
X141787130Y-56413609D01*
X141991028Y-56430411D01*
X142105219Y-56463289D01*
X142166994Y-56527732D01*
X142191946Y-56581761D01*
X142223515Y-56634195D01*
X142238370Y-56581448D01*
X142238683Y-56413683D01*
X142237525Y-56375386D01*
X142234502Y-56175231D01*
X142252703Y-56068809D01*
X142307531Y-56022988D01*
X142409631Y-56005176D01*
X142556785Y-56013499D01*
X142639973Y-56059830D01*
X142666742Y-56186073D01*
X142627119Y-56310218D01*
X142541491Y-56374449D01*
X142528709Y-56375386D01*
X142460856Y-56331617D01*
X142466671Y-56248386D01*
X142467345Y-56147276D01*
X142434924Y-56121386D01*
X142399063Y-56174563D01*
X142412614Y-56296011D01*
X142457900Y-56523077D01*
X142453895Y-56665586D01*
X142396493Y-56757670D01*
X142353022Y-56791169D01*
X142203425Y-56841435D01*
X142114897Y-56813060D01*
X142022535Y-56721376D01*
X142003772Y-56661813D01*
X141943998Y-56592613D01*
X141774895Y-56554650D01*
X141765647Y-56553844D01*
X141607295Y-56529400D01*
X141535102Y-56468159D01*
X141508236Y-56334863D01*
X141507885Y-56331267D01*
X141536471Y-56103979D01*
X141556681Y-56065661D01*
X141749772Y-56065661D01*
X141787118Y-56119146D01*
X141874177Y-56088305D01*
X141941545Y-56024601D01*
X141990502Y-55928689D01*
X141982605Y-55888552D01*
X141911914Y-55891148D01*
X141818331Y-55955065D01*
X141754985Y-56039887D01*
X141749772Y-56065661D01*
X141556681Y-56065661D01*
X141646420Y-55895521D01*
X141810035Y-55754986D01*
G37*
X141810035Y-55754986D02*
X141840556Y-55741622D01*
X141997766Y-55727021D01*
X142131701Y-55784118D01*
X142193853Y-55891005D01*
X142194272Y-55901370D01*
X142139761Y-56039076D01*
X142006775Y-56164829D01*
X141841130Y-56240595D01*
X141776230Y-56248386D01*
X141660838Y-56279958D01*
X141643126Y-56345776D01*
X141720235Y-56402492D01*
X141787130Y-56413609D01*
X141991028Y-56430411D01*
X142105219Y-56463289D01*
X142166994Y-56527732D01*
X142191946Y-56581761D01*
X142223515Y-56634195D01*
X142238370Y-56581448D01*
X142238683Y-56413683D01*
X142237525Y-56375386D01*
X142234502Y-56175231D01*
X142252703Y-56068809D01*
X142307531Y-56022988D01*
X142409631Y-56005176D01*
X142556785Y-56013499D01*
X142639973Y-56059830D01*
X142666742Y-56186073D01*
X142627119Y-56310218D01*
X142541491Y-56374449D01*
X142528709Y-56375386D01*
X142460856Y-56331617D01*
X142466671Y-56248386D01*
X142467345Y-56147276D01*
X142434924Y-56121386D01*
X142399063Y-56174563D01*
X142412614Y-56296011D01*
X142457900Y-56523077D01*
X142453895Y-56665586D01*
X142396493Y-56757670D01*
X142353022Y-56791169D01*
X142203425Y-56841435D01*
X142114897Y-56813060D01*
X142022535Y-56721376D01*
X142003772Y-56661813D01*
X141943998Y-56592613D01*
X141774895Y-56554650D01*
X141765647Y-56553844D01*
X141607295Y-56529400D01*
X141535102Y-56468159D01*
X141508236Y-56334863D01*
X141507885Y-56331267D01*
X141536471Y-56103979D01*
X141556681Y-56065661D01*
X141749772Y-56065661D01*
X141787118Y-56119146D01*
X141874177Y-56088305D01*
X141941545Y-56024601D01*
X141990502Y-55928689D01*
X141982605Y-55888552D01*
X141911914Y-55891148D01*
X141818331Y-55955065D01*
X141754985Y-56039887D01*
X141749772Y-56065661D01*
X141556681Y-56065661D01*
X141646420Y-55895521D01*
X141810035Y-55754986D01*
G36*
X143105374Y-55918123D02*
G01*
X143121401Y-56037240D01*
X143108434Y-56083905D01*
X143035416Y-56176407D01*
X142950733Y-56156263D01*
X142928063Y-56127116D01*
X142917103Y-56026665D01*
X142957651Y-55917143D01*
X143022818Y-55867386D01*
X143105374Y-55918123D01*
G37*
X143105374Y-55918123D02*
X143121401Y-56037240D01*
X143108434Y-56083905D01*
X143035416Y-56176407D01*
X142950733Y-56156263D01*
X142928063Y-56127116D01*
X142917103Y-56026665D01*
X142957651Y-55917143D01*
X143022818Y-55867386D01*
X143105374Y-55918123D01*
G36*
X132348053Y-55385492D02*
G01*
X132351772Y-55402010D01*
X132313670Y-55476823D01*
X132246121Y-55561377D01*
X132177219Y-55667736D01*
X132196439Y-55779068D01*
X132222630Y-55831633D01*
X132297351Y-55935381D01*
X132378395Y-55936110D01*
X132420642Y-55912795D01*
X132541637Y-55871483D01*
X132591875Y-55925828D01*
X132558367Y-56058388D01*
X132546468Y-56081794D01*
X132498826Y-56240364D01*
X132535789Y-56363273D01*
X132600591Y-56532083D01*
X132570128Y-56617837D01*
X132516079Y-56629386D01*
X132447301Y-56577564D01*
X132336675Y-56438450D01*
X132202568Y-56236566D01*
X132125968Y-56108548D01*
X131985804Y-55850341D01*
X131905313Y-55667537D01*
X131889747Y-55572777D01*
X131899294Y-55563128D01*
X132004345Y-55499828D01*
X132062620Y-55448966D01*
X132167926Y-55382938D01*
X132280519Y-55358946D01*
X132348053Y-55385492D01*
G37*
X132348053Y-55385492D02*
X132351772Y-55402010D01*
X132313670Y-55476823D01*
X132246121Y-55561377D01*
X132177219Y-55667736D01*
X132196439Y-55779068D01*
X132222630Y-55831633D01*
X132297351Y-55935381D01*
X132378395Y-55936110D01*
X132420642Y-55912795D01*
X132541637Y-55871483D01*
X132591875Y-55925828D01*
X132558367Y-56058388D01*
X132546468Y-56081794D01*
X132498826Y-56240364D01*
X132535789Y-56363273D01*
X132600591Y-56532083D01*
X132570128Y-56617837D01*
X132516079Y-56629386D01*
X132447301Y-56577564D01*
X132336675Y-56438450D01*
X132202568Y-56236566D01*
X132125968Y-56108548D01*
X131985804Y-55850341D01*
X131905313Y-55667537D01*
X131889747Y-55572777D01*
X131899294Y-55563128D01*
X132004345Y-55499828D01*
X132062620Y-55448966D01*
X132167926Y-55382938D01*
X132280519Y-55358946D01*
X132348053Y-55385492D01*
G36*
X134710212Y-54321908D02*
G01*
X134817115Y-54278766D01*
X134948028Y-54323809D01*
X135040640Y-54447739D01*
X135071784Y-54631637D01*
X135033861Y-54820461D01*
X135020452Y-54848245D01*
X134983154Y-54947547D01*
X135030218Y-54977833D01*
X135048287Y-54978386D01*
X135133944Y-54930434D01*
X135145772Y-54886883D01*
X135180021Y-54781460D01*
X135251838Y-54754078D01*
X135312671Y-54817976D01*
X135300778Y-54936553D01*
X135217752Y-55066313D01*
X135102814Y-55155581D01*
X135046325Y-55168886D01*
X134957671Y-55123880D01*
X134836090Y-55011972D01*
X134802166Y-54973513D01*
X134689770Y-54789859D01*
X134640803Y-54603006D01*
X134644471Y-54533842D01*
X134778795Y-54533842D01*
X134798286Y-54666444D01*
X134837670Y-54762805D01*
X134877163Y-54744750D01*
X134905914Y-54696859D01*
X134931000Y-54566457D01*
X134899410Y-54516124D01*
X134816847Y-54474341D01*
X134778795Y-54533842D01*
X134644471Y-54533842D01*
X134649529Y-54438505D01*
X134710212Y-54321908D01*
G37*
X134710212Y-54321908D02*
X134817115Y-54278766D01*
X134948028Y-54323809D01*
X135040640Y-54447739D01*
X135071784Y-54631637D01*
X135033861Y-54820461D01*
X135020452Y-54848245D01*
X134983154Y-54947547D01*
X135030218Y-54977833D01*
X135048287Y-54978386D01*
X135133944Y-54930434D01*
X135145772Y-54886883D01*
X135180021Y-54781460D01*
X135251838Y-54754078D01*
X135312671Y-54817976D01*
X135300778Y-54936553D01*
X135217752Y-55066313D01*
X135102814Y-55155581D01*
X135046325Y-55168886D01*
X134957671Y-55123880D01*
X134836090Y-55011972D01*
X134802166Y-54973513D01*
X134689770Y-54789859D01*
X134640803Y-54603006D01*
X134644471Y-54533842D01*
X134778795Y-54533842D01*
X134798286Y-54666444D01*
X134837670Y-54762805D01*
X134877163Y-54744750D01*
X134905914Y-54696859D01*
X134931000Y-54566457D01*
X134899410Y-54516124D01*
X134816847Y-54474341D01*
X134778795Y-54533842D01*
X134644471Y-54533842D01*
X134649529Y-54438505D01*
X134710212Y-54321908D01*
G36*
X139035525Y-53731482D02*
G01*
X139145749Y-53816898D01*
X139189712Y-53975523D01*
X139181456Y-54061661D01*
X139168746Y-54207549D01*
X139216711Y-54277262D01*
X139277546Y-54299402D01*
X139375905Y-54359582D01*
X139374215Y-54465930D01*
X139323856Y-54642503D01*
X139298022Y-54732956D01*
X139282886Y-54808647D01*
X139313531Y-54816474D01*
X139411345Y-54751843D01*
X139491451Y-54691435D01*
X139659173Y-54585373D01*
X139766929Y-54564126D01*
X139783265Y-54573979D01*
X139768374Y-54645182D01*
X139661973Y-54784731D01*
X139472308Y-54982372D01*
X139395753Y-55055856D01*
X139173602Y-55257735D01*
X139025432Y-55372096D01*
X138940641Y-55406155D01*
X138912737Y-55384626D01*
X138922196Y-55267390D01*
X138973014Y-55182395D01*
X139031094Y-55063243D01*
X139083910Y-54864806D01*
X139113950Y-54676761D01*
X139134109Y-54456987D01*
X139129478Y-54335715D01*
X139096492Y-54286231D01*
X139061004Y-54279886D01*
X138942039Y-54235763D01*
X138917615Y-54131282D01*
X138958080Y-54054854D01*
X138999173Y-53981465D01*
X138934730Y-53962407D01*
X138929804Y-53962386D01*
X138817341Y-54010001D01*
X138785534Y-54143718D01*
X138836496Y-54349839D01*
X138861107Y-54408184D01*
X138927741Y-54571837D01*
X138937826Y-54677181D01*
X138892255Y-54779179D01*
X138867747Y-54817519D01*
X138726963Y-54950271D01*
X138572259Y-54971021D01*
X138428155Y-54888807D01*
X138319173Y-54712669D01*
X138287820Y-54603727D01*
X138266141Y-54462401D01*
X138289761Y-54415688D01*
X138350576Y-54429102D01*
X138455149Y-54464335D01*
X138484715Y-54470386D01*
X138504702Y-54524890D01*
X138511272Y-54629136D01*
X138533685Y-54748461D01*
X138576764Y-54787886D01*
X138660075Y-54737338D01*
X138678913Y-54605143D01*
X138630840Y-54420469D01*
X138611179Y-54375981D01*
X138547268Y-54218328D01*
X138545997Y-54103053D01*
X138605343Y-53964665D01*
X138735515Y-53800347D01*
X138888845Y-53724292D01*
X139035525Y-53731482D01*
G37*
X139035525Y-53731482D02*
X139145749Y-53816898D01*
X139189712Y-53975523D01*
X139181456Y-54061661D01*
X139168746Y-54207549D01*
X139216711Y-54277262D01*
X139277546Y-54299402D01*
X139375905Y-54359582D01*
X139374215Y-54465930D01*
X139323856Y-54642503D01*
X139298022Y-54732956D01*
X139282886Y-54808647D01*
X139313531Y-54816474D01*
X139411345Y-54751843D01*
X139491451Y-54691435D01*
X139659173Y-54585373D01*
X139766929Y-54564126D01*
X139783265Y-54573979D01*
X139768374Y-54645182D01*
X139661973Y-54784731D01*
X139472308Y-54982372D01*
X139395753Y-55055856D01*
X139173602Y-55257735D01*
X139025432Y-55372096D01*
X138940641Y-55406155D01*
X138912737Y-55384626D01*
X138922196Y-55267390D01*
X138973014Y-55182395D01*
X139031094Y-55063243D01*
X139083910Y-54864806D01*
X139113950Y-54676761D01*
X139134109Y-54456987D01*
X139129478Y-54335715D01*
X139096492Y-54286231D01*
X139061004Y-54279886D01*
X138942039Y-54235763D01*
X138917615Y-54131282D01*
X138958080Y-54054854D01*
X138999173Y-53981465D01*
X138934730Y-53962407D01*
X138929804Y-53962386D01*
X138817341Y-54010001D01*
X138785534Y-54143718D01*
X138836496Y-54349839D01*
X138861107Y-54408184D01*
X138927741Y-54571837D01*
X138937826Y-54677181D01*
X138892255Y-54779179D01*
X138867747Y-54817519D01*
X138726963Y-54950271D01*
X138572259Y-54971021D01*
X138428155Y-54888807D01*
X138319173Y-54712669D01*
X138287820Y-54603727D01*
X138266141Y-54462401D01*
X138289761Y-54415688D01*
X138350576Y-54429102D01*
X138455149Y-54464335D01*
X138484715Y-54470386D01*
X138504702Y-54524890D01*
X138511272Y-54629136D01*
X138533685Y-54748461D01*
X138576764Y-54787886D01*
X138660075Y-54737338D01*
X138678913Y-54605143D01*
X138630840Y-54420469D01*
X138611179Y-54375981D01*
X138547268Y-54218328D01*
X138545997Y-54103053D01*
X138605343Y-53964665D01*
X138735515Y-53800347D01*
X138888845Y-53724292D01*
X139035525Y-53731482D01*
G36*
X135217071Y-54068559D02*
G01*
X135274757Y-54024471D01*
X135458406Y-53893702D01*
X135621329Y-54151788D01*
X135817747Y-54488734D01*
X135930412Y-54743634D01*
X135957528Y-54912182D01*
X135950523Y-54940864D01*
X135877859Y-55006870D01*
X135757763Y-55039480D01*
X135644018Y-55033093D01*
X135590409Y-54982107D01*
X135590272Y-54978386D01*
X135643456Y-54926793D01*
X135717272Y-54914886D01*
X135825513Y-54890232D01*
X135827479Y-54806452D01*
X135788636Y-54734936D01*
X135736477Y-54687256D01*
X135696351Y-54750811D01*
X135614970Y-54841574D01*
X135496546Y-54837437D01*
X135364002Y-54755452D01*
X135240264Y-54612672D01*
X135148256Y-54426145D01*
X135121584Y-54323300D01*
X135123476Y-54264674D01*
X135296839Y-54264674D01*
X135314417Y-54378903D01*
X135370187Y-54513119D01*
X135415318Y-54581511D01*
X135510435Y-54654543D01*
X135578151Y-54632786D01*
X135590272Y-54579765D01*
X135554037Y-54463096D01*
X135469942Y-54331211D01*
X135374899Y-54235329D01*
X135328392Y-54216386D01*
X135296839Y-54264674D01*
X135123476Y-54264674D01*
X135126089Y-54183722D01*
X135217071Y-54068559D01*
G37*
X135217071Y-54068559D02*
X135274757Y-54024471D01*
X135458406Y-53893702D01*
X135621329Y-54151788D01*
X135817747Y-54488734D01*
X135930412Y-54743634D01*
X135957528Y-54912182D01*
X135950523Y-54940864D01*
X135877859Y-55006870D01*
X135757763Y-55039480D01*
X135644018Y-55033093D01*
X135590409Y-54982107D01*
X135590272Y-54978386D01*
X135643456Y-54926793D01*
X135717272Y-54914886D01*
X135825513Y-54890232D01*
X135827479Y-54806452D01*
X135788636Y-54734936D01*
X135736477Y-54687256D01*
X135696351Y-54750811D01*
X135614970Y-54841574D01*
X135496546Y-54837437D01*
X135364002Y-54755452D01*
X135240264Y-54612672D01*
X135148256Y-54426145D01*
X135121584Y-54323300D01*
X135123476Y-54264674D01*
X135296839Y-54264674D01*
X135314417Y-54378903D01*
X135370187Y-54513119D01*
X135415318Y-54581511D01*
X135510435Y-54654543D01*
X135578151Y-54632786D01*
X135590272Y-54579765D01*
X135554037Y-54463096D01*
X135469942Y-54331211D01*
X135374899Y-54235329D01*
X135328392Y-54216386D01*
X135296839Y-54264674D01*
X135123476Y-54264674D01*
X135126089Y-54183722D01*
X135217071Y-54068559D01*
G36*
X134246043Y-54249480D02*
G01*
X134256772Y-54277633D01*
X134287856Y-54356530D01*
X134370797Y-54514320D01*
X134490126Y-54722208D01*
X134542522Y-54809550D01*
X134701403Y-55080170D01*
X134792563Y-55261473D01*
X134821000Y-55368265D01*
X134791709Y-55415349D01*
X134748897Y-55421108D01*
X134685197Y-55368390D01*
X134579026Y-55228176D01*
X134447885Y-55024918D01*
X134367897Y-54888861D01*
X134210269Y-54604875D01*
X134115048Y-54412071D01*
X134077193Y-54294024D01*
X134091663Y-54234307D01*
X134153417Y-54216495D01*
X134161522Y-54216386D01*
X134246043Y-54249480D01*
G37*
X134246043Y-54249480D02*
X134256772Y-54277633D01*
X134287856Y-54356530D01*
X134370797Y-54514320D01*
X134490126Y-54722208D01*
X134542522Y-54809550D01*
X134701403Y-55080170D01*
X134792563Y-55261473D01*
X134821000Y-55368265D01*
X134791709Y-55415349D01*
X134748897Y-55421108D01*
X134685197Y-55368390D01*
X134579026Y-55228176D01*
X134447885Y-55024918D01*
X134367897Y-54888861D01*
X134210269Y-54604875D01*
X134115048Y-54412071D01*
X134077193Y-54294024D01*
X134091663Y-54234307D01*
X134153417Y-54216495D01*
X134161522Y-54216386D01*
X134246043Y-54249480D01*
G36*
X143086989Y-56467272D02*
G01*
X143209542Y-56389313D01*
X143318074Y-56411997D01*
X143325114Y-56416290D01*
X143426493Y-56528428D01*
X143454459Y-56661586D01*
X143405981Y-56768607D01*
X143349672Y-56798244D01*
X143256459Y-56865562D01*
X143256893Y-56952701D01*
X143248612Y-57105648D01*
X143160868Y-57213221D01*
X143032585Y-57258139D01*
X142902684Y-57223123D01*
X142831506Y-57141560D01*
X142770168Y-56977081D01*
X142805594Y-56894124D01*
X142861022Y-56883386D01*
X142945208Y-56934215D01*
X142956272Y-56978636D01*
X142990560Y-57063139D01*
X143019772Y-57073886D01*
X143076726Y-57022725D01*
X143083272Y-56982383D01*
X143044571Y-56874271D01*
X143019772Y-56851636D01*
X142959436Y-56750578D01*
X142968992Y-56696633D01*
X143146772Y-56696633D01*
X143167178Y-56754329D01*
X143214004Y-56703996D01*
X143234500Y-56657837D01*
X143238938Y-56592288D01*
X143209544Y-56598085D01*
X143149028Y-56679386D01*
X143146772Y-56696633D01*
X142968992Y-56696633D01*
X142984794Y-56607443D01*
X143086989Y-56467272D01*
G37*
X143086989Y-56467272D02*
X143209542Y-56389313D01*
X143318074Y-56411997D01*
X143325114Y-56416290D01*
X143426493Y-56528428D01*
X143454459Y-56661586D01*
X143405981Y-56768607D01*
X143349672Y-56798244D01*
X143256459Y-56865562D01*
X143256893Y-56952701D01*
X143248612Y-57105648D01*
X143160868Y-57213221D01*
X143032585Y-57258139D01*
X142902684Y-57223123D01*
X142831506Y-57141560D01*
X142770168Y-56977081D01*
X142805594Y-56894124D01*
X142861022Y-56883386D01*
X142945208Y-56934215D01*
X142956272Y-56978636D01*
X142990560Y-57063139D01*
X143019772Y-57073886D01*
X143076726Y-57022725D01*
X143083272Y-56982383D01*
X143044571Y-56874271D01*
X143019772Y-56851636D01*
X142959436Y-56750578D01*
X142968992Y-56696633D01*
X143146772Y-56696633D01*
X143167178Y-56754329D01*
X143214004Y-56703996D01*
X143234500Y-56657837D01*
X143238938Y-56592288D01*
X143209544Y-56598085D01*
X143149028Y-56679386D01*
X143146772Y-56696633D01*
X142968992Y-56696633D01*
X142984794Y-56607443D01*
X143086989Y-56467272D01*
G36*
X133307875Y-55149471D02*
G01*
X133396118Y-55115513D01*
X133542466Y-55144485D01*
X133680463Y-55264278D01*
X133791173Y-55439155D01*
X133855661Y-55633379D01*
X133854989Y-55811213D01*
X133811694Y-55899832D01*
X133685325Y-55985727D01*
X133538828Y-55953590D01*
X133399218Y-55841104D01*
X133256331Y-55646261D01*
X133193396Y-55446708D01*
X133203377Y-55344643D01*
X133374601Y-55344643D01*
X133378163Y-55463213D01*
X133433945Y-55610038D01*
X133466622Y-55662756D01*
X133575124Y-55779233D01*
X133653740Y-55791099D01*
X133685234Y-55696127D01*
X133685272Y-55691015D01*
X133651314Y-55559302D01*
X133571195Y-55417786D01*
X133477545Y-55316516D01*
X133427671Y-55295886D01*
X133374601Y-55344643D01*
X133203377Y-55344643D01*
X133210536Y-55271444D01*
X133307875Y-55149471D01*
G37*
X133307875Y-55149471D02*
X133396118Y-55115513D01*
X133542466Y-55144485D01*
X133680463Y-55264278D01*
X133791173Y-55439155D01*
X133855661Y-55633379D01*
X133854989Y-55811213D01*
X133811694Y-55899832D01*
X133685325Y-55985727D01*
X133538828Y-55953590D01*
X133399218Y-55841104D01*
X133256331Y-55646261D01*
X133193396Y-55446708D01*
X133203377Y-55344643D01*
X133374601Y-55344643D01*
X133378163Y-55463213D01*
X133433945Y-55610038D01*
X133466622Y-55662756D01*
X133575124Y-55779233D01*
X133653740Y-55791099D01*
X133685234Y-55696127D01*
X133685272Y-55691015D01*
X133651314Y-55559302D01*
X133571195Y-55417786D01*
X133477545Y-55316516D01*
X133427671Y-55295886D01*
X133374601Y-55344643D01*
X133203377Y-55344643D01*
X133210536Y-55271444D01*
X133307875Y-55149471D01*
G36*
X140056835Y-54707297D02*
G01*
X140068206Y-54813958D01*
X140024863Y-54897806D01*
X139980101Y-54957345D01*
X139988263Y-54976067D01*
X140069960Y-54951604D01*
X140245804Y-54881585D01*
X140277185Y-54868796D01*
X140357307Y-54892518D01*
X140395716Y-54970138D01*
X140475138Y-55078757D01*
X140600387Y-55106781D01*
X140718587Y-55053534D01*
X140766631Y-54974890D01*
X140832030Y-54879424D01*
X140904348Y-54887803D01*
X140942458Y-54986309D01*
X140940895Y-55033010D01*
X140953304Y-55140286D01*
X140988520Y-55168886D01*
X141043511Y-55220618D01*
X141051272Y-55268415D01*
X141012709Y-55338515D01*
X140932107Y-55330122D01*
X140846494Y-55331673D01*
X140767113Y-55412027D01*
X140678107Y-55579151D01*
X140599737Y-55757912D01*
X140551105Y-55892018D01*
X140543272Y-55930193D01*
X140505708Y-55990413D01*
X140430160Y-55973299D01*
X140378097Y-55905292D01*
X140384182Y-55797683D01*
X140440046Y-55633053D01*
X140471904Y-55565306D01*
X140548109Y-55387578D01*
X140552482Y-55280474D01*
X140527136Y-55241650D01*
X140446321Y-55180641D01*
X140380891Y-55200152D01*
X140307950Y-55315576D01*
X140257522Y-55422886D01*
X140169819Y-55577748D01*
X140084295Y-55667701D01*
X140057377Y-55676886D01*
X139983060Y-55632803D01*
X139997085Y-55506199D01*
X140067022Y-55359386D01*
X140145669Y-55202034D01*
X140145415Y-55143874D01*
X140066808Y-55185013D01*
X139910396Y-55325562D01*
X139908366Y-55327543D01*
X139726619Y-55482372D01*
X139611522Y-55531525D01*
X139566002Y-55479182D01*
X139592987Y-55329523D01*
X139695404Y-55086729D01*
X139713818Y-55049718D01*
X139819970Y-54855174D01*
X139911224Y-54715721D01*
X139968187Y-54660916D01*
X139968938Y-54660886D01*
X140056835Y-54707297D01*
G37*
X140056835Y-54707297D02*
X140068206Y-54813958D01*
X140024863Y-54897806D01*
X139980101Y-54957345D01*
X139988263Y-54976067D01*
X140069960Y-54951604D01*
X140245804Y-54881585D01*
X140277185Y-54868796D01*
X140357307Y-54892518D01*
X140395716Y-54970138D01*
X140475138Y-55078757D01*
X140600387Y-55106781D01*
X140718587Y-55053534D01*
X140766631Y-54974890D01*
X140832030Y-54879424D01*
X140904348Y-54887803D01*
X140942458Y-54986309D01*
X140940895Y-55033010D01*
X140953304Y-55140286D01*
X140988520Y-55168886D01*
X141043511Y-55220618D01*
X141051272Y-55268415D01*
X141012709Y-55338515D01*
X140932107Y-55330122D01*
X140846494Y-55331673D01*
X140767113Y-55412027D01*
X140678107Y-55579151D01*
X140599737Y-55757912D01*
X140551105Y-55892018D01*
X140543272Y-55930193D01*
X140505708Y-55990413D01*
X140430160Y-55973299D01*
X140378097Y-55905292D01*
X140384182Y-55797683D01*
X140440046Y-55633053D01*
X140471904Y-55565306D01*
X140548109Y-55387578D01*
X140552482Y-55280474D01*
X140527136Y-55241650D01*
X140446321Y-55180641D01*
X140380891Y-55200152D01*
X140307950Y-55315576D01*
X140257522Y-55422886D01*
X140169819Y-55577748D01*
X140084295Y-55667701D01*
X140057377Y-55676886D01*
X139983060Y-55632803D01*
X139997085Y-55506199D01*
X140067022Y-55359386D01*
X140145669Y-55202034D01*
X140145415Y-55143874D01*
X140066808Y-55185013D01*
X139910396Y-55325562D01*
X139908366Y-55327543D01*
X139726619Y-55482372D01*
X139611522Y-55531525D01*
X139566002Y-55479182D01*
X139592987Y-55329523D01*
X139695404Y-55086729D01*
X139713818Y-55049718D01*
X139819970Y-54855174D01*
X139911224Y-54715721D01*
X139968187Y-54660916D01*
X139968938Y-54660886D01*
X140056835Y-54707297D01*
G36*
X141443826Y-54952656D02*
G01*
X141428782Y-55068003D01*
X141364426Y-55190761D01*
X141268799Y-55363448D01*
X141250277Y-55447870D01*
X141307637Y-55455731D01*
X141337830Y-55445538D01*
X141463250Y-55450904D01*
X141527716Y-55486547D01*
X141589068Y-55616738D01*
X141556803Y-55819009D01*
X141432940Y-56081875D01*
X141418935Y-56105511D01*
X141302997Y-56265028D01*
X141213220Y-56307460D01*
X141149220Y-56252752D01*
X141159721Y-56169142D01*
X141228809Y-56027104D01*
X141272472Y-55958140D01*
X141395401Y-55756107D01*
X141431369Y-55641144D01*
X141398287Y-55613386D01*
X141286382Y-55659214D01*
X141143151Y-55772188D01*
X141010281Y-55915537D01*
X140947372Y-56011112D01*
X140858877Y-56135915D01*
X140787368Y-56136880D01*
X140787036Y-56136550D01*
X140790231Y-56060620D01*
X140841390Y-55903541D01*
X140926519Y-55695027D01*
X141031622Y-55464790D01*
X141142706Y-55242543D01*
X141245775Y-55057997D01*
X141326836Y-54940867D01*
X141362437Y-54914886D01*
X141443826Y-54952656D01*
G37*
X141443826Y-54952656D02*
X141428782Y-55068003D01*
X141364426Y-55190761D01*
X141268799Y-55363448D01*
X141250277Y-55447870D01*
X141307637Y-55455731D01*
X141337830Y-55445538D01*
X141463250Y-55450904D01*
X141527716Y-55486547D01*
X141589068Y-55616738D01*
X141556803Y-55819009D01*
X141432940Y-56081875D01*
X141418935Y-56105511D01*
X141302997Y-56265028D01*
X141213220Y-56307460D01*
X141149220Y-56252752D01*
X141159721Y-56169142D01*
X141228809Y-56027104D01*
X141272472Y-55958140D01*
X141395401Y-55756107D01*
X141431369Y-55641144D01*
X141398287Y-55613386D01*
X141286382Y-55659214D01*
X141143151Y-55772188D01*
X141010281Y-55915537D01*
X140947372Y-56011112D01*
X140858877Y-56135915D01*
X140787368Y-56136880D01*
X140787036Y-56136550D01*
X140790231Y-56060620D01*
X140841390Y-55903541D01*
X140926519Y-55695027D01*
X141031622Y-55464790D01*
X141142706Y-55242543D01*
X141245775Y-55057997D01*
X141326836Y-54940867D01*
X141362437Y-54914886D01*
X141443826Y-54952656D01*
G36*
X142966143Y-56224524D02*
G01*
X143005135Y-56305869D01*
X142972735Y-56366610D01*
X142911524Y-56441965D01*
X142818864Y-56594812D01*
X142741280Y-56740511D01*
X142637866Y-56939633D01*
X142572035Y-57040940D01*
X142526635Y-57061214D01*
X142484511Y-57017239D01*
X142474530Y-57001501D01*
X142477331Y-56909613D01*
X142529956Y-56750197D01*
X142614109Y-56560687D01*
X142711492Y-56378517D01*
X142803810Y-56241123D01*
X142872766Y-56185939D01*
X142873149Y-56185930D01*
X142966143Y-56224524D01*
G37*
X142966143Y-56224524D02*
X143005135Y-56305869D01*
X142972735Y-56366610D01*
X142911524Y-56441965D01*
X142818864Y-56594812D01*
X142741280Y-56740511D01*
X142637866Y-56939633D01*
X142572035Y-57040940D01*
X142526635Y-57061214D01*
X142484511Y-57017239D01*
X142474530Y-57001501D01*
X142477331Y-56909613D01*
X142529956Y-56750197D01*
X142614109Y-56560687D01*
X142711492Y-56378517D01*
X142803810Y-56241123D01*
X142872766Y-56185939D01*
X142873149Y-56185930D01*
X142966143Y-56224524D01*
G36*
X133033297Y-55308595D02*
G01*
X133044822Y-55365894D01*
X133018988Y-55496541D01*
X132980997Y-55638081D01*
X132944937Y-55815313D01*
X132968430Y-55942577D01*
X133047758Y-56068067D01*
X133133981Y-56226932D01*
X133131927Y-56336511D01*
X133047067Y-56375386D01*
X132986846Y-56324313D01*
X132890538Y-56191703D01*
X132799712Y-56042011D01*
X132677993Y-55815745D01*
X132622084Y-55676471D01*
X132628253Y-55604914D01*
X132692765Y-55581801D01*
X132710457Y-55581297D01*
X132810285Y-55528010D01*
X132866451Y-55438422D01*
X132931287Y-55328246D01*
X132984725Y-55295886D01*
X133033297Y-55308595D01*
G37*
X133033297Y-55308595D02*
X133044822Y-55365894D01*
X133018988Y-55496541D01*
X132980997Y-55638081D01*
X132944937Y-55815313D01*
X132968430Y-55942577D01*
X133047758Y-56068067D01*
X133133981Y-56226932D01*
X133131927Y-56336511D01*
X133047067Y-56375386D01*
X132986846Y-56324313D01*
X132890538Y-56191703D01*
X132799712Y-56042011D01*
X132677993Y-55815745D01*
X132622084Y-55676471D01*
X132628253Y-55604914D01*
X132692765Y-55581801D01*
X132710457Y-55581297D01*
X132810285Y-55528010D01*
X132866451Y-55438422D01*
X132931287Y-55328246D01*
X132984725Y-55295886D01*
X133033297Y-55308595D01*
D13*
X93920000Y-122869000D02*
X99120000Y-122869000D01*
X97790000Y-102429000D02*
X99120000Y-102429000D01*
D15*
X98060000Y-102489000D02*
X99060000Y-103489000D01*
D13*
X99120000Y-102429000D02*
X99120000Y-103759000D01*
X96520000Y-105029000D02*
X99120000Y-105029000D01*
D15*
X93980000Y-102489000D02*
X98060000Y-102489000D01*
X99060000Y-122809000D02*
X93980000Y-122809000D01*
D13*
X93920000Y-102429000D02*
X93920000Y-122869000D01*
D15*
X99060000Y-103489000D02*
X99060000Y-122809000D01*
X93980000Y-122809000D02*
X93980000Y-102489000D01*
D13*
X96520000Y-102429000D02*
X96520000Y-105029000D01*
X99120000Y-105029000D02*
X99120000Y-122869000D01*
X93920000Y-102429000D02*
X96520000Y-102429000D01*
X123190000Y-86554000D02*
X124520000Y-86554000D01*
X124520000Y-89154000D02*
X124520000Y-104454000D01*
D15*
X124460000Y-104394000D02*
X119380000Y-104394000D01*
D13*
X121920000Y-86554000D02*
X121920000Y-89154000D01*
D15*
X124460000Y-87614000D02*
X124460000Y-104394000D01*
D13*
X121920000Y-89154000D02*
X124520000Y-89154000D01*
D15*
X119380000Y-86614000D02*
X123460000Y-86614000D01*
D13*
X119320000Y-104454000D02*
X124520000Y-104454000D01*
D15*
X119380000Y-104394000D02*
X119380000Y-86614000D01*
D13*
X119320000Y-86554000D02*
X119320000Y-104454000D01*
D15*
X123460000Y-86614000D02*
X124460000Y-87614000D01*
D13*
X119320000Y-86554000D02*
X121920000Y-86554000D01*
X124520000Y-86554000D02*
X124520000Y-87884000D01*
X115326000Y-60568000D02*
X115326000Y-58328000D01*
D15*
X109396000Y-59448000D02*
X111206000Y-59448000D01*
D13*
X111806000Y-58328000D02*
X111806000Y-60568000D01*
X111926000Y-58328000D02*
X111926000Y-60568000D01*
D15*
X115206000Y-60448000D02*
X115206000Y-58448000D01*
D13*
X115976000Y-59448000D02*
X115326000Y-59448000D01*
D15*
X111806000Y-58448000D02*
X111806000Y-60448000D01*
X111206000Y-58448000D02*
X111206000Y-60448000D01*
X111206000Y-60448000D02*
X115206000Y-60448000D01*
X111706000Y-58448000D02*
X111706000Y-60448000D01*
D13*
X115326000Y-58328000D02*
X111086000Y-58328000D01*
D15*
X111906000Y-58448000D02*
X111906000Y-60448000D01*
X117016000Y-59448000D02*
X115206000Y-59448000D01*
D13*
X111086000Y-60568000D02*
X115326000Y-60568000D01*
X111086000Y-58328000D02*
X111086000Y-60568000D01*
X111686000Y-58328000D02*
X111686000Y-60568000D01*
D15*
X115206000Y-58448000D02*
X111206000Y-58448000D01*
D13*
X110436000Y-59448000D02*
X111086000Y-59448000D01*
D15*
X115206000Y-69624000D02*
X111206000Y-69624000D01*
X111906000Y-69624000D02*
X111906000Y-71624000D01*
D13*
X110436000Y-70624000D02*
X111086000Y-70624000D01*
D15*
X115206000Y-71624000D02*
X115206000Y-69624000D01*
D13*
X115326000Y-69504000D02*
X111086000Y-69504000D01*
X115326000Y-71744000D02*
X115326000Y-69504000D01*
D15*
X111206000Y-69624000D02*
X111206000Y-71624000D01*
X111806000Y-69624000D02*
X111806000Y-71624000D01*
D13*
X115976000Y-70624000D02*
X115326000Y-70624000D01*
D15*
X111706000Y-69624000D02*
X111706000Y-71624000D01*
X117016000Y-70624000D02*
X115206000Y-70624000D01*
D13*
X111686000Y-69504000D02*
X111686000Y-71744000D01*
X111806000Y-69504000D02*
X111806000Y-71744000D01*
D15*
X109396000Y-70624000D02*
X111206000Y-70624000D01*
D13*
X111086000Y-71744000D02*
X115326000Y-71744000D01*
D15*
X111206000Y-71624000D02*
X115206000Y-71624000D01*
D13*
X111926000Y-69504000D02*
X111926000Y-71744000D01*
X111086000Y-69504000D02*
X111086000Y-71744000D01*
D15*
X111706000Y-79784000D02*
X111706000Y-81784000D01*
D13*
X115326000Y-79664000D02*
X111086000Y-79664000D01*
X115976000Y-80784000D02*
X115326000Y-80784000D01*
D15*
X117016000Y-80784000D02*
X115206000Y-80784000D01*
X111206000Y-81784000D02*
X115206000Y-81784000D01*
X111206000Y-79784000D02*
X111206000Y-81784000D01*
D13*
X111926000Y-79664000D02*
X111926000Y-81904000D01*
D15*
X115206000Y-79784000D02*
X111206000Y-79784000D01*
D13*
X111806000Y-79664000D02*
X111806000Y-81904000D01*
X111686000Y-79664000D02*
X111686000Y-81904000D01*
X111086000Y-81904000D02*
X115326000Y-81904000D01*
D15*
X109396000Y-80784000D02*
X111206000Y-80784000D01*
D13*
X115326000Y-81904000D02*
X115326000Y-79664000D01*
D15*
X111806000Y-79784000D02*
X111806000Y-81784000D01*
D13*
X111086000Y-79664000D02*
X111086000Y-81904000D01*
D15*
X111906000Y-79784000D02*
X111906000Y-81784000D01*
X115206000Y-81784000D02*
X115206000Y-79784000D01*
D13*
X110436000Y-80784000D02*
X111086000Y-80784000D01*
X115326000Y-92064000D02*
X115326000Y-89824000D01*
D15*
X111806000Y-89944000D02*
X111806000Y-91944000D01*
X111706000Y-89944000D02*
X111706000Y-91944000D01*
X117016000Y-90944000D02*
X115206000Y-90944000D01*
X111206000Y-91944000D02*
X115206000Y-91944000D01*
D13*
X111086000Y-89824000D02*
X111086000Y-92064000D01*
D15*
X115206000Y-91944000D02*
X115206000Y-89944000D01*
X109396000Y-90944000D02*
X111206000Y-90944000D01*
D13*
X115976000Y-90944000D02*
X115326000Y-90944000D01*
D15*
X111906000Y-89944000D02*
X111906000Y-91944000D01*
D13*
X111806000Y-89824000D02*
X111806000Y-92064000D01*
D15*
X115206000Y-89944000D02*
X111206000Y-89944000D01*
D13*
X111086000Y-92064000D02*
X115326000Y-92064000D01*
X111686000Y-89824000D02*
X111686000Y-92064000D01*
D15*
X111206000Y-89944000D02*
X111206000Y-91944000D01*
D13*
X110436000Y-90944000D02*
X111086000Y-90944000D01*
X111926000Y-89824000D02*
X111926000Y-92064000D01*
X115326000Y-89824000D02*
X111086000Y-89824000D01*
D15*
X111706000Y-100104000D02*
X111706000Y-102104000D01*
D13*
X111086000Y-102224000D02*
X115326000Y-102224000D01*
D15*
X117016000Y-101104000D02*
X115206000Y-101104000D01*
X111806000Y-100104000D02*
X111806000Y-102104000D01*
X111206000Y-100104000D02*
X111206000Y-102104000D01*
D13*
X111806000Y-99984000D02*
X111806000Y-102224000D01*
D15*
X115206000Y-102104000D02*
X115206000Y-100104000D01*
X111906000Y-100104000D02*
X111906000Y-102104000D01*
D13*
X111086000Y-99984000D02*
X111086000Y-102224000D01*
X115326000Y-102224000D02*
X115326000Y-99984000D01*
D15*
X109396000Y-101104000D02*
X111206000Y-101104000D01*
D13*
X110436000Y-101104000D02*
X111086000Y-101104000D01*
X111926000Y-99984000D02*
X111926000Y-102224000D01*
D15*
X115206000Y-100104000D02*
X111206000Y-100104000D01*
D13*
X115326000Y-99984000D02*
X111086000Y-99984000D01*
X115976000Y-101104000D02*
X115326000Y-101104000D01*
X111686000Y-99984000D02*
X111686000Y-102224000D01*
D15*
X111206000Y-102104000D02*
X115206000Y-102104000D01*
D13*
X111086000Y-110144000D02*
X111086000Y-112384000D01*
X115326000Y-112384000D02*
X115326000Y-110144000D01*
D15*
X111906000Y-110264000D02*
X111906000Y-112264000D01*
D13*
X115976000Y-111264000D02*
X115326000Y-111264000D01*
D15*
X115206000Y-110264000D02*
X111206000Y-110264000D01*
X109396000Y-111264000D02*
X111206000Y-111264000D01*
D13*
X111926000Y-110144000D02*
X111926000Y-112384000D01*
D15*
X111206000Y-112264000D02*
X115206000Y-112264000D01*
X117016000Y-111264000D02*
X115206000Y-111264000D01*
X111706000Y-110264000D02*
X111706000Y-112264000D01*
D13*
X115326000Y-110144000D02*
X111086000Y-110144000D01*
X111806000Y-110144000D02*
X111806000Y-112384000D01*
D15*
X115206000Y-112264000D02*
X115206000Y-110264000D01*
X111806000Y-110264000D02*
X111806000Y-112264000D01*
X111206000Y-110264000D02*
X111206000Y-112264000D01*
D13*
X111686000Y-110144000D02*
X111686000Y-112384000D01*
X110436000Y-111264000D02*
X111086000Y-111264000D01*
X111086000Y-112384000D02*
X115326000Y-112384000D01*
X115468000Y-121424000D02*
X114818000Y-121424000D01*
X109928000Y-121424000D02*
X110578000Y-121424000D01*
D15*
X116508000Y-121424000D02*
X114698000Y-121424000D01*
D13*
X114818000Y-122544000D02*
X114818000Y-120304000D01*
D15*
X114698000Y-122424000D02*
X114698000Y-120424000D01*
D13*
X110578000Y-122544000D02*
X114818000Y-122544000D01*
D15*
X108888000Y-121424000D02*
X110698000Y-121424000D01*
X114698000Y-120424000D02*
X110698000Y-120424000D01*
X110698000Y-120424000D02*
X110698000Y-122424000D01*
D13*
X114818000Y-120304000D02*
X110578000Y-120304000D01*
X111418000Y-120304000D02*
X111418000Y-122544000D01*
D15*
X111298000Y-120424000D02*
X111298000Y-122424000D01*
X110698000Y-122424000D02*
X114698000Y-122424000D01*
X111398000Y-120424000D02*
X111398000Y-122424000D01*
D13*
X110578000Y-120304000D02*
X110578000Y-122544000D01*
X111298000Y-120304000D02*
X111298000Y-122544000D01*
D15*
X111198000Y-120424000D02*
X111198000Y-122424000D01*
D13*
X111178000Y-120304000D02*
X111178000Y-122544000D01*
D15*
X111298000Y-130584000D02*
X111298000Y-132584000D01*
D13*
X111418000Y-130464000D02*
X111418000Y-132704000D01*
D15*
X116508000Y-131584000D02*
X114698000Y-131584000D01*
X110698000Y-132584000D02*
X114698000Y-132584000D01*
D13*
X111298000Y-130464000D02*
X111298000Y-132704000D01*
D15*
X110698000Y-130584000D02*
X110698000Y-132584000D01*
X108888000Y-131584000D02*
X110698000Y-131584000D01*
D13*
X111178000Y-130464000D02*
X111178000Y-132704000D01*
X110578000Y-130464000D02*
X110578000Y-132704000D01*
D15*
X111398000Y-130584000D02*
X111398000Y-132584000D01*
D13*
X114818000Y-132704000D02*
X114818000Y-130464000D01*
D15*
X114698000Y-132584000D02*
X114698000Y-130584000D01*
D13*
X109928000Y-131584000D02*
X110578000Y-131584000D01*
D15*
X111198000Y-130584000D02*
X111198000Y-132584000D01*
D13*
X114818000Y-130464000D02*
X110578000Y-130464000D01*
D15*
X114698000Y-130584000D02*
X110698000Y-130584000D01*
D13*
X110578000Y-132704000D02*
X114818000Y-132704000D01*
X115468000Y-131584000D02*
X114818000Y-131584000D01*
D15*
X85806000Y-58956000D02*
X85806000Y-60956000D01*
X89206000Y-60956000D02*
X89206000Y-58956000D01*
X89806000Y-60956000D02*
X89806000Y-58956000D01*
X89806000Y-58956000D02*
X85806000Y-58956000D01*
D13*
X85686000Y-61076000D02*
X89926000Y-61076000D01*
X89926000Y-61076000D02*
X89926000Y-58836000D01*
D15*
X85806000Y-60956000D02*
X89806000Y-60956000D01*
X91616000Y-59956000D02*
X89806000Y-59956000D01*
D13*
X90576000Y-59956000D02*
X89926000Y-59956000D01*
X89926000Y-58836000D02*
X85686000Y-58836000D01*
X89206000Y-61076000D02*
X89206000Y-58836000D01*
D15*
X89306000Y-60956000D02*
X89306000Y-58956000D01*
D13*
X89086000Y-61076000D02*
X89086000Y-58836000D01*
X85686000Y-58836000D02*
X85686000Y-61076000D01*
X89326000Y-61076000D02*
X89326000Y-58836000D01*
D15*
X83996000Y-59956000D02*
X85806000Y-59956000D01*
X89106000Y-60956000D02*
X89106000Y-58956000D01*
D13*
X85036000Y-59956000D02*
X85686000Y-59956000D01*
X85686000Y-69504000D02*
X85686000Y-71744000D01*
D15*
X89306000Y-71624000D02*
X89306000Y-69624000D01*
X89806000Y-69624000D02*
X85806000Y-69624000D01*
D13*
X90576000Y-70624000D02*
X89926000Y-70624000D01*
X89926000Y-69504000D02*
X85686000Y-69504000D01*
X89326000Y-71744000D02*
X89326000Y-69504000D01*
D15*
X89106000Y-71624000D02*
X89106000Y-69624000D01*
D13*
X89926000Y-71744000D02*
X89926000Y-69504000D01*
D15*
X89206000Y-71624000D02*
X89206000Y-69624000D01*
D13*
X89086000Y-71744000D02*
X89086000Y-69504000D01*
X89206000Y-71744000D02*
X89206000Y-69504000D01*
X85036000Y-70624000D02*
X85686000Y-70624000D01*
D15*
X91616000Y-70624000D02*
X89806000Y-70624000D01*
D13*
X85686000Y-71744000D02*
X89926000Y-71744000D01*
D15*
X85806000Y-71624000D02*
X89806000Y-71624000D01*
X85806000Y-69624000D02*
X85806000Y-71624000D01*
X89806000Y-71624000D02*
X89806000Y-69624000D01*
X83996000Y-70624000D02*
X85806000Y-70624000D01*
X89106000Y-81784000D02*
X89106000Y-79784000D01*
X89806000Y-81784000D02*
X89806000Y-79784000D01*
X89306000Y-81784000D02*
X89306000Y-79784000D01*
X83996000Y-80784000D02*
X85806000Y-80784000D01*
D13*
X89206000Y-81904000D02*
X89206000Y-79664000D01*
D15*
X89206000Y-81784000D02*
X89206000Y-79784000D01*
D13*
X85686000Y-79664000D02*
X85686000Y-81904000D01*
X89326000Y-81904000D02*
X89326000Y-79664000D01*
D15*
X85806000Y-81784000D02*
X89806000Y-81784000D01*
D13*
X85036000Y-80784000D02*
X85686000Y-80784000D01*
D15*
X85806000Y-79784000D02*
X85806000Y-81784000D01*
D13*
X85686000Y-81904000D02*
X89926000Y-81904000D01*
D15*
X89806000Y-79784000D02*
X85806000Y-79784000D01*
X91616000Y-80784000D02*
X89806000Y-80784000D01*
D13*
X89926000Y-79664000D02*
X85686000Y-79664000D01*
X89086000Y-81904000D02*
X89086000Y-79664000D01*
X89926000Y-81904000D02*
X89926000Y-79664000D01*
X90576000Y-80784000D02*
X89926000Y-80784000D01*
D15*
X85806000Y-91944000D02*
X89806000Y-91944000D01*
D13*
X89926000Y-92064000D02*
X89926000Y-89824000D01*
X89326000Y-92064000D02*
X89326000Y-89824000D01*
D15*
X89806000Y-91944000D02*
X89806000Y-89944000D01*
X89106000Y-91944000D02*
X89106000Y-89944000D01*
D13*
X85686000Y-89824000D02*
X85686000Y-92064000D01*
X90576000Y-90944000D02*
X89926000Y-90944000D01*
X85036000Y-90944000D02*
X85686000Y-90944000D01*
D15*
X85806000Y-89944000D02*
X85806000Y-91944000D01*
X89206000Y-91944000D02*
X89206000Y-89944000D01*
D13*
X89206000Y-92064000D02*
X89206000Y-89824000D01*
X85686000Y-92064000D02*
X89926000Y-92064000D01*
X89926000Y-89824000D02*
X85686000Y-89824000D01*
D15*
X91616000Y-90944000D02*
X89806000Y-90944000D01*
X89806000Y-89944000D02*
X85806000Y-89944000D01*
D13*
X89086000Y-92064000D02*
X89086000Y-89824000D01*
D15*
X83996000Y-90944000D02*
X85806000Y-90944000D01*
X89306000Y-91944000D02*
X89306000Y-89944000D01*
D13*
X89326000Y-102224000D02*
X89326000Y-99984000D01*
D15*
X85806000Y-100104000D02*
X85806000Y-102104000D01*
D13*
X89926000Y-102224000D02*
X89926000Y-99984000D01*
D15*
X89806000Y-102104000D02*
X89806000Y-100104000D01*
D13*
X85036000Y-101104000D02*
X85686000Y-101104000D01*
D15*
X89306000Y-102104000D02*
X89306000Y-100104000D01*
X83996000Y-101104000D02*
X85806000Y-101104000D01*
X89806000Y-100104000D02*
X85806000Y-100104000D01*
X85806000Y-102104000D02*
X89806000Y-102104000D01*
D13*
X89926000Y-99984000D02*
X85686000Y-99984000D01*
X89086000Y-102224000D02*
X89086000Y-99984000D01*
X89206000Y-102224000D02*
X89206000Y-99984000D01*
X85686000Y-102224000D02*
X89926000Y-102224000D01*
D15*
X91616000Y-101104000D02*
X89806000Y-101104000D01*
X89206000Y-102104000D02*
X89206000Y-100104000D01*
D13*
X90576000Y-101104000D02*
X89926000Y-101104000D01*
X85686000Y-99984000D02*
X85686000Y-102224000D01*
D15*
X89106000Y-102104000D02*
X89106000Y-100104000D01*
D13*
X89206000Y-112384000D02*
X89206000Y-110144000D01*
D15*
X89306000Y-112264000D02*
X89306000Y-110264000D01*
X89806000Y-110264000D02*
X85806000Y-110264000D01*
X85806000Y-110264000D02*
X85806000Y-112264000D01*
X91616000Y-111264000D02*
X89806000Y-111264000D01*
D13*
X85686000Y-112384000D02*
X89926000Y-112384000D01*
X90576000Y-111264000D02*
X89926000Y-111264000D01*
D15*
X85806000Y-112264000D02*
X89806000Y-112264000D01*
X89206000Y-112264000D02*
X89206000Y-110264000D01*
D13*
X89086000Y-112384000D02*
X89086000Y-110144000D01*
X89926000Y-112384000D02*
X89926000Y-110144000D01*
X85036000Y-111264000D02*
X85686000Y-111264000D01*
X89926000Y-110144000D02*
X85686000Y-110144000D01*
D15*
X83996000Y-111264000D02*
X85806000Y-111264000D01*
X89106000Y-112264000D02*
X89106000Y-110264000D01*
D13*
X85686000Y-110144000D02*
X85686000Y-112384000D01*
D15*
X89806000Y-112264000D02*
X89806000Y-110264000D01*
D13*
X89326000Y-112384000D02*
X89326000Y-110144000D01*
D15*
X83996000Y-121424000D02*
X85806000Y-121424000D01*
X85806000Y-122424000D02*
X89806000Y-122424000D01*
D13*
X85686000Y-122544000D02*
X89926000Y-122544000D01*
X89926000Y-122544000D02*
X89926000Y-120304000D01*
D15*
X89206000Y-122424000D02*
X89206000Y-120424000D01*
X91616000Y-121424000D02*
X89806000Y-121424000D01*
X89306000Y-122424000D02*
X89306000Y-120424000D01*
X89806000Y-120424000D02*
X85806000Y-120424000D01*
D13*
X85036000Y-121424000D02*
X85686000Y-121424000D01*
X90576000Y-121424000D02*
X89926000Y-121424000D01*
X89326000Y-122544000D02*
X89326000Y-120304000D01*
D15*
X89106000Y-122424000D02*
X89106000Y-120424000D01*
D13*
X89086000Y-122544000D02*
X89086000Y-120304000D01*
X89206000Y-122544000D02*
X89206000Y-120304000D01*
D15*
X89806000Y-122424000D02*
X89806000Y-120424000D01*
D13*
X89926000Y-120304000D02*
X85686000Y-120304000D01*
D15*
X85806000Y-120424000D02*
X85806000Y-122424000D01*
D13*
X85686000Y-120304000D02*
X85686000Y-122544000D01*
D15*
X89806000Y-132584000D02*
X89806000Y-130584000D01*
D13*
X89326000Y-132704000D02*
X89326000Y-130464000D01*
X85686000Y-132704000D02*
X89926000Y-132704000D01*
X89926000Y-130464000D02*
X85686000Y-130464000D01*
D15*
X89106000Y-132584000D02*
X89106000Y-130584000D01*
X89806000Y-130584000D02*
X85806000Y-130584000D01*
X83996000Y-131584000D02*
X85806000Y-131584000D01*
X85806000Y-132584000D02*
X89806000Y-132584000D01*
D13*
X90576000Y-131584000D02*
X89926000Y-131584000D01*
X89086000Y-132704000D02*
X89086000Y-130464000D01*
D15*
X85806000Y-130584000D02*
X85806000Y-132584000D01*
X91616000Y-131584000D02*
X89806000Y-131584000D01*
D13*
X85686000Y-130464000D02*
X85686000Y-132704000D01*
X85036000Y-131584000D02*
X85686000Y-131584000D01*
D15*
X89206000Y-132584000D02*
X89206000Y-130584000D01*
D13*
X89926000Y-132704000D02*
X89926000Y-130464000D01*
X89206000Y-132704000D02*
X89206000Y-130464000D01*
D15*
X89306000Y-132584000D02*
X89306000Y-130584000D01*
X104316000Y-68084000D02*
X106246000Y-68084000D01*
X106246000Y-66834000D02*
X106246000Y-69334000D01*
X106246000Y-69334000D02*
X112546000Y-69334000D01*
D13*
X105356000Y-68084000D02*
X106126000Y-68084000D01*
X106126000Y-69454000D02*
X112666000Y-69454000D01*
X106126000Y-66714000D02*
X106126000Y-69454000D01*
X113436000Y-68084000D02*
X112666000Y-68084000D01*
D15*
X112546000Y-69334000D02*
X112546000Y-66834000D01*
D13*
X112666000Y-66714000D02*
X106126000Y-66714000D01*
X112666000Y-69454000D02*
X112666000Y-66714000D01*
D15*
X112546000Y-66834000D02*
X106246000Y-66834000D01*
X114476000Y-68084000D02*
X112546000Y-68084000D01*
D13*
X106126000Y-76874000D02*
X106126000Y-79614000D01*
X105356000Y-78244000D02*
X106126000Y-78244000D01*
D15*
X106246000Y-76994000D02*
X106246000Y-79494000D01*
X112546000Y-79494000D02*
X112546000Y-76994000D01*
X104316000Y-78244000D02*
X106246000Y-78244000D01*
D13*
X113436000Y-78244000D02*
X112666000Y-78244000D01*
X112666000Y-76874000D02*
X106126000Y-76874000D01*
X106126000Y-79614000D02*
X112666000Y-79614000D01*
D15*
X114476000Y-78244000D02*
X112546000Y-78244000D01*
D13*
X112666000Y-79614000D02*
X112666000Y-76874000D01*
D15*
X106246000Y-79494000D02*
X112546000Y-79494000D01*
X112546000Y-76994000D02*
X106246000Y-76994000D01*
D13*
X105356000Y-88404000D02*
X106126000Y-88404000D01*
X113436000Y-88404000D02*
X112666000Y-88404000D01*
D15*
X112546000Y-89654000D02*
X112546000Y-87154000D01*
X106246000Y-87154000D02*
X106246000Y-89654000D01*
X104316000Y-88404000D02*
X106246000Y-88404000D01*
D13*
X112666000Y-89774000D02*
X112666000Y-87034000D01*
D15*
X112546000Y-87154000D02*
X106246000Y-87154000D01*
X106246000Y-89654000D02*
X112546000Y-89654000D01*
X114476000Y-88404000D02*
X112546000Y-88404000D01*
D13*
X112666000Y-87034000D02*
X106126000Y-87034000D01*
X106126000Y-87034000D02*
X106126000Y-89774000D01*
X106126000Y-89774000D02*
X112666000Y-89774000D01*
D15*
X114476000Y-98564000D02*
X112546000Y-98564000D01*
D13*
X112666000Y-99934000D02*
X112666000Y-97194000D01*
X113436000Y-98564000D02*
X112666000Y-98564000D01*
X105356000Y-98564000D02*
X106126000Y-98564000D01*
D15*
X104316000Y-98564000D02*
X106246000Y-98564000D01*
D13*
X112666000Y-97194000D02*
X106126000Y-97194000D01*
D15*
X106246000Y-99814000D02*
X112546000Y-99814000D01*
D13*
X106126000Y-99934000D02*
X112666000Y-99934000D01*
X106126000Y-97194000D02*
X106126000Y-99934000D01*
D15*
X112546000Y-99814000D02*
X112546000Y-97314000D01*
X112546000Y-97314000D02*
X106246000Y-97314000D01*
X106246000Y-97314000D02*
X106246000Y-99814000D01*
X112038000Y-117634000D02*
X105738000Y-117634000D01*
D13*
X105618000Y-117514000D02*
X105618000Y-120254000D01*
X112158000Y-120254000D02*
X112158000Y-117514000D01*
X112158000Y-117514000D02*
X105618000Y-117514000D01*
D15*
X105738000Y-120134000D02*
X112038000Y-120134000D01*
D13*
X104848000Y-118884000D02*
X105618000Y-118884000D01*
D15*
X103808000Y-118884000D02*
X105738000Y-118884000D01*
X113968000Y-118884000D02*
X112038000Y-118884000D01*
D13*
X105618000Y-120254000D02*
X112158000Y-120254000D01*
D15*
X105738000Y-117634000D02*
X105738000Y-120134000D01*
D13*
X112928000Y-118884000D02*
X112158000Y-118884000D01*
D15*
X112038000Y-120134000D02*
X112038000Y-117634000D01*
X112038000Y-130294000D02*
X112038000Y-127794000D01*
D13*
X112158000Y-130414000D02*
X112158000Y-127674000D01*
D15*
X112038000Y-127794000D02*
X105738000Y-127794000D01*
D13*
X112928000Y-129044000D02*
X112158000Y-129044000D01*
X105618000Y-130414000D02*
X112158000Y-130414000D01*
D15*
X105738000Y-127794000D02*
X105738000Y-130294000D01*
X103808000Y-129044000D02*
X105738000Y-129044000D01*
X113968000Y-129044000D02*
X112038000Y-129044000D01*
D13*
X112158000Y-127674000D02*
X105618000Y-127674000D01*
X104848000Y-129044000D02*
X105618000Y-129044000D01*
D15*
X105738000Y-130294000D02*
X112038000Y-130294000D01*
D13*
X105618000Y-127674000D02*
X105618000Y-130414000D01*
D15*
X111404000Y-137053000D02*
X111404000Y-139553000D01*
D13*
X110514000Y-138303000D02*
X111284000Y-138303000D01*
X117824000Y-139673000D02*
X117824000Y-136933000D01*
D15*
X117704000Y-139553000D02*
X117704000Y-137053000D01*
D13*
X117824000Y-136933000D02*
X111284000Y-136933000D01*
D15*
X119634000Y-138303000D02*
X117704000Y-138303000D01*
X109474000Y-138303000D02*
X111404000Y-138303000D01*
D13*
X111284000Y-139673000D02*
X117824000Y-139673000D01*
D15*
X117704000Y-137053000D02*
X111404000Y-137053000D01*
D13*
X118594000Y-138303000D02*
X117824000Y-138303000D01*
X111284000Y-136933000D02*
X111284000Y-139673000D01*
D15*
X111404000Y-139553000D02*
X117704000Y-139553000D01*
X117704000Y-142601000D02*
X117704000Y-140101000D01*
D13*
X118594000Y-141351000D02*
X117824000Y-141351000D01*
D15*
X111404000Y-140101000D02*
X111404000Y-142601000D01*
X117704000Y-140101000D02*
X111404000Y-140101000D01*
D13*
X111284000Y-142721000D02*
X117824000Y-142721000D01*
X111284000Y-139981000D02*
X111284000Y-142721000D01*
D15*
X111404000Y-142601000D02*
X117704000Y-142601000D01*
X109474000Y-141351000D02*
X111404000Y-141351000D01*
D13*
X117824000Y-139981000D02*
X111284000Y-139981000D01*
D15*
X119634000Y-141351000D02*
X117704000Y-141351000D01*
D13*
X117824000Y-142721000D02*
X117824000Y-139981000D01*
X110514000Y-141351000D02*
X111284000Y-141351000D01*
X85496000Y-68084000D02*
X84726000Y-68084000D01*
D15*
X86536000Y-68084000D02*
X84606000Y-68084000D01*
D13*
X77416000Y-68084000D02*
X78186000Y-68084000D01*
X78186000Y-66714000D02*
X78186000Y-69454000D01*
X84726000Y-69454000D02*
X84726000Y-66714000D01*
D15*
X84606000Y-69334000D02*
X84606000Y-66834000D01*
X78306000Y-69334000D02*
X84606000Y-69334000D01*
D13*
X78186000Y-69454000D02*
X84726000Y-69454000D01*
D15*
X84606000Y-66834000D02*
X78306000Y-66834000D01*
X76376000Y-68084000D02*
X78306000Y-68084000D01*
X78306000Y-66834000D02*
X78306000Y-69334000D01*
D13*
X84726000Y-66714000D02*
X78186000Y-66714000D01*
D15*
X78306000Y-79494000D02*
X84606000Y-79494000D01*
D13*
X77416000Y-78244000D02*
X78186000Y-78244000D01*
X84726000Y-79614000D02*
X84726000Y-76874000D01*
X84726000Y-76874000D02*
X78186000Y-76874000D01*
D15*
X76376000Y-78244000D02*
X78306000Y-78244000D01*
D13*
X78186000Y-79614000D02*
X84726000Y-79614000D01*
X78186000Y-76874000D02*
X78186000Y-79614000D01*
D15*
X78306000Y-76994000D02*
X78306000Y-79494000D01*
X84606000Y-76994000D02*
X78306000Y-76994000D01*
X84606000Y-79494000D02*
X84606000Y-76994000D01*
D13*
X85496000Y-78244000D02*
X84726000Y-78244000D01*
D15*
X86536000Y-78244000D02*
X84606000Y-78244000D01*
X78306000Y-87154000D02*
X78306000Y-89654000D01*
D13*
X78186000Y-87034000D02*
X78186000Y-89774000D01*
D15*
X86536000Y-88404000D02*
X84606000Y-88404000D01*
D13*
X85496000Y-88404000D02*
X84726000Y-88404000D01*
X84726000Y-87034000D02*
X78186000Y-87034000D01*
D15*
X84606000Y-89654000D02*
X84606000Y-87154000D01*
X84606000Y-87154000D02*
X78306000Y-87154000D01*
D13*
X77416000Y-88404000D02*
X78186000Y-88404000D01*
D15*
X76376000Y-88404000D02*
X78306000Y-88404000D01*
D13*
X84726000Y-89774000D02*
X84726000Y-87034000D01*
X78186000Y-89774000D02*
X84726000Y-89774000D01*
D15*
X78306000Y-89654000D02*
X84606000Y-89654000D01*
D13*
X78186000Y-99934000D02*
X84726000Y-99934000D01*
D15*
X86536000Y-98564000D02*
X84606000Y-98564000D01*
D13*
X78186000Y-97194000D02*
X78186000Y-99934000D01*
D15*
X76376000Y-98564000D02*
X78306000Y-98564000D01*
D13*
X84726000Y-97194000D02*
X78186000Y-97194000D01*
D15*
X78306000Y-99814000D02*
X84606000Y-99814000D01*
D13*
X85496000Y-98564000D02*
X84726000Y-98564000D01*
X84726000Y-99934000D02*
X84726000Y-97194000D01*
D15*
X84606000Y-97314000D02*
X78306000Y-97314000D01*
X78306000Y-97314000D02*
X78306000Y-99814000D01*
X84606000Y-99814000D02*
X84606000Y-97314000D01*
D13*
X77416000Y-98564000D02*
X78186000Y-98564000D01*
X84726000Y-110094000D02*
X84726000Y-107354000D01*
X78186000Y-107354000D02*
X78186000Y-110094000D01*
D15*
X78306000Y-107474000D02*
X78306000Y-109974000D01*
X86536000Y-108724000D02*
X84606000Y-108724000D01*
X78306000Y-109974000D02*
X84606000Y-109974000D01*
X84606000Y-109974000D02*
X84606000Y-107474000D01*
D13*
X78186000Y-110094000D02*
X84726000Y-110094000D01*
D15*
X76376000Y-108724000D02*
X78306000Y-108724000D01*
D13*
X85496000Y-108724000D02*
X84726000Y-108724000D01*
X77416000Y-108724000D02*
X78186000Y-108724000D01*
D15*
X84606000Y-107474000D02*
X78306000Y-107474000D01*
D13*
X84726000Y-107354000D02*
X78186000Y-107354000D01*
X84726000Y-120254000D02*
X84726000Y-117514000D01*
D15*
X84606000Y-120134000D02*
X84606000Y-117634000D01*
D13*
X85496000Y-118884000D02*
X84726000Y-118884000D01*
X77416000Y-118884000D02*
X78186000Y-118884000D01*
D15*
X78306000Y-117634000D02*
X78306000Y-120134000D01*
D13*
X84726000Y-117514000D02*
X78186000Y-117514000D01*
D15*
X76376000Y-118884000D02*
X78306000Y-118884000D01*
X86536000Y-118884000D02*
X84606000Y-118884000D01*
D13*
X78186000Y-120254000D02*
X84726000Y-120254000D01*
X78186000Y-117514000D02*
X78186000Y-120254000D01*
D15*
X78306000Y-120134000D02*
X84606000Y-120134000D01*
X84606000Y-117634000D02*
X78306000Y-117634000D01*
D13*
X78186000Y-130414000D02*
X84726000Y-130414000D01*
D15*
X78306000Y-130294000D02*
X84606000Y-130294000D01*
D13*
X85496000Y-129044000D02*
X84726000Y-129044000D01*
D15*
X78306000Y-127794000D02*
X78306000Y-130294000D01*
D13*
X84726000Y-130414000D02*
X84726000Y-127674000D01*
X84726000Y-127674000D02*
X78186000Y-127674000D01*
X78186000Y-127674000D02*
X78186000Y-130414000D01*
D15*
X76376000Y-129044000D02*
X78306000Y-129044000D01*
D13*
X77416000Y-129044000D02*
X78186000Y-129044000D01*
D15*
X84606000Y-130294000D02*
X84606000Y-127794000D01*
X86536000Y-129044000D02*
X84606000Y-129044000D01*
X84606000Y-127794000D02*
X78306000Y-127794000D01*
X85065000Y-140823000D02*
X85065000Y-138323000D01*
X78765000Y-140823000D02*
X85065000Y-140823000D01*
D13*
X77875000Y-139573000D02*
X78645000Y-139573000D01*
X85955000Y-139573000D02*
X85185000Y-139573000D01*
D15*
X86995000Y-139573000D02*
X85065000Y-139573000D01*
X76835000Y-139573000D02*
X78765000Y-139573000D01*
D13*
X85185000Y-138203000D02*
X78645000Y-138203000D01*
D15*
X85065000Y-138323000D02*
X78765000Y-138323000D01*
X78765000Y-138323000D02*
X78765000Y-140823000D01*
D13*
X78645000Y-138203000D02*
X78645000Y-140943000D01*
X78645000Y-140943000D02*
X85185000Y-140943000D01*
X85185000Y-140943000D02*
X85185000Y-138203000D01*
X111284000Y-143029000D02*
X111284000Y-145769000D01*
D15*
X109474000Y-144399000D02*
X111404000Y-144399000D01*
D13*
X118594000Y-144399000D02*
X117824000Y-144399000D01*
X117824000Y-143029000D02*
X111284000Y-143029000D01*
D15*
X111404000Y-143149000D02*
X111404000Y-145649000D01*
D13*
X111284000Y-145769000D02*
X117824000Y-145769000D01*
D15*
X111404000Y-145649000D02*
X117704000Y-145649000D01*
X119634000Y-144399000D02*
X117704000Y-144399000D01*
X117704000Y-143149000D02*
X111404000Y-143149000D01*
D13*
X110514000Y-144399000D02*
X111284000Y-144399000D01*
D15*
X117704000Y-145649000D02*
X117704000Y-143149000D01*
D13*
X117824000Y-145769000D02*
X117824000Y-143029000D01*
X95326000Y-133838000D02*
X98066000Y-133838000D01*
D15*
X97946000Y-133718000D02*
X97946000Y-127418000D01*
D13*
X96696000Y-126528000D02*
X96696000Y-127298000D01*
X98066000Y-133838000D02*
X98066000Y-127298000D01*
X95326000Y-127298000D02*
X95326000Y-133838000D01*
D15*
X95446000Y-133718000D02*
X97946000Y-133718000D01*
X96696000Y-135648000D02*
X96696000Y-133718000D01*
X96696000Y-125488000D02*
X96696000Y-127418000D01*
D13*
X96696000Y-134608000D02*
X96696000Y-133838000D01*
D15*
X97946000Y-127418000D02*
X95446000Y-127418000D01*
D13*
X98066000Y-127298000D02*
X95326000Y-127298000D01*
D15*
X95446000Y-127418000D02*
X95446000Y-133718000D01*
X91714000Y-153264000D02*
X94214000Y-153264000D01*
D13*
X94334000Y-146844000D02*
X91594000Y-146844000D01*
D15*
X94214000Y-153264000D02*
X94214000Y-146964000D01*
D13*
X92964000Y-146074000D02*
X92964000Y-146844000D01*
D15*
X94214000Y-146964000D02*
X91714000Y-146964000D01*
X92964000Y-145034000D02*
X92964000Y-146964000D01*
X91714000Y-146964000D02*
X91714000Y-153264000D01*
D13*
X91594000Y-146844000D02*
X91594000Y-153384000D01*
X92964000Y-154154000D02*
X92964000Y-153384000D01*
X91594000Y-153384000D02*
X94334000Y-153384000D01*
X94334000Y-153384000D02*
X94334000Y-146844000D01*
D15*
X92964000Y-155194000D02*
X92964000Y-153264000D01*
X124836000Y-149727000D02*
X124836000Y-143427000D01*
X122336000Y-143427000D02*
X122336000Y-149727000D01*
D13*
X123586000Y-150617000D02*
X123586000Y-149847000D01*
X123586000Y-142537000D02*
X123586000Y-143307000D01*
D15*
X123586000Y-141497000D02*
X123586000Y-143427000D01*
D13*
X124956000Y-143307000D02*
X122216000Y-143307000D01*
X122216000Y-143307000D02*
X122216000Y-149847000D01*
D15*
X123586000Y-151657000D02*
X123586000Y-149727000D01*
X122336000Y-149727000D02*
X124836000Y-149727000D01*
D13*
X122216000Y-149847000D02*
X124956000Y-149847000D01*
X124956000Y-149847000D02*
X124956000Y-143307000D01*
D15*
X124836000Y-143427000D02*
X122336000Y-143427000D01*
D13*
X102326000Y-143577000D02*
X97826000Y-143577000D01*
X101076000Y-153857000D02*
X102326000Y-153857000D01*
D15*
X102251000Y-153797000D02*
X96901000Y-153797000D01*
X96901000Y-153797000D02*
X96901000Y-143637000D01*
X103251000Y-143637000D02*
X103251000Y-152797000D01*
D13*
X102326000Y-153857000D02*
X102326000Y-143577000D01*
X97826000Y-143577000D02*
X97826000Y-153857000D01*
D15*
X103251000Y-152797000D02*
X102251000Y-153797000D01*
D13*
X97826000Y-153857000D02*
X99076000Y-153857000D01*
D15*
X96901000Y-143637000D02*
X103251000Y-143637000D01*
D13*
X101076000Y-153857000D02*
G75*
G03*
X99076000Y-153857000I-1000000J0D01*
G01*
X103402000Y-154332000D02*
X103402000Y-157072000D01*
D15*
X103282000Y-154452000D02*
X96282000Y-154452000D01*
X96282000Y-154452000D02*
X96282000Y-156952000D01*
D13*
X96162000Y-154332000D02*
X103402000Y-154332000D01*
X96162000Y-157072000D02*
X103402000Y-157072000D01*
X96162000Y-154332000D02*
X96162000Y-157072000D01*
D15*
X103282000Y-156952000D02*
X103282000Y-154452000D01*
X96282000Y-156952000D02*
X103282000Y-156952000D01*
D13*
X103863000Y-143102000D02*
X103863000Y-140362000D01*
X96623000Y-143102000D02*
X96623000Y-140362000D01*
D15*
X103743000Y-142982000D02*
X103743000Y-140482000D01*
X103743000Y-140482000D02*
X96743000Y-140482000D01*
X96743000Y-140482000D02*
X96743000Y-142982000D01*
D13*
X103863000Y-140362000D02*
X96623000Y-140362000D01*
X103863000Y-143102000D02*
X96623000Y-143102000D01*
D15*
X96743000Y-142982000D02*
X103743000Y-142982000D01*
D13*
X138547000Y-127861000D02*
X138547000Y-131461000D01*
D15*
X138647000Y-127921000D02*
X138647000Y-131421000D01*
D13*
X138547000Y-131461000D02*
G75*
G03*
X139274205Y-131985184I1850000J1800000D01*
G01*
D15*
X142877000Y-129661000D02*
G75*
G03*
X138643375Y-127907375I-2480000J0D01*
G01*
X138643375Y-131414625D02*
G75*
G03*
X142877000Y-129661000I1753625J1753625D01*
G01*
D13*
X139274205Y-127336816D02*
G75*
G03*
X138547000Y-127861000I1122795J-2324184D01*
G01*
X142997000Y-129661000D02*
G75*
G03*
X141495807Y-127304600I-2600000J0D01*
G01*
X141495807Y-132017400D02*
G75*
G03*
X142997000Y-129661000I-1098807J2356400D01*
G01*
D15*
X134983000Y-130337000D02*
X134983000Y-127837000D01*
D13*
X127793000Y-129087000D02*
X128563000Y-129087000D01*
D15*
X128683000Y-127837000D02*
X128683000Y-130337000D01*
X134983000Y-127837000D02*
X128683000Y-127837000D01*
D13*
X135103000Y-127717000D02*
X128563000Y-127717000D01*
D15*
X126753000Y-129087000D02*
X128683000Y-129087000D01*
D13*
X128563000Y-130457000D02*
X135103000Y-130457000D01*
D15*
X136913000Y-129087000D02*
X134983000Y-129087000D01*
D13*
X135873000Y-129087000D02*
X135103000Y-129087000D01*
X135103000Y-130457000D02*
X135103000Y-127717000D01*
D15*
X128683000Y-130337000D02*
X134983000Y-130337000D01*
D13*
X128563000Y-127717000D02*
X128563000Y-130457000D01*
X145737000Y-129929000D02*
X146507000Y-129929000D01*
D15*
X152927000Y-131179000D02*
X152927000Y-128679000D01*
X146627000Y-131179000D02*
X152927000Y-131179000D01*
X154857000Y-129929000D02*
X152927000Y-129929000D01*
D13*
X146507000Y-131299000D02*
X153047000Y-131299000D01*
X146507000Y-128559000D02*
X146507000Y-131299000D01*
D15*
X144697000Y-129929000D02*
X146627000Y-129929000D01*
D13*
X153047000Y-128559000D02*
X146507000Y-128559000D01*
X153817000Y-129929000D02*
X153047000Y-129929000D01*
D15*
X146627000Y-128679000D02*
X146627000Y-131179000D01*
D13*
X153047000Y-131299000D02*
X153047000Y-128559000D01*
D15*
X152927000Y-128679000D02*
X146627000Y-128679000D01*
D13*
X139142000Y-146044000D02*
X139142000Y-138804000D01*
D15*
X141762000Y-138924000D02*
X139262000Y-138924000D01*
X139262000Y-145924000D02*
X141762000Y-145924000D01*
X141762000Y-145924000D02*
X141762000Y-138924000D01*
D13*
X139142000Y-138804000D02*
X141882000Y-138804000D01*
X141882000Y-146044000D02*
X141882000Y-138804000D01*
X139142000Y-146044000D02*
X141882000Y-146044000D01*
D15*
X139262000Y-138924000D02*
X139262000Y-145924000D01*
X114476000Y-108724000D02*
X112546000Y-108724000D01*
X106246000Y-107474000D02*
X106246000Y-109974000D01*
D13*
X105356000Y-108724000D02*
X106126000Y-108724000D01*
D15*
X104316000Y-108724000D02*
X106246000Y-108724000D01*
D13*
X113436000Y-108724000D02*
X112666000Y-108724000D01*
D15*
X112546000Y-107474000D02*
X106246000Y-107474000D01*
X112546000Y-109974000D02*
X112546000Y-107474000D01*
X106246000Y-109974000D02*
X112546000Y-109974000D01*
D13*
X112666000Y-110094000D02*
X112666000Y-107354000D01*
X112666000Y-107354000D02*
X106126000Y-107354000D01*
X106126000Y-107354000D02*
X106126000Y-110094000D01*
X106126000Y-110094000D02*
X112666000Y-110094000D01*
%LPC*%
D16*
X97790000Y-103759000D03*
D17*
X95250000Y-103759000D03*
X97790000Y-106299000D03*
X95250000Y-106299000D03*
X97790000Y-108839000D03*
X95250000Y-108839000D03*
X97790000Y-111379000D03*
X95250000Y-111379000D03*
X97790000Y-113919000D03*
X95250000Y-113919000D03*
X97790000Y-116459000D03*
X95250000Y-116459000D03*
X97790000Y-118999000D03*
X95250000Y-118999000D03*
X97790000Y-121539000D03*
X95250000Y-121539000D03*
D16*
X123190000Y-87884000D03*
D17*
X120650000Y-87884000D03*
X123190000Y-90424000D03*
X120650000Y-90424000D03*
X123190000Y-92964000D03*
X120650000Y-92964000D03*
X123190000Y-95504000D03*
X120650000Y-95504000D03*
X123190000Y-98044000D03*
X120650000Y-98044000D03*
X123190000Y-100584000D03*
X120650000Y-100584000D03*
X123190000Y-103124000D03*
X120650000Y-103124000D03*
D18*
X109396000Y-59448000D03*
D19*
X117016000Y-59448000D03*
D18*
X109396000Y-70624000D03*
D19*
X117016000Y-70624000D03*
D18*
X109396000Y-80784000D03*
D19*
X117016000Y-80784000D03*
D18*
X109396000Y-90944000D03*
D19*
X117016000Y-90944000D03*
D18*
X109396000Y-101104000D03*
D19*
X117016000Y-101104000D03*
D18*
X109396000Y-111264000D03*
D19*
X117016000Y-111264000D03*
D18*
X108888000Y-121424000D03*
D19*
X116508000Y-121424000D03*
D18*
X108888000Y-131584000D03*
D19*
X116508000Y-131584000D03*
D20*
X91616000Y-59956000D03*
D19*
X83996000Y-59956000D03*
D20*
X91616000Y-70624000D03*
D19*
X83996000Y-70624000D03*
D20*
X91616000Y-80784000D03*
D19*
X83996000Y-80784000D03*
D20*
X91616000Y-90944000D03*
D19*
X83996000Y-90944000D03*
D20*
X91616000Y-101104000D03*
D19*
X83996000Y-101104000D03*
D20*
X91616000Y-111264000D03*
D19*
X83996000Y-111264000D03*
D20*
X91616000Y-121424000D03*
D19*
X83996000Y-121424000D03*
D20*
X91616000Y-131584000D03*
D19*
X83996000Y-131584000D03*
D21*
X114476000Y-68084000D03*
D19*
X104316000Y-68084000D03*
D21*
X114476000Y-78244000D03*
D19*
X104316000Y-78244000D03*
D21*
X114476000Y-88404000D03*
D19*
X104316000Y-88404000D03*
D21*
X114476000Y-98564000D03*
D19*
X104316000Y-98564000D03*
D21*
X113968000Y-118884000D03*
D19*
X103808000Y-118884000D03*
D21*
X113968000Y-129044000D03*
D19*
X103808000Y-129044000D03*
D21*
X119634000Y-138303000D03*
D19*
X109474000Y-138303000D03*
D21*
X119634000Y-141351000D03*
D19*
X109474000Y-141351000D03*
D21*
X86536000Y-68084000D03*
D19*
X76376000Y-68084000D03*
D21*
X86536000Y-78244000D03*
D19*
X76376000Y-78244000D03*
D21*
X86536000Y-88404000D03*
D19*
X76376000Y-88404000D03*
D21*
X86536000Y-98564000D03*
D19*
X76376000Y-98564000D03*
D21*
X86536000Y-108724000D03*
D19*
X76376000Y-108724000D03*
D21*
X86536000Y-118884000D03*
D19*
X76376000Y-118884000D03*
D21*
X86536000Y-129044000D03*
D19*
X76376000Y-129044000D03*
D21*
X86995000Y-139573000D03*
D19*
X76835000Y-139573000D03*
D21*
X119634000Y-144399000D03*
D19*
X109474000Y-144399000D03*
D21*
X96696000Y-135648000D03*
D19*
X96696000Y-125488000D03*
D21*
X92964000Y-155194000D03*
D19*
X92964000Y-145034000D03*
D21*
X123586000Y-141497000D03*
D19*
X123586000Y-151657000D03*
D22*
X103886000Y-152527000D03*
D23*
X103886000Y-149987000D03*
X103886000Y-147447000D03*
X103886000Y-144907000D03*
X96266000Y-144907000D03*
X96266000Y-147447000D03*
X96266000Y-149987000D03*
X96266000Y-152527000D03*
D21*
X97282000Y-155702000D03*
X102282000Y-155702000D03*
X102743000Y-141732000D03*
X97743000Y-141732000D03*
D24*
X140397000Y-127121000D03*
D25*
X140397000Y-129661000D03*
X140397000Y-132201000D03*
D21*
X126753000Y-129087000D03*
D19*
X136913000Y-129087000D03*
D21*
X144697000Y-129929000D03*
D19*
X154857000Y-129929000D03*
D21*
X140512000Y-144924000D03*
X140512000Y-139924000D03*
X114476000Y-108724000D03*
D19*
X104316000Y-108724000D03*
D26*
X89330000Y-104660000D03*
X86790000Y-104660000D03*
X84250000Y-104660000D03*
D25*
X134734000Y-139295000D03*
X129734000Y-139295000D03*
X134734000Y-134295000D03*
X129734000Y-134295000D03*
D26*
X143363000Y-93982000D03*
X143363000Y-96532000D03*
X143363000Y-99082000D03*
X138863000Y-93982000D03*
X138863000Y-96532000D03*
X138863000Y-99082000D03*
D27*
X132234000Y-150383998D03*
D28*
X132234000Y-155303998D03*
X132234000Y-147003998D03*
X132234000Y-143903998D03*
D26*
X89330000Y-114820000D03*
X86790000Y-114820000D03*
X84250000Y-114820000D03*
X117016000Y-124980000D03*
X114476000Y-124980000D03*
X111936000Y-124980000D03*
X117016000Y-114820000D03*
X114476000Y-114820000D03*
X111936000Y-114820000D03*
X117016000Y-104660000D03*
X114476000Y-104660000D03*
X111936000Y-104660000D03*
X117016000Y-94500000D03*
X114476000Y-94500000D03*
X111936000Y-94500000D03*
X89330000Y-94500000D03*
X86790000Y-94500000D03*
X84250000Y-94500000D03*
X89330000Y-84340000D03*
X86790000Y-84340000D03*
X84250000Y-84340000D03*
X117016000Y-84340000D03*
X114476000Y-84340000D03*
X111936000Y-84340000D03*
X117016000Y-74180000D03*
X114476000Y-74180000D03*
X111936000Y-74180000D03*
X89330000Y-74180000D03*
X86790000Y-74180000D03*
X84250000Y-74180000D03*
X89330000Y-64020000D03*
X86790000Y-64020000D03*
X84250000Y-64020000D03*
X117016000Y-64020000D03*
X114476000Y-64020000D03*
X111936000Y-64020000D03*
D27*
X149991000Y-109363000D03*
D28*
X154911000Y-109363000D03*
X146611000Y-109363000D03*
X143511000Y-109363000D03*
D29*
X154791000Y-63643000D03*
X145191000Y-63643000D03*
D30*
X152491000Y-70643000D03*
X149991000Y-70643000D03*
X147491000Y-70643000D03*
D29*
X137034000Y-63643000D03*
X127434000Y-63643000D03*
D30*
X134734000Y-70643000D03*
X132234000Y-70643000D03*
X129734000Y-70643000D03*
D26*
X132234000Y-106823000D03*
X132234000Y-109363000D03*
X132234000Y-111903000D03*
X132234000Y-125619000D03*
X132234000Y-123079000D03*
X132234000Y-120539000D03*
D29*
X127434000Y-82693000D03*
X137034000Y-82693000D03*
D30*
X134734000Y-89693000D03*
X132234000Y-89693000D03*
X129734000Y-89693000D03*
D27*
X114427000Y-150368000D03*
D28*
X119347000Y-150368000D03*
X111047000Y-150368000D03*
X107947000Y-150368000D03*
D31*
X102997000Y-64020000D03*
D32*
X105537000Y-64020000D03*
D31*
X102997000Y-74168000D03*
D32*
X105537000Y-74168000D03*
D31*
X102997000Y-84328000D03*
D32*
X105537000Y-84328000D03*
D31*
X102997000Y-94488000D03*
D32*
X105537000Y-94488000D03*
D31*
X102997000Y-104648000D03*
D32*
X105537000Y-104648000D03*
D31*
X102997000Y-114808000D03*
D32*
X105537000Y-114808000D03*
D31*
X75311000Y-64008000D03*
D32*
X77851000Y-64008000D03*
D31*
X75311000Y-74168000D03*
D32*
X77851000Y-74168000D03*
D31*
X75311000Y-84340000D03*
D32*
X77851000Y-84340000D03*
D31*
X75311000Y-94488000D03*
D32*
X77851000Y-94488000D03*
D31*
X75311000Y-104648000D03*
D32*
X77851000Y-104648000D03*
D31*
X75311000Y-114808000D03*
D32*
X77851000Y-114808000D03*
D31*
X75311000Y-124980000D03*
D32*
X77851000Y-124980000D03*
D27*
X149991000Y-150384000D03*
D28*
X149991000Y-155304000D03*
X149991000Y-147004000D03*
X149991000Y-143904000D03*
D27*
X149991000Y-123079000D03*
D28*
X154911000Y-123079000D03*
X146611000Y-123079000D03*
X143511000Y-123079000D03*
D27*
X86790000Y-150380000D03*
D28*
X86790000Y-155300000D03*
X86790000Y-147000000D03*
X86790000Y-143900000D03*
D31*
X75311000Y-135140000D03*
D32*
X77851000Y-135140000D03*
D26*
X89330000Y-135140000D03*
X86790000Y-135140000D03*
X84250000Y-135140000D03*
X89331800Y-124968000D03*
X86791800Y-124968000D03*
X84251800Y-124968000D03*
D29*
X154791042Y-82693000D03*
X145191042Y-82693000D03*
D30*
X152491042Y-89693000D03*
X149991042Y-89693000D03*
X147491042Y-89693000D03*
D31*
X102997000Y-135128000D03*
D32*
X105537000Y-135128000D03*
D31*
X102997000Y-124968000D03*
D32*
X105537000Y-124968000D03*
D26*
X117016000Y-135140000D03*
X114476000Y-135140000D03*
X111936000Y-135140000D03*
D27*
X149991000Y-136795000D03*
D28*
X154911000Y-136795000D03*
X146611000Y-136795000D03*
X143511000Y-136795000D03*
M02*
