M48
; DRILL file {KiCad (5.1.0-0)} date Thursday, October 10, 2019 at 04:01:53 PM
; FORMAT={-:-/ absolute / inch / decimal}
; #@! TF.CreationDate,2019-10-10T16:01:53-05:00
; #@! TF.GenerationSoftware,Kicad,Pcbnew,(5.1.0-0)
; #@! TF.FileFunction,Plated,1,2,PTH
FMAT,2
INCH
T1C0.0157
T2C0.0295
T3C0.0315
T4C0.0354
T5C0.0394
T6C0.0591
T7C0.0620
T8C0.0866
T9C0.1181
%
G90
G05
T1
X4.265Y-3.88
X4.345Y-3.88
T2
X5.0316Y-5.2816
X5.0316Y-5.4784
X5.2284Y-5.2816
X5.2284Y-5.4784
T3
X3.8481Y-5.58
X4.045Y-5.58
X4.3069Y-4.3805
X4.6069Y-4.3805
X3.3069Y-2.3605
X3.6069Y-2.3605
X4.88Y-5.085
X5.28Y-5.085
X3.0069Y-4.6805
X3.4069Y-4.6805
X4.2869Y-5.1805
X4.5869Y-5.1805
X3.3069Y-4.3805
X3.025Y-5.495
X3.425Y-5.495
X3.0069Y-3.8805
X3.4069Y-3.8805
X4.1069Y-3.4805
X4.5069Y-3.4805
X4.4869Y-4.6805
X3.3069Y-4.7805
X3.6069Y-4.7805
X5.575Y-5.125
X3.0069Y-3.0805
X3.4069Y-3.0805
X3.6069Y-4.3805
X5.975Y-5.125
X4.0869Y-5.0805
X4.4869Y-5.0805
X4.0869Y-4.6805
X3.79Y-5.705
X3.79Y-5.805
X3.79Y-5.905
X3.79Y-6.005
X4.09Y-5.705
X4.09Y-5.805
X4.09Y-5.905
X4.09Y-6.005
X3.8069Y-4.9405
X3.8069Y-5.3405
X4.1069Y-3.8805
X4.5069Y-3.8805
X4.3069Y-3.9805
X4.6069Y-3.9805
X4.2869Y-4.7805
X4.5869Y-4.7805
X5.42Y-5.5681
X5.42Y-5.765
X3.3069Y-3.1805
X3.6069Y-3.1805
X3.0069Y-2.6805
X3.4069Y-2.6805
X3.3069Y-3.9805
X3.6069Y-3.9805
X3.66Y-5.71
X3.66Y-6.11
X3.3069Y-5.1805
X3.6069Y-5.1805
X4.1069Y-4.2805
X4.5069Y-4.2805
X4.1069Y-3.0805
X4.5069Y-3.0805
X4.3069Y-3.1805
X4.6069Y-3.1805
X4.835Y-5.655
X4.1069Y-2.6805
X4.5069Y-2.6805
X4.835Y-6.055
X4.3069Y-2.3405
X4.6069Y-2.3405
X4.3069Y-3.5805
X4.6069Y-3.5805
X3.3069Y-2.7805
X4.31Y-5.445
X4.71Y-5.445
X3.6069Y-2.7805
X3.3069Y-3.5805
X3.6069Y-3.5805
X3.0069Y-4.2805
X3.4069Y-4.2805
X3.83Y-6.13
X4.0269Y-6.13
X3.0069Y-5.0805
X4.31Y-5.565
X4.71Y-5.565
X3.4069Y-5.0805
X5.41Y-5.03
X4.3069Y-2.7805
X4.6069Y-2.7805
X5.41Y-5.13
X5.41Y-5.23
X3.0069Y-3.4805
X3.4069Y-3.4805
X4.31Y-5.685
X4.71Y-5.685
T4
X2.965Y-2.92
X3.065Y-2.92
X2.965Y-4.12
X3.065Y-4.12
X2.965Y-4.52
X3.065Y-4.52
X2.965Y-2.52
X3.065Y-2.52
X4.055Y-4.92
X4.155Y-4.92
X4.055Y-4.52
X4.155Y-4.52
X4.055Y-2.92
X4.155Y-2.92
X2.965Y-5.3205
X3.065Y-5.3205
X4.055Y-2.5205
X4.155Y-2.5205
X2.965Y-3.3205
X3.065Y-3.3205
X4.055Y-3.32
X4.155Y-3.32
X4.055Y-3.72
X4.155Y-3.72
X4.055Y-5.32
X4.155Y-5.32
X4.055Y-4.12
X4.155Y-4.12
X2.965Y-4.9205
X3.065Y-4.9205
X2.965Y-3.72
X3.065Y-3.72
T5
X5.6716Y-2.7756
X5.77Y-2.7756
X5.8684Y-2.7756
X4.75Y-3.46
X4.75Y-3.56
X4.75Y-3.66
X4.75Y-3.76
X4.75Y-3.86
X4.75Y-3.96
X4.75Y-4.06
X4.85Y-3.46
X4.85Y-3.56
X4.85Y-3.66
X4.85Y-3.76
X4.85Y-3.86
X4.85Y-3.96
X4.85Y-4.06
X3.75Y-4.085
X3.75Y-4.185
X3.75Y-4.285
X3.75Y-4.385
X3.75Y-4.485
X3.75Y-4.585
X3.75Y-4.685
X5.13Y-2.7756
X5.0316Y-3.5256
X5.2284Y-3.5256
X5.6716Y-3.5256
X5.77Y-3.5256
X5.8684Y-3.5256
X3.75Y-4.785
X3.85Y-4.785
X5.13Y-3.5256
X3.85Y-4.585
X3.85Y-4.685
X5.0316Y-2.7756
X5.2284Y-2.7756
X3.85Y-4.085
X3.85Y-4.185
X3.85Y-4.285
X3.85Y-4.385
X3.85Y-4.485
T6
X5.5149Y-5.38
X5.6369Y-5.38
X5.9637Y-5.38
X3.4169Y-5.6654
X3.4169Y-5.7874
X3.4169Y-6.1142
X5.13Y-5.6649
X4.2499Y-5.92
X4.3719Y-5.92
X4.6987Y-5.92
X5.77Y-5.6649
X5.77Y-5.7869
X5.77Y-6.1137
X5.13Y-5.7869
X5.13Y-6.1137
X5.5149Y-4.84
X5.6369Y-4.84
X5.9637Y-4.84
X5.5149Y-4.3
X5.6369Y-4.3
X5.9637Y-4.3
T7
X4.4069Y-4.5205
X4.5069Y-4.5205
X4.6069Y-4.5205
X4.4069Y-4.9205
X4.5069Y-4.9205
X4.6069Y-4.9205
X4.4069Y-2.5205
X5.13Y-4.74
X5.13Y-4.84
X5.13Y-4.94
X4.5069Y-2.5205
X4.6069Y-2.5205
X3.3169Y-3.7205
X3.4169Y-3.7205
X3.3169Y-3.3205
X3.5169Y-3.7205
X4.4069Y-3.7205
X4.6069Y-3.7205
X4.4069Y-5.3205
X4.5069Y-5.3205
X4.6069Y-5.3205
X4.5069Y-3.7205
X3.4169Y-3.3205
X3.5169Y-3.3205
X3.3169Y-2.5205
X3.4169Y-2.5205
X3.5169Y-2.5205
X4.4069Y-4.1205
X4.5069Y-4.1205
X4.6069Y-4.1205
X4.4069Y-2.9205
X4.5069Y-2.9205
X4.6069Y-2.9205
X3.317Y-4.92
X3.417Y-4.92
X3.517Y-4.92
X4.4069Y-3.3205
X4.5069Y-3.3205
X4.6069Y-3.3205
X3.3169Y-4.5205
X3.4169Y-4.5205
X3.5169Y-4.5205
X3.3169Y-2.9205
X3.4169Y-2.9205
X3.5169Y-2.9205
X5.13Y-4.2
X5.13Y-4.3
X5.13Y-4.4
X3.3169Y-4.1205
X3.4169Y-4.1205
X3.5169Y-4.1205
X5.3614Y-3.6996
X5.3614Y-3.8
X5.3614Y-3.9004
X5.5386Y-3.6996
X5.5386Y-3.8
X5.5386Y-3.9004
X3.3169Y-5.3205
X3.4169Y-5.3205
X3.5169Y-5.3205
T8
X4.941Y-2.5
X5.319Y-2.5
X4.941Y-3.25
X5.319Y-3.25
X5.581Y-3.25
X5.959Y-3.25
X5.581Y-2.5
X5.959Y-2.5
T9
X5.45Y-2.9
X5.45Y-6.02
X3.07Y-6.02
X3.07Y-2.24
T0
M30
